G04 #@! TF.GenerationSoftware,KiCad,Pcbnew,(5.1.8)-1*
G04 #@! TF.CreationDate,2024-05-28T10:21:55-06:00*
G04 #@! TF.ProjectId,8088 PCB,38303838-2050-4434-922e-6b696361645f,rev?*
G04 #@! TF.SameCoordinates,Original*
G04 #@! TF.FileFunction,Legend,Top*
G04 #@! TF.FilePolarity,Positive*
%FSLAX46Y46*%
G04 Gerber Fmt 4.6, Leading zero omitted, Abs format (unit mm)*
G04 Created by KiCad (PCBNEW (5.1.8)-1) date 2024-05-28 10:21:55*
%MOMM*%
%LPD*%
G01*
G04 APERTURE LIST*
%ADD10C,0.300000*%
%ADD11C,0.150000*%
%ADD12C,0.120000*%
%ADD13C,0.101600*%
G04 APERTURE END LIST*
D10*
X135172142Y-81919857D02*
X135672142Y-81919857D01*
X135886428Y-82705571D02*
X135172142Y-82705571D01*
X135172142Y-81205571D01*
X135886428Y-81205571D01*
X136529285Y-82705571D02*
X136529285Y-81205571D01*
X137029285Y-82277000D01*
X137529285Y-81205571D01*
X137529285Y-82705571D01*
X138243571Y-82705571D02*
X138243571Y-81205571D01*
X138743571Y-82277000D01*
X139243571Y-81205571D01*
X139243571Y-82705571D01*
X141957857Y-82562714D02*
X141886428Y-82634142D01*
X141672142Y-82705571D01*
X141529285Y-82705571D01*
X141315000Y-82634142D01*
X141172142Y-82491285D01*
X141100714Y-82348428D01*
X141029285Y-82062714D01*
X141029285Y-81848428D01*
X141100714Y-81562714D01*
X141172142Y-81419857D01*
X141315000Y-81277000D01*
X141529285Y-81205571D01*
X141672142Y-81205571D01*
X141886428Y-81277000D01*
X141957857Y-81348428D01*
X142886428Y-81205571D02*
X143172142Y-81205571D01*
X143315000Y-81277000D01*
X143457857Y-81419857D01*
X143529285Y-81705571D01*
X143529285Y-82205571D01*
X143457857Y-82491285D01*
X143315000Y-82634142D01*
X143172142Y-82705571D01*
X142886428Y-82705571D01*
X142743571Y-82634142D01*
X142600714Y-82491285D01*
X142529285Y-82205571D01*
X142529285Y-81705571D01*
X142600714Y-81419857D01*
X142743571Y-81277000D01*
X142886428Y-81205571D01*
X144172142Y-82705571D02*
X144172142Y-81205571D01*
X144672142Y-82277000D01*
X145172142Y-81205571D01*
X145172142Y-82705571D01*
X145886428Y-82705571D02*
X145886428Y-81205571D01*
X146457857Y-81205571D01*
X146600714Y-81277000D01*
X146672142Y-81348428D01*
X146743571Y-81491285D01*
X146743571Y-81705571D01*
X146672142Y-81848428D01*
X146600714Y-81919857D01*
X146457857Y-81991285D01*
X145886428Y-81991285D01*
X147386428Y-81205571D02*
X147386428Y-82419857D01*
X147457857Y-82562714D01*
X147529285Y-82634142D01*
X147672142Y-82705571D01*
X147957857Y-82705571D01*
X148100714Y-82634142D01*
X148172142Y-82562714D01*
X148243571Y-82419857D01*
X148243571Y-81205571D01*
X148743571Y-81205571D02*
X149600714Y-81205571D01*
X149172142Y-82705571D02*
X149172142Y-81205571D01*
X150100714Y-81919857D02*
X150600714Y-81919857D01*
X150815000Y-82705571D02*
X150100714Y-82705571D01*
X150100714Y-81205571D01*
X150815000Y-81205571D01*
X152315000Y-82705571D02*
X151815000Y-81991285D01*
X151457857Y-82705571D02*
X151457857Y-81205571D01*
X152029285Y-81205571D01*
X152172142Y-81277000D01*
X152243571Y-81348428D01*
X152315000Y-81491285D01*
X152315000Y-81705571D01*
X152243571Y-81848428D01*
X152172142Y-81919857D01*
X152029285Y-81991285D01*
X151457857Y-81991285D01*
X152886428Y-82634142D02*
X153100714Y-82705571D01*
X153457857Y-82705571D01*
X153600714Y-82634142D01*
X153672142Y-82562714D01*
X153743571Y-82419857D01*
X153743571Y-82277000D01*
X153672142Y-82134142D01*
X153600714Y-82062714D01*
X153457857Y-81991285D01*
X153172142Y-81919857D01*
X153029285Y-81848428D01*
X152957857Y-81777000D01*
X152886428Y-81634142D01*
X152886428Y-81491285D01*
X152957857Y-81348428D01*
X153029285Y-81277000D01*
X153172142Y-81205571D01*
X153529285Y-81205571D01*
X153743571Y-81277000D01*
X135386428Y-84398428D02*
X135243571Y-84327000D01*
X135172142Y-84255571D01*
X135100714Y-84112714D01*
X135100714Y-84041285D01*
X135172142Y-83898428D01*
X135243571Y-83827000D01*
X135386428Y-83755571D01*
X135672142Y-83755571D01*
X135815000Y-83827000D01*
X135886428Y-83898428D01*
X135957857Y-84041285D01*
X135957857Y-84112714D01*
X135886428Y-84255571D01*
X135815000Y-84327000D01*
X135672142Y-84398428D01*
X135386428Y-84398428D01*
X135243571Y-84469857D01*
X135172142Y-84541285D01*
X135100714Y-84684142D01*
X135100714Y-84969857D01*
X135172142Y-85112714D01*
X135243571Y-85184142D01*
X135386428Y-85255571D01*
X135672142Y-85255571D01*
X135815000Y-85184142D01*
X135886428Y-85112714D01*
X135957857Y-84969857D01*
X135957857Y-84684142D01*
X135886428Y-84541285D01*
X135815000Y-84469857D01*
X135672142Y-84398428D01*
X136886428Y-83755571D02*
X137029285Y-83755571D01*
X137172142Y-83827000D01*
X137243571Y-83898428D01*
X137315000Y-84041285D01*
X137386428Y-84327000D01*
X137386428Y-84684142D01*
X137315000Y-84969857D01*
X137243571Y-85112714D01*
X137172142Y-85184142D01*
X137029285Y-85255571D01*
X136886428Y-85255571D01*
X136743571Y-85184142D01*
X136672142Y-85112714D01*
X136600714Y-84969857D01*
X136529285Y-84684142D01*
X136529285Y-84327000D01*
X136600714Y-84041285D01*
X136672142Y-83898428D01*
X136743571Y-83827000D01*
X136886428Y-83755571D01*
X138243571Y-84398428D02*
X138100714Y-84327000D01*
X138029285Y-84255571D01*
X137957857Y-84112714D01*
X137957857Y-84041285D01*
X138029285Y-83898428D01*
X138100714Y-83827000D01*
X138243571Y-83755571D01*
X138529285Y-83755571D01*
X138672142Y-83827000D01*
X138743571Y-83898428D01*
X138815000Y-84041285D01*
X138815000Y-84112714D01*
X138743571Y-84255571D01*
X138672142Y-84327000D01*
X138529285Y-84398428D01*
X138243571Y-84398428D01*
X138100714Y-84469857D01*
X138029285Y-84541285D01*
X137957857Y-84684142D01*
X137957857Y-84969857D01*
X138029285Y-85112714D01*
X138100714Y-85184142D01*
X138243571Y-85255571D01*
X138529285Y-85255571D01*
X138672142Y-85184142D01*
X138743571Y-85112714D01*
X138815000Y-84969857D01*
X138815000Y-84684142D01*
X138743571Y-84541285D01*
X138672142Y-84469857D01*
X138529285Y-84398428D01*
X139672142Y-84398428D02*
X139529285Y-84327000D01*
X139457857Y-84255571D01*
X139386428Y-84112714D01*
X139386428Y-84041285D01*
X139457857Y-83898428D01*
X139529285Y-83827000D01*
X139672142Y-83755571D01*
X139957857Y-83755571D01*
X140100714Y-83827000D01*
X140172142Y-83898428D01*
X140243571Y-84041285D01*
X140243571Y-84112714D01*
X140172142Y-84255571D01*
X140100714Y-84327000D01*
X139957857Y-84398428D01*
X139672142Y-84398428D01*
X139529285Y-84469857D01*
X139457857Y-84541285D01*
X139386428Y-84684142D01*
X139386428Y-84969857D01*
X139457857Y-85112714D01*
X139529285Y-85184142D01*
X139672142Y-85255571D01*
X139957857Y-85255571D01*
X140100714Y-85184142D01*
X140172142Y-85112714D01*
X140243571Y-84969857D01*
X140243571Y-84684142D01*
X140172142Y-84541285D01*
X140100714Y-84469857D01*
X139957857Y-84398428D01*
X142029285Y-85255571D02*
X142029285Y-83755571D01*
X142600714Y-83755571D01*
X142743571Y-83827000D01*
X142815000Y-83898428D01*
X142886428Y-84041285D01*
X142886428Y-84255571D01*
X142815000Y-84398428D01*
X142743571Y-84469857D01*
X142600714Y-84541285D01*
X142029285Y-84541285D01*
X144386428Y-85112714D02*
X144315000Y-85184142D01*
X144100714Y-85255571D01*
X143957857Y-85255571D01*
X143743571Y-85184142D01*
X143600714Y-85041285D01*
X143529285Y-84898428D01*
X143457857Y-84612714D01*
X143457857Y-84398428D01*
X143529285Y-84112714D01*
X143600714Y-83969857D01*
X143743571Y-83827000D01*
X143957857Y-83755571D01*
X144100714Y-83755571D01*
X144315000Y-83827000D01*
X144386428Y-83898428D01*
X147029285Y-85112714D02*
X146957857Y-85184142D01*
X146743571Y-85255571D01*
X146600714Y-85255571D01*
X146386428Y-85184142D01*
X146243571Y-85041285D01*
X146172142Y-84898428D01*
X146100714Y-84612714D01*
X146100714Y-84398428D01*
X146172142Y-84112714D01*
X146243571Y-83969857D01*
X146386428Y-83827000D01*
X146600714Y-83755571D01*
X146743571Y-83755571D01*
X146957857Y-83827000D01*
X147029285Y-83898428D01*
X147957857Y-83755571D02*
X148243571Y-83755571D01*
X148386428Y-83827000D01*
X148529285Y-83969857D01*
X148600714Y-84255571D01*
X148600714Y-84755571D01*
X148529285Y-85041285D01*
X148386428Y-85184142D01*
X148243571Y-85255571D01*
X147957857Y-85255571D01*
X147815000Y-85184142D01*
X147672142Y-85041285D01*
X147600714Y-84755571D01*
X147600714Y-84255571D01*
X147672142Y-83969857D01*
X147815000Y-83827000D01*
X147957857Y-83755571D01*
X149243571Y-85255571D02*
X149243571Y-83755571D01*
X149743571Y-84827000D01*
X150243571Y-83755571D01*
X150243571Y-85255571D01*
X150957857Y-85255571D02*
X150957857Y-83755571D01*
X151529285Y-83755571D01*
X151672142Y-83827000D01*
X151743571Y-83898428D01*
X151815000Y-84041285D01*
X151815000Y-84255571D01*
X151743571Y-84398428D01*
X151672142Y-84469857D01*
X151529285Y-84541285D01*
X150957857Y-84541285D01*
X152386428Y-84827000D02*
X153100714Y-84827000D01*
X152243571Y-85255571D02*
X152743571Y-83755571D01*
X153243571Y-85255571D01*
X153529285Y-83755571D02*
X154386428Y-83755571D01*
X153957857Y-85255571D02*
X153957857Y-83755571D01*
X154886428Y-85255571D02*
X154886428Y-83755571D01*
X156100714Y-84469857D02*
X156315000Y-84541285D01*
X156386428Y-84612714D01*
X156457857Y-84755571D01*
X156457857Y-84969857D01*
X156386428Y-85112714D01*
X156315000Y-85184142D01*
X156172142Y-85255571D01*
X155600714Y-85255571D01*
X155600714Y-83755571D01*
X156100714Y-83755571D01*
X156243571Y-83827000D01*
X156315000Y-83898428D01*
X156386428Y-84041285D01*
X156386428Y-84184142D01*
X156315000Y-84327000D01*
X156243571Y-84398428D01*
X156100714Y-84469857D01*
X155600714Y-84469857D01*
X157815000Y-85255571D02*
X157100714Y-85255571D01*
X157100714Y-83755571D01*
X158315000Y-84469857D02*
X158815000Y-84469857D01*
X159029285Y-85255571D02*
X158315000Y-85255571D01*
X158315000Y-83755571D01*
X159029285Y-83755571D01*
X136029285Y-87662714D02*
X135957857Y-87734142D01*
X135743571Y-87805571D01*
X135600714Y-87805571D01*
X135386428Y-87734142D01*
X135243571Y-87591285D01*
X135172142Y-87448428D01*
X135100714Y-87162714D01*
X135100714Y-86948428D01*
X135172142Y-86662714D01*
X135243571Y-86519857D01*
X135386428Y-86377000D01*
X135600714Y-86305571D01*
X135743571Y-86305571D01*
X135957857Y-86377000D01*
X136029285Y-86448428D01*
X136886428Y-87805571D02*
X136743571Y-87734142D01*
X136672142Y-87662714D01*
X136600714Y-87519857D01*
X136600714Y-87091285D01*
X136672142Y-86948428D01*
X136743571Y-86877000D01*
X136886428Y-86805571D01*
X137100714Y-86805571D01*
X137243571Y-86877000D01*
X137315000Y-86948428D01*
X137386428Y-87091285D01*
X137386428Y-87519857D01*
X137315000Y-87662714D01*
X137243571Y-87734142D01*
X137100714Y-87805571D01*
X136886428Y-87805571D01*
X138029285Y-86805571D02*
X138029285Y-88305571D01*
X138029285Y-86877000D02*
X138172142Y-86805571D01*
X138457857Y-86805571D01*
X138600714Y-86877000D01*
X138672142Y-86948428D01*
X138743571Y-87091285D01*
X138743571Y-87519857D01*
X138672142Y-87662714D01*
X138600714Y-87734142D01*
X138457857Y-87805571D01*
X138172142Y-87805571D01*
X138029285Y-87734142D01*
X139243571Y-86805571D02*
X139600714Y-87805571D01*
X139957857Y-86805571D02*
X139600714Y-87805571D01*
X139457857Y-88162714D01*
X139386428Y-88234142D01*
X139243571Y-88305571D01*
X140529285Y-87805571D02*
X140529285Y-86805571D01*
X140529285Y-87091285D02*
X140600714Y-86948428D01*
X140672142Y-86877000D01*
X140815000Y-86805571D01*
X140957857Y-86805571D01*
X141457857Y-87805571D02*
X141457857Y-86805571D01*
X141457857Y-86305571D02*
X141386428Y-86377000D01*
X141457857Y-86448428D01*
X141529285Y-86377000D01*
X141457857Y-86305571D01*
X141457857Y-86448428D01*
X142815000Y-86805571D02*
X142815000Y-88019857D01*
X142743571Y-88162714D01*
X142672142Y-88234142D01*
X142529285Y-88305571D01*
X142315000Y-88305571D01*
X142172142Y-88234142D01*
X142815000Y-87734142D02*
X142672142Y-87805571D01*
X142386428Y-87805571D01*
X142243571Y-87734142D01*
X142172142Y-87662714D01*
X142100714Y-87519857D01*
X142100714Y-87091285D01*
X142172142Y-86948428D01*
X142243571Y-86877000D01*
X142386428Y-86805571D01*
X142672142Y-86805571D01*
X142815000Y-86877000D01*
X143529285Y-87805571D02*
X143529285Y-86305571D01*
X144172142Y-87805571D02*
X144172142Y-87019857D01*
X144100714Y-86877000D01*
X143957857Y-86805571D01*
X143743571Y-86805571D01*
X143600714Y-86877000D01*
X143529285Y-86948428D01*
X144672142Y-86805571D02*
X145243571Y-86805571D01*
X144886428Y-86305571D02*
X144886428Y-87591285D01*
X144957857Y-87734142D01*
X145100714Y-87805571D01*
X145243571Y-87805571D01*
X147315000Y-88377000D02*
X147243571Y-88305571D01*
X147100714Y-88091285D01*
X147029285Y-87948428D01*
X146957857Y-87734142D01*
X146886428Y-87377000D01*
X146886428Y-87091285D01*
X146957857Y-86734142D01*
X147029285Y-86519857D01*
X147100714Y-86377000D01*
X147243571Y-86162714D01*
X147315000Y-86091285D01*
X148743571Y-87662714D02*
X148672142Y-87734142D01*
X148457857Y-87805571D01*
X148315000Y-87805571D01*
X148100714Y-87734142D01*
X147957857Y-87591285D01*
X147886428Y-87448428D01*
X147815000Y-87162714D01*
X147815000Y-86948428D01*
X147886428Y-86662714D01*
X147957857Y-86519857D01*
X148100714Y-86377000D01*
X148315000Y-86305571D01*
X148457857Y-86305571D01*
X148672142Y-86377000D01*
X148743571Y-86448428D01*
X149243571Y-88377000D02*
X149315000Y-88305571D01*
X149457857Y-88091285D01*
X149529285Y-87948428D01*
X149600714Y-87734142D01*
X149672142Y-87377000D01*
X149672142Y-87091285D01*
X149600714Y-86734142D01*
X149529285Y-86519857D01*
X149457857Y-86377000D01*
X149315000Y-86162714D01*
X149243571Y-86091285D01*
X151457857Y-86448428D02*
X151529285Y-86377000D01*
X151672142Y-86305571D01*
X152029285Y-86305571D01*
X152172142Y-86377000D01*
X152243571Y-86448428D01*
X152315000Y-86591285D01*
X152315000Y-86734142D01*
X152243571Y-86948428D01*
X151386428Y-87805571D01*
X152315000Y-87805571D01*
X153243571Y-86305571D02*
X153386428Y-86305571D01*
X153529285Y-86377000D01*
X153600714Y-86448428D01*
X153672142Y-86591285D01*
X153743571Y-86877000D01*
X153743571Y-87234142D01*
X153672142Y-87519857D01*
X153600714Y-87662714D01*
X153529285Y-87734142D01*
X153386428Y-87805571D01*
X153243571Y-87805571D01*
X153100714Y-87734142D01*
X153029285Y-87662714D01*
X152957857Y-87519857D01*
X152886428Y-87234142D01*
X152886428Y-86877000D01*
X152957857Y-86591285D01*
X153029285Y-86448428D01*
X153100714Y-86377000D01*
X153243571Y-86305571D01*
X154315000Y-86448428D02*
X154386428Y-86377000D01*
X154529285Y-86305571D01*
X154886428Y-86305571D01*
X155029285Y-86377000D01*
X155100714Y-86448428D01*
X155172142Y-86591285D01*
X155172142Y-86734142D01*
X155100714Y-86948428D01*
X154243571Y-87805571D01*
X155172142Y-87805571D01*
X156457857Y-86805571D02*
X156457857Y-87805571D01*
X156100714Y-86234142D02*
X155743571Y-87305571D01*
X156672142Y-87305571D01*
X158386428Y-87019857D02*
X158886428Y-87019857D01*
X159100714Y-87805571D02*
X158386428Y-87805571D01*
X158386428Y-86305571D01*
X159100714Y-86305571D01*
X159743571Y-87805571D02*
X159743571Y-86305571D01*
X160243571Y-87377000D01*
X160743571Y-86305571D01*
X160743571Y-87805571D01*
X161457857Y-87805571D02*
X161457857Y-86305571D01*
X161957857Y-87377000D01*
X162457857Y-86305571D01*
X162457857Y-87805571D01*
X135029285Y-89355571D02*
X135315000Y-90355571D01*
X135600714Y-89641285D01*
X135886428Y-90355571D01*
X136172142Y-89355571D01*
X136600714Y-89355571D02*
X136886428Y-90355571D01*
X137172142Y-89641285D01*
X137457857Y-90355571D01*
X137743571Y-89355571D01*
X138172142Y-89355571D02*
X138457857Y-90355571D01*
X138743571Y-89641285D01*
X139029285Y-90355571D01*
X139315000Y-89355571D01*
X139886428Y-90212714D02*
X139957857Y-90284142D01*
X139886428Y-90355571D01*
X139815000Y-90284142D01*
X139886428Y-90212714D01*
X139886428Y-90355571D01*
X140600714Y-90355571D02*
X140600714Y-88855571D01*
X141243571Y-90355571D02*
X141243571Y-89569857D01*
X141172142Y-89427000D01*
X141029285Y-89355571D01*
X140815000Y-89355571D01*
X140672142Y-89427000D01*
X140600714Y-89498428D01*
X142172142Y-90355571D02*
X142029285Y-90284142D01*
X141957857Y-90212714D01*
X141886428Y-90069857D01*
X141886428Y-89641285D01*
X141957857Y-89498428D01*
X142029285Y-89427000D01*
X142172142Y-89355571D01*
X142386428Y-89355571D01*
X142529285Y-89427000D01*
X142600714Y-89498428D01*
X142672142Y-89641285D01*
X142672142Y-90069857D01*
X142600714Y-90212714D01*
X142529285Y-90284142D01*
X142386428Y-90355571D01*
X142172142Y-90355571D01*
X143315000Y-90355571D02*
X143315000Y-89355571D01*
X143315000Y-89498428D02*
X143386428Y-89427000D01*
X143529285Y-89355571D01*
X143743571Y-89355571D01*
X143886428Y-89427000D01*
X143957857Y-89569857D01*
X143957857Y-90355571D01*
X143957857Y-89569857D02*
X144029285Y-89427000D01*
X144172142Y-89355571D01*
X144386428Y-89355571D01*
X144529285Y-89427000D01*
X144600714Y-89569857D01*
X144600714Y-90355571D01*
X145886428Y-90284142D02*
X145743571Y-90355571D01*
X145457857Y-90355571D01*
X145315000Y-90284142D01*
X145243571Y-90141285D01*
X145243571Y-89569857D01*
X145315000Y-89427000D01*
X145457857Y-89355571D01*
X145743571Y-89355571D01*
X145886428Y-89427000D01*
X145957857Y-89569857D01*
X145957857Y-89712714D01*
X145243571Y-89855571D01*
X146600714Y-90355571D02*
X146600714Y-88855571D01*
X146600714Y-89427000D02*
X146743571Y-89355571D01*
X147029285Y-89355571D01*
X147172142Y-89427000D01*
X147243571Y-89498428D01*
X147315000Y-89641285D01*
X147315000Y-90069857D01*
X147243571Y-90212714D01*
X147172142Y-90284142D01*
X147029285Y-90355571D01*
X146743571Y-90355571D01*
X146600714Y-90284142D01*
X147957857Y-90355571D02*
X147957857Y-89355571D01*
X147957857Y-89641285D02*
X148029285Y-89498428D01*
X148100714Y-89427000D01*
X148243571Y-89355571D01*
X148386428Y-89355571D01*
X149457857Y-90284142D02*
X149315000Y-90355571D01*
X149029285Y-90355571D01*
X148886428Y-90284142D01*
X148815000Y-90141285D01*
X148815000Y-89569857D01*
X148886428Y-89427000D01*
X149029285Y-89355571D01*
X149315000Y-89355571D01*
X149457857Y-89427000D01*
X149529285Y-89569857D01*
X149529285Y-89712714D01*
X148815000Y-89855571D01*
X150029285Y-89355571D02*
X150315000Y-90355571D01*
X150600714Y-89641285D01*
X150886428Y-90355571D01*
X151172142Y-89355571D01*
X151957857Y-89498428D02*
X151815000Y-89427000D01*
X151743571Y-89355571D01*
X151672142Y-89212714D01*
X151672142Y-89141285D01*
X151743571Y-88998428D01*
X151815000Y-88927000D01*
X151957857Y-88855571D01*
X152243571Y-88855571D01*
X152386428Y-88927000D01*
X152457857Y-88998428D01*
X152529285Y-89141285D01*
X152529285Y-89212714D01*
X152457857Y-89355571D01*
X152386428Y-89427000D01*
X152243571Y-89498428D01*
X151957857Y-89498428D01*
X151815000Y-89569857D01*
X151743571Y-89641285D01*
X151672142Y-89784142D01*
X151672142Y-90069857D01*
X151743571Y-90212714D01*
X151815000Y-90284142D01*
X151957857Y-90355571D01*
X152243571Y-90355571D01*
X152386428Y-90284142D01*
X152457857Y-90212714D01*
X152529285Y-90069857D01*
X152529285Y-89784142D01*
X152457857Y-89641285D01*
X152386428Y-89569857D01*
X152243571Y-89498428D01*
X153457857Y-88855571D02*
X153600714Y-88855571D01*
X153743571Y-88927000D01*
X153815000Y-88998428D01*
X153886428Y-89141285D01*
X153957857Y-89427000D01*
X153957857Y-89784142D01*
X153886428Y-90069857D01*
X153815000Y-90212714D01*
X153743571Y-90284142D01*
X153600714Y-90355571D01*
X153457857Y-90355571D01*
X153315000Y-90284142D01*
X153243571Y-90212714D01*
X153172142Y-90069857D01*
X153100714Y-89784142D01*
X153100714Y-89427000D01*
X153172142Y-89141285D01*
X153243571Y-88998428D01*
X153315000Y-88927000D01*
X153457857Y-88855571D01*
X154815000Y-89498428D02*
X154672142Y-89427000D01*
X154600714Y-89355571D01*
X154529285Y-89212714D01*
X154529285Y-89141285D01*
X154600714Y-88998428D01*
X154672142Y-88927000D01*
X154815000Y-88855571D01*
X155100714Y-88855571D01*
X155243571Y-88927000D01*
X155315000Y-88998428D01*
X155386428Y-89141285D01*
X155386428Y-89212714D01*
X155315000Y-89355571D01*
X155243571Y-89427000D01*
X155100714Y-89498428D01*
X154815000Y-89498428D01*
X154672142Y-89569857D01*
X154600714Y-89641285D01*
X154529285Y-89784142D01*
X154529285Y-90069857D01*
X154600714Y-90212714D01*
X154672142Y-90284142D01*
X154815000Y-90355571D01*
X155100714Y-90355571D01*
X155243571Y-90284142D01*
X155315000Y-90212714D01*
X155386428Y-90069857D01*
X155386428Y-89784142D01*
X155315000Y-89641285D01*
X155243571Y-89569857D01*
X155100714Y-89498428D01*
X156243571Y-89498428D02*
X156100714Y-89427000D01*
X156029285Y-89355571D01*
X155957857Y-89212714D01*
X155957857Y-89141285D01*
X156029285Y-88998428D01*
X156100714Y-88927000D01*
X156243571Y-88855571D01*
X156529285Y-88855571D01*
X156672142Y-88927000D01*
X156743571Y-88998428D01*
X156815000Y-89141285D01*
X156815000Y-89212714D01*
X156743571Y-89355571D01*
X156672142Y-89427000D01*
X156529285Y-89498428D01*
X156243571Y-89498428D01*
X156100714Y-89569857D01*
X156029285Y-89641285D01*
X155957857Y-89784142D01*
X155957857Y-90069857D01*
X156029285Y-90212714D01*
X156100714Y-90284142D01*
X156243571Y-90355571D01*
X156529285Y-90355571D01*
X156672142Y-90284142D01*
X156743571Y-90212714D01*
X156815000Y-90069857D01*
X156815000Y-89784142D01*
X156743571Y-89641285D01*
X156672142Y-89569857D01*
X156529285Y-89498428D01*
X157457857Y-90212714D02*
X157529285Y-90284142D01*
X157457857Y-90355571D01*
X157386428Y-90284142D01*
X157457857Y-90212714D01*
X157457857Y-90355571D01*
X158815000Y-90284142D02*
X158672142Y-90355571D01*
X158386428Y-90355571D01*
X158243571Y-90284142D01*
X158172142Y-90212714D01*
X158100714Y-90069857D01*
X158100714Y-89641285D01*
X158172142Y-89498428D01*
X158243571Y-89427000D01*
X158386428Y-89355571D01*
X158672142Y-89355571D01*
X158815000Y-89427000D01*
X159672142Y-90355571D02*
X159529285Y-90284142D01*
X159457857Y-90212714D01*
X159386428Y-90069857D01*
X159386428Y-89641285D01*
X159457857Y-89498428D01*
X159529285Y-89427000D01*
X159672142Y-89355571D01*
X159886428Y-89355571D01*
X160029285Y-89427000D01*
X160100714Y-89498428D01*
X160172142Y-89641285D01*
X160172142Y-90069857D01*
X160100714Y-90212714D01*
X160029285Y-90284142D01*
X159886428Y-90355571D01*
X159672142Y-90355571D01*
X160815000Y-90355571D02*
X160815000Y-89355571D01*
X160815000Y-89498428D02*
X160886428Y-89427000D01*
X161029285Y-89355571D01*
X161243571Y-89355571D01*
X161386428Y-89427000D01*
X161457857Y-89569857D01*
X161457857Y-90355571D01*
X161457857Y-89569857D02*
X161529285Y-89427000D01*
X161672142Y-89355571D01*
X161886428Y-89355571D01*
X162029285Y-89427000D01*
X162100714Y-89569857D01*
X162100714Y-90355571D01*
D11*
X109657142Y-80462380D02*
X109657142Y-79462380D01*
X110323809Y-79462380D02*
X110514285Y-79462380D01*
X110609523Y-79510000D01*
X110704761Y-79605238D01*
X110752380Y-79795714D01*
X110752380Y-80129047D01*
X110704761Y-80319523D01*
X110609523Y-80414761D01*
X110514285Y-80462380D01*
X110323809Y-80462380D01*
X110228571Y-80414761D01*
X110133333Y-80319523D01*
X110085714Y-80129047D01*
X110085714Y-79795714D01*
X110133333Y-79605238D01*
X110228571Y-79510000D01*
X110323809Y-79462380D01*
X111942857Y-80462380D02*
X111942857Y-79462380D01*
X112180952Y-79462380D01*
X112323809Y-79510000D01*
X112419047Y-79605238D01*
X112466666Y-79700476D01*
X112514285Y-79890952D01*
X112514285Y-80033809D01*
X112466666Y-80224285D01*
X112419047Y-80319523D01*
X112323809Y-80414761D01*
X112180952Y-80462380D01*
X111942857Y-80462380D01*
X112942857Y-79938571D02*
X113276190Y-79938571D01*
X113419047Y-80462380D02*
X112942857Y-80462380D01*
X112942857Y-79462380D01*
X113419047Y-79462380D01*
X114419047Y-80367142D02*
X114371428Y-80414761D01*
X114228571Y-80462380D01*
X114133333Y-80462380D01*
X113990476Y-80414761D01*
X113895238Y-80319523D01*
X113847619Y-80224285D01*
X113800000Y-80033809D01*
X113800000Y-79890952D01*
X113847619Y-79700476D01*
X113895238Y-79605238D01*
X113990476Y-79510000D01*
X114133333Y-79462380D01*
X114228571Y-79462380D01*
X114371428Y-79510000D01*
X114419047Y-79557619D01*
X115038095Y-79462380D02*
X115228571Y-79462380D01*
X115323809Y-79510000D01*
X115419047Y-79605238D01*
X115466666Y-79795714D01*
X115466666Y-80129047D01*
X115419047Y-80319523D01*
X115323809Y-80414761D01*
X115228571Y-80462380D01*
X115038095Y-80462380D01*
X114942857Y-80414761D01*
X114847619Y-80319523D01*
X114800000Y-80129047D01*
X114800000Y-79795714D01*
X114847619Y-79605238D01*
X114942857Y-79510000D01*
X115038095Y-79462380D01*
X115895238Y-80462380D02*
X115895238Y-79462380D01*
X116133333Y-79462380D01*
X116276190Y-79510000D01*
X116371428Y-79605238D01*
X116419047Y-79700476D01*
X116466666Y-79890952D01*
X116466666Y-80033809D01*
X116419047Y-80224285D01*
X116371428Y-80319523D01*
X116276190Y-80414761D01*
X116133333Y-80462380D01*
X115895238Y-80462380D01*
X116895238Y-80462380D02*
X116895238Y-79462380D01*
X117371428Y-80462380D02*
X117371428Y-79462380D01*
X117942857Y-80462380D01*
X117942857Y-79462380D01*
X118942857Y-79510000D02*
X118847619Y-79462380D01*
X118704761Y-79462380D01*
X118561904Y-79510000D01*
X118466666Y-79605238D01*
X118419047Y-79700476D01*
X118371428Y-79890952D01*
X118371428Y-80033809D01*
X118419047Y-80224285D01*
X118466666Y-80319523D01*
X118561904Y-80414761D01*
X118704761Y-80462380D01*
X118800000Y-80462380D01*
X118942857Y-80414761D01*
X118990476Y-80367142D01*
X118990476Y-80033809D01*
X118800000Y-80033809D01*
X139097142Y-133532571D02*
X139240000Y-133580190D01*
X139287619Y-133627809D01*
X139335238Y-133723047D01*
X139335238Y-133865904D01*
X139287619Y-133961142D01*
X139240000Y-134008761D01*
X139144761Y-134056380D01*
X138763809Y-134056380D01*
X138763809Y-133056380D01*
X139097142Y-133056380D01*
X139192380Y-133104000D01*
X139240000Y-133151619D01*
X139287619Y-133246857D01*
X139287619Y-133342095D01*
X139240000Y-133437333D01*
X139192380Y-133484952D01*
X139097142Y-133532571D01*
X138763809Y-133532571D01*
X139763809Y-134056380D02*
X139763809Y-133056380D01*
X140430476Y-133056380D02*
X140620952Y-133056380D01*
X140716190Y-133104000D01*
X140811428Y-133199238D01*
X140859047Y-133389714D01*
X140859047Y-133723047D01*
X140811428Y-133913523D01*
X140716190Y-134008761D01*
X140620952Y-134056380D01*
X140430476Y-134056380D01*
X140335238Y-134008761D01*
X140240000Y-133913523D01*
X140192380Y-133723047D01*
X140192380Y-133389714D01*
X140240000Y-133199238D01*
X140335238Y-133104000D01*
X140430476Y-133056380D01*
X141240000Y-134008761D02*
X141382857Y-134056380D01*
X141620952Y-134056380D01*
X141716190Y-134008761D01*
X141763809Y-133961142D01*
X141811428Y-133865904D01*
X141811428Y-133770666D01*
X141763809Y-133675428D01*
X141716190Y-133627809D01*
X141620952Y-133580190D01*
X141430476Y-133532571D01*
X141335238Y-133484952D01*
X141287619Y-133437333D01*
X141240000Y-133342095D01*
X141240000Y-133246857D01*
X141287619Y-133151619D01*
X141335238Y-133104000D01*
X141430476Y-133056380D01*
X141668571Y-133056380D01*
X141811428Y-133104000D01*
X143573333Y-134056380D02*
X143240000Y-133580190D01*
X143001904Y-134056380D02*
X143001904Y-133056380D01*
X143382857Y-133056380D01*
X143478095Y-133104000D01*
X143525714Y-133151619D01*
X143573333Y-133246857D01*
X143573333Y-133389714D01*
X143525714Y-133484952D01*
X143478095Y-133532571D01*
X143382857Y-133580190D01*
X143001904Y-133580190D01*
X144192380Y-133056380D02*
X144382857Y-133056380D01*
X144478095Y-133104000D01*
X144573333Y-133199238D01*
X144620952Y-133389714D01*
X144620952Y-133723047D01*
X144573333Y-133913523D01*
X144478095Y-134008761D01*
X144382857Y-134056380D01*
X144192380Y-134056380D01*
X144097142Y-134008761D01*
X144001904Y-133913523D01*
X143954285Y-133723047D01*
X143954285Y-133389714D01*
X144001904Y-133199238D01*
X144097142Y-133104000D01*
X144192380Y-133056380D01*
X145049523Y-134056380D02*
X145049523Y-133056380D01*
X145382857Y-133770666D01*
X145716190Y-133056380D01*
X145716190Y-134056380D01*
X159115880Y-75128380D02*
X159115880Y-74128380D01*
X159357785Y-74128380D01*
X159418261Y-74176000D01*
X159448500Y-74223619D01*
X159478738Y-74318857D01*
X159478738Y-74461714D01*
X159448500Y-74556952D01*
X159418261Y-74604571D01*
X159357785Y-74652190D01*
X159115880Y-74652190D01*
X159750880Y-75128380D02*
X159750880Y-74128380D01*
X160053261Y-75128380D02*
X160053261Y-74128380D01*
X160416119Y-75128380D01*
X160416119Y-74128380D01*
X167259047Y-74128380D02*
X166782857Y-74128380D01*
X166735238Y-74604571D01*
X166782857Y-74556952D01*
X166878095Y-74509333D01*
X167116190Y-74509333D01*
X167211428Y-74556952D01*
X167259047Y-74604571D01*
X167306666Y-74699809D01*
X167306666Y-74937904D01*
X167259047Y-75033142D01*
X167211428Y-75080761D01*
X167116190Y-75128380D01*
X166878095Y-75128380D01*
X166782857Y-75080761D01*
X166735238Y-75033142D01*
X167735238Y-74747428D02*
X168497142Y-74747428D01*
X168116190Y-75128380D02*
X168116190Y-74366476D01*
D12*
G04 #@! TO.C,J5*
X176978000Y-41716000D02*
X179638000Y-41716000D01*
X176978000Y-41656000D02*
X176978000Y-41716000D01*
X179638000Y-41656000D02*
X179638000Y-41716000D01*
X176978000Y-41656000D02*
X179638000Y-41656000D01*
X176978000Y-40386000D02*
X176978000Y-39056000D01*
X176978000Y-39056000D02*
X178308000Y-39056000D01*
G04 #@! TO.C,R15*
X84860000Y-131064000D02*
X85630000Y-131064000D01*
X92940000Y-131064000D02*
X92170000Y-131064000D01*
X85630000Y-132434000D02*
X92170000Y-132434000D01*
X85630000Y-129694000D02*
X85630000Y-132434000D01*
X92170000Y-129694000D02*
X85630000Y-129694000D01*
X92170000Y-132434000D02*
X92170000Y-129694000D01*
G04 #@! TO.C,R17*
X193672000Y-90170000D02*
X196472000Y-90170000D01*
X193672000Y-77300000D02*
X193672000Y-92880000D01*
X196472000Y-77300000D02*
X193672000Y-77300000D01*
X196472000Y-92880000D02*
X196472000Y-77300000D01*
X193672000Y-92880000D02*
X196472000Y-92880000D01*
G04 #@! TO.C,R12*
X159258000Y-62608000D02*
X159258000Y-65408000D01*
X172128000Y-62608000D02*
X156548000Y-62608000D01*
X172128000Y-65408000D02*
X172128000Y-62608000D01*
X156548000Y-65408000D02*
X172128000Y-65408000D01*
X156548000Y-62608000D02*
X156548000Y-65408000D01*
G04 #@! TO.C,R8*
X130426000Y-81958000D02*
X133226000Y-81958000D01*
X133226000Y-81958000D02*
X133226000Y-68918000D01*
X133226000Y-68918000D02*
X130426000Y-68918000D01*
X130426000Y-68918000D02*
X130426000Y-81958000D01*
X130426000Y-79248000D02*
X133226000Y-79248000D01*
G04 #@! TO.C,R10*
X125346000Y-77470000D02*
X128146000Y-77470000D01*
X125346000Y-67140000D02*
X125346000Y-80180000D01*
X128146000Y-67140000D02*
X125346000Y-67140000D01*
X128146000Y-80180000D02*
X128146000Y-67140000D01*
X125346000Y-80180000D02*
X128146000Y-80180000D01*
G04 #@! TO.C,J4*
X235010000Y-69910000D02*
X233680000Y-69910000D01*
X235010000Y-68580000D02*
X235010000Y-69910000D01*
X232410000Y-69910000D02*
X229810000Y-69910000D01*
X232410000Y-67310000D02*
X232410000Y-69910000D01*
X235010000Y-67310000D02*
X232410000Y-67310000D01*
X229810000Y-69910000D02*
X229810000Y-49470000D01*
X235010000Y-67310000D02*
X235010000Y-49470000D01*
X235010000Y-49470000D02*
X229810000Y-49470000D01*
G04 #@! TO.C,R16*
X221364000Y-72982000D02*
X218564000Y-72982000D01*
X218564000Y-72982000D02*
X218564000Y-86022000D01*
X218564000Y-86022000D02*
X221364000Y-86022000D01*
X221364000Y-86022000D02*
X221364000Y-72982000D01*
X221364000Y-75692000D02*
X218564000Y-75692000D01*
G04 #@! TO.C,R14*
X78316000Y-125600000D02*
X78316000Y-128400000D01*
X78316000Y-128400000D02*
X88816000Y-128400000D01*
X88816000Y-128400000D02*
X88816000Y-125600000D01*
X88816000Y-125600000D02*
X78316000Y-125600000D01*
X81026000Y-125600000D02*
X81026000Y-128400000D01*
G04 #@! TO.C,R2*
X59012000Y-69212000D02*
X59012000Y-72012000D01*
X59012000Y-72012000D02*
X69512000Y-72012000D01*
X69512000Y-72012000D02*
X69512000Y-69212000D01*
X69512000Y-69212000D02*
X59012000Y-69212000D01*
X61722000Y-69212000D02*
X61722000Y-72012000D01*
G04 #@! TO.C,R1*
X59012000Y-73784000D02*
X59012000Y-76584000D01*
X59012000Y-76584000D02*
X69512000Y-76584000D01*
X69512000Y-76584000D02*
X69512000Y-73784000D01*
X69512000Y-73784000D02*
X59012000Y-73784000D01*
X61722000Y-73784000D02*
X61722000Y-76584000D01*
G04 #@! TO.C,R18*
X91818000Y-63924000D02*
X94618000Y-63924000D01*
X94618000Y-63924000D02*
X94618000Y-50884000D01*
X94618000Y-50884000D02*
X91818000Y-50884000D01*
X91818000Y-50884000D02*
X91818000Y-63924000D01*
X91818000Y-61214000D02*
X94618000Y-61214000D01*
G04 #@! TO.C,R13*
X153130000Y-65378000D02*
X153130000Y-62638000D01*
X153130000Y-62638000D02*
X146590000Y-62638000D01*
X146590000Y-62638000D02*
X146590000Y-65378000D01*
X146590000Y-65378000D02*
X153130000Y-65378000D01*
X153900000Y-64008000D02*
X153130000Y-64008000D01*
X145820000Y-64008000D02*
X146590000Y-64008000D01*
G04 #@! TO.C,R11*
X133636000Y-65178000D02*
X133636000Y-67918000D01*
X133636000Y-67918000D02*
X140176000Y-67918000D01*
X140176000Y-67918000D02*
X140176000Y-65178000D01*
X140176000Y-65178000D02*
X133636000Y-65178000D01*
X132866000Y-66548000D02*
X133636000Y-66548000D01*
X140946000Y-66548000D02*
X140176000Y-66548000D01*
G04 #@! TO.C,R9*
X74200000Y-134012000D02*
X74200000Y-136752000D01*
X74200000Y-136752000D02*
X80740000Y-136752000D01*
X80740000Y-136752000D02*
X80740000Y-134012000D01*
X80740000Y-134012000D02*
X74200000Y-134012000D01*
X73430000Y-135382000D02*
X74200000Y-135382000D01*
X81510000Y-135382000D02*
X80740000Y-135382000D01*
G04 #@! TO.C,R7*
X228008000Y-128146000D02*
X228008000Y-125346000D01*
X228008000Y-125346000D02*
X217508000Y-125346000D01*
X217508000Y-125346000D02*
X217508000Y-128146000D01*
X217508000Y-128146000D02*
X228008000Y-128146000D01*
X225298000Y-128146000D02*
X225298000Y-125346000D01*
G04 #@! TO.C,R6*
X109760000Y-134012000D02*
X109760000Y-136752000D01*
X109760000Y-136752000D02*
X116300000Y-136752000D01*
X116300000Y-136752000D02*
X116300000Y-134012000D01*
X116300000Y-134012000D02*
X109760000Y-134012000D01*
X108990000Y-135382000D02*
X109760000Y-135382000D01*
X117070000Y-135382000D02*
X116300000Y-135382000D01*
G04 #@! TO.C,R5*
X100938000Y-64294000D02*
X98198000Y-64294000D01*
X98198000Y-64294000D02*
X98198000Y-70834000D01*
X98198000Y-70834000D02*
X100938000Y-70834000D01*
X100938000Y-70834000D02*
X100938000Y-64294000D01*
X99568000Y-63524000D02*
X99568000Y-64294000D01*
X99568000Y-71604000D02*
X99568000Y-70834000D01*
G04 #@! TO.C,R4*
X88038000Y-60928000D02*
X90778000Y-60928000D01*
X90778000Y-60928000D02*
X90778000Y-54388000D01*
X90778000Y-54388000D02*
X88038000Y-54388000D01*
X88038000Y-54388000D02*
X88038000Y-60928000D01*
X89408000Y-61698000D02*
X89408000Y-60928000D01*
X89408000Y-53618000D02*
X89408000Y-54388000D01*
G04 #@! TO.C,R3*
X122206000Y-134012000D02*
X122206000Y-136752000D01*
X122206000Y-136752000D02*
X128746000Y-136752000D01*
X128746000Y-136752000D02*
X128746000Y-134012000D01*
X128746000Y-134012000D02*
X122206000Y-134012000D01*
X121436000Y-135382000D02*
X122206000Y-135382000D01*
X129516000Y-135382000D02*
X128746000Y-135382000D01*
G04 #@! TO.C,J3*
X168716000Y-74228000D02*
X168716000Y-71568000D01*
X161036000Y-74228000D02*
X168716000Y-74228000D01*
X161036000Y-71568000D02*
X168716000Y-71568000D01*
X161036000Y-74228000D02*
X161036000Y-71568000D01*
X159766000Y-74228000D02*
X158436000Y-74228000D01*
X158436000Y-74228000D02*
X158436000Y-72898000D01*
G04 #@! TO.C,C26*
X162330000Y-41202000D02*
X157790000Y-41202000D01*
X162330000Y-39062000D02*
X157790000Y-39062000D01*
X162330000Y-41202000D02*
X162330000Y-41187000D01*
X162330000Y-39077000D02*
X162330000Y-39062000D01*
X157790000Y-41202000D02*
X157790000Y-41187000D01*
X157790000Y-39077000D02*
X157790000Y-39062000D01*
G04 #@! TO.C,C25*
X152170000Y-41202000D02*
X147630000Y-41202000D01*
X152170000Y-39062000D02*
X147630000Y-39062000D01*
X152170000Y-41202000D02*
X152170000Y-41187000D01*
X152170000Y-39077000D02*
X152170000Y-39062000D01*
X147630000Y-41202000D02*
X147630000Y-41187000D01*
X147630000Y-39077000D02*
X147630000Y-39062000D01*
G04 #@! TO.C,C24*
X205510000Y-104702000D02*
X200970000Y-104702000D01*
X205510000Y-102562000D02*
X200970000Y-102562000D01*
X205510000Y-104702000D02*
X205510000Y-104687000D01*
X205510000Y-102577000D02*
X205510000Y-102562000D01*
X200970000Y-104702000D02*
X200970000Y-104687000D01*
X200970000Y-102577000D02*
X200970000Y-102562000D01*
G04 #@! TO.C,C23*
X215670000Y-104702000D02*
X211130000Y-104702000D01*
X215670000Y-102562000D02*
X211130000Y-102562000D01*
X215670000Y-104702000D02*
X215670000Y-104687000D01*
X215670000Y-102577000D02*
X215670000Y-102562000D01*
X211130000Y-104702000D02*
X211130000Y-104687000D01*
X211130000Y-102577000D02*
X211130000Y-102562000D01*
G04 #@! TO.C,C22*
X75970000Y-41202000D02*
X71430000Y-41202000D01*
X75970000Y-39062000D02*
X71430000Y-39062000D01*
X75970000Y-41202000D02*
X75970000Y-41187000D01*
X75970000Y-39077000D02*
X75970000Y-39062000D01*
X71430000Y-41202000D02*
X71430000Y-41187000D01*
X71430000Y-39077000D02*
X71430000Y-39062000D01*
G04 #@! TO.C,C21*
X172490000Y-41202000D02*
X167950000Y-41202000D01*
X172490000Y-39062000D02*
X167950000Y-39062000D01*
X172490000Y-41202000D02*
X172490000Y-41187000D01*
X172490000Y-39077000D02*
X172490000Y-39062000D01*
X167950000Y-41202000D02*
X167950000Y-41187000D01*
X167950000Y-39077000D02*
X167950000Y-39062000D01*
G04 #@! TO.C,C20*
X225830000Y-104702000D02*
X221290000Y-104702000D01*
X225830000Y-102562000D02*
X221290000Y-102562000D01*
X225830000Y-104702000D02*
X225830000Y-104687000D01*
X225830000Y-102577000D02*
X225830000Y-102562000D01*
X221290000Y-104702000D02*
X221290000Y-104687000D01*
X221290000Y-102577000D02*
X221290000Y-102562000D01*
G04 #@! TO.C,C19*
X189000000Y-41964000D02*
X184460000Y-41964000D01*
X189000000Y-39824000D02*
X184460000Y-39824000D01*
X189000000Y-41964000D02*
X189000000Y-41949000D01*
X189000000Y-39839000D02*
X189000000Y-39824000D01*
X184460000Y-41964000D02*
X184460000Y-41949000D01*
X184460000Y-39839000D02*
X184460000Y-39824000D01*
G04 #@! TO.C,C18*
X103910000Y-41202000D02*
X99370000Y-41202000D01*
X103910000Y-39062000D02*
X99370000Y-39062000D01*
X103910000Y-41202000D02*
X103910000Y-41187000D01*
X103910000Y-39077000D02*
X103910000Y-39062000D01*
X99370000Y-41202000D02*
X99370000Y-41187000D01*
X99370000Y-39077000D02*
X99370000Y-39062000D01*
G04 #@! TO.C,C17*
X86130000Y-41202000D02*
X81590000Y-41202000D01*
X86130000Y-39062000D02*
X81590000Y-39062000D01*
X86130000Y-41202000D02*
X86130000Y-41187000D01*
X86130000Y-39077000D02*
X86130000Y-39062000D01*
X81590000Y-41202000D02*
X81590000Y-41187000D01*
X81590000Y-39077000D02*
X81590000Y-39062000D01*
G04 #@! TO.C,C16*
X142010000Y-41202000D02*
X137470000Y-41202000D01*
X142010000Y-39062000D02*
X137470000Y-39062000D01*
X142010000Y-41202000D02*
X142010000Y-41187000D01*
X142010000Y-39077000D02*
X142010000Y-39062000D01*
X137470000Y-41202000D02*
X137470000Y-41187000D01*
X137470000Y-39077000D02*
X137470000Y-39062000D01*
G04 #@! TO.C,C15*
X149630000Y-94542000D02*
X145090000Y-94542000D01*
X149630000Y-92402000D02*
X145090000Y-92402000D01*
X149630000Y-94542000D02*
X149630000Y-94527000D01*
X149630000Y-92417000D02*
X149630000Y-92402000D01*
X145090000Y-94542000D02*
X145090000Y-94527000D01*
X145090000Y-92417000D02*
X145090000Y-92402000D01*
G04 #@! TO.C,C14*
X131850000Y-89462000D02*
X127310000Y-89462000D01*
X131850000Y-87322000D02*
X127310000Y-87322000D01*
X131850000Y-89462000D02*
X131850000Y-89447000D01*
X131850000Y-87337000D02*
X131850000Y-87322000D01*
X127310000Y-89462000D02*
X127310000Y-89447000D01*
X127310000Y-87337000D02*
X127310000Y-87322000D01*
G04 #@! TO.C,C13*
X114070000Y-89462000D02*
X109530000Y-89462000D01*
X114070000Y-87322000D02*
X109530000Y-87322000D01*
X114070000Y-89462000D02*
X114070000Y-89447000D01*
X114070000Y-87337000D02*
X114070000Y-87322000D01*
X109530000Y-89462000D02*
X109530000Y-89447000D01*
X109530000Y-87337000D02*
X109530000Y-87322000D01*
G04 #@! TO.C,C12*
X131850000Y-41202000D02*
X127310000Y-41202000D01*
X131850000Y-39062000D02*
X127310000Y-39062000D01*
X131850000Y-41202000D02*
X131850000Y-41187000D01*
X131850000Y-39077000D02*
X131850000Y-39062000D01*
X127310000Y-41202000D02*
X127310000Y-41187000D01*
X127310000Y-39077000D02*
X127310000Y-39062000D01*
G04 #@! TO.C,C11*
X195350000Y-104702000D02*
X190810000Y-104702000D01*
X195350000Y-102562000D02*
X190810000Y-102562000D01*
X195350000Y-104702000D02*
X195350000Y-104687000D01*
X195350000Y-102577000D02*
X195350000Y-102562000D01*
X190810000Y-104702000D02*
X190810000Y-104687000D01*
X190810000Y-102577000D02*
X190810000Y-102562000D01*
G04 #@! TO.C,C10*
X219510000Y-66270000D02*
X219510000Y-70810000D01*
X217370000Y-66270000D02*
X217370000Y-70810000D01*
X219510000Y-66270000D02*
X219495000Y-66270000D01*
X217385000Y-66270000D02*
X217370000Y-66270000D01*
X219510000Y-70810000D02*
X219495000Y-70810000D01*
X217385000Y-70810000D02*
X217370000Y-70810000D01*
G04 #@! TO.C,C9*
X121690000Y-41202000D02*
X117150000Y-41202000D01*
X121690000Y-39062000D02*
X117150000Y-39062000D01*
X121690000Y-41202000D02*
X121690000Y-41187000D01*
X121690000Y-39077000D02*
X121690000Y-39062000D01*
X117150000Y-41202000D02*
X117150000Y-41187000D01*
X117150000Y-39077000D02*
X117150000Y-39062000D01*
G04 #@! TO.C,C8*
X86130000Y-69142000D02*
X81590000Y-69142000D01*
X86130000Y-67002000D02*
X81590000Y-67002000D01*
X86130000Y-69142000D02*
X86130000Y-69127000D01*
X86130000Y-67017000D02*
X86130000Y-67002000D01*
X81590000Y-69142000D02*
X81590000Y-69127000D01*
X81590000Y-67017000D02*
X81590000Y-67002000D01*
G04 #@! TO.C,C7*
X225830000Y-41202000D02*
X221290000Y-41202000D01*
X225830000Y-39062000D02*
X221290000Y-39062000D01*
X225830000Y-41202000D02*
X225830000Y-41187000D01*
X225830000Y-39077000D02*
X225830000Y-39062000D01*
X221290000Y-41202000D02*
X221290000Y-41187000D01*
X221290000Y-39077000D02*
X221290000Y-39062000D01*
G04 #@! TO.C,C6*
X167410000Y-94542000D02*
X162870000Y-94542000D01*
X167410000Y-92402000D02*
X162870000Y-92402000D01*
X167410000Y-94542000D02*
X167410000Y-94527000D01*
X167410000Y-92417000D02*
X167410000Y-92402000D01*
X162870000Y-94542000D02*
X162870000Y-94527000D01*
X162870000Y-92417000D02*
X162870000Y-92402000D01*
G04 #@! TO.C,C5*
X185190000Y-99622000D02*
X180650000Y-99622000D01*
X185190000Y-97482000D02*
X180650000Y-97482000D01*
X185190000Y-99622000D02*
X185190000Y-99607000D01*
X185190000Y-97497000D02*
X185190000Y-97482000D01*
X180650000Y-99622000D02*
X180650000Y-99607000D01*
X180650000Y-97497000D02*
X180650000Y-97482000D01*
G04 #@! TO.C,C4*
X86130000Y-97082000D02*
X81590000Y-97082000D01*
X86130000Y-94942000D02*
X81590000Y-94942000D01*
X86130000Y-97082000D02*
X86130000Y-97067000D01*
X86130000Y-94957000D02*
X86130000Y-94942000D01*
X81590000Y-97082000D02*
X81590000Y-97067000D01*
X81590000Y-94957000D02*
X81590000Y-94942000D01*
G04 #@! TO.C,C3*
X96290000Y-66602000D02*
X91750000Y-66602000D01*
X96290000Y-64462000D02*
X91750000Y-64462000D01*
X96290000Y-66602000D02*
X96290000Y-66587000D01*
X96290000Y-64477000D02*
X96290000Y-64462000D01*
X91750000Y-66602000D02*
X91750000Y-66587000D01*
X91750000Y-64477000D02*
X91750000Y-64462000D01*
G04 #@! TO.C,C2*
X96290000Y-97082000D02*
X91750000Y-97082000D01*
X96290000Y-94942000D02*
X91750000Y-94942000D01*
X96290000Y-97082000D02*
X96290000Y-97067000D01*
X96290000Y-94957000D02*
X96290000Y-94942000D01*
X91750000Y-97082000D02*
X91750000Y-97067000D01*
X91750000Y-94957000D02*
X91750000Y-94942000D01*
G04 #@! TO.C,C1*
X75970000Y-81842000D02*
X71430000Y-81842000D01*
X75970000Y-79702000D02*
X71430000Y-79702000D01*
X75970000Y-81842000D02*
X75970000Y-81827000D01*
X75970000Y-79717000D02*
X75970000Y-79702000D01*
X71430000Y-81842000D02*
X71430000Y-81827000D01*
X71430000Y-79717000D02*
X71430000Y-79702000D01*
G04 #@! TO.C,Y2*
X60975000Y-47993000D02*
X60975000Y-41743000D01*
X66025000Y-47993000D02*
X66025000Y-41743000D01*
X66025000Y-41743000D02*
G75*
G03*
X60975000Y-41743000I-2525000J0D01*
G01*
X66025000Y-47993000D02*
G75*
G02*
X60975000Y-47993000I-2525000J0D01*
G01*
G04 #@! TO.C,Y1*
X88915000Y-47665000D02*
X88915000Y-41415000D01*
X93965000Y-47665000D02*
X93965000Y-41415000D01*
X93965000Y-41415000D02*
G75*
G03*
X88915000Y-41415000I-2525000J0D01*
G01*
X93965000Y-47665000D02*
G75*
G02*
X88915000Y-47665000I-2525000J0D01*
G01*
G04 #@! TO.C,U26*
X157750000Y-41850000D02*
X156100000Y-41850000D01*
X156100000Y-41850000D02*
X156100000Y-59750000D01*
X156100000Y-59750000D02*
X161400000Y-59750000D01*
X161400000Y-59750000D02*
X161400000Y-41850000D01*
X161400000Y-41850000D02*
X159750000Y-41850000D01*
X159750000Y-41850000D02*
G75*
G02*
X157750000Y-41850000I-1000000J0D01*
G01*
G04 #@! TO.C,U25*
X147590000Y-41850000D02*
X145940000Y-41850000D01*
X145940000Y-41850000D02*
X145940000Y-59750000D01*
X145940000Y-59750000D02*
X151240000Y-59750000D01*
X151240000Y-59750000D02*
X151240000Y-41850000D01*
X151240000Y-41850000D02*
X149590000Y-41850000D01*
X149590000Y-41850000D02*
G75*
G02*
X147590000Y-41850000I-1000000J0D01*
G01*
G04 #@! TO.C,U24*
X200930000Y-105350000D02*
X199280000Y-105350000D01*
X199280000Y-105350000D02*
X199280000Y-130870000D01*
X199280000Y-130870000D02*
X204580000Y-130870000D01*
X204580000Y-130870000D02*
X204580000Y-105350000D01*
X204580000Y-105350000D02*
X202930000Y-105350000D01*
X202930000Y-105350000D02*
G75*
G02*
X200930000Y-105350000I-1000000J0D01*
G01*
G04 #@! TO.C,U23*
X211090000Y-105350000D02*
X209440000Y-105350000D01*
X209440000Y-105350000D02*
X209440000Y-130870000D01*
X209440000Y-130870000D02*
X214740000Y-130870000D01*
X214740000Y-130870000D02*
X214740000Y-105350000D01*
X214740000Y-105350000D02*
X213090000Y-105350000D01*
X213090000Y-105350000D02*
G75*
G02*
X211090000Y-105350000I-1000000J0D01*
G01*
G04 #@! TO.C,U22*
X71390000Y-41850000D02*
X69740000Y-41850000D01*
X69740000Y-41850000D02*
X69740000Y-64830000D01*
X69740000Y-64830000D02*
X75040000Y-64830000D01*
X75040000Y-64830000D02*
X75040000Y-41850000D01*
X75040000Y-41850000D02*
X73390000Y-41850000D01*
X73390000Y-41850000D02*
G75*
G02*
X71390000Y-41850000I-1000000J0D01*
G01*
G04 #@! TO.C,U21*
X167910000Y-41850000D02*
X166260000Y-41850000D01*
X166260000Y-41850000D02*
X166260000Y-59750000D01*
X166260000Y-59750000D02*
X171560000Y-59750000D01*
X171560000Y-59750000D02*
X171560000Y-41850000D01*
X171560000Y-41850000D02*
X169910000Y-41850000D01*
X169910000Y-41850000D02*
G75*
G02*
X167910000Y-41850000I-1000000J0D01*
G01*
G04 #@! TO.C,U20*
X221250000Y-105350000D02*
X219600000Y-105350000D01*
X219600000Y-105350000D02*
X219600000Y-123250000D01*
X219600000Y-123250000D02*
X224900000Y-123250000D01*
X224900000Y-123250000D02*
X224900000Y-105350000D01*
X224900000Y-105350000D02*
X223250000Y-105350000D01*
X223250000Y-105350000D02*
G75*
G02*
X221250000Y-105350000I-1000000J0D01*
G01*
G04 #@! TO.C,U19*
X185690000Y-42760000D02*
X175840000Y-42760000D01*
X175840000Y-42760000D02*
X174840000Y-43760000D01*
X174840000Y-43760000D02*
X174840000Y-66460000D01*
X174840000Y-66460000D02*
X198540000Y-66460000D01*
X198540000Y-66460000D02*
X198540000Y-42760000D01*
X198540000Y-42760000D02*
X187690000Y-42760000D01*
G04 #@! TO.C,U18*
X99330000Y-41850000D02*
X97680000Y-41850000D01*
X97680000Y-41850000D02*
X97680000Y-59750000D01*
X97680000Y-59750000D02*
X102980000Y-59750000D01*
X102980000Y-59750000D02*
X102980000Y-41850000D01*
X102980000Y-41850000D02*
X101330000Y-41850000D01*
X101330000Y-41850000D02*
G75*
G02*
X99330000Y-41850000I-1000000J0D01*
G01*
G04 #@! TO.C,U17*
X81550000Y-41850000D02*
X79900000Y-41850000D01*
X79900000Y-41850000D02*
X79900000Y-64830000D01*
X79900000Y-64830000D02*
X85200000Y-64830000D01*
X85200000Y-64830000D02*
X85200000Y-41850000D01*
X85200000Y-41850000D02*
X83550000Y-41850000D01*
X83550000Y-41850000D02*
G75*
G02*
X81550000Y-41850000I-1000000J0D01*
G01*
G04 #@! TO.C,U16*
X137430000Y-41850000D02*
X135780000Y-41850000D01*
X135780000Y-41850000D02*
X135780000Y-62290000D01*
X135780000Y-62290000D02*
X141080000Y-62290000D01*
X141080000Y-62290000D02*
X141080000Y-41850000D01*
X141080000Y-41850000D02*
X139430000Y-41850000D01*
X139430000Y-41850000D02*
G75*
G02*
X137430000Y-41850000I-1000000J0D01*
G01*
G04 #@! TO.C,U15*
X141240000Y-95190000D02*
X135780000Y-95190000D01*
X135780000Y-95190000D02*
X135780000Y-130870000D01*
X135780000Y-130870000D02*
X148700000Y-130870000D01*
X148700000Y-130870000D02*
X148700000Y-95190000D01*
X148700000Y-95190000D02*
X143240000Y-95190000D01*
X143240000Y-95190000D02*
G75*
G02*
X141240000Y-95190000I-1000000J0D01*
G01*
G04 #@! TO.C,U14*
X123460000Y-90110000D02*
X118000000Y-90110000D01*
X118000000Y-90110000D02*
X118000000Y-130870000D01*
X118000000Y-130870000D02*
X130920000Y-130870000D01*
X130920000Y-130870000D02*
X130920000Y-90110000D01*
X130920000Y-90110000D02*
X125460000Y-90110000D01*
X125460000Y-90110000D02*
G75*
G02*
X123460000Y-90110000I-1000000J0D01*
G01*
G04 #@! TO.C,U13*
X105680000Y-90110000D02*
X100220000Y-90110000D01*
X100220000Y-90110000D02*
X100220000Y-130870000D01*
X100220000Y-130870000D02*
X113140000Y-130870000D01*
X113140000Y-130870000D02*
X113140000Y-90110000D01*
X113140000Y-90110000D02*
X107680000Y-90110000D01*
X107680000Y-90110000D02*
G75*
G02*
X105680000Y-90110000I-1000000J0D01*
G01*
G04 #@! TO.C,U12*
X127270000Y-41850000D02*
X125620000Y-41850000D01*
X125620000Y-41850000D02*
X125620000Y-62290000D01*
X125620000Y-62290000D02*
X130920000Y-62290000D01*
X130920000Y-62290000D02*
X130920000Y-41850000D01*
X130920000Y-41850000D02*
X129270000Y-41850000D01*
X129270000Y-41850000D02*
G75*
G02*
X127270000Y-41850000I-1000000J0D01*
G01*
G04 #@! TO.C,U11*
X190770000Y-105350000D02*
X189120000Y-105350000D01*
X189120000Y-105350000D02*
X189120000Y-130870000D01*
X189120000Y-130870000D02*
X194420000Y-130870000D01*
X194420000Y-130870000D02*
X194420000Y-105350000D01*
X194420000Y-105350000D02*
X192770000Y-105350000D01*
X192770000Y-105350000D02*
G75*
G02*
X190770000Y-105350000I-1000000J0D01*
G01*
G04 #@! TO.C,U10*
X207280000Y-41850000D02*
X201820000Y-41850000D01*
X201820000Y-41850000D02*
X201820000Y-92770000D01*
X201820000Y-92770000D02*
X214740000Y-92770000D01*
X214740000Y-92770000D02*
X214740000Y-41850000D01*
X214740000Y-41850000D02*
X209280000Y-41850000D01*
X209280000Y-41850000D02*
G75*
G02*
X207280000Y-41850000I-1000000J0D01*
G01*
G04 #@! TO.C,U9*
X113300000Y-41850000D02*
X107840000Y-41850000D01*
X107840000Y-41850000D02*
X107840000Y-77530000D01*
X107840000Y-77530000D02*
X120760000Y-77530000D01*
X120760000Y-77530000D02*
X120760000Y-41850000D01*
X120760000Y-41850000D02*
X115300000Y-41850000D01*
X115300000Y-41850000D02*
G75*
G02*
X113300000Y-41850000I-1000000J0D01*
G01*
G04 #@! TO.C,U8*
X81550000Y-69790000D02*
X79900000Y-69790000D01*
X79900000Y-69790000D02*
X79900000Y-90230000D01*
X79900000Y-90230000D02*
X85200000Y-90230000D01*
X85200000Y-90230000D02*
X85200000Y-69790000D01*
X85200000Y-69790000D02*
X83550000Y-69790000D01*
X83550000Y-69790000D02*
G75*
G02*
X81550000Y-69790000I-1000000J0D01*
G01*
G04 #@! TO.C,U7*
X221250000Y-41850000D02*
X219600000Y-41850000D01*
X219600000Y-41850000D02*
X219600000Y-62290000D01*
X219600000Y-62290000D02*
X224900000Y-62290000D01*
X224900000Y-62290000D02*
X224900000Y-41850000D01*
X224900000Y-41850000D02*
X223250000Y-41850000D01*
X223250000Y-41850000D02*
G75*
G02*
X221250000Y-41850000I-1000000J0D01*
G01*
G04 #@! TO.C,U6*
X159020000Y-95190000D02*
X153560000Y-95190000D01*
X153560000Y-95190000D02*
X153560000Y-130870000D01*
X153560000Y-130870000D02*
X166480000Y-130870000D01*
X166480000Y-130870000D02*
X166480000Y-95190000D01*
X166480000Y-95190000D02*
X161020000Y-95190000D01*
X161020000Y-95190000D02*
G75*
G02*
X159020000Y-95190000I-1000000J0D01*
G01*
G04 #@! TO.C,U5*
X176800000Y-100270000D02*
X171340000Y-100270000D01*
X171340000Y-100270000D02*
X171340000Y-130870000D01*
X171340000Y-130870000D02*
X184260000Y-130870000D01*
X184260000Y-130870000D02*
X184260000Y-100270000D01*
X184260000Y-100270000D02*
X178800000Y-100270000D01*
X178800000Y-100270000D02*
G75*
G02*
X176800000Y-100270000I-1000000J0D01*
G01*
G04 #@! TO.C,U4*
X81550000Y-97730000D02*
X79900000Y-97730000D01*
X79900000Y-97730000D02*
X79900000Y-123250000D01*
X79900000Y-123250000D02*
X85200000Y-123250000D01*
X85200000Y-123250000D02*
X85200000Y-97730000D01*
X85200000Y-97730000D02*
X83550000Y-97730000D01*
X83550000Y-97730000D02*
G75*
G02*
X81550000Y-97730000I-1000000J0D01*
G01*
G04 #@! TO.C,U3*
X91710000Y-67250000D02*
X90060000Y-67250000D01*
X90060000Y-67250000D02*
X90060000Y-92770000D01*
X90060000Y-92770000D02*
X95360000Y-92770000D01*
X95360000Y-92770000D02*
X95360000Y-67250000D01*
X95360000Y-67250000D02*
X93710000Y-67250000D01*
X93710000Y-67250000D02*
G75*
G02*
X91710000Y-67250000I-1000000J0D01*
G01*
G04 #@! TO.C,U2*
X91710000Y-97730000D02*
X90060000Y-97730000D01*
X90060000Y-97730000D02*
X90060000Y-123250000D01*
X90060000Y-123250000D02*
X95360000Y-123250000D01*
X95360000Y-123250000D02*
X95360000Y-97730000D01*
X95360000Y-97730000D02*
X93710000Y-97730000D01*
X93710000Y-97730000D02*
G75*
G02*
X91710000Y-97730000I-1000000J0D01*
G01*
G04 #@! TO.C,U1*
X67580000Y-82490000D02*
X62120000Y-82490000D01*
X62120000Y-82490000D02*
X62120000Y-133410000D01*
X62120000Y-133410000D02*
X75040000Y-133410000D01*
X75040000Y-133410000D02*
X75040000Y-82490000D01*
X75040000Y-82490000D02*
X69580000Y-82490000D01*
X69580000Y-82490000D02*
G75*
G02*
X67580000Y-82490000I-1000000J0D01*
G01*
G04 #@! TO.C,SW1*
X59452000Y-60286000D02*
X59452000Y-64786000D01*
X63452000Y-59036000D02*
X61952000Y-59036000D01*
X65952000Y-64786000D02*
X65952000Y-60286000D01*
X61952000Y-66036000D02*
X63452000Y-66036000D01*
G04 #@! TO.C,C123*
X63346000Y-53848000D02*
G75*
G03*
X63346000Y-53848000I-2120000J0D01*
G01*
X61226000Y-54688000D02*
X61226000Y-55928000D01*
X61226000Y-51768000D02*
X61226000Y-53008000D01*
X61266000Y-54688000D02*
X61266000Y-55928000D01*
X61266000Y-51768000D02*
X61266000Y-53008000D01*
X61306000Y-54688000D02*
X61306000Y-55927000D01*
X61306000Y-51769000D02*
X61306000Y-53008000D01*
X61346000Y-51771000D02*
X61346000Y-53008000D01*
X61346000Y-54688000D02*
X61346000Y-55925000D01*
X61386000Y-51774000D02*
X61386000Y-53008000D01*
X61386000Y-54688000D02*
X61386000Y-55922000D01*
X61426000Y-51777000D02*
X61426000Y-53008000D01*
X61426000Y-54688000D02*
X61426000Y-55919000D01*
X61466000Y-51781000D02*
X61466000Y-53008000D01*
X61466000Y-54688000D02*
X61466000Y-55915000D01*
X61506000Y-51786000D02*
X61506000Y-53008000D01*
X61506000Y-54688000D02*
X61506000Y-55910000D01*
X61546000Y-51792000D02*
X61546000Y-53008000D01*
X61546000Y-54688000D02*
X61546000Y-55904000D01*
X61586000Y-51798000D02*
X61586000Y-53008000D01*
X61586000Y-54688000D02*
X61586000Y-55898000D01*
X61626000Y-51806000D02*
X61626000Y-53008000D01*
X61626000Y-54688000D02*
X61626000Y-55890000D01*
X61666000Y-51814000D02*
X61666000Y-53008000D01*
X61666000Y-54688000D02*
X61666000Y-55882000D01*
X61706000Y-51823000D02*
X61706000Y-53008000D01*
X61706000Y-54688000D02*
X61706000Y-55873000D01*
X61746000Y-51832000D02*
X61746000Y-53008000D01*
X61746000Y-54688000D02*
X61746000Y-55864000D01*
X61786000Y-51843000D02*
X61786000Y-53008000D01*
X61786000Y-54688000D02*
X61786000Y-55853000D01*
X61826000Y-51854000D02*
X61826000Y-53008000D01*
X61826000Y-54688000D02*
X61826000Y-55842000D01*
X61866000Y-51866000D02*
X61866000Y-53008000D01*
X61866000Y-54688000D02*
X61866000Y-55830000D01*
X61906000Y-51880000D02*
X61906000Y-53008000D01*
X61906000Y-54688000D02*
X61906000Y-55816000D01*
X61947000Y-51894000D02*
X61947000Y-53008000D01*
X61947000Y-54688000D02*
X61947000Y-55802000D01*
X61987000Y-51908000D02*
X61987000Y-53008000D01*
X61987000Y-54688000D02*
X61987000Y-55788000D01*
X62027000Y-51924000D02*
X62027000Y-53008000D01*
X62027000Y-54688000D02*
X62027000Y-55772000D01*
X62067000Y-51941000D02*
X62067000Y-53008000D01*
X62067000Y-54688000D02*
X62067000Y-55755000D01*
X62107000Y-51959000D02*
X62107000Y-53008000D01*
X62107000Y-54688000D02*
X62107000Y-55737000D01*
X62147000Y-51978000D02*
X62147000Y-53008000D01*
X62147000Y-54688000D02*
X62147000Y-55718000D01*
X62187000Y-51997000D02*
X62187000Y-53008000D01*
X62187000Y-54688000D02*
X62187000Y-55699000D01*
X62227000Y-52018000D02*
X62227000Y-53008000D01*
X62227000Y-54688000D02*
X62227000Y-55678000D01*
X62267000Y-52040000D02*
X62267000Y-53008000D01*
X62267000Y-54688000D02*
X62267000Y-55656000D01*
X62307000Y-52063000D02*
X62307000Y-53008000D01*
X62307000Y-54688000D02*
X62307000Y-55633000D01*
X62347000Y-52088000D02*
X62347000Y-53008000D01*
X62347000Y-54688000D02*
X62347000Y-55608000D01*
X62387000Y-52113000D02*
X62387000Y-53008000D01*
X62387000Y-54688000D02*
X62387000Y-55583000D01*
X62427000Y-52140000D02*
X62427000Y-53008000D01*
X62427000Y-54688000D02*
X62427000Y-55556000D01*
X62467000Y-52168000D02*
X62467000Y-53008000D01*
X62467000Y-54688000D02*
X62467000Y-55528000D01*
X62507000Y-52198000D02*
X62507000Y-53008000D01*
X62507000Y-54688000D02*
X62507000Y-55498000D01*
X62547000Y-52229000D02*
X62547000Y-53008000D01*
X62547000Y-54688000D02*
X62547000Y-55467000D01*
X62587000Y-52261000D02*
X62587000Y-53008000D01*
X62587000Y-54688000D02*
X62587000Y-55435000D01*
X62627000Y-52296000D02*
X62627000Y-53008000D01*
X62627000Y-54688000D02*
X62627000Y-55400000D01*
X62667000Y-52332000D02*
X62667000Y-53008000D01*
X62667000Y-54688000D02*
X62667000Y-55364000D01*
X62707000Y-52370000D02*
X62707000Y-53008000D01*
X62707000Y-54688000D02*
X62707000Y-55326000D01*
X62747000Y-52410000D02*
X62747000Y-53008000D01*
X62747000Y-54688000D02*
X62747000Y-55286000D01*
X62787000Y-52452000D02*
X62787000Y-53008000D01*
X62787000Y-54688000D02*
X62787000Y-55244000D01*
X62827000Y-52497000D02*
X62827000Y-55199000D01*
X62867000Y-52544000D02*
X62867000Y-55152000D01*
X62907000Y-52594000D02*
X62907000Y-55102000D01*
X62947000Y-52648000D02*
X62947000Y-55048000D01*
X62987000Y-52706000D02*
X62987000Y-54990000D01*
X63027000Y-52768000D02*
X63027000Y-54928000D01*
X63067000Y-52835000D02*
X63067000Y-54861000D01*
X63107000Y-52908000D02*
X63107000Y-54788000D01*
X63147000Y-52989000D02*
X63147000Y-54707000D01*
X63187000Y-53080000D02*
X63187000Y-54616000D01*
X63227000Y-53184000D02*
X63227000Y-54512000D01*
X63267000Y-53311000D02*
X63267000Y-54385000D01*
X63307000Y-53478000D02*
X63307000Y-54218000D01*
X58956199Y-52653000D02*
X59356199Y-52653000D01*
X59156199Y-52453000D02*
X59156199Y-52853000D01*
G04 #@! TO.C,J2*
X223342200Y-82143600D02*
X223342200Y-95656400D01*
X236143800Y-95656400D02*
X223342200Y-95656400D01*
X236143800Y-82143600D02*
X223342200Y-82143600D01*
X236143800Y-88900000D02*
X236143800Y-95656400D01*
X236143800Y-82143600D02*
X236143800Y-88900000D01*
G04 #@! TO.C,J5*
D13*
X177606476Y-38837809D02*
X177606476Y-38329809D01*
X178138666Y-38837809D02*
X177969333Y-38595904D01*
X177848380Y-38837809D02*
X177848380Y-38329809D01*
X178041904Y-38329809D01*
X178090285Y-38354000D01*
X178114476Y-38378190D01*
X178138666Y-38426571D01*
X178138666Y-38499142D01*
X178114476Y-38547523D01*
X178090285Y-38571714D01*
X178041904Y-38595904D01*
X177848380Y-38595904D01*
X178695047Y-38886190D02*
X178646666Y-38862000D01*
X178598285Y-38813619D01*
X178525714Y-38741047D01*
X178477333Y-38716857D01*
X178428952Y-38716857D01*
X178453142Y-38837809D02*
X178404761Y-38813619D01*
X178356380Y-38765238D01*
X178332190Y-38668476D01*
X178332190Y-38499142D01*
X178356380Y-38402380D01*
X178404761Y-38354000D01*
X178453142Y-38329809D01*
X178549904Y-38329809D01*
X178598285Y-38354000D01*
X178646666Y-38402380D01*
X178670857Y-38499142D01*
X178670857Y-38668476D01*
X178646666Y-38765238D01*
X178598285Y-38813619D01*
X178549904Y-38837809D01*
X178453142Y-38837809D01*
X179541714Y-38837809D02*
X179251428Y-38837809D01*
X179396571Y-38837809D02*
X179396571Y-38329809D01*
X179348190Y-38402380D01*
X179299809Y-38450761D01*
X179251428Y-38474952D01*
G04 #@! TO.C,R15*
D11*
X86209523Y-131516380D02*
X85638095Y-131516380D01*
X85923809Y-131516380D02*
X85923809Y-130516380D01*
X85828571Y-130659238D01*
X85733333Y-130754476D01*
X85638095Y-130802095D01*
X86828571Y-130516380D02*
X86923809Y-130516380D01*
X87019047Y-130564000D01*
X87066666Y-130611619D01*
X87114285Y-130706857D01*
X87161904Y-130897333D01*
X87161904Y-131135428D01*
X87114285Y-131325904D01*
X87066666Y-131421142D01*
X87019047Y-131468761D01*
X86923809Y-131516380D01*
X86828571Y-131516380D01*
X86733333Y-131468761D01*
X86685714Y-131421142D01*
X86638095Y-131325904D01*
X86590476Y-131135428D01*
X86590476Y-130897333D01*
X86638095Y-130706857D01*
X86685714Y-130611619D01*
X86733333Y-130564000D01*
X86828571Y-130516380D01*
X87590476Y-131516380D02*
X87590476Y-130516380D01*
X88161904Y-131516380D02*
X87733333Y-130944952D01*
X88161904Y-130516380D02*
X87590476Y-131087809D01*
X89542857Y-130516380D02*
X89733333Y-130516380D01*
X89828571Y-130564000D01*
X89923809Y-130659238D01*
X89971428Y-130849714D01*
X89971428Y-131183047D01*
X89923809Y-131373523D01*
X89828571Y-131468761D01*
X89733333Y-131516380D01*
X89542857Y-131516380D01*
X89447619Y-131468761D01*
X89352380Y-131373523D01*
X89304761Y-131183047D01*
X89304761Y-130849714D01*
X89352380Y-130659238D01*
X89447619Y-130564000D01*
X89542857Y-130516380D01*
X90400000Y-131516380D02*
X90400000Y-130516380D01*
X90400000Y-130992571D02*
X90971428Y-130992571D01*
X90971428Y-131516380D02*
X90971428Y-130516380D01*
X91447619Y-131516380D02*
X91447619Y-130516380D01*
X91780952Y-131230666D01*
X92114285Y-130516380D01*
X92114285Y-131516380D01*
G04 #@! TO.C,R17*
X197924380Y-87780476D02*
X197924380Y-88351904D01*
X197924380Y-88066190D02*
X196924380Y-88066190D01*
X197067238Y-88161428D01*
X197162476Y-88256666D01*
X197210095Y-88351904D01*
X196924380Y-87161428D02*
X196924380Y-87066190D01*
X196972000Y-86970952D01*
X197019619Y-86923333D01*
X197114857Y-86875714D01*
X197305333Y-86828095D01*
X197543428Y-86828095D01*
X197733904Y-86875714D01*
X197829142Y-86923333D01*
X197876761Y-86970952D01*
X197924380Y-87066190D01*
X197924380Y-87161428D01*
X197876761Y-87256666D01*
X197829142Y-87304285D01*
X197733904Y-87351904D01*
X197543428Y-87399523D01*
X197305333Y-87399523D01*
X197114857Y-87351904D01*
X197019619Y-87304285D01*
X196972000Y-87256666D01*
X196924380Y-87161428D01*
X197924380Y-86399523D02*
X196924380Y-86399523D01*
X197924380Y-85828095D02*
X197352952Y-86256666D01*
X196924380Y-85828095D02*
X197495809Y-86399523D01*
X196924380Y-84447142D02*
X196924380Y-84256666D01*
X196972000Y-84161428D01*
X197067238Y-84066190D01*
X197257714Y-84018571D01*
X197591047Y-84018571D01*
X197781523Y-84066190D01*
X197876761Y-84161428D01*
X197924380Y-84256666D01*
X197924380Y-84447142D01*
X197876761Y-84542380D01*
X197781523Y-84637619D01*
X197591047Y-84685238D01*
X197257714Y-84685238D01*
X197067238Y-84637619D01*
X196972000Y-84542380D01*
X196924380Y-84447142D01*
X197924380Y-83590000D02*
X196924380Y-83590000D01*
X197400571Y-83590000D02*
X197400571Y-83018571D01*
X197924380Y-83018571D02*
X196924380Y-83018571D01*
X197924380Y-82542380D02*
X196924380Y-82542380D01*
X197638666Y-82209047D01*
X196924380Y-81875714D01*
X197924380Y-81875714D01*
G04 #@! TO.C,R12*
X161647523Y-66860380D02*
X161076095Y-66860380D01*
X161361809Y-66860380D02*
X161361809Y-65860380D01*
X161266571Y-66003238D01*
X161171333Y-66098476D01*
X161076095Y-66146095D01*
X162266571Y-65860380D02*
X162361809Y-65860380D01*
X162457047Y-65908000D01*
X162504666Y-65955619D01*
X162552285Y-66050857D01*
X162599904Y-66241333D01*
X162599904Y-66479428D01*
X162552285Y-66669904D01*
X162504666Y-66765142D01*
X162457047Y-66812761D01*
X162361809Y-66860380D01*
X162266571Y-66860380D01*
X162171333Y-66812761D01*
X162123714Y-66765142D01*
X162076095Y-66669904D01*
X162028476Y-66479428D01*
X162028476Y-66241333D01*
X162076095Y-66050857D01*
X162123714Y-65955619D01*
X162171333Y-65908000D01*
X162266571Y-65860380D01*
X163028476Y-66860380D02*
X163028476Y-65860380D01*
X163599904Y-66860380D02*
X163171333Y-66288952D01*
X163599904Y-65860380D02*
X163028476Y-66431809D01*
X164980857Y-65860380D02*
X165171333Y-65860380D01*
X165266571Y-65908000D01*
X165361809Y-66003238D01*
X165409428Y-66193714D01*
X165409428Y-66527047D01*
X165361809Y-66717523D01*
X165266571Y-66812761D01*
X165171333Y-66860380D01*
X164980857Y-66860380D01*
X164885619Y-66812761D01*
X164790380Y-66717523D01*
X164742761Y-66527047D01*
X164742761Y-66193714D01*
X164790380Y-66003238D01*
X164885619Y-65908000D01*
X164980857Y-65860380D01*
X165838000Y-66860380D02*
X165838000Y-65860380D01*
X165838000Y-66336571D02*
X166409428Y-66336571D01*
X166409428Y-66860380D02*
X166409428Y-65860380D01*
X166885619Y-66860380D02*
X166885619Y-65860380D01*
X167218952Y-66574666D01*
X167552285Y-65860380D01*
X167552285Y-66860380D01*
G04 #@! TO.C,R8*
X134818380Y-78382476D02*
X134818380Y-78953904D01*
X134818380Y-78668190D02*
X133818380Y-78668190D01*
X133961238Y-78763428D01*
X134056476Y-78858666D01*
X134104095Y-78953904D01*
X133818380Y-77763428D02*
X133818380Y-77668190D01*
X133866000Y-77572952D01*
X133913619Y-77525333D01*
X134008857Y-77477714D01*
X134199333Y-77430095D01*
X134437428Y-77430095D01*
X134627904Y-77477714D01*
X134723142Y-77525333D01*
X134770761Y-77572952D01*
X134818380Y-77668190D01*
X134818380Y-77763428D01*
X134770761Y-77858666D01*
X134723142Y-77906285D01*
X134627904Y-77953904D01*
X134437428Y-78001523D01*
X134199333Y-78001523D01*
X134008857Y-77953904D01*
X133913619Y-77906285D01*
X133866000Y-77858666D01*
X133818380Y-77763428D01*
X134818380Y-77001523D02*
X133818380Y-77001523D01*
X134818380Y-76430095D02*
X134246952Y-76858666D01*
X133818380Y-76430095D02*
X134389809Y-77001523D01*
X133818380Y-75049142D02*
X133818380Y-74858666D01*
X133866000Y-74763428D01*
X133961238Y-74668190D01*
X134151714Y-74620571D01*
X134485047Y-74620571D01*
X134675523Y-74668190D01*
X134770761Y-74763428D01*
X134818380Y-74858666D01*
X134818380Y-75049142D01*
X134770761Y-75144380D01*
X134675523Y-75239619D01*
X134485047Y-75287238D01*
X134151714Y-75287238D01*
X133961238Y-75239619D01*
X133866000Y-75144380D01*
X133818380Y-75049142D01*
X134818380Y-74192000D02*
X133818380Y-74192000D01*
X134294571Y-74192000D02*
X134294571Y-73620571D01*
X134818380Y-73620571D02*
X133818380Y-73620571D01*
X134818380Y-73144380D02*
X133818380Y-73144380D01*
X134532666Y-72811047D01*
X133818380Y-72477714D01*
X134818380Y-72477714D01*
G04 #@! TO.C,R10*
X129598380Y-76350476D02*
X129598380Y-76921904D01*
X129598380Y-76636190D02*
X128598380Y-76636190D01*
X128741238Y-76731428D01*
X128836476Y-76826666D01*
X128884095Y-76921904D01*
X128598380Y-75731428D02*
X128598380Y-75636190D01*
X128646000Y-75540952D01*
X128693619Y-75493333D01*
X128788857Y-75445714D01*
X128979333Y-75398095D01*
X129217428Y-75398095D01*
X129407904Y-75445714D01*
X129503142Y-75493333D01*
X129550761Y-75540952D01*
X129598380Y-75636190D01*
X129598380Y-75731428D01*
X129550761Y-75826666D01*
X129503142Y-75874285D01*
X129407904Y-75921904D01*
X129217428Y-75969523D01*
X128979333Y-75969523D01*
X128788857Y-75921904D01*
X128693619Y-75874285D01*
X128646000Y-75826666D01*
X128598380Y-75731428D01*
X129598380Y-74969523D02*
X128598380Y-74969523D01*
X129598380Y-74398095D02*
X129026952Y-74826666D01*
X128598380Y-74398095D02*
X129169809Y-74969523D01*
X128598380Y-73017142D02*
X128598380Y-72826666D01*
X128646000Y-72731428D01*
X128741238Y-72636190D01*
X128931714Y-72588571D01*
X129265047Y-72588571D01*
X129455523Y-72636190D01*
X129550761Y-72731428D01*
X129598380Y-72826666D01*
X129598380Y-73017142D01*
X129550761Y-73112380D01*
X129455523Y-73207619D01*
X129265047Y-73255238D01*
X128931714Y-73255238D01*
X128741238Y-73207619D01*
X128646000Y-73112380D01*
X128598380Y-73017142D01*
X129598380Y-72160000D02*
X128598380Y-72160000D01*
X129074571Y-72160000D02*
X129074571Y-71588571D01*
X129598380Y-71588571D02*
X128598380Y-71588571D01*
X129598380Y-71112380D02*
X128598380Y-71112380D01*
X129312666Y-70779047D01*
X128598380Y-70445714D01*
X129598380Y-70445714D01*
G04 #@! TO.C,J4*
X231767142Y-71477142D02*
X231719523Y-71524761D01*
X231576666Y-71572380D01*
X231481428Y-71572380D01*
X231338571Y-71524761D01*
X231243333Y-71429523D01*
X231195714Y-71334285D01*
X231148095Y-71143809D01*
X231148095Y-71000952D01*
X231195714Y-70810476D01*
X231243333Y-70715238D01*
X231338571Y-70620000D01*
X231481428Y-70572380D01*
X231576666Y-70572380D01*
X231719523Y-70620000D01*
X231767142Y-70667619D01*
X232148095Y-71524761D02*
X232290952Y-71572380D01*
X232529047Y-71572380D01*
X232624285Y-71524761D01*
X232671904Y-71477142D01*
X232719523Y-71381904D01*
X232719523Y-71286666D01*
X232671904Y-71191428D01*
X232624285Y-71143809D01*
X232529047Y-71096190D01*
X232338571Y-71048571D01*
X232243333Y-71000952D01*
X232195714Y-70953333D01*
X232148095Y-70858095D01*
X232148095Y-70762857D01*
X232195714Y-70667619D01*
X232243333Y-70620000D01*
X232338571Y-70572380D01*
X232576666Y-70572380D01*
X232719523Y-70620000D01*
X233052857Y-70572380D02*
X233719523Y-70572380D01*
X233290952Y-71572380D01*
G04 #@! TO.C,R16*
X222702380Y-82446476D02*
X222702380Y-83017904D01*
X222702380Y-82732190D02*
X221702380Y-82732190D01*
X221845238Y-82827428D01*
X221940476Y-82922666D01*
X221988095Y-83017904D01*
X221702380Y-81827428D02*
X221702380Y-81732190D01*
X221750000Y-81636952D01*
X221797619Y-81589333D01*
X221892857Y-81541714D01*
X222083333Y-81494095D01*
X222321428Y-81494095D01*
X222511904Y-81541714D01*
X222607142Y-81589333D01*
X222654761Y-81636952D01*
X222702380Y-81732190D01*
X222702380Y-81827428D01*
X222654761Y-81922666D01*
X222607142Y-81970285D01*
X222511904Y-82017904D01*
X222321428Y-82065523D01*
X222083333Y-82065523D01*
X221892857Y-82017904D01*
X221797619Y-81970285D01*
X221750000Y-81922666D01*
X221702380Y-81827428D01*
X222702380Y-81065523D02*
X221702380Y-81065523D01*
X222702380Y-80494095D02*
X222130952Y-80922666D01*
X221702380Y-80494095D02*
X222273809Y-81065523D01*
X221702380Y-79113142D02*
X221702380Y-78922666D01*
X221750000Y-78827428D01*
X221845238Y-78732190D01*
X222035714Y-78684571D01*
X222369047Y-78684571D01*
X222559523Y-78732190D01*
X222654761Y-78827428D01*
X222702380Y-78922666D01*
X222702380Y-79113142D01*
X222654761Y-79208380D01*
X222559523Y-79303619D01*
X222369047Y-79351238D01*
X222035714Y-79351238D01*
X221845238Y-79303619D01*
X221750000Y-79208380D01*
X221702380Y-79113142D01*
X222702380Y-78256000D02*
X221702380Y-78256000D01*
X222178571Y-78256000D02*
X222178571Y-77684571D01*
X222702380Y-77684571D02*
X221702380Y-77684571D01*
X222702380Y-77208380D02*
X221702380Y-77208380D01*
X222416666Y-76875047D01*
X221702380Y-76541714D01*
X222702380Y-76541714D01*
G04 #@! TO.C,R14*
X80875523Y-129852380D02*
X80304095Y-129852380D01*
X80589809Y-129852380D02*
X80589809Y-128852380D01*
X80494571Y-128995238D01*
X80399333Y-129090476D01*
X80304095Y-129138095D01*
X81494571Y-128852380D02*
X81589809Y-128852380D01*
X81685047Y-128900000D01*
X81732666Y-128947619D01*
X81780285Y-129042857D01*
X81827904Y-129233333D01*
X81827904Y-129471428D01*
X81780285Y-129661904D01*
X81732666Y-129757142D01*
X81685047Y-129804761D01*
X81589809Y-129852380D01*
X81494571Y-129852380D01*
X81399333Y-129804761D01*
X81351714Y-129757142D01*
X81304095Y-129661904D01*
X81256476Y-129471428D01*
X81256476Y-129233333D01*
X81304095Y-129042857D01*
X81351714Y-128947619D01*
X81399333Y-128900000D01*
X81494571Y-128852380D01*
X82256476Y-129852380D02*
X82256476Y-128852380D01*
X82827904Y-129852380D02*
X82399333Y-129280952D01*
X82827904Y-128852380D02*
X82256476Y-129423809D01*
X84208857Y-128852380D02*
X84399333Y-128852380D01*
X84494571Y-128900000D01*
X84589809Y-128995238D01*
X84637428Y-129185714D01*
X84637428Y-129519047D01*
X84589809Y-129709523D01*
X84494571Y-129804761D01*
X84399333Y-129852380D01*
X84208857Y-129852380D01*
X84113619Y-129804761D01*
X84018380Y-129709523D01*
X83970761Y-129519047D01*
X83970761Y-129185714D01*
X84018380Y-128995238D01*
X84113619Y-128900000D01*
X84208857Y-128852380D01*
X85066000Y-129852380D02*
X85066000Y-128852380D01*
X85066000Y-129328571D02*
X85637428Y-129328571D01*
X85637428Y-129852380D02*
X85637428Y-128852380D01*
X86113619Y-129852380D02*
X86113619Y-128852380D01*
X86446952Y-129566666D01*
X86780285Y-128852380D01*
X86780285Y-129852380D01*
G04 #@! TO.C,R2*
X61571523Y-73464380D02*
X61000095Y-73464380D01*
X61285809Y-73464380D02*
X61285809Y-72464380D01*
X61190571Y-72607238D01*
X61095333Y-72702476D01*
X61000095Y-72750095D01*
X62190571Y-72464380D02*
X62285809Y-72464380D01*
X62381047Y-72512000D01*
X62428666Y-72559619D01*
X62476285Y-72654857D01*
X62523904Y-72845333D01*
X62523904Y-73083428D01*
X62476285Y-73273904D01*
X62428666Y-73369142D01*
X62381047Y-73416761D01*
X62285809Y-73464380D01*
X62190571Y-73464380D01*
X62095333Y-73416761D01*
X62047714Y-73369142D01*
X62000095Y-73273904D01*
X61952476Y-73083428D01*
X61952476Y-72845333D01*
X62000095Y-72654857D01*
X62047714Y-72559619D01*
X62095333Y-72512000D01*
X62190571Y-72464380D01*
X62952476Y-73464380D02*
X62952476Y-72464380D01*
X63523904Y-73464380D02*
X63095333Y-72892952D01*
X63523904Y-72464380D02*
X62952476Y-73035809D01*
X64904857Y-72464380D02*
X65095333Y-72464380D01*
X65190571Y-72512000D01*
X65285809Y-72607238D01*
X65333428Y-72797714D01*
X65333428Y-73131047D01*
X65285809Y-73321523D01*
X65190571Y-73416761D01*
X65095333Y-73464380D01*
X64904857Y-73464380D01*
X64809619Y-73416761D01*
X64714380Y-73321523D01*
X64666761Y-73131047D01*
X64666761Y-72797714D01*
X64714380Y-72607238D01*
X64809619Y-72512000D01*
X64904857Y-72464380D01*
X65762000Y-73464380D02*
X65762000Y-72464380D01*
X65762000Y-72940571D02*
X66333428Y-72940571D01*
X66333428Y-73464380D02*
X66333428Y-72464380D01*
X66809619Y-73464380D02*
X66809619Y-72464380D01*
X67142952Y-73178666D01*
X67476285Y-72464380D01*
X67476285Y-73464380D01*
G04 #@! TO.C,R1*
X61571523Y-78036380D02*
X61000095Y-78036380D01*
X61285809Y-78036380D02*
X61285809Y-77036380D01*
X61190571Y-77179238D01*
X61095333Y-77274476D01*
X61000095Y-77322095D01*
X62190571Y-77036380D02*
X62285809Y-77036380D01*
X62381047Y-77084000D01*
X62428666Y-77131619D01*
X62476285Y-77226857D01*
X62523904Y-77417333D01*
X62523904Y-77655428D01*
X62476285Y-77845904D01*
X62428666Y-77941142D01*
X62381047Y-77988761D01*
X62285809Y-78036380D01*
X62190571Y-78036380D01*
X62095333Y-77988761D01*
X62047714Y-77941142D01*
X62000095Y-77845904D01*
X61952476Y-77655428D01*
X61952476Y-77417333D01*
X62000095Y-77226857D01*
X62047714Y-77131619D01*
X62095333Y-77084000D01*
X62190571Y-77036380D01*
X62952476Y-78036380D02*
X62952476Y-77036380D01*
X63523904Y-78036380D02*
X63095333Y-77464952D01*
X63523904Y-77036380D02*
X62952476Y-77607809D01*
X64904857Y-77036380D02*
X65095333Y-77036380D01*
X65190571Y-77084000D01*
X65285809Y-77179238D01*
X65333428Y-77369714D01*
X65333428Y-77703047D01*
X65285809Y-77893523D01*
X65190571Y-77988761D01*
X65095333Y-78036380D01*
X64904857Y-78036380D01*
X64809619Y-77988761D01*
X64714380Y-77893523D01*
X64666761Y-77703047D01*
X64666761Y-77369714D01*
X64714380Y-77179238D01*
X64809619Y-77084000D01*
X64904857Y-77036380D01*
X65762000Y-78036380D02*
X65762000Y-77036380D01*
X65762000Y-77512571D02*
X66333428Y-77512571D01*
X66333428Y-78036380D02*
X66333428Y-77036380D01*
X66809619Y-78036380D02*
X66809619Y-77036380D01*
X67142952Y-77750666D01*
X67476285Y-77036380D01*
X67476285Y-78036380D01*
G04 #@! TO.C,R18*
X94194380Y-60118285D02*
X94194380Y-60594476D01*
X94670571Y-60642095D01*
X94622952Y-60594476D01*
X94575333Y-60499238D01*
X94575333Y-60261142D01*
X94622952Y-60165904D01*
X94670571Y-60118285D01*
X94765809Y-60070666D01*
X95003904Y-60070666D01*
X95099142Y-60118285D01*
X95146761Y-60165904D01*
X95194380Y-60261142D01*
X95194380Y-60499238D01*
X95146761Y-60594476D01*
X95099142Y-60642095D01*
X95194380Y-59118285D02*
X95194380Y-59689714D01*
X95194380Y-59404000D02*
X94194380Y-59404000D01*
X94337238Y-59499238D01*
X94432476Y-59594476D01*
X94480095Y-59689714D01*
X94194380Y-58499238D02*
X94194380Y-58404000D01*
X94242000Y-58308761D01*
X94289619Y-58261142D01*
X94384857Y-58213523D01*
X94575333Y-58165904D01*
X94813428Y-58165904D01*
X95003904Y-58213523D01*
X95099142Y-58261142D01*
X95146761Y-58308761D01*
X95194380Y-58404000D01*
X95194380Y-58499238D01*
X95146761Y-58594476D01*
X95099142Y-58642095D01*
X95003904Y-58689714D01*
X94813428Y-58737333D01*
X94575333Y-58737333D01*
X94384857Y-58689714D01*
X94289619Y-58642095D01*
X94242000Y-58594476D01*
X94194380Y-58499238D01*
X94194380Y-56784952D02*
X94194380Y-56594476D01*
X94242000Y-56499238D01*
X94337238Y-56404000D01*
X94527714Y-56356380D01*
X94861047Y-56356380D01*
X95051523Y-56404000D01*
X95146761Y-56499238D01*
X95194380Y-56594476D01*
X95194380Y-56784952D01*
X95146761Y-56880190D01*
X95051523Y-56975428D01*
X94861047Y-57023047D01*
X94527714Y-57023047D01*
X94337238Y-56975428D01*
X94242000Y-56880190D01*
X94194380Y-56784952D01*
X95194380Y-55927809D02*
X94194380Y-55927809D01*
X94670571Y-55927809D02*
X94670571Y-55356380D01*
X95194380Y-55356380D02*
X94194380Y-55356380D01*
X95194380Y-54880190D02*
X94194380Y-54880190D01*
X94908666Y-54546857D01*
X94194380Y-54213523D01*
X95194380Y-54213523D01*
G04 #@! TO.C,R13*
X147050476Y-63460380D02*
X147669523Y-63460380D01*
X147336190Y-63841333D01*
X147479047Y-63841333D01*
X147574285Y-63888952D01*
X147621904Y-63936571D01*
X147669523Y-64031809D01*
X147669523Y-64269904D01*
X147621904Y-64365142D01*
X147574285Y-64412761D01*
X147479047Y-64460380D01*
X147193333Y-64460380D01*
X147098095Y-64412761D01*
X147050476Y-64365142D01*
X148002857Y-63460380D02*
X148621904Y-63460380D01*
X148288571Y-63841333D01*
X148431428Y-63841333D01*
X148526666Y-63888952D01*
X148574285Y-63936571D01*
X148621904Y-64031809D01*
X148621904Y-64269904D01*
X148574285Y-64365142D01*
X148526666Y-64412761D01*
X148431428Y-64460380D01*
X148145714Y-64460380D01*
X148050476Y-64412761D01*
X148002857Y-64365142D01*
X150002857Y-63460380D02*
X150193333Y-63460380D01*
X150288571Y-63508000D01*
X150383809Y-63603238D01*
X150431428Y-63793714D01*
X150431428Y-64127047D01*
X150383809Y-64317523D01*
X150288571Y-64412761D01*
X150193333Y-64460380D01*
X150002857Y-64460380D01*
X149907619Y-64412761D01*
X149812380Y-64317523D01*
X149764761Y-64127047D01*
X149764761Y-63793714D01*
X149812380Y-63603238D01*
X149907619Y-63508000D01*
X150002857Y-63460380D01*
X150860000Y-64460380D02*
X150860000Y-63460380D01*
X150860000Y-63936571D02*
X151431428Y-63936571D01*
X151431428Y-64460380D02*
X151431428Y-63460380D01*
X151907619Y-64460380D02*
X151907619Y-63460380D01*
X152240952Y-64174666D01*
X152574285Y-63460380D01*
X152574285Y-64460380D01*
G04 #@! TO.C,R11*
X134144095Y-66095619D02*
X134191714Y-66048000D01*
X134286952Y-66000380D01*
X134525047Y-66000380D01*
X134620285Y-66048000D01*
X134667904Y-66095619D01*
X134715523Y-66190857D01*
X134715523Y-66286095D01*
X134667904Y-66428952D01*
X134096476Y-67000380D01*
X134715523Y-67000380D01*
X135048857Y-66000380D02*
X135715523Y-66000380D01*
X135286952Y-67000380D01*
X137048857Y-66000380D02*
X137239333Y-66000380D01*
X137334571Y-66048000D01*
X137429809Y-66143238D01*
X137477428Y-66333714D01*
X137477428Y-66667047D01*
X137429809Y-66857523D01*
X137334571Y-66952761D01*
X137239333Y-67000380D01*
X137048857Y-67000380D01*
X136953619Y-66952761D01*
X136858380Y-66857523D01*
X136810761Y-66667047D01*
X136810761Y-66333714D01*
X136858380Y-66143238D01*
X136953619Y-66048000D01*
X137048857Y-66000380D01*
X137906000Y-67000380D02*
X137906000Y-66000380D01*
X137906000Y-66476571D02*
X138477428Y-66476571D01*
X138477428Y-67000380D02*
X138477428Y-66000380D01*
X138953619Y-67000380D02*
X138953619Y-66000380D01*
X139286952Y-66714666D01*
X139620285Y-66000380D01*
X139620285Y-67000380D01*
G04 #@! TO.C,R9*
X74708095Y-134929619D02*
X74755714Y-134882000D01*
X74850952Y-134834380D01*
X75089047Y-134834380D01*
X75184285Y-134882000D01*
X75231904Y-134929619D01*
X75279523Y-135024857D01*
X75279523Y-135120095D01*
X75231904Y-135262952D01*
X74660476Y-135834380D01*
X75279523Y-135834380D01*
X75612857Y-134834380D02*
X76279523Y-134834380D01*
X75850952Y-135834380D01*
X77612857Y-134834380D02*
X77803333Y-134834380D01*
X77898571Y-134882000D01*
X77993809Y-134977238D01*
X78041428Y-135167714D01*
X78041428Y-135501047D01*
X77993809Y-135691523D01*
X77898571Y-135786761D01*
X77803333Y-135834380D01*
X77612857Y-135834380D01*
X77517619Y-135786761D01*
X77422380Y-135691523D01*
X77374761Y-135501047D01*
X77374761Y-135167714D01*
X77422380Y-134977238D01*
X77517619Y-134882000D01*
X77612857Y-134834380D01*
X78470000Y-135834380D02*
X78470000Y-134834380D01*
X78470000Y-135310571D02*
X79041428Y-135310571D01*
X79041428Y-135834380D02*
X79041428Y-134834380D01*
X79517619Y-135834380D02*
X79517619Y-134834380D01*
X79850952Y-135548666D01*
X80184285Y-134834380D01*
X80184285Y-135834380D01*
G04 #@! TO.C,R7*
X220067523Y-129738380D02*
X219496095Y-129738380D01*
X219781809Y-129738380D02*
X219781809Y-128738380D01*
X219686571Y-128881238D01*
X219591333Y-128976476D01*
X219496095Y-129024095D01*
X220686571Y-128738380D02*
X220781809Y-128738380D01*
X220877047Y-128786000D01*
X220924666Y-128833619D01*
X220972285Y-128928857D01*
X221019904Y-129119333D01*
X221019904Y-129357428D01*
X220972285Y-129547904D01*
X220924666Y-129643142D01*
X220877047Y-129690761D01*
X220781809Y-129738380D01*
X220686571Y-129738380D01*
X220591333Y-129690761D01*
X220543714Y-129643142D01*
X220496095Y-129547904D01*
X220448476Y-129357428D01*
X220448476Y-129119333D01*
X220496095Y-128928857D01*
X220543714Y-128833619D01*
X220591333Y-128786000D01*
X220686571Y-128738380D01*
X221448476Y-129738380D02*
X221448476Y-128738380D01*
X222019904Y-129738380D02*
X221591333Y-129166952D01*
X222019904Y-128738380D02*
X221448476Y-129309809D01*
X223400857Y-128738380D02*
X223591333Y-128738380D01*
X223686571Y-128786000D01*
X223781809Y-128881238D01*
X223829428Y-129071714D01*
X223829428Y-129405047D01*
X223781809Y-129595523D01*
X223686571Y-129690761D01*
X223591333Y-129738380D01*
X223400857Y-129738380D01*
X223305619Y-129690761D01*
X223210380Y-129595523D01*
X223162761Y-129405047D01*
X223162761Y-129071714D01*
X223210380Y-128881238D01*
X223305619Y-128786000D01*
X223400857Y-128738380D01*
X224258000Y-129738380D02*
X224258000Y-128738380D01*
X224258000Y-129214571D02*
X224829428Y-129214571D01*
X224829428Y-129738380D02*
X224829428Y-128738380D01*
X225305619Y-129738380D02*
X225305619Y-128738380D01*
X225638952Y-129452666D01*
X225972285Y-128738380D01*
X225972285Y-129738380D01*
G04 #@! TO.C,R6*
X110268095Y-134929619D02*
X110315714Y-134882000D01*
X110410952Y-134834380D01*
X110649047Y-134834380D01*
X110744285Y-134882000D01*
X110791904Y-134929619D01*
X110839523Y-135024857D01*
X110839523Y-135120095D01*
X110791904Y-135262952D01*
X110220476Y-135834380D01*
X110839523Y-135834380D01*
X111172857Y-134834380D02*
X111839523Y-134834380D01*
X111410952Y-135834380D01*
X113172857Y-134834380D02*
X113363333Y-134834380D01*
X113458571Y-134882000D01*
X113553809Y-134977238D01*
X113601428Y-135167714D01*
X113601428Y-135501047D01*
X113553809Y-135691523D01*
X113458571Y-135786761D01*
X113363333Y-135834380D01*
X113172857Y-135834380D01*
X113077619Y-135786761D01*
X112982380Y-135691523D01*
X112934761Y-135501047D01*
X112934761Y-135167714D01*
X112982380Y-134977238D01*
X113077619Y-134882000D01*
X113172857Y-134834380D01*
X114030000Y-135834380D02*
X114030000Y-134834380D01*
X114030000Y-135310571D02*
X114601428Y-135310571D01*
X114601428Y-135834380D02*
X114601428Y-134834380D01*
X115077619Y-135834380D02*
X115077619Y-134834380D01*
X115410952Y-135548666D01*
X115744285Y-134834380D01*
X115744285Y-135834380D01*
G04 #@! TO.C,R5*
X99115619Y-70325904D02*
X99068000Y-70278285D01*
X99020380Y-70183047D01*
X99020380Y-69944952D01*
X99068000Y-69849714D01*
X99115619Y-69802095D01*
X99210857Y-69754476D01*
X99306095Y-69754476D01*
X99448952Y-69802095D01*
X100020380Y-70373523D01*
X100020380Y-69754476D01*
X99020380Y-69421142D02*
X99020380Y-68754476D01*
X100020380Y-69183047D01*
X99020380Y-67421142D02*
X99020380Y-67230666D01*
X99068000Y-67135428D01*
X99163238Y-67040190D01*
X99353714Y-66992571D01*
X99687047Y-66992571D01*
X99877523Y-67040190D01*
X99972761Y-67135428D01*
X100020380Y-67230666D01*
X100020380Y-67421142D01*
X99972761Y-67516380D01*
X99877523Y-67611619D01*
X99687047Y-67659238D01*
X99353714Y-67659238D01*
X99163238Y-67611619D01*
X99068000Y-67516380D01*
X99020380Y-67421142D01*
X100020380Y-66564000D02*
X99020380Y-66564000D01*
X99496571Y-66564000D02*
X99496571Y-65992571D01*
X100020380Y-65992571D02*
X99020380Y-65992571D01*
X100020380Y-65516380D02*
X99020380Y-65516380D01*
X99734666Y-65183047D01*
X99020380Y-64849714D01*
X100020380Y-64849714D01*
G04 #@! TO.C,R4*
X88955619Y-60419904D02*
X88908000Y-60372285D01*
X88860380Y-60277047D01*
X88860380Y-60038952D01*
X88908000Y-59943714D01*
X88955619Y-59896095D01*
X89050857Y-59848476D01*
X89146095Y-59848476D01*
X89288952Y-59896095D01*
X89860380Y-60467523D01*
X89860380Y-59848476D01*
X88860380Y-59515142D02*
X88860380Y-58848476D01*
X89860380Y-59277047D01*
X88860380Y-57515142D02*
X88860380Y-57324666D01*
X88908000Y-57229428D01*
X89003238Y-57134190D01*
X89193714Y-57086571D01*
X89527047Y-57086571D01*
X89717523Y-57134190D01*
X89812761Y-57229428D01*
X89860380Y-57324666D01*
X89860380Y-57515142D01*
X89812761Y-57610380D01*
X89717523Y-57705619D01*
X89527047Y-57753238D01*
X89193714Y-57753238D01*
X89003238Y-57705619D01*
X88908000Y-57610380D01*
X88860380Y-57515142D01*
X89860380Y-56658000D02*
X88860380Y-56658000D01*
X89336571Y-56658000D02*
X89336571Y-56086571D01*
X89860380Y-56086571D02*
X88860380Y-56086571D01*
X89860380Y-55610380D02*
X88860380Y-55610380D01*
X89574666Y-55277047D01*
X88860380Y-54943714D01*
X89860380Y-54943714D01*
G04 #@! TO.C,R3*
X122714095Y-134929619D02*
X122761714Y-134882000D01*
X122856952Y-134834380D01*
X123095047Y-134834380D01*
X123190285Y-134882000D01*
X123237904Y-134929619D01*
X123285523Y-135024857D01*
X123285523Y-135120095D01*
X123237904Y-135262952D01*
X122666476Y-135834380D01*
X123285523Y-135834380D01*
X123618857Y-134834380D02*
X124285523Y-134834380D01*
X123856952Y-135834380D01*
X125618857Y-134834380D02*
X125809333Y-134834380D01*
X125904571Y-134882000D01*
X125999809Y-134977238D01*
X126047428Y-135167714D01*
X126047428Y-135501047D01*
X125999809Y-135691523D01*
X125904571Y-135786761D01*
X125809333Y-135834380D01*
X125618857Y-135834380D01*
X125523619Y-135786761D01*
X125428380Y-135691523D01*
X125380761Y-135501047D01*
X125380761Y-135167714D01*
X125428380Y-134977238D01*
X125523619Y-134882000D01*
X125618857Y-134834380D01*
X126476000Y-135834380D02*
X126476000Y-134834380D01*
X126476000Y-135310571D02*
X127047428Y-135310571D01*
X127047428Y-135834380D02*
X127047428Y-134834380D01*
X127523619Y-135834380D02*
X127523619Y-134834380D01*
X127856952Y-135548666D01*
X128190285Y-134834380D01*
X128190285Y-135834380D01*
G04 #@! TO.C,J3*
X162290285Y-75842761D02*
X162433142Y-75890380D01*
X162671238Y-75890380D01*
X162766476Y-75842761D01*
X162814095Y-75795142D01*
X162861714Y-75699904D01*
X162861714Y-75604666D01*
X162814095Y-75509428D01*
X162766476Y-75461809D01*
X162671238Y-75414190D01*
X162480761Y-75366571D01*
X162385523Y-75318952D01*
X162337904Y-75271333D01*
X162290285Y-75176095D01*
X162290285Y-75080857D01*
X162337904Y-74985619D01*
X162385523Y-74938000D01*
X162480761Y-74890380D01*
X162718857Y-74890380D01*
X162861714Y-74938000D01*
X163290285Y-75890380D02*
X163290285Y-74890380D01*
X163671238Y-74890380D01*
X163766476Y-74938000D01*
X163814095Y-74985619D01*
X163861714Y-75080857D01*
X163861714Y-75223714D01*
X163814095Y-75318952D01*
X163766476Y-75366571D01*
X163671238Y-75414190D01*
X163290285Y-75414190D01*
X164290285Y-75890380D02*
X164290285Y-74890380D01*
X164861714Y-75890380D02*
X164433142Y-75318952D01*
X164861714Y-74890380D02*
X164290285Y-75461809D01*
G04 #@! TO.C,C26*
X158377142Y-39584380D02*
X158472380Y-39584380D01*
X158567619Y-39632000D01*
X158615238Y-39679619D01*
X158662857Y-39774857D01*
X158710476Y-39965333D01*
X158710476Y-40203428D01*
X158662857Y-40393904D01*
X158615238Y-40489142D01*
X158567619Y-40536761D01*
X158472380Y-40584380D01*
X158377142Y-40584380D01*
X158281904Y-40536761D01*
X158234285Y-40489142D01*
X158186666Y-40393904D01*
X158139047Y-40203428D01*
X158139047Y-39965333D01*
X158186666Y-39774857D01*
X158234285Y-39679619D01*
X158281904Y-39632000D01*
X158377142Y-39584380D01*
X159139047Y-40489142D02*
X159186666Y-40536761D01*
X159139047Y-40584380D01*
X159091428Y-40536761D01*
X159139047Y-40489142D01*
X159139047Y-40584380D01*
X160139047Y-40584380D02*
X159567619Y-40584380D01*
X159853333Y-40584380D02*
X159853333Y-39584380D01*
X159758095Y-39727238D01*
X159662857Y-39822476D01*
X159567619Y-39870095D01*
X160996190Y-39917714D02*
X160996190Y-40584380D01*
X160567619Y-39917714D02*
X160567619Y-40441523D01*
X160615238Y-40536761D01*
X160710476Y-40584380D01*
X160853333Y-40584380D01*
X160948571Y-40536761D01*
X160996190Y-40489142D01*
X161805714Y-40060571D02*
X161472380Y-40060571D01*
X161472380Y-40584380D02*
X161472380Y-39584380D01*
X161948571Y-39584380D01*
G04 #@! TO.C,C25*
X148257142Y-39584380D02*
X148352380Y-39584380D01*
X148447619Y-39632000D01*
X148495238Y-39679619D01*
X148542857Y-39774857D01*
X148590476Y-39965333D01*
X148590476Y-40203428D01*
X148542857Y-40393904D01*
X148495238Y-40489142D01*
X148447619Y-40536761D01*
X148352380Y-40584380D01*
X148257142Y-40584380D01*
X148161904Y-40536761D01*
X148114285Y-40489142D01*
X148066666Y-40393904D01*
X148019047Y-40203428D01*
X148019047Y-39965333D01*
X148066666Y-39774857D01*
X148114285Y-39679619D01*
X148161904Y-39632000D01*
X148257142Y-39584380D01*
X149019047Y-40489142D02*
X149066666Y-40536761D01*
X149019047Y-40584380D01*
X148971428Y-40536761D01*
X149019047Y-40489142D01*
X149019047Y-40584380D01*
X150019047Y-40584380D02*
X149447619Y-40584380D01*
X149733333Y-40584380D02*
X149733333Y-39584380D01*
X149638095Y-39727238D01*
X149542857Y-39822476D01*
X149447619Y-39870095D01*
X150876190Y-39917714D02*
X150876190Y-40584380D01*
X150447619Y-39917714D02*
X150447619Y-40441523D01*
X150495238Y-40536761D01*
X150590476Y-40584380D01*
X150733333Y-40584380D01*
X150828571Y-40536761D01*
X150876190Y-40489142D01*
X151685714Y-40060571D02*
X151352380Y-40060571D01*
X151352380Y-40584380D02*
X151352380Y-39584380D01*
X151828571Y-39584380D01*
G04 #@! TO.C,C24*
X201597142Y-103084380D02*
X201692380Y-103084380D01*
X201787619Y-103132000D01*
X201835238Y-103179619D01*
X201882857Y-103274857D01*
X201930476Y-103465333D01*
X201930476Y-103703428D01*
X201882857Y-103893904D01*
X201835238Y-103989142D01*
X201787619Y-104036761D01*
X201692380Y-104084380D01*
X201597142Y-104084380D01*
X201501904Y-104036761D01*
X201454285Y-103989142D01*
X201406666Y-103893904D01*
X201359047Y-103703428D01*
X201359047Y-103465333D01*
X201406666Y-103274857D01*
X201454285Y-103179619D01*
X201501904Y-103132000D01*
X201597142Y-103084380D01*
X202359047Y-103989142D02*
X202406666Y-104036761D01*
X202359047Y-104084380D01*
X202311428Y-104036761D01*
X202359047Y-103989142D01*
X202359047Y-104084380D01*
X203359047Y-104084380D02*
X202787619Y-104084380D01*
X203073333Y-104084380D02*
X203073333Y-103084380D01*
X202978095Y-103227238D01*
X202882857Y-103322476D01*
X202787619Y-103370095D01*
X204216190Y-103417714D02*
X204216190Y-104084380D01*
X203787619Y-103417714D02*
X203787619Y-103941523D01*
X203835238Y-104036761D01*
X203930476Y-104084380D01*
X204073333Y-104084380D01*
X204168571Y-104036761D01*
X204216190Y-103989142D01*
X205025714Y-103560571D02*
X204692380Y-103560571D01*
X204692380Y-104084380D02*
X204692380Y-103084380D01*
X205168571Y-103084380D01*
G04 #@! TO.C,C23*
X211717142Y-103084380D02*
X211812380Y-103084380D01*
X211907619Y-103132000D01*
X211955238Y-103179619D01*
X212002857Y-103274857D01*
X212050476Y-103465333D01*
X212050476Y-103703428D01*
X212002857Y-103893904D01*
X211955238Y-103989142D01*
X211907619Y-104036761D01*
X211812380Y-104084380D01*
X211717142Y-104084380D01*
X211621904Y-104036761D01*
X211574285Y-103989142D01*
X211526666Y-103893904D01*
X211479047Y-103703428D01*
X211479047Y-103465333D01*
X211526666Y-103274857D01*
X211574285Y-103179619D01*
X211621904Y-103132000D01*
X211717142Y-103084380D01*
X212479047Y-103989142D02*
X212526666Y-104036761D01*
X212479047Y-104084380D01*
X212431428Y-104036761D01*
X212479047Y-103989142D01*
X212479047Y-104084380D01*
X213479047Y-104084380D02*
X212907619Y-104084380D01*
X213193333Y-104084380D02*
X213193333Y-103084380D01*
X213098095Y-103227238D01*
X213002857Y-103322476D01*
X212907619Y-103370095D01*
X214336190Y-103417714D02*
X214336190Y-104084380D01*
X213907619Y-103417714D02*
X213907619Y-103941523D01*
X213955238Y-104036761D01*
X214050476Y-104084380D01*
X214193333Y-104084380D01*
X214288571Y-104036761D01*
X214336190Y-103989142D01*
X215145714Y-103560571D02*
X214812380Y-103560571D01*
X214812380Y-104084380D02*
X214812380Y-103084380D01*
X215288571Y-103084380D01*
G04 #@! TO.C,C22*
X72057142Y-39584380D02*
X72152380Y-39584380D01*
X72247619Y-39632000D01*
X72295238Y-39679619D01*
X72342857Y-39774857D01*
X72390476Y-39965333D01*
X72390476Y-40203428D01*
X72342857Y-40393904D01*
X72295238Y-40489142D01*
X72247619Y-40536761D01*
X72152380Y-40584380D01*
X72057142Y-40584380D01*
X71961904Y-40536761D01*
X71914285Y-40489142D01*
X71866666Y-40393904D01*
X71819047Y-40203428D01*
X71819047Y-39965333D01*
X71866666Y-39774857D01*
X71914285Y-39679619D01*
X71961904Y-39632000D01*
X72057142Y-39584380D01*
X72819047Y-40489142D02*
X72866666Y-40536761D01*
X72819047Y-40584380D01*
X72771428Y-40536761D01*
X72819047Y-40489142D01*
X72819047Y-40584380D01*
X73819047Y-40584380D02*
X73247619Y-40584380D01*
X73533333Y-40584380D02*
X73533333Y-39584380D01*
X73438095Y-39727238D01*
X73342857Y-39822476D01*
X73247619Y-39870095D01*
X74676190Y-39917714D02*
X74676190Y-40584380D01*
X74247619Y-39917714D02*
X74247619Y-40441523D01*
X74295238Y-40536761D01*
X74390476Y-40584380D01*
X74533333Y-40584380D01*
X74628571Y-40536761D01*
X74676190Y-40489142D01*
X75485714Y-40060571D02*
X75152380Y-40060571D01*
X75152380Y-40584380D02*
X75152380Y-39584380D01*
X75628571Y-39584380D01*
G04 #@! TO.C,C21*
X168537142Y-39584380D02*
X168632380Y-39584380D01*
X168727619Y-39632000D01*
X168775238Y-39679619D01*
X168822857Y-39774857D01*
X168870476Y-39965333D01*
X168870476Y-40203428D01*
X168822857Y-40393904D01*
X168775238Y-40489142D01*
X168727619Y-40536761D01*
X168632380Y-40584380D01*
X168537142Y-40584380D01*
X168441904Y-40536761D01*
X168394285Y-40489142D01*
X168346666Y-40393904D01*
X168299047Y-40203428D01*
X168299047Y-39965333D01*
X168346666Y-39774857D01*
X168394285Y-39679619D01*
X168441904Y-39632000D01*
X168537142Y-39584380D01*
X169299047Y-40489142D02*
X169346666Y-40536761D01*
X169299047Y-40584380D01*
X169251428Y-40536761D01*
X169299047Y-40489142D01*
X169299047Y-40584380D01*
X170299047Y-40584380D02*
X169727619Y-40584380D01*
X170013333Y-40584380D02*
X170013333Y-39584380D01*
X169918095Y-39727238D01*
X169822857Y-39822476D01*
X169727619Y-39870095D01*
X171156190Y-39917714D02*
X171156190Y-40584380D01*
X170727619Y-39917714D02*
X170727619Y-40441523D01*
X170775238Y-40536761D01*
X170870476Y-40584380D01*
X171013333Y-40584380D01*
X171108571Y-40536761D01*
X171156190Y-40489142D01*
X171965714Y-40060571D02*
X171632380Y-40060571D01*
X171632380Y-40584380D02*
X171632380Y-39584380D01*
X172108571Y-39584380D01*
G04 #@! TO.C,C20*
X221877142Y-103084380D02*
X221972380Y-103084380D01*
X222067619Y-103132000D01*
X222115238Y-103179619D01*
X222162857Y-103274857D01*
X222210476Y-103465333D01*
X222210476Y-103703428D01*
X222162857Y-103893904D01*
X222115238Y-103989142D01*
X222067619Y-104036761D01*
X221972380Y-104084380D01*
X221877142Y-104084380D01*
X221781904Y-104036761D01*
X221734285Y-103989142D01*
X221686666Y-103893904D01*
X221639047Y-103703428D01*
X221639047Y-103465333D01*
X221686666Y-103274857D01*
X221734285Y-103179619D01*
X221781904Y-103132000D01*
X221877142Y-103084380D01*
X222639047Y-103989142D02*
X222686666Y-104036761D01*
X222639047Y-104084380D01*
X222591428Y-104036761D01*
X222639047Y-103989142D01*
X222639047Y-104084380D01*
X223639047Y-104084380D02*
X223067619Y-104084380D01*
X223353333Y-104084380D02*
X223353333Y-103084380D01*
X223258095Y-103227238D01*
X223162857Y-103322476D01*
X223067619Y-103370095D01*
X224496190Y-103417714D02*
X224496190Y-104084380D01*
X224067619Y-103417714D02*
X224067619Y-103941523D01*
X224115238Y-104036761D01*
X224210476Y-104084380D01*
X224353333Y-104084380D01*
X224448571Y-104036761D01*
X224496190Y-103989142D01*
X225305714Y-103560571D02*
X224972380Y-103560571D01*
X224972380Y-104084380D02*
X224972380Y-103084380D01*
X225448571Y-103084380D01*
G04 #@! TO.C,C19*
X185087142Y-40346380D02*
X185182380Y-40346380D01*
X185277619Y-40394000D01*
X185325238Y-40441619D01*
X185372857Y-40536857D01*
X185420476Y-40727333D01*
X185420476Y-40965428D01*
X185372857Y-41155904D01*
X185325238Y-41251142D01*
X185277619Y-41298761D01*
X185182380Y-41346380D01*
X185087142Y-41346380D01*
X184991904Y-41298761D01*
X184944285Y-41251142D01*
X184896666Y-41155904D01*
X184849047Y-40965428D01*
X184849047Y-40727333D01*
X184896666Y-40536857D01*
X184944285Y-40441619D01*
X184991904Y-40394000D01*
X185087142Y-40346380D01*
X185849047Y-41251142D02*
X185896666Y-41298761D01*
X185849047Y-41346380D01*
X185801428Y-41298761D01*
X185849047Y-41251142D01*
X185849047Y-41346380D01*
X186849047Y-41346380D02*
X186277619Y-41346380D01*
X186563333Y-41346380D02*
X186563333Y-40346380D01*
X186468095Y-40489238D01*
X186372857Y-40584476D01*
X186277619Y-40632095D01*
X187706190Y-40679714D02*
X187706190Y-41346380D01*
X187277619Y-40679714D02*
X187277619Y-41203523D01*
X187325238Y-41298761D01*
X187420476Y-41346380D01*
X187563333Y-41346380D01*
X187658571Y-41298761D01*
X187706190Y-41251142D01*
X188515714Y-40822571D02*
X188182380Y-40822571D01*
X188182380Y-41346380D02*
X188182380Y-40346380D01*
X188658571Y-40346380D01*
G04 #@! TO.C,C18*
X99957142Y-39584380D02*
X100052380Y-39584380D01*
X100147619Y-39632000D01*
X100195238Y-39679619D01*
X100242857Y-39774857D01*
X100290476Y-39965333D01*
X100290476Y-40203428D01*
X100242857Y-40393904D01*
X100195238Y-40489142D01*
X100147619Y-40536761D01*
X100052380Y-40584380D01*
X99957142Y-40584380D01*
X99861904Y-40536761D01*
X99814285Y-40489142D01*
X99766666Y-40393904D01*
X99719047Y-40203428D01*
X99719047Y-39965333D01*
X99766666Y-39774857D01*
X99814285Y-39679619D01*
X99861904Y-39632000D01*
X99957142Y-39584380D01*
X100719047Y-40489142D02*
X100766666Y-40536761D01*
X100719047Y-40584380D01*
X100671428Y-40536761D01*
X100719047Y-40489142D01*
X100719047Y-40584380D01*
X101719047Y-40584380D02*
X101147619Y-40584380D01*
X101433333Y-40584380D02*
X101433333Y-39584380D01*
X101338095Y-39727238D01*
X101242857Y-39822476D01*
X101147619Y-39870095D01*
X102576190Y-39917714D02*
X102576190Y-40584380D01*
X102147619Y-39917714D02*
X102147619Y-40441523D01*
X102195238Y-40536761D01*
X102290476Y-40584380D01*
X102433333Y-40584380D01*
X102528571Y-40536761D01*
X102576190Y-40489142D01*
X103385714Y-40060571D02*
X103052380Y-40060571D01*
X103052380Y-40584380D02*
X103052380Y-39584380D01*
X103528571Y-39584380D01*
G04 #@! TO.C,C17*
X82177142Y-39584380D02*
X82272380Y-39584380D01*
X82367619Y-39632000D01*
X82415238Y-39679619D01*
X82462857Y-39774857D01*
X82510476Y-39965333D01*
X82510476Y-40203428D01*
X82462857Y-40393904D01*
X82415238Y-40489142D01*
X82367619Y-40536761D01*
X82272380Y-40584380D01*
X82177142Y-40584380D01*
X82081904Y-40536761D01*
X82034285Y-40489142D01*
X81986666Y-40393904D01*
X81939047Y-40203428D01*
X81939047Y-39965333D01*
X81986666Y-39774857D01*
X82034285Y-39679619D01*
X82081904Y-39632000D01*
X82177142Y-39584380D01*
X82939047Y-40489142D02*
X82986666Y-40536761D01*
X82939047Y-40584380D01*
X82891428Y-40536761D01*
X82939047Y-40489142D01*
X82939047Y-40584380D01*
X83939047Y-40584380D02*
X83367619Y-40584380D01*
X83653333Y-40584380D02*
X83653333Y-39584380D01*
X83558095Y-39727238D01*
X83462857Y-39822476D01*
X83367619Y-39870095D01*
X84796190Y-39917714D02*
X84796190Y-40584380D01*
X84367619Y-39917714D02*
X84367619Y-40441523D01*
X84415238Y-40536761D01*
X84510476Y-40584380D01*
X84653333Y-40584380D01*
X84748571Y-40536761D01*
X84796190Y-40489142D01*
X85605714Y-40060571D02*
X85272380Y-40060571D01*
X85272380Y-40584380D02*
X85272380Y-39584380D01*
X85748571Y-39584380D01*
G04 #@! TO.C,C16*
X138057142Y-39584380D02*
X138152380Y-39584380D01*
X138247619Y-39632000D01*
X138295238Y-39679619D01*
X138342857Y-39774857D01*
X138390476Y-39965333D01*
X138390476Y-40203428D01*
X138342857Y-40393904D01*
X138295238Y-40489142D01*
X138247619Y-40536761D01*
X138152380Y-40584380D01*
X138057142Y-40584380D01*
X137961904Y-40536761D01*
X137914285Y-40489142D01*
X137866666Y-40393904D01*
X137819047Y-40203428D01*
X137819047Y-39965333D01*
X137866666Y-39774857D01*
X137914285Y-39679619D01*
X137961904Y-39632000D01*
X138057142Y-39584380D01*
X138819047Y-40489142D02*
X138866666Y-40536761D01*
X138819047Y-40584380D01*
X138771428Y-40536761D01*
X138819047Y-40489142D01*
X138819047Y-40584380D01*
X139819047Y-40584380D02*
X139247619Y-40584380D01*
X139533333Y-40584380D02*
X139533333Y-39584380D01*
X139438095Y-39727238D01*
X139342857Y-39822476D01*
X139247619Y-39870095D01*
X140676190Y-39917714D02*
X140676190Y-40584380D01*
X140247619Y-39917714D02*
X140247619Y-40441523D01*
X140295238Y-40536761D01*
X140390476Y-40584380D01*
X140533333Y-40584380D01*
X140628571Y-40536761D01*
X140676190Y-40489142D01*
X141485714Y-40060571D02*
X141152380Y-40060571D01*
X141152380Y-40584380D02*
X141152380Y-39584380D01*
X141628571Y-39584380D01*
G04 #@! TO.C,C15*
X145677142Y-92924380D02*
X145772380Y-92924380D01*
X145867619Y-92972000D01*
X145915238Y-93019619D01*
X145962857Y-93114857D01*
X146010476Y-93305333D01*
X146010476Y-93543428D01*
X145962857Y-93733904D01*
X145915238Y-93829142D01*
X145867619Y-93876761D01*
X145772380Y-93924380D01*
X145677142Y-93924380D01*
X145581904Y-93876761D01*
X145534285Y-93829142D01*
X145486666Y-93733904D01*
X145439047Y-93543428D01*
X145439047Y-93305333D01*
X145486666Y-93114857D01*
X145534285Y-93019619D01*
X145581904Y-92972000D01*
X145677142Y-92924380D01*
X146439047Y-93829142D02*
X146486666Y-93876761D01*
X146439047Y-93924380D01*
X146391428Y-93876761D01*
X146439047Y-93829142D01*
X146439047Y-93924380D01*
X147439047Y-93924380D02*
X146867619Y-93924380D01*
X147153333Y-93924380D02*
X147153333Y-92924380D01*
X147058095Y-93067238D01*
X146962857Y-93162476D01*
X146867619Y-93210095D01*
X148296190Y-93257714D02*
X148296190Y-93924380D01*
X147867619Y-93257714D02*
X147867619Y-93781523D01*
X147915238Y-93876761D01*
X148010476Y-93924380D01*
X148153333Y-93924380D01*
X148248571Y-93876761D01*
X148296190Y-93829142D01*
X149105714Y-93400571D02*
X148772380Y-93400571D01*
X148772380Y-93924380D02*
X148772380Y-92924380D01*
X149248571Y-92924380D01*
G04 #@! TO.C,C14*
X127897142Y-87844380D02*
X127992380Y-87844380D01*
X128087619Y-87892000D01*
X128135238Y-87939619D01*
X128182857Y-88034857D01*
X128230476Y-88225333D01*
X128230476Y-88463428D01*
X128182857Y-88653904D01*
X128135238Y-88749142D01*
X128087619Y-88796761D01*
X127992380Y-88844380D01*
X127897142Y-88844380D01*
X127801904Y-88796761D01*
X127754285Y-88749142D01*
X127706666Y-88653904D01*
X127659047Y-88463428D01*
X127659047Y-88225333D01*
X127706666Y-88034857D01*
X127754285Y-87939619D01*
X127801904Y-87892000D01*
X127897142Y-87844380D01*
X128659047Y-88749142D02*
X128706666Y-88796761D01*
X128659047Y-88844380D01*
X128611428Y-88796761D01*
X128659047Y-88749142D01*
X128659047Y-88844380D01*
X129659047Y-88844380D02*
X129087619Y-88844380D01*
X129373333Y-88844380D02*
X129373333Y-87844380D01*
X129278095Y-87987238D01*
X129182857Y-88082476D01*
X129087619Y-88130095D01*
X130516190Y-88177714D02*
X130516190Y-88844380D01*
X130087619Y-88177714D02*
X130087619Y-88701523D01*
X130135238Y-88796761D01*
X130230476Y-88844380D01*
X130373333Y-88844380D01*
X130468571Y-88796761D01*
X130516190Y-88749142D01*
X131325714Y-88320571D02*
X130992380Y-88320571D01*
X130992380Y-88844380D02*
X130992380Y-87844380D01*
X131468571Y-87844380D01*
G04 #@! TO.C,C13*
X110117142Y-87844380D02*
X110212380Y-87844380D01*
X110307619Y-87892000D01*
X110355238Y-87939619D01*
X110402857Y-88034857D01*
X110450476Y-88225333D01*
X110450476Y-88463428D01*
X110402857Y-88653904D01*
X110355238Y-88749142D01*
X110307619Y-88796761D01*
X110212380Y-88844380D01*
X110117142Y-88844380D01*
X110021904Y-88796761D01*
X109974285Y-88749142D01*
X109926666Y-88653904D01*
X109879047Y-88463428D01*
X109879047Y-88225333D01*
X109926666Y-88034857D01*
X109974285Y-87939619D01*
X110021904Y-87892000D01*
X110117142Y-87844380D01*
X110879047Y-88749142D02*
X110926666Y-88796761D01*
X110879047Y-88844380D01*
X110831428Y-88796761D01*
X110879047Y-88749142D01*
X110879047Y-88844380D01*
X111879047Y-88844380D02*
X111307619Y-88844380D01*
X111593333Y-88844380D02*
X111593333Y-87844380D01*
X111498095Y-87987238D01*
X111402857Y-88082476D01*
X111307619Y-88130095D01*
X112736190Y-88177714D02*
X112736190Y-88844380D01*
X112307619Y-88177714D02*
X112307619Y-88701523D01*
X112355238Y-88796761D01*
X112450476Y-88844380D01*
X112593333Y-88844380D01*
X112688571Y-88796761D01*
X112736190Y-88749142D01*
X113545714Y-88320571D02*
X113212380Y-88320571D01*
X113212380Y-88844380D02*
X113212380Y-87844380D01*
X113688571Y-87844380D01*
G04 #@! TO.C,C12*
X127897142Y-39584380D02*
X127992380Y-39584380D01*
X128087619Y-39632000D01*
X128135238Y-39679619D01*
X128182857Y-39774857D01*
X128230476Y-39965333D01*
X128230476Y-40203428D01*
X128182857Y-40393904D01*
X128135238Y-40489142D01*
X128087619Y-40536761D01*
X127992380Y-40584380D01*
X127897142Y-40584380D01*
X127801904Y-40536761D01*
X127754285Y-40489142D01*
X127706666Y-40393904D01*
X127659047Y-40203428D01*
X127659047Y-39965333D01*
X127706666Y-39774857D01*
X127754285Y-39679619D01*
X127801904Y-39632000D01*
X127897142Y-39584380D01*
X128659047Y-40489142D02*
X128706666Y-40536761D01*
X128659047Y-40584380D01*
X128611428Y-40536761D01*
X128659047Y-40489142D01*
X128659047Y-40584380D01*
X129659047Y-40584380D02*
X129087619Y-40584380D01*
X129373333Y-40584380D02*
X129373333Y-39584380D01*
X129278095Y-39727238D01*
X129182857Y-39822476D01*
X129087619Y-39870095D01*
X130516190Y-39917714D02*
X130516190Y-40584380D01*
X130087619Y-39917714D02*
X130087619Y-40441523D01*
X130135238Y-40536761D01*
X130230476Y-40584380D01*
X130373333Y-40584380D01*
X130468571Y-40536761D01*
X130516190Y-40489142D01*
X131325714Y-40060571D02*
X130992380Y-40060571D01*
X130992380Y-40584380D02*
X130992380Y-39584380D01*
X131468571Y-39584380D01*
G04 #@! TO.C,C11*
X191397142Y-103084380D02*
X191492380Y-103084380D01*
X191587619Y-103132000D01*
X191635238Y-103179619D01*
X191682857Y-103274857D01*
X191730476Y-103465333D01*
X191730476Y-103703428D01*
X191682857Y-103893904D01*
X191635238Y-103989142D01*
X191587619Y-104036761D01*
X191492380Y-104084380D01*
X191397142Y-104084380D01*
X191301904Y-104036761D01*
X191254285Y-103989142D01*
X191206666Y-103893904D01*
X191159047Y-103703428D01*
X191159047Y-103465333D01*
X191206666Y-103274857D01*
X191254285Y-103179619D01*
X191301904Y-103132000D01*
X191397142Y-103084380D01*
X192159047Y-103989142D02*
X192206666Y-104036761D01*
X192159047Y-104084380D01*
X192111428Y-104036761D01*
X192159047Y-103989142D01*
X192159047Y-104084380D01*
X193159047Y-104084380D02*
X192587619Y-104084380D01*
X192873333Y-104084380D02*
X192873333Y-103084380D01*
X192778095Y-103227238D01*
X192682857Y-103322476D01*
X192587619Y-103370095D01*
X194016190Y-103417714D02*
X194016190Y-104084380D01*
X193587619Y-103417714D02*
X193587619Y-103941523D01*
X193635238Y-104036761D01*
X193730476Y-104084380D01*
X193873333Y-104084380D01*
X193968571Y-104036761D01*
X194016190Y-103989142D01*
X194825714Y-103560571D02*
X194492380Y-103560571D01*
X194492380Y-104084380D02*
X194492380Y-103084380D01*
X194968571Y-103084380D01*
G04 #@! TO.C,C10*
X217892380Y-70222857D02*
X217892380Y-70127619D01*
X217940000Y-70032380D01*
X217987619Y-69984761D01*
X218082857Y-69937142D01*
X218273333Y-69889523D01*
X218511428Y-69889523D01*
X218701904Y-69937142D01*
X218797142Y-69984761D01*
X218844761Y-70032380D01*
X218892380Y-70127619D01*
X218892380Y-70222857D01*
X218844761Y-70318095D01*
X218797142Y-70365714D01*
X218701904Y-70413333D01*
X218511428Y-70460952D01*
X218273333Y-70460952D01*
X218082857Y-70413333D01*
X217987619Y-70365714D01*
X217940000Y-70318095D01*
X217892380Y-70222857D01*
X218797142Y-69460952D02*
X218844761Y-69413333D01*
X218892380Y-69460952D01*
X218844761Y-69508571D01*
X218797142Y-69460952D01*
X218892380Y-69460952D01*
X218892380Y-68460952D02*
X218892380Y-69032380D01*
X218892380Y-68746666D02*
X217892380Y-68746666D01*
X218035238Y-68841904D01*
X218130476Y-68937142D01*
X218178095Y-69032380D01*
X218225714Y-67603809D02*
X218892380Y-67603809D01*
X218225714Y-68032380D02*
X218749523Y-68032380D01*
X218844761Y-67984761D01*
X218892380Y-67889523D01*
X218892380Y-67746666D01*
X218844761Y-67651428D01*
X218797142Y-67603809D01*
X218368571Y-66794285D02*
X218368571Y-67127619D01*
X218892380Y-67127619D02*
X217892380Y-67127619D01*
X217892380Y-66651428D01*
G04 #@! TO.C,C9*
X117737142Y-39584380D02*
X117832380Y-39584380D01*
X117927619Y-39632000D01*
X117975238Y-39679619D01*
X118022857Y-39774857D01*
X118070476Y-39965333D01*
X118070476Y-40203428D01*
X118022857Y-40393904D01*
X117975238Y-40489142D01*
X117927619Y-40536761D01*
X117832380Y-40584380D01*
X117737142Y-40584380D01*
X117641904Y-40536761D01*
X117594285Y-40489142D01*
X117546666Y-40393904D01*
X117499047Y-40203428D01*
X117499047Y-39965333D01*
X117546666Y-39774857D01*
X117594285Y-39679619D01*
X117641904Y-39632000D01*
X117737142Y-39584380D01*
X118499047Y-40489142D02*
X118546666Y-40536761D01*
X118499047Y-40584380D01*
X118451428Y-40536761D01*
X118499047Y-40489142D01*
X118499047Y-40584380D01*
X119499047Y-40584380D02*
X118927619Y-40584380D01*
X119213333Y-40584380D02*
X119213333Y-39584380D01*
X119118095Y-39727238D01*
X119022857Y-39822476D01*
X118927619Y-39870095D01*
X120356190Y-39917714D02*
X120356190Y-40584380D01*
X119927619Y-39917714D02*
X119927619Y-40441523D01*
X119975238Y-40536761D01*
X120070476Y-40584380D01*
X120213333Y-40584380D01*
X120308571Y-40536761D01*
X120356190Y-40489142D01*
X121165714Y-40060571D02*
X120832380Y-40060571D01*
X120832380Y-40584380D02*
X120832380Y-39584380D01*
X121308571Y-39584380D01*
G04 #@! TO.C,C8*
X82217142Y-67524380D02*
X82312380Y-67524380D01*
X82407619Y-67572000D01*
X82455238Y-67619619D01*
X82502857Y-67714857D01*
X82550476Y-67905333D01*
X82550476Y-68143428D01*
X82502857Y-68333904D01*
X82455238Y-68429142D01*
X82407619Y-68476761D01*
X82312380Y-68524380D01*
X82217142Y-68524380D01*
X82121904Y-68476761D01*
X82074285Y-68429142D01*
X82026666Y-68333904D01*
X81979047Y-68143428D01*
X81979047Y-67905333D01*
X82026666Y-67714857D01*
X82074285Y-67619619D01*
X82121904Y-67572000D01*
X82217142Y-67524380D01*
X82979047Y-68429142D02*
X83026666Y-68476761D01*
X82979047Y-68524380D01*
X82931428Y-68476761D01*
X82979047Y-68429142D01*
X82979047Y-68524380D01*
X83979047Y-68524380D02*
X83407619Y-68524380D01*
X83693333Y-68524380D02*
X83693333Y-67524380D01*
X83598095Y-67667238D01*
X83502857Y-67762476D01*
X83407619Y-67810095D01*
X84836190Y-67857714D02*
X84836190Y-68524380D01*
X84407619Y-67857714D02*
X84407619Y-68381523D01*
X84455238Y-68476761D01*
X84550476Y-68524380D01*
X84693333Y-68524380D01*
X84788571Y-68476761D01*
X84836190Y-68429142D01*
X85645714Y-68000571D02*
X85312380Y-68000571D01*
X85312380Y-68524380D02*
X85312380Y-67524380D01*
X85788571Y-67524380D01*
G04 #@! TO.C,C7*
X221877142Y-39584380D02*
X221972380Y-39584380D01*
X222067619Y-39632000D01*
X222115238Y-39679619D01*
X222162857Y-39774857D01*
X222210476Y-39965333D01*
X222210476Y-40203428D01*
X222162857Y-40393904D01*
X222115238Y-40489142D01*
X222067619Y-40536761D01*
X221972380Y-40584380D01*
X221877142Y-40584380D01*
X221781904Y-40536761D01*
X221734285Y-40489142D01*
X221686666Y-40393904D01*
X221639047Y-40203428D01*
X221639047Y-39965333D01*
X221686666Y-39774857D01*
X221734285Y-39679619D01*
X221781904Y-39632000D01*
X221877142Y-39584380D01*
X222639047Y-40489142D02*
X222686666Y-40536761D01*
X222639047Y-40584380D01*
X222591428Y-40536761D01*
X222639047Y-40489142D01*
X222639047Y-40584380D01*
X223639047Y-40584380D02*
X223067619Y-40584380D01*
X223353333Y-40584380D02*
X223353333Y-39584380D01*
X223258095Y-39727238D01*
X223162857Y-39822476D01*
X223067619Y-39870095D01*
X224496190Y-39917714D02*
X224496190Y-40584380D01*
X224067619Y-39917714D02*
X224067619Y-40441523D01*
X224115238Y-40536761D01*
X224210476Y-40584380D01*
X224353333Y-40584380D01*
X224448571Y-40536761D01*
X224496190Y-40489142D01*
X225305714Y-40060571D02*
X224972380Y-40060571D01*
X224972380Y-40584380D02*
X224972380Y-39584380D01*
X225448571Y-39584380D01*
G04 #@! TO.C,C6*
X163457142Y-92924380D02*
X163552380Y-92924380D01*
X163647619Y-92972000D01*
X163695238Y-93019619D01*
X163742857Y-93114857D01*
X163790476Y-93305333D01*
X163790476Y-93543428D01*
X163742857Y-93733904D01*
X163695238Y-93829142D01*
X163647619Y-93876761D01*
X163552380Y-93924380D01*
X163457142Y-93924380D01*
X163361904Y-93876761D01*
X163314285Y-93829142D01*
X163266666Y-93733904D01*
X163219047Y-93543428D01*
X163219047Y-93305333D01*
X163266666Y-93114857D01*
X163314285Y-93019619D01*
X163361904Y-92972000D01*
X163457142Y-92924380D01*
X164219047Y-93829142D02*
X164266666Y-93876761D01*
X164219047Y-93924380D01*
X164171428Y-93876761D01*
X164219047Y-93829142D01*
X164219047Y-93924380D01*
X165219047Y-93924380D02*
X164647619Y-93924380D01*
X164933333Y-93924380D02*
X164933333Y-92924380D01*
X164838095Y-93067238D01*
X164742857Y-93162476D01*
X164647619Y-93210095D01*
X166076190Y-93257714D02*
X166076190Y-93924380D01*
X165647619Y-93257714D02*
X165647619Y-93781523D01*
X165695238Y-93876761D01*
X165790476Y-93924380D01*
X165933333Y-93924380D01*
X166028571Y-93876761D01*
X166076190Y-93829142D01*
X166885714Y-93400571D02*
X166552380Y-93400571D01*
X166552380Y-93924380D02*
X166552380Y-92924380D01*
X167028571Y-92924380D01*
G04 #@! TO.C,C5*
X181237142Y-98004380D02*
X181332380Y-98004380D01*
X181427619Y-98052000D01*
X181475238Y-98099619D01*
X181522857Y-98194857D01*
X181570476Y-98385333D01*
X181570476Y-98623428D01*
X181522857Y-98813904D01*
X181475238Y-98909142D01*
X181427619Y-98956761D01*
X181332380Y-99004380D01*
X181237142Y-99004380D01*
X181141904Y-98956761D01*
X181094285Y-98909142D01*
X181046666Y-98813904D01*
X180999047Y-98623428D01*
X180999047Y-98385333D01*
X181046666Y-98194857D01*
X181094285Y-98099619D01*
X181141904Y-98052000D01*
X181237142Y-98004380D01*
X181999047Y-98909142D02*
X182046666Y-98956761D01*
X181999047Y-99004380D01*
X181951428Y-98956761D01*
X181999047Y-98909142D01*
X181999047Y-99004380D01*
X182999047Y-99004380D02*
X182427619Y-99004380D01*
X182713333Y-99004380D02*
X182713333Y-98004380D01*
X182618095Y-98147238D01*
X182522857Y-98242476D01*
X182427619Y-98290095D01*
X183856190Y-98337714D02*
X183856190Y-99004380D01*
X183427619Y-98337714D02*
X183427619Y-98861523D01*
X183475238Y-98956761D01*
X183570476Y-99004380D01*
X183713333Y-99004380D01*
X183808571Y-98956761D01*
X183856190Y-98909142D01*
X184665714Y-98480571D02*
X184332380Y-98480571D01*
X184332380Y-99004380D02*
X184332380Y-98004380D01*
X184808571Y-98004380D01*
G04 #@! TO.C,C4*
X82217142Y-93432380D02*
X82312380Y-93432380D01*
X82407619Y-93480000D01*
X82455238Y-93527619D01*
X82502857Y-93622857D01*
X82550476Y-93813333D01*
X82550476Y-94051428D01*
X82502857Y-94241904D01*
X82455238Y-94337142D01*
X82407619Y-94384761D01*
X82312380Y-94432380D01*
X82217142Y-94432380D01*
X82121904Y-94384761D01*
X82074285Y-94337142D01*
X82026666Y-94241904D01*
X81979047Y-94051428D01*
X81979047Y-93813333D01*
X82026666Y-93622857D01*
X82074285Y-93527619D01*
X82121904Y-93480000D01*
X82217142Y-93432380D01*
X82979047Y-94337142D02*
X83026666Y-94384761D01*
X82979047Y-94432380D01*
X82931428Y-94384761D01*
X82979047Y-94337142D01*
X82979047Y-94432380D01*
X83979047Y-94432380D02*
X83407619Y-94432380D01*
X83693333Y-94432380D02*
X83693333Y-93432380D01*
X83598095Y-93575238D01*
X83502857Y-93670476D01*
X83407619Y-93718095D01*
X84836190Y-93765714D02*
X84836190Y-94432380D01*
X84407619Y-93765714D02*
X84407619Y-94289523D01*
X84455238Y-94384761D01*
X84550476Y-94432380D01*
X84693333Y-94432380D01*
X84788571Y-94384761D01*
X84836190Y-94337142D01*
X85645714Y-93908571D02*
X85312380Y-93908571D01*
X85312380Y-94432380D02*
X85312380Y-93432380D01*
X85788571Y-93432380D01*
G04 #@! TO.C,C3*
X92377142Y-64984380D02*
X92472380Y-64984380D01*
X92567619Y-65032000D01*
X92615238Y-65079619D01*
X92662857Y-65174857D01*
X92710476Y-65365333D01*
X92710476Y-65603428D01*
X92662857Y-65793904D01*
X92615238Y-65889142D01*
X92567619Y-65936761D01*
X92472380Y-65984380D01*
X92377142Y-65984380D01*
X92281904Y-65936761D01*
X92234285Y-65889142D01*
X92186666Y-65793904D01*
X92139047Y-65603428D01*
X92139047Y-65365333D01*
X92186666Y-65174857D01*
X92234285Y-65079619D01*
X92281904Y-65032000D01*
X92377142Y-64984380D01*
X93139047Y-65889142D02*
X93186666Y-65936761D01*
X93139047Y-65984380D01*
X93091428Y-65936761D01*
X93139047Y-65889142D01*
X93139047Y-65984380D01*
X94139047Y-65984380D02*
X93567619Y-65984380D01*
X93853333Y-65984380D02*
X93853333Y-64984380D01*
X93758095Y-65127238D01*
X93662857Y-65222476D01*
X93567619Y-65270095D01*
X94996190Y-65317714D02*
X94996190Y-65984380D01*
X94567619Y-65317714D02*
X94567619Y-65841523D01*
X94615238Y-65936761D01*
X94710476Y-65984380D01*
X94853333Y-65984380D01*
X94948571Y-65936761D01*
X94996190Y-65889142D01*
X95805714Y-65460571D02*
X95472380Y-65460571D01*
X95472380Y-65984380D02*
X95472380Y-64984380D01*
X95948571Y-64984380D01*
G04 #@! TO.C,C2*
X92337142Y-95464380D02*
X92432380Y-95464380D01*
X92527619Y-95512000D01*
X92575238Y-95559619D01*
X92622857Y-95654857D01*
X92670476Y-95845333D01*
X92670476Y-96083428D01*
X92622857Y-96273904D01*
X92575238Y-96369142D01*
X92527619Y-96416761D01*
X92432380Y-96464380D01*
X92337142Y-96464380D01*
X92241904Y-96416761D01*
X92194285Y-96369142D01*
X92146666Y-96273904D01*
X92099047Y-96083428D01*
X92099047Y-95845333D01*
X92146666Y-95654857D01*
X92194285Y-95559619D01*
X92241904Y-95512000D01*
X92337142Y-95464380D01*
X93099047Y-96369142D02*
X93146666Y-96416761D01*
X93099047Y-96464380D01*
X93051428Y-96416761D01*
X93099047Y-96369142D01*
X93099047Y-96464380D01*
X94099047Y-96464380D02*
X93527619Y-96464380D01*
X93813333Y-96464380D02*
X93813333Y-95464380D01*
X93718095Y-95607238D01*
X93622857Y-95702476D01*
X93527619Y-95750095D01*
X94956190Y-95797714D02*
X94956190Y-96464380D01*
X94527619Y-95797714D02*
X94527619Y-96321523D01*
X94575238Y-96416761D01*
X94670476Y-96464380D01*
X94813333Y-96464380D01*
X94908571Y-96416761D01*
X94956190Y-96369142D01*
X95765714Y-95940571D02*
X95432380Y-95940571D01*
X95432380Y-96464380D02*
X95432380Y-95464380D01*
X95908571Y-95464380D01*
G04 #@! TO.C,C1*
X72017142Y-80224380D02*
X72112380Y-80224380D01*
X72207619Y-80272000D01*
X72255238Y-80319619D01*
X72302857Y-80414857D01*
X72350476Y-80605333D01*
X72350476Y-80843428D01*
X72302857Y-81033904D01*
X72255238Y-81129142D01*
X72207619Y-81176761D01*
X72112380Y-81224380D01*
X72017142Y-81224380D01*
X71921904Y-81176761D01*
X71874285Y-81129142D01*
X71826666Y-81033904D01*
X71779047Y-80843428D01*
X71779047Y-80605333D01*
X71826666Y-80414857D01*
X71874285Y-80319619D01*
X71921904Y-80272000D01*
X72017142Y-80224380D01*
X72779047Y-81129142D02*
X72826666Y-81176761D01*
X72779047Y-81224380D01*
X72731428Y-81176761D01*
X72779047Y-81129142D01*
X72779047Y-81224380D01*
X73779047Y-81224380D02*
X73207619Y-81224380D01*
X73493333Y-81224380D02*
X73493333Y-80224380D01*
X73398095Y-80367238D01*
X73302857Y-80462476D01*
X73207619Y-80510095D01*
X74636190Y-80557714D02*
X74636190Y-81224380D01*
X74207619Y-80557714D02*
X74207619Y-81081523D01*
X74255238Y-81176761D01*
X74350476Y-81224380D01*
X74493333Y-81224380D01*
X74588571Y-81176761D01*
X74636190Y-81129142D01*
X75445714Y-80700571D02*
X75112380Y-80700571D01*
X75112380Y-81224380D02*
X75112380Y-80224380D01*
X75588571Y-80224380D01*
G04 #@! TO.C,Y2*
X67159142Y-47521523D02*
X67206761Y-47569142D01*
X67254380Y-47712000D01*
X67254380Y-47807238D01*
X67206761Y-47950095D01*
X67111523Y-48045333D01*
X67016285Y-48092952D01*
X66825809Y-48140571D01*
X66682952Y-48140571D01*
X66492476Y-48092952D01*
X66397238Y-48045333D01*
X66302000Y-47950095D01*
X66254380Y-47807238D01*
X66254380Y-47712000D01*
X66302000Y-47569142D01*
X66349619Y-47521523D01*
X67254380Y-46521523D02*
X66778190Y-46854857D01*
X67254380Y-47092952D02*
X66254380Y-47092952D01*
X66254380Y-46712000D01*
X66302000Y-46616761D01*
X66349619Y-46569142D01*
X66444857Y-46521523D01*
X66587714Y-46521523D01*
X66682952Y-46569142D01*
X66730571Y-46616761D01*
X66778190Y-46712000D01*
X66778190Y-47092952D01*
X66778190Y-45902476D02*
X67254380Y-45902476D01*
X66254380Y-46235809D02*
X66778190Y-45902476D01*
X66254380Y-45569142D01*
X67206761Y-45283428D02*
X67254380Y-45140571D01*
X67254380Y-44902476D01*
X67206761Y-44807238D01*
X67159142Y-44759619D01*
X67063904Y-44712000D01*
X66968666Y-44712000D01*
X66873428Y-44759619D01*
X66825809Y-44807238D01*
X66778190Y-44902476D01*
X66730571Y-45092952D01*
X66682952Y-45188190D01*
X66635333Y-45235809D01*
X66540095Y-45283428D01*
X66444857Y-45283428D01*
X66349619Y-45235809D01*
X66302000Y-45188190D01*
X66254380Y-45092952D01*
X66254380Y-44854857D01*
X66302000Y-44712000D01*
X66254380Y-44426285D02*
X66254380Y-43854857D01*
X67254380Y-44140571D02*
X66254380Y-44140571D01*
X66968666Y-43569142D02*
X66968666Y-43092952D01*
X67254380Y-43664380D02*
X66254380Y-43331047D01*
X67254380Y-42997714D01*
X67254380Y-42188190D02*
X67254380Y-42664380D01*
X66254380Y-42664380D01*
G04 #@! TO.C,Y1*
X95417380Y-47349523D02*
X95417380Y-47920952D01*
X95417380Y-47635238D02*
X94417380Y-47635238D01*
X94560238Y-47730476D01*
X94655476Y-47825714D01*
X94703095Y-47920952D01*
X94750714Y-46492380D02*
X95417380Y-46492380D01*
X94369761Y-46730476D02*
X95084047Y-46968571D01*
X95084047Y-46349523D01*
X95322142Y-45968571D02*
X95369761Y-45920952D01*
X95417380Y-45968571D01*
X95369761Y-46016190D01*
X95322142Y-45968571D01*
X95417380Y-45968571D01*
X94417380Y-45587619D02*
X94417380Y-44968571D01*
X94798333Y-45301904D01*
X94798333Y-45159047D01*
X94845952Y-45063809D01*
X94893571Y-45016190D01*
X94988809Y-44968571D01*
X95226904Y-44968571D01*
X95322142Y-45016190D01*
X95369761Y-45063809D01*
X95417380Y-45159047D01*
X95417380Y-45444761D01*
X95369761Y-45540000D01*
X95322142Y-45587619D01*
X95417380Y-44016190D02*
X95417380Y-44587619D01*
X95417380Y-44301904D02*
X94417380Y-44301904D01*
X94560238Y-44397142D01*
X94655476Y-44492380D01*
X94703095Y-44587619D01*
X94845952Y-43444761D02*
X94798333Y-43540000D01*
X94750714Y-43587619D01*
X94655476Y-43635238D01*
X94607857Y-43635238D01*
X94512619Y-43587619D01*
X94465000Y-43540000D01*
X94417380Y-43444761D01*
X94417380Y-43254285D01*
X94465000Y-43159047D01*
X94512619Y-43111428D01*
X94607857Y-43063809D01*
X94655476Y-43063809D01*
X94750714Y-43111428D01*
X94798333Y-43159047D01*
X94845952Y-43254285D01*
X94845952Y-43444761D01*
X94893571Y-43540000D01*
X94941190Y-43587619D01*
X95036428Y-43635238D01*
X95226904Y-43635238D01*
X95322142Y-43587619D01*
X95369761Y-43540000D01*
X95417380Y-43444761D01*
X95417380Y-43254285D01*
X95369761Y-43159047D01*
X95322142Y-43111428D01*
X95226904Y-43063809D01*
X95036428Y-43063809D01*
X94941190Y-43111428D01*
X94893571Y-43159047D01*
X94845952Y-43254285D01*
X95417380Y-42111428D02*
X95417380Y-42682857D01*
X95417380Y-42397142D02*
X94417380Y-42397142D01*
X94560238Y-42492380D01*
X94655476Y-42587619D01*
X94703095Y-42682857D01*
X94845952Y-41540000D02*
X94798333Y-41635238D01*
X94750714Y-41682857D01*
X94655476Y-41730476D01*
X94607857Y-41730476D01*
X94512619Y-41682857D01*
X94465000Y-41635238D01*
X94417380Y-41540000D01*
X94417380Y-41349523D01*
X94465000Y-41254285D01*
X94512619Y-41206666D01*
X94607857Y-41159047D01*
X94655476Y-41159047D01*
X94750714Y-41206666D01*
X94798333Y-41254285D01*
X94845952Y-41349523D01*
X94845952Y-41540000D01*
X94893571Y-41635238D01*
X94941190Y-41682857D01*
X95036428Y-41730476D01*
X95226904Y-41730476D01*
X95322142Y-41682857D01*
X95369761Y-41635238D01*
X95417380Y-41540000D01*
X95417380Y-41349523D01*
X95369761Y-41254285D01*
X95322142Y-41206666D01*
X95226904Y-41159047D01*
X95036428Y-41159047D01*
X94941190Y-41206666D01*
X94893571Y-41254285D01*
X94845952Y-41349523D01*
G04 #@! TO.C,U26*
X155630952Y-60202380D02*
X156297619Y-60202380D01*
X155869047Y-61202380D01*
X157107142Y-60535714D02*
X157107142Y-61202380D01*
X156869047Y-60154761D02*
X156630952Y-60869047D01*
X157250000Y-60869047D01*
X158107142Y-61202380D02*
X157630952Y-61202380D01*
X157630952Y-60202380D01*
X158392857Y-61154761D02*
X158535714Y-61202380D01*
X158773809Y-61202380D01*
X158869047Y-61154761D01*
X158916666Y-61107142D01*
X158964285Y-61011904D01*
X158964285Y-60916666D01*
X158916666Y-60821428D01*
X158869047Y-60773809D01*
X158773809Y-60726190D01*
X158583333Y-60678571D01*
X158488095Y-60630952D01*
X158440476Y-60583333D01*
X158392857Y-60488095D01*
X158392857Y-60392857D01*
X158440476Y-60297619D01*
X158488095Y-60250000D01*
X158583333Y-60202380D01*
X158821428Y-60202380D01*
X158964285Y-60250000D01*
X159916666Y-61202380D02*
X159345238Y-61202380D01*
X159630952Y-61202380D02*
X159630952Y-60202380D01*
X159535714Y-60345238D01*
X159440476Y-60440476D01*
X159345238Y-60488095D01*
X160297619Y-60297619D02*
X160345238Y-60250000D01*
X160440476Y-60202380D01*
X160678571Y-60202380D01*
X160773809Y-60250000D01*
X160821428Y-60297619D01*
X160869047Y-60392857D01*
X160869047Y-60488095D01*
X160821428Y-60630952D01*
X160250000Y-61202380D01*
X160869047Y-61202380D01*
X161773809Y-60202380D02*
X161297619Y-60202380D01*
X161250000Y-60678571D01*
X161297619Y-60630952D01*
X161392857Y-60583333D01*
X161630952Y-60583333D01*
X161726190Y-60630952D01*
X161773809Y-60678571D01*
X161821428Y-60773809D01*
X161821428Y-61011904D01*
X161773809Y-61107142D01*
X161726190Y-61154761D01*
X161630952Y-61202380D01*
X161392857Y-61202380D01*
X161297619Y-61154761D01*
X161250000Y-61107142D01*
G04 #@! TO.C,U25*
X145470952Y-60202380D02*
X146137619Y-60202380D01*
X145709047Y-61202380D01*
X146947142Y-60535714D02*
X146947142Y-61202380D01*
X146709047Y-60154761D02*
X146470952Y-60869047D01*
X147090000Y-60869047D01*
X147947142Y-61202380D02*
X147470952Y-61202380D01*
X147470952Y-60202380D01*
X148232857Y-61154761D02*
X148375714Y-61202380D01*
X148613809Y-61202380D01*
X148709047Y-61154761D01*
X148756666Y-61107142D01*
X148804285Y-61011904D01*
X148804285Y-60916666D01*
X148756666Y-60821428D01*
X148709047Y-60773809D01*
X148613809Y-60726190D01*
X148423333Y-60678571D01*
X148328095Y-60630952D01*
X148280476Y-60583333D01*
X148232857Y-60488095D01*
X148232857Y-60392857D01*
X148280476Y-60297619D01*
X148328095Y-60250000D01*
X148423333Y-60202380D01*
X148661428Y-60202380D01*
X148804285Y-60250000D01*
X149756666Y-61202380D02*
X149185238Y-61202380D01*
X149470952Y-61202380D02*
X149470952Y-60202380D01*
X149375714Y-60345238D01*
X149280476Y-60440476D01*
X149185238Y-60488095D01*
X150137619Y-60297619D02*
X150185238Y-60250000D01*
X150280476Y-60202380D01*
X150518571Y-60202380D01*
X150613809Y-60250000D01*
X150661428Y-60297619D01*
X150709047Y-60392857D01*
X150709047Y-60488095D01*
X150661428Y-60630952D01*
X150090000Y-61202380D01*
X150709047Y-61202380D01*
X151566190Y-60202380D02*
X151375714Y-60202380D01*
X151280476Y-60250000D01*
X151232857Y-60297619D01*
X151137619Y-60440476D01*
X151090000Y-60630952D01*
X151090000Y-61011904D01*
X151137619Y-61107142D01*
X151185238Y-61154761D01*
X151280476Y-61202380D01*
X151470952Y-61202380D01*
X151566190Y-61154761D01*
X151613809Y-61107142D01*
X151661428Y-61011904D01*
X151661428Y-60773809D01*
X151613809Y-60678571D01*
X151566190Y-60630952D01*
X151470952Y-60583333D01*
X151280476Y-60583333D01*
X151185238Y-60630952D01*
X151137619Y-60678571D01*
X151090000Y-60773809D01*
G04 #@! TO.C,U24*
X198810952Y-131322380D02*
X199477619Y-131322380D01*
X199049047Y-132322380D01*
X200287142Y-131655714D02*
X200287142Y-132322380D01*
X200049047Y-131274761D02*
X199810952Y-131989047D01*
X200430000Y-131989047D01*
X201287142Y-132322380D02*
X200810952Y-132322380D01*
X200810952Y-131322380D01*
X201572857Y-132274761D02*
X201715714Y-132322380D01*
X201953809Y-132322380D01*
X202049047Y-132274761D01*
X202096666Y-132227142D01*
X202144285Y-132131904D01*
X202144285Y-132036666D01*
X202096666Y-131941428D01*
X202049047Y-131893809D01*
X201953809Y-131846190D01*
X201763333Y-131798571D01*
X201668095Y-131750952D01*
X201620476Y-131703333D01*
X201572857Y-131608095D01*
X201572857Y-131512857D01*
X201620476Y-131417619D01*
X201668095Y-131370000D01*
X201763333Y-131322380D01*
X202001428Y-131322380D01*
X202144285Y-131370000D01*
X203049047Y-131322380D02*
X202572857Y-131322380D01*
X202525238Y-131798571D01*
X202572857Y-131750952D01*
X202668095Y-131703333D01*
X202906190Y-131703333D01*
X203001428Y-131750952D01*
X203049047Y-131798571D01*
X203096666Y-131893809D01*
X203096666Y-132131904D01*
X203049047Y-132227142D01*
X203001428Y-132274761D01*
X202906190Y-132322380D01*
X202668095Y-132322380D01*
X202572857Y-132274761D01*
X202525238Y-132227142D01*
X203430000Y-131322380D02*
X204096666Y-131322380D01*
X203668095Y-132322380D01*
X204382380Y-131322380D02*
X205001428Y-131322380D01*
X204668095Y-131703333D01*
X204810952Y-131703333D01*
X204906190Y-131750952D01*
X204953809Y-131798571D01*
X205001428Y-131893809D01*
X205001428Y-132131904D01*
X204953809Y-132227142D01*
X204906190Y-132274761D01*
X204810952Y-132322380D01*
X204525238Y-132322380D01*
X204430000Y-132274761D01*
X204382380Y-132227142D01*
G04 #@! TO.C,U23*
X208970952Y-131322380D02*
X209637619Y-131322380D01*
X209209047Y-132322380D01*
X210447142Y-131655714D02*
X210447142Y-132322380D01*
X210209047Y-131274761D02*
X209970952Y-131989047D01*
X210590000Y-131989047D01*
X211447142Y-132322380D02*
X210970952Y-132322380D01*
X210970952Y-131322380D01*
X211732857Y-132274761D02*
X211875714Y-132322380D01*
X212113809Y-132322380D01*
X212209047Y-132274761D01*
X212256666Y-132227142D01*
X212304285Y-132131904D01*
X212304285Y-132036666D01*
X212256666Y-131941428D01*
X212209047Y-131893809D01*
X212113809Y-131846190D01*
X211923333Y-131798571D01*
X211828095Y-131750952D01*
X211780476Y-131703333D01*
X211732857Y-131608095D01*
X211732857Y-131512857D01*
X211780476Y-131417619D01*
X211828095Y-131370000D01*
X211923333Y-131322380D01*
X212161428Y-131322380D01*
X212304285Y-131370000D01*
X212685238Y-131417619D02*
X212732857Y-131370000D01*
X212828095Y-131322380D01*
X213066190Y-131322380D01*
X213161428Y-131370000D01*
X213209047Y-131417619D01*
X213256666Y-131512857D01*
X213256666Y-131608095D01*
X213209047Y-131750952D01*
X212637619Y-132322380D01*
X213256666Y-132322380D01*
X214113809Y-131655714D02*
X214113809Y-132322380D01*
X213875714Y-131274761D02*
X213637619Y-131989047D01*
X214256666Y-131989047D01*
X215113809Y-131322380D02*
X214637619Y-131322380D01*
X214590000Y-131798571D01*
X214637619Y-131750952D01*
X214732857Y-131703333D01*
X214970952Y-131703333D01*
X215066190Y-131750952D01*
X215113809Y-131798571D01*
X215161428Y-131893809D01*
X215161428Y-132131904D01*
X215113809Y-132227142D01*
X215066190Y-132274761D01*
X214970952Y-132322380D01*
X214732857Y-132322380D01*
X214637619Y-132274761D01*
X214590000Y-132227142D01*
G04 #@! TO.C,U22*
X70866190Y-65710952D02*
X70770952Y-65663333D01*
X70723333Y-65615714D01*
X70675714Y-65520476D01*
X70675714Y-65472857D01*
X70723333Y-65377619D01*
X70770952Y-65330000D01*
X70866190Y-65282380D01*
X71056666Y-65282380D01*
X71151904Y-65330000D01*
X71199523Y-65377619D01*
X71247142Y-65472857D01*
X71247142Y-65520476D01*
X71199523Y-65615714D01*
X71151904Y-65663333D01*
X71056666Y-65710952D01*
X70866190Y-65710952D01*
X70770952Y-65758571D01*
X70723333Y-65806190D01*
X70675714Y-65901428D01*
X70675714Y-66091904D01*
X70723333Y-66187142D01*
X70770952Y-66234761D01*
X70866190Y-66282380D01*
X71056666Y-66282380D01*
X71151904Y-66234761D01*
X71199523Y-66187142D01*
X71247142Y-66091904D01*
X71247142Y-65901428D01*
X71199523Y-65806190D01*
X71151904Y-65758571D01*
X71056666Y-65710952D01*
X71628095Y-65377619D02*
X71675714Y-65330000D01*
X71770952Y-65282380D01*
X72009047Y-65282380D01*
X72104285Y-65330000D01*
X72151904Y-65377619D01*
X72199523Y-65472857D01*
X72199523Y-65568095D01*
X72151904Y-65710952D01*
X71580476Y-66282380D01*
X72199523Y-66282380D01*
X72770952Y-65710952D02*
X72675714Y-65663333D01*
X72628095Y-65615714D01*
X72580476Y-65520476D01*
X72580476Y-65472857D01*
X72628095Y-65377619D01*
X72675714Y-65330000D01*
X72770952Y-65282380D01*
X72961428Y-65282380D01*
X73056666Y-65330000D01*
X73104285Y-65377619D01*
X73151904Y-65472857D01*
X73151904Y-65520476D01*
X73104285Y-65615714D01*
X73056666Y-65663333D01*
X72961428Y-65710952D01*
X72770952Y-65710952D01*
X72675714Y-65758571D01*
X72628095Y-65806190D01*
X72580476Y-65901428D01*
X72580476Y-66091904D01*
X72628095Y-66187142D01*
X72675714Y-66234761D01*
X72770952Y-66282380D01*
X72961428Y-66282380D01*
X73056666Y-66234761D01*
X73104285Y-66187142D01*
X73151904Y-66091904D01*
X73151904Y-65901428D01*
X73104285Y-65806190D01*
X73056666Y-65758571D01*
X72961428Y-65710952D01*
X74009047Y-65615714D02*
X74009047Y-66282380D01*
X73770952Y-65234761D02*
X73532857Y-65949047D01*
X74151904Y-65949047D01*
G04 #@! TO.C,U21*
X166267142Y-60202380D02*
X166933809Y-60202380D01*
X166505238Y-61202380D01*
X167743333Y-60535714D02*
X167743333Y-61202380D01*
X167505238Y-60154761D02*
X167267142Y-60869047D01*
X167886190Y-60869047D01*
X168743333Y-61202380D02*
X168267142Y-61202380D01*
X168267142Y-60202380D01*
X169029047Y-61154761D02*
X169171904Y-61202380D01*
X169410000Y-61202380D01*
X169505238Y-61154761D01*
X169552857Y-61107142D01*
X169600476Y-61011904D01*
X169600476Y-60916666D01*
X169552857Y-60821428D01*
X169505238Y-60773809D01*
X169410000Y-60726190D01*
X169219523Y-60678571D01*
X169124285Y-60630952D01*
X169076666Y-60583333D01*
X169029047Y-60488095D01*
X169029047Y-60392857D01*
X169076666Y-60297619D01*
X169124285Y-60250000D01*
X169219523Y-60202380D01*
X169457619Y-60202380D01*
X169600476Y-60250000D01*
X170219523Y-60202380D02*
X170314761Y-60202380D01*
X170410000Y-60250000D01*
X170457619Y-60297619D01*
X170505238Y-60392857D01*
X170552857Y-60583333D01*
X170552857Y-60821428D01*
X170505238Y-61011904D01*
X170457619Y-61107142D01*
X170410000Y-61154761D01*
X170314761Y-61202380D01*
X170219523Y-61202380D01*
X170124285Y-61154761D01*
X170076666Y-61107142D01*
X170029047Y-61011904D01*
X169981428Y-60821428D01*
X169981428Y-60583333D01*
X170029047Y-60392857D01*
X170076666Y-60297619D01*
X170124285Y-60250000D01*
X170219523Y-60202380D01*
X171410000Y-60535714D02*
X171410000Y-61202380D01*
X171171904Y-60154761D02*
X170933809Y-60869047D01*
X171552857Y-60869047D01*
G04 #@! TO.C,U20*
X219607142Y-123702380D02*
X220273809Y-123702380D01*
X219845238Y-124702380D01*
X221083333Y-124035714D02*
X221083333Y-124702380D01*
X220845238Y-123654761D02*
X220607142Y-124369047D01*
X221226190Y-124369047D01*
X222083333Y-124702380D02*
X221607142Y-124702380D01*
X221607142Y-123702380D01*
X222369047Y-124654761D02*
X222511904Y-124702380D01*
X222750000Y-124702380D01*
X222845238Y-124654761D01*
X222892857Y-124607142D01*
X222940476Y-124511904D01*
X222940476Y-124416666D01*
X222892857Y-124321428D01*
X222845238Y-124273809D01*
X222750000Y-124226190D01*
X222559523Y-124178571D01*
X222464285Y-124130952D01*
X222416666Y-124083333D01*
X222369047Y-123988095D01*
X222369047Y-123892857D01*
X222416666Y-123797619D01*
X222464285Y-123750000D01*
X222559523Y-123702380D01*
X222797619Y-123702380D01*
X222940476Y-123750000D01*
X223559523Y-123702380D02*
X223654761Y-123702380D01*
X223750000Y-123750000D01*
X223797619Y-123797619D01*
X223845238Y-123892857D01*
X223892857Y-124083333D01*
X223892857Y-124321428D01*
X223845238Y-124511904D01*
X223797619Y-124607142D01*
X223750000Y-124654761D01*
X223654761Y-124702380D01*
X223559523Y-124702380D01*
X223464285Y-124654761D01*
X223416666Y-124607142D01*
X223369047Y-124511904D01*
X223321428Y-124321428D01*
X223321428Y-124083333D01*
X223369047Y-123892857D01*
X223416666Y-123797619D01*
X223464285Y-123750000D01*
X223559523Y-123702380D01*
X224226190Y-123702380D02*
X224892857Y-123702380D01*
X224464285Y-124702380D01*
G04 #@! TO.C,U19*
X183356666Y-66812380D02*
X183594761Y-67812380D01*
X183785238Y-67098095D01*
X183975714Y-67812380D01*
X184213809Y-66812380D01*
X184737619Y-67240952D02*
X184642380Y-67193333D01*
X184594761Y-67145714D01*
X184547142Y-67050476D01*
X184547142Y-67002857D01*
X184594761Y-66907619D01*
X184642380Y-66860000D01*
X184737619Y-66812380D01*
X184928095Y-66812380D01*
X185023333Y-66860000D01*
X185070952Y-66907619D01*
X185118571Y-67002857D01*
X185118571Y-67050476D01*
X185070952Y-67145714D01*
X185023333Y-67193333D01*
X184928095Y-67240952D01*
X184737619Y-67240952D01*
X184642380Y-67288571D01*
X184594761Y-67336190D01*
X184547142Y-67431428D01*
X184547142Y-67621904D01*
X184594761Y-67717142D01*
X184642380Y-67764761D01*
X184737619Y-67812380D01*
X184928095Y-67812380D01*
X185023333Y-67764761D01*
X185070952Y-67717142D01*
X185118571Y-67621904D01*
X185118571Y-67431428D01*
X185070952Y-67336190D01*
X185023333Y-67288571D01*
X184928095Y-67240952D01*
X185451904Y-66812380D02*
X186070952Y-66812380D01*
X185737619Y-67193333D01*
X185880476Y-67193333D01*
X185975714Y-67240952D01*
X186023333Y-67288571D01*
X186070952Y-67383809D01*
X186070952Y-67621904D01*
X186023333Y-67717142D01*
X185975714Y-67764761D01*
X185880476Y-67812380D01*
X185594761Y-67812380D01*
X185499523Y-67764761D01*
X185451904Y-67717142D01*
X187070952Y-67717142D02*
X187023333Y-67764761D01*
X186880476Y-67812380D01*
X186785238Y-67812380D01*
X186642380Y-67764761D01*
X186547142Y-67669523D01*
X186499523Y-67574285D01*
X186451904Y-67383809D01*
X186451904Y-67240952D01*
X186499523Y-67050476D01*
X186547142Y-66955238D01*
X186642380Y-66860000D01*
X186785238Y-66812380D01*
X186880476Y-66812380D01*
X187023333Y-66860000D01*
X187070952Y-66907619D01*
X187928095Y-67145714D02*
X187928095Y-67812380D01*
X187690000Y-66764761D02*
X187451904Y-67479047D01*
X188070952Y-67479047D01*
X188404285Y-66907619D02*
X188451904Y-66860000D01*
X188547142Y-66812380D01*
X188785238Y-66812380D01*
X188880476Y-66860000D01*
X188928095Y-66907619D01*
X188975714Y-67002857D01*
X188975714Y-67098095D01*
X188928095Y-67240952D01*
X188356666Y-67812380D01*
X188975714Y-67812380D01*
X189404285Y-67812380D02*
X189404285Y-66812380D01*
X189785238Y-66812380D01*
X189880476Y-66860000D01*
X189928095Y-66907619D01*
X189975714Y-67002857D01*
X189975714Y-67145714D01*
X189928095Y-67240952D01*
X189880476Y-67288571D01*
X189785238Y-67336190D01*
X189404285Y-67336190D01*
G04 #@! TO.C,U18*
X97687142Y-60202380D02*
X98353809Y-60202380D01*
X97925238Y-61202380D01*
X99163333Y-60535714D02*
X99163333Y-61202380D01*
X98925238Y-60154761D02*
X98687142Y-60869047D01*
X99306190Y-60869047D01*
X100163333Y-61202380D02*
X99687142Y-61202380D01*
X99687142Y-60202380D01*
X100449047Y-61154761D02*
X100591904Y-61202380D01*
X100830000Y-61202380D01*
X100925238Y-61154761D01*
X100972857Y-61107142D01*
X101020476Y-61011904D01*
X101020476Y-60916666D01*
X100972857Y-60821428D01*
X100925238Y-60773809D01*
X100830000Y-60726190D01*
X100639523Y-60678571D01*
X100544285Y-60630952D01*
X100496666Y-60583333D01*
X100449047Y-60488095D01*
X100449047Y-60392857D01*
X100496666Y-60297619D01*
X100544285Y-60250000D01*
X100639523Y-60202380D01*
X100877619Y-60202380D01*
X101020476Y-60250000D01*
X101353809Y-60202380D02*
X102020476Y-60202380D01*
X101591904Y-61202380D01*
X102830000Y-60535714D02*
X102830000Y-61202380D01*
X102591904Y-60154761D02*
X102353809Y-60869047D01*
X102972857Y-60869047D01*
G04 #@! TO.C,U17*
X81026190Y-65710952D02*
X80930952Y-65663333D01*
X80883333Y-65615714D01*
X80835714Y-65520476D01*
X80835714Y-65472857D01*
X80883333Y-65377619D01*
X80930952Y-65330000D01*
X81026190Y-65282380D01*
X81216666Y-65282380D01*
X81311904Y-65330000D01*
X81359523Y-65377619D01*
X81407142Y-65472857D01*
X81407142Y-65520476D01*
X81359523Y-65615714D01*
X81311904Y-65663333D01*
X81216666Y-65710952D01*
X81026190Y-65710952D01*
X80930952Y-65758571D01*
X80883333Y-65806190D01*
X80835714Y-65901428D01*
X80835714Y-66091904D01*
X80883333Y-66187142D01*
X80930952Y-66234761D01*
X81026190Y-66282380D01*
X81216666Y-66282380D01*
X81311904Y-66234761D01*
X81359523Y-66187142D01*
X81407142Y-66091904D01*
X81407142Y-65901428D01*
X81359523Y-65806190D01*
X81311904Y-65758571D01*
X81216666Y-65710952D01*
X81788095Y-65377619D02*
X81835714Y-65330000D01*
X81930952Y-65282380D01*
X82169047Y-65282380D01*
X82264285Y-65330000D01*
X82311904Y-65377619D01*
X82359523Y-65472857D01*
X82359523Y-65568095D01*
X82311904Y-65710952D01*
X81740476Y-66282380D01*
X82359523Y-66282380D01*
X82930952Y-65710952D02*
X82835714Y-65663333D01*
X82788095Y-65615714D01*
X82740476Y-65520476D01*
X82740476Y-65472857D01*
X82788095Y-65377619D01*
X82835714Y-65330000D01*
X82930952Y-65282380D01*
X83121428Y-65282380D01*
X83216666Y-65330000D01*
X83264285Y-65377619D01*
X83311904Y-65472857D01*
X83311904Y-65520476D01*
X83264285Y-65615714D01*
X83216666Y-65663333D01*
X83121428Y-65710952D01*
X82930952Y-65710952D01*
X82835714Y-65758571D01*
X82788095Y-65806190D01*
X82740476Y-65901428D01*
X82740476Y-66091904D01*
X82788095Y-66187142D01*
X82835714Y-66234761D01*
X82930952Y-66282380D01*
X83121428Y-66282380D01*
X83216666Y-66234761D01*
X83264285Y-66187142D01*
X83311904Y-66091904D01*
X83311904Y-65901428D01*
X83264285Y-65806190D01*
X83216666Y-65758571D01*
X83121428Y-65710952D01*
X84169047Y-65615714D02*
X84169047Y-66282380D01*
X83930952Y-65234761D02*
X83692857Y-65949047D01*
X84311904Y-65949047D01*
G04 #@! TO.C,U16*
X135310952Y-62742380D02*
X135977619Y-62742380D01*
X135549047Y-63742380D01*
X136787142Y-63075714D02*
X136787142Y-63742380D01*
X136549047Y-62694761D02*
X136310952Y-63409047D01*
X136930000Y-63409047D01*
X137787142Y-63742380D02*
X137310952Y-63742380D01*
X137310952Y-62742380D01*
X138072857Y-63694761D02*
X138215714Y-63742380D01*
X138453809Y-63742380D01*
X138549047Y-63694761D01*
X138596666Y-63647142D01*
X138644285Y-63551904D01*
X138644285Y-63456666D01*
X138596666Y-63361428D01*
X138549047Y-63313809D01*
X138453809Y-63266190D01*
X138263333Y-63218571D01*
X138168095Y-63170952D01*
X138120476Y-63123333D01*
X138072857Y-63028095D01*
X138072857Y-62932857D01*
X138120476Y-62837619D01*
X138168095Y-62790000D01*
X138263333Y-62742380D01*
X138501428Y-62742380D01*
X138644285Y-62790000D01*
X139596666Y-63742380D02*
X139025238Y-63742380D01*
X139310952Y-63742380D02*
X139310952Y-62742380D01*
X139215714Y-62885238D01*
X139120476Y-62980476D01*
X139025238Y-63028095D01*
X139930000Y-62742380D02*
X140549047Y-62742380D01*
X140215714Y-63123333D01*
X140358571Y-63123333D01*
X140453809Y-63170952D01*
X140501428Y-63218571D01*
X140549047Y-63313809D01*
X140549047Y-63551904D01*
X140501428Y-63647142D01*
X140453809Y-63694761D01*
X140358571Y-63742380D01*
X140072857Y-63742380D01*
X139977619Y-63694761D01*
X139930000Y-63647142D01*
X141120476Y-63170952D02*
X141025238Y-63123333D01*
X140977619Y-63075714D01*
X140930000Y-62980476D01*
X140930000Y-62932857D01*
X140977619Y-62837619D01*
X141025238Y-62790000D01*
X141120476Y-62742380D01*
X141310952Y-62742380D01*
X141406190Y-62790000D01*
X141453809Y-62837619D01*
X141501428Y-62932857D01*
X141501428Y-62980476D01*
X141453809Y-63075714D01*
X141406190Y-63123333D01*
X141310952Y-63170952D01*
X141120476Y-63170952D01*
X141025238Y-63218571D01*
X140977619Y-63266190D01*
X140930000Y-63361428D01*
X140930000Y-63551904D01*
X140977619Y-63647142D01*
X141025238Y-63694761D01*
X141120476Y-63742380D01*
X141310952Y-63742380D01*
X141406190Y-63694761D01*
X141453809Y-63647142D01*
X141501428Y-63551904D01*
X141501428Y-63361428D01*
X141453809Y-63266190D01*
X141406190Y-63218571D01*
X141310952Y-63170952D01*
G04 #@! TO.C,U15*
X139549523Y-131417619D02*
X139597142Y-131370000D01*
X139692380Y-131322380D01*
X139930476Y-131322380D01*
X140025714Y-131370000D01*
X140073333Y-131417619D01*
X140120952Y-131512857D01*
X140120952Y-131608095D01*
X140073333Y-131750952D01*
X139501904Y-132322380D01*
X140120952Y-132322380D01*
X140454285Y-131322380D02*
X141120952Y-131322380D01*
X140692380Y-132322380D01*
X142073333Y-132227142D02*
X142025714Y-132274761D01*
X141882857Y-132322380D01*
X141787619Y-132322380D01*
X141644761Y-132274761D01*
X141549523Y-132179523D01*
X141501904Y-132084285D01*
X141454285Y-131893809D01*
X141454285Y-131750952D01*
X141501904Y-131560476D01*
X141549523Y-131465238D01*
X141644761Y-131370000D01*
X141787619Y-131322380D01*
X141882857Y-131322380D01*
X142025714Y-131370000D01*
X142073333Y-131417619D01*
X142978095Y-131322380D02*
X142501904Y-131322380D01*
X142454285Y-131798571D01*
X142501904Y-131750952D01*
X142597142Y-131703333D01*
X142835238Y-131703333D01*
X142930476Y-131750952D01*
X142978095Y-131798571D01*
X143025714Y-131893809D01*
X143025714Y-132131904D01*
X142978095Y-132227142D01*
X142930476Y-132274761D01*
X142835238Y-132322380D01*
X142597142Y-132322380D01*
X142501904Y-132274761D01*
X142454285Y-132227142D01*
X143978095Y-132322380D02*
X143406666Y-132322380D01*
X143692380Y-132322380D02*
X143692380Y-131322380D01*
X143597142Y-131465238D01*
X143501904Y-131560476D01*
X143406666Y-131608095D01*
X144359047Y-131417619D02*
X144406666Y-131370000D01*
X144501904Y-131322380D01*
X144740000Y-131322380D01*
X144835238Y-131370000D01*
X144882857Y-131417619D01*
X144930476Y-131512857D01*
X144930476Y-131608095D01*
X144882857Y-131750952D01*
X144311428Y-132322380D01*
X144930476Y-132322380D01*
G04 #@! TO.C,U14*
X120864761Y-132036666D02*
X121340952Y-132036666D01*
X120769523Y-132322380D02*
X121102857Y-131322380D01*
X121436190Y-132322380D01*
X121721904Y-132274761D02*
X121864761Y-132322380D01*
X122102857Y-132322380D01*
X122198095Y-132274761D01*
X122245714Y-132227142D01*
X122293333Y-132131904D01*
X122293333Y-132036666D01*
X122245714Y-131941428D01*
X122198095Y-131893809D01*
X122102857Y-131846190D01*
X121912380Y-131798571D01*
X121817142Y-131750952D01*
X121769523Y-131703333D01*
X121721904Y-131608095D01*
X121721904Y-131512857D01*
X121769523Y-131417619D01*
X121817142Y-131370000D01*
X121912380Y-131322380D01*
X122150476Y-131322380D01*
X122293333Y-131370000D01*
X123150476Y-131322380D02*
X122960000Y-131322380D01*
X122864761Y-131370000D01*
X122817142Y-131417619D01*
X122721904Y-131560476D01*
X122674285Y-131750952D01*
X122674285Y-132131904D01*
X122721904Y-132227142D01*
X122769523Y-132274761D01*
X122864761Y-132322380D01*
X123055238Y-132322380D01*
X123150476Y-132274761D01*
X123198095Y-132227142D01*
X123245714Y-132131904D01*
X123245714Y-131893809D01*
X123198095Y-131798571D01*
X123150476Y-131750952D01*
X123055238Y-131703333D01*
X122864761Y-131703333D01*
X122769523Y-131750952D01*
X122721904Y-131798571D01*
X122674285Y-131893809D01*
X124245714Y-132227142D02*
X124198095Y-132274761D01*
X124055238Y-132322380D01*
X123960000Y-132322380D01*
X123817142Y-132274761D01*
X123721904Y-132179523D01*
X123674285Y-132084285D01*
X123626666Y-131893809D01*
X123626666Y-131750952D01*
X123674285Y-131560476D01*
X123721904Y-131465238D01*
X123817142Y-131370000D01*
X123960000Y-131322380D01*
X124055238Y-131322380D01*
X124198095Y-131370000D01*
X124245714Y-131417619D01*
X125198095Y-132322380D02*
X124626666Y-132322380D01*
X124912380Y-132322380D02*
X124912380Y-131322380D01*
X124817142Y-131465238D01*
X124721904Y-131560476D01*
X124626666Y-131608095D01*
X125817142Y-131322380D02*
X125912380Y-131322380D01*
X126007619Y-131370000D01*
X126055238Y-131417619D01*
X126102857Y-131512857D01*
X126150476Y-131703333D01*
X126150476Y-131941428D01*
X126102857Y-132131904D01*
X126055238Y-132227142D01*
X126007619Y-132274761D01*
X125912380Y-132322380D01*
X125817142Y-132322380D01*
X125721904Y-132274761D01*
X125674285Y-132227142D01*
X125626666Y-132131904D01*
X125579047Y-131941428D01*
X125579047Y-131703333D01*
X125626666Y-131512857D01*
X125674285Y-131417619D01*
X125721904Y-131370000D01*
X125817142Y-131322380D01*
X126769523Y-131322380D02*
X126864761Y-131322380D01*
X126960000Y-131370000D01*
X127007619Y-131417619D01*
X127055238Y-131512857D01*
X127102857Y-131703333D01*
X127102857Y-131941428D01*
X127055238Y-132131904D01*
X127007619Y-132227142D01*
X126960000Y-132274761D01*
X126864761Y-132322380D01*
X126769523Y-132322380D01*
X126674285Y-132274761D01*
X126626666Y-132227142D01*
X126579047Y-132131904D01*
X126531428Y-131941428D01*
X126531428Y-131703333D01*
X126579047Y-131512857D01*
X126626666Y-131417619D01*
X126674285Y-131370000D01*
X126769523Y-131322380D01*
X127674285Y-131750952D02*
X127579047Y-131703333D01*
X127531428Y-131655714D01*
X127483809Y-131560476D01*
X127483809Y-131512857D01*
X127531428Y-131417619D01*
X127579047Y-131370000D01*
X127674285Y-131322380D01*
X127864761Y-131322380D01*
X127960000Y-131370000D01*
X128007619Y-131417619D01*
X128055238Y-131512857D01*
X128055238Y-131560476D01*
X128007619Y-131655714D01*
X127960000Y-131703333D01*
X127864761Y-131750952D01*
X127674285Y-131750952D01*
X127579047Y-131798571D01*
X127531428Y-131846190D01*
X127483809Y-131941428D01*
X127483809Y-132131904D01*
X127531428Y-132227142D01*
X127579047Y-132274761D01*
X127674285Y-132322380D01*
X127864761Y-132322380D01*
X127960000Y-132274761D01*
X128007619Y-132227142D01*
X128055238Y-132131904D01*
X128055238Y-131941428D01*
X128007619Y-131846190D01*
X127960000Y-131798571D01*
X127864761Y-131750952D01*
G04 #@! TO.C,U13*
X103084761Y-132036666D02*
X103560952Y-132036666D01*
X102989523Y-132322380D02*
X103322857Y-131322380D01*
X103656190Y-132322380D01*
X103941904Y-132274761D02*
X104084761Y-132322380D01*
X104322857Y-132322380D01*
X104418095Y-132274761D01*
X104465714Y-132227142D01*
X104513333Y-132131904D01*
X104513333Y-132036666D01*
X104465714Y-131941428D01*
X104418095Y-131893809D01*
X104322857Y-131846190D01*
X104132380Y-131798571D01*
X104037142Y-131750952D01*
X103989523Y-131703333D01*
X103941904Y-131608095D01*
X103941904Y-131512857D01*
X103989523Y-131417619D01*
X104037142Y-131370000D01*
X104132380Y-131322380D01*
X104370476Y-131322380D01*
X104513333Y-131370000D01*
X105370476Y-131322380D02*
X105180000Y-131322380D01*
X105084761Y-131370000D01*
X105037142Y-131417619D01*
X104941904Y-131560476D01*
X104894285Y-131750952D01*
X104894285Y-132131904D01*
X104941904Y-132227142D01*
X104989523Y-132274761D01*
X105084761Y-132322380D01*
X105275238Y-132322380D01*
X105370476Y-132274761D01*
X105418095Y-132227142D01*
X105465714Y-132131904D01*
X105465714Y-131893809D01*
X105418095Y-131798571D01*
X105370476Y-131750952D01*
X105275238Y-131703333D01*
X105084761Y-131703333D01*
X104989523Y-131750952D01*
X104941904Y-131798571D01*
X104894285Y-131893809D01*
X106465714Y-132227142D02*
X106418095Y-132274761D01*
X106275238Y-132322380D01*
X106180000Y-132322380D01*
X106037142Y-132274761D01*
X105941904Y-132179523D01*
X105894285Y-132084285D01*
X105846666Y-131893809D01*
X105846666Y-131750952D01*
X105894285Y-131560476D01*
X105941904Y-131465238D01*
X106037142Y-131370000D01*
X106180000Y-131322380D01*
X106275238Y-131322380D01*
X106418095Y-131370000D01*
X106465714Y-131417619D01*
X107322857Y-131655714D02*
X107322857Y-132322380D01*
X107084761Y-131274761D02*
X106846666Y-131989047D01*
X107465714Y-131989047D01*
X108037142Y-131322380D02*
X108132380Y-131322380D01*
X108227619Y-131370000D01*
X108275238Y-131417619D01*
X108322857Y-131512857D01*
X108370476Y-131703333D01*
X108370476Y-131941428D01*
X108322857Y-132131904D01*
X108275238Y-132227142D01*
X108227619Y-132274761D01*
X108132380Y-132322380D01*
X108037142Y-132322380D01*
X107941904Y-132274761D01*
X107894285Y-132227142D01*
X107846666Y-132131904D01*
X107799047Y-131941428D01*
X107799047Y-131703333D01*
X107846666Y-131512857D01*
X107894285Y-131417619D01*
X107941904Y-131370000D01*
X108037142Y-131322380D01*
X108989523Y-131322380D02*
X109084761Y-131322380D01*
X109180000Y-131370000D01*
X109227619Y-131417619D01*
X109275238Y-131512857D01*
X109322857Y-131703333D01*
X109322857Y-131941428D01*
X109275238Y-132131904D01*
X109227619Y-132227142D01*
X109180000Y-132274761D01*
X109084761Y-132322380D01*
X108989523Y-132322380D01*
X108894285Y-132274761D01*
X108846666Y-132227142D01*
X108799047Y-132131904D01*
X108751428Y-131941428D01*
X108751428Y-131703333D01*
X108799047Y-131512857D01*
X108846666Y-131417619D01*
X108894285Y-131370000D01*
X108989523Y-131322380D01*
X109894285Y-131750952D02*
X109799047Y-131703333D01*
X109751428Y-131655714D01*
X109703809Y-131560476D01*
X109703809Y-131512857D01*
X109751428Y-131417619D01*
X109799047Y-131370000D01*
X109894285Y-131322380D01*
X110084761Y-131322380D01*
X110180000Y-131370000D01*
X110227619Y-131417619D01*
X110275238Y-131512857D01*
X110275238Y-131560476D01*
X110227619Y-131655714D01*
X110180000Y-131703333D01*
X110084761Y-131750952D01*
X109894285Y-131750952D01*
X109799047Y-131798571D01*
X109751428Y-131846190D01*
X109703809Y-131941428D01*
X109703809Y-132131904D01*
X109751428Y-132227142D01*
X109799047Y-132274761D01*
X109894285Y-132322380D01*
X110084761Y-132322380D01*
X110180000Y-132274761D01*
X110227619Y-132227142D01*
X110275238Y-132131904D01*
X110275238Y-131941428D01*
X110227619Y-131846190D01*
X110180000Y-131798571D01*
X110084761Y-131750952D01*
G04 #@! TO.C,U12*
X125150952Y-62742380D02*
X125817619Y-62742380D01*
X125389047Y-63742380D01*
X126627142Y-63075714D02*
X126627142Y-63742380D01*
X126389047Y-62694761D02*
X126150952Y-63409047D01*
X126770000Y-63409047D01*
X127627142Y-63742380D02*
X127150952Y-63742380D01*
X127150952Y-62742380D01*
X127912857Y-63694761D02*
X128055714Y-63742380D01*
X128293809Y-63742380D01*
X128389047Y-63694761D01*
X128436666Y-63647142D01*
X128484285Y-63551904D01*
X128484285Y-63456666D01*
X128436666Y-63361428D01*
X128389047Y-63313809D01*
X128293809Y-63266190D01*
X128103333Y-63218571D01*
X128008095Y-63170952D01*
X127960476Y-63123333D01*
X127912857Y-63028095D01*
X127912857Y-62932857D01*
X127960476Y-62837619D01*
X128008095Y-62790000D01*
X128103333Y-62742380D01*
X128341428Y-62742380D01*
X128484285Y-62790000D01*
X129436666Y-63742380D02*
X128865238Y-63742380D01*
X129150952Y-63742380D02*
X129150952Y-62742380D01*
X129055714Y-62885238D01*
X128960476Y-62980476D01*
X128865238Y-63028095D01*
X129770000Y-62742380D02*
X130389047Y-62742380D01*
X130055714Y-63123333D01*
X130198571Y-63123333D01*
X130293809Y-63170952D01*
X130341428Y-63218571D01*
X130389047Y-63313809D01*
X130389047Y-63551904D01*
X130341428Y-63647142D01*
X130293809Y-63694761D01*
X130198571Y-63742380D01*
X129912857Y-63742380D01*
X129817619Y-63694761D01*
X129770000Y-63647142D01*
X130865238Y-63742380D02*
X131055714Y-63742380D01*
X131150952Y-63694761D01*
X131198571Y-63647142D01*
X131293809Y-63504285D01*
X131341428Y-63313809D01*
X131341428Y-62932857D01*
X131293809Y-62837619D01*
X131246190Y-62790000D01*
X131150952Y-62742380D01*
X130960476Y-62742380D01*
X130865238Y-62790000D01*
X130817619Y-62837619D01*
X130770000Y-62932857D01*
X130770000Y-63170952D01*
X130817619Y-63266190D01*
X130865238Y-63313809D01*
X130960476Y-63361428D01*
X131150952Y-63361428D01*
X131246190Y-63313809D01*
X131293809Y-63266190D01*
X131341428Y-63170952D01*
G04 #@! TO.C,U11*
X188650952Y-131322380D02*
X189317619Y-131322380D01*
X188889047Y-132322380D01*
X190127142Y-131655714D02*
X190127142Y-132322380D01*
X189889047Y-131274761D02*
X189650952Y-131989047D01*
X190270000Y-131989047D01*
X191127142Y-132322380D02*
X190650952Y-132322380D01*
X190650952Y-131322380D01*
X191412857Y-132274761D02*
X191555714Y-132322380D01*
X191793809Y-132322380D01*
X191889047Y-132274761D01*
X191936666Y-132227142D01*
X191984285Y-132131904D01*
X191984285Y-132036666D01*
X191936666Y-131941428D01*
X191889047Y-131893809D01*
X191793809Y-131846190D01*
X191603333Y-131798571D01*
X191508095Y-131750952D01*
X191460476Y-131703333D01*
X191412857Y-131608095D01*
X191412857Y-131512857D01*
X191460476Y-131417619D01*
X191508095Y-131370000D01*
X191603333Y-131322380D01*
X191841428Y-131322380D01*
X191984285Y-131370000D01*
X192889047Y-131322380D02*
X192412857Y-131322380D01*
X192365238Y-131798571D01*
X192412857Y-131750952D01*
X192508095Y-131703333D01*
X192746190Y-131703333D01*
X192841428Y-131750952D01*
X192889047Y-131798571D01*
X192936666Y-131893809D01*
X192936666Y-132131904D01*
X192889047Y-132227142D01*
X192841428Y-132274761D01*
X192746190Y-132322380D01*
X192508095Y-132322380D01*
X192412857Y-132274761D01*
X192365238Y-132227142D01*
X193270000Y-131322380D02*
X193936666Y-131322380D01*
X193508095Y-132322380D01*
X194222380Y-131322380D02*
X194841428Y-131322380D01*
X194508095Y-131703333D01*
X194650952Y-131703333D01*
X194746190Y-131750952D01*
X194793809Y-131798571D01*
X194841428Y-131893809D01*
X194841428Y-132131904D01*
X194793809Y-132227142D01*
X194746190Y-132274761D01*
X194650952Y-132322380D01*
X194365238Y-132322380D01*
X194270000Y-132274761D01*
X194222380Y-132227142D01*
G04 #@! TO.C,U10*
X206756190Y-93650952D02*
X206660952Y-93603333D01*
X206613333Y-93555714D01*
X206565714Y-93460476D01*
X206565714Y-93412857D01*
X206613333Y-93317619D01*
X206660952Y-93270000D01*
X206756190Y-93222380D01*
X206946666Y-93222380D01*
X207041904Y-93270000D01*
X207089523Y-93317619D01*
X207137142Y-93412857D01*
X207137142Y-93460476D01*
X207089523Y-93555714D01*
X207041904Y-93603333D01*
X206946666Y-93650952D01*
X206756190Y-93650952D01*
X206660952Y-93698571D01*
X206613333Y-93746190D01*
X206565714Y-93841428D01*
X206565714Y-94031904D01*
X206613333Y-94127142D01*
X206660952Y-94174761D01*
X206756190Y-94222380D01*
X206946666Y-94222380D01*
X207041904Y-94174761D01*
X207089523Y-94127142D01*
X207137142Y-94031904D01*
X207137142Y-93841428D01*
X207089523Y-93746190D01*
X207041904Y-93698571D01*
X206946666Y-93650952D01*
X207518095Y-93317619D02*
X207565714Y-93270000D01*
X207660952Y-93222380D01*
X207899047Y-93222380D01*
X207994285Y-93270000D01*
X208041904Y-93317619D01*
X208089523Y-93412857D01*
X208089523Y-93508095D01*
X208041904Y-93650952D01*
X207470476Y-94222380D01*
X208089523Y-94222380D01*
X208422857Y-93222380D02*
X209041904Y-93222380D01*
X208708571Y-93603333D01*
X208851428Y-93603333D01*
X208946666Y-93650952D01*
X208994285Y-93698571D01*
X209041904Y-93793809D01*
X209041904Y-94031904D01*
X208994285Y-94127142D01*
X208946666Y-94174761D01*
X208851428Y-94222380D01*
X208565714Y-94222380D01*
X208470476Y-94174761D01*
X208422857Y-94127142D01*
X209375238Y-93222380D02*
X210041904Y-93222380D01*
X209613333Y-94222380D01*
G04 #@! TO.C,U9*
X111609523Y-78077619D02*
X111657142Y-78030000D01*
X111752380Y-77982380D01*
X111990476Y-77982380D01*
X112085714Y-78030000D01*
X112133333Y-78077619D01*
X112180952Y-78172857D01*
X112180952Y-78268095D01*
X112133333Y-78410952D01*
X111561904Y-78982380D01*
X112180952Y-78982380D01*
X112514285Y-77982380D02*
X113180952Y-77982380D01*
X112752380Y-78982380D01*
X114133333Y-78887142D02*
X114085714Y-78934761D01*
X113942857Y-78982380D01*
X113847619Y-78982380D01*
X113704761Y-78934761D01*
X113609523Y-78839523D01*
X113561904Y-78744285D01*
X113514285Y-78553809D01*
X113514285Y-78410952D01*
X113561904Y-78220476D01*
X113609523Y-78125238D01*
X113704761Y-78030000D01*
X113847619Y-77982380D01*
X113942857Y-77982380D01*
X114085714Y-78030000D01*
X114133333Y-78077619D01*
X115038095Y-77982380D02*
X114561904Y-77982380D01*
X114514285Y-78458571D01*
X114561904Y-78410952D01*
X114657142Y-78363333D01*
X114895238Y-78363333D01*
X114990476Y-78410952D01*
X115038095Y-78458571D01*
X115085714Y-78553809D01*
X115085714Y-78791904D01*
X115038095Y-78887142D01*
X114990476Y-78934761D01*
X114895238Y-78982380D01*
X114657142Y-78982380D01*
X114561904Y-78934761D01*
X114514285Y-78887142D01*
X116038095Y-78982380D02*
X115466666Y-78982380D01*
X115752380Y-78982380D02*
X115752380Y-77982380D01*
X115657142Y-78125238D01*
X115561904Y-78220476D01*
X115466666Y-78268095D01*
X116419047Y-78077619D02*
X116466666Y-78030000D01*
X116561904Y-77982380D01*
X116800000Y-77982380D01*
X116895238Y-78030000D01*
X116942857Y-78077619D01*
X116990476Y-78172857D01*
X116990476Y-78268095D01*
X116942857Y-78410952D01*
X116371428Y-78982380D01*
X116990476Y-78982380D01*
G04 #@! TO.C,U8*
X79430952Y-90682380D02*
X80097619Y-90682380D01*
X79669047Y-91682380D01*
X80907142Y-91015714D02*
X80907142Y-91682380D01*
X80669047Y-90634761D02*
X80430952Y-91349047D01*
X81050000Y-91349047D01*
X81907142Y-91682380D02*
X81430952Y-91682380D01*
X81430952Y-90682380D01*
X82192857Y-91634761D02*
X82335714Y-91682380D01*
X82573809Y-91682380D01*
X82669047Y-91634761D01*
X82716666Y-91587142D01*
X82764285Y-91491904D01*
X82764285Y-91396666D01*
X82716666Y-91301428D01*
X82669047Y-91253809D01*
X82573809Y-91206190D01*
X82383333Y-91158571D01*
X82288095Y-91110952D01*
X82240476Y-91063333D01*
X82192857Y-90968095D01*
X82192857Y-90872857D01*
X82240476Y-90777619D01*
X82288095Y-90730000D01*
X82383333Y-90682380D01*
X82621428Y-90682380D01*
X82764285Y-90730000D01*
X83145238Y-90777619D02*
X83192857Y-90730000D01*
X83288095Y-90682380D01*
X83526190Y-90682380D01*
X83621428Y-90730000D01*
X83669047Y-90777619D01*
X83716666Y-90872857D01*
X83716666Y-90968095D01*
X83669047Y-91110952D01*
X83097619Y-91682380D01*
X83716666Y-91682380D01*
X84621428Y-90682380D02*
X84145238Y-90682380D01*
X84097619Y-91158571D01*
X84145238Y-91110952D01*
X84240476Y-91063333D01*
X84478571Y-91063333D01*
X84573809Y-91110952D01*
X84621428Y-91158571D01*
X84669047Y-91253809D01*
X84669047Y-91491904D01*
X84621428Y-91587142D01*
X84573809Y-91634761D01*
X84478571Y-91682380D01*
X84240476Y-91682380D01*
X84145238Y-91634761D01*
X84097619Y-91587142D01*
X85002380Y-90682380D02*
X85669047Y-90682380D01*
X85240476Y-91682380D01*
G04 #@! TO.C,U7*
X219130952Y-62742380D02*
X219797619Y-62742380D01*
X219369047Y-63742380D01*
X220607142Y-63075714D02*
X220607142Y-63742380D01*
X220369047Y-62694761D02*
X220130952Y-63409047D01*
X220750000Y-63409047D01*
X221607142Y-63742380D02*
X221130952Y-63742380D01*
X221130952Y-62742380D01*
X221892857Y-63694761D02*
X222035714Y-63742380D01*
X222273809Y-63742380D01*
X222369047Y-63694761D01*
X222416666Y-63647142D01*
X222464285Y-63551904D01*
X222464285Y-63456666D01*
X222416666Y-63361428D01*
X222369047Y-63313809D01*
X222273809Y-63266190D01*
X222083333Y-63218571D01*
X221988095Y-63170952D01*
X221940476Y-63123333D01*
X221892857Y-63028095D01*
X221892857Y-62932857D01*
X221940476Y-62837619D01*
X221988095Y-62790000D01*
X222083333Y-62742380D01*
X222321428Y-62742380D01*
X222464285Y-62790000D01*
X223321428Y-62742380D02*
X223130952Y-62742380D01*
X223035714Y-62790000D01*
X222988095Y-62837619D01*
X222892857Y-62980476D01*
X222845238Y-63170952D01*
X222845238Y-63551904D01*
X222892857Y-63647142D01*
X222940476Y-63694761D01*
X223035714Y-63742380D01*
X223226190Y-63742380D01*
X223321428Y-63694761D01*
X223369047Y-63647142D01*
X223416666Y-63551904D01*
X223416666Y-63313809D01*
X223369047Y-63218571D01*
X223321428Y-63170952D01*
X223226190Y-63123333D01*
X223035714Y-63123333D01*
X222940476Y-63170952D01*
X222892857Y-63218571D01*
X222845238Y-63313809D01*
X223750000Y-62742380D02*
X224416666Y-62742380D01*
X223988095Y-63742380D01*
X224988095Y-62742380D02*
X225083333Y-62742380D01*
X225178571Y-62790000D01*
X225226190Y-62837619D01*
X225273809Y-62932857D01*
X225321428Y-63123333D01*
X225321428Y-63361428D01*
X225273809Y-63551904D01*
X225226190Y-63647142D01*
X225178571Y-63694761D01*
X225083333Y-63742380D01*
X224988095Y-63742380D01*
X224892857Y-63694761D01*
X224845238Y-63647142D01*
X224797619Y-63551904D01*
X224750000Y-63361428D01*
X224750000Y-63123333D01*
X224797619Y-62932857D01*
X224845238Y-62837619D01*
X224892857Y-62790000D01*
X224988095Y-62742380D01*
G04 #@! TO.C,U6*
X158496190Y-131750952D02*
X158400952Y-131703333D01*
X158353333Y-131655714D01*
X158305714Y-131560476D01*
X158305714Y-131512857D01*
X158353333Y-131417619D01*
X158400952Y-131370000D01*
X158496190Y-131322380D01*
X158686666Y-131322380D01*
X158781904Y-131370000D01*
X158829523Y-131417619D01*
X158877142Y-131512857D01*
X158877142Y-131560476D01*
X158829523Y-131655714D01*
X158781904Y-131703333D01*
X158686666Y-131750952D01*
X158496190Y-131750952D01*
X158400952Y-131798571D01*
X158353333Y-131846190D01*
X158305714Y-131941428D01*
X158305714Y-132131904D01*
X158353333Y-132227142D01*
X158400952Y-132274761D01*
X158496190Y-132322380D01*
X158686666Y-132322380D01*
X158781904Y-132274761D01*
X158829523Y-132227142D01*
X158877142Y-132131904D01*
X158877142Y-131941428D01*
X158829523Y-131846190D01*
X158781904Y-131798571D01*
X158686666Y-131750952D01*
X159258095Y-131417619D02*
X159305714Y-131370000D01*
X159400952Y-131322380D01*
X159639047Y-131322380D01*
X159734285Y-131370000D01*
X159781904Y-131417619D01*
X159829523Y-131512857D01*
X159829523Y-131608095D01*
X159781904Y-131750952D01*
X159210476Y-132322380D01*
X159829523Y-132322380D01*
X160734285Y-131322380D02*
X160258095Y-131322380D01*
X160210476Y-131798571D01*
X160258095Y-131750952D01*
X160353333Y-131703333D01*
X160591428Y-131703333D01*
X160686666Y-131750952D01*
X160734285Y-131798571D01*
X160781904Y-131893809D01*
X160781904Y-132131904D01*
X160734285Y-132227142D01*
X160686666Y-132274761D01*
X160591428Y-132322380D01*
X160353333Y-132322380D01*
X160258095Y-132274761D01*
X160210476Y-132227142D01*
X161258095Y-132322380D02*
X161448571Y-132322380D01*
X161543809Y-132274761D01*
X161591428Y-132227142D01*
X161686666Y-132084285D01*
X161734285Y-131893809D01*
X161734285Y-131512857D01*
X161686666Y-131417619D01*
X161639047Y-131370000D01*
X161543809Y-131322380D01*
X161353333Y-131322380D01*
X161258095Y-131370000D01*
X161210476Y-131417619D01*
X161162857Y-131512857D01*
X161162857Y-131750952D01*
X161210476Y-131846190D01*
X161258095Y-131893809D01*
X161353333Y-131941428D01*
X161543809Y-131941428D01*
X161639047Y-131893809D01*
X161686666Y-131846190D01*
X161734285Y-131750952D01*
G04 #@! TO.C,U5*
X176276190Y-131750952D02*
X176180952Y-131703333D01*
X176133333Y-131655714D01*
X176085714Y-131560476D01*
X176085714Y-131512857D01*
X176133333Y-131417619D01*
X176180952Y-131370000D01*
X176276190Y-131322380D01*
X176466666Y-131322380D01*
X176561904Y-131370000D01*
X176609523Y-131417619D01*
X176657142Y-131512857D01*
X176657142Y-131560476D01*
X176609523Y-131655714D01*
X176561904Y-131703333D01*
X176466666Y-131750952D01*
X176276190Y-131750952D01*
X176180952Y-131798571D01*
X176133333Y-131846190D01*
X176085714Y-131941428D01*
X176085714Y-132131904D01*
X176133333Y-132227142D01*
X176180952Y-132274761D01*
X176276190Y-132322380D01*
X176466666Y-132322380D01*
X176561904Y-132274761D01*
X176609523Y-132227142D01*
X176657142Y-132131904D01*
X176657142Y-131941428D01*
X176609523Y-131846190D01*
X176561904Y-131798571D01*
X176466666Y-131750952D01*
X177038095Y-131417619D02*
X177085714Y-131370000D01*
X177180952Y-131322380D01*
X177419047Y-131322380D01*
X177514285Y-131370000D01*
X177561904Y-131417619D01*
X177609523Y-131512857D01*
X177609523Y-131608095D01*
X177561904Y-131750952D01*
X176990476Y-132322380D01*
X177609523Y-132322380D01*
X178514285Y-131322380D02*
X178038095Y-131322380D01*
X177990476Y-131798571D01*
X178038095Y-131750952D01*
X178133333Y-131703333D01*
X178371428Y-131703333D01*
X178466666Y-131750952D01*
X178514285Y-131798571D01*
X178561904Y-131893809D01*
X178561904Y-132131904D01*
X178514285Y-132227142D01*
X178466666Y-132274761D01*
X178371428Y-132322380D01*
X178133333Y-132322380D01*
X178038095Y-132274761D01*
X177990476Y-132227142D01*
X179419047Y-131655714D02*
X179419047Y-132322380D01*
X179180952Y-131274761D02*
X178942857Y-131989047D01*
X179561904Y-131989047D01*
G04 #@! TO.C,U4*
X79430952Y-123702380D02*
X80097619Y-123702380D01*
X79669047Y-124702380D01*
X80907142Y-124035714D02*
X80907142Y-124702380D01*
X80669047Y-123654761D02*
X80430952Y-124369047D01*
X81050000Y-124369047D01*
X81907142Y-124702380D02*
X81430952Y-124702380D01*
X81430952Y-123702380D01*
X82192857Y-124654761D02*
X82335714Y-124702380D01*
X82573809Y-124702380D01*
X82669047Y-124654761D01*
X82716666Y-124607142D01*
X82764285Y-124511904D01*
X82764285Y-124416666D01*
X82716666Y-124321428D01*
X82669047Y-124273809D01*
X82573809Y-124226190D01*
X82383333Y-124178571D01*
X82288095Y-124130952D01*
X82240476Y-124083333D01*
X82192857Y-123988095D01*
X82192857Y-123892857D01*
X82240476Y-123797619D01*
X82288095Y-123750000D01*
X82383333Y-123702380D01*
X82621428Y-123702380D01*
X82764285Y-123750000D01*
X83145238Y-123797619D02*
X83192857Y-123750000D01*
X83288095Y-123702380D01*
X83526190Y-123702380D01*
X83621428Y-123750000D01*
X83669047Y-123797619D01*
X83716666Y-123892857D01*
X83716666Y-123988095D01*
X83669047Y-124130952D01*
X83097619Y-124702380D01*
X83716666Y-124702380D01*
X84573809Y-124035714D02*
X84573809Y-124702380D01*
X84335714Y-123654761D02*
X84097619Y-124369047D01*
X84716666Y-124369047D01*
X85573809Y-123702380D02*
X85097619Y-123702380D01*
X85050000Y-124178571D01*
X85097619Y-124130952D01*
X85192857Y-124083333D01*
X85430952Y-124083333D01*
X85526190Y-124130952D01*
X85573809Y-124178571D01*
X85621428Y-124273809D01*
X85621428Y-124511904D01*
X85573809Y-124607142D01*
X85526190Y-124654761D01*
X85430952Y-124702380D01*
X85192857Y-124702380D01*
X85097619Y-124654761D01*
X85050000Y-124607142D01*
G04 #@! TO.C,U3*
X89590952Y-93222380D02*
X90257619Y-93222380D01*
X89829047Y-94222380D01*
X91067142Y-93555714D02*
X91067142Y-94222380D01*
X90829047Y-93174761D02*
X90590952Y-93889047D01*
X91210000Y-93889047D01*
X92067142Y-94222380D02*
X91590952Y-94222380D01*
X91590952Y-93222380D01*
X92352857Y-94174761D02*
X92495714Y-94222380D01*
X92733809Y-94222380D01*
X92829047Y-94174761D01*
X92876666Y-94127142D01*
X92924285Y-94031904D01*
X92924285Y-93936666D01*
X92876666Y-93841428D01*
X92829047Y-93793809D01*
X92733809Y-93746190D01*
X92543333Y-93698571D01*
X92448095Y-93650952D01*
X92400476Y-93603333D01*
X92352857Y-93508095D01*
X92352857Y-93412857D01*
X92400476Y-93317619D01*
X92448095Y-93270000D01*
X92543333Y-93222380D01*
X92781428Y-93222380D01*
X92924285Y-93270000D01*
X93829047Y-93222380D02*
X93352857Y-93222380D01*
X93305238Y-93698571D01*
X93352857Y-93650952D01*
X93448095Y-93603333D01*
X93686190Y-93603333D01*
X93781428Y-93650952D01*
X93829047Y-93698571D01*
X93876666Y-93793809D01*
X93876666Y-94031904D01*
X93829047Y-94127142D01*
X93781428Y-94174761D01*
X93686190Y-94222380D01*
X93448095Y-94222380D01*
X93352857Y-94174761D01*
X93305238Y-94127142D01*
X94210000Y-93222380D02*
X94876666Y-93222380D01*
X94448095Y-94222380D01*
X95162380Y-93222380D02*
X95781428Y-93222380D01*
X95448095Y-93603333D01*
X95590952Y-93603333D01*
X95686190Y-93650952D01*
X95733809Y-93698571D01*
X95781428Y-93793809D01*
X95781428Y-94031904D01*
X95733809Y-94127142D01*
X95686190Y-94174761D01*
X95590952Y-94222380D01*
X95305238Y-94222380D01*
X95210000Y-94174761D01*
X95162380Y-94127142D01*
G04 #@! TO.C,U2*
X89590952Y-123702380D02*
X90257619Y-123702380D01*
X89829047Y-124702380D01*
X91067142Y-124035714D02*
X91067142Y-124702380D01*
X90829047Y-123654761D02*
X90590952Y-124369047D01*
X91210000Y-124369047D01*
X92067142Y-124702380D02*
X91590952Y-124702380D01*
X91590952Y-123702380D01*
X92352857Y-124654761D02*
X92495714Y-124702380D01*
X92733809Y-124702380D01*
X92829047Y-124654761D01*
X92876666Y-124607142D01*
X92924285Y-124511904D01*
X92924285Y-124416666D01*
X92876666Y-124321428D01*
X92829047Y-124273809D01*
X92733809Y-124226190D01*
X92543333Y-124178571D01*
X92448095Y-124130952D01*
X92400476Y-124083333D01*
X92352857Y-123988095D01*
X92352857Y-123892857D01*
X92400476Y-123797619D01*
X92448095Y-123750000D01*
X92543333Y-123702380D01*
X92781428Y-123702380D01*
X92924285Y-123750000D01*
X93829047Y-123702380D02*
X93352857Y-123702380D01*
X93305238Y-124178571D01*
X93352857Y-124130952D01*
X93448095Y-124083333D01*
X93686190Y-124083333D01*
X93781428Y-124130952D01*
X93829047Y-124178571D01*
X93876666Y-124273809D01*
X93876666Y-124511904D01*
X93829047Y-124607142D01*
X93781428Y-124654761D01*
X93686190Y-124702380D01*
X93448095Y-124702380D01*
X93352857Y-124654761D01*
X93305238Y-124607142D01*
X94210000Y-123702380D02*
X94876666Y-123702380D01*
X94448095Y-124702380D01*
X95162380Y-123702380D02*
X95781428Y-123702380D01*
X95448095Y-124083333D01*
X95590952Y-124083333D01*
X95686190Y-124130952D01*
X95733809Y-124178571D01*
X95781428Y-124273809D01*
X95781428Y-124511904D01*
X95733809Y-124607142D01*
X95686190Y-124654761D01*
X95590952Y-124702380D01*
X95305238Y-124702380D01*
X95210000Y-124654761D01*
X95162380Y-124607142D01*
G04 #@! TO.C,U1*
X67056190Y-134290952D02*
X66960952Y-134243333D01*
X66913333Y-134195714D01*
X66865714Y-134100476D01*
X66865714Y-134052857D01*
X66913333Y-133957619D01*
X66960952Y-133910000D01*
X67056190Y-133862380D01*
X67246666Y-133862380D01*
X67341904Y-133910000D01*
X67389523Y-133957619D01*
X67437142Y-134052857D01*
X67437142Y-134100476D01*
X67389523Y-134195714D01*
X67341904Y-134243333D01*
X67246666Y-134290952D01*
X67056190Y-134290952D01*
X66960952Y-134338571D01*
X66913333Y-134386190D01*
X66865714Y-134481428D01*
X66865714Y-134671904D01*
X66913333Y-134767142D01*
X66960952Y-134814761D01*
X67056190Y-134862380D01*
X67246666Y-134862380D01*
X67341904Y-134814761D01*
X67389523Y-134767142D01*
X67437142Y-134671904D01*
X67437142Y-134481428D01*
X67389523Y-134386190D01*
X67341904Y-134338571D01*
X67246666Y-134290952D01*
X68056190Y-133862380D02*
X68151428Y-133862380D01*
X68246666Y-133910000D01*
X68294285Y-133957619D01*
X68341904Y-134052857D01*
X68389523Y-134243333D01*
X68389523Y-134481428D01*
X68341904Y-134671904D01*
X68294285Y-134767142D01*
X68246666Y-134814761D01*
X68151428Y-134862380D01*
X68056190Y-134862380D01*
X67960952Y-134814761D01*
X67913333Y-134767142D01*
X67865714Y-134671904D01*
X67818095Y-134481428D01*
X67818095Y-134243333D01*
X67865714Y-134052857D01*
X67913333Y-133957619D01*
X67960952Y-133910000D01*
X68056190Y-133862380D01*
X68960952Y-134290952D02*
X68865714Y-134243333D01*
X68818095Y-134195714D01*
X68770476Y-134100476D01*
X68770476Y-134052857D01*
X68818095Y-133957619D01*
X68865714Y-133910000D01*
X68960952Y-133862380D01*
X69151428Y-133862380D01*
X69246666Y-133910000D01*
X69294285Y-133957619D01*
X69341904Y-134052857D01*
X69341904Y-134100476D01*
X69294285Y-134195714D01*
X69246666Y-134243333D01*
X69151428Y-134290952D01*
X68960952Y-134290952D01*
X68865714Y-134338571D01*
X68818095Y-134386190D01*
X68770476Y-134481428D01*
X68770476Y-134671904D01*
X68818095Y-134767142D01*
X68865714Y-134814761D01*
X68960952Y-134862380D01*
X69151428Y-134862380D01*
X69246666Y-134814761D01*
X69294285Y-134767142D01*
X69341904Y-134671904D01*
X69341904Y-134481428D01*
X69294285Y-134386190D01*
X69246666Y-134338571D01*
X69151428Y-134290952D01*
X69913333Y-134290952D02*
X69818095Y-134243333D01*
X69770476Y-134195714D01*
X69722857Y-134100476D01*
X69722857Y-134052857D01*
X69770476Y-133957619D01*
X69818095Y-133910000D01*
X69913333Y-133862380D01*
X70103809Y-133862380D01*
X70199047Y-133910000D01*
X70246666Y-133957619D01*
X70294285Y-134052857D01*
X70294285Y-134100476D01*
X70246666Y-134195714D01*
X70199047Y-134243333D01*
X70103809Y-134290952D01*
X69913333Y-134290952D01*
X69818095Y-134338571D01*
X69770476Y-134386190D01*
X69722857Y-134481428D01*
X69722857Y-134671904D01*
X69770476Y-134767142D01*
X69818095Y-134814761D01*
X69913333Y-134862380D01*
X70103809Y-134862380D01*
X70199047Y-134814761D01*
X70246666Y-134767142D01*
X70294285Y-134671904D01*
X70294285Y-134481428D01*
X70246666Y-134386190D01*
X70199047Y-134338571D01*
X70103809Y-134290952D01*
G04 #@! TO.C,SW1*
X61285619Y-68524380D02*
X60952285Y-68048190D01*
X60714190Y-68524380D02*
X60714190Y-67524380D01*
X61095142Y-67524380D01*
X61190380Y-67572000D01*
X61238000Y-67619619D01*
X61285619Y-67714857D01*
X61285619Y-67857714D01*
X61238000Y-67952952D01*
X61190380Y-68000571D01*
X61095142Y-68048190D01*
X60714190Y-68048190D01*
X61714190Y-68000571D02*
X62047523Y-68000571D01*
X62190380Y-68524380D02*
X61714190Y-68524380D01*
X61714190Y-67524380D01*
X62190380Y-67524380D01*
X62571333Y-68476761D02*
X62714190Y-68524380D01*
X62952285Y-68524380D01*
X63047523Y-68476761D01*
X63095142Y-68429142D01*
X63142761Y-68333904D01*
X63142761Y-68238666D01*
X63095142Y-68143428D01*
X63047523Y-68095809D01*
X62952285Y-68048190D01*
X62761809Y-68000571D01*
X62666571Y-67952952D01*
X62618952Y-67905333D01*
X62571333Y-67810095D01*
X62571333Y-67714857D01*
X62618952Y-67619619D01*
X62666571Y-67572000D01*
X62761809Y-67524380D01*
X62999904Y-67524380D01*
X63142761Y-67572000D01*
X63571333Y-68000571D02*
X63904666Y-68000571D01*
X64047523Y-68524380D02*
X63571333Y-68524380D01*
X63571333Y-67524380D01*
X64047523Y-67524380D01*
X64333238Y-67524380D02*
X64904666Y-67524380D01*
X64618952Y-68524380D02*
X64618952Y-67524380D01*
G04 #@! TO.C,C123*
X59821238Y-56883714D02*
X59821238Y-57550380D01*
X59583142Y-56502761D02*
X59345047Y-57217047D01*
X59964095Y-57217047D01*
X60345047Y-57455142D02*
X60392666Y-57502761D01*
X60345047Y-57550380D01*
X60297428Y-57502761D01*
X60345047Y-57455142D01*
X60345047Y-57550380D01*
X60726000Y-56550380D02*
X61392666Y-56550380D01*
X60964095Y-57550380D01*
X62202190Y-56883714D02*
X62202190Y-57550380D01*
X61773619Y-56883714D02*
X61773619Y-57407523D01*
X61821238Y-57502761D01*
X61916476Y-57550380D01*
X62059333Y-57550380D01*
X62154571Y-57502761D01*
X62202190Y-57455142D01*
X63011714Y-57026571D02*
X62678380Y-57026571D01*
X62678380Y-57550380D02*
X62678380Y-56550380D01*
X63154571Y-56550380D01*
G04 #@! TO.C,J2*
X235808780Y-93315895D02*
X234808780Y-93315895D01*
X235523066Y-92982561D01*
X234808780Y-92649228D01*
X235808780Y-92649228D01*
X235808780Y-92173038D02*
X235142114Y-92173038D01*
X234808780Y-92173038D02*
X234856400Y-92220657D01*
X234904019Y-92173038D01*
X234856400Y-92125419D01*
X234808780Y-92173038D01*
X234904019Y-92173038D01*
X235142114Y-91696847D02*
X235808780Y-91696847D01*
X235237352Y-91696847D02*
X235189733Y-91649228D01*
X235142114Y-91553990D01*
X235142114Y-91411133D01*
X235189733Y-91315895D01*
X235284971Y-91268276D01*
X235808780Y-91268276D01*
X235808780Y-90792085D02*
X235142114Y-90792085D01*
X234808780Y-90792085D02*
X234856400Y-90839704D01*
X234904019Y-90792085D01*
X234856400Y-90744466D01*
X234808780Y-90792085D01*
X234904019Y-90792085D01*
X235427828Y-90315895D02*
X235427828Y-89553990D01*
X235808780Y-89077800D02*
X234808780Y-89077800D01*
X234808780Y-88839704D01*
X234856400Y-88696847D01*
X234951638Y-88601609D01*
X235046876Y-88553990D01*
X235237352Y-88506371D01*
X235380209Y-88506371D01*
X235570685Y-88553990D01*
X235665923Y-88601609D01*
X235761161Y-88696847D01*
X235808780Y-88839704D01*
X235808780Y-89077800D01*
X235808780Y-88077800D02*
X234808780Y-88077800D01*
X235808780Y-87601609D02*
X234808780Y-87601609D01*
X235808780Y-87030180D01*
X234808780Y-87030180D01*
X235427828Y-86553990D02*
X235427828Y-85792085D01*
X234808780Y-84887323D02*
X234808780Y-85077800D01*
X234856400Y-85173038D01*
X234904019Y-85220657D01*
X235046876Y-85315895D01*
X235237352Y-85363514D01*
X235618304Y-85363514D01*
X235713542Y-85315895D01*
X235761161Y-85268276D01*
X235808780Y-85173038D01*
X235808780Y-84982561D01*
X235761161Y-84887323D01*
X235713542Y-84839704D01*
X235618304Y-84792085D01*
X235380209Y-84792085D01*
X235284971Y-84839704D01*
X235237352Y-84887323D01*
X235189733Y-84982561D01*
X235189733Y-85173038D01*
X235237352Y-85268276D01*
X235284971Y-85315895D01*
X235380209Y-85363514D01*
G04 #@! TD*
M02*
