G04 #@! TF.GenerationSoftware,KiCad,Pcbnew,(5.1.8)-1*
G04 #@! TF.CreationDate,2024-06-24T11:55:26-06:00*
G04 #@! TF.ProjectId,8088 PCB,38303838-2050-4434-922e-6b696361645f,rev?*
G04 #@! TF.SameCoordinates,Original*
G04 #@! TF.FileFunction,Copper,L1,Top*
G04 #@! TF.FilePolarity,Positive*
%FSLAX46Y46*%
G04 Gerber Fmt 4.6, Leading zero omitted, Abs format (unit mm)*
G04 Created by KiCad (PCBNEW (5.1.8)-1) date 2024-06-24 11:55:26*
%MOMM*%
%LPD*%
G01*
G04 APERTURE LIST*
G04 #@! TA.AperFunction,ComponentPad*
%ADD10C,3.556000*%
G04 #@! TD*
G04 #@! TA.AperFunction,ComponentPad*
%ADD11R,1.700000X1.700000*%
G04 #@! TD*
G04 #@! TA.AperFunction,ComponentPad*
%ADD12O,1.600000X1.600000*%
G04 #@! TD*
G04 #@! TA.AperFunction,ComponentPad*
%ADD13C,1.600000*%
G04 #@! TD*
G04 #@! TA.AperFunction,ComponentPad*
%ADD14R,1.600000X1.600000*%
G04 #@! TD*
G04 #@! TA.AperFunction,ComponentPad*
%ADD15O,1.700000X1.700000*%
G04 #@! TD*
G04 #@! TA.AperFunction,ConnectorPad*
%ADD16R,1.780000X7.620000*%
G04 #@! TD*
G04 #@! TA.AperFunction,ComponentPad*
%ADD17C,1.500000*%
G04 #@! TD*
G04 #@! TA.AperFunction,ComponentPad*
%ADD18C,1.422400*%
G04 #@! TD*
G04 #@! TA.AperFunction,ComponentPad*
%ADD19R,1.422400X1.422400*%
G04 #@! TD*
G04 #@! TA.AperFunction,ComponentPad*
%ADD20C,2.000000*%
G04 #@! TD*
G04 #@! TA.AperFunction,ComponentPad*
%ADD21C,1.200000*%
G04 #@! TD*
G04 #@! TA.AperFunction,ComponentPad*
%ADD22R,1.200000X1.200000*%
G04 #@! TD*
G04 #@! TA.AperFunction,ComponentPad*
%ADD23C,2.794000*%
G04 #@! TD*
G04 #@! TA.AperFunction,ComponentPad*
%ADD24C,3.302000*%
G04 #@! TD*
G04 #@! TA.AperFunction,ComponentPad*
%ADD25C,1.524000*%
G04 #@! TD*
G04 #@! TA.AperFunction,ViaPad*
%ADD26C,0.800000*%
G04 #@! TD*
G04 #@! TA.AperFunction,Conductor*
%ADD27C,0.250000*%
G04 #@! TD*
G04 #@! TA.AperFunction,Conductor*
%ADD28C,0.330200*%
G04 #@! TD*
G04 APERTURE END LIST*
D10*
G04 #@! TO.P,R,1*
G04 #@! TO.N,N/C*
X230886000Y-76200000D03*
G04 #@! TD*
D11*
G04 #@! TO.P,J5,1*
G04 #@! TO.N,/IRQ1*
X178308000Y-40386000D03*
G04 #@! TD*
D12*
G04 #@! TO.P,R15,2*
G04 #@! TO.N,/DEN*
X83820000Y-131064000D03*
D13*
G04 #@! TO.P,R15,1*
G04 #@! TO.N,/5+*
X93980000Y-131064000D03*
G04 #@! TD*
D12*
G04 #@! TO.P,R17,6*
G04 #@! TO.N,/AEN*
X195072000Y-78740000D03*
G04 #@! TO.P,R17,5*
G04 #@! TO.N,/DRQ3*
X195072000Y-81280000D03*
G04 #@! TO.P,R17,4*
G04 #@! TO.N,/DRQ2*
X195072000Y-83820000D03*
G04 #@! TO.P,R17,3*
G04 #@! TO.N,/DRQ1*
X195072000Y-86360000D03*
G04 #@! TO.P,R17,2*
G04 #@! TO.N,/DRQ0_*
X195072000Y-88900000D03*
D14*
G04 #@! TO.P,R17,1*
G04 #@! TO.N,/GND*
X195072000Y-91440000D03*
G04 #@! TD*
D12*
G04 #@! TO.P,R12,6*
G04 #@! TO.N,/760_WR*
X170688000Y-64008000D03*
G04 #@! TO.P,R12,5*
G04 #@! TO.N,/CH_CK_*
X168148000Y-64008000D03*
G04 #@! TO.P,R12,4*
G04 #@! TO.N,/EOP*
X165608000Y-64008000D03*
G04 #@! TO.P,R12,3*
G04 #@! TO.N,/CS_61_RD*
X163068000Y-64008000D03*
G04 #@! TO.P,R12,2*
G04 #@! TO.N,/CS_61_WR*
X160528000Y-64008000D03*
D14*
G04 #@! TO.P,R12,1*
G04 #@! TO.N,/5+*
X157988000Y-64008000D03*
G04 #@! TD*
D12*
G04 #@! TO.P,R8,5*
G04 #@! TO.N,/00_CS*
X131826000Y-70358000D03*
G04 #@! TO.P,R8,4*
G04 #@! TO.N,/20_CS*
X131826000Y-72898000D03*
G04 #@! TO.P,R8,3*
G04 #@! TO.N,/40_CS*
X131826000Y-75438000D03*
G04 #@! TO.P,R8,2*
G04 #@! TO.N,/RDY1*
X131826000Y-77978000D03*
D14*
G04 #@! TO.P,R8,1*
G04 #@! TO.N,/5+*
X131826000Y-80518000D03*
G04 #@! TD*
D12*
G04 #@! TO.P,R10,5*
G04 #@! TO.N,/E0_CS*
X126746000Y-68580000D03*
G04 #@! TO.P,R10,4*
G04 #@! TO.N,/80_CS*
X126746000Y-71120000D03*
G04 #@! TO.P,R10,3*
G04 #@! TO.N,/61_CS*
X126746000Y-73660000D03*
G04 #@! TO.P,R10,2*
G04 #@! TO.N,/60_CS*
X126746000Y-76200000D03*
D14*
G04 #@! TO.P,R10,1*
G04 #@! TO.N,/5+*
X126746000Y-78740000D03*
G04 #@! TD*
D15*
G04 #@! TO.P,J4,16*
G04 #@! TO.N,/GND*
X231140000Y-50800000D03*
G04 #@! TO.P,J4,15*
G04 #@! TO.N,/D0*
X233680000Y-50800000D03*
G04 #@! TO.P,J4,14*
G04 #@! TO.N,/GND*
X231140000Y-53340000D03*
G04 #@! TO.P,J4,13*
G04 #@! TO.N,/D1*
X233680000Y-53340000D03*
G04 #@! TO.P,J4,12*
G04 #@! TO.N,/5+*
X231140000Y-55880000D03*
G04 #@! TO.P,J4,11*
G04 #@! TO.N,/D2*
X233680000Y-55880000D03*
G04 #@! TO.P,J4,10*
G04 #@! TO.N,Net-(J4-Pad10)*
X231140000Y-58420000D03*
G04 #@! TO.P,J4,9*
G04 #@! TO.N,/D3*
X233680000Y-58420000D03*
G04 #@! TO.P,J4,8*
G04 #@! TO.N,/A2*
X231140000Y-60960000D03*
G04 #@! TO.P,J4,7*
G04 #@! TO.N,/D4*
X233680000Y-60960000D03*
G04 #@! TO.P,J4,6*
G04 #@! TO.N,/E0_CS*
X231140000Y-63500000D03*
G04 #@! TO.P,J4,5*
G04 #@! TO.N,/D5*
X233680000Y-63500000D03*
G04 #@! TO.P,J4,4*
G04 #@! TO.N,/IORD*
X231140000Y-66040000D03*
G04 #@! TO.P,J4,3*
G04 #@! TO.N,/D6*
X233680000Y-66040000D03*
G04 #@! TO.P,J4,2*
G04 #@! TO.N,/IOWR*
X231140000Y-68580000D03*
D11*
G04 #@! TO.P,J4,1*
G04 #@! TO.N,/D7*
X233680000Y-68580000D03*
G04 #@! TD*
D12*
G04 #@! TO.P,R16,5*
G04 #@! TO.N,/DACK1*
X219964000Y-84582000D03*
G04 #@! TO.P,R16,4*
G04 #@! TO.N,/REFRQ*
X219964000Y-82042000D03*
G04 #@! TO.P,R16,3*
G04 #@! TO.N,/DACK3*
X219964000Y-79502000D03*
G04 #@! TO.P,R16,2*
G04 #@! TO.N,/DACK2*
X219964000Y-76962000D03*
D14*
G04 #@! TO.P,R16,1*
G04 #@! TO.N,/5+*
X219964000Y-74422000D03*
G04 #@! TD*
D12*
G04 #@! TO.P,R14,4*
G04 #@! TO.N,Net-(R14-Pad4)*
X87376000Y-127000000D03*
G04 #@! TO.P,R14,3*
G04 #@! TO.N,/NMI*
X84836000Y-127000000D03*
G04 #@! TO.P,R14,2*
G04 #@! TO.N,/HOLD*
X82296000Y-127000000D03*
D14*
G04 #@! TO.P,R14,1*
G04 #@! TO.N,/GND*
X79756000Y-127000000D03*
G04 #@! TD*
D12*
G04 #@! TO.P,R2,4*
G04 #@! TO.N,/IORD*
X68072000Y-70612000D03*
G04 #@! TO.P,R2,3*
G04 #@! TO.N,/PU1*
X65532000Y-70612000D03*
G04 #@! TO.P,R2,2*
G04 #@! TO.N,/RESET*
X62992000Y-70612000D03*
D14*
G04 #@! TO.P,R2,1*
G04 #@! TO.N,/5+*
X60452000Y-70612000D03*
G04 #@! TD*
D12*
G04 #@! TO.P,R1,4*
G04 #@! TO.N,/IOWR*
X68072000Y-75184000D03*
G04 #@! TO.P,R1,3*
G04 #@! TO.N,/MRD*
X65532000Y-75184000D03*
G04 #@! TO.P,R1,2*
G04 #@! TO.N,/MWR*
X62992000Y-75184000D03*
D14*
G04 #@! TO.P,R1,1*
G04 #@! TO.N,/5+*
X60452000Y-75184000D03*
G04 #@! TD*
D12*
G04 #@! TO.P,R18,5*
G04 #@! TO.N,/X1*
X93218000Y-52324000D03*
G04 #@! TO.P,R18,4*
G04 #@! TO.N,/X2*
X93218000Y-54864000D03*
G04 #@! TO.P,R18,3*
G04 #@! TO.N,/X1A*
X93218000Y-57404000D03*
G04 #@! TO.P,R18,2*
G04 #@! TO.N,/X2A*
X93218000Y-59944000D03*
D14*
G04 #@! TO.P,R18,1*
G04 #@! TO.N,/GND*
X93218000Y-62484000D03*
G04 #@! TD*
D12*
G04 #@! TO.P,R13,2*
G04 #@! TO.N,/SPK_PIN*
X144780000Y-64008000D03*
D13*
G04 #@! TO.P,R13,1*
G04 #@! TO.N,/SPK_PIN_O*
X154940000Y-64008000D03*
G04 #@! TD*
D12*
G04 #@! TO.P,R11,2*
G04 #@! TO.N,/CLK88_1*
X141986000Y-66548000D03*
D13*
G04 #@! TO.P,R11,1*
G04 #@! TO.N,/CLK*
X131826000Y-66548000D03*
G04 #@! TD*
D12*
G04 #@! TO.P,R9,2*
G04 #@! TO.N,/CLK1*
X82550000Y-135382000D03*
D13*
G04 #@! TO.P,R9,1*
G04 #@! TO.N,/CLK_88*
X72390000Y-135382000D03*
G04 #@! TD*
D12*
G04 #@! TO.P,R7,4*
G04 #@! TO.N,/CH_CK*
X218948000Y-126746000D03*
G04 #@! TO.P,R7,3*
G04 #@! TO.N,/T1*
X221488000Y-126746000D03*
G04 #@! TO.P,R7,2*
G04 #@! TO.N,/T0*
X224028000Y-126746000D03*
D14*
G04 #@! TO.P,R7,1*
G04 #@! TO.N,/5+*
X226568000Y-126746000D03*
G04 #@! TD*
D12*
G04 #@! TO.P,R6,2*
G04 #@! TO.N,/OSC88*
X118110000Y-135382000D03*
D13*
G04 #@! TO.P,R6,1*
G04 #@! TO.N,/OSC*
X107950000Y-135382000D03*
G04 #@! TD*
D12*
G04 #@! TO.P,R5,2*
G04 #@! TO.N,/OSC*
X99568000Y-72644000D03*
D13*
G04 #@! TO.P,R5,1*
G04 #@! TO.N,/OSC88HF*
X99568000Y-62484000D03*
G04 #@! TD*
D12*
G04 #@! TO.P,R4,2*
G04 #@! TO.N,/PCLK*
X89408000Y-52578000D03*
D13*
G04 #@! TO.P,R4,1*
G04 #@! TO.N,/PCLK88*
X89408000Y-62738000D03*
G04 #@! TD*
D12*
G04 #@! TO.P,R3,2*
G04 #@! TO.N,/CLK88*
X130556000Y-135382000D03*
D13*
G04 #@! TO.P,R3,1*
G04 #@! TO.N,/CLK*
X120396000Y-135382000D03*
G04 #@! TD*
D15*
G04 #@! TO.P,J3,4*
G04 #@! TO.N,/5+*
X167386000Y-72898000D03*
G04 #@! TO.P,J3,3*
G04 #@! TO.N,/GND*
X164846000Y-72898000D03*
G04 #@! TO.P,J3,2*
G04 #@! TO.N,Net-(J3-Pad2)*
X162306000Y-72898000D03*
D11*
G04 #@! TO.P,J3,1*
G04 #@! TO.N,/SPK_PIN_O*
X159766000Y-72898000D03*
G04 #@! TD*
D13*
G04 #@! TO.P,C26,2*
G04 #@! TO.N,/GND*
X157560000Y-40132000D03*
G04 #@! TO.P,C26,1*
G04 #@! TO.N,/5+*
X162560000Y-40132000D03*
G04 #@! TD*
G04 #@! TO.P,C25,2*
G04 #@! TO.N,/GND*
X147400000Y-40132000D03*
G04 #@! TO.P,C25,1*
G04 #@! TO.N,/5+*
X152400000Y-40132000D03*
G04 #@! TD*
G04 #@! TO.P,C24,2*
G04 #@! TO.N,/GND*
X200740000Y-103632000D03*
G04 #@! TO.P,C24,1*
G04 #@! TO.N,/5+*
X205740000Y-103632000D03*
G04 #@! TD*
G04 #@! TO.P,C23,2*
G04 #@! TO.N,/GND*
X210900000Y-103632000D03*
G04 #@! TO.P,C23,1*
G04 #@! TO.N,/5+*
X215900000Y-103632000D03*
G04 #@! TD*
G04 #@! TO.P,C22,2*
G04 #@! TO.N,/GND*
X71200000Y-40132000D03*
G04 #@! TO.P,C22,1*
G04 #@! TO.N,/5+*
X76200000Y-40132000D03*
G04 #@! TD*
G04 #@! TO.P,C21,2*
G04 #@! TO.N,/GND*
X167720000Y-40132000D03*
G04 #@! TO.P,C21,1*
G04 #@! TO.N,/5+*
X172720000Y-40132000D03*
G04 #@! TD*
G04 #@! TO.P,C20,2*
G04 #@! TO.N,/GND*
X221060000Y-103632000D03*
G04 #@! TO.P,C20,1*
G04 #@! TO.N,/5+*
X226060000Y-103632000D03*
G04 #@! TD*
G04 #@! TO.P,C19,2*
G04 #@! TO.N,/GND*
X184230000Y-40894000D03*
G04 #@! TO.P,C19,1*
G04 #@! TO.N,/5+*
X189230000Y-40894000D03*
G04 #@! TD*
G04 #@! TO.P,C18,2*
G04 #@! TO.N,/GND*
X99140000Y-40132000D03*
G04 #@! TO.P,C18,1*
G04 #@! TO.N,/5+*
X104140000Y-40132000D03*
G04 #@! TD*
G04 #@! TO.P,C17,2*
G04 #@! TO.N,/GND*
X81360000Y-40132000D03*
G04 #@! TO.P,C17,1*
G04 #@! TO.N,/5+*
X86360000Y-40132000D03*
G04 #@! TD*
G04 #@! TO.P,C16,2*
G04 #@! TO.N,/GND*
X137240000Y-40132000D03*
G04 #@! TO.P,C16,1*
G04 #@! TO.N,/5+*
X142240000Y-40132000D03*
G04 #@! TD*
G04 #@! TO.P,C15,2*
G04 #@! TO.N,/GND*
X144860000Y-93472000D03*
G04 #@! TO.P,C15,1*
G04 #@! TO.N,/5+*
X149860000Y-93472000D03*
G04 #@! TD*
G04 #@! TO.P,C14,2*
G04 #@! TO.N,/GND*
X127080000Y-88392000D03*
G04 #@! TO.P,C14,1*
G04 #@! TO.N,/5+*
X132080000Y-88392000D03*
G04 #@! TD*
G04 #@! TO.P,C13,2*
G04 #@! TO.N,/GND*
X109300000Y-88392000D03*
G04 #@! TO.P,C13,1*
G04 #@! TO.N,/5+*
X114300000Y-88392000D03*
G04 #@! TD*
G04 #@! TO.P,C12,2*
G04 #@! TO.N,/GND*
X127080000Y-40132000D03*
G04 #@! TO.P,C12,1*
G04 #@! TO.N,/5+*
X132080000Y-40132000D03*
G04 #@! TD*
G04 #@! TO.P,C11,2*
G04 #@! TO.N,/GND*
X190580000Y-103632000D03*
G04 #@! TO.P,C11,1*
G04 #@! TO.N,/5+*
X195580000Y-103632000D03*
G04 #@! TD*
G04 #@! TO.P,C10,2*
G04 #@! TO.N,/GND*
X218440000Y-71040000D03*
G04 #@! TO.P,C10,1*
G04 #@! TO.N,/5+*
X218440000Y-66040000D03*
G04 #@! TD*
G04 #@! TO.P,C9,2*
G04 #@! TO.N,/GND*
X116920000Y-40132000D03*
G04 #@! TO.P,C9,1*
G04 #@! TO.N,/5+*
X121920000Y-40132000D03*
G04 #@! TD*
G04 #@! TO.P,C8,2*
G04 #@! TO.N,/GND*
X81360000Y-68072000D03*
G04 #@! TO.P,C8,1*
G04 #@! TO.N,/5+*
X86360000Y-68072000D03*
G04 #@! TD*
G04 #@! TO.P,C7,2*
G04 #@! TO.N,/GND*
X221060000Y-40132000D03*
G04 #@! TO.P,C7,1*
G04 #@! TO.N,/5+*
X226060000Y-40132000D03*
G04 #@! TD*
G04 #@! TO.P,C6,2*
G04 #@! TO.N,/GND*
X162640000Y-93472000D03*
G04 #@! TO.P,C6,1*
G04 #@! TO.N,/5+*
X167640000Y-93472000D03*
G04 #@! TD*
G04 #@! TO.P,C5,2*
G04 #@! TO.N,/GND*
X180420000Y-98552000D03*
G04 #@! TO.P,C5,1*
G04 #@! TO.N,/5+*
X185420000Y-98552000D03*
G04 #@! TD*
G04 #@! TO.P,C4,2*
G04 #@! TO.N,/GND*
X81360000Y-96012000D03*
G04 #@! TO.P,C4,1*
G04 #@! TO.N,/5+*
X86360000Y-96012000D03*
G04 #@! TD*
G04 #@! TO.P,C3,2*
G04 #@! TO.N,/GND*
X91520000Y-65532000D03*
G04 #@! TO.P,C3,1*
G04 #@! TO.N,/5+*
X96520000Y-65532000D03*
G04 #@! TD*
G04 #@! TO.P,C2,2*
G04 #@! TO.N,/GND*
X91520000Y-96012000D03*
G04 #@! TO.P,C2,1*
G04 #@! TO.N,/5+*
X96520000Y-96012000D03*
G04 #@! TD*
G04 #@! TO.P,C1,2*
G04 #@! TO.N,/GND*
X71200000Y-80772000D03*
G04 #@! TO.P,C1,1*
G04 #@! TO.N,/5+*
X76200000Y-80772000D03*
G04 #@! TD*
D16*
G04 #@! TO.P,J1,62*
G04 #@! TO.N,/A0*
X134620000Y-140970000D03*
G04 #@! TO.P,J1,61*
G04 #@! TO.N,/A1*
X137160000Y-140970000D03*
G04 #@! TO.P,J1,60*
G04 #@! TO.N,/A2*
X139700000Y-140970000D03*
G04 #@! TO.P,J1,59*
G04 #@! TO.N,/A3*
X142240000Y-140970000D03*
G04 #@! TO.P,J1,58*
G04 #@! TO.N,/A4*
X144780000Y-140970000D03*
G04 #@! TO.P,J1,57*
G04 #@! TO.N,/A5*
X147320000Y-140970000D03*
G04 #@! TO.P,J1,56*
G04 #@! TO.N,/A6*
X149860000Y-140970000D03*
G04 #@! TO.P,J1,55*
G04 #@! TO.N,/A7*
X152400000Y-140970000D03*
G04 #@! TO.P,J1,54*
G04 #@! TO.N,/A8*
X154940000Y-140970000D03*
G04 #@! TO.P,J1,53*
G04 #@! TO.N,/A9*
X157480000Y-140970000D03*
G04 #@! TO.P,J1,52*
G04 #@! TO.N,/A10*
X160020000Y-140970000D03*
G04 #@! TO.P,J1,51*
G04 #@! TO.N,/A11*
X162560000Y-140970000D03*
G04 #@! TO.P,J1,50*
G04 #@! TO.N,/A12*
X165100000Y-140970000D03*
G04 #@! TO.P,J1,49*
G04 #@! TO.N,/A13*
X167640000Y-140970000D03*
G04 #@! TO.P,J1,48*
G04 #@! TO.N,/A14*
X170180000Y-140970000D03*
G04 #@! TO.P,J1,47*
G04 #@! TO.N,/A15*
X172720000Y-140970000D03*
G04 #@! TO.P,J1,46*
G04 #@! TO.N,/A16*
X175260000Y-140970000D03*
G04 #@! TO.P,J1,45*
G04 #@! TO.N,/A17*
X177800000Y-140970000D03*
G04 #@! TO.P,J1,44*
G04 #@! TO.N,/A18*
X180340000Y-140970000D03*
G04 #@! TO.P,J1,43*
G04 #@! TO.N,/A19*
X182880000Y-140970000D03*
G04 #@! TO.P,J1,42*
G04 #@! TO.N,/AEN*
X185420000Y-140970000D03*
G04 #@! TO.P,J1,41*
G04 #@! TO.N,/RDY1*
X187960000Y-140970000D03*
G04 #@! TO.P,J1,40*
G04 #@! TO.N,/D0*
X190500000Y-140970000D03*
G04 #@! TO.P,J1,39*
G04 #@! TO.N,/D1*
X193040000Y-140970000D03*
G04 #@! TO.P,J1,38*
G04 #@! TO.N,/D2*
X195580000Y-140970000D03*
G04 #@! TO.P,J1,37*
G04 #@! TO.N,/D3*
X198120000Y-140970000D03*
G04 #@! TO.P,J1,36*
G04 #@! TO.N,/D4*
X200660000Y-140970000D03*
G04 #@! TO.P,J1,35*
G04 #@! TO.N,/D5*
X203200000Y-140970000D03*
G04 #@! TO.P,J1,34*
G04 #@! TO.N,/D6*
X205740000Y-140970000D03*
G04 #@! TO.P,J1,33*
G04 #@! TO.N,/D7*
X208280000Y-140970000D03*
G04 #@! TO.P,J1,32*
G04 #@! TO.N,/CH_CK*
X210820000Y-140970000D03*
G04 #@! TD*
D17*
G04 #@! TO.P,Y2,2*
G04 #@! TO.N,/X1A*
X63500000Y-42418000D03*
G04 #@! TO.P,Y2,1*
G04 #@! TO.N,/X2A*
X63500000Y-47318000D03*
G04 #@! TD*
G04 #@! TO.P,Y1,2*
G04 #@! TO.N,/X1*
X91440000Y-42090000D03*
G04 #@! TO.P,Y1,1*
G04 #@! TO.N,/X2*
X91440000Y-46990000D03*
G04 #@! TD*
D12*
G04 #@! TO.P,U26,14*
G04 #@! TO.N,/5+*
X162560000Y-43180000D03*
G04 #@! TO.P,U26,7*
G04 #@! TO.N,/GND*
X154940000Y-58420000D03*
G04 #@! TO.P,U26,13*
G04 #@! TO.N,N/C*
X162560000Y-45720000D03*
G04 #@! TO.P,U26,6*
G04 #@! TO.N,/CS_61_RD*
X154940000Y-55880000D03*
G04 #@! TO.P,U26,12*
G04 #@! TO.N,N/C*
X162560000Y-48260000D03*
G04 #@! TO.P,U26,5*
G04 #@! TO.N,/IORD*
X154940000Y-53340000D03*
G04 #@! TO.P,U26,11*
G04 #@! TO.N,N/C*
X162560000Y-50800000D03*
G04 #@! TO.P,U26,4*
G04 #@! TO.N,/61_CS*
X154940000Y-50800000D03*
G04 #@! TO.P,U26,10*
G04 #@! TO.N,/80_CS*
X162560000Y-53340000D03*
G04 #@! TO.P,U26,3*
G04 #@! TO.N,/CS_61_WR*
X154940000Y-48260000D03*
G04 #@! TO.P,U26,9*
G04 #@! TO.N,/IOWR*
X162560000Y-55880000D03*
G04 #@! TO.P,U26,2*
X154940000Y-45720000D03*
G04 #@! TO.P,U26,8*
G04 #@! TO.N,/760_WR*
X162560000Y-58420000D03*
D14*
G04 #@! TO.P,U26,1*
G04 #@! TO.N,/61_CS*
X154940000Y-43180000D03*
G04 #@! TD*
D12*
G04 #@! TO.P,U25,14*
G04 #@! TO.N,/5+*
X152400000Y-43180000D03*
G04 #@! TO.P,U25,7*
G04 #@! TO.N,/GND*
X144780000Y-58420000D03*
G04 #@! TO.P,U25,13*
G04 #@! TO.N,N/C*
X152400000Y-45720000D03*
G04 #@! TO.P,U25,6*
G04 #@! TO.N,/SPK_PIN*
X144780000Y-55880000D03*
G04 #@! TO.P,U25,12*
G04 #@! TO.N,N/C*
X152400000Y-48260000D03*
G04 #@! TO.P,U25,5*
G04 #@! TO.N,/SPK_OUT*
X144780000Y-53340000D03*
G04 #@! TO.P,U25,11*
G04 #@! TO.N,N/C*
X152400000Y-50800000D03*
G04 #@! TO.P,U25,4*
G04 #@! TO.N,/SPK_EN*
X144780000Y-50800000D03*
G04 #@! TO.P,U25,10*
G04 #@! TO.N,N/C*
X152400000Y-53340000D03*
G04 #@! TO.P,U25,3*
G04 #@! TO.N,/CH_CK_*
X144780000Y-48260000D03*
G04 #@! TO.P,U25,9*
G04 #@! TO.N,N/C*
X152400000Y-55880000D03*
G04 #@! TO.P,U25,2*
G04 #@! TO.N,/CH_CK*
X144780000Y-45720000D03*
G04 #@! TO.P,U25,8*
G04 #@! TO.N,N/C*
X152400000Y-58420000D03*
D14*
G04 #@! TO.P,U25,1*
G04 #@! TO.N,/NMI_EN*
X144780000Y-43180000D03*
G04 #@! TD*
D12*
G04 #@! TO.P,U24,20*
G04 #@! TO.N,/5+*
X205740000Y-106680000D03*
G04 #@! TO.P,U24,10*
G04 #@! TO.N,/GND*
X198120000Y-129540000D03*
G04 #@! TO.P,U24,19*
G04 #@! TO.N,/PORT_61_7*
X205740000Y-109220000D03*
G04 #@! TO.P,U24,9*
G04 #@! TO.N,/D0*
X198120000Y-127000000D03*
G04 #@! TO.P,U24,18*
G04 #@! TO.N,/PORT_61_6*
X205740000Y-111760000D03*
G04 #@! TO.P,U24,8*
G04 #@! TO.N,/D1*
X198120000Y-124460000D03*
G04 #@! TO.P,U24,17*
G04 #@! TO.N,/NMI_EN*
X205740000Y-114300000D03*
G04 #@! TO.P,U24,7*
G04 #@! TO.N,/D2*
X198120000Y-121920000D03*
G04 #@! TO.P,U24,16*
G04 #@! TO.N,/PORT_61_4*
X205740000Y-116840000D03*
G04 #@! TO.P,U24,6*
G04 #@! TO.N,/D3*
X198120000Y-119380000D03*
G04 #@! TO.P,U24,15*
G04 #@! TO.N,/PORT_61_3*
X205740000Y-119380000D03*
G04 #@! TO.P,U24,5*
G04 #@! TO.N,/D4*
X198120000Y-116840000D03*
G04 #@! TO.P,U24,14*
G04 #@! TO.N,/PORT_61_2*
X205740000Y-121920000D03*
G04 #@! TO.P,U24,4*
G04 #@! TO.N,/D5*
X198120000Y-114300000D03*
G04 #@! TO.P,U24,13*
G04 #@! TO.N,/SPK_EN*
X205740000Y-124460000D03*
G04 #@! TO.P,U24,3*
G04 #@! TO.N,/D6*
X198120000Y-111760000D03*
G04 #@! TO.P,U24,12*
G04 #@! TO.N,/SPK_GO*
X205740000Y-127000000D03*
G04 #@! TO.P,U24,2*
G04 #@! TO.N,/D7*
X198120000Y-109220000D03*
G04 #@! TO.P,U24,11*
G04 #@! TO.N,/CS_61_WR_*
X205740000Y-129540000D03*
D14*
G04 #@! TO.P,U24,1*
G04 #@! TO.N,/GND*
X198120000Y-106680000D03*
G04 #@! TD*
D12*
G04 #@! TO.P,U23,20*
G04 #@! TO.N,/5+*
X215900000Y-106680000D03*
G04 #@! TO.P,U23,10*
G04 #@! TO.N,/GND*
X208280000Y-129540000D03*
G04 #@! TO.P,U23,19*
G04 #@! TO.N,/CS_61_RD*
X215900000Y-109220000D03*
G04 #@! TO.P,U23,9*
G04 #@! TO.N,/D0*
X208280000Y-127000000D03*
G04 #@! TO.P,U23,18*
G04 #@! TO.N,/PORT_61_7*
X215900000Y-111760000D03*
G04 #@! TO.P,U23,8*
G04 #@! TO.N,/D1*
X208280000Y-124460000D03*
G04 #@! TO.P,U23,17*
G04 #@! TO.N,/PORT_61_6*
X215900000Y-114300000D03*
G04 #@! TO.P,U23,7*
G04 #@! TO.N,/D2*
X208280000Y-121920000D03*
G04 #@! TO.P,U23,16*
G04 #@! TO.N,/NMI_EN*
X215900000Y-116840000D03*
G04 #@! TO.P,U23,6*
G04 #@! TO.N,/D3*
X208280000Y-119380000D03*
G04 #@! TO.P,U23,15*
G04 #@! TO.N,/PORT_61_4*
X215900000Y-119380000D03*
G04 #@! TO.P,U23,5*
G04 #@! TO.N,/D4*
X208280000Y-116840000D03*
G04 #@! TO.P,U23,14*
G04 #@! TO.N,/PORT_61_3*
X215900000Y-121920000D03*
G04 #@! TO.P,U23,4*
G04 #@! TO.N,/D5*
X208280000Y-114300000D03*
G04 #@! TO.P,U23,13*
G04 #@! TO.N,/PORT_61_2*
X215900000Y-124460000D03*
G04 #@! TO.P,U23,3*
G04 #@! TO.N,/D6*
X208280000Y-111760000D03*
G04 #@! TO.P,U23,12*
G04 #@! TO.N,/SPK_EN*
X215900000Y-127000000D03*
G04 #@! TO.P,U23,2*
G04 #@! TO.N,/D7*
X208280000Y-109220000D03*
G04 #@! TO.P,U23,11*
G04 #@! TO.N,/SPK_GO*
X215900000Y-129540000D03*
D14*
G04 #@! TO.P,U23,1*
G04 #@! TO.N,/GND*
X208280000Y-106680000D03*
G04 #@! TD*
D12*
G04 #@! TO.P,U22,18*
G04 #@! TO.N,/5+*
X76200000Y-43180000D03*
G04 #@! TO.P,U22,9*
G04 #@! TO.N,/GND*
X68580000Y-63500000D03*
G04 #@! TO.P,U22,17*
G04 #@! TO.N,/X1A*
X76200000Y-45720000D03*
G04 #@! TO.P,U22,8*
G04 #@! TO.N,/CLK1*
X68580000Y-60960000D03*
G04 #@! TO.P,U22,16*
G04 #@! TO.N,/X2A*
X76200000Y-48260000D03*
G04 #@! TO.P,U22,7*
G04 #@! TO.N,/5+*
X68580000Y-58420000D03*
G04 #@! TO.P,U22,15*
G04 #@! TO.N,/GND*
X76200000Y-50800000D03*
G04 #@! TO.P,U22,6*
X68580000Y-55880000D03*
G04 #@! TO.P,U22,14*
G04 #@! TO.N,Net-(U22-Pad14)*
X76200000Y-53340000D03*
G04 #@! TO.P,U22,5*
G04 #@! TO.N,/READY1*
X68580000Y-53340000D03*
G04 #@! TO.P,U22,13*
G04 #@! TO.N,/GND*
X76200000Y-55880000D03*
G04 #@! TO.P,U22,4*
G04 #@! TO.N,/RDY1*
X68580000Y-50800000D03*
G04 #@! TO.P,U22,12*
G04 #@! TO.N,Net-(U22-Pad12)*
X76200000Y-58420000D03*
G04 #@! TO.P,U22,3*
G04 #@! TO.N,/GND*
X68580000Y-48260000D03*
G04 #@! TO.P,U22,11*
G04 #@! TO.N,/RESET*
X76200000Y-60960000D03*
G04 #@! TO.P,U22,2*
G04 #@! TO.N,Net-(U22-Pad2)*
X68580000Y-45720000D03*
G04 #@! TO.P,U22,10*
G04 #@! TO.N,/RESET1*
X76200000Y-63500000D03*
D14*
G04 #@! TO.P,U22,1*
G04 #@! TO.N,/GND*
X68580000Y-43180000D03*
G04 #@! TD*
D12*
G04 #@! TO.P,U21,14*
G04 #@! TO.N,/5+*
X172720000Y-43180000D03*
G04 #@! TO.P,U21,7*
G04 #@! TO.N,/GND*
X165100000Y-58420000D03*
G04 #@! TO.P,U21,13*
G04 #@! TO.N,/IOM*
X172720000Y-45720000D03*
G04 #@! TO.P,U21,6*
G04 #@! TO.N,/TC*
X165100000Y-55880000D03*
G04 #@! TO.P,U21,12*
G04 #@! TO.N,/IOM_*
X172720000Y-48260000D03*
G04 #@! TO.P,U21,5*
G04 #@! TO.N,/EOP*
X165100000Y-53340000D03*
G04 #@! TO.P,U21,11*
G04 #@! TO.N,/CH_CK_*
X172720000Y-50800000D03*
G04 #@! TO.P,U21,4*
G04 #@! TO.N,/AEN_OE*
X165100000Y-50800000D03*
G04 #@! TO.P,U21,10*
G04 #@! TO.N,/NMI*
X172720000Y-53340000D03*
G04 #@! TO.P,U21,3*
G04 #@! TO.N,/AEN*
X165100000Y-48260000D03*
G04 #@! TO.P,U21,9*
G04 #@! TO.N,/CS_61_WR*
X172720000Y-55880000D03*
G04 #@! TO.P,U21,2*
G04 #@! TO.N,/KBD_CLK_INVERTED*
X165100000Y-45720000D03*
G04 #@! TO.P,U21,8*
G04 #@! TO.N,/CS_61_WR_*
X172720000Y-58420000D03*
D14*
G04 #@! TO.P,U21,1*
G04 #@! TO.N,/KBD_CLK*
X165100000Y-43180000D03*
G04 #@! TD*
D12*
G04 #@! TO.P,U20,14*
G04 #@! TO.N,/5+*
X226060000Y-106680000D03*
G04 #@! TO.P,U20,7*
G04 #@! TO.N,/GND*
X218440000Y-121920000D03*
G04 #@! TO.P,U20,13*
G04 #@! TO.N,N/C*
X226060000Y-109220000D03*
G04 #@! TO.P,U20,6*
X218440000Y-119380000D03*
G04 #@! TO.P,U20,12*
X226060000Y-111760000D03*
G04 #@! TO.P,U20,5*
X218440000Y-116840000D03*
G04 #@! TO.P,U20,11*
X226060000Y-114300000D03*
G04 #@! TO.P,U20,4*
G04 #@! TO.N,/T1*
X218440000Y-114300000D03*
G04 #@! TO.P,U20,10*
G04 #@! TO.N,N/C*
X226060000Y-116840000D03*
G04 #@! TO.P,U20,3*
G04 #@! TO.N,/KBD_DATA*
X218440000Y-111760000D03*
G04 #@! TO.P,U20,9*
G04 #@! TO.N,N/C*
X226060000Y-119380000D03*
G04 #@! TO.P,U20,2*
G04 #@! TO.N,/T0*
X218440000Y-109220000D03*
G04 #@! TO.P,U20,8*
G04 #@! TO.N,N/C*
X226060000Y-121920000D03*
D14*
G04 #@! TO.P,U20,1*
G04 #@! TO.N,/KBD_CLK_INVERTED*
X218440000Y-106680000D03*
G04 #@! TD*
D18*
G04 #@! TO.P,U19,39*
G04 #@! TO.N,/IRQ1*
X195580000Y-48260000D03*
G04 #@! TO.P,U19,37*
G04 #@! TO.N,Net-(U19-Pad37)*
X195580000Y-50800000D03*
G04 #@! TO.P,U19,35*
G04 #@! TO.N,Net-(U19-Pad35)*
X195580000Y-53340000D03*
G04 #@! TO.P,U19,33*
G04 #@! TO.N,Net-(U19-Pad33)*
X195580000Y-55880000D03*
G04 #@! TO.P,U19,31*
G04 #@! TO.N,Net-(U19-Pad31)*
X195580000Y-58420000D03*
G04 #@! TO.P,U19,40*
G04 #@! TO.N,Net-(U19-Pad40)*
X193040000Y-45720000D03*
G04 #@! TO.P,U19,38*
G04 #@! TO.N,/5+*
X193040000Y-50800000D03*
G04 #@! TO.P,U19,36*
G04 #@! TO.N,Net-(U19-Pad36)*
X193040000Y-53340000D03*
G04 #@! TO.P,U19,34*
G04 #@! TO.N,Net-(U19-Pad34)*
X193040000Y-55880000D03*
G04 #@! TO.P,U19,32*
G04 #@! TO.N,Net-(U19-Pad32)*
X193040000Y-58420000D03*
G04 #@! TO.P,U19,30*
G04 #@! TO.N,Net-(U19-Pad30)*
X193040000Y-60960000D03*
G04 #@! TO.P,U19,28*
G04 #@! TO.N,Net-(U19-Pad28)*
X193040000Y-63500000D03*
G04 #@! TO.P,U19,26*
G04 #@! TO.N,Net-(U19-Pad26)*
X190500000Y-63500000D03*
G04 #@! TO.P,U19,24*
G04 #@! TO.N,Net-(U19-Pad24)*
X187960000Y-63500000D03*
G04 #@! TO.P,U19,22*
G04 #@! TO.N,/GND*
X185420000Y-63500000D03*
G04 #@! TO.P,U19,20*
G04 #@! TO.N,/D6*
X182880000Y-63500000D03*
G04 #@! TO.P,U19,18*
G04 #@! TO.N,/D4*
X180340000Y-63500000D03*
G04 #@! TO.P,U19,29*
G04 #@! TO.N,Net-(U19-Pad29)*
X195580000Y-60960000D03*
G04 #@! TO.P,U19,27*
G04 #@! TO.N,Net-(U19-Pad27)*
X190500000Y-60960000D03*
G04 #@! TO.P,U19,25*
G04 #@! TO.N,Net-(U19-Pad25)*
X187960000Y-60960000D03*
G04 #@! TO.P,U19,23*
G04 #@! TO.N,Net-(U19-Pad23)*
X185420000Y-60960000D03*
G04 #@! TO.P,U19,21*
G04 #@! TO.N,/D7*
X182880000Y-60960000D03*
G04 #@! TO.P,U19,19*
G04 #@! TO.N,/D5*
X180340000Y-60960000D03*
G04 #@! TO.P,U19,17*
G04 #@! TO.N,/D3*
X177800000Y-60960000D03*
G04 #@! TO.P,U19,15*
G04 #@! TO.N,/D1*
X177800000Y-58420000D03*
G04 #@! TO.P,U19,13*
G04 #@! TO.N,Net-(U19-Pad13)*
X177800000Y-55880000D03*
G04 #@! TO.P,U19,11*
G04 #@! TO.N,/IOWR*
X177800000Y-53340000D03*
G04 #@! TO.P,U19,9*
G04 #@! TO.N,/IORD*
X177800000Y-50800000D03*
G04 #@! TO.P,U19,7*
G04 #@! TO.N,/60_CS*
X177800000Y-48260000D03*
G04 #@! TO.P,U19,16*
G04 #@! TO.N,/D2*
X180340000Y-58420000D03*
G04 #@! TO.P,U19,14*
G04 #@! TO.N,/D0*
X180340000Y-55880000D03*
G04 #@! TO.P,U19,12*
G04 #@! TO.N,Net-(U19-Pad12)*
X180340000Y-53340000D03*
G04 #@! TO.P,U19,10*
G04 #@! TO.N,/A2*
X180340000Y-50800000D03*
G04 #@! TO.P,U19,8*
G04 #@! TO.N,/GND*
X180340000Y-48260000D03*
G04 #@! TO.P,U19,42*
G04 #@! TO.N,/KBD_DATA*
X190500000Y-45720000D03*
G04 #@! TO.P,U19,44*
G04 #@! TO.N,/5+*
X187960000Y-45720000D03*
G04 #@! TO.P,U19,6*
G04 #@! TO.N,Net-(U19-Pad6)*
X180340000Y-45720000D03*
G04 #@! TO.P,U19,4*
G04 #@! TO.N,Net-(U19-Pad4)*
X182880000Y-45720000D03*
G04 #@! TO.P,U19,2*
G04 #@! TO.N,/T0*
X185420000Y-45720000D03*
G04 #@! TO.P,U19,41*
G04 #@! TO.N,/KBD_CLK*
X193040000Y-48260000D03*
G04 #@! TO.P,U19,43*
G04 #@! TO.N,/T1*
X190500000Y-48260000D03*
G04 #@! TO.P,U19,5*
G04 #@! TO.N,/RESET*
X182880000Y-48260000D03*
G04 #@! TO.P,U19,3*
G04 #@! TO.N,/HF_OSC*
X185420000Y-48260000D03*
D19*
G04 #@! TO.P,U19,1*
G04 #@! TO.N,Net-(U19-Pad1)*
X187960000Y-48260000D03*
G04 #@! TD*
D12*
G04 #@! TO.P,U18,14*
G04 #@! TO.N,/5+*
X104140000Y-43180000D03*
G04 #@! TO.P,U18,7*
G04 #@! TO.N,/GND*
X96520000Y-58420000D03*
G04 #@! TO.P,U18,13*
G04 #@! TO.N,/5+*
X104140000Y-45720000D03*
G04 #@! TO.P,U18,6*
G04 #@! TO.N,/FB2*
X96520000Y-55880000D03*
G04 #@! TO.P,U18,12*
G04 #@! TO.N,/FB1*
X104140000Y-48260000D03*
G04 #@! TO.P,U18,5*
G04 #@! TO.N,/HF_PCLK*
X96520000Y-53340000D03*
G04 #@! TO.P,U18,11*
G04 #@! TO.N,/OSC88HF*
X104140000Y-50800000D03*
G04 #@! TO.P,U18,4*
G04 #@! TO.N,/5+*
X96520000Y-50800000D03*
G04 #@! TO.P,U18,10*
X104140000Y-53340000D03*
G04 #@! TO.P,U18,3*
G04 #@! TO.N,/PCLK88*
X96520000Y-48260000D03*
G04 #@! TO.P,U18,9*
G04 #@! TO.N,/HF_OSC*
X104140000Y-55880000D03*
G04 #@! TO.P,U18,2*
G04 #@! TO.N,/FB2*
X96520000Y-45720000D03*
G04 #@! TO.P,U18,8*
G04 #@! TO.N,/FB1*
X104140000Y-58420000D03*
D14*
G04 #@! TO.P,U18,1*
G04 #@! TO.N,/5+*
X96520000Y-43180000D03*
G04 #@! TD*
D12*
G04 #@! TO.P,U17,18*
G04 #@! TO.N,/5+*
X86360000Y-43180000D03*
G04 #@! TO.P,U17,9*
G04 #@! TO.N,/GND*
X78740000Y-63500000D03*
G04 #@! TO.P,U17,17*
G04 #@! TO.N,/X1*
X86360000Y-45720000D03*
G04 #@! TO.P,U17,8*
G04 #@! TO.N,/CLK*
X78740000Y-60960000D03*
G04 #@! TO.P,U17,16*
G04 #@! TO.N,/X2*
X86360000Y-48260000D03*
G04 #@! TO.P,U17,7*
G04 #@! TO.N,/5+*
X78740000Y-58420000D03*
G04 #@! TO.P,U17,15*
G04 #@! TO.N,/GND*
X86360000Y-50800000D03*
G04 #@! TO.P,U17,6*
X78740000Y-55880000D03*
G04 #@! TO.P,U17,14*
G04 #@! TO.N,Net-(U17-Pad14)*
X86360000Y-53340000D03*
G04 #@! TO.P,U17,5*
G04 #@! TO.N,/READY*
X78740000Y-53340000D03*
G04 #@! TO.P,U17,13*
G04 #@! TO.N,/GND*
X86360000Y-55880000D03*
G04 #@! TO.P,U17,4*
G04 #@! TO.N,/RDY1*
X78740000Y-50800000D03*
G04 #@! TO.P,U17,12*
G04 #@! TO.N,/OSC*
X86360000Y-58420000D03*
G04 #@! TO.P,U17,3*
G04 #@! TO.N,/GND*
X78740000Y-48260000D03*
G04 #@! TO.P,U17,11*
G04 #@! TO.N,/RESET*
X86360000Y-60960000D03*
G04 #@! TO.P,U17,2*
G04 #@! TO.N,/PCLK*
X78740000Y-45720000D03*
G04 #@! TO.P,U17,10*
G04 #@! TO.N,/RESOUT*
X86360000Y-63500000D03*
D14*
G04 #@! TO.P,U17,1*
G04 #@! TO.N,/GND*
X78740000Y-43180000D03*
G04 #@! TD*
D12*
G04 #@! TO.P,U16,16*
G04 #@! TO.N,/5+*
X142240000Y-43180000D03*
G04 #@! TO.P,U16,8*
G04 #@! TO.N,/GND*
X134620000Y-60960000D03*
G04 #@! TO.P,U16,15*
G04 #@! TO.N,Net-(U16-Pad15)*
X142240000Y-45720000D03*
G04 #@! TO.P,U16,7*
G04 #@! TO.N,/CS_ROM*
X134620000Y-58420000D03*
G04 #@! TO.P,U16,14*
G04 #@! TO.N,Net-(U16-Pad14)*
X142240000Y-48260000D03*
G04 #@! TO.P,U16,6*
G04 #@! TO.N,/5+*
X134620000Y-55880000D03*
G04 #@! TO.P,U16,13*
G04 #@! TO.N,Net-(U16-Pad13)*
X142240000Y-50800000D03*
G04 #@! TO.P,U16,5*
G04 #@! TO.N,/GND*
X134620000Y-53340000D03*
G04 #@! TO.P,U16,12*
G04 #@! TO.N,Net-(U16-Pad12)*
X142240000Y-53340000D03*
G04 #@! TO.P,U16,4*
G04 #@! TO.N,/UPPER_512K*
X134620000Y-50800000D03*
G04 #@! TO.P,U16,11*
G04 #@! TO.N,Net-(U16-Pad11)*
X142240000Y-55880000D03*
G04 #@! TO.P,U16,3*
G04 #@! TO.N,/A18*
X134620000Y-48260000D03*
G04 #@! TO.P,U16,10*
G04 #@! TO.N,Net-(U16-Pad10)*
X142240000Y-58420000D03*
G04 #@! TO.P,U16,2*
G04 #@! TO.N,/A17*
X134620000Y-45720000D03*
G04 #@! TO.P,U16,9*
G04 #@! TO.N,Net-(U16-Pad9)*
X142240000Y-60960000D03*
D14*
G04 #@! TO.P,U16,1*
G04 #@! TO.N,/A16*
X134620000Y-43180000D03*
G04 #@! TD*
D12*
G04 #@! TO.P,U15,28*
G04 #@! TO.N,/5+*
X149860000Y-96520000D03*
G04 #@! TO.P,U15,14*
G04 #@! TO.N,/GND*
X134620000Y-129540000D03*
G04 #@! TO.P,U15,27*
G04 #@! TO.N,/A14*
X149860000Y-99060000D03*
G04 #@! TO.P,U15,13*
G04 #@! TO.N,/D2*
X134620000Y-127000000D03*
G04 #@! TO.P,U15,26*
G04 #@! TO.N,/A13*
X149860000Y-101600000D03*
G04 #@! TO.P,U15,12*
G04 #@! TO.N,/D1*
X134620000Y-124460000D03*
G04 #@! TO.P,U15,25*
G04 #@! TO.N,/A8*
X149860000Y-104140000D03*
G04 #@! TO.P,U15,11*
G04 #@! TO.N,/D0*
X134620000Y-121920000D03*
G04 #@! TO.P,U15,24*
G04 #@! TO.N,/A9*
X149860000Y-106680000D03*
G04 #@! TO.P,U15,10*
G04 #@! TO.N,/A0*
X134620000Y-119380000D03*
G04 #@! TO.P,U15,23*
G04 #@! TO.N,/A11*
X149860000Y-109220000D03*
G04 #@! TO.P,U15,9*
G04 #@! TO.N,/A1*
X134620000Y-116840000D03*
G04 #@! TO.P,U15,22*
G04 #@! TO.N,/MRD*
X149860000Y-111760000D03*
G04 #@! TO.P,U15,8*
G04 #@! TO.N,/A2*
X134620000Y-114300000D03*
G04 #@! TO.P,U15,21*
G04 #@! TO.N,/A10*
X149860000Y-114300000D03*
G04 #@! TO.P,U15,7*
G04 #@! TO.N,/A3*
X134620000Y-111760000D03*
G04 #@! TO.P,U15,20*
G04 #@! TO.N,/CS_ROM*
X149860000Y-116840000D03*
G04 #@! TO.P,U15,6*
G04 #@! TO.N,/A4*
X134620000Y-109220000D03*
G04 #@! TO.P,U15,19*
G04 #@! TO.N,/D7*
X149860000Y-119380000D03*
G04 #@! TO.P,U15,5*
G04 #@! TO.N,/A5*
X134620000Y-106680000D03*
G04 #@! TO.P,U15,18*
G04 #@! TO.N,/D6*
X149860000Y-121920000D03*
G04 #@! TO.P,U15,4*
G04 #@! TO.N,/A6*
X134620000Y-104140000D03*
G04 #@! TO.P,U15,17*
G04 #@! TO.N,/D5*
X149860000Y-124460000D03*
G04 #@! TO.P,U15,3*
G04 #@! TO.N,/A7*
X134620000Y-101600000D03*
G04 #@! TO.P,U15,16*
G04 #@! TO.N,/D4*
X149860000Y-127000000D03*
G04 #@! TO.P,U15,2*
G04 #@! TO.N,/A12*
X134620000Y-99060000D03*
G04 #@! TO.P,U15,15*
G04 #@! TO.N,/D3*
X149860000Y-129540000D03*
D14*
G04 #@! TO.P,U15,1*
G04 #@! TO.N,/A15*
X134620000Y-96520000D03*
G04 #@! TD*
D12*
G04 #@! TO.P,U14,32*
G04 #@! TO.N,/5+*
X132080000Y-91440000D03*
G04 #@! TO.P,U14,16*
G04 #@! TO.N,/GND*
X116840000Y-129540000D03*
G04 #@! TO.P,U14,31*
G04 #@! TO.N,/A15*
X132080000Y-93980000D03*
G04 #@! TO.P,U14,15*
G04 #@! TO.N,/D2*
X116840000Y-127000000D03*
G04 #@! TO.P,U14,30*
G04 #@! TO.N,/5+*
X132080000Y-96520000D03*
G04 #@! TO.P,U14,14*
G04 #@! TO.N,/D1*
X116840000Y-124460000D03*
G04 #@! TO.P,U14,29*
G04 #@! TO.N,/MWR*
X132080000Y-99060000D03*
G04 #@! TO.P,U14,13*
G04 #@! TO.N,/D0*
X116840000Y-121920000D03*
G04 #@! TO.P,U14,28*
G04 #@! TO.N,/A13*
X132080000Y-101600000D03*
G04 #@! TO.P,U14,12*
G04 #@! TO.N,/A0*
X116840000Y-119380000D03*
G04 #@! TO.P,U14,27*
G04 #@! TO.N,/A8*
X132080000Y-104140000D03*
G04 #@! TO.P,U14,11*
G04 #@! TO.N,/A1*
X116840000Y-116840000D03*
G04 #@! TO.P,U14,26*
G04 #@! TO.N,/A9*
X132080000Y-106680000D03*
G04 #@! TO.P,U14,10*
G04 #@! TO.N,/A2*
X116840000Y-114300000D03*
G04 #@! TO.P,U14,25*
G04 #@! TO.N,/A11*
X132080000Y-109220000D03*
G04 #@! TO.P,U14,9*
G04 #@! TO.N,/A3*
X116840000Y-111760000D03*
G04 #@! TO.P,U14,24*
G04 #@! TO.N,/MRD*
X132080000Y-111760000D03*
G04 #@! TO.P,U14,8*
G04 #@! TO.N,/A4*
X116840000Y-109220000D03*
G04 #@! TO.P,U14,23*
G04 #@! TO.N,/A10*
X132080000Y-114300000D03*
G04 #@! TO.P,U14,7*
G04 #@! TO.N,/A5*
X116840000Y-106680000D03*
G04 #@! TO.P,U14,22*
G04 #@! TO.N,/CS_128K*
X132080000Y-116840000D03*
G04 #@! TO.P,U14,6*
G04 #@! TO.N,/A6*
X116840000Y-104140000D03*
G04 #@! TO.P,U14,21*
G04 #@! TO.N,/D7*
X132080000Y-119380000D03*
G04 #@! TO.P,U14,5*
G04 #@! TO.N,/A7*
X116840000Y-101600000D03*
G04 #@! TO.P,U14,20*
G04 #@! TO.N,/D6*
X132080000Y-121920000D03*
G04 #@! TO.P,U14,4*
G04 #@! TO.N,/A12*
X116840000Y-99060000D03*
G04 #@! TO.P,U14,19*
G04 #@! TO.N,/D5*
X132080000Y-124460000D03*
G04 #@! TO.P,U14,3*
G04 #@! TO.N,/A14*
X116840000Y-96520000D03*
G04 #@! TO.P,U14,18*
G04 #@! TO.N,/D4*
X132080000Y-127000000D03*
G04 #@! TO.P,U14,2*
G04 #@! TO.N,/A16*
X116840000Y-93980000D03*
G04 #@! TO.P,U14,17*
G04 #@! TO.N,/D3*
X132080000Y-129540000D03*
D14*
G04 #@! TO.P,U14,1*
G04 #@! TO.N,Net-(U14-Pad1)*
X116840000Y-91440000D03*
G04 #@! TD*
D12*
G04 #@! TO.P,U13,32*
G04 #@! TO.N,/5+*
X114300000Y-91440000D03*
G04 #@! TO.P,U13,16*
G04 #@! TO.N,/GND*
X99060000Y-129540000D03*
G04 #@! TO.P,U13,31*
G04 #@! TO.N,/A15*
X114300000Y-93980000D03*
G04 #@! TO.P,U13,15*
G04 #@! TO.N,/D2*
X99060000Y-127000000D03*
G04 #@! TO.P,U13,30*
G04 #@! TO.N,/A17*
X114300000Y-96520000D03*
G04 #@! TO.P,U13,14*
G04 #@! TO.N,/D1*
X99060000Y-124460000D03*
G04 #@! TO.P,U13,29*
G04 #@! TO.N,/MWR*
X114300000Y-99060000D03*
G04 #@! TO.P,U13,13*
G04 #@! TO.N,/D0*
X99060000Y-121920000D03*
G04 #@! TO.P,U13,28*
G04 #@! TO.N,/A13*
X114300000Y-101600000D03*
G04 #@! TO.P,U13,12*
G04 #@! TO.N,/A0*
X99060000Y-119380000D03*
G04 #@! TO.P,U13,27*
G04 #@! TO.N,/A8*
X114300000Y-104140000D03*
G04 #@! TO.P,U13,11*
G04 #@! TO.N,/A1*
X99060000Y-116840000D03*
G04 #@! TO.P,U13,26*
G04 #@! TO.N,/A9*
X114300000Y-106680000D03*
G04 #@! TO.P,U13,10*
G04 #@! TO.N,/A2*
X99060000Y-114300000D03*
G04 #@! TO.P,U13,25*
G04 #@! TO.N,/A11*
X114300000Y-109220000D03*
G04 #@! TO.P,U13,9*
G04 #@! TO.N,/A3*
X99060000Y-111760000D03*
G04 #@! TO.P,U13,24*
G04 #@! TO.N,/MRD*
X114300000Y-111760000D03*
G04 #@! TO.P,U13,8*
G04 #@! TO.N,/A4*
X99060000Y-109220000D03*
G04 #@! TO.P,U13,23*
G04 #@! TO.N,/A10*
X114300000Y-114300000D03*
G04 #@! TO.P,U13,7*
G04 #@! TO.N,/A5*
X99060000Y-106680000D03*
G04 #@! TO.P,U13,22*
G04 #@! TO.N,/CS_512K*
X114300000Y-116840000D03*
G04 #@! TO.P,U13,6*
G04 #@! TO.N,/A6*
X99060000Y-104140000D03*
G04 #@! TO.P,U13,21*
G04 #@! TO.N,/D7*
X114300000Y-119380000D03*
G04 #@! TO.P,U13,5*
G04 #@! TO.N,/A7*
X99060000Y-101600000D03*
G04 #@! TO.P,U13,20*
G04 #@! TO.N,/D6*
X114300000Y-121920000D03*
G04 #@! TO.P,U13,4*
G04 #@! TO.N,/A12*
X99060000Y-99060000D03*
G04 #@! TO.P,U13,19*
G04 #@! TO.N,/D5*
X114300000Y-124460000D03*
G04 #@! TO.P,U13,3*
G04 #@! TO.N,/A14*
X99060000Y-96520000D03*
G04 #@! TO.P,U13,18*
G04 #@! TO.N,/D4*
X114300000Y-127000000D03*
G04 #@! TO.P,U13,2*
G04 #@! TO.N,/A16*
X99060000Y-93980000D03*
G04 #@! TO.P,U13,17*
G04 #@! TO.N,/D3*
X114300000Y-129540000D03*
D14*
G04 #@! TO.P,U13,1*
G04 #@! TO.N,/A18*
X99060000Y-91440000D03*
G04 #@! TD*
D12*
G04 #@! TO.P,U12,16*
G04 #@! TO.N,/5+*
X132080000Y-43180000D03*
G04 #@! TO.P,U12,8*
G04 #@! TO.N,/GND*
X124460000Y-60960000D03*
G04 #@! TO.P,U12,15*
G04 #@! TO.N,/UPPER_512K*
X132080000Y-45720000D03*
G04 #@! TO.P,U12,7*
G04 #@! TO.N,Net-(U12-Pad7)*
X124460000Y-58420000D03*
G04 #@! TO.P,U12,14*
G04 #@! TO.N,/A17*
X132080000Y-48260000D03*
G04 #@! TO.P,U12,6*
G04 #@! TO.N,Net-(U12-Pad6)*
X124460000Y-55880000D03*
G04 #@! TO.P,U12,13*
G04 #@! TO.N,/A18*
X132080000Y-50800000D03*
G04 #@! TO.P,U12,5*
G04 #@! TO.N,/UPPER_512K*
X124460000Y-53340000D03*
G04 #@! TO.P,U12,12*
G04 #@! TO.N,/CS_128K*
X132080000Y-53340000D03*
G04 #@! TO.P,U12,4*
G04 #@! TO.N,/CS_512K*
X124460000Y-50800000D03*
G04 #@! TO.P,U12,11*
G04 #@! TO.N,Net-(U12-Pad11)*
X132080000Y-55880000D03*
G04 #@! TO.P,U12,3*
G04 #@! TO.N,/GND*
X124460000Y-48260000D03*
G04 #@! TO.P,U12,10*
G04 #@! TO.N,Net-(U12-Pad10)*
X132080000Y-58420000D03*
G04 #@! TO.P,U12,2*
G04 #@! TO.N,/A19*
X124460000Y-45720000D03*
G04 #@! TO.P,U12,9*
G04 #@! TO.N,Net-(U12-Pad9)*
X132080000Y-60960000D03*
D14*
G04 #@! TO.P,U12,1*
G04 #@! TO.N,/GND*
X124460000Y-43180000D03*
G04 #@! TD*
D12*
G04 #@! TO.P,U11,20*
G04 #@! TO.N,/5+*
X195580000Y-106680000D03*
G04 #@! TO.P,U11,10*
G04 #@! TO.N,/GND*
X187960000Y-129540000D03*
G04 #@! TO.P,U11,19*
G04 #@! TO.N,/A15*
X195580000Y-109220000D03*
G04 #@! TO.P,U11,9*
G04 #@! TO.N,/D0*
X187960000Y-127000000D03*
G04 #@! TO.P,U11,18*
G04 #@! TO.N,/A14*
X195580000Y-111760000D03*
G04 #@! TO.P,U11,8*
G04 #@! TO.N,/D1*
X187960000Y-124460000D03*
G04 #@! TO.P,U11,17*
G04 #@! TO.N,/A13*
X195580000Y-114300000D03*
G04 #@! TO.P,U11,7*
G04 #@! TO.N,/D2*
X187960000Y-121920000D03*
G04 #@! TO.P,U11,16*
G04 #@! TO.N,/A12*
X195580000Y-116840000D03*
G04 #@! TO.P,U11,6*
G04 #@! TO.N,/D3*
X187960000Y-119380000D03*
G04 #@! TO.P,U11,15*
G04 #@! TO.N,/A11*
X195580000Y-119380000D03*
G04 #@! TO.P,U11,5*
G04 #@! TO.N,/D4*
X187960000Y-116840000D03*
G04 #@! TO.P,U11,14*
G04 #@! TO.N,/A10*
X195580000Y-121920000D03*
G04 #@! TO.P,U11,4*
G04 #@! TO.N,/D5*
X187960000Y-114300000D03*
G04 #@! TO.P,U11,13*
G04 #@! TO.N,/A9*
X195580000Y-124460000D03*
G04 #@! TO.P,U11,3*
G04 #@! TO.N,/D6*
X187960000Y-111760000D03*
G04 #@! TO.P,U11,12*
G04 #@! TO.N,/A8*
X195580000Y-127000000D03*
G04 #@! TO.P,U11,2*
G04 #@! TO.N,/D7*
X187960000Y-109220000D03*
G04 #@! TO.P,U11,11*
G04 #@! TO.N,/ADSTB*
X195580000Y-129540000D03*
D14*
G04 #@! TO.P,U11,1*
G04 #@! TO.N,/AEN_OE*
X187960000Y-106680000D03*
G04 #@! TD*
D12*
G04 #@! TO.P,U10,40*
G04 #@! TO.N,/A7*
X215900000Y-43180000D03*
G04 #@! TO.P,U10,20*
G04 #@! TO.N,/GND*
X200660000Y-91440000D03*
G04 #@! TO.P,U10,39*
G04 #@! TO.N,/A6*
X215900000Y-45720000D03*
G04 #@! TO.P,U10,19*
G04 #@! TO.N,/DRQ0_*
X200660000Y-88900000D03*
G04 #@! TO.P,U10,38*
G04 #@! TO.N,/A5*
X215900000Y-48260000D03*
G04 #@! TO.P,U10,18*
G04 #@! TO.N,/DRQ1*
X200660000Y-86360000D03*
G04 #@! TO.P,U10,37*
G04 #@! TO.N,/A4*
X215900000Y-50800000D03*
G04 #@! TO.P,U10,17*
G04 #@! TO.N,/DRQ2*
X200660000Y-83820000D03*
G04 #@! TO.P,U10,36*
G04 #@! TO.N,/EOP*
X215900000Y-53340000D03*
G04 #@! TO.P,U10,16*
G04 #@! TO.N,/DRQ3*
X200660000Y-81280000D03*
G04 #@! TO.P,U10,35*
G04 #@! TO.N,/A3*
X215900000Y-55880000D03*
G04 #@! TO.P,U10,15*
G04 #@! TO.N,/DACK3*
X200660000Y-78740000D03*
G04 #@! TO.P,U10,34*
G04 #@! TO.N,/A2*
X215900000Y-58420000D03*
G04 #@! TO.P,U10,14*
G04 #@! TO.N,/DACK2*
X200660000Y-76200000D03*
G04 #@! TO.P,U10,33*
G04 #@! TO.N,/A1*
X215900000Y-60960000D03*
G04 #@! TO.P,U10,13*
G04 #@! TO.N,/RESOUT*
X200660000Y-73660000D03*
G04 #@! TO.P,U10,32*
G04 #@! TO.N,/A0*
X215900000Y-63500000D03*
G04 #@! TO.P,U10,12*
G04 #@! TO.N,/CLK88_1*
X200660000Y-71120000D03*
G04 #@! TO.P,U10,31*
G04 #@! TO.N,/5+*
X215900000Y-66040000D03*
G04 #@! TO.P,U10,11*
G04 #@! TO.N,/00_CS*
X200660000Y-68580000D03*
G04 #@! TO.P,U10,30*
G04 #@! TO.N,/D0*
X215900000Y-68580000D03*
G04 #@! TO.P,U10,10*
G04 #@! TO.N,/HOLD*
X200660000Y-66040000D03*
G04 #@! TO.P,U10,29*
G04 #@! TO.N,/D1*
X215900000Y-71120000D03*
G04 #@! TO.P,U10,9*
G04 #@! TO.N,/AEN*
X200660000Y-63500000D03*
G04 #@! TO.P,U10,28*
G04 #@! TO.N,/D2*
X215900000Y-73660000D03*
G04 #@! TO.P,U10,8*
G04 #@! TO.N,/ADSTB*
X200660000Y-60960000D03*
G04 #@! TO.P,U10,27*
G04 #@! TO.N,/D3*
X215900000Y-76200000D03*
G04 #@! TO.P,U10,7*
G04 #@! TO.N,/HOLDA*
X200660000Y-58420000D03*
G04 #@! TO.P,U10,26*
G04 #@! TO.N,/D4*
X215900000Y-78740000D03*
G04 #@! TO.P,U10,6*
G04 #@! TO.N,/READY*
X200660000Y-55880000D03*
G04 #@! TO.P,U10,25*
G04 #@! TO.N,/REFRQ*
X215900000Y-81280000D03*
G04 #@! TO.P,U10,5*
G04 #@! TO.N,/5+*
X200660000Y-53340000D03*
G04 #@! TO.P,U10,24*
G04 #@! TO.N,/DACK1*
X215900000Y-83820000D03*
G04 #@! TO.P,U10,4*
G04 #@! TO.N,/MWR*
X200660000Y-50800000D03*
G04 #@! TO.P,U10,23*
G04 #@! TO.N,/D5*
X215900000Y-86360000D03*
G04 #@! TO.P,U10,3*
G04 #@! TO.N,/MRD*
X200660000Y-48260000D03*
G04 #@! TO.P,U10,22*
G04 #@! TO.N,/D6*
X215900000Y-88900000D03*
G04 #@! TO.P,U10,2*
G04 #@! TO.N,/IOWR*
X200660000Y-45720000D03*
G04 #@! TO.P,U10,21*
G04 #@! TO.N,/D7*
X215900000Y-91440000D03*
D14*
G04 #@! TO.P,U10,1*
G04 #@! TO.N,/IORD*
X200660000Y-43180000D03*
G04 #@! TD*
D12*
G04 #@! TO.P,U9,28*
G04 #@! TO.N,/5+*
X121920000Y-43180000D03*
G04 #@! TO.P,U9,14*
G04 #@! TO.N,/GND*
X106680000Y-76200000D03*
G04 #@! TO.P,U9,27*
G04 #@! TO.N,/A14*
X121920000Y-45720000D03*
G04 #@! TO.P,U9,13*
G04 #@! TO.N,/40_CS*
X106680000Y-73660000D03*
G04 #@! TO.P,U9,26*
G04 #@! TO.N,/A13*
X121920000Y-48260000D03*
G04 #@! TO.P,U9,12*
G04 #@! TO.N,/20_CS*
X106680000Y-71120000D03*
G04 #@! TO.P,U9,25*
G04 #@! TO.N,/A8*
X121920000Y-50800000D03*
G04 #@! TO.P,U9,11*
G04 #@! TO.N,/00_CS*
X106680000Y-68580000D03*
G04 #@! TO.P,U9,24*
G04 #@! TO.N,/A9*
X121920000Y-53340000D03*
G04 #@! TO.P,U9,10*
G04 #@! TO.N,/A0*
X106680000Y-66040000D03*
G04 #@! TO.P,U9,23*
G04 #@! TO.N,/A11*
X121920000Y-55880000D03*
G04 #@! TO.P,U9,9*
G04 #@! TO.N,/A1*
X106680000Y-63500000D03*
G04 #@! TO.P,U9,22*
G04 #@! TO.N,/IOM_*
X121920000Y-58420000D03*
G04 #@! TO.P,U9,8*
G04 #@! TO.N,/A2*
X106680000Y-60960000D03*
G04 #@! TO.P,U9,21*
G04 #@! TO.N,/A10*
X121920000Y-60960000D03*
G04 #@! TO.P,U9,7*
G04 #@! TO.N,/A3*
X106680000Y-58420000D03*
G04 #@! TO.P,U9,20*
G04 #@! TO.N,/HOLDA*
X121920000Y-63500000D03*
G04 #@! TO.P,U9,6*
G04 #@! TO.N,/A4*
X106680000Y-55880000D03*
G04 #@! TO.P,U9,19*
G04 #@! TO.N,/E0_CS*
X121920000Y-66040000D03*
G04 #@! TO.P,U9,5*
G04 #@! TO.N,/A5*
X106680000Y-53340000D03*
G04 #@! TO.P,U9,18*
G04 #@! TO.N,Net-(U9-Pad18)*
X121920000Y-68580000D03*
G04 #@! TO.P,U9,4*
G04 #@! TO.N,/A6*
X106680000Y-50800000D03*
G04 #@! TO.P,U9,17*
G04 #@! TO.N,/80_CS*
X121920000Y-71120000D03*
G04 #@! TO.P,U9,3*
G04 #@! TO.N,/A7*
X106680000Y-48260000D03*
G04 #@! TO.P,U9,16*
G04 #@! TO.N,/61_CS*
X121920000Y-73660000D03*
G04 #@! TO.P,U9,2*
G04 #@! TO.N,/A12*
X106680000Y-45720000D03*
G04 #@! TO.P,U9,15*
G04 #@! TO.N,/60_CS*
X121920000Y-76200000D03*
D14*
G04 #@! TO.P,U9,1*
G04 #@! TO.N,/A15*
X106680000Y-43180000D03*
G04 #@! TD*
D12*
G04 #@! TO.P,U8,16*
G04 #@! TO.N,/5+*
X86360000Y-71120000D03*
G04 #@! TO.P,U8,8*
G04 #@! TO.N,/GND*
X78740000Y-88900000D03*
G04 #@! TO.P,U8,15*
G04 #@! TO.N,/HOLDA*
X86360000Y-73660000D03*
G04 #@! TO.P,U8,7*
G04 #@! TO.N,/IORD*
X78740000Y-86360000D03*
G04 #@! TO.P,U8,14*
G04 #@! TO.N,/PU1*
X86360000Y-76200000D03*
G04 #@! TO.P,U8,6*
G04 #@! TO.N,/RD*
X78740000Y-83820000D03*
G04 #@! TO.P,U8,13*
G04 #@! TO.N,/WR*
X86360000Y-78740000D03*
G04 #@! TO.P,U8,5*
G04 #@! TO.N,/PU1*
X78740000Y-81280000D03*
G04 #@! TO.P,U8,12*
G04 #@! TO.N,/IOWR*
X86360000Y-81280000D03*
G04 #@! TO.P,U8,4*
G04 #@! TO.N,/MRD*
X78740000Y-78740000D03*
G04 #@! TO.P,U8,11*
G04 #@! TO.N,/WR*
X86360000Y-83820000D03*
G04 #@! TO.P,U8,3*
G04 #@! TO.N,/PU1*
X78740000Y-76200000D03*
G04 #@! TO.P,U8,10*
X86360000Y-86360000D03*
G04 #@! TO.P,U8,2*
G04 #@! TO.N,/RD*
X78740000Y-73660000D03*
G04 #@! TO.P,U8,9*
G04 #@! TO.N,/MWR*
X86360000Y-88900000D03*
D14*
G04 #@! TO.P,U8,1*
G04 #@! TO.N,/IOM*
X78740000Y-71120000D03*
G04 #@! TD*
D12*
G04 #@! TO.P,U7,16*
G04 #@! TO.N,/5+*
X226060000Y-43180000D03*
G04 #@! TO.P,U7,8*
G04 #@! TO.N,/GND*
X218440000Y-60960000D03*
G04 #@! TO.P,U7,15*
G04 #@! TO.N,/D0*
X226060000Y-45720000D03*
G04 #@! TO.P,U7,7*
G04 #@! TO.N,/A18*
X218440000Y-58420000D03*
G04 #@! TO.P,U7,14*
G04 #@! TO.N,/A0*
X226060000Y-48260000D03*
G04 #@! TO.P,U7,6*
G04 #@! TO.N,/A19*
X218440000Y-55880000D03*
G04 #@! TO.P,U7,13*
G04 #@! TO.N,/A1*
X226060000Y-50800000D03*
G04 #@! TO.P,U7,5*
G04 #@! TO.N,/DACK3*
X218440000Y-53340000D03*
G04 #@! TO.P,U7,12*
G04 #@! TO.N,/760_WR*
X226060000Y-53340000D03*
G04 #@! TO.P,U7,4*
G04 #@! TO.N,/DACK2*
X218440000Y-50800000D03*
G04 #@! TO.P,U7,11*
G04 #@! TO.N,/AEN_OE*
X226060000Y-55880000D03*
G04 #@! TO.P,U7,3*
G04 #@! TO.N,/D3*
X218440000Y-48260000D03*
G04 #@! TO.P,U7,10*
G04 #@! TO.N,/A16*
X226060000Y-58420000D03*
G04 #@! TO.P,U7,2*
G04 #@! TO.N,/D2*
X218440000Y-45720000D03*
G04 #@! TO.P,U7,9*
G04 #@! TO.N,/A17*
X226060000Y-60960000D03*
D14*
G04 #@! TO.P,U7,1*
G04 #@! TO.N,/D1*
X218440000Y-43180000D03*
G04 #@! TD*
D12*
G04 #@! TO.P,U6,28*
G04 #@! TO.N,/5+*
X167640000Y-96520000D03*
G04 #@! TO.P,U6,14*
G04 #@! TO.N,/GND*
X152400000Y-129540000D03*
G04 #@! TO.P,U6,27*
G04 #@! TO.N,/A0*
X167640000Y-99060000D03*
G04 #@! TO.P,U6,13*
G04 #@! TO.N,Net-(U6-Pad13)*
X152400000Y-127000000D03*
G04 #@! TO.P,U6,26*
G04 #@! TO.N,/INTA*
X167640000Y-101600000D03*
G04 #@! TO.P,U6,12*
G04 #@! TO.N,Net-(U6-Pad12)*
X152400000Y-124460000D03*
G04 #@! TO.P,U6,25*
G04 #@! TO.N,/IRQ7*
X167640000Y-104140000D03*
G04 #@! TO.P,U6,11*
G04 #@! TO.N,/D0*
X152400000Y-121920000D03*
G04 #@! TO.P,U6,24*
G04 #@! TO.N,/IRQ6*
X167640000Y-106680000D03*
G04 #@! TO.P,U6,10*
G04 #@! TO.N,/D1*
X152400000Y-119380000D03*
G04 #@! TO.P,U6,23*
G04 #@! TO.N,/IRQ5*
X167640000Y-109220000D03*
G04 #@! TO.P,U6,9*
G04 #@! TO.N,/D2*
X152400000Y-116840000D03*
G04 #@! TO.P,U6,22*
G04 #@! TO.N,/IRQ4*
X167640000Y-111760000D03*
G04 #@! TO.P,U6,8*
G04 #@! TO.N,/D3*
X152400000Y-114300000D03*
G04 #@! TO.P,U6,21*
G04 #@! TO.N,/IRQ3*
X167640000Y-114300000D03*
G04 #@! TO.P,U6,7*
G04 #@! TO.N,/D4*
X152400000Y-111760000D03*
G04 #@! TO.P,U6,20*
G04 #@! TO.N,/IRQ2*
X167640000Y-116840000D03*
G04 #@! TO.P,U6,6*
G04 #@! TO.N,/D5*
X152400000Y-109220000D03*
G04 #@! TO.P,U6,19*
G04 #@! TO.N,/IRQ1*
X167640000Y-119380000D03*
G04 #@! TO.P,U6,5*
G04 #@! TO.N,/D6*
X152400000Y-106680000D03*
G04 #@! TO.P,U6,18*
G04 #@! TO.N,/IRQ0*
X167640000Y-121920000D03*
G04 #@! TO.P,U6,4*
G04 #@! TO.N,/D7*
X152400000Y-104140000D03*
G04 #@! TO.P,U6,17*
G04 #@! TO.N,/INTR*
X167640000Y-124460000D03*
G04 #@! TO.P,U6,3*
G04 #@! TO.N,/IORD*
X152400000Y-101600000D03*
G04 #@! TO.P,U6,16*
G04 #@! TO.N,/5+*
X167640000Y-127000000D03*
G04 #@! TO.P,U6,2*
G04 #@! TO.N,/IOWR*
X152400000Y-99060000D03*
G04 #@! TO.P,U6,15*
G04 #@! TO.N,Net-(U6-Pad15)*
X167640000Y-129540000D03*
D14*
G04 #@! TO.P,U6,1*
G04 #@! TO.N,/20_CS*
X152400000Y-96520000D03*
G04 #@! TD*
D12*
G04 #@! TO.P,U5,24*
G04 #@! TO.N,/5+*
X185420000Y-101600000D03*
G04 #@! TO.P,U5,12*
G04 #@! TO.N,/GND*
X170180000Y-129540000D03*
G04 #@! TO.P,U5,23*
G04 #@! TO.N,/IOWR*
X185420000Y-104140000D03*
G04 #@! TO.P,U5,11*
G04 #@! TO.N,/5+*
X170180000Y-127000000D03*
G04 #@! TO.P,U5,22*
G04 #@! TO.N,/IORD*
X185420000Y-106680000D03*
G04 #@! TO.P,U5,10*
G04 #@! TO.N,/IRQ0*
X170180000Y-124460000D03*
G04 #@! TO.P,U5,21*
G04 #@! TO.N,/40_CS*
X185420000Y-109220000D03*
G04 #@! TO.P,U5,9*
G04 #@! TO.N,/HF_PCLK*
X170180000Y-121920000D03*
G04 #@! TO.P,U5,20*
G04 #@! TO.N,/A1*
X185420000Y-111760000D03*
G04 #@! TO.P,U5,8*
G04 #@! TO.N,/D0*
X170180000Y-119380000D03*
G04 #@! TO.P,U5,19*
G04 #@! TO.N,/A0*
X185420000Y-114300000D03*
G04 #@! TO.P,U5,7*
G04 #@! TO.N,/D1*
X170180000Y-116840000D03*
G04 #@! TO.P,U5,18*
G04 #@! TO.N,/HF_PCLK*
X185420000Y-116840000D03*
G04 #@! TO.P,U5,6*
G04 #@! TO.N,/D2*
X170180000Y-114300000D03*
G04 #@! TO.P,U5,17*
G04 #@! TO.N,/SPK_OUT*
X185420000Y-119380000D03*
G04 #@! TO.P,U5,5*
G04 #@! TO.N,/D3*
X170180000Y-111760000D03*
G04 #@! TO.P,U5,16*
G04 #@! TO.N,/SPK_GO*
X185420000Y-121920000D03*
G04 #@! TO.P,U5,4*
G04 #@! TO.N,/D4*
X170180000Y-109220000D03*
G04 #@! TO.P,U5,15*
G04 #@! TO.N,/HF_PCLK*
X185420000Y-124460000D03*
G04 #@! TO.P,U5,3*
G04 #@! TO.N,/D5*
X170180000Y-106680000D03*
G04 #@! TO.P,U5,14*
G04 #@! TO.N,/5+*
X185420000Y-127000000D03*
G04 #@! TO.P,U5,2*
G04 #@! TO.N,/D6*
X170180000Y-104140000D03*
G04 #@! TO.P,U5,13*
G04 #@! TO.N,/DRQ0*
X185420000Y-129540000D03*
D14*
G04 #@! TO.P,U5,1*
G04 #@! TO.N,/D7*
X170180000Y-101600000D03*
G04 #@! TD*
D12*
G04 #@! TO.P,U4,20*
G04 #@! TO.N,/5+*
X86360000Y-99060000D03*
G04 #@! TO.P,U4,10*
G04 #@! TO.N,/GND*
X78740000Y-121920000D03*
G04 #@! TO.P,U4,19*
G04 #@! TO.N,/DEN*
X86360000Y-101600000D03*
G04 #@! TO.P,U4,9*
G04 #@! TO.N,/AD0*
X78740000Y-119380000D03*
G04 #@! TO.P,U4,18*
G04 #@! TO.N,/D7*
X86360000Y-104140000D03*
G04 #@! TO.P,U4,8*
G04 #@! TO.N,/AD1*
X78740000Y-116840000D03*
G04 #@! TO.P,U4,17*
G04 #@! TO.N,/D6*
X86360000Y-106680000D03*
G04 #@! TO.P,U4,7*
G04 #@! TO.N,/AD2*
X78740000Y-114300000D03*
G04 #@! TO.P,U4,16*
G04 #@! TO.N,/D5*
X86360000Y-109220000D03*
G04 #@! TO.P,U4,6*
G04 #@! TO.N,/AD3*
X78740000Y-111760000D03*
G04 #@! TO.P,U4,15*
G04 #@! TO.N,/D4*
X86360000Y-111760000D03*
G04 #@! TO.P,U4,5*
G04 #@! TO.N,/AD4*
X78740000Y-109220000D03*
G04 #@! TO.P,U4,14*
G04 #@! TO.N,/D3*
X86360000Y-114300000D03*
G04 #@! TO.P,U4,4*
G04 #@! TO.N,/AD5*
X78740000Y-106680000D03*
G04 #@! TO.P,U4,13*
G04 #@! TO.N,/D2*
X86360000Y-116840000D03*
G04 #@! TO.P,U4,3*
G04 #@! TO.N,/AD6*
X78740000Y-104140000D03*
G04 #@! TO.P,U4,12*
G04 #@! TO.N,/D1*
X86360000Y-119380000D03*
G04 #@! TO.P,U4,2*
G04 #@! TO.N,/AD7*
X78740000Y-101600000D03*
G04 #@! TO.P,U4,11*
G04 #@! TO.N,/D0*
X86360000Y-121920000D03*
D14*
G04 #@! TO.P,U4,1*
G04 #@! TO.N,/DTR*
X78740000Y-99060000D03*
G04 #@! TD*
D12*
G04 #@! TO.P,U3,20*
G04 #@! TO.N,/5+*
X96520000Y-68580000D03*
G04 #@! TO.P,U3,10*
G04 #@! TO.N,/GND*
X88900000Y-91440000D03*
G04 #@! TO.P,U3,19*
G04 #@! TO.N,Net-(U3-Pad19)*
X96520000Y-71120000D03*
G04 #@! TO.P,U3,9*
G04 #@! TO.N,/A19_*
X88900000Y-88900000D03*
G04 #@! TO.P,U3,18*
G04 #@! TO.N,Net-(U3-Pad18)*
X96520000Y-73660000D03*
G04 #@! TO.P,U3,8*
G04 #@! TO.N,/A18_*
X88900000Y-86360000D03*
G04 #@! TO.P,U3,17*
G04 #@! TO.N,Net-(U3-Pad17)*
X96520000Y-76200000D03*
G04 #@! TO.P,U3,7*
G04 #@! TO.N,/A17_*
X88900000Y-83820000D03*
G04 #@! TO.P,U3,16*
G04 #@! TO.N,Net-(U3-Pad16)*
X96520000Y-78740000D03*
G04 #@! TO.P,U3,6*
G04 #@! TO.N,/A16_*
X88900000Y-81280000D03*
G04 #@! TO.P,U3,15*
G04 #@! TO.N,/A16*
X96520000Y-81280000D03*
G04 #@! TO.P,U3,5*
G04 #@! TO.N,Net-(U3-Pad5)*
X88900000Y-78740000D03*
G04 #@! TO.P,U3,14*
G04 #@! TO.N,/A17*
X96520000Y-83820000D03*
G04 #@! TO.P,U3,4*
G04 #@! TO.N,Net-(U3-Pad4)*
X88900000Y-76200000D03*
G04 #@! TO.P,U3,13*
G04 #@! TO.N,/A18*
X96520000Y-86360000D03*
G04 #@! TO.P,U3,3*
G04 #@! TO.N,Net-(U3-Pad3)*
X88900000Y-73660000D03*
G04 #@! TO.P,U3,12*
G04 #@! TO.N,/A19*
X96520000Y-88900000D03*
G04 #@! TO.P,U3,2*
G04 #@! TO.N,Net-(U3-Pad2)*
X88900000Y-71120000D03*
G04 #@! TO.P,U3,11*
G04 #@! TO.N,/ALE*
X96520000Y-91440000D03*
D14*
G04 #@! TO.P,U3,1*
G04 #@! TO.N,/HOLDA*
X88900000Y-68580000D03*
G04 #@! TD*
D12*
G04 #@! TO.P,U2,20*
G04 #@! TO.N,/5+*
X96520000Y-99060000D03*
G04 #@! TO.P,U2,10*
G04 #@! TO.N,/GND*
X88900000Y-121920000D03*
G04 #@! TO.P,U2,19*
G04 #@! TO.N,/A7*
X96520000Y-101600000D03*
G04 #@! TO.P,U2,9*
G04 #@! TO.N,/AD0*
X88900000Y-119380000D03*
G04 #@! TO.P,U2,18*
G04 #@! TO.N,/A6*
X96520000Y-104140000D03*
G04 #@! TO.P,U2,8*
G04 #@! TO.N,/AD1*
X88900000Y-116840000D03*
G04 #@! TO.P,U2,17*
G04 #@! TO.N,/A5*
X96520000Y-106680000D03*
G04 #@! TO.P,U2,7*
G04 #@! TO.N,/AD2*
X88900000Y-114300000D03*
G04 #@! TO.P,U2,16*
G04 #@! TO.N,/A4*
X96520000Y-109220000D03*
G04 #@! TO.P,U2,6*
G04 #@! TO.N,/AD3*
X88900000Y-111760000D03*
G04 #@! TO.P,U2,15*
G04 #@! TO.N,/A3*
X96520000Y-111760000D03*
G04 #@! TO.P,U2,5*
G04 #@! TO.N,/AD4*
X88900000Y-109220000D03*
G04 #@! TO.P,U2,14*
G04 #@! TO.N,/A2*
X96520000Y-114300000D03*
G04 #@! TO.P,U2,4*
G04 #@! TO.N,/AD5*
X88900000Y-106680000D03*
G04 #@! TO.P,U2,13*
G04 #@! TO.N,/A1*
X96520000Y-116840000D03*
G04 #@! TO.P,U2,3*
G04 #@! TO.N,/AD6*
X88900000Y-104140000D03*
G04 #@! TO.P,U2,12*
G04 #@! TO.N,/A0*
X96520000Y-119380000D03*
G04 #@! TO.P,U2,2*
G04 #@! TO.N,/AD7*
X88900000Y-101600000D03*
G04 #@! TO.P,U2,11*
G04 #@! TO.N,/ALE*
X96520000Y-121920000D03*
D14*
G04 #@! TO.P,U2,1*
G04 #@! TO.N,/HOLDA*
X88900000Y-99060000D03*
G04 #@! TD*
D12*
G04 #@! TO.P,U1,40*
G04 #@! TO.N,/5+*
X76200000Y-83820000D03*
G04 #@! TO.P,U1,20*
G04 #@! TO.N,/GND*
X60960000Y-132080000D03*
G04 #@! TO.P,U1,39*
G04 #@! TO.N,/A15*
X76200000Y-86360000D03*
G04 #@! TO.P,U1,19*
G04 #@! TO.N,/CLK_88*
X60960000Y-129540000D03*
G04 #@! TO.P,U1,38*
G04 #@! TO.N,/A16_*
X76200000Y-88900000D03*
G04 #@! TO.P,U1,18*
G04 #@! TO.N,/INTR*
X60960000Y-127000000D03*
G04 #@! TO.P,U1,37*
G04 #@! TO.N,/A17_*
X76200000Y-91440000D03*
G04 #@! TO.P,U1,17*
G04 #@! TO.N,/NMI*
X60960000Y-124460000D03*
G04 #@! TO.P,U1,36*
G04 #@! TO.N,/A18_*
X76200000Y-93980000D03*
G04 #@! TO.P,U1,16*
G04 #@! TO.N,/AD0*
X60960000Y-121920000D03*
G04 #@! TO.P,U1,35*
G04 #@! TO.N,/A19_*
X76200000Y-96520000D03*
G04 #@! TO.P,U1,15*
G04 #@! TO.N,/AD1*
X60960000Y-119380000D03*
G04 #@! TO.P,U1,34*
G04 #@! TO.N,Net-(U1-Pad34)*
X76200000Y-99060000D03*
G04 #@! TO.P,U1,14*
G04 #@! TO.N,/AD2*
X60960000Y-116840000D03*
G04 #@! TO.P,U1,33*
G04 #@! TO.N,/5+*
X76200000Y-101600000D03*
G04 #@! TO.P,U1,13*
G04 #@! TO.N,/AD3*
X60960000Y-114300000D03*
G04 #@! TO.P,U1,32*
G04 #@! TO.N,/RD*
X76200000Y-104140000D03*
G04 #@! TO.P,U1,12*
G04 #@! TO.N,/AD4*
X60960000Y-111760000D03*
G04 #@! TO.P,U1,31*
G04 #@! TO.N,/HOLD*
X76200000Y-106680000D03*
G04 #@! TO.P,U1,11*
G04 #@! TO.N,/AD5*
X60960000Y-109220000D03*
G04 #@! TO.P,U1,30*
G04 #@! TO.N,/HOLDA*
X76200000Y-109220000D03*
G04 #@! TO.P,U1,10*
G04 #@! TO.N,/AD6*
X60960000Y-106680000D03*
G04 #@! TO.P,U1,29*
G04 #@! TO.N,/WR*
X76200000Y-111760000D03*
G04 #@! TO.P,U1,9*
G04 #@! TO.N,/AD7*
X60960000Y-104140000D03*
G04 #@! TO.P,U1,28*
G04 #@! TO.N,/IOM*
X76200000Y-114300000D03*
G04 #@! TO.P,U1,8*
G04 #@! TO.N,/A8*
X60960000Y-101600000D03*
G04 #@! TO.P,U1,27*
G04 #@! TO.N,/DTR*
X76200000Y-116840000D03*
G04 #@! TO.P,U1,7*
G04 #@! TO.N,/A9*
X60960000Y-99060000D03*
G04 #@! TO.P,U1,26*
G04 #@! TO.N,/DEN*
X76200000Y-119380000D03*
G04 #@! TO.P,U1,6*
G04 #@! TO.N,/A10*
X60960000Y-96520000D03*
G04 #@! TO.P,U1,25*
G04 #@! TO.N,/ALE*
X76200000Y-121920000D03*
G04 #@! TO.P,U1,5*
G04 #@! TO.N,/A11*
X60960000Y-93980000D03*
G04 #@! TO.P,U1,24*
G04 #@! TO.N,/INTA*
X76200000Y-124460000D03*
G04 #@! TO.P,U1,4*
G04 #@! TO.N,/A12*
X60960000Y-91440000D03*
G04 #@! TO.P,U1,23*
G04 #@! TO.N,/GND*
X76200000Y-127000000D03*
G04 #@! TO.P,U1,3*
G04 #@! TO.N,/A13*
X60960000Y-88900000D03*
G04 #@! TO.P,U1,22*
G04 #@! TO.N,/READY1*
X76200000Y-129540000D03*
G04 #@! TO.P,U1,2*
G04 #@! TO.N,/A14*
X60960000Y-86360000D03*
G04 #@! TO.P,U1,21*
G04 #@! TO.N,/RESET1*
X76200000Y-132080000D03*
D14*
G04 #@! TO.P,U1,1*
G04 #@! TO.N,/GND*
X60960000Y-83820000D03*
G04 #@! TD*
D20*
G04 #@! TO.P,SW1,1*
G04 #@! TO.N,/GND*
X64952000Y-65786000D03*
G04 #@! TO.P,SW1,2*
G04 #@! TO.N,/RESET*
X60452000Y-65786000D03*
G04 #@! TO.P,SW1,1*
G04 #@! TO.N,/GND*
X64952000Y-59286000D03*
G04 #@! TO.P,SW1,2*
G04 #@! TO.N,/RESET*
X60452000Y-59286000D03*
G04 #@! TD*
D21*
G04 #@! TO.P,C123,2*
G04 #@! TO.N,/GND*
X61976000Y-53848000D03*
D22*
G04 #@! TO.P,C123,1*
G04 #@! TO.N,/RESET*
X60476000Y-53848000D03*
G04 #@! TD*
D23*
G04 #@! TO.P,J2,*
G04 #@! TO.N,*
X230632000Y-82143600D03*
X230632000Y-95656400D03*
D24*
X231444800Y-88900000D03*
D25*
G04 #@! TO.P,J2,6*
G04 #@! TO.N,Net-(J2-Pad6)*
X225145600Y-92303600D03*
G04 #@! TO.P,J2,5*
G04 #@! TO.N,/T0*
X225145600Y-85496400D03*
G04 #@! TO.P,J2,2*
G04 #@! TO.N,Net-(J2-Pad2)*
X227634800Y-90195400D03*
G04 #@! TO.P,J2,1*
G04 #@! TO.N,/T1*
X227634800Y-87604600D03*
G04 #@! TO.P,J2,4*
G04 #@! TO.N,/5+*
X227634800Y-92303600D03*
G04 #@! TO.P,J2,3*
G04 #@! TO.N,/GND*
X227634800Y-85496400D03*
G04 #@! TD*
D10*
G04 #@! TO.P,R,1*
G04 #@! TO.N,/GND*
X230886000Y-133223000D03*
G04 #@! TD*
D26*
G04 #@! TO.N,/A15*
X107188000Y-87630000D03*
X107188000Y-93472000D03*
X108204000Y-43688000D03*
X171958000Y-136144000D03*
X172720000Y-108712000D03*
X172720000Y-98552000D03*
G04 #@! TO.N,/CLK88*
X163322000Y-134620000D03*
G04 #@! TO.N,/A16_*
X90678000Y-86868000D03*
X90678000Y-80772000D03*
G04 #@! TO.N,/INTR*
X162306000Y-124968000D03*
X162306000Y-128270000D03*
G04 #@! TO.N,/A17_*
X91440000Y-89408000D03*
X91440000Y-83312000D03*
G04 #@! TO.N,/A18_*
X92202000Y-91694000D03*
X92202000Y-85852000D03*
G04 #@! TO.N,/A19_*
X87376000Y-94488000D03*
G04 #@! TO.N,/RD*
X74422000Y-85090000D03*
X74422000Y-104648000D03*
X80518000Y-84328000D03*
X80518000Y-74168000D03*
G04 #@! TO.N,/HOLD*
X72136000Y-107188000D03*
X125476000Y-65532000D03*
X72136000Y-65532006D03*
X72136000Y-125730000D03*
G04 #@! TO.N,/HOLDA*
X94234000Y-109728000D03*
X94234000Y-69088000D03*
X94234000Y-99568000D03*
X117348000Y-62992000D03*
X94234000Y-74930000D03*
X117348000Y-70612000D03*
X117348000Y-67310000D03*
X187960000Y-67818000D03*
X202438000Y-66548000D03*
X202438000Y-58928000D03*
G04 #@! TO.N,/WR*
X73660000Y-82550000D03*
X73660000Y-112268000D03*
X84582000Y-78232000D03*
X84582000Y-83312000D03*
G04 #@! TO.N,/IOM*
X72898000Y-71628000D03*
X72898000Y-114808000D03*
X112776000Y-73152000D03*
X112776000Y-69850000D03*
X138938000Y-45212000D03*
X138938000Y-69850000D03*
G04 #@! TO.N,/A8*
X154178000Y-136144000D03*
X119634000Y-50292000D03*
X154940000Y-104648000D03*
X120142000Y-103632000D03*
X154940000Y-126746000D03*
G04 #@! TO.N,/DTR*
X80518000Y-115570000D03*
X80518000Y-99314000D03*
G04 #@! TO.N,/A9*
X62992000Y-99568000D03*
X156718000Y-136144000D03*
X62992000Y-104648000D03*
X120396000Y-52832000D03*
X156464000Y-107188000D03*
X120904000Y-106172000D03*
X156718000Y-123952000D03*
G04 #@! TO.N,/DEN*
X84074000Y-118110000D03*
X84074000Y-101092000D03*
G04 #@! TO.N,/A10*
X63754000Y-97028000D03*
X63754000Y-113030000D03*
X159258000Y-136144000D03*
X112014000Y-60452000D03*
X159258000Y-114808000D03*
X159258000Y-120650000D03*
X111760000Y-113792000D03*
G04 #@! TO.N,/ALE*
X94996000Y-123190000D03*
X94996000Y-91948000D03*
X142240000Y-123190000D03*
G04 #@! TO.N,/A11*
X64516000Y-107950000D03*
X64516000Y-94488000D03*
X161798000Y-136144000D03*
X111252000Y-55372000D03*
X111760000Y-108712000D03*
X161798000Y-110236000D03*
X161798000Y-118110000D03*
G04 #@! TO.N,/INTA*
X163068000Y-125730000D03*
X163068000Y-101346000D03*
G04 #@! TO.N,/A12*
X110490000Y-46228000D03*
X110998000Y-99568000D03*
X110998000Y-92710000D03*
X164338000Y-136144000D03*
X164338000Y-99568000D03*
X164338000Y-115570000D03*
G04 #@! TO.N,/A13*
X166878000Y-136144000D03*
X65278000Y-99568000D03*
X65278000Y-89408000D03*
X109728000Y-47752000D03*
X110236000Y-101092000D03*
X165862000Y-102108000D03*
X165862000Y-112268000D03*
G04 #@! TO.N,/A14*
X62992000Y-95250000D03*
X62992000Y-86868000D03*
X108966000Y-45212000D03*
X171958000Y-100330000D03*
X171958000Y-111252000D03*
X169418000Y-136144000D03*
X107442000Y-97028000D03*
G04 #@! TO.N,/RESET*
X175006000Y-62230000D03*
X175006000Y-49530000D03*
X60452000Y-62230000D03*
X62484000Y-62230000D03*
G04 #@! TO.N,/A0*
X135382000Y-136144000D03*
X136144000Y-119888000D03*
X100838000Y-119888000D03*
X100838000Y-66548000D03*
X213614000Y-62992000D03*
X178054000Y-109474000D03*
X178054000Y-99568000D03*
X213614002Y-91948000D03*
X136144000Y-91948000D03*
X178054000Y-91948000D03*
X213614000Y-46990000D03*
G04 #@! TO.N,/A1*
X136398000Y-136144000D03*
X101600000Y-117348000D03*
X136906000Y-117348000D03*
X101600000Y-64008000D03*
X212852002Y-89408000D03*
X212852000Y-60452000D03*
X178816000Y-107696000D03*
X136906000Y-88646000D03*
X178816000Y-88646000D03*
X212852000Y-49530000D03*
G04 #@! TO.N,/A2*
X138938000Y-136144000D03*
X102362000Y-114808000D03*
X138938000Y-114808000D03*
X102362000Y-61468000D03*
X212090002Y-87122000D03*
X212090000Y-58166000D03*
X138938000Y-86868000D03*
X212090000Y-51308000D03*
X227838000Y-57912000D03*
X227838000Y-60452000D03*
G04 #@! TO.N,/A3*
X141478000Y-136144000D03*
X141478000Y-112268000D03*
X103124000Y-59944000D03*
X103124000Y-112268000D03*
X211328002Y-84328000D03*
X211328000Y-55372000D03*
X141478000Y-84328000D03*
G04 #@! TO.N,/A4*
X144018000Y-136144000D03*
X144018000Y-109728000D03*
X103886000Y-109728000D03*
X103886000Y-62992000D03*
X112776000Y-56388000D03*
X112776000Y-62992000D03*
X209804000Y-50292000D03*
X209804000Y-81788000D03*
X144018000Y-81534000D03*
G04 #@! TO.N,/A5*
X146558000Y-136144000D03*
X146558000Y-107188000D03*
X104648000Y-107188000D03*
X104648000Y-65532000D03*
X113538000Y-53848000D03*
X113538000Y-65532000D03*
X209042000Y-47752000D03*
X208534000Y-79248000D03*
X147320000Y-79756000D03*
G04 #@! TO.N,/A6*
X149098000Y-136144000D03*
X148082000Y-104648000D03*
X119380000Y-104648000D03*
X118872006Y-51308000D03*
X208280000Y-45212000D03*
X207772000Y-77470000D03*
X148844000Y-77470000D03*
G04 #@! TO.N,/A7*
X154178000Y-102108000D03*
X118618000Y-102108000D03*
X118109988Y-48768000D03*
X151638000Y-136144000D03*
X207518000Y-42672000D03*
X207010000Y-74930000D03*
X154178000Y-74168000D03*
G04 #@! TO.N,/A16*
X130302000Y-43688000D03*
X130302000Y-94488000D03*
X106426000Y-94488000D03*
X106426000Y-80772000D03*
X174498000Y-136144000D03*
X130302000Y-86614000D03*
X174498000Y-87630000D03*
X174498000Y-96266000D03*
X211328000Y-59944000D03*
X211328000Y-96266000D03*
G04 #@! TO.N,/A17*
X129540000Y-47752000D03*
X105664000Y-96012000D03*
X105664000Y-83312000D03*
X129540000Y-95250000D03*
X177038000Y-136144000D03*
X129540000Y-85090000D03*
X177038000Y-85090000D03*
X177038000Y-95504000D03*
X212344000Y-61722000D03*
X212598000Y-95504000D03*
G04 #@! TO.N,/A18*
X128778000Y-50292000D03*
X128778000Y-92710000D03*
X99568000Y-85852000D03*
X179578000Y-136144000D03*
X179578000Y-91440000D03*
X179578000Y-94742000D03*
X210566000Y-58166000D03*
X210820000Y-94742000D03*
G04 #@! TO.N,/A19*
X125730000Y-89916000D03*
X126238000Y-46228000D03*
X182118000Y-136144000D03*
X181356000Y-91186000D03*
X181610000Y-93980000D03*
X210058000Y-93980000D03*
X210566000Y-56388000D03*
G04 #@! TO.N,/D0*
X189738000Y-136144000D03*
X189738000Y-127508000D03*
X189230000Y-56134000D03*
X224536000Y-45212000D03*
X189230000Y-67818000D03*
X223774000Y-68072000D03*
X224536000Y-52070000D03*
G04 #@! TO.N,/D1*
X192278000Y-136144000D03*
X192278000Y-124968000D03*
X102616000Y-124968000D03*
X102616000Y-118110000D03*
X125222000Y-124968000D03*
X125222000Y-120650000D03*
X192278000Y-70612000D03*
X190500000Y-57150000D03*
X223774000Y-43688000D03*
X223012000Y-69596000D03*
X223774000Y-54610000D03*
G04 #@! TO.N,/D2*
X194818000Y-136144000D03*
X193548000Y-122428000D03*
X103378000Y-127508000D03*
X103378000Y-115570000D03*
X125984000Y-118110000D03*
X125984000Y-127508000D03*
X193548000Y-73152000D03*
X191262000Y-58674000D03*
X223012000Y-46228000D03*
X222758000Y-73151994D03*
X223012000Y-57150000D03*
G04 #@! TO.N,/D3*
X197358000Y-136144000D03*
X199644000Y-119888000D03*
X104140000Y-113030000D03*
X104140000Y-129031994D03*
X126746000Y-115570000D03*
X126746000Y-129032000D03*
X198374000Y-59690000D03*
X222250000Y-48768000D03*
X198120000Y-75692000D03*
X221996000Y-75692000D03*
X221996016Y-59689984D03*
G04 #@! TO.N,/D4*
X199898000Y-136144000D03*
X200406000Y-117348000D03*
X104902000Y-110490000D03*
X104865010Y-126492000D03*
X127508000Y-113030000D03*
X127508000Y-126492000D03*
X198882000Y-68326000D03*
X180340000Y-68326000D03*
X198882000Y-78232000D03*
X198882000Y-70612000D03*
X225044000Y-62738000D03*
X224790000Y-70358000D03*
G04 #@! TO.N,/D5*
X202438000Y-136144000D03*
X202438000Y-114808000D03*
X105664000Y-107950000D03*
X105627010Y-123952000D03*
X128270000Y-110490000D03*
X128270000Y-123952000D03*
X202438000Y-85852000D03*
X181610000Y-85090000D03*
X202438000Y-71628000D03*
X225552000Y-72390000D03*
X225552000Y-64770000D03*
G04 #@! TO.N,/D6*
X204978000Y-136144000D03*
X203708000Y-112268000D03*
X106426000Y-105410000D03*
X106389010Y-121412000D03*
X129032000Y-107950000D03*
X129032000Y-121412000D03*
X203708000Y-88392000D03*
X182880000Y-87630000D03*
X203200000Y-75692000D03*
X226314000Y-67310000D03*
X226314000Y-76454000D03*
G04 #@! TO.N,/D7*
X207518000Y-136144000D03*
X209804000Y-109728000D03*
X107188000Y-118872000D03*
X107188000Y-102870000D03*
X129794000Y-105410000D03*
X129794000Y-118872000D03*
X209804000Y-90932000D03*
X184150000Y-90170000D03*
X205994000Y-90932000D03*
X205994000Y-78232000D03*
X227076000Y-69850000D03*
X227076000Y-78232000D03*
G04 #@! TO.N,/MWR*
X108458000Y-90678000D03*
X183896000Y-97028000D03*
X204470000Y-97028000D03*
X203962000Y-51308000D03*
X84582000Y-88392000D03*
X84582000Y-75692000D03*
X108204000Y-98552000D03*
G04 #@! TO.N,/MRD*
X182372000Y-110490000D03*
X112776000Y-80010000D03*
X112522000Y-111252000D03*
X182372000Y-100330000D03*
X205232000Y-99822000D03*
X204724000Y-48768000D03*
X66040000Y-79248000D03*
G04 #@! TO.N,/IORD*
X178308000Y-136144000D03*
X154940000Y-85852000D03*
X154940000Y-101092000D03*
X155702000Y-105410000D03*
X179578000Y-105918000D03*
X202438000Y-43688000D03*
X202438000Y-52832000D03*
X156972000Y-85852000D03*
X157480000Y-52832000D03*
X80518000Y-85852000D03*
X81280000Y-72390000D03*
X68580000Y-72390000D03*
X202438000Y-50292000D03*
X228600000Y-49530000D03*
X228600000Y-65532000D03*
G04 #@! TO.N,/PU1*
X81280000Y-81788000D03*
X81280000Y-86868000D03*
X81280000Y-76708000D03*
X76962000Y-75692000D03*
X76962000Y-73152000D03*
X66040000Y-73152000D03*
G04 #@! TO.N,/IOWR*
X180340000Y-103632000D03*
X156210000Y-98552000D03*
X156210000Y-102870000D03*
X156718000Y-55372000D03*
X156718000Y-46228000D03*
X156210000Y-82550000D03*
X203200000Y-54610000D03*
X203200000Y-46228000D03*
X68326000Y-78486000D03*
X203200000Y-47752000D03*
X229362000Y-46990000D03*
X229362000Y-68072000D03*
G04 #@! TO.N,/GND*
X208280000Y-104140000D03*
X198120000Y-104140000D03*
X210820000Y-130048000D03*
X70866000Y-132588000D03*
X98552000Y-132588000D03*
X70866000Y-127508000D03*
X109220000Y-130048000D03*
X124460000Y-40640000D03*
X88900000Y-96520000D03*
X127254000Y-61468000D03*
X137160000Y-60452000D03*
X137160000Y-53848000D03*
X127254000Y-48768000D03*
X180340000Y-102616000D03*
X82296000Y-89408000D03*
X70866000Y-97790000D03*
X70866000Y-84328000D03*
X180340000Y-93980000D03*
X145034000Y-89662000D03*
X81534000Y-56388000D03*
X81534000Y-48768000D03*
X81534000Y-51308000D03*
X71374000Y-43688000D03*
X81534000Y-43688000D03*
X70866000Y-123190000D03*
X184150000Y-49530000D03*
X210820000Y-123190000D03*
X81534000Y-64008000D03*
X218186000Y-104140000D03*
X65786000Y-64008000D03*
X62484000Y-58674000D03*
X81534000Y-66294000D03*
X217678000Y-87376000D03*
X230632004Y-41402000D03*
X217932000Y-63500000D03*
X210820000Y-132842000D03*
G04 #@! TO.N,/5+*
X206502000Y-136144000D03*
X203962000Y-103124000D03*
X140462000Y-136144000D03*
X134620000Y-93472000D03*
X140462000Y-93218000D03*
X187198000Y-102108000D03*
X187198000Y-98044000D03*
X83820000Y-99314000D03*
X83820000Y-95504000D03*
X83566000Y-67564000D03*
X83566000Y-80010000D03*
X187198000Y-92964000D03*
X134620000Y-87884000D03*
X96520000Y-39624000D03*
X101600000Y-45212000D03*
X100076000Y-65278000D03*
X101600000Y-39624000D03*
X101600000Y-51308000D03*
X101600000Y-53848000D03*
X87884000Y-64770000D03*
X83566000Y-58928000D03*
X83566000Y-39624000D03*
X114554000Y-39624000D03*
X140462000Y-124714000D03*
X219329000Y-39751000D03*
X219710000Y-93726000D03*
X140462000Y-55372000D03*
X140462000Y-39624000D03*
X219710000Y-102362000D03*
X189230000Y-50546000D03*
X75692000Y-73914000D03*
X60452000Y-73660000D03*
X224536000Y-103124000D03*
X206502000Y-134112000D03*
X226060000Y-134112000D03*
X167894000Y-77470000D03*
X157734000Y-77470000D03*
X232410000Y-39624000D03*
X125730000Y-87122000D03*
X114300000Y-79248000D03*
X198882000Y-40132000D03*
X198882000Y-52832000D03*
X93472000Y-95504000D03*
G04 #@! TO.N,/40_CS*
X176276000Y-109728000D03*
X175260000Y-74930000D03*
G04 #@! TO.N,/20_CS*
X152400000Y-72390000D03*
G04 #@! TO.N,/80_CS*
X160782000Y-52832000D03*
X159258000Y-70104000D03*
G04 #@! TO.N,/61_CS*
X153162000Y-74168000D03*
X150622000Y-52832000D03*
X150622000Y-45212000D03*
G04 #@! TO.N,/60_CS*
X176784000Y-75692000D03*
X176022000Y-48768000D03*
G04 #@! TO.N,/DACK3*
X206756000Y-54610000D03*
X206756000Y-79248000D03*
X175260000Y-77724000D03*
G04 #@! TO.N,/DACK2*
X148082000Y-136144000D03*
X148082000Y-76708000D03*
X205994000Y-52070000D03*
X205486000Y-76708000D03*
G04 #@! TO.N,/AEN*
X184658000Y-136144000D03*
X183134000Y-91186000D03*
X187706000Y-91186000D03*
X186944000Y-64770000D03*
X187706000Y-78232000D03*
X166878000Y-48768000D03*
X167640000Y-61468000D03*
X172974000Y-61468000D03*
X172974000Y-64770000D03*
G04 #@! TO.N,/ADSTB*
X193040000Y-129032000D03*
X192786000Y-66294000D03*
X197104000Y-61214000D03*
X196850010Y-66294000D03*
G04 #@! TO.N,/DACK1*
X170688000Y-136144000D03*
X174244000Y-82550000D03*
G04 #@! TO.N,/CS_128K*
X125984000Y-116332000D03*
X128016000Y-53848000D03*
G04 #@! TO.N,/CS_512K*
X127762000Y-51308000D03*
X124714000Y-115570000D03*
G04 #@! TO.N,/CS_ROM*
X137668000Y-116332000D03*
X138176000Y-58928000D03*
G04 #@! TO.N,/OSC88*
X137922000Y-133858000D03*
G04 #@! TO.N,/IRQ3*
X150622000Y-136144000D03*
X155194000Y-115570000D03*
G04 #@! TO.N,/IRQ4*
X153162000Y-136144000D03*
X156210000Y-112268000D03*
G04 #@! TO.N,/IRQ5*
X155702000Y-109728000D03*
G04 #@! TO.N,/IRQ6*
X157734000Y-107188000D03*
G04 #@! TO.N,/IRQ7*
X160020000Y-104648000D03*
G04 #@! TO.N,/IRQ2*
X177800000Y-116840000D03*
X202692000Y-128270000D03*
X177800000Y-128524000D03*
G04 #@! TO.N,/HF_PCLK*
X176022000Y-122428000D03*
X176022000Y-124968000D03*
X176276000Y-116332000D03*
X158496000Y-123190000D03*
X115570000Y-61468000D03*
X116078000Y-54610000D03*
X158496000Y-89916000D03*
X151638000Y-89916000D03*
X151638000Y-63246000D03*
G04 #@! TO.N,/SPK_OUT*
X176022000Y-118872000D03*
X176022000Y-66294000D03*
X148844000Y-66294000D03*
X148844000Y-53847992D03*
G04 #@! TO.N,/SPK_GO*
X190500000Y-125730000D03*
X190500000Y-123190000D03*
G04 #@! TO.N,/IRQ1*
X173736000Y-118872000D03*
X174498000Y-55372000D03*
X197358000Y-53848000D03*
X197358000Y-48768000D03*
X175006000Y-40640000D03*
G04 #@! TO.N,/RESOUT*
X209042000Y-136144000D03*
X209296000Y-74168000D03*
X84836000Y-64008000D03*
X84582000Y-72644000D03*
X154686000Y-73152000D03*
G04 #@! TO.N,/X1*
X91440000Y-45212000D03*
X93218000Y-45212000D03*
G04 #@! TO.N,/X2*
X91440000Y-54864000D03*
G04 #@! TO.N,/CLK*
X88138000Y-60452000D03*
X90170000Y-67056000D03*
X121666000Y-86614000D03*
X115570000Y-67310000D03*
X115570000Y-86614000D03*
G04 #@! TO.N,/PCLK*
X88900000Y-46990000D03*
G04 #@! TO.N,/PCLK88*
X89916000Y-48768000D03*
G04 #@! TO.N,/OSC*
X101600000Y-134874000D03*
X98044000Y-59690000D03*
G04 #@! TO.N,/OSC88HF*
X99568000Y-50292000D03*
G04 #@! TO.N,/READY*
X203200000Y-56388000D03*
X203200000Y-64770000D03*
X124714000Y-64770000D03*
X115316000Y-55372000D03*
X115319110Y-64008000D03*
G04 #@! TO.N,/RDY1*
X187198000Y-136144000D03*
X116332000Y-52070000D03*
X116332000Y-78994000D03*
X182372000Y-78486000D03*
G04 #@! TO.N,/CH_CK*
X211836000Y-136144000D03*
X212852000Y-98552000D03*
X190754000Y-98552000D03*
X190754000Y-70612000D03*
X212598000Y-125730000D03*
X149098000Y-45212000D03*
X149606000Y-71374000D03*
G04 #@! TO.N,/TC*
X145542000Y-136144000D03*
X146558000Y-57150000D03*
G04 #@! TO.N,/REFRQ*
X165608000Y-136144000D03*
X164084000Y-80010000D03*
G04 #@! TO.N,/DRQ1*
X168148000Y-136144000D03*
X165100000Y-85852000D03*
G04 #@! TO.N,/DRQ3*
X173482000Y-80772000D03*
G04 #@! TO.N,/DRQ2*
X198882000Y-136144000D03*
X198374000Y-83820000D03*
G04 #@! TO.N,/FB2*
X98044000Y-56388000D03*
X98044000Y-46228000D03*
G04 #@! TO.N,/FB1*
X102616000Y-47752000D03*
X102616000Y-57912000D03*
G04 #@! TO.N,/HF_OSC*
X136144000Y-46990000D03*
X100584000Y-46990000D03*
X100584000Y-55372000D03*
G04 #@! TO.N,/KBD_DATA*
X221996000Y-45212000D03*
X221742000Y-111252000D03*
G04 #@! TO.N,/T0*
X223012000Y-44450000D03*
X223012000Y-85852000D03*
X223012000Y-108712000D03*
G04 #@! TO.N,/KBD_CLK*
X194310000Y-43688000D03*
G04 #@! TO.N,/T1*
X221488000Y-87884000D03*
X222250000Y-113792000D03*
X221488000Y-46990000D03*
G04 #@! TO.N,/KBD_CLK_INVERTED*
X217170000Y-99314000D03*
X189992000Y-99314000D03*
X189992000Y-72390000D03*
X170180000Y-72390000D03*
X169164000Y-46228000D03*
G04 #@! TO.N,/CLK_88*
X71882000Y-129032000D03*
G04 #@! TO.N,/READY1*
X69088000Y-130048000D03*
X71120000Y-53848000D03*
G04 #@! TO.N,/RESET1*
X74168000Y-62992000D03*
X73660000Y-131572000D03*
G04 #@! TO.N,/X1A*
X63500000Y-44450000D03*
X74168000Y-57404000D03*
X74168000Y-45212000D03*
G04 #@! TO.N,/X2A*
X73406000Y-58674000D03*
X73406000Y-47752000D03*
G04 #@! TO.N,/NMI_EN*
X211328000Y-116332000D03*
X211328000Y-97790000D03*
X191516000Y-97790000D03*
X191516000Y-69850000D03*
X147574000Y-69850000D03*
X146558000Y-43688000D03*
G04 #@! TO.N,/SPK_EN*
X148082000Y-51308000D03*
X148082000Y-67056000D03*
X197612000Y-67056000D03*
X202692000Y-101600000D03*
X201712999Y-123915001D03*
X197104000Y-101600000D03*
G04 #@! TO.N,/CLK88_1*
X172974000Y-71628000D03*
X172974000Y-68326000D03*
X144018000Y-68326000D03*
G04 #@! TO.N,/AEN_OE*
X188468000Y-89408000D03*
X167691387Y-89371248D03*
X188468000Y-93218000D03*
X220726000Y-92710004D03*
X167640000Y-51308000D03*
X221234000Y-56896000D03*
G04 #@! TO.N,/EOP*
X210566000Y-52832000D03*
X166878000Y-53086000D03*
G04 #@! TO.N,/CS_61_RD*
X170942000Y-56388000D03*
X170942000Y-94996000D03*
X213360000Y-94488000D03*
X213360000Y-108712000D03*
X162814000Y-61214000D03*
X158242000Y-61214000D03*
X158242000Y-56388000D03*
G04 #@! TO.N,/CS_61_WR*
X170942000Y-50292000D03*
X170942000Y-55372000D03*
X160020000Y-48768000D03*
G04 #@! TO.N,/E0_CS*
X196088000Y-63246000D03*
X196088000Y-69850000D03*
X127254000Y-66548000D03*
G04 #@! TO.N,/CS_61_WR_*
X211836000Y-128270000D03*
X172212000Y-95504000D03*
X212344000Y-96774000D03*
G04 #@! TO.N,/NMI*
X69850000Y-123952000D03*
X70358000Y-77470000D03*
X170180000Y-53848000D03*
X169418000Y-78232008D03*
X134366000Y-77470000D03*
X123698008Y-78232008D03*
G04 #@! TO.N,/CH_CK_*
X168402000Y-50292000D03*
G04 #@! TO.N,/SPK_PIN*
X147828000Y-55372000D03*
X148082000Y-63500000D03*
G04 #@! TO.N,/760_WR*
X170180000Y-58166000D03*
G04 #@! TO.N,/SPK_PIN_O*
X155448000Y-72390000D03*
G04 #@! TO.N,/CLK1*
X70358000Y-61468000D03*
X68326000Y-128270000D03*
X82042000Y-129032000D03*
G04 #@! TO.N,/IOM_*
X138176000Y-56388000D03*
X138175990Y-47752000D03*
G04 #@! TD*
D27*
G04 #@! TO.N,/A15*
X76200000Y-86360000D02*
X77470000Y-87630000D01*
X77470000Y-87630000D02*
X107188000Y-87630000D01*
X113792000Y-93472000D02*
X114300000Y-93980000D01*
X107188000Y-93472000D02*
X113792000Y-93472000D01*
X117856000Y-92710000D02*
X116078000Y-92710000D01*
X132080000Y-93980000D02*
X131572000Y-93472000D01*
X114808000Y-93980000D02*
X114300000Y-93980000D01*
X131572000Y-93472000D02*
X118618000Y-93472000D01*
X118618000Y-93472000D02*
X117856000Y-92710000D01*
X116078000Y-92710000D02*
X114808000Y-93980000D01*
X106680000Y-43180000D02*
X107188000Y-43688000D01*
X107188000Y-43688000D02*
X108204000Y-43688000D01*
X172720000Y-140970000D02*
X172720000Y-136906000D01*
X172720000Y-136906000D02*
X171958000Y-136144000D01*
X148336000Y-97790000D02*
X168656000Y-97790000D01*
X147574000Y-97028000D02*
X148336000Y-97790000D01*
X135382000Y-97028000D02*
X147574000Y-97028000D01*
X134874000Y-96520000D02*
X135382000Y-97028000D01*
X169418000Y-98552000D02*
X172720000Y-98552000D01*
X168656000Y-97790000D02*
X169418000Y-98552000D01*
X134620000Y-96520000D02*
X134874000Y-96520000D01*
X132080000Y-93980000D02*
X132588000Y-94488000D01*
X132588000Y-94488000D02*
X134620000Y-96520000D01*
G04 #@! TO.N,/CLK88*
X131064000Y-134874000D02*
X130556000Y-135382000D01*
X133858000Y-134874000D02*
X131064000Y-134874000D01*
X134112000Y-134620000D02*
X133858000Y-134874000D01*
X163322000Y-134620000D02*
X134112000Y-134620000D01*
G04 #@! TO.N,/A16_*
X89408000Y-80772000D02*
X88900000Y-81280000D01*
X90678000Y-80772000D02*
X89408000Y-80772000D01*
G04 #@! TO.N,/A17_*
X89408000Y-83312000D02*
X88900000Y-83820000D01*
X91440000Y-83312000D02*
X89408000Y-83312000D01*
G04 #@! TO.N,/A18_*
X89408000Y-85852000D02*
X88900000Y-86360000D01*
X92202000Y-85852000D02*
X89408000Y-85852000D01*
G04 #@! TO.N,/AD0*
X74930000Y-120650000D02*
X74168000Y-121412000D01*
X61468000Y-121412000D02*
X60960000Y-121920000D01*
X78740000Y-119380000D02*
X77470000Y-120650000D01*
X77470000Y-120650000D02*
X74930000Y-120650000D01*
X74168000Y-121412000D02*
X61468000Y-121412000D01*
X87122000Y-120650000D02*
X85344000Y-120650000D01*
X79248000Y-119888000D02*
X78740000Y-119380000D01*
X88900000Y-119380000D02*
X88392000Y-119380000D01*
X88392000Y-119380000D02*
X87122000Y-120650000D01*
X85344000Y-120650000D02*
X84582000Y-119888000D01*
X84582000Y-119888000D02*
X79248000Y-119888000D01*
G04 #@! TO.N,/AD1*
X77470000Y-118110000D02*
X74930000Y-118110000D01*
X74168000Y-118872000D02*
X61468000Y-118872000D01*
X74930000Y-118110000D02*
X74168000Y-118872000D01*
X61468000Y-118872000D02*
X60960000Y-119380000D01*
X78740000Y-116840000D02*
X77470000Y-118110000D01*
X85344000Y-118110000D02*
X84582000Y-117348000D01*
X79248000Y-117348000D02*
X78740000Y-116840000D01*
X88900000Y-116840000D02*
X88392000Y-116840000D01*
X84582000Y-117348000D02*
X79248000Y-117348000D01*
X88392000Y-116840000D02*
X87122000Y-118110000D01*
X87122000Y-118110000D02*
X85344000Y-118110000D01*
G04 #@! TO.N,/AD2*
X74930000Y-115570000D02*
X74168000Y-116332000D01*
X77470000Y-115570000D02*
X74930000Y-115570000D01*
X74168000Y-116332000D02*
X61468000Y-116332000D01*
X61468000Y-116332000D02*
X60960000Y-116840000D01*
X78740000Y-114300000D02*
X77470000Y-115570000D01*
X88900000Y-114300000D02*
X88392000Y-114300000D01*
X84582000Y-114808000D02*
X79248000Y-114808000D01*
X88392000Y-114300000D02*
X87122000Y-115570000D01*
X85344000Y-115570000D02*
X84582000Y-114808000D01*
X87122000Y-115570000D02*
X85344000Y-115570000D01*
X79248000Y-114808000D02*
X78740000Y-114300000D01*
G04 #@! TO.N,/AD3*
X61468000Y-113792000D02*
X60960000Y-114300000D01*
X74168000Y-113792000D02*
X61468000Y-113792000D01*
X78740000Y-111760000D02*
X77470000Y-113030000D01*
X74930000Y-113030000D02*
X74168000Y-113792000D01*
X77470000Y-113030000D02*
X74930000Y-113030000D01*
X87122000Y-113030000D02*
X85344000Y-113030000D01*
X88900000Y-111760000D02*
X88392000Y-111760000D01*
X84582000Y-112268000D02*
X79248000Y-112268000D01*
X79248000Y-112268000D02*
X78740000Y-111760000D01*
X85344000Y-113030000D02*
X84582000Y-112268000D01*
X88392000Y-111760000D02*
X87122000Y-113030000D01*
G04 #@! TO.N,/RD*
X77470000Y-85090000D02*
X74422000Y-85090000D01*
X78740000Y-83820000D02*
X77470000Y-85090000D01*
X75692000Y-104648000D02*
X76200000Y-104140000D01*
X74422000Y-104648000D02*
X75692000Y-104648000D01*
X78740000Y-83820000D02*
X79248000Y-84328000D01*
X79248000Y-84328000D02*
X80518000Y-84328000D01*
X79248000Y-74168000D02*
X78740000Y-73660000D01*
X80518000Y-74168000D02*
X79248000Y-74168000D01*
G04 #@! TO.N,/AD4*
X78740000Y-109220000D02*
X77470000Y-110490000D01*
X61468000Y-111252000D02*
X60960000Y-111760000D01*
X74168000Y-111252000D02*
X61468000Y-111252000D01*
X74930000Y-110490000D02*
X74168000Y-111252000D01*
X77470000Y-110490000D02*
X74930000Y-110490000D01*
X79248000Y-109728000D02*
X78740000Y-109220000D01*
X88900000Y-109220000D02*
X88392000Y-109220000D01*
X87122000Y-110490000D02*
X85344000Y-110490000D01*
X88392000Y-109220000D02*
X87122000Y-110490000D01*
X84582000Y-109728000D02*
X79248000Y-109728000D01*
X85344000Y-110490000D02*
X84582000Y-109728000D01*
G04 #@! TO.N,/HOLD*
X76200000Y-106680000D02*
X75692000Y-107188000D01*
X75692000Y-107188000D02*
X72136000Y-107188000D01*
X81026000Y-125730000D02*
X72136000Y-125730000D01*
X82296000Y-127000000D02*
X81026000Y-125730000D01*
X175514000Y-65532000D02*
X200152000Y-65532000D01*
X175006000Y-66040000D02*
X175514000Y-65532000D01*
X165354000Y-65532000D02*
X165862000Y-66040000D01*
X200152000Y-65532000D02*
X200660000Y-66040000D01*
X143764000Y-65532000D02*
X165354000Y-65532000D01*
X165862000Y-66040000D02*
X175006000Y-66040000D01*
X143256000Y-65024000D02*
X143764000Y-65532000D01*
X125984000Y-65024000D02*
X143256000Y-65024000D01*
X125476000Y-65532000D02*
X125984000Y-65024000D01*
G04 #@! TO.N,/AD5*
X78740000Y-106680000D02*
X77470000Y-107950000D01*
X61468000Y-108712000D02*
X60960000Y-109220000D01*
X74168000Y-108712000D02*
X61468000Y-108712000D01*
X74930000Y-107950000D02*
X74168000Y-108712000D01*
X77470000Y-107950000D02*
X74930000Y-107950000D01*
X87122000Y-107950000D02*
X85344000Y-107950000D01*
X84582000Y-107188000D02*
X79248000Y-107188000D01*
X88392000Y-106680000D02*
X87122000Y-107950000D01*
X88900000Y-106680000D02*
X88392000Y-106680000D01*
X85344000Y-107950000D02*
X84582000Y-107188000D01*
X79248000Y-107188000D02*
X78740000Y-106680000D01*
G04 #@! TO.N,/HOLDA*
X89408000Y-69088000D02*
X88900000Y-68580000D01*
X94234000Y-69088000D02*
X89408000Y-69088000D01*
X88900000Y-99060000D02*
X89408000Y-99568000D01*
X89408000Y-99568000D02*
X94234000Y-99568000D01*
X121412000Y-62992000D02*
X121920000Y-63500000D01*
X117348000Y-62992000D02*
X121412000Y-62992000D01*
X86360000Y-73660000D02*
X87630000Y-74930000D01*
X87630000Y-74930000D02*
X94234000Y-74930000D01*
X108712000Y-70612000D02*
X117348000Y-70612000D01*
X108058001Y-69958001D02*
X108712000Y-70612000D01*
X95104001Y-69958001D02*
X108058001Y-69958001D01*
X94234000Y-69088000D02*
X95104001Y-69958001D01*
X201168000Y-58928000D02*
X200660000Y-58420000D01*
X202438000Y-58928000D02*
X201168000Y-58928000D01*
X182118000Y-67818000D02*
X187960000Y-67818000D01*
X181864000Y-67564000D02*
X182118000Y-67818000D01*
X171704000Y-67564000D02*
X181864000Y-67564000D01*
X143510000Y-67564000D02*
X145796000Y-67564000D01*
X171450000Y-67818000D02*
X171704000Y-67564000D01*
X146050000Y-67818000D02*
X171450000Y-67818000D01*
X143002000Y-68072000D02*
X143510000Y-67564000D01*
X129794000Y-67310000D02*
X130556000Y-68072000D01*
X145796000Y-67564000D02*
X146050000Y-67818000D01*
X130556000Y-68072000D02*
X143002000Y-68072000D01*
X117348000Y-67310000D02*
X129794000Y-67310000D01*
G04 #@! TO.N,/AD6*
X77470000Y-105410000D02*
X74930000Y-105410000D01*
X78740000Y-104140000D02*
X77470000Y-105410000D01*
X74930000Y-105410000D02*
X74168000Y-106172000D01*
X74168000Y-106172000D02*
X61468000Y-106172000D01*
X61468000Y-106172000D02*
X60960000Y-106680000D01*
X79248000Y-104648000D02*
X78740000Y-104140000D01*
X85344000Y-105410000D02*
X84582000Y-104648000D01*
X84582000Y-104648000D02*
X79248000Y-104648000D01*
X87122000Y-105410000D02*
X85344000Y-105410000D01*
X88392000Y-104140000D02*
X87122000Y-105410000D01*
X88900000Y-104140000D02*
X88392000Y-104140000D01*
G04 #@! TO.N,/WR*
X80264000Y-82550000D02*
X73660000Y-82550000D01*
X81026000Y-83312000D02*
X80264000Y-82550000D01*
X85852000Y-83312000D02*
X84582000Y-83312000D01*
X86360000Y-83820000D02*
X85852000Y-83312000D01*
X76200000Y-111760000D02*
X75692000Y-112268000D01*
X75692000Y-112268000D02*
X73660000Y-112268000D01*
X85852000Y-78232000D02*
X84582000Y-78232000D01*
X86360000Y-78740000D02*
X85852000Y-78232000D01*
X84582000Y-83312000D02*
X81026000Y-83312000D01*
G04 #@! TO.N,/AD7*
X79248000Y-102108000D02*
X78740000Y-101600000D01*
X84582000Y-102108000D02*
X79248000Y-102108000D01*
X85344000Y-102870000D02*
X84582000Y-102108000D01*
X87122000Y-102870000D02*
X85344000Y-102870000D01*
X88392000Y-101600000D02*
X87122000Y-102870000D01*
X88900000Y-101600000D02*
X88392000Y-101600000D01*
X61468000Y-103632000D02*
X60960000Y-104140000D01*
X74168000Y-103632000D02*
X61468000Y-103632000D01*
X77470000Y-102870000D02*
X74930000Y-102870000D01*
X74930000Y-102870000D02*
X74168000Y-103632000D01*
X78740000Y-101600000D02*
X77470000Y-102870000D01*
G04 #@! TO.N,/IOM*
X78232000Y-71628000D02*
X72898000Y-71628000D01*
X78740000Y-71120000D02*
X78232000Y-71628000D01*
X76200000Y-114300000D02*
X75692000Y-114808000D01*
X75692000Y-114808000D02*
X72898000Y-114808000D01*
X112014000Y-72390000D02*
X112776000Y-73152000D01*
X102616000Y-71120000D02*
X103886000Y-72390000D01*
X99060000Y-71120000D02*
X102616000Y-71120000D01*
X103886000Y-72390000D02*
X112014000Y-72390000D01*
X97790000Y-72390000D02*
X99060000Y-71120000D01*
X85598000Y-72390000D02*
X97790000Y-72390000D01*
X84836000Y-71628000D02*
X85598000Y-72390000D01*
X79502000Y-71628000D02*
X84836000Y-71628000D01*
X78994000Y-71120000D02*
X79502000Y-71628000D01*
X78740000Y-71120000D02*
X78994000Y-71120000D01*
G04 #@! TO.N,/A8*
X117856000Y-102870000D02*
X116078000Y-102870000D01*
X136398000Y-103632000D02*
X135636000Y-102870000D01*
X133858000Y-102870000D02*
X132588000Y-104140000D01*
X132080000Y-104140000D02*
X131572000Y-103632000D01*
X149352000Y-103632000D02*
X136398000Y-103632000D01*
X131572000Y-103632000D02*
X120142000Y-103632000D01*
X114808000Y-104140000D02*
X114300000Y-104140000D01*
X118618000Y-103632000D02*
X117856000Y-102870000D01*
X135636000Y-102870000D02*
X133858000Y-102870000D01*
X116078000Y-102870000D02*
X114808000Y-104140000D01*
X149860000Y-104140000D02*
X149352000Y-103632000D01*
X132588000Y-104140000D02*
X132080000Y-104140000D01*
X154940000Y-136906000D02*
X154178000Y-136144000D01*
X154940000Y-140970000D02*
X154940000Y-136906000D01*
X121920000Y-50800000D02*
X121412000Y-50292000D01*
X121412000Y-50292000D02*
X119634000Y-50292000D01*
X154178000Y-104648000D02*
X153416000Y-105410000D01*
X151130000Y-105410000D02*
X149860000Y-104140000D01*
X153416000Y-105410000D02*
X151130000Y-105410000D01*
X154178000Y-104648000D02*
X154940000Y-104648000D01*
X120142000Y-103632000D02*
X118618000Y-103632000D01*
G04 #@! TO.N,/A9*
X132588000Y-106680000D02*
X132080000Y-106680000D01*
X135636000Y-105410000D02*
X133858000Y-105410000D01*
X131572000Y-106172000D02*
X118618000Y-106172000D01*
X132080000Y-106680000D02*
X131572000Y-106172000D01*
X117856000Y-105410000D02*
X116078000Y-105410000D01*
X116078000Y-105410000D02*
X114808000Y-106680000D01*
X133858000Y-105410000D02*
X132588000Y-106680000D01*
X149860000Y-106680000D02*
X149352000Y-106172000D01*
X118618000Y-106172000D02*
X117856000Y-105410000D01*
X114808000Y-106680000D02*
X114300000Y-106680000D01*
X136398000Y-106172000D02*
X135636000Y-105410000D01*
X149352000Y-106172000D02*
X136398000Y-106172000D01*
X60960000Y-99060000D02*
X61468000Y-99568000D01*
X61468000Y-99568000D02*
X62992000Y-99568000D01*
X157480000Y-136906000D02*
X156718000Y-136144000D01*
X157480000Y-140970000D02*
X157480000Y-136906000D01*
X121920000Y-53340000D02*
X121412000Y-52832000D01*
X121412000Y-52832000D02*
X120396000Y-52832000D01*
X154178000Y-107188000D02*
X156464000Y-107188000D01*
X153416000Y-107950000D02*
X154178000Y-107188000D01*
X151130000Y-107950000D02*
X153416000Y-107950000D01*
X149860000Y-106680000D02*
X151130000Y-107950000D01*
G04 #@! TO.N,/A10*
X136398000Y-113792000D02*
X135636000Y-113030000D01*
X117856000Y-113030000D02*
X116078000Y-113030000D01*
X114808000Y-114300000D02*
X114300000Y-114300000D01*
X149352000Y-113792000D02*
X136398000Y-113792000D01*
X132588000Y-114300000D02*
X132080000Y-114300000D01*
X118618000Y-113792000D02*
X117856000Y-113030000D01*
X132080000Y-114300000D02*
X131572000Y-113792000D01*
X135636000Y-113030000D02*
X133858000Y-113030000D01*
X133858000Y-113030000D02*
X132588000Y-114300000D01*
X131572000Y-113792000D02*
X118618000Y-113792000D01*
X116078000Y-113030000D02*
X114808000Y-114300000D01*
X149860000Y-114300000D02*
X149352000Y-113792000D01*
X60960000Y-96520000D02*
X61468000Y-97028000D01*
X61468000Y-97028000D02*
X63754000Y-97028000D01*
X160020000Y-140970000D02*
X160020000Y-136906000D01*
X160020000Y-136906000D02*
X159258000Y-136144000D01*
X121920000Y-60960000D02*
X121412000Y-60452000D01*
X121412000Y-60452000D02*
X112014000Y-60452000D01*
X159258000Y-114808000D02*
X154432000Y-114808000D01*
X154432000Y-114808000D02*
X153670000Y-115570000D01*
X151130000Y-115570000D02*
X149860000Y-114300000D01*
X153670000Y-115570000D02*
X151130000Y-115570000D01*
G04 #@! TO.N,/ALE*
X96012000Y-91948000D02*
X96520000Y-91440000D01*
X94996000Y-91948000D02*
X96012000Y-91948000D01*
G04 #@! TO.N,/A11*
X114808000Y-109220000D02*
X114300000Y-109220000D01*
X149352000Y-108712000D02*
X136398000Y-108712000D01*
X136398000Y-108712000D02*
X135636000Y-107950000D01*
X117856000Y-107950000D02*
X116078000Y-107950000D01*
X133858000Y-107950000D02*
X132588000Y-109220000D01*
X132080000Y-109220000D02*
X131572000Y-108712000D01*
X131572000Y-108712000D02*
X118618000Y-108712000D01*
X135636000Y-107950000D02*
X133858000Y-107950000D01*
X116078000Y-107950000D02*
X114808000Y-109220000D01*
X149860000Y-109220000D02*
X149352000Y-108712000D01*
X132588000Y-109220000D02*
X132080000Y-109220000D01*
X118618000Y-108712000D02*
X117856000Y-107950000D01*
X60960000Y-93980000D02*
X61468000Y-94488000D01*
X61468000Y-94488000D02*
X64516000Y-94488000D01*
X162560000Y-136906000D02*
X161798000Y-136144000D01*
X162560000Y-140970000D02*
X162560000Y-136906000D01*
X161544000Y-110490000D02*
X161798000Y-110236000D01*
X151130000Y-110490000D02*
X161544000Y-110490000D01*
X149860000Y-109220000D02*
X151130000Y-110490000D01*
X121412000Y-55372000D02*
X121920000Y-55880000D01*
X118110000Y-55372000D02*
X121412000Y-55372000D01*
X117348000Y-56134000D02*
X118110000Y-55372000D01*
X113792000Y-56134000D02*
X117348000Y-56134000D01*
X113030000Y-55372000D02*
X113792000Y-56134000D01*
X111252000Y-55372000D02*
X113030000Y-55372000D01*
G04 #@! TO.N,/INTA*
X163068000Y-101346000D02*
X163322000Y-101092000D01*
X167132000Y-101092000D02*
X167640000Y-101600000D01*
X163322000Y-101092000D02*
X167132000Y-101092000D01*
G04 #@! TO.N,/A12*
X132842000Y-100330000D02*
X134112000Y-99060000D01*
X130302000Y-99568000D02*
X131064000Y-100330000D01*
X113284000Y-100330000D02*
X115062000Y-100330000D01*
X115062000Y-100330000D02*
X116332000Y-99060000D01*
X117348000Y-99568000D02*
X130302000Y-99568000D01*
X112522000Y-99568000D02*
X113284000Y-100330000D01*
X116840000Y-99060000D02*
X117348000Y-99568000D01*
X131064000Y-100330000D02*
X132842000Y-100330000D01*
X99568000Y-99568000D02*
X112522000Y-99568000D01*
X99060000Y-99060000D02*
X99568000Y-99568000D01*
X134112000Y-99060000D02*
X134620000Y-99060000D01*
X116332000Y-99060000D02*
X116840000Y-99060000D01*
X107188000Y-46228000D02*
X110490000Y-46228000D01*
X106680000Y-45720000D02*
X107188000Y-46228000D01*
X62230000Y-92710000D02*
X110998000Y-92710000D01*
X60960000Y-91440000D02*
X62230000Y-92710000D01*
X165100000Y-140970000D02*
X165100000Y-136906000D01*
X165100000Y-136906000D02*
X164338000Y-136144000D01*
X164338000Y-99568000D02*
X155702000Y-99568000D01*
X155702000Y-99568000D02*
X154940000Y-100330000D01*
X154940000Y-100330000D02*
X148336000Y-100330000D01*
X148336000Y-100330000D02*
X147574000Y-99568000D01*
X135128000Y-99568000D02*
X134620000Y-99060000D01*
X147574000Y-99568000D02*
X135128000Y-99568000D01*
G04 #@! TO.N,/A13*
X132588000Y-101600000D02*
X132080000Y-101600000D01*
X131572000Y-101092000D02*
X118618000Y-101092000D01*
X116078000Y-100330000D02*
X114808000Y-101600000D01*
X149860000Y-101600000D02*
X149352000Y-101092000D01*
X118618000Y-101092000D02*
X117856000Y-100330000D01*
X135636000Y-100330000D02*
X133858000Y-100330000D01*
X133858000Y-100330000D02*
X132588000Y-101600000D01*
X117856000Y-100330000D02*
X116078000Y-100330000D01*
X114808000Y-101600000D02*
X114300000Y-101600000D01*
X132080000Y-101600000D02*
X131572000Y-101092000D01*
X149352000Y-101092000D02*
X136398000Y-101092000D01*
X136398000Y-101092000D02*
X135636000Y-100330000D01*
X167640000Y-140970000D02*
X167640000Y-136906000D01*
X167640000Y-136906000D02*
X166878000Y-136144000D01*
X61468000Y-89408000D02*
X65278000Y-89408000D01*
X60960000Y-88900000D02*
X61468000Y-89408000D01*
X121412000Y-47752000D02*
X109728000Y-47752000D01*
X121920000Y-48260000D02*
X121412000Y-47752000D01*
X151130000Y-102870000D02*
X149860000Y-101600000D01*
X155448000Y-102108000D02*
X154686000Y-102870000D01*
X154686000Y-102870000D02*
X151130000Y-102870000D01*
X165862000Y-102108000D02*
X155448000Y-102108000D01*
G04 #@! TO.N,/A14*
X99060000Y-96520000D02*
X99060000Y-96012000D01*
X99060000Y-96012000D02*
X97028000Y-93980000D01*
X97028000Y-93980000D02*
X88900000Y-93980000D01*
X88900000Y-93980000D02*
X88646000Y-93726000D01*
X88646000Y-93726000D02*
X86614000Y-93726000D01*
X86614000Y-93726000D02*
X86360000Y-93980000D01*
X86360000Y-93980000D02*
X79502000Y-93980000D01*
X79502000Y-93980000D02*
X78232000Y-95250000D01*
X78232000Y-95250000D02*
X62992000Y-95250000D01*
X61468000Y-86868000D02*
X62992000Y-86868000D01*
X60960000Y-86360000D02*
X61468000Y-86868000D01*
X116840000Y-96520000D02*
X116332000Y-96520000D01*
X116332000Y-96520000D02*
X115062000Y-97790000D01*
X115062000Y-97790000D02*
X113284000Y-97790000D01*
X113284000Y-97790000D02*
X112522000Y-97028000D01*
X99568000Y-97028000D02*
X99060000Y-96520000D01*
X112522000Y-97028000D02*
X99568000Y-97028000D01*
X121412000Y-45212000D02*
X108966000Y-45212000D01*
X121920000Y-45720000D02*
X121412000Y-45212000D01*
X170180000Y-136906000D02*
X169418000Y-136144000D01*
X170180000Y-140970000D02*
X170180000Y-136906000D01*
X129540000Y-97028000D02*
X117348000Y-97028000D01*
X131935001Y-97645001D02*
X130157001Y-97645001D01*
X130157001Y-97645001D02*
X129540000Y-97028000D01*
X136906000Y-97790000D02*
X132080000Y-97790000D01*
X132080000Y-97790000D02*
X131935001Y-97645001D01*
X137668000Y-98552000D02*
X136906000Y-97790000D01*
X117348000Y-97028000D02*
X116840000Y-96520000D01*
X149352000Y-98552000D02*
X137668000Y-98552000D01*
X149860000Y-99060000D02*
X149352000Y-98552000D01*
G04 #@! TO.N,/RESET*
X77470000Y-62230000D02*
X76200000Y-60960000D01*
X80264000Y-62230000D02*
X77470000Y-62230000D01*
X81026000Y-61468000D02*
X80264000Y-62230000D01*
X85852000Y-61468000D02*
X81026000Y-61468000D01*
X86360000Y-60960000D02*
X85852000Y-61468000D01*
X181610000Y-49530000D02*
X182880000Y-48260000D01*
X175006000Y-49530000D02*
X181610000Y-49530000D01*
X76200000Y-60960000D02*
X75819000Y-61341000D01*
X75692000Y-61468000D02*
X75819000Y-61341000D01*
X75692000Y-61468000D02*
X76200000Y-60960000D01*
X71882000Y-61468000D02*
X75692000Y-61468000D01*
X71120000Y-62230000D02*
X71882000Y-61468000D01*
X60452000Y-62230000D02*
X71120000Y-62230000D01*
G04 #@! TO.N,/A0*
X130302000Y-119888000D02*
X131064000Y-120650000D01*
X132842000Y-120650000D02*
X134112000Y-119380000D01*
X117348000Y-119888000D02*
X130302000Y-119888000D01*
X131064000Y-120650000D02*
X132842000Y-120650000D01*
X113284000Y-120650000D02*
X115062000Y-120650000D01*
X116332000Y-119380000D02*
X116840000Y-119380000D01*
X112522000Y-119888000D02*
X113284000Y-120650000D01*
X115062000Y-120650000D02*
X116332000Y-119380000D01*
X116840000Y-119380000D02*
X117348000Y-119888000D01*
X99568000Y-119888000D02*
X100838000Y-119888000D01*
X99060000Y-119380000D02*
X99568000Y-119888000D01*
X134112000Y-119380000D02*
X134620000Y-119380000D01*
X97028000Y-119888000D02*
X96520000Y-119380000D01*
X99060000Y-119380000D02*
X98552000Y-119888000D01*
X98552000Y-119888000D02*
X97028000Y-119888000D01*
X134620000Y-136906000D02*
X135382000Y-136144000D01*
X134620000Y-140970000D02*
X134620000Y-136906000D01*
X135128000Y-119888000D02*
X134620000Y-119380000D01*
X136144000Y-119888000D02*
X135128000Y-119888000D01*
X100838000Y-119888000D02*
X112522000Y-119888000D01*
X106172000Y-66548000D02*
X106680000Y-66040000D01*
X100838000Y-66548000D02*
X106172000Y-66548000D01*
X215392000Y-62992000D02*
X213614000Y-62992000D01*
X215900000Y-63500000D02*
X215392000Y-62992000D01*
X182880000Y-114300000D02*
X178054000Y-109474000D01*
X185420000Y-114300000D02*
X182880000Y-114300000D01*
X167640000Y-99060000D02*
X168148000Y-99568000D01*
X168148000Y-99568000D02*
X178054000Y-99568000D01*
X226060000Y-48260000D02*
X225552000Y-47752000D01*
X225552000Y-47752000D02*
X220472000Y-47752000D01*
X220472000Y-47752000D02*
X219710000Y-46990000D01*
X219710000Y-46990000D02*
X213614000Y-46990000D01*
G04 #@! TO.N,/A1*
X137160000Y-140970000D02*
X137160000Y-136906000D01*
X137160000Y-136906000D02*
X136398000Y-136144000D01*
X131064000Y-118110000D02*
X132842000Y-118110000D01*
X116840000Y-116840000D02*
X117348000Y-117348000D01*
X134112000Y-116840000D02*
X134620000Y-116840000D01*
X132842000Y-118110000D02*
X134112000Y-116840000D01*
X117348000Y-117348000D02*
X130302000Y-117348000D01*
X130302000Y-117348000D02*
X131064000Y-118110000D01*
X97028000Y-117348000D02*
X96520000Y-116840000D01*
X98552000Y-117348000D02*
X97028000Y-117348000D01*
X99060000Y-116840000D02*
X98552000Y-117348000D01*
X135128000Y-117348000D02*
X134620000Y-116840000D01*
X136906000Y-117348000D02*
X135128000Y-117348000D01*
X113284000Y-118110000D02*
X115062000Y-118110000D01*
X112522000Y-117348000D02*
X113284000Y-118110000D01*
X99568000Y-117348000D02*
X101600000Y-117348000D01*
X99060000Y-116840000D02*
X99568000Y-117348000D01*
X115062000Y-118110000D02*
X116332000Y-116840000D01*
X116332000Y-116840000D02*
X116840000Y-116840000D01*
X101600000Y-117348000D02*
X112522000Y-117348000D01*
X106172000Y-64008000D02*
X106680000Y-63500000D01*
X101600000Y-64008000D02*
X106172000Y-64008000D01*
X215900000Y-60960000D02*
X215392000Y-60452000D01*
X215392000Y-60452000D02*
X212852000Y-60452000D01*
X219964000Y-49530000D02*
X212852000Y-49530000D01*
X220726000Y-50292000D02*
X219964000Y-49530000D01*
X225552000Y-50292000D02*
X220726000Y-50292000D01*
X226060000Y-50800000D02*
X225552000Y-50292000D01*
X182372000Y-111760000D02*
X185420000Y-111760000D01*
X181356000Y-110744000D02*
X182372000Y-111760000D01*
X181356000Y-110236000D02*
X181356000Y-110744000D01*
X178816000Y-107696000D02*
X181356000Y-110236000D01*
G04 #@! TO.N,/A2*
X139700000Y-140970000D02*
X139700000Y-136906000D01*
X139700000Y-136906000D02*
X138938000Y-136144000D01*
X116332000Y-114300000D02*
X116840000Y-114300000D01*
X99568000Y-114808000D02*
X102362000Y-114808000D01*
X131064000Y-115570000D02*
X132842000Y-115570000D01*
X132842000Y-115570000D02*
X134112000Y-114300000D01*
X134112000Y-114300000D02*
X134620000Y-114300000D01*
X130302000Y-114808000D02*
X131064000Y-115570000D01*
X112522000Y-114808000D02*
X113284000Y-115570000D01*
X115062000Y-115570000D02*
X116332000Y-114300000D01*
X117348000Y-114808000D02*
X130302000Y-114808000D01*
X116840000Y-114300000D02*
X117348000Y-114808000D01*
X113284000Y-115570000D02*
X115062000Y-115570000D01*
X99060000Y-114300000D02*
X99568000Y-114808000D01*
X99060000Y-114300000D02*
X98552000Y-114808000D01*
X98552000Y-114808000D02*
X97028000Y-114808000D01*
X97028000Y-114808000D02*
X96520000Y-114300000D01*
X135128000Y-114808000D02*
X138938000Y-114808000D01*
X134620000Y-114300000D02*
X135128000Y-114808000D01*
X102362000Y-114808000D02*
X112522000Y-114808000D01*
X106172000Y-61468000D02*
X106680000Y-60960000D01*
X102362000Y-61468000D02*
X106172000Y-61468000D01*
X215900000Y-58674000D02*
X215392000Y-58166000D01*
X215392000Y-58166000D02*
X212090000Y-58166000D01*
X191516000Y-49530000D02*
X204724000Y-49530000D01*
X206502000Y-51308000D02*
X212090000Y-51308000D01*
X204724000Y-49530000D02*
X206502000Y-51308000D01*
X189738000Y-51308000D02*
X191516000Y-49530000D01*
X180594000Y-51308000D02*
X189738000Y-51308000D01*
X180340000Y-51054000D02*
X180594000Y-51308000D01*
X180340000Y-50800000D02*
X180340000Y-51054000D01*
X227076000Y-57150000D02*
X227838000Y-57912000D01*
X224536000Y-57150000D02*
X227076000Y-57150000D01*
X223774000Y-57912000D02*
X224536000Y-57150000D01*
X220472000Y-57912000D02*
X223774000Y-57912000D01*
X219710000Y-57150000D02*
X220472000Y-57912000D01*
X216408000Y-58420000D02*
X217678000Y-57150000D01*
X217678000Y-57150000D02*
X219710000Y-57150000D01*
X215900000Y-58420000D02*
X216408000Y-58420000D01*
G04 #@! TO.N,/A3*
X142240000Y-140970000D02*
X142240000Y-136906000D01*
X142240000Y-136906000D02*
X141478000Y-136144000D01*
X112522000Y-112268000D02*
X113284000Y-113030000D01*
X131064000Y-113030000D02*
X132842000Y-113030000D01*
X134112000Y-111760000D02*
X134620000Y-111760000D01*
X99568000Y-112268000D02*
X103124000Y-112268000D01*
X132842000Y-113030000D02*
X134112000Y-111760000D01*
X115062000Y-113030000D02*
X116332000Y-111760000D01*
X117348000Y-112268000D02*
X130302000Y-112268000D01*
X116332000Y-111760000D02*
X116840000Y-111760000D01*
X130302000Y-112268000D02*
X131064000Y-113030000D01*
X113284000Y-113030000D02*
X115062000Y-113030000D01*
X116840000Y-111760000D02*
X117348000Y-112268000D01*
X99060000Y-111760000D02*
X99568000Y-112268000D01*
X98552000Y-112268000D02*
X97028000Y-112268000D01*
X97028000Y-112268000D02*
X96520000Y-111760000D01*
X99060000Y-111760000D02*
X98552000Y-112268000D01*
X134620000Y-111760000D02*
X135128000Y-112268000D01*
X135128000Y-112268000D02*
X141478000Y-112268000D01*
X106680000Y-58420000D02*
X105156000Y-59944000D01*
X105156000Y-59944000D02*
X103124000Y-59944000D01*
X103124000Y-112268000D02*
X112522000Y-112268000D01*
X215900000Y-55880000D02*
X215392000Y-55372000D01*
X215392000Y-55372000D02*
X211328000Y-55372000D01*
G04 #@! TO.N,/A4*
X144780000Y-140970000D02*
X144780000Y-136906000D01*
X144780000Y-136906000D02*
X144018000Y-136144000D01*
X131064000Y-110490000D02*
X132842000Y-110490000D01*
X132842000Y-110490000D02*
X134112000Y-109220000D01*
X130302000Y-109728000D02*
X131064000Y-110490000D01*
X116840000Y-109220000D02*
X117348000Y-109728000D01*
X134112000Y-109220000D02*
X134620000Y-109220000D01*
X117348000Y-109728000D02*
X130302000Y-109728000D01*
X97028000Y-109728000D02*
X96520000Y-109220000D01*
X98552000Y-109728000D02*
X97028000Y-109728000D01*
X99060000Y-109220000D02*
X98552000Y-109728000D01*
X134620000Y-109220000D02*
X135128000Y-109728000D01*
X135128000Y-109728000D02*
X144018000Y-109728000D01*
X99568000Y-109728000D02*
X103886000Y-109728000D01*
X115062000Y-110490000D02*
X116332000Y-109220000D01*
X113284000Y-110490000D02*
X115062000Y-110490000D01*
X99060000Y-109220000D02*
X99568000Y-109728000D01*
X112522000Y-109728000D02*
X113284000Y-110490000D01*
X116332000Y-109220000D02*
X116840000Y-109220000D01*
X103886000Y-109728000D02*
X112522000Y-109728000D01*
X106680000Y-55880000D02*
X107188000Y-56388000D01*
X107188000Y-56388000D02*
X112776000Y-56388000D01*
X108966000Y-62992000D02*
X112776000Y-62992000D01*
X108204000Y-62230000D02*
X108966000Y-62992000D01*
X104648000Y-62230000D02*
X108204000Y-62230000D01*
X103886000Y-62992000D02*
X104648000Y-62230000D01*
X215900000Y-50800000D02*
X215392000Y-50292000D01*
X215392000Y-50292000D02*
X211074000Y-50292000D01*
X211328000Y-50292000D02*
X209804000Y-50292000D01*
G04 #@! TO.N,/A5*
X147320000Y-140970000D02*
X147320000Y-136906000D01*
X147320000Y-136906000D02*
X146558000Y-136144000D01*
X134112000Y-106680000D02*
X134620000Y-106680000D01*
X112522000Y-107188000D02*
X113284000Y-107950000D01*
X131064000Y-107950000D02*
X132842000Y-107950000D01*
X99568000Y-107188000D02*
X104648000Y-107188000D01*
X130302000Y-107188000D02*
X131064000Y-107950000D01*
X99060000Y-106680000D02*
X99568000Y-107188000D01*
X115062000Y-107950000D02*
X116332000Y-106680000D01*
X116840000Y-106680000D02*
X117348000Y-107188000D01*
X116332000Y-106680000D02*
X116840000Y-106680000D01*
X117348000Y-107188000D02*
X130302000Y-107188000D01*
X132842000Y-107950000D02*
X134112000Y-106680000D01*
X113284000Y-107950000D02*
X115062000Y-107950000D01*
X99060000Y-106680000D02*
X98552000Y-107188000D01*
X98552000Y-107188000D02*
X97028000Y-107188000D01*
X97028000Y-107188000D02*
X96520000Y-106680000D01*
X108966000Y-64770000D02*
X109728000Y-65532000D01*
X109728000Y-65532000D02*
X113538000Y-65532000D01*
X105410000Y-64770000D02*
X108966000Y-64770000D01*
X104648000Y-65532000D02*
X105410000Y-64770000D01*
X135128000Y-107188000D02*
X146558000Y-107188000D01*
X134620000Y-106680000D02*
X135128000Y-107188000D01*
X104648000Y-107188000D02*
X112522000Y-107188000D01*
X107188000Y-53848000D02*
X113538000Y-53848000D01*
X106680000Y-53340000D02*
X107188000Y-53848000D01*
X215900000Y-48260000D02*
X215392000Y-47752000D01*
X215392000Y-47752000D02*
X209042000Y-47752000D01*
G04 #@! TO.N,/A6*
X149860000Y-140970000D02*
X149860000Y-136906000D01*
X149860000Y-136906000D02*
X149098000Y-136144000D01*
X116332000Y-104140000D02*
X116840000Y-104140000D01*
X132842000Y-105410000D02*
X134112000Y-104140000D01*
X130302000Y-104648000D02*
X131064000Y-105410000D01*
X99568000Y-104648000D02*
X112522000Y-104648000D01*
X113284000Y-105410000D02*
X115062000Y-105410000D01*
X116840000Y-104140000D02*
X117348000Y-104648000D01*
X131064000Y-105410000D02*
X132842000Y-105410000D01*
X117348000Y-104648000D02*
X119380000Y-104648000D01*
X99060000Y-104140000D02*
X99568000Y-104648000D01*
X134112000Y-104140000D02*
X134620000Y-104140000D01*
X115062000Y-105410000D02*
X116332000Y-104140000D01*
X112522000Y-104648000D02*
X113284000Y-105410000D01*
X97028000Y-104648000D02*
X96520000Y-104140000D01*
X98552000Y-104648000D02*
X97028000Y-104648000D01*
X99060000Y-104140000D02*
X98552000Y-104648000D01*
X134620000Y-104140000D02*
X135128000Y-104648000D01*
X135128000Y-104648000D02*
X148082000Y-104648000D01*
X119380000Y-104648000D02*
X130302000Y-104648000D01*
X107188000Y-51308000D02*
X118872006Y-51308000D01*
X106680000Y-50800000D02*
X107188000Y-51308000D01*
X215392000Y-45212000D02*
X208280000Y-45212000D01*
X215900000Y-45720000D02*
X215392000Y-45212000D01*
G04 #@! TO.N,/A7*
X98552000Y-102108000D02*
X97028000Y-102108000D01*
X99060000Y-101600000D02*
X98552000Y-102108000D01*
X97028000Y-102108000D02*
X96520000Y-101600000D01*
X134112000Y-101600000D02*
X134620000Y-101600000D01*
X99568000Y-102108000D02*
X112522000Y-102108000D01*
X131064000Y-102870000D02*
X132842000Y-102870000D01*
X130302000Y-102108000D02*
X131064000Y-102870000D01*
X112522000Y-102108000D02*
X113284000Y-102870000D01*
X99060000Y-101600000D02*
X99568000Y-102108000D01*
X115062000Y-102870000D02*
X116332000Y-101600000D01*
X116840000Y-101600000D02*
X117348000Y-102108000D01*
X132842000Y-102870000D02*
X134112000Y-101600000D01*
X113284000Y-102870000D02*
X115062000Y-102870000D01*
X116332000Y-101600000D02*
X116840000Y-101600000D01*
X117348000Y-102108000D02*
X118618000Y-102108000D01*
X118618000Y-102108000D02*
X130302000Y-102108000D01*
X106680000Y-48260000D02*
X107188000Y-48768000D01*
X107188000Y-48768000D02*
X118109988Y-48768000D01*
X152400000Y-136906000D02*
X151638000Y-136144000D01*
X152400000Y-140970000D02*
X152400000Y-136906000D01*
X215900000Y-43180000D02*
X215392000Y-42672000D01*
X215392000Y-42672000D02*
X209550000Y-42672000D01*
X209804000Y-42672000D02*
X207518000Y-42672000D01*
G04 #@! TO.N,/A16*
X115062000Y-95250000D02*
X116332000Y-93980000D01*
X116332000Y-93980000D02*
X116840000Y-93980000D01*
X113284000Y-95250000D02*
X115062000Y-95250000D01*
X112522000Y-94488000D02*
X113284000Y-95250000D01*
X99568000Y-94488000D02*
X106426000Y-94488000D01*
X99060000Y-93980000D02*
X99568000Y-94488000D01*
X131064000Y-44450000D02*
X130302000Y-43688000D01*
X133350000Y-44450000D02*
X131064000Y-44450000D01*
X134620000Y-43180000D02*
X133350000Y-44450000D01*
X117348000Y-94488000D02*
X116840000Y-93980000D01*
X130302000Y-94488000D02*
X117348000Y-94488000D01*
X106426000Y-94488000D02*
X112522000Y-94488000D01*
X97028000Y-80772000D02*
X106426000Y-80772000D01*
X96520000Y-81280000D02*
X97028000Y-80772000D01*
X175260000Y-140970000D02*
X175260000Y-136906000D01*
X175260000Y-136906000D02*
X174498000Y-136144000D01*
X211582000Y-59690000D02*
X211328000Y-59944000D01*
X219964000Y-59690000D02*
X211582000Y-59690000D01*
X220726000Y-58928000D02*
X219964000Y-59690000D01*
X225552000Y-58928000D02*
X220726000Y-58928000D01*
X226060000Y-58420000D02*
X225552000Y-58928000D01*
X174498000Y-96266000D02*
X211328000Y-96266000D01*
G04 #@! TO.N,/A17*
X97028000Y-83312000D02*
X99060000Y-83312000D01*
X131572000Y-47752000D02*
X129540000Y-47752000D01*
X132080000Y-48260000D02*
X131572000Y-47752000D01*
X134620000Y-45720000D02*
X132080000Y-48260000D01*
X113792000Y-96012000D02*
X105664000Y-96012000D01*
X114300000Y-96520000D02*
X113792000Y-96012000D01*
X97028000Y-83312000D02*
X96520000Y-83820000D01*
X105664000Y-83312000D02*
X97028000Y-83312000D01*
X114300000Y-96520000D02*
X114808000Y-96520000D01*
X114808000Y-96520000D02*
X116078000Y-95250000D01*
X116078000Y-95250000D02*
X129540000Y-95250000D01*
X177800000Y-140970000D02*
X177800000Y-136906000D01*
X177800000Y-136906000D02*
X177038000Y-136144000D01*
X212852000Y-62230000D02*
X212344000Y-61722000D01*
X221234000Y-61468000D02*
X220472000Y-62230000D01*
X220472000Y-62230000D02*
X212852000Y-62230000D01*
X225552000Y-61468000D02*
X221234000Y-61468000D01*
X226060000Y-60960000D02*
X225552000Y-61468000D01*
X177038000Y-95504000D02*
X212598000Y-95504000D01*
G04 #@! TO.N,/A18*
X134620000Y-48260000D02*
X132080000Y-50800000D01*
X132080000Y-50800000D02*
X131572000Y-50292000D01*
X131572000Y-50292000D02*
X128778000Y-50292000D01*
X180340000Y-140970000D02*
X180340000Y-136906000D01*
X180340000Y-136906000D02*
X179578000Y-136144000D01*
X179578000Y-94742000D02*
X210820000Y-94742000D01*
X97028000Y-85852000D02*
X99568000Y-85852000D01*
X96520000Y-86360000D02*
X97028000Y-85852000D01*
G04 #@! TO.N,/A19*
X124460000Y-45720000D02*
X124968000Y-46228000D01*
X124968000Y-46228000D02*
X126238000Y-46228000D01*
X182880000Y-140970000D02*
X182880000Y-136906000D01*
X182880000Y-136906000D02*
X182118000Y-136144000D01*
X181610000Y-93980000D02*
X210058000Y-93980000D01*
X216662000Y-57150000D02*
X217932000Y-55880000D01*
X214630000Y-57150000D02*
X216662000Y-57150000D01*
X217932000Y-55880000D02*
X218440000Y-55880000D01*
X213868000Y-56388000D02*
X214630000Y-57150000D01*
X210566000Y-56388000D02*
X213868000Y-56388000D01*
G04 #@! TO.N,/D0*
X190500000Y-136906000D02*
X189738000Y-136144000D01*
X190500000Y-140970000D02*
X190500000Y-136906000D01*
X115062000Y-123190000D02*
X116332000Y-121920000D01*
X116840000Y-121920000D02*
X117348000Y-122428000D01*
X131064000Y-123190000D02*
X132842000Y-123190000D01*
X113284000Y-123190000D02*
X115062000Y-123190000D01*
X112522000Y-122428000D02*
X113284000Y-123190000D01*
X130302000Y-122428000D02*
X131064000Y-123190000D01*
X117348000Y-122428000D02*
X130302000Y-122428000D01*
X132842000Y-123190000D02*
X134112000Y-121920000D01*
X116332000Y-121920000D02*
X116840000Y-121920000D01*
X99060000Y-121920000D02*
X99568000Y-122428000D01*
X99568000Y-122428000D02*
X112522000Y-122428000D01*
X134112000Y-121920000D02*
X134620000Y-121920000D01*
X97790000Y-120650000D02*
X99060000Y-121920000D01*
X88138000Y-120650000D02*
X97790000Y-120650000D01*
X86868000Y-121920000D02*
X88138000Y-120650000D01*
X86360000Y-121920000D02*
X86868000Y-121920000D01*
X198628000Y-127508000D02*
X203708000Y-127508000D01*
X194310000Y-128270000D02*
X196342000Y-128270000D01*
X203708000Y-127508000D02*
X204470000Y-128270000D01*
X188468000Y-127508000D02*
X193548000Y-127508000D01*
X193548000Y-127508000D02*
X194310000Y-128270000D01*
X198120000Y-127000000D02*
X198628000Y-127508000D01*
X196342000Y-128270000D02*
X197612000Y-127000000D01*
X187960000Y-127000000D02*
X188468000Y-127508000D01*
X204470000Y-128270000D02*
X206502000Y-128270000D01*
X197612000Y-127000000D02*
X198120000Y-127000000D01*
X207772000Y-127000000D02*
X208280000Y-127000000D01*
X206502000Y-128270000D02*
X207772000Y-127000000D01*
X152400000Y-121920000D02*
X151892000Y-121920000D01*
X151892000Y-121920000D02*
X150622000Y-123190000D01*
X150622000Y-123190000D02*
X148844000Y-123190000D01*
X148844000Y-123190000D02*
X148082000Y-122428000D01*
X135128000Y-122428000D02*
X134620000Y-121920000D01*
X148082000Y-122428000D02*
X135128000Y-122428000D01*
X187960000Y-127000000D02*
X186690000Y-125730000D01*
X170180000Y-119380000D02*
X170688000Y-119888000D01*
X169672000Y-119380000D02*
X170180000Y-119380000D01*
X166370000Y-120650000D02*
X168402000Y-120650000D01*
X165608000Y-121412000D02*
X166370000Y-120650000D01*
X152908000Y-121412000D02*
X165608000Y-121412000D01*
X168402000Y-120650000D02*
X169672000Y-119380000D01*
X152400000Y-121920000D02*
X152908000Y-121412000D01*
X182880000Y-125730000D02*
X181229000Y-124079000D01*
X177038000Y-119888000D02*
X170688000Y-119888000D01*
X182626000Y-125476000D02*
X177038000Y-119888000D01*
X186690000Y-125730000D02*
X182880000Y-125730000D01*
X180594000Y-56134000D02*
X189230000Y-56134000D01*
X180340000Y-55880000D02*
X180594000Y-56134000D01*
X226060000Y-45720000D02*
X225552000Y-45212000D01*
X225552000Y-45212000D02*
X224536000Y-45212000D01*
X215392000Y-68072000D02*
X202692000Y-68072000D01*
X201930000Y-67310000D02*
X198628000Y-67310000D01*
X202692000Y-68072000D02*
X201930000Y-67310000D01*
X215900000Y-68580000D02*
X215392000Y-68072000D01*
X198628000Y-67310000D02*
X198120000Y-67818000D01*
X198120000Y-67818000D02*
X189230000Y-67818000D01*
X216408000Y-68072000D02*
X223774000Y-68072000D01*
X215900000Y-68580000D02*
X216408000Y-68072000D01*
G04 #@! TO.N,/D1*
X193040000Y-140970000D02*
X193040000Y-136906000D01*
X193040000Y-136906000D02*
X192278000Y-136144000D01*
X130302000Y-124968000D02*
X131064000Y-125730000D01*
X132842000Y-125730000D02*
X134112000Y-124460000D01*
X134112000Y-124460000D02*
X134620000Y-124460000D01*
X99060000Y-124460000D02*
X99568000Y-124968000D01*
X116840000Y-124460000D02*
X117348000Y-124968000D01*
X116332000Y-124460000D02*
X116840000Y-124460000D01*
X117348000Y-124968000D02*
X125222000Y-124968000D01*
X99568000Y-124968000D02*
X102616000Y-124968000D01*
X112522000Y-124968000D02*
X113284000Y-125730000D01*
X115062000Y-125730000D02*
X116332000Y-124460000D01*
X131064000Y-125730000D02*
X132842000Y-125730000D01*
X113284000Y-125730000D02*
X115062000Y-125730000D01*
X198628000Y-124968000D02*
X203708000Y-124968000D01*
X204470000Y-125730000D02*
X206502000Y-125730000D01*
X206502000Y-125730000D02*
X207772000Y-124460000D01*
X197612000Y-124460000D02*
X198120000Y-124460000D01*
X203708000Y-124968000D02*
X204470000Y-125730000D01*
X187960000Y-124460000D02*
X188468000Y-124968000D01*
X207772000Y-124460000D02*
X208280000Y-124460000D01*
X193548000Y-124968000D02*
X194310000Y-125730000D01*
X198120000Y-124460000D02*
X198628000Y-124968000D01*
X188468000Y-124968000D02*
X193548000Y-124968000D01*
X194310000Y-125730000D02*
X196342000Y-125730000D01*
X196342000Y-125730000D02*
X197612000Y-124460000D01*
X170180000Y-116840000D02*
X170688000Y-117348000D01*
X102616000Y-124968000D02*
X112522000Y-124968000D01*
X86360000Y-119380000D02*
X86868000Y-119380000D01*
X86868000Y-119380000D02*
X88138000Y-118110000D01*
X88138000Y-118110000D02*
X102616000Y-118110000D01*
X152908000Y-118872000D02*
X152400000Y-119380000D01*
X165862000Y-118110000D02*
X165100000Y-118872000D01*
X168402000Y-118110000D02*
X165862000Y-118110000D01*
X169672000Y-116840000D02*
X168402000Y-118110000D01*
X170180000Y-116840000D02*
X169672000Y-116840000D01*
X165100000Y-118872000D02*
X152908000Y-118872000D01*
X125222000Y-124968000D02*
X130302000Y-124968000D01*
X182626000Y-122936000D02*
X177038000Y-117348000D01*
X177038000Y-117348000D02*
X170688000Y-117348000D01*
X179070000Y-57150000D02*
X190500000Y-57150000D01*
X177800000Y-58420000D02*
X179070000Y-57150000D01*
X218440000Y-43180000D02*
X218948000Y-43688000D01*
X218948000Y-43688000D02*
X223774000Y-43688000D01*
X186182000Y-123190000D02*
X182880000Y-123190000D01*
X182880000Y-123190000D02*
X181229000Y-121539000D01*
X187452000Y-124460000D02*
X186182000Y-123190000D01*
X187960000Y-124460000D02*
X187452000Y-124460000D01*
X215900000Y-71120000D02*
X217424000Y-69596000D01*
X217424000Y-69596000D02*
X223012000Y-69596000D01*
X201930000Y-69850000D02*
X202692000Y-70612000D01*
X215392000Y-70612000D02*
X215900000Y-71120000D01*
X202692000Y-70612000D02*
X215392000Y-70612000D01*
X198120000Y-69850000D02*
X201930000Y-69850000D01*
X197358000Y-70612000D02*
X198120000Y-69850000D01*
X192278000Y-70612000D02*
X197358000Y-70612000D01*
G04 #@! TO.N,/D2*
X116332000Y-127000000D02*
X116840000Y-127000000D01*
X113284000Y-128270000D02*
X115062000Y-128270000D01*
X115062000Y-128270000D02*
X116332000Y-127000000D01*
X112522000Y-127508000D02*
X113284000Y-128270000D01*
X99568000Y-127508000D02*
X103378000Y-127508000D01*
X99060000Y-127000000D02*
X99568000Y-127508000D01*
X132842000Y-128270000D02*
X134112000Y-127000000D01*
X131064000Y-128270000D02*
X132842000Y-128270000D01*
X130302000Y-127508000D02*
X131064000Y-128270000D01*
X134112000Y-127000000D02*
X134620000Y-127000000D01*
X116840000Y-127000000D02*
X117348000Y-127508000D01*
X117348000Y-127508000D02*
X125984000Y-127508000D01*
X203708000Y-122428000D02*
X204470000Y-123190000D01*
X198628000Y-122428000D02*
X203708000Y-122428000D01*
X194310000Y-123190000D02*
X196342000Y-123190000D01*
X188468000Y-122428000D02*
X193548000Y-122428000D01*
X198120000Y-121920000D02*
X198628000Y-122428000D01*
X196342000Y-123190000D02*
X197612000Y-121920000D01*
X193548000Y-122428000D02*
X194310000Y-123190000D01*
X187960000Y-121920000D02*
X188468000Y-122428000D01*
X206502000Y-123190000D02*
X207772000Y-121920000D01*
X204470000Y-123190000D02*
X206502000Y-123190000D01*
X207772000Y-121920000D02*
X208280000Y-121920000D01*
X197612000Y-121920000D02*
X198120000Y-121920000D01*
X195580000Y-140970000D02*
X195580000Y-136906000D01*
X195580000Y-136906000D02*
X194818000Y-136144000D01*
X170180000Y-114300000D02*
X169672000Y-114300000D01*
X169672000Y-114300000D02*
X168402000Y-115570000D01*
X152908000Y-116332000D02*
X152400000Y-116840000D01*
X166370000Y-115570000D02*
X165608000Y-116332000D01*
X168402000Y-115570000D02*
X166370000Y-115570000D01*
X154686000Y-116332000D02*
X152908000Y-116332000D01*
X187960000Y-121920000D02*
X186690000Y-120650000D01*
X170180000Y-114300000D02*
X170688000Y-114808000D01*
X103378000Y-127508000D02*
X112522000Y-127508000D01*
X88138000Y-115570000D02*
X103378000Y-115570000D01*
X86868000Y-116840000D02*
X88138000Y-115570000D01*
X86360000Y-116840000D02*
X86868000Y-116840000D01*
X125984000Y-127508000D02*
X130302000Y-127508000D01*
X186690000Y-120650000D02*
X182880000Y-120650000D01*
X182626000Y-120396000D02*
X177038000Y-114808000D01*
X177038000Y-114808000D02*
X170688000Y-114808000D01*
X182880000Y-120650000D02*
X181229000Y-118999000D01*
X215392000Y-73152000D02*
X215900000Y-73660000D01*
X202692000Y-73152000D02*
X215392000Y-73152000D01*
X199136000Y-72390000D02*
X201930000Y-72390000D01*
X201930000Y-72390000D02*
X202692000Y-73152000D01*
X198374000Y-73152000D02*
X199136000Y-72390000D01*
X193548000Y-73152000D02*
X198374000Y-73152000D01*
X165608000Y-116332000D02*
X154686000Y-116332000D01*
X154940000Y-116332000D02*
X154686000Y-116332000D01*
X180848000Y-58928000D02*
X180340000Y-58420000D01*
X191008000Y-58928000D02*
X180848000Y-58928000D01*
X191262000Y-58674000D02*
X191008000Y-58928000D01*
X218440000Y-45720000D02*
X218948000Y-46228000D01*
X218948000Y-46228000D02*
X223012000Y-46228000D01*
X222757994Y-73152000D02*
X222758000Y-73151994D01*
X216408000Y-73152000D02*
X222757994Y-73152000D01*
X215900000Y-73660000D02*
X216408000Y-73152000D01*
G04 #@! TO.N,/D3*
X149352000Y-129032000D02*
X136398000Y-129032000D01*
X114808000Y-129540000D02*
X114300000Y-129540000D01*
X133858000Y-128270000D02*
X132588000Y-129540000D01*
X132080000Y-129540000D02*
X131572000Y-129032000D01*
X149860000Y-129540000D02*
X149352000Y-129032000D01*
X117856000Y-128270000D02*
X116078000Y-128270000D01*
X135636000Y-128270000D02*
X133858000Y-128270000D01*
X136398000Y-129032000D02*
X135636000Y-128270000D01*
X131572000Y-129032000D02*
X118618000Y-129032000D01*
X116078000Y-128270000D02*
X114808000Y-129540000D01*
X132588000Y-129540000D02*
X132080000Y-129540000D01*
X118618000Y-129032000D02*
X117856000Y-128270000D01*
X198628000Y-119888000D02*
X203708000Y-119888000D01*
X204470000Y-120650000D02*
X206502000Y-120650000D01*
X207772000Y-119380000D02*
X208280000Y-119380000D01*
X197612000Y-119380000D02*
X198120000Y-119380000D01*
X196342000Y-120650000D02*
X197612000Y-119380000D01*
X206502000Y-120650000D02*
X207772000Y-119380000D01*
X203708000Y-119888000D02*
X204470000Y-120650000D01*
X198120000Y-119380000D02*
X198628000Y-119888000D01*
X193548000Y-119888000D02*
X194310000Y-120650000D01*
X194310000Y-120650000D02*
X196342000Y-120650000D01*
X188468000Y-119888000D02*
X193548000Y-119888000D01*
X187960000Y-119380000D02*
X188468000Y-119888000D01*
X198120000Y-140970000D02*
X198120000Y-136906000D01*
X198120000Y-136906000D02*
X197358000Y-136144000D01*
X170180000Y-111760000D02*
X169672000Y-111760000D01*
X169672000Y-111760000D02*
X168402000Y-113030000D01*
X168402000Y-113030000D02*
X166370000Y-113030000D01*
X166370000Y-113030000D02*
X165608000Y-113792000D01*
X152908000Y-113792000D02*
X152400000Y-114300000D01*
X165608000Y-113792000D02*
X152908000Y-113792000D01*
X187960000Y-119380000D02*
X186690000Y-118110000D01*
X170180000Y-111760000D02*
X170688000Y-112268000D01*
X88138000Y-113030000D02*
X104140000Y-113030000D01*
X86868000Y-114300000D02*
X88138000Y-113030000D01*
X86360000Y-114300000D02*
X86868000Y-114300000D01*
X113792000Y-129032000D02*
X104140006Y-129032000D01*
X104140006Y-129032000D02*
X104140000Y-129031994D01*
X114300000Y-129540000D02*
X113792000Y-129032000D01*
X149860000Y-129540000D02*
X150368000Y-129540000D01*
X182626000Y-117856000D02*
X177038000Y-112268000D01*
X177038000Y-112268000D02*
X170688000Y-112268000D01*
X186690000Y-118110000D02*
X182880000Y-118110000D01*
X182880000Y-118110000D02*
X181229000Y-116459000D01*
X177800000Y-60960000D02*
X179070000Y-59690000D01*
X179070000Y-59690000D02*
X198374000Y-59690000D01*
X218440000Y-48260000D02*
X218694000Y-48514000D01*
X218694000Y-48514000D02*
X218948000Y-48768000D01*
X218948000Y-48768000D02*
X222250000Y-48768000D01*
X216408000Y-75692000D02*
X221996000Y-75692000D01*
X215900000Y-76200000D02*
X216408000Y-75692000D01*
X204470000Y-75692000D02*
X215392000Y-75692000D01*
X215392000Y-75692000D02*
X215900000Y-76200000D01*
X203708000Y-74930000D02*
X204470000Y-75692000D01*
X198882000Y-74930000D02*
X203708000Y-74930000D01*
X198120000Y-75692000D02*
X198882000Y-74930000D01*
G04 #@! TO.N,/D4*
X133858000Y-125730000D02*
X132588000Y-127000000D01*
X132080000Y-127000000D02*
X131572000Y-126492000D01*
X117856000Y-125730000D02*
X116078000Y-125730000D01*
X135636000Y-125730000D02*
X133858000Y-125730000D01*
X136398000Y-126492000D02*
X135636000Y-125730000D01*
X118618000Y-126492000D02*
X117856000Y-125730000D01*
X131572000Y-126492000D02*
X118618000Y-126492000D01*
X116078000Y-125730000D02*
X114808000Y-127000000D01*
X132588000Y-127000000D02*
X132080000Y-127000000D01*
X149860000Y-127000000D02*
X149352000Y-126492000D01*
X149352000Y-126492000D02*
X136398000Y-126492000D01*
X114808000Y-127000000D02*
X114300000Y-127000000D01*
X194310000Y-118110000D02*
X196342000Y-118110000D01*
X188468000Y-117348000D02*
X193548000Y-117348000D01*
X203708000Y-117348000D02*
X204470000Y-118110000D01*
X198628000Y-117348000D02*
X203708000Y-117348000D01*
X204470000Y-118110000D02*
X206502000Y-118110000D01*
X206502000Y-118110000D02*
X207772000Y-116840000D01*
X207772000Y-116840000D02*
X208280000Y-116840000D01*
X197612000Y-116840000D02*
X198120000Y-116840000D01*
X198120000Y-116840000D02*
X198628000Y-117348000D01*
X196342000Y-118110000D02*
X197612000Y-116840000D01*
X193548000Y-117348000D02*
X194310000Y-118110000D01*
X187960000Y-116840000D02*
X188468000Y-117348000D01*
X200660000Y-136906000D02*
X199898000Y-136144000D01*
X200660000Y-140970000D02*
X200660000Y-136906000D01*
X170180000Y-109220000D02*
X169672000Y-109220000D01*
X169672000Y-109220000D02*
X168402000Y-110490000D01*
X168402000Y-110490000D02*
X166370000Y-110490000D01*
X166370000Y-110490000D02*
X165608000Y-111252000D01*
X152908000Y-111252000D02*
X152400000Y-111760000D01*
X165608000Y-111252000D02*
X152908000Y-111252000D01*
X187960000Y-116840000D02*
X186690000Y-115570000D01*
X86360000Y-111760000D02*
X86868000Y-111760000D01*
X86868000Y-111760000D02*
X88138000Y-110490000D01*
X88138000Y-110490000D02*
X104902000Y-110490000D01*
X113792000Y-126492000D02*
X104865010Y-126492000D01*
X114300000Y-127000000D02*
X113792000Y-126492000D01*
X186690000Y-115570000D02*
X182880000Y-115570000D01*
X182880000Y-115570000D02*
X181229000Y-113919000D01*
X186690000Y-68326000D02*
X180340000Y-68326000D01*
X186944000Y-68580000D02*
X186690000Y-68326000D01*
X190246000Y-68580000D02*
X186944000Y-68580000D01*
X190500000Y-68326000D02*
X190246000Y-68580000D01*
X198882000Y-68326000D02*
X190500000Y-68326000D01*
X174498000Y-110744000D02*
X173482000Y-109728000D01*
X178054000Y-110744000D02*
X174498000Y-110744000D01*
X182626000Y-115316000D02*
X178054000Y-110744000D01*
X170688000Y-109728000D02*
X170180000Y-109220000D01*
X173482000Y-109728000D02*
X170688000Y-109728000D01*
X199644000Y-77470000D02*
X198882000Y-78232000D01*
X206502000Y-77470000D02*
X199644000Y-77470000D01*
X207264000Y-78232000D02*
X206502000Y-77470000D01*
X215392000Y-78232000D02*
X207264000Y-78232000D01*
X215900000Y-78740000D02*
X215392000Y-78232000D01*
G04 #@! TO.N,/D5*
X149352000Y-123952000D02*
X136398000Y-123952000D01*
X132080000Y-124460000D02*
X131572000Y-123952000D01*
X117856000Y-123190000D02*
X116078000Y-123190000D01*
X132588000Y-124460000D02*
X132080000Y-124460000D01*
X135636000Y-123190000D02*
X133858000Y-123190000D01*
X149860000Y-124460000D02*
X149352000Y-123952000D01*
X136398000Y-123952000D02*
X135636000Y-123190000D01*
X131572000Y-123952000D02*
X118618000Y-123952000D01*
X116078000Y-123190000D02*
X114808000Y-124460000D01*
X118618000Y-123952000D02*
X117856000Y-123190000D01*
X133858000Y-123190000D02*
X132588000Y-124460000D01*
X114808000Y-124460000D02*
X114300000Y-124460000D01*
X204470000Y-115570000D02*
X206502000Y-115570000D01*
X198628000Y-114808000D02*
X203708000Y-114808000D01*
X203708000Y-114808000D02*
X204470000Y-115570000D01*
X206502000Y-115570000D02*
X207772000Y-114300000D01*
X207772000Y-114300000D02*
X208280000Y-114300000D01*
X198120000Y-114300000D02*
X198628000Y-114808000D01*
X197612000Y-114300000D02*
X198120000Y-114300000D01*
X196342000Y-115570000D02*
X197612000Y-114300000D01*
X193548000Y-114808000D02*
X194310000Y-115570000D01*
X194310000Y-115570000D02*
X196342000Y-115570000D01*
X188468000Y-114808000D02*
X193548000Y-114808000D01*
X187960000Y-114300000D02*
X188468000Y-114808000D01*
X203200000Y-140970000D02*
X203200000Y-136906000D01*
X203200000Y-136906000D02*
X202438000Y-136144000D01*
X187960000Y-114300000D02*
X186690000Y-113030000D01*
X170180000Y-106680000D02*
X170688000Y-107188000D01*
X86868000Y-109220000D02*
X88138000Y-107950000D01*
X86360000Y-109220000D02*
X86868000Y-109220000D01*
X88138000Y-107950000D02*
X105664000Y-107950000D01*
X113792000Y-123952000D02*
X105627010Y-123952000D01*
X114300000Y-124460000D02*
X113792000Y-123952000D01*
X170180000Y-106680000D02*
X169672000Y-106680000D01*
X169672000Y-106680000D02*
X168402000Y-107950000D01*
X152908000Y-108712000D02*
X152400000Y-109220000D01*
X168402000Y-107950000D02*
X166370000Y-107950000D01*
X166370000Y-107950000D02*
X165608000Y-108712000D01*
X165608000Y-108712000D02*
X157226000Y-108712000D01*
X186690000Y-113030000D02*
X182880000Y-113030000D01*
X177038000Y-107188000D02*
X170688000Y-107188000D01*
X182880000Y-113030000D02*
X181229000Y-111379000D01*
X182626000Y-112776000D02*
X177038000Y-107188000D01*
X215392000Y-85852000D02*
X215900000Y-86360000D01*
X202438000Y-85852000D02*
X215392000Y-85852000D01*
X157226000Y-108712000D02*
X152908000Y-108712000D01*
X157226000Y-108712000D02*
X156972000Y-108712000D01*
X202438000Y-85852000D02*
X201676000Y-85090000D01*
X201676000Y-85090000D02*
X181610000Y-85090000D01*
G04 #@! TO.N,/D6*
X149352000Y-121412000D02*
X136398000Y-121412000D01*
X114808000Y-121920000D02*
X114300000Y-121920000D01*
X133858000Y-120650000D02*
X132588000Y-121920000D01*
X132080000Y-121920000D02*
X131572000Y-121412000D01*
X149860000Y-121920000D02*
X149352000Y-121412000D01*
X117856000Y-120650000D02*
X116078000Y-120650000D01*
X135636000Y-120650000D02*
X133858000Y-120650000D01*
X136398000Y-121412000D02*
X135636000Y-120650000D01*
X131572000Y-121412000D02*
X118618000Y-121412000D01*
X116078000Y-120650000D02*
X114808000Y-121920000D01*
X132588000Y-121920000D02*
X132080000Y-121920000D01*
X118618000Y-121412000D02*
X117856000Y-120650000D01*
X204470000Y-113030000D02*
X206502000Y-113030000D01*
X198628000Y-112268000D02*
X203708000Y-112268000D01*
X203708000Y-112268000D02*
X204470000Y-113030000D01*
X206502000Y-113030000D02*
X207772000Y-111760000D01*
X207772000Y-111760000D02*
X208280000Y-111760000D01*
X198120000Y-111760000D02*
X198628000Y-112268000D01*
X197612000Y-111760000D02*
X198120000Y-111760000D01*
X196342000Y-113030000D02*
X197612000Y-111760000D01*
X193548000Y-112268000D02*
X194310000Y-113030000D01*
X194310000Y-113030000D02*
X196342000Y-113030000D01*
X188468000Y-112268000D02*
X193548000Y-112268000D01*
X187960000Y-111760000D02*
X188468000Y-112268000D01*
X205740000Y-140970000D02*
X205740000Y-136906000D01*
X205740000Y-136906000D02*
X204978000Y-136144000D01*
X152908000Y-106172000D02*
X152400000Y-106680000D01*
X170180000Y-104140000D02*
X169672000Y-104140000D01*
X168402000Y-105410000D02*
X166370000Y-105410000D01*
X169672000Y-104140000D02*
X168402000Y-105410000D01*
X166370000Y-105410000D02*
X165608000Y-106172000D01*
X157988000Y-106172000D02*
X152908000Y-106172000D01*
X86868000Y-106680000D02*
X88138000Y-105410000D01*
X86360000Y-106680000D02*
X86868000Y-106680000D01*
X88138000Y-105410000D02*
X106426000Y-105410000D01*
X113792000Y-121412000D02*
X106389010Y-121412000D01*
X114300000Y-121920000D02*
X113792000Y-121412000D01*
X215900000Y-88900000D02*
X215392000Y-88392000D01*
X215392000Y-88392000D02*
X203708000Y-88392000D01*
X165608000Y-106172000D02*
X157988000Y-106172000D01*
X163576000Y-106172000D02*
X157988000Y-106172000D01*
X170688000Y-104648000D02*
X170180000Y-104140000D01*
X187960000Y-111760000D02*
X186690000Y-110490000D01*
X203708000Y-88392000D02*
X202438000Y-88392000D01*
X202438000Y-88392000D02*
X201676000Y-87630000D01*
X201676000Y-87630000D02*
X182880000Y-87630000D01*
X183642000Y-110490000D02*
X186690000Y-110490000D01*
X182372000Y-109220000D02*
X183642000Y-110490000D01*
X181610000Y-109220000D02*
X182372000Y-109220000D01*
X177038000Y-104648000D02*
X181610000Y-109220000D01*
X170688000Y-104648000D02*
X177038000Y-104648000D01*
G04 #@! TO.N,/D7*
X131572000Y-118872000D02*
X118618000Y-118872000D01*
X149352000Y-118872000D02*
X136398000Y-118872000D01*
X132080000Y-119380000D02*
X131572000Y-118872000D01*
X118618000Y-118872000D02*
X117856000Y-118110000D01*
X114808000Y-119380000D02*
X114300000Y-119380000D01*
X133858000Y-118110000D02*
X132588000Y-119380000D01*
X116078000Y-118110000D02*
X114808000Y-119380000D01*
X136398000Y-118872000D02*
X135636000Y-118110000D01*
X132588000Y-119380000D02*
X132080000Y-119380000D01*
X117856000Y-118110000D02*
X116078000Y-118110000D01*
X149860000Y-119380000D02*
X149352000Y-118872000D01*
X135636000Y-118110000D02*
X133858000Y-118110000D01*
X196342000Y-110490000D02*
X197612000Y-109220000D01*
X194310000Y-110490000D02*
X196342000Y-110490000D01*
X193548000Y-109728000D02*
X194310000Y-110490000D01*
X197612000Y-109220000D02*
X198120000Y-109220000D01*
X188468000Y-109728000D02*
X193548000Y-109728000D01*
X187960000Y-109220000D02*
X188468000Y-109728000D01*
X207772000Y-109220000D02*
X208280000Y-109220000D01*
X206502000Y-110490000D02*
X207772000Y-109220000D01*
X203708000Y-109728000D02*
X204470000Y-110490000D01*
X204470000Y-110490000D02*
X206502000Y-110490000D01*
X198628000Y-109728000D02*
X203708000Y-109728000D01*
X198120000Y-109220000D02*
X198628000Y-109728000D01*
X166370000Y-102870000D02*
X165608000Y-103632000D01*
X168402000Y-102870000D02*
X166370000Y-102870000D01*
X170180000Y-101600000D02*
X169672000Y-101600000D01*
X152908000Y-103632000D02*
X152400000Y-104140000D01*
X169672000Y-101600000D02*
X168402000Y-102870000D01*
X208280000Y-140970000D02*
X208280000Y-136906000D01*
X208280000Y-136906000D02*
X207518000Y-136144000D01*
X158750000Y-103632000D02*
X152908000Y-103632000D01*
X208788000Y-109728000D02*
X208280000Y-109220000D01*
X209804000Y-109728000D02*
X208788000Y-109728000D01*
X113792000Y-118872000D02*
X107188000Y-118872000D01*
X114300000Y-119380000D02*
X113792000Y-118872000D01*
X88138000Y-102870000D02*
X107188000Y-102870000D01*
X86868000Y-104140000D02*
X88138000Y-102870000D01*
X86360000Y-104140000D02*
X86868000Y-104140000D01*
X170688000Y-102108000D02*
X170180000Y-101600000D01*
X177038000Y-102108000D02*
X170688000Y-102108000D01*
X182626000Y-107696000D02*
X177038000Y-102108000D01*
X182880000Y-107950000D02*
X181229000Y-106299000D01*
X186690000Y-107950000D02*
X182880000Y-107950000D01*
X187960000Y-109220000D02*
X186690000Y-107950000D01*
X215392000Y-90932000D02*
X215900000Y-91440000D01*
X209804000Y-90932000D02*
X215392000Y-90932000D01*
X165608000Y-103632000D02*
X158750000Y-103632000D01*
X165100000Y-103632000D02*
X158750000Y-103632000D01*
X209804000Y-90932000D02*
X205994000Y-90932000D01*
X202438000Y-90932000D02*
X201676000Y-90170000D01*
X185420000Y-90170000D02*
X184150000Y-90170000D01*
X201676000Y-90170000D02*
X185420000Y-90170000D01*
X185420000Y-90170000D02*
X185166000Y-90170000D01*
X205994000Y-90932000D02*
X202438000Y-90932000D01*
G04 #@! TO.N,/MWR*
X114300000Y-99060000D02*
X114808000Y-99060000D01*
X114808000Y-99060000D02*
X116078000Y-97790000D01*
X116078000Y-97790000D02*
X118110000Y-97790000D01*
X118110000Y-97790000D02*
X118872000Y-98552000D01*
X131572000Y-98552000D02*
X132080000Y-99060000D01*
X118872000Y-98552000D02*
X131572000Y-98552000D01*
X183896000Y-97028000D02*
X204470000Y-97028000D01*
X201168000Y-51308000D02*
X200660000Y-50800000D01*
X203962000Y-51308000D02*
X201168000Y-51308000D01*
X86360000Y-88900000D02*
X85852000Y-88392000D01*
X85852000Y-88392000D02*
X84582000Y-88392000D01*
X107950000Y-90170000D02*
X108458000Y-90678000D01*
X87630000Y-90170000D02*
X107950000Y-90170000D01*
X86360000Y-88900000D02*
X87630000Y-90170000D01*
X113792000Y-98552000D02*
X114300000Y-99060000D01*
X108204000Y-98552000D02*
X113792000Y-98552000D01*
G04 #@! TO.N,/MRD*
X132080000Y-111760000D02*
X131572000Y-111252000D01*
X132588000Y-111760000D02*
X132080000Y-111760000D01*
X131572000Y-111252000D02*
X118618000Y-111252000D01*
X135636000Y-110490000D02*
X133858000Y-110490000D01*
X118618000Y-111252000D02*
X117856000Y-110490000D01*
X114808000Y-111760000D02*
X114300000Y-111760000D01*
X149352000Y-111252000D02*
X136398000Y-111252000D01*
X116078000Y-110490000D02*
X114808000Y-111760000D01*
X117856000Y-110490000D02*
X116078000Y-110490000D01*
X136398000Y-111252000D02*
X135636000Y-110490000D01*
X133858000Y-110490000D02*
X132588000Y-111760000D01*
X149860000Y-111760000D02*
X149352000Y-111252000D01*
X78740000Y-78740000D02*
X79248000Y-79248000D01*
X79248000Y-79248000D02*
X84328000Y-79248000D01*
X84328000Y-79248000D02*
X85090000Y-80010000D01*
X85090000Y-80010000D02*
X112776000Y-80010000D01*
X113792000Y-111252000D02*
X114300000Y-111760000D01*
X112522000Y-111252000D02*
X113792000Y-111252000D01*
X201168000Y-48768000D02*
X200660000Y-48260000D01*
X204724000Y-48768000D02*
X201168000Y-48768000D01*
X78740000Y-78740000D02*
X78232000Y-79248000D01*
X78232000Y-79248000D02*
X66040000Y-79248000D01*
X191516000Y-99822000D02*
X205232000Y-99822000D01*
X191262000Y-100076000D02*
X191516000Y-99822000D01*
X188468000Y-100076000D02*
X191262000Y-100076000D01*
X188214000Y-99822000D02*
X188468000Y-100076000D01*
X182880000Y-99822000D02*
X188214000Y-99822000D01*
X182372000Y-100330000D02*
X182880000Y-99822000D01*
G04 #@! TO.N,/IORD*
X152908000Y-101092000D02*
X152400000Y-101600000D01*
X154940000Y-101092000D02*
X152908000Y-101092000D01*
X200660000Y-43180000D02*
X201168000Y-43688000D01*
X201168000Y-43688000D02*
X202438000Y-43688000D01*
X201676000Y-52070000D02*
X202438000Y-52832000D01*
X179070000Y-52070000D02*
X201676000Y-52070000D01*
X177800000Y-50800000D02*
X179070000Y-52070000D01*
X177800000Y-50800000D02*
X177800000Y-51054000D01*
X177800000Y-51054000D02*
X177546000Y-51308000D01*
X177546000Y-51308000D02*
X175006000Y-51308000D01*
X175006000Y-51308000D02*
X174244000Y-52070000D01*
X174244000Y-52070000D02*
X159512000Y-52070000D01*
X159512000Y-52070000D02*
X158750000Y-52832000D01*
X155448000Y-52832000D02*
X154940000Y-53340000D01*
X158750000Y-52832000D02*
X155448000Y-52832000D01*
X154940000Y-85852000D02*
X156972000Y-85852000D01*
X101346000Y-85852000D02*
X154940000Y-85852000D01*
X100584000Y-85090000D02*
X101346000Y-85852000D01*
X85344000Y-85090000D02*
X100584000Y-85090000D01*
X84582000Y-85852000D02*
X85344000Y-85090000D01*
X79248000Y-85852000D02*
X80518000Y-85852000D01*
X78740000Y-86360000D02*
X79248000Y-85852000D01*
X80518000Y-85852000D02*
X84582000Y-85852000D01*
X81280000Y-72390000D02*
X68580000Y-72390000D01*
G04 #@! TO.N,/PU1*
X78740000Y-81280000D02*
X79248000Y-81788000D01*
X79248000Y-81788000D02*
X81280000Y-81788000D01*
X85852000Y-76708000D02*
X86360000Y-76200000D01*
X79248000Y-76708000D02*
X81280000Y-76708000D01*
X78740000Y-76200000D02*
X79248000Y-76708000D01*
X86360000Y-86360000D02*
X85852000Y-86868000D01*
X85852000Y-86868000D02*
X81280000Y-86868000D01*
X81280000Y-76708000D02*
X85852000Y-76708000D01*
X78740000Y-76200000D02*
X78232000Y-75692000D01*
X78232000Y-75692000D02*
X76962000Y-75692000D01*
X76962000Y-73152000D02*
X66040000Y-73152000D01*
G04 #@! TO.N,/IOWR*
X152400000Y-99060000D02*
X152908000Y-98552000D01*
X152908000Y-98552000D02*
X156210000Y-98552000D01*
X162052000Y-55372000D02*
X156718000Y-55372000D01*
X162560000Y-55880000D02*
X162052000Y-55372000D01*
X155448000Y-46228000D02*
X156718000Y-46228000D01*
X154940000Y-45720000D02*
X155448000Y-46228000D01*
X86360000Y-81280000D02*
X87630000Y-82550000D01*
X87630000Y-82550000D02*
X156210000Y-82550000D01*
X179070000Y-54610000D02*
X203200000Y-54610000D01*
X177800000Y-53340000D02*
X179070000Y-54610000D01*
X200660000Y-45720000D02*
X201168000Y-46228000D01*
X201168000Y-46228000D02*
X203200000Y-46228000D01*
X177800000Y-53340000D02*
X177800000Y-53594000D01*
X177800000Y-53594000D02*
X177546000Y-53848000D01*
X177546000Y-53848000D02*
X174752000Y-53848000D01*
X174752000Y-53848000D02*
X173990000Y-54610000D01*
X163830000Y-54610000D02*
X162560000Y-55880000D01*
X173990000Y-54610000D02*
X163830000Y-54610000D01*
D28*
G04 #@! TO.N,/GND*
X197612000Y-129540000D02*
X198120000Y-129540000D01*
X193548000Y-130048000D02*
X194310000Y-130810000D01*
X188468000Y-130048000D02*
X193548000Y-130048000D01*
X203708000Y-130048000D02*
X204470000Y-130810000D01*
X196342000Y-130810000D02*
X197612000Y-129540000D01*
X206502000Y-130810000D02*
X207772000Y-129540000D01*
X204470000Y-130810000D02*
X206502000Y-130810000D01*
X207772000Y-129540000D02*
X208280000Y-129540000D01*
X187960000Y-129540000D02*
X188468000Y-130048000D01*
X198120000Y-129540000D02*
X198628000Y-130048000D01*
X194310000Y-130810000D02*
X196342000Y-130810000D01*
X198628000Y-130048000D02*
X203708000Y-130048000D01*
X115062000Y-130810000D02*
X116332000Y-129540000D01*
X116840000Y-129540000D02*
X117348000Y-130048000D01*
X131064000Y-130810000D02*
X132842000Y-130810000D01*
X113284000Y-130810000D02*
X115062000Y-130810000D01*
X112522000Y-130048000D02*
X113284000Y-130810000D01*
X130302000Y-130048000D02*
X131064000Y-130810000D01*
X117348000Y-130048000D02*
X130302000Y-130048000D01*
X132842000Y-130810000D02*
X134112000Y-129540000D01*
X116332000Y-129540000D02*
X116840000Y-129540000D01*
X99060000Y-129540000D02*
X99568000Y-130048000D01*
X99568000Y-130048000D02*
X112522000Y-130048000D01*
X134112000Y-129540000D02*
X134620000Y-129540000D01*
X71962000Y-40894000D02*
X71200000Y-40132000D01*
X77978000Y-41402000D02*
X74422000Y-41402000D01*
X78740000Y-40640000D02*
X77978000Y-41402000D01*
X81360000Y-40132000D02*
X81360000Y-40306000D01*
X73914000Y-40894000D02*
X71962000Y-40894000D01*
X74422000Y-41402000D02*
X73914000Y-40894000D01*
X81026000Y-40640000D02*
X78740000Y-40640000D01*
X81360000Y-40306000D02*
X81026000Y-40640000D01*
X109808000Y-88900000D02*
X109300000Y-88392000D01*
X112522000Y-88900000D02*
X109808000Y-88900000D01*
X123698000Y-89662000D02*
X113284000Y-89662000D01*
X124460000Y-88900000D02*
X123698000Y-89662000D01*
X113284000Y-89662000D02*
X112522000Y-88900000D01*
X126746000Y-88900000D02*
X124460000Y-88900000D01*
X127080000Y-88566000D02*
X126746000Y-88900000D01*
X127080000Y-88392000D02*
X127080000Y-88566000D01*
X162640000Y-93472000D02*
X162640000Y-93646000D01*
X148844000Y-94742000D02*
X148082000Y-93980000D01*
X148082000Y-93980000D02*
X145368000Y-93980000D01*
X159258000Y-94742000D02*
X148844000Y-94742000D01*
X162640000Y-93646000D02*
X162306000Y-93980000D01*
X162306000Y-93980000D02*
X160020000Y-93980000D01*
X145368000Y-93980000D02*
X144860000Y-93472000D01*
X160020000Y-93980000D02*
X159258000Y-94742000D01*
X210900000Y-103806000D02*
X210566000Y-104140000D01*
X210900000Y-103632000D02*
X210900000Y-103806000D01*
X210566000Y-104140000D02*
X208280000Y-104140000D01*
X200740000Y-103632000D02*
X200740000Y-103806000D01*
X200406000Y-104140000D02*
X198120000Y-104140000D01*
X200740000Y-103806000D02*
X200406000Y-104140000D01*
X186182000Y-130810000D02*
X187452000Y-129540000D01*
X184150000Y-130810000D02*
X186182000Y-130810000D01*
X183388000Y-130048000D02*
X184150000Y-130810000D01*
X187452000Y-129540000D02*
X187960000Y-129540000D01*
X170688000Y-130048000D02*
X183388000Y-130048000D01*
X170180000Y-129540000D02*
X170688000Y-130048000D01*
X152908000Y-130048000D02*
X165608000Y-130048000D01*
X169672000Y-129540000D02*
X170180000Y-129540000D01*
X152400000Y-129540000D02*
X152908000Y-130048000D01*
X166370000Y-130810000D02*
X168402000Y-130810000D01*
X168402000Y-130810000D02*
X169672000Y-129540000D01*
X165608000Y-130048000D02*
X166370000Y-130810000D01*
X148590000Y-130810000D02*
X150622000Y-130810000D01*
X151892000Y-129540000D02*
X152400000Y-129540000D01*
X135128000Y-130048000D02*
X147828000Y-130048000D01*
X134620000Y-129540000D02*
X135128000Y-130048000D01*
X150622000Y-130810000D02*
X151892000Y-129540000D01*
X147828000Y-130048000D02*
X148590000Y-130810000D01*
X208788000Y-130048000D02*
X208280000Y-129540000D01*
X210820000Y-130048000D02*
X208788000Y-130048000D01*
X60960000Y-132080000D02*
X61468000Y-132588000D01*
X61468000Y-132588000D02*
X70866000Y-132588000D01*
X70866000Y-132588000D02*
X73660000Y-132588000D01*
X73660000Y-132588000D02*
X74422000Y-133350000D01*
X74422000Y-133350000D02*
X77470000Y-133350000D01*
X77470000Y-133350000D02*
X78232000Y-132588000D01*
X78232000Y-132588000D02*
X98552000Y-132588000D01*
X75692000Y-127508000D02*
X76200000Y-127000000D01*
X70866000Y-127508000D02*
X75692000Y-127508000D01*
X81360000Y-96012000D02*
X81026000Y-96012000D01*
X81868000Y-96520000D02*
X81360000Y-96012000D01*
X83820000Y-96520000D02*
X81868000Y-96520000D01*
X84582000Y-97282000D02*
X83820000Y-96520000D01*
X88138000Y-97282000D02*
X84582000Y-97282000D01*
X88900000Y-96520000D02*
X88138000Y-97282000D01*
X91520000Y-96186000D02*
X91186000Y-96520000D01*
X91186000Y-96520000D02*
X88900000Y-96520000D01*
X91520000Y-96012000D02*
X91520000Y-96186000D01*
X117428000Y-40640000D02*
X116920000Y-40132000D01*
X119380000Y-40640000D02*
X117428000Y-40640000D01*
X120142000Y-41402000D02*
X119380000Y-40640000D01*
X123698000Y-41402000D02*
X120142000Y-41402000D01*
X124460000Y-40640000D02*
X123698000Y-41402000D01*
X126746000Y-40640000D02*
X124460000Y-40640000D01*
X127080000Y-40306000D02*
X126746000Y-40640000D01*
X127080000Y-40132000D02*
X127080000Y-40306000D01*
X127588000Y-40640000D02*
X127080000Y-40132000D01*
X129540000Y-40640000D02*
X127588000Y-40640000D01*
X130302000Y-41402000D02*
X129540000Y-40640000D01*
X134620000Y-40640000D02*
X133858000Y-41402000D01*
X136906000Y-40640000D02*
X134620000Y-40640000D01*
X133858000Y-41402000D02*
X130302000Y-41402000D01*
X137240000Y-40306000D02*
X136906000Y-40640000D01*
X137240000Y-40132000D02*
X137240000Y-40306000D01*
X139700000Y-40640000D02*
X137748000Y-40640000D01*
X140462000Y-41402000D02*
X139700000Y-40640000D01*
X144018000Y-41402000D02*
X140462000Y-41402000D01*
X137748000Y-40640000D02*
X137240000Y-40132000D01*
X144780000Y-40640000D02*
X144018000Y-41402000D01*
X147066000Y-40640000D02*
X144780000Y-40640000D01*
X147400000Y-40306000D02*
X147066000Y-40640000D01*
X147400000Y-40132000D02*
X147400000Y-40306000D01*
X147908000Y-40640000D02*
X147400000Y-40132000D01*
X149860000Y-40640000D02*
X147908000Y-40640000D01*
X150622000Y-41402000D02*
X149860000Y-40640000D01*
X154178000Y-41402000D02*
X150622000Y-41402000D01*
X154940000Y-40640000D02*
X154178000Y-41402000D01*
X157226000Y-40640000D02*
X154940000Y-40640000D01*
X157560000Y-40306000D02*
X157226000Y-40640000D01*
X157560000Y-40132000D02*
X157560000Y-40306000D01*
X158068000Y-40640000D02*
X157560000Y-40132000D01*
X160020000Y-40640000D02*
X158068000Y-40640000D01*
X160782000Y-41402000D02*
X160020000Y-40640000D01*
X164338000Y-41402000D02*
X160782000Y-41402000D01*
X167386000Y-40640000D02*
X165100000Y-40640000D01*
X165100000Y-40640000D02*
X164338000Y-41402000D01*
X167720000Y-40306000D02*
X167386000Y-40640000D01*
X167720000Y-40132000D02*
X167720000Y-40306000D01*
X203200000Y-104140000D02*
X201248000Y-104140000D01*
X201248000Y-104140000D02*
X200740000Y-103632000D01*
X203962000Y-104902000D02*
X203200000Y-104140000D01*
X207518000Y-104902000D02*
X203962000Y-104902000D01*
X208280000Y-104140000D02*
X207518000Y-104902000D01*
X191088000Y-104140000D02*
X190580000Y-103632000D01*
X193802000Y-104902000D02*
X193040000Y-104140000D01*
X193040000Y-104140000D02*
X191088000Y-104140000D01*
X197358000Y-104902000D02*
X193802000Y-104902000D01*
X198120000Y-104140000D02*
X197358000Y-104902000D01*
X124460000Y-60960000D02*
X124460000Y-61214000D01*
X124460000Y-61214000D02*
X124714000Y-61468000D01*
X124714000Y-61468000D02*
X127254000Y-61468000D01*
X127254000Y-61468000D02*
X129540000Y-61468000D01*
X129540000Y-61468000D02*
X130302000Y-62230000D01*
X133350000Y-62230000D02*
X134620000Y-60960000D01*
X130302000Y-62230000D02*
X133350000Y-62230000D01*
X135128000Y-60452000D02*
X134620000Y-60960000D01*
X140208000Y-60452000D02*
X135128000Y-60452000D01*
X140970000Y-59690000D02*
X140208000Y-60452000D01*
X143510000Y-59690000D02*
X140970000Y-59690000D01*
X144780000Y-58420000D02*
X143510000Y-59690000D01*
X134620000Y-53340000D02*
X135128000Y-53848000D01*
X135128000Y-53848000D02*
X137160000Y-53848000D01*
X124460000Y-48260000D02*
X124968000Y-48768000D01*
X124968000Y-48768000D02*
X127254000Y-48768000D01*
X81026000Y-96012000D02*
X80518000Y-96520000D01*
X80518000Y-96520000D02*
X78486000Y-96520000D01*
X78486000Y-96520000D02*
X77216000Y-97790000D01*
X77216000Y-97790000D02*
X70866000Y-97790000D01*
X79248000Y-89408000D02*
X78740000Y-88900000D01*
X84328000Y-89408000D02*
X79248000Y-89408000D01*
X85852000Y-90932000D02*
X84328000Y-89408000D01*
X88392000Y-90932000D02*
X85852000Y-90932000D01*
X88900000Y-91440000D02*
X88392000Y-90932000D01*
X180848000Y-102616000D02*
X180340000Y-102616000D01*
X181102000Y-102870000D02*
X180848000Y-102616000D01*
X186436000Y-102870000D02*
X181102000Y-102870000D01*
X186690000Y-103124000D02*
X186436000Y-102870000D01*
X189992000Y-103124000D02*
X186690000Y-103124000D01*
X190500000Y-103632000D02*
X189992000Y-103124000D01*
X190580000Y-103632000D02*
X190500000Y-103632000D01*
X60960000Y-83820000D02*
X61468000Y-84328000D01*
X61468000Y-84328000D02*
X70866000Y-84328000D01*
X127080000Y-88392000D02*
X127080000Y-88472000D01*
X127080000Y-88472000D02*
X127508000Y-88900000D01*
X127508000Y-88900000D02*
X130048000Y-88900000D01*
X130048000Y-88900000D02*
X130810000Y-89662000D01*
X130810000Y-89662000D02*
X145034000Y-89662000D01*
X79248000Y-56388000D02*
X78740000Y-55880000D01*
X85852000Y-56388000D02*
X79248000Y-56388000D01*
X86360000Y-55880000D02*
X85852000Y-56388000D01*
X78740000Y-55880000D02*
X78486000Y-55880000D01*
X78486000Y-55880000D02*
X77978000Y-56388000D01*
X76708000Y-56388000D02*
X76200000Y-55880000D01*
X77978000Y-56388000D02*
X76708000Y-56388000D01*
X69088000Y-56388000D02*
X68580000Y-55880000D01*
X75692000Y-56388000D02*
X69088000Y-56388000D01*
X76200000Y-55880000D02*
X75692000Y-56388000D01*
X79248000Y-64008000D02*
X81534000Y-64008000D01*
X79248000Y-64008000D02*
X78740000Y-63500000D01*
X78740000Y-63500000D02*
X77470000Y-64770000D01*
X77470000Y-64770000D02*
X75692000Y-64770000D01*
X75692000Y-64770000D02*
X74930000Y-64008000D01*
X69088000Y-64008000D02*
X68580000Y-63500000D01*
X74930000Y-64008000D02*
X69088000Y-64008000D01*
X77470000Y-49530000D02*
X78740000Y-48260000D01*
X73914000Y-48768000D02*
X74676000Y-49530000D01*
X69088000Y-48768000D02*
X73914000Y-48768000D01*
X68580000Y-48260000D02*
X69088000Y-48768000D01*
X76200000Y-50800000D02*
X76200000Y-49530000D01*
X76200000Y-49530000D02*
X77470000Y-49530000D01*
X74676000Y-49530000D02*
X76200000Y-49530000D01*
X78740000Y-48260000D02*
X79248000Y-48768000D01*
X79248000Y-48768000D02*
X81534000Y-48768000D01*
X85852000Y-51308000D02*
X81534000Y-51308000D01*
X86360000Y-50800000D02*
X85852000Y-51308000D01*
X78740000Y-43180000D02*
X79248000Y-43688000D01*
X79248000Y-43688000D02*
X81534000Y-43688000D01*
X68580000Y-43180000D02*
X68580000Y-43434000D01*
X68580000Y-43434000D02*
X68834000Y-43688000D01*
X68834000Y-43688000D02*
X71374000Y-43688000D01*
X116920000Y-40132000D02*
X116840000Y-40132000D01*
X116840000Y-40132000D02*
X116332000Y-40640000D01*
X116332000Y-40640000D02*
X105918000Y-40640000D01*
X105918000Y-40640000D02*
X105156000Y-41402000D01*
X105156000Y-41402000D02*
X103124000Y-41402000D01*
X103124000Y-41402000D02*
X102362000Y-40640000D01*
X99648000Y-40640000D02*
X99140000Y-40132000D01*
X102362000Y-40640000D02*
X99648000Y-40640000D01*
X99140000Y-40132000D02*
X99140000Y-40306000D01*
X99140000Y-40306000D02*
X98806000Y-40640000D01*
X98806000Y-40640000D02*
X88138000Y-40640000D01*
X88138000Y-40640000D02*
X87376000Y-41402000D01*
X87376000Y-41402000D02*
X85344000Y-41402000D01*
X85344000Y-41402000D02*
X84582000Y-40640000D01*
X81868000Y-40640000D02*
X81360000Y-40132000D01*
X84582000Y-40640000D02*
X81868000Y-40640000D01*
X78740000Y-121920000D02*
X77470000Y-123190000D01*
X77470000Y-123190000D02*
X70866000Y-123190000D01*
X87630000Y-123190000D02*
X88900000Y-121920000D01*
X84328000Y-123190000D02*
X87630000Y-123190000D01*
X83566000Y-122428000D02*
X84328000Y-123190000D01*
X79248000Y-122428000D02*
X83566000Y-122428000D01*
X78740000Y-121920000D02*
X79248000Y-122428000D01*
X162640000Y-93552000D02*
X162640000Y-93472000D01*
X163068000Y-93980000D02*
X162640000Y-93552000D01*
X165862000Y-93980000D02*
X163068000Y-93980000D01*
X166624000Y-94742000D02*
X165862000Y-93980000D01*
X168910000Y-94742000D02*
X166624000Y-94742000D01*
X169672000Y-93980000D02*
X168910000Y-94742000D01*
X175260000Y-93980000D02*
X169672000Y-93980000D01*
X175514000Y-93726000D02*
X175260000Y-93980000D01*
X180086000Y-93726000D02*
X175514000Y-93726000D01*
X180340000Y-93980000D02*
X180086000Y-93726000D01*
X220044000Y-41148000D02*
X221060000Y-40132000D01*
X191389000Y-41148000D02*
X220044000Y-41148000D01*
X190373000Y-42164000D02*
X191389000Y-41148000D01*
X187452000Y-41402000D02*
X188214000Y-42164000D01*
X188214000Y-42164000D02*
X190373000Y-42164000D01*
X184912000Y-41402000D02*
X187452000Y-41402000D01*
X184404000Y-40894000D02*
X184912000Y-41402000D01*
X184230000Y-40894000D02*
X184404000Y-40894000D01*
X217170000Y-104902000D02*
X217932000Y-104140000D01*
X214630000Y-104902000D02*
X217170000Y-104902000D01*
X213868000Y-104140000D02*
X214630000Y-104902000D01*
X211582000Y-104140000D02*
X213868000Y-104140000D01*
X211074000Y-103632000D02*
X211582000Y-104140000D01*
X210900000Y-103632000D02*
X211074000Y-103632000D01*
X153670000Y-59690000D02*
X154940000Y-58420000D01*
X150876000Y-59690000D02*
X153670000Y-59690000D01*
X150114000Y-58928000D02*
X150876000Y-59690000D01*
X145288000Y-58928000D02*
X150114000Y-58928000D01*
X144780000Y-58420000D02*
X145288000Y-58928000D01*
X161036000Y-59690000D02*
X163830000Y-59690000D01*
X160274000Y-58928000D02*
X161036000Y-59690000D01*
X155448000Y-58928000D02*
X160274000Y-58928000D01*
X154940000Y-58420000D02*
X155448000Y-58928000D01*
X163830000Y-59690000D02*
X165100000Y-58420000D01*
X217170000Y-123190000D02*
X210820000Y-123190000D01*
X218440000Y-121920000D02*
X217170000Y-123190000D01*
X220552000Y-104140000D02*
X221060000Y-103632000D01*
X217932000Y-104140000D02*
X218186000Y-104140000D01*
X218186000Y-104140000D02*
X220552000Y-104140000D01*
X68072000Y-64008000D02*
X65786000Y-64008000D01*
X68580000Y-63500000D02*
X68072000Y-64008000D01*
X64952000Y-59286000D02*
X64952000Y-59110000D01*
X64952000Y-59110000D02*
X64516000Y-58674000D01*
X64516000Y-58674000D02*
X62484000Y-58674000D01*
X81642001Y-66185999D02*
X81534000Y-66294000D01*
X89734631Y-66185999D02*
X81642001Y-66185999D01*
X90388630Y-65532000D02*
X89734631Y-66185999D01*
X91520000Y-65532000D02*
X90388630Y-65532000D01*
X217424000Y-64770000D02*
X217932000Y-64262000D01*
X212090000Y-64770000D02*
X217424000Y-64770000D01*
X209550000Y-62230000D02*
X212090000Y-64770000D01*
X186690000Y-62230000D02*
X209550000Y-62230000D01*
X185420000Y-63500000D02*
X186690000Y-62230000D01*
X78994000Y-127508000D02*
X79756000Y-126746000D01*
X76708000Y-127508000D02*
X78994000Y-127508000D01*
X76200000Y-127000000D02*
X76708000Y-127508000D01*
X195580000Y-91948000D02*
X195072000Y-91440000D01*
X200152000Y-91948000D02*
X195580000Y-91948000D01*
X200660000Y-91440000D02*
X200152000Y-91948000D01*
X218186000Y-86868000D02*
X217678000Y-87376000D01*
X226263200Y-86868000D02*
X218186000Y-86868000D01*
X227634800Y-85496400D02*
X226263200Y-86868000D01*
X224536000Y-41402000D02*
X225044000Y-41402000D01*
X223774000Y-40640000D02*
X224536000Y-41402000D01*
X221568000Y-40640000D02*
X223774000Y-40640000D01*
X221060000Y-40132000D02*
X221568000Y-40640000D01*
X224536000Y-41402000D02*
X230632000Y-41402000D01*
X217932000Y-63500000D02*
X217932000Y-64262000D01*
X94234000Y-56134000D02*
X86614000Y-56134000D01*
X96520000Y-58420000D02*
X94234000Y-56134000D01*
X86614000Y-56134000D02*
X86360000Y-55880000D01*
X174752000Y-41910000D02*
X183214000Y-41910000D01*
X174244000Y-41402000D02*
X174752000Y-41910000D01*
X171704000Y-41402000D02*
X174244000Y-41402000D01*
X170942000Y-40640000D02*
X171704000Y-41402000D01*
X183214000Y-41910000D02*
X184230000Y-40894000D01*
X168148000Y-40640000D02*
X170942000Y-40640000D01*
X167720000Y-40212000D02*
X168148000Y-40640000D01*
X167720000Y-40132000D02*
X167720000Y-40212000D01*
X230505000Y-132842000D02*
X230886000Y-133223000D01*
X210820000Y-132842000D02*
X230505000Y-132842000D01*
G04 #@! TO.N,/5+*
X96012000Y-95504000D02*
X96520000Y-96012000D01*
X92710000Y-94742000D02*
X93472000Y-95504000D01*
X93472000Y-95504000D02*
X96012000Y-95504000D01*
X90170000Y-94742000D02*
X92710000Y-94742000D01*
X89408000Y-95504000D02*
X90170000Y-94742000D01*
X86868000Y-95504000D02*
X89408000Y-95504000D01*
X86360000Y-96012000D02*
X86868000Y-95504000D01*
X122428000Y-39624000D02*
X124968000Y-39624000D01*
X128270000Y-38862000D02*
X129032000Y-39624000D01*
X124968000Y-39624000D02*
X125730000Y-38862000D01*
X121920000Y-40132000D02*
X122428000Y-39624000D01*
X129032000Y-39624000D02*
X131572000Y-39624000D01*
X125730000Y-38862000D02*
X128270000Y-38862000D01*
X131572000Y-39624000D02*
X132080000Y-40132000D01*
X138430000Y-38862000D02*
X139192000Y-39624000D01*
X132588000Y-39624000D02*
X135128000Y-39624000D01*
X135128000Y-39624000D02*
X135890000Y-38862000D01*
X139192000Y-39624000D02*
X141732000Y-39624000D01*
X132080000Y-40132000D02*
X132588000Y-39624000D01*
X141732000Y-39624000D02*
X142240000Y-40132000D01*
X135890000Y-38862000D02*
X138430000Y-38862000D01*
X149352000Y-39624000D02*
X151892000Y-39624000D01*
X151892000Y-39624000D02*
X152400000Y-40132000D01*
X142240000Y-40132000D02*
X142748000Y-39624000D01*
X146050000Y-38862000D02*
X148590000Y-38862000D01*
X148590000Y-38862000D02*
X149352000Y-39624000D01*
X145288000Y-39624000D02*
X146050000Y-38862000D01*
X142748000Y-39624000D02*
X145288000Y-39624000D01*
X152400000Y-40132000D02*
X152908000Y-39624000D01*
X156210000Y-38862000D02*
X158750000Y-38862000D01*
X158750000Y-38862000D02*
X159512000Y-39624000D01*
X155448000Y-39624000D02*
X156210000Y-38862000D01*
X162052000Y-39624000D02*
X162560000Y-40132000D01*
X152908000Y-39624000D02*
X155448000Y-39624000D01*
X159512000Y-39624000D02*
X162052000Y-39624000D01*
X172212000Y-39624000D02*
X172720000Y-40132000D01*
X166370000Y-38862000D02*
X168910000Y-38862000D01*
X163068000Y-39624000D02*
X165608000Y-39624000D01*
X162560000Y-40132000D02*
X163068000Y-39624000D01*
X169672000Y-39624000D02*
X172212000Y-39624000D01*
X168910000Y-38862000D02*
X169672000Y-39624000D01*
X165608000Y-39624000D02*
X166370000Y-38862000D01*
X80010000Y-38862000D02*
X82550000Y-38862000D01*
X83312000Y-39624000D02*
X85852000Y-39624000D01*
X85852000Y-39624000D02*
X86360000Y-40132000D01*
X76708000Y-39624000D02*
X79248000Y-39624000D01*
X76200000Y-40132000D02*
X76708000Y-39624000D01*
X82550000Y-38862000D02*
X83312000Y-39624000D01*
X79248000Y-39624000D02*
X80010000Y-38862000D01*
X131572000Y-87884000D02*
X132080000Y-88392000D01*
X128270000Y-87122000D02*
X129032000Y-87884000D01*
X129032000Y-87884000D02*
X131572000Y-87884000D01*
X125730000Y-87122000D02*
X128270000Y-87122000D01*
X124968000Y-87884000D02*
X125730000Y-87122000D01*
X114808000Y-87884000D02*
X124968000Y-87884000D01*
X114300000Y-88392000D02*
X114808000Y-87884000D01*
X161290000Y-92202000D02*
X163830000Y-92202000D01*
X160528000Y-92964000D02*
X161290000Y-92202000D01*
X163830000Y-92202000D02*
X164592000Y-92964000D01*
X149860000Y-93472000D02*
X150368000Y-92964000D01*
X167132000Y-92964000D02*
X167640000Y-93472000D01*
X150368000Y-92964000D02*
X160528000Y-92964000D01*
X164592000Y-92964000D02*
X167132000Y-92964000D01*
X206248000Y-103124000D02*
X208788000Y-103124000D01*
X212090000Y-102362000D02*
X212852000Y-103124000D01*
X208788000Y-103124000D02*
X209550000Y-102362000D01*
X205740000Y-103632000D02*
X206248000Y-103124000D01*
X212852000Y-103124000D02*
X215392000Y-103124000D01*
X209550000Y-102362000D02*
X212090000Y-102362000D01*
X215392000Y-103124000D02*
X215900000Y-103632000D01*
X198628000Y-103124000D02*
X199390000Y-102362000D01*
X202692000Y-103124000D02*
X205232000Y-103124000D01*
X196088000Y-103124000D02*
X198628000Y-103124000D01*
X201930000Y-102362000D02*
X202692000Y-103124000D01*
X205232000Y-103124000D02*
X205740000Y-103632000D01*
X195580000Y-103632000D02*
X196088000Y-103124000D01*
X199390000Y-102362000D02*
X201930000Y-102362000D01*
X134874000Y-93218000D02*
X134620000Y-93472000D01*
X142494000Y-93218000D02*
X134874000Y-93218000D01*
X143510000Y-92202000D02*
X142494000Y-93218000D01*
X145796000Y-92202000D02*
X143510000Y-92202000D01*
X146558000Y-92964000D02*
X145796000Y-92202000D01*
X149352000Y-92964000D02*
X146558000Y-92964000D01*
X149860000Y-93472000D02*
X149352000Y-92964000D01*
X132080000Y-88392000D02*
X132588000Y-87884000D01*
X132588000Y-87884000D02*
X134620000Y-87884000D01*
X195580000Y-103632000D02*
X195072000Y-103124000D01*
X195072000Y-103124000D02*
X192786000Y-103124000D01*
X192786000Y-103124000D02*
X192024000Y-102362000D01*
X192024000Y-102362000D02*
X187706000Y-102362000D01*
X187706000Y-102362000D02*
X187452000Y-102108000D01*
X187452000Y-102108000D02*
X187198000Y-102108000D01*
X185928000Y-98044000D02*
X185420000Y-98552000D01*
X187198000Y-98044000D02*
X185928000Y-98044000D01*
X76200000Y-101600000D02*
X77470000Y-100330000D01*
X77470000Y-100330000D02*
X81534000Y-100330000D01*
X81534000Y-100330000D02*
X82550000Y-99314000D01*
X82550000Y-99314000D02*
X83820000Y-99314000D01*
X86360000Y-96012000D02*
X85852000Y-95504000D01*
X85852000Y-95504000D02*
X83820000Y-95504000D01*
X76962000Y-80010000D02*
X76200000Y-80772000D01*
X83566000Y-80010000D02*
X76962000Y-80010000D01*
X167640000Y-93472000D02*
X168148000Y-92964000D01*
X168148000Y-92964000D02*
X187198000Y-92964000D01*
X97028000Y-39624000D02*
X96520000Y-39624000D01*
X86868000Y-39624000D02*
X86360000Y-40132000D01*
X97790000Y-38862000D02*
X97028000Y-39624000D01*
X100330000Y-38862000D02*
X97790000Y-38862000D01*
X103632000Y-39624000D02*
X101600000Y-39624000D01*
X101092000Y-39624000D02*
X100330000Y-38862000D01*
X104140000Y-40132000D02*
X103632000Y-39624000D01*
X96520000Y-39624000D02*
X86868000Y-39624000D01*
X104140000Y-45720000D02*
X103886000Y-45466000D01*
X103886000Y-45466000D02*
X103632000Y-45212000D01*
X103632000Y-45212000D02*
X101600000Y-45212000D01*
X121412000Y-39624000D02*
X121920000Y-40132000D01*
X118110000Y-38862000D02*
X118872000Y-39624000D01*
X118872000Y-39624000D02*
X121412000Y-39624000D01*
X115570000Y-38862000D02*
X118110000Y-38862000D01*
X114808000Y-39624000D02*
X115570000Y-38862000D01*
X104648000Y-39624000D02*
X114808000Y-39624000D01*
X104140000Y-40132000D02*
X104648000Y-39624000D01*
X97028000Y-65024000D02*
X96520000Y-65532000D01*
X99822000Y-65024000D02*
X97028000Y-65024000D01*
X100076000Y-65278000D02*
X99822000Y-65024000D01*
X101600000Y-39624000D02*
X101092000Y-39624000D01*
X96520000Y-50800000D02*
X97028000Y-51308000D01*
X97028000Y-51308000D02*
X101600000Y-51308000D01*
X104140000Y-53340000D02*
X103632000Y-53848000D01*
X103632000Y-53848000D02*
X101600000Y-53848000D01*
X96520000Y-65532000D02*
X96012000Y-65024000D01*
X96012000Y-65024000D02*
X93980000Y-65024000D01*
X93980000Y-65024000D02*
X93218000Y-64262000D01*
X93218000Y-64262000D02*
X90424000Y-64262000D01*
X90424000Y-64262000D02*
X89662000Y-65024000D01*
X89662000Y-65024000D02*
X88138000Y-65024000D01*
X88138000Y-65024000D02*
X87884000Y-64770000D01*
X79248000Y-58928000D02*
X78740000Y-58420000D01*
X83566000Y-58928000D02*
X79248000Y-58928000D01*
X170688000Y-127508000D02*
X170180000Y-127000000D01*
X184912000Y-127508000D02*
X170688000Y-127508000D01*
X185420000Y-127000000D02*
X184912000Y-127508000D01*
X169672000Y-127508000D02*
X170180000Y-127000000D01*
X168148000Y-127508000D02*
X169672000Y-127508000D01*
X167640000Y-127000000D02*
X168148000Y-127508000D01*
X218440000Y-66040000D02*
X215900000Y-66040000D01*
X220218000Y-38862000D02*
X219329000Y-39751000D01*
X221996000Y-38862000D02*
X220218000Y-38862000D01*
X222758000Y-39624000D02*
X221996000Y-38862000D01*
X225552000Y-39624000D02*
X222758000Y-39624000D01*
X226060000Y-40132000D02*
X225552000Y-39624000D01*
X218440000Y-103124000D02*
X219202000Y-102362000D01*
X219202000Y-102362000D02*
X219710000Y-102362000D01*
X221996000Y-102362000D02*
X222758000Y-103124000D01*
X225552000Y-103124000D02*
X226060000Y-103632000D01*
X222758000Y-103124000D02*
X224536000Y-103124000D01*
X215900000Y-103632000D02*
X216408000Y-103124000D01*
X227634800Y-92303600D02*
X226212400Y-93726000D01*
X226212400Y-93726000D02*
X219710000Y-93726000D01*
X134620000Y-55880000D02*
X135128000Y-55372000D01*
X135128000Y-55372000D02*
X140462000Y-55372000D01*
X218440000Y-103124000D02*
X216408000Y-103124000D01*
X219710000Y-102362000D02*
X221996000Y-102362000D01*
X69850000Y-59690000D02*
X68580000Y-58420000D01*
X77470000Y-59690000D02*
X69850000Y-59690000D01*
X78740000Y-58420000D02*
X77470000Y-59690000D01*
X85852000Y-67564000D02*
X83566000Y-67564000D01*
X86360000Y-68072000D02*
X85852000Y-67564000D01*
X75587101Y-74018899D02*
X60810899Y-74018899D01*
X75692000Y-73914000D02*
X75587101Y-74018899D01*
X60810899Y-74018899D02*
X60452000Y-73660000D01*
X224536000Y-103124000D02*
X225552000Y-103124000D01*
X206502000Y-134112000D02*
X226060000Y-134112000D01*
X165354000Y-126492000D02*
X167132000Y-126492000D01*
X165100000Y-126746000D02*
X165354000Y-126492000D01*
X167132000Y-126492000D02*
X167640000Y-127000000D01*
X161290000Y-126746000D02*
X165100000Y-126746000D01*
X161036000Y-126492000D02*
X161290000Y-126746000D01*
X159004000Y-126492000D02*
X161036000Y-126492000D01*
X158242000Y-125730000D02*
X159004000Y-126492000D01*
X141478000Y-125730000D02*
X158242000Y-125730000D01*
X140462000Y-124714000D02*
X141478000Y-125730000D01*
X167894000Y-77470000D02*
X157734000Y-77470000D01*
X226568000Y-39624000D02*
X232410000Y-39624000D01*
X226060000Y-40132000D02*
X226568000Y-39624000D01*
X127254000Y-78232000D02*
X126746000Y-78740000D01*
X218694000Y-40386000D02*
X219329000Y-39751000D01*
X200152000Y-40386000D02*
X218694000Y-40386000D01*
X199898000Y-40132000D02*
X200152000Y-40386000D01*
X196596000Y-40132000D02*
X198882000Y-40132000D01*
X196342000Y-40386000D02*
X196596000Y-40132000D01*
X189738000Y-40386000D02*
X196342000Y-40386000D01*
X189230000Y-40894000D02*
X189738000Y-40386000D01*
X198882000Y-40132000D02*
X199898000Y-40132000D01*
X200152000Y-52832000D02*
X200660000Y-53340000D01*
X198882000Y-52832000D02*
X200152000Y-52832000D01*
X175768000Y-39624000D02*
X173228000Y-39624000D01*
X176276000Y-39116000D02*
X175768000Y-39624000D01*
X184912000Y-39116000D02*
X176276000Y-39116000D01*
X186182000Y-40386000D02*
X184912000Y-39116000D01*
X188722000Y-40386000D02*
X186182000Y-40386000D01*
X173228000Y-39624000D02*
X172720000Y-40132000D01*
X189230000Y-40894000D02*
X188722000Y-40386000D01*
D27*
G04 #@! TO.N,/40_CS*
X106680000Y-73660000D02*
X107188000Y-74168000D01*
X107188000Y-74168000D02*
X119888000Y-74168000D01*
X119888000Y-74168000D02*
X120650000Y-74930000D01*
X131826000Y-75184000D02*
X131572000Y-74930000D01*
X131826000Y-75438000D02*
X131826000Y-75184000D01*
X131572000Y-74930000D02*
X175260000Y-74930000D01*
X120650000Y-74930000D02*
X131572000Y-74930000D01*
G04 #@! TO.N,/20_CS*
X119888000Y-71628000D02*
X120650000Y-72390000D01*
X107188000Y-71628000D02*
X119888000Y-71628000D01*
X106680000Y-71120000D02*
X107188000Y-71628000D01*
X131318000Y-72390000D02*
X152400000Y-72390000D01*
X131826000Y-72898000D02*
X131318000Y-72390000D01*
X120650000Y-72390000D02*
X131318000Y-72390000D01*
G04 #@! TO.N,/00_CS*
X161544000Y-69088000D02*
X200152000Y-69088000D01*
X157480000Y-68834000D02*
X161290000Y-68834000D01*
X157226000Y-69088000D02*
X157480000Y-68834000D01*
X133096000Y-69088000D02*
X157226000Y-69088000D01*
X131318000Y-69850000D02*
X131826000Y-70358000D01*
X120650000Y-69850000D02*
X131318000Y-69850000D01*
X119888000Y-69088000D02*
X120650000Y-69850000D01*
X200152000Y-69088000D02*
X200660000Y-68580000D01*
X107188000Y-69088000D02*
X119888000Y-69088000D01*
X161290000Y-68834000D02*
X161544000Y-69088000D01*
X131826000Y-70358000D02*
X133096000Y-69088000D01*
X106680000Y-68580000D02*
X107188000Y-69088000D01*
G04 #@! TO.N,/80_CS*
X162560000Y-53340000D02*
X162052000Y-52832000D01*
X162052000Y-52832000D02*
X160782000Y-52832000D01*
X157988000Y-70104000D02*
X159258000Y-70104000D01*
X134620000Y-70612000D02*
X157480000Y-70612000D01*
X157480000Y-70612000D02*
X157988000Y-70104000D01*
X133604000Y-71628000D02*
X134620000Y-70612000D01*
X127254000Y-71628000D02*
X133604000Y-71628000D01*
X126238000Y-70612000D02*
X127254000Y-71628000D01*
X122428000Y-70612000D02*
X126238000Y-70612000D01*
X121920000Y-71120000D02*
X122428000Y-70612000D01*
G04 #@! TO.N,/61_CS*
X121920000Y-73660000D02*
X122428000Y-74168000D01*
X151384000Y-52070000D02*
X150622000Y-52832000D01*
X153670000Y-52070000D02*
X151384000Y-52070000D01*
X154940000Y-50800000D02*
X153670000Y-52070000D01*
X151384000Y-44450000D02*
X150622000Y-45212000D01*
X153670000Y-44450000D02*
X151384000Y-44450000D01*
X154940000Y-43180000D02*
X153670000Y-44450000D01*
X126746000Y-73660000D02*
X126238000Y-74168000D01*
X122428000Y-74168000D02*
X126238000Y-74168000D01*
X126746000Y-73660000D02*
X127254000Y-74168000D01*
X127254000Y-74168000D02*
X153162000Y-74168000D01*
X126238000Y-74168000D02*
X127254000Y-74168000D01*
G04 #@! TO.N,/60_CS*
X121920000Y-76200000D02*
X122428000Y-75692000D01*
X177292000Y-48768000D02*
X177800000Y-48260000D01*
X176022000Y-48768000D02*
X177292000Y-48768000D01*
X126238000Y-75692000D02*
X126746000Y-76200000D01*
X125222000Y-75692000D02*
X126238000Y-75692000D01*
X122428000Y-75692000D02*
X125222000Y-75692000D01*
X126746000Y-76200000D02*
X127254000Y-75692000D01*
X125222000Y-75692000D02*
X127254000Y-75692000D01*
X134620000Y-75692000D02*
X176784000Y-75692000D01*
X133604000Y-76708000D02*
X134620000Y-75692000D01*
X130048000Y-76708000D02*
X133604000Y-76708000D01*
X129032000Y-75692000D02*
X130048000Y-76708000D01*
X127254000Y-75692000D02*
X129032000Y-75692000D01*
G04 #@! TO.N,/DACK3*
X200660000Y-78740000D02*
X200152000Y-79248000D01*
X218440000Y-53340000D02*
X217170000Y-54610000D01*
X217170000Y-54610000D02*
X206756000Y-54610000D01*
X201168000Y-79248000D02*
X200660000Y-78740000D01*
X206756000Y-79248000D02*
X201168000Y-79248000D01*
X219964000Y-79502000D02*
X219710000Y-79502000D01*
X219710000Y-79502000D02*
X219202000Y-80010000D01*
X207518000Y-80010000D02*
X206756000Y-79248000D01*
X219202000Y-80010000D02*
X207518000Y-80010000D01*
X200152000Y-79248000D02*
X198374000Y-79248000D01*
X198374000Y-79248000D02*
X196596000Y-77470000D01*
X196596000Y-77470000D02*
X175514000Y-77470000D01*
X175514000Y-77470000D02*
X175260000Y-77724000D01*
G04 #@! TO.N,/DACK2*
X218440000Y-50800000D02*
X217170000Y-52070000D01*
X217170000Y-52070000D02*
X205994000Y-52070000D01*
X201168000Y-76708000D02*
X200660000Y-76200000D01*
X205486000Y-76708000D02*
X201168000Y-76708000D01*
X205486000Y-76708000D02*
X209550000Y-76708000D01*
X209550000Y-76708000D02*
X210312000Y-77470000D01*
X219456000Y-77470000D02*
X219964000Y-76962000D01*
X210312000Y-77470000D02*
X219456000Y-77470000D01*
X200660000Y-76200000D02*
X200152000Y-76708000D01*
X200152000Y-76708000D02*
X148082000Y-76708000D01*
G04 #@! TO.N,/AEN*
X185420000Y-140970000D02*
X185420000Y-136906000D01*
X185420000Y-136906000D02*
X184658000Y-136144000D01*
X183134000Y-91186000D02*
X187706000Y-91186000D01*
X194564000Y-78232000D02*
X195072000Y-78740000D01*
X187706000Y-78232000D02*
X194564000Y-78232000D01*
X165100000Y-48260000D02*
X165608000Y-48768000D01*
X165608000Y-48768000D02*
X166878000Y-48768000D01*
X199390000Y-64770000D02*
X200660000Y-63500000D01*
X167640000Y-61468000D02*
X172974000Y-61468000D01*
X172974000Y-64770000D02*
X199390000Y-64770000D01*
G04 #@! TO.N,/ADSTB*
X195072000Y-129032000D02*
X193040000Y-129032000D01*
X195580000Y-129540000D02*
X195072000Y-129032000D01*
X200660000Y-60960000D02*
X200406000Y-60960000D01*
X200152000Y-61214000D02*
X197104000Y-61214000D01*
X200406000Y-60960000D02*
X200152000Y-61214000D01*
X192786000Y-66294000D02*
X196850010Y-66294000D01*
G04 #@! TO.N,/DACK1*
X215900000Y-83820000D02*
X215392000Y-83312000D01*
X215392000Y-83312000D02*
X202438000Y-83312000D01*
X202438000Y-83312000D02*
X201676000Y-82550000D01*
X219710000Y-84328000D02*
X219964000Y-84582000D01*
X216408000Y-84328000D02*
X219710000Y-84328000D01*
X215900000Y-83820000D02*
X216408000Y-84328000D01*
X174244000Y-82550000D02*
X175514000Y-82550000D01*
X201676000Y-82550000D02*
X174244000Y-82550000D01*
G04 #@! TO.N,/UPPER_512K*
X133350000Y-52070000D02*
X134620000Y-50800000D01*
X124460000Y-53340000D02*
X126746000Y-53340000D01*
X128524000Y-52578000D02*
X129032000Y-52070000D01*
X127508000Y-52578000D02*
X128524000Y-52578000D01*
X129032000Y-52070000D02*
X133350000Y-52070000D01*
X126746000Y-53340000D02*
X127508000Y-52578000D01*
G04 #@! TO.N,/CS_128K*
X132080000Y-116840000D02*
X131572000Y-116332000D01*
X131572000Y-116332000D02*
X125984000Y-116332000D01*
X131572000Y-53848000D02*
X132080000Y-53340000D01*
X128016000Y-53848000D02*
X131572000Y-53848000D01*
G04 #@! TO.N,/CS_512K*
X124968000Y-51308000D02*
X127762000Y-51308000D01*
X124460000Y-50800000D02*
X124968000Y-51308000D01*
X114808000Y-116840000D02*
X114300000Y-116840000D01*
X116078000Y-115570000D02*
X114808000Y-116840000D01*
X124714000Y-115570000D02*
X116078000Y-115570000D01*
G04 #@! TO.N,/CS_ROM*
X149860000Y-116840000D02*
X149352000Y-116332000D01*
X149352000Y-116332000D02*
X137668000Y-116332000D01*
X135128000Y-58928000D02*
X134620000Y-58420000D01*
X138176000Y-58928000D02*
X135128000Y-58928000D01*
G04 #@! TO.N,/OSC88*
X119634000Y-133858000D02*
X118110000Y-135382000D01*
X137922000Y-133858000D02*
X119634000Y-133858000D01*
G04 #@! TO.N,/IRQ5*
X160528000Y-109728000D02*
X155702000Y-109728000D01*
X162306000Y-109474000D02*
X160782000Y-109474000D01*
X162560000Y-109728000D02*
X162306000Y-109474000D01*
X160782000Y-109474000D02*
X160528000Y-109728000D01*
X167132000Y-109728000D02*
X162560000Y-109728000D01*
X167640000Y-109220000D02*
X167132000Y-109728000D01*
G04 #@! TO.N,/IRQ6*
X167132000Y-107188000D02*
X167640000Y-106680000D01*
X157734000Y-107188000D02*
X167132000Y-107188000D01*
G04 #@! TO.N,/IRQ7*
X167132000Y-104648000D02*
X167640000Y-104140000D01*
X160020000Y-104648000D02*
X167132000Y-104648000D01*
G04 #@! TO.N,/IRQ2*
X177800000Y-116586000D02*
X177800000Y-116840000D01*
X176784000Y-115570000D02*
X177800000Y-116586000D01*
X168148000Y-116840000D02*
X169418000Y-115570000D01*
X169418000Y-115570000D02*
X176784000Y-115570000D01*
X167640000Y-116840000D02*
X168148000Y-116840000D01*
G04 #@! TO.N,/HF_PCLK*
X170180000Y-121920000D02*
X168910000Y-123190000D01*
X168910000Y-123190000D02*
X158496000Y-123190000D01*
X170180000Y-121920000D02*
X170688000Y-122428000D01*
X170688000Y-122428000D02*
X176022000Y-122428000D01*
X97028000Y-53848000D02*
X96520000Y-53340000D01*
X99822000Y-53848000D02*
X97028000Y-53848000D01*
X100584000Y-54610000D02*
X99822000Y-53848000D01*
X116078000Y-54610000D02*
X100584000Y-54610000D01*
X158496000Y-89916000D02*
X151638000Y-89916000D01*
X151130000Y-62738000D02*
X151638000Y-63246000D01*
X134112000Y-62738000D02*
X151130000Y-62738000D01*
X133858000Y-62992000D02*
X134112000Y-62738000D01*
X129286000Y-62992000D02*
X133858000Y-62992000D01*
X129032000Y-62738000D02*
X129286000Y-62992000D01*
X123698000Y-62738000D02*
X129032000Y-62738000D01*
X123190000Y-62230000D02*
X123698000Y-62738000D01*
X116332000Y-62230000D02*
X123190000Y-62230000D01*
X115570000Y-61468000D02*
X116332000Y-62230000D01*
G04 #@! TO.N,/SPK_OUT*
X144780000Y-53340000D02*
X145288000Y-53848000D01*
X145288000Y-53848000D02*
X148843992Y-53848000D01*
X148843992Y-53848000D02*
X148844000Y-53847992D01*
X175768000Y-66548000D02*
X176022000Y-66294000D01*
X165608000Y-66548000D02*
X175768000Y-66548000D01*
X165354000Y-66294000D02*
X165608000Y-66548000D01*
X148844000Y-66294000D02*
X165354000Y-66294000D01*
G04 #@! TO.N,/SPK_GO*
X185420000Y-121920000D02*
X185928000Y-121920000D01*
X185928000Y-121920000D02*
X187198000Y-123190000D01*
X187198000Y-123190000D02*
X190500000Y-123190000D01*
G04 #@! TO.N,/IRQ1*
X172974000Y-118110000D02*
X173736000Y-118872000D01*
X169418000Y-118110000D02*
X172974000Y-118110000D01*
X168148000Y-119380000D02*
X169418000Y-118110000D01*
X167640000Y-119380000D02*
X168148000Y-119380000D01*
X196088000Y-48768000D02*
X195580000Y-48260000D01*
X197358000Y-48768000D02*
X196088000Y-48768000D01*
X178054000Y-40640000D02*
X178308000Y-40386000D01*
X175006000Y-40640000D02*
X178054000Y-40640000D01*
G04 #@! TO.N,/RESOUT*
X201168000Y-74168000D02*
X200660000Y-73660000D01*
X209296000Y-74168000D02*
X201168000Y-74168000D01*
X85852000Y-64008000D02*
X86360000Y-63500000D01*
X84836000Y-64008000D02*
X85852000Y-64008000D01*
X155702000Y-74168000D02*
X200152000Y-74168000D01*
X200152000Y-74168000D02*
X200660000Y-73660000D01*
X154686000Y-73152000D02*
X155702000Y-74168000D01*
G04 #@! TO.N,/X1*
X86360000Y-45720000D02*
X86868000Y-45212000D01*
X86868000Y-45212000D02*
X91440000Y-45212000D01*
X93218000Y-45212000D02*
X91440000Y-45212000D01*
G04 #@! TO.N,/X2*
X90678000Y-47752000D02*
X91440000Y-46990000D01*
X86868000Y-47752000D02*
X90678000Y-47752000D01*
X86360000Y-48260000D02*
X86868000Y-47752000D01*
X91694000Y-55118000D02*
X91440000Y-54864000D01*
X93218000Y-55118000D02*
X91694000Y-55118000D01*
G04 #@! TO.N,/CLK*
X78740000Y-60960000D02*
X79248000Y-60452000D01*
X79248000Y-60452000D02*
X84328000Y-60452000D01*
X84328000Y-60452000D02*
X85090000Y-59690000D01*
X85090000Y-59690000D02*
X87376000Y-59690000D01*
X87376000Y-59690000D02*
X88138000Y-60452000D01*
X121666000Y-86614000D02*
X115570000Y-86614000D01*
G04 #@! TO.N,/PCLK*
X78740000Y-45720000D02*
X79248000Y-46228000D01*
X79248000Y-46228000D02*
X84074000Y-46228000D01*
X84074000Y-46228000D02*
X84836000Y-46990000D01*
X84836000Y-46990000D02*
X88900000Y-46990000D01*
G04 #@! TO.N,/PCLK88*
X96012000Y-48768000D02*
X96520000Y-48260000D01*
X89916000Y-48768000D02*
X96012000Y-48768000D01*
G04 #@! TO.N,/OSC*
X107442000Y-134874000D02*
X101600000Y-134874000D01*
X107950000Y-135382000D02*
X107442000Y-134874000D01*
X86614000Y-58674000D02*
X86360000Y-58420000D01*
X94234000Y-58674000D02*
X86614000Y-58674000D01*
X95250000Y-59690000D02*
X94234000Y-58674000D01*
X98044000Y-59690000D02*
X95250000Y-59690000D01*
G04 #@! TO.N,/OSC88HF*
X104140000Y-50800000D02*
X103632000Y-50292000D01*
X103632000Y-50292000D02*
X99568000Y-50292000D01*
G04 #@! TO.N,/READY*
X200660000Y-55880000D02*
X201168000Y-56388000D01*
X201168000Y-56388000D02*
X203200000Y-56388000D01*
X124714000Y-64770000D02*
X116081110Y-64770000D01*
X116081110Y-64770000D02*
X115319110Y-64008000D01*
G04 #@! TO.N,/RDY1*
X131826000Y-77978000D02*
X131572000Y-77978000D01*
X187960000Y-140970000D02*
X187960000Y-136906000D01*
X187960000Y-136906000D02*
X187198000Y-136144000D01*
X78740000Y-50800000D02*
X77470000Y-52070000D01*
X77470000Y-52070000D02*
X74930000Y-52070000D01*
X74930000Y-52070000D02*
X74168000Y-51308000D01*
X69088000Y-51308000D02*
X68580000Y-50800000D01*
X74168000Y-51308000D02*
X69088000Y-51308000D01*
X124460000Y-80010000D02*
X123444000Y-78994000D01*
X123444000Y-78994000D02*
X116332000Y-78994000D01*
X129794000Y-80010000D02*
X124460000Y-80010000D01*
X131826000Y-77978000D02*
X129794000Y-80010000D01*
X132842000Y-78994000D02*
X131826000Y-77978000D01*
X173482000Y-78994000D02*
X132842000Y-78994000D01*
X173990000Y-78486000D02*
X173482000Y-78994000D01*
X182372000Y-78486000D02*
X173990000Y-78486000D01*
X95250000Y-52070000D02*
X116332000Y-52070000D01*
X94234000Y-51054000D02*
X95250000Y-52070000D01*
X88392000Y-51054000D02*
X94234000Y-51054000D01*
X80010000Y-52070000D02*
X87376000Y-52070000D01*
X87376000Y-52070000D02*
X88392000Y-51054000D01*
X78740000Y-50800000D02*
X80010000Y-52070000D01*
G04 #@! TO.N,/CH_CK*
X210820000Y-137160000D02*
X211836000Y-136144000D01*
X210820000Y-140970000D02*
X210820000Y-137160000D01*
X212598000Y-125730000D02*
X217170000Y-125730000D01*
X217170000Y-125730000D02*
X217678000Y-126238000D01*
X218440000Y-126238000D02*
X218948000Y-126746000D01*
X217678000Y-126238000D02*
X218440000Y-126238000D01*
X144780000Y-45720000D02*
X145288000Y-45212000D01*
X145288000Y-45212000D02*
X149098000Y-45212000D01*
X170180000Y-70612000D02*
X169418000Y-70612000D01*
X190754000Y-70612000D02*
X170180000Y-70612000D01*
X150114000Y-71374000D02*
X150368000Y-71120000D01*
X150368000Y-71120000D02*
X160528000Y-71120000D01*
X149606000Y-71374000D02*
X150114000Y-71374000D01*
X160528000Y-71120000D02*
X161036000Y-70612000D01*
X161036000Y-70612000D02*
X170180000Y-70612000D01*
G04 #@! TO.N,/TC*
X163830000Y-57150000D02*
X146558000Y-57150000D01*
X165100000Y-55880000D02*
X163830000Y-57150000D01*
G04 #@! TO.N,/REFRQ*
X201676000Y-80010000D02*
X164084000Y-80010000D01*
X202438000Y-80772000D02*
X201676000Y-80010000D01*
X215392000Y-80772000D02*
X202438000Y-80772000D01*
X215900000Y-81280000D02*
X215392000Y-80772000D01*
X219964000Y-82042000D02*
X219710000Y-82042000D01*
X219710000Y-82042000D02*
X219456000Y-81788000D01*
X216408000Y-81788000D02*
X215900000Y-81280000D01*
X219456000Y-81788000D02*
X216408000Y-81788000D01*
G04 #@! TO.N,/DRQ1*
X194564000Y-85852000D02*
X165100000Y-85852000D01*
X195072000Y-86360000D02*
X194564000Y-85852000D01*
X195580000Y-85852000D02*
X195072000Y-86360000D01*
X200152000Y-85852000D02*
X195580000Y-85852000D01*
X200660000Y-86360000D02*
X200152000Y-85852000D01*
G04 #@! TO.N,/DRQ3*
X195072000Y-81280000D02*
X194564000Y-80772000D01*
X195580000Y-80772000D02*
X195072000Y-81280000D01*
X194564000Y-80772000D02*
X173482000Y-80772000D01*
X200152000Y-80772000D02*
X195580000Y-80772000D01*
X200660000Y-81280000D02*
X200152000Y-80772000D01*
G04 #@! TO.N,/DRQ2*
X200660000Y-83820000D02*
X198374000Y-83820000D01*
X198374000Y-83820000D02*
X195072000Y-83820000D01*
G04 #@! TO.N,/FB2*
X98044000Y-46228000D02*
X97028000Y-46228000D01*
X97028000Y-56388000D02*
X96520000Y-55880000D01*
X98044000Y-56388000D02*
X97028000Y-56388000D01*
X97028000Y-46228000D02*
X96520000Y-45720000D01*
G04 #@! TO.N,/FB1*
X103632000Y-57912000D02*
X104140000Y-58420000D01*
X103632000Y-47752000D02*
X104140000Y-48260000D01*
X102616000Y-47752000D02*
X103632000Y-47752000D01*
X102616000Y-57912000D02*
X103632000Y-57912000D01*
G04 #@! TO.N,/HF_OSC*
X185420000Y-48260000D02*
X184150000Y-46990000D01*
X184150000Y-46990000D02*
X136144000Y-46990000D01*
X103632000Y-55372000D02*
X100584000Y-55372000D01*
X104140000Y-55880000D02*
X103632000Y-55372000D01*
G04 #@! TO.N,/KBD_DATA*
X221234000Y-44450000D02*
X221996000Y-45212000D01*
X191770000Y-44450000D02*
X221234000Y-44450000D01*
X190500000Y-45720000D02*
X191770000Y-44450000D01*
X218948000Y-111252000D02*
X221742000Y-111252000D01*
X218440000Y-111760000D02*
X218948000Y-111252000D01*
G04 #@! TO.N,/T0*
X224790000Y-85852000D02*
X223012000Y-85852000D01*
X225145600Y-85496400D02*
X224790000Y-85852000D01*
X218948000Y-108712000D02*
X218440000Y-109220000D01*
X223012000Y-108712000D02*
X218948000Y-108712000D01*
G04 #@! TO.N,/KBD_CLK*
X175006000Y-43688000D02*
X194310000Y-43688000D01*
X174244000Y-44450000D02*
X175006000Y-43688000D01*
X171450000Y-44450000D02*
X174244000Y-44450000D01*
X170688000Y-43688000D02*
X171450000Y-44450000D01*
X165608000Y-43688000D02*
X170688000Y-43688000D01*
X165100000Y-43180000D02*
X165608000Y-43688000D01*
G04 #@! TO.N,/T1*
X227634800Y-87604600D02*
X227609400Y-87604600D01*
X227609400Y-87604600D02*
X227330000Y-87884000D01*
X227330000Y-87884000D02*
X221488000Y-87884000D01*
X218948000Y-113792000D02*
X218440000Y-114300000D01*
X222250000Y-113792000D02*
X218948000Y-113792000D01*
G04 #@! TO.N,/KBD_CLK_INVERTED*
X189992000Y-72390000D02*
X170180000Y-72390000D01*
X165608000Y-46228000D02*
X165100000Y-45720000D01*
X169164000Y-46228000D02*
X165608000Y-46228000D01*
G04 #@! TO.N,/CLK_88*
X61468000Y-129032000D02*
X71882000Y-129032000D01*
X60960000Y-129540000D02*
X61468000Y-129032000D01*
G04 #@! TO.N,/READY1*
X76200000Y-129540000D02*
X75692000Y-130048000D01*
X75692000Y-130048000D02*
X69088000Y-130048000D01*
X69088000Y-53848000D02*
X68580000Y-53340000D01*
X71120000Y-53848000D02*
X69088000Y-53848000D01*
G04 #@! TO.N,/RESET1*
X76200000Y-63500000D02*
X75692000Y-62992000D01*
X75692000Y-62992000D02*
X74168000Y-62992000D01*
X75692000Y-131572000D02*
X73660000Y-131572000D01*
X76200000Y-132080000D02*
X75692000Y-131572000D01*
G04 #@! TO.N,/X1A*
X70866000Y-45212000D02*
X70104000Y-44450000D01*
X70104000Y-44450000D02*
X63500000Y-44450000D01*
X75692000Y-45212000D02*
X70866000Y-45212000D01*
X76200000Y-45720000D02*
X75692000Y-45212000D01*
G04 #@! TO.N,/X2A*
X70866000Y-47752000D02*
X70104000Y-46990000D01*
X70104000Y-46990000D02*
X63828000Y-46990000D01*
X75692000Y-47752000D02*
X70866000Y-47752000D01*
X63828000Y-46990000D02*
X63500000Y-47318000D01*
X76200000Y-48260000D02*
X75692000Y-47752000D01*
G04 #@! TO.N,/NMI_EN*
X161163000Y-69850000D02*
X191516000Y-69850000D01*
X160655000Y-69342000D02*
X161163000Y-69850000D01*
X157734000Y-69342000D02*
X160655000Y-69342000D01*
X157226000Y-69850000D02*
X157734000Y-69342000D01*
X147574000Y-69850000D02*
X157226000Y-69850000D01*
G04 #@! TO.N,/SPK_EN*
X144780000Y-50800000D02*
X145288000Y-51308000D01*
X145288000Y-51308000D02*
X148082000Y-51308000D01*
X205195001Y-123915001D02*
X205740000Y-124460000D01*
X201712999Y-123915001D02*
X205195001Y-123915001D01*
X202692000Y-101600000D02*
X197104000Y-101600000D01*
X148082000Y-67056000D02*
X197612000Y-67056000D01*
G04 #@! TO.N,/DRQ0_*
X195580000Y-88392000D02*
X195072000Y-88900000D01*
X200152000Y-88392000D02*
X195580000Y-88392000D01*
X200660000Y-88900000D02*
X200152000Y-88392000D01*
G04 #@! TO.N,/CLK88_1*
X200152000Y-71628000D02*
X172974000Y-71628000D01*
X200660000Y-71120000D02*
X200152000Y-71628000D01*
X144018000Y-68326000D02*
X172974000Y-68326000D01*
G04 #@! TO.N,/AEN_OE*
X167728139Y-89408000D02*
X167691387Y-89371248D01*
X188468000Y-89408000D02*
X167728139Y-89408000D01*
X165100000Y-50800000D02*
X165608000Y-51308000D01*
X165608000Y-51308000D02*
X167640000Y-51308000D01*
X221742000Y-56896000D02*
X221234000Y-56896000D01*
X222758000Y-55880000D02*
X221742000Y-56896000D01*
X226060000Y-55880000D02*
X222758000Y-55880000D01*
G04 #@! TO.N,/EOP*
X215900000Y-53340000D02*
X215392000Y-52832000D01*
X215392000Y-52832000D02*
X210566000Y-52832000D01*
G04 #@! TO.N,/CS_61_RD*
X215392000Y-108712000D02*
X213360000Y-108712000D01*
X215900000Y-109220000D02*
X215392000Y-108712000D01*
G04 #@! TO.N,/CS_61_WR*
X172212000Y-55372000D02*
X172720000Y-55880000D01*
X170942000Y-55372000D02*
X172212000Y-55372000D01*
X170180000Y-49530000D02*
X170942000Y-50292000D01*
X160782000Y-49530000D02*
X170180000Y-49530000D01*
X160020000Y-48768000D02*
X160782000Y-49530000D01*
X155448000Y-48768000D02*
X160020000Y-48768000D01*
X154940000Y-48260000D02*
X155448000Y-48768000D01*
G04 #@! TO.N,/CS_61_WR_*
X207518000Y-128270000D02*
X211836000Y-128270000D01*
X206248000Y-129540000D02*
X207518000Y-128270000D01*
X205740000Y-129540000D02*
X206248000Y-129540000D01*
G04 #@! TO.N,/NMI*
X60960000Y-124460000D02*
X61468000Y-123952000D01*
X61468000Y-123952000D02*
X69850000Y-123952000D01*
X172212000Y-53848000D02*
X172720000Y-53340000D01*
X170180000Y-53848000D02*
X172212000Y-53848000D01*
X97790000Y-77470000D02*
X98552008Y-78232008D01*
X70358000Y-77470000D02*
X97790000Y-77470000D01*
X98552008Y-78232008D02*
X123698008Y-78232008D01*
X135128008Y-78232008D02*
X169418000Y-78232008D01*
X134366000Y-77470000D02*
X135128008Y-78232008D01*
X123698008Y-78232008D02*
X123698008Y-78231992D01*
G04 #@! TO.N,/SPK_PIN*
X144780000Y-55880000D02*
X145288000Y-55372000D01*
X145288000Y-55372000D02*
X147828000Y-55372000D01*
X145288000Y-63500000D02*
X144780000Y-64008000D01*
X148082000Y-63500000D02*
X145288000Y-63500000D01*
G04 #@! TO.N,/SPK_PIN_O*
X159258000Y-72390000D02*
X155448000Y-72390000D01*
X159766000Y-72898000D02*
X159258000Y-72390000D01*
G04 #@! TO.N,/CLK1*
X68580000Y-60960000D02*
X69088000Y-61468000D01*
X69088000Y-61468000D02*
X70358000Y-61468000D01*
X68326000Y-128270000D02*
X77216000Y-128270000D01*
X77216000Y-128270000D02*
X77978000Y-129032000D01*
X77978000Y-129032000D02*
X82042000Y-129032000D01*
G04 #@! TO.N,/IOM_*
X136652000Y-56388000D02*
X138176000Y-56388000D01*
X123190000Y-57150000D02*
X135890000Y-57150000D01*
X135890000Y-57150000D02*
X136652000Y-56388000D01*
X121920000Y-58420000D02*
X123190000Y-57150000D01*
G04 #@! TD*
M02*
