G04 #@! TF.GenerationSoftware,KiCad,Pcbnew,(5.1.8)-1*
G04 #@! TF.CreationDate,2024-05-28T10:21:55-06:00*
G04 #@! TF.ProjectId,8088 PCB,38303838-2050-4434-922e-6b696361645f,rev?*
G04 #@! TF.SameCoordinates,Original*
G04 #@! TF.FileFunction,Soldermask,Bot*
G04 #@! TF.FilePolarity,Negative*
%FSLAX46Y46*%
G04 Gerber Fmt 4.6, Leading zero omitted, Abs format (unit mm)*
G04 Created by KiCad (PCBNEW (5.1.8)-1) date 2024-05-28 10:21:55*
%MOMM*%
%LPD*%
G01*
G04 APERTURE LIST*
%ADD10R,1.700000X1.700000*%
%ADD11O,1.600000X1.600000*%
%ADD12C,1.600000*%
%ADD13R,1.600000X1.600000*%
%ADD14O,1.700000X1.700000*%
%ADD15R,1.780000X7.620000*%
%ADD16C,1.500000*%
%ADD17C,1.422400*%
%ADD18R,1.422400X1.422400*%
%ADD19C,2.000000*%
%ADD20C,1.200000*%
%ADD21R,1.200000X1.200000*%
%ADD22C,3.556000*%
%ADD23C,2.794000*%
%ADD24C,3.302000*%
%ADD25C,1.524000*%
G04 APERTURE END LIST*
D10*
G04 #@! TO.C,J5*
X178308000Y-40386000D03*
G04 #@! TD*
D11*
G04 #@! TO.C,R15*
X83820000Y-131064000D03*
D12*
X93980000Y-131064000D03*
G04 #@! TD*
D11*
G04 #@! TO.C,R17*
X195072000Y-78740000D03*
X195072000Y-81280000D03*
X195072000Y-83820000D03*
X195072000Y-86360000D03*
X195072000Y-88900000D03*
D13*
X195072000Y-91440000D03*
G04 #@! TD*
D11*
G04 #@! TO.C,R12*
X170688000Y-64008000D03*
X168148000Y-64008000D03*
X165608000Y-64008000D03*
X163068000Y-64008000D03*
X160528000Y-64008000D03*
D13*
X157988000Y-64008000D03*
G04 #@! TD*
D11*
G04 #@! TO.C,R8*
X131826000Y-70358000D03*
X131826000Y-72898000D03*
X131826000Y-75438000D03*
X131826000Y-77978000D03*
D13*
X131826000Y-80518000D03*
G04 #@! TD*
D11*
G04 #@! TO.C,R10*
X126746000Y-68580000D03*
X126746000Y-71120000D03*
X126746000Y-73660000D03*
X126746000Y-76200000D03*
D13*
X126746000Y-78740000D03*
G04 #@! TD*
D14*
G04 #@! TO.C,J4*
X231140000Y-50800000D03*
X233680000Y-50800000D03*
X231140000Y-53340000D03*
X233680000Y-53340000D03*
X231140000Y-55880000D03*
X233680000Y-55880000D03*
X231140000Y-58420000D03*
X233680000Y-58420000D03*
X231140000Y-60960000D03*
X233680000Y-60960000D03*
X231140000Y-63500000D03*
X233680000Y-63500000D03*
X231140000Y-66040000D03*
X233680000Y-66040000D03*
X231140000Y-68580000D03*
D10*
X233680000Y-68580000D03*
G04 #@! TD*
D11*
G04 #@! TO.C,R16*
X219964000Y-84582000D03*
X219964000Y-82042000D03*
X219964000Y-79502000D03*
X219964000Y-76962000D03*
D13*
X219964000Y-74422000D03*
G04 #@! TD*
D11*
G04 #@! TO.C,R14*
X87376000Y-127000000D03*
X84836000Y-127000000D03*
X82296000Y-127000000D03*
D13*
X79756000Y-127000000D03*
G04 #@! TD*
D11*
G04 #@! TO.C,R2*
X68072000Y-70612000D03*
X65532000Y-70612000D03*
X62992000Y-70612000D03*
D13*
X60452000Y-70612000D03*
G04 #@! TD*
D11*
G04 #@! TO.C,R1*
X68072000Y-75184000D03*
X65532000Y-75184000D03*
X62992000Y-75184000D03*
D13*
X60452000Y-75184000D03*
G04 #@! TD*
D11*
G04 #@! TO.C,R18*
X93218000Y-52324000D03*
X93218000Y-54864000D03*
X93218000Y-57404000D03*
X93218000Y-59944000D03*
D13*
X93218000Y-62484000D03*
G04 #@! TD*
D11*
G04 #@! TO.C,R13*
X144780000Y-64008000D03*
D12*
X154940000Y-64008000D03*
G04 #@! TD*
D11*
G04 #@! TO.C,R11*
X141986000Y-66548000D03*
D12*
X131826000Y-66548000D03*
G04 #@! TD*
D11*
G04 #@! TO.C,R9*
X82550000Y-135382000D03*
D12*
X72390000Y-135382000D03*
G04 #@! TD*
D11*
G04 #@! TO.C,R7*
X218948000Y-126746000D03*
X221488000Y-126746000D03*
X224028000Y-126746000D03*
D13*
X226568000Y-126746000D03*
G04 #@! TD*
D11*
G04 #@! TO.C,R6*
X118110000Y-135382000D03*
D12*
X107950000Y-135382000D03*
G04 #@! TD*
D11*
G04 #@! TO.C,R5*
X99568000Y-72644000D03*
D12*
X99568000Y-62484000D03*
G04 #@! TD*
D11*
G04 #@! TO.C,R4*
X89408000Y-52578000D03*
D12*
X89408000Y-62738000D03*
G04 #@! TD*
D11*
G04 #@! TO.C,R3*
X130556000Y-135382000D03*
D12*
X120396000Y-135382000D03*
G04 #@! TD*
D14*
G04 #@! TO.C,J3*
X167386000Y-72898000D03*
X164846000Y-72898000D03*
X162306000Y-72898000D03*
D10*
X159766000Y-72898000D03*
G04 #@! TD*
D12*
G04 #@! TO.C,C26*
X157560000Y-40132000D03*
X162560000Y-40132000D03*
G04 #@! TD*
G04 #@! TO.C,C25*
X147400000Y-40132000D03*
X152400000Y-40132000D03*
G04 #@! TD*
G04 #@! TO.C,C24*
X200740000Y-103632000D03*
X205740000Y-103632000D03*
G04 #@! TD*
G04 #@! TO.C,C23*
X210900000Y-103632000D03*
X215900000Y-103632000D03*
G04 #@! TD*
G04 #@! TO.C,C22*
X71200000Y-40132000D03*
X76200000Y-40132000D03*
G04 #@! TD*
G04 #@! TO.C,C21*
X167720000Y-40132000D03*
X172720000Y-40132000D03*
G04 #@! TD*
G04 #@! TO.C,C20*
X221060000Y-103632000D03*
X226060000Y-103632000D03*
G04 #@! TD*
G04 #@! TO.C,C19*
X184230000Y-40894000D03*
X189230000Y-40894000D03*
G04 #@! TD*
G04 #@! TO.C,C18*
X99140000Y-40132000D03*
X104140000Y-40132000D03*
G04 #@! TD*
G04 #@! TO.C,C17*
X81360000Y-40132000D03*
X86360000Y-40132000D03*
G04 #@! TD*
G04 #@! TO.C,C16*
X137240000Y-40132000D03*
X142240000Y-40132000D03*
G04 #@! TD*
G04 #@! TO.C,C15*
X144860000Y-93472000D03*
X149860000Y-93472000D03*
G04 #@! TD*
G04 #@! TO.C,C14*
X127080000Y-88392000D03*
X132080000Y-88392000D03*
G04 #@! TD*
G04 #@! TO.C,C13*
X109300000Y-88392000D03*
X114300000Y-88392000D03*
G04 #@! TD*
G04 #@! TO.C,C12*
X127080000Y-40132000D03*
X132080000Y-40132000D03*
G04 #@! TD*
G04 #@! TO.C,C11*
X190580000Y-103632000D03*
X195580000Y-103632000D03*
G04 #@! TD*
G04 #@! TO.C,C10*
X218440000Y-71040000D03*
X218440000Y-66040000D03*
G04 #@! TD*
G04 #@! TO.C,C9*
X116920000Y-40132000D03*
X121920000Y-40132000D03*
G04 #@! TD*
G04 #@! TO.C,C8*
X81360000Y-68072000D03*
X86360000Y-68072000D03*
G04 #@! TD*
G04 #@! TO.C,C7*
X221060000Y-40132000D03*
X226060000Y-40132000D03*
G04 #@! TD*
G04 #@! TO.C,C6*
X162640000Y-93472000D03*
X167640000Y-93472000D03*
G04 #@! TD*
G04 #@! TO.C,C5*
X180420000Y-98552000D03*
X185420000Y-98552000D03*
G04 #@! TD*
G04 #@! TO.C,C4*
X81360000Y-96012000D03*
X86360000Y-96012000D03*
G04 #@! TD*
G04 #@! TO.C,C3*
X91520000Y-65532000D03*
X96520000Y-65532000D03*
G04 #@! TD*
G04 #@! TO.C,C2*
X91520000Y-96012000D03*
X96520000Y-96012000D03*
G04 #@! TD*
G04 #@! TO.C,C1*
X71200000Y-80772000D03*
X76200000Y-80772000D03*
G04 #@! TD*
D15*
G04 #@! TO.C,J1*
X134620000Y-140970000D03*
X137160000Y-140970000D03*
X139700000Y-140970000D03*
X142240000Y-140970000D03*
X144780000Y-140970000D03*
X147320000Y-140970000D03*
X149860000Y-140970000D03*
X152400000Y-140970000D03*
X154940000Y-140970000D03*
X157480000Y-140970000D03*
X160020000Y-140970000D03*
X162560000Y-140970000D03*
X165100000Y-140970000D03*
X167640000Y-140970000D03*
X170180000Y-140970000D03*
X172720000Y-140970000D03*
X175260000Y-140970000D03*
X177800000Y-140970000D03*
X180340000Y-140970000D03*
X182880000Y-140970000D03*
X185420000Y-140970000D03*
X187960000Y-140970000D03*
X190500000Y-140970000D03*
X193040000Y-140970000D03*
X195580000Y-140970000D03*
X198120000Y-140970000D03*
X200660000Y-140970000D03*
X203200000Y-140970000D03*
X205740000Y-140970000D03*
X208280000Y-140970000D03*
X210820000Y-140970000D03*
G04 #@! TD*
D16*
G04 #@! TO.C,Y2*
X63500000Y-42418000D03*
X63500000Y-47318000D03*
G04 #@! TD*
G04 #@! TO.C,Y1*
X91440000Y-42090000D03*
X91440000Y-46990000D03*
G04 #@! TD*
D11*
G04 #@! TO.C,U26*
X162560000Y-43180000D03*
X154940000Y-58420000D03*
X162560000Y-45720000D03*
X154940000Y-55880000D03*
X162560000Y-48260000D03*
X154940000Y-53340000D03*
X162560000Y-50800000D03*
X154940000Y-50800000D03*
X162560000Y-53340000D03*
X154940000Y-48260000D03*
X162560000Y-55880000D03*
X154940000Y-45720000D03*
X162560000Y-58420000D03*
D13*
X154940000Y-43180000D03*
G04 #@! TD*
D11*
G04 #@! TO.C,U25*
X152400000Y-43180000D03*
X144780000Y-58420000D03*
X152400000Y-45720000D03*
X144780000Y-55880000D03*
X152400000Y-48260000D03*
X144780000Y-53340000D03*
X152400000Y-50800000D03*
X144780000Y-50800000D03*
X152400000Y-53340000D03*
X144780000Y-48260000D03*
X152400000Y-55880000D03*
X144780000Y-45720000D03*
X152400000Y-58420000D03*
D13*
X144780000Y-43180000D03*
G04 #@! TD*
D11*
G04 #@! TO.C,U24*
X205740000Y-106680000D03*
X198120000Y-129540000D03*
X205740000Y-109220000D03*
X198120000Y-127000000D03*
X205740000Y-111760000D03*
X198120000Y-124460000D03*
X205740000Y-114300000D03*
X198120000Y-121920000D03*
X205740000Y-116840000D03*
X198120000Y-119380000D03*
X205740000Y-119380000D03*
X198120000Y-116840000D03*
X205740000Y-121920000D03*
X198120000Y-114300000D03*
X205740000Y-124460000D03*
X198120000Y-111760000D03*
X205740000Y-127000000D03*
X198120000Y-109220000D03*
X205740000Y-129540000D03*
D13*
X198120000Y-106680000D03*
G04 #@! TD*
D11*
G04 #@! TO.C,U23*
X215900000Y-106680000D03*
X208280000Y-129540000D03*
X215900000Y-109220000D03*
X208280000Y-127000000D03*
X215900000Y-111760000D03*
X208280000Y-124460000D03*
X215900000Y-114300000D03*
X208280000Y-121920000D03*
X215900000Y-116840000D03*
X208280000Y-119380000D03*
X215900000Y-119380000D03*
X208280000Y-116840000D03*
X215900000Y-121920000D03*
X208280000Y-114300000D03*
X215900000Y-124460000D03*
X208280000Y-111760000D03*
X215900000Y-127000000D03*
X208280000Y-109220000D03*
X215900000Y-129540000D03*
D13*
X208280000Y-106680000D03*
G04 #@! TD*
D11*
G04 #@! TO.C,U22*
X76200000Y-43180000D03*
X68580000Y-63500000D03*
X76200000Y-45720000D03*
X68580000Y-60960000D03*
X76200000Y-48260000D03*
X68580000Y-58420000D03*
X76200000Y-50800000D03*
X68580000Y-55880000D03*
X76200000Y-53340000D03*
X68580000Y-53340000D03*
X76200000Y-55880000D03*
X68580000Y-50800000D03*
X76200000Y-58420000D03*
X68580000Y-48260000D03*
X76200000Y-60960000D03*
X68580000Y-45720000D03*
X76200000Y-63500000D03*
D13*
X68580000Y-43180000D03*
G04 #@! TD*
D11*
G04 #@! TO.C,U21*
X172720000Y-43180000D03*
X165100000Y-58420000D03*
X172720000Y-45720000D03*
X165100000Y-55880000D03*
X172720000Y-48260000D03*
X165100000Y-53340000D03*
X172720000Y-50800000D03*
X165100000Y-50800000D03*
X172720000Y-53340000D03*
X165100000Y-48260000D03*
X172720000Y-55880000D03*
X165100000Y-45720000D03*
X172720000Y-58420000D03*
D13*
X165100000Y-43180000D03*
G04 #@! TD*
D11*
G04 #@! TO.C,U20*
X226060000Y-106680000D03*
X218440000Y-121920000D03*
X226060000Y-109220000D03*
X218440000Y-119380000D03*
X226060000Y-111760000D03*
X218440000Y-116840000D03*
X226060000Y-114300000D03*
X218440000Y-114300000D03*
X226060000Y-116840000D03*
X218440000Y-111760000D03*
X226060000Y-119380000D03*
X218440000Y-109220000D03*
X226060000Y-121920000D03*
D13*
X218440000Y-106680000D03*
G04 #@! TD*
D17*
G04 #@! TO.C,U19*
X195580000Y-48260000D03*
X195580000Y-50800000D03*
X195580000Y-53340000D03*
X195580000Y-55880000D03*
X195580000Y-58420000D03*
X193040000Y-45720000D03*
X193040000Y-50800000D03*
X193040000Y-53340000D03*
X193040000Y-55880000D03*
X193040000Y-58420000D03*
X193040000Y-60960000D03*
X193040000Y-63500000D03*
X190500000Y-63500000D03*
X187960000Y-63500000D03*
X185420000Y-63500000D03*
X182880000Y-63500000D03*
X180340000Y-63500000D03*
X195580000Y-60960000D03*
X190500000Y-60960000D03*
X187960000Y-60960000D03*
X185420000Y-60960000D03*
X182880000Y-60960000D03*
X180340000Y-60960000D03*
X177800000Y-60960000D03*
X177800000Y-58420000D03*
X177800000Y-55880000D03*
X177800000Y-53340000D03*
X177800000Y-50800000D03*
X177800000Y-48260000D03*
X180340000Y-58420000D03*
X180340000Y-55880000D03*
X180340000Y-53340000D03*
X180340000Y-50800000D03*
X180340000Y-48260000D03*
X190500000Y-45720000D03*
X187960000Y-45720000D03*
X180340000Y-45720000D03*
X182880000Y-45720000D03*
X185420000Y-45720000D03*
X193040000Y-48260000D03*
X190500000Y-48260000D03*
X182880000Y-48260000D03*
X185420000Y-48260000D03*
D18*
X187960000Y-48260000D03*
G04 #@! TD*
D11*
G04 #@! TO.C,U18*
X104140000Y-43180000D03*
X96520000Y-58420000D03*
X104140000Y-45720000D03*
X96520000Y-55880000D03*
X104140000Y-48260000D03*
X96520000Y-53340000D03*
X104140000Y-50800000D03*
X96520000Y-50800000D03*
X104140000Y-53340000D03*
X96520000Y-48260000D03*
X104140000Y-55880000D03*
X96520000Y-45720000D03*
X104140000Y-58420000D03*
D13*
X96520000Y-43180000D03*
G04 #@! TD*
D11*
G04 #@! TO.C,U17*
X86360000Y-43180000D03*
X78740000Y-63500000D03*
X86360000Y-45720000D03*
X78740000Y-60960000D03*
X86360000Y-48260000D03*
X78740000Y-58420000D03*
X86360000Y-50800000D03*
X78740000Y-55880000D03*
X86360000Y-53340000D03*
X78740000Y-53340000D03*
X86360000Y-55880000D03*
X78740000Y-50800000D03*
X86360000Y-58420000D03*
X78740000Y-48260000D03*
X86360000Y-60960000D03*
X78740000Y-45720000D03*
X86360000Y-63500000D03*
D13*
X78740000Y-43180000D03*
G04 #@! TD*
D11*
G04 #@! TO.C,U16*
X142240000Y-43180000D03*
X134620000Y-60960000D03*
X142240000Y-45720000D03*
X134620000Y-58420000D03*
X142240000Y-48260000D03*
X134620000Y-55880000D03*
X142240000Y-50800000D03*
X134620000Y-53340000D03*
X142240000Y-53340000D03*
X134620000Y-50800000D03*
X142240000Y-55880000D03*
X134620000Y-48260000D03*
X142240000Y-58420000D03*
X134620000Y-45720000D03*
X142240000Y-60960000D03*
D13*
X134620000Y-43180000D03*
G04 #@! TD*
D11*
G04 #@! TO.C,U15*
X149860000Y-96520000D03*
X134620000Y-129540000D03*
X149860000Y-99060000D03*
X134620000Y-127000000D03*
X149860000Y-101600000D03*
X134620000Y-124460000D03*
X149860000Y-104140000D03*
X134620000Y-121920000D03*
X149860000Y-106680000D03*
X134620000Y-119380000D03*
X149860000Y-109220000D03*
X134620000Y-116840000D03*
X149860000Y-111760000D03*
X134620000Y-114300000D03*
X149860000Y-114300000D03*
X134620000Y-111760000D03*
X149860000Y-116840000D03*
X134620000Y-109220000D03*
X149860000Y-119380000D03*
X134620000Y-106680000D03*
X149860000Y-121920000D03*
X134620000Y-104140000D03*
X149860000Y-124460000D03*
X134620000Y-101600000D03*
X149860000Y-127000000D03*
X134620000Y-99060000D03*
X149860000Y-129540000D03*
D13*
X134620000Y-96520000D03*
G04 #@! TD*
D11*
G04 #@! TO.C,U14*
X132080000Y-91440000D03*
X116840000Y-129540000D03*
X132080000Y-93980000D03*
X116840000Y-127000000D03*
X132080000Y-96520000D03*
X116840000Y-124460000D03*
X132080000Y-99060000D03*
X116840000Y-121920000D03*
X132080000Y-101600000D03*
X116840000Y-119380000D03*
X132080000Y-104140000D03*
X116840000Y-116840000D03*
X132080000Y-106680000D03*
X116840000Y-114300000D03*
X132080000Y-109220000D03*
X116840000Y-111760000D03*
X132080000Y-111760000D03*
X116840000Y-109220000D03*
X132080000Y-114300000D03*
X116840000Y-106680000D03*
X132080000Y-116840000D03*
X116840000Y-104140000D03*
X132080000Y-119380000D03*
X116840000Y-101600000D03*
X132080000Y-121920000D03*
X116840000Y-99060000D03*
X132080000Y-124460000D03*
X116840000Y-96520000D03*
X132080000Y-127000000D03*
X116840000Y-93980000D03*
X132080000Y-129540000D03*
D13*
X116840000Y-91440000D03*
G04 #@! TD*
D11*
G04 #@! TO.C,U13*
X114300000Y-91440000D03*
X99060000Y-129540000D03*
X114300000Y-93980000D03*
X99060000Y-127000000D03*
X114300000Y-96520000D03*
X99060000Y-124460000D03*
X114300000Y-99060000D03*
X99060000Y-121920000D03*
X114300000Y-101600000D03*
X99060000Y-119380000D03*
X114300000Y-104140000D03*
X99060000Y-116840000D03*
X114300000Y-106680000D03*
X99060000Y-114300000D03*
X114300000Y-109220000D03*
X99060000Y-111760000D03*
X114300000Y-111760000D03*
X99060000Y-109220000D03*
X114300000Y-114300000D03*
X99060000Y-106680000D03*
X114300000Y-116840000D03*
X99060000Y-104140000D03*
X114300000Y-119380000D03*
X99060000Y-101600000D03*
X114300000Y-121920000D03*
X99060000Y-99060000D03*
X114300000Y-124460000D03*
X99060000Y-96520000D03*
X114300000Y-127000000D03*
X99060000Y-93980000D03*
X114300000Y-129540000D03*
D13*
X99060000Y-91440000D03*
G04 #@! TD*
D11*
G04 #@! TO.C,U12*
X132080000Y-43180000D03*
X124460000Y-60960000D03*
X132080000Y-45720000D03*
X124460000Y-58420000D03*
X132080000Y-48260000D03*
X124460000Y-55880000D03*
X132080000Y-50800000D03*
X124460000Y-53340000D03*
X132080000Y-53340000D03*
X124460000Y-50800000D03*
X132080000Y-55880000D03*
X124460000Y-48260000D03*
X132080000Y-58420000D03*
X124460000Y-45720000D03*
X132080000Y-60960000D03*
D13*
X124460000Y-43180000D03*
G04 #@! TD*
D11*
G04 #@! TO.C,U11*
X195580000Y-106680000D03*
X187960000Y-129540000D03*
X195580000Y-109220000D03*
X187960000Y-127000000D03*
X195580000Y-111760000D03*
X187960000Y-124460000D03*
X195580000Y-114300000D03*
X187960000Y-121920000D03*
X195580000Y-116840000D03*
X187960000Y-119380000D03*
X195580000Y-119380000D03*
X187960000Y-116840000D03*
X195580000Y-121920000D03*
X187960000Y-114300000D03*
X195580000Y-124460000D03*
X187960000Y-111760000D03*
X195580000Y-127000000D03*
X187960000Y-109220000D03*
X195580000Y-129540000D03*
D13*
X187960000Y-106680000D03*
G04 #@! TD*
D11*
G04 #@! TO.C,U10*
X215900000Y-43180000D03*
X200660000Y-91440000D03*
X215900000Y-45720000D03*
X200660000Y-88900000D03*
X215900000Y-48260000D03*
X200660000Y-86360000D03*
X215900000Y-50800000D03*
X200660000Y-83820000D03*
X215900000Y-53340000D03*
X200660000Y-81280000D03*
X215900000Y-55880000D03*
X200660000Y-78740000D03*
X215900000Y-58420000D03*
X200660000Y-76200000D03*
X215900000Y-60960000D03*
X200660000Y-73660000D03*
X215900000Y-63500000D03*
X200660000Y-71120000D03*
X215900000Y-66040000D03*
X200660000Y-68580000D03*
X215900000Y-68580000D03*
X200660000Y-66040000D03*
X215900000Y-71120000D03*
X200660000Y-63500000D03*
X215900000Y-73660000D03*
X200660000Y-60960000D03*
X215900000Y-76200000D03*
X200660000Y-58420000D03*
X215900000Y-78740000D03*
X200660000Y-55880000D03*
X215900000Y-81280000D03*
X200660000Y-53340000D03*
X215900000Y-83820000D03*
X200660000Y-50800000D03*
X215900000Y-86360000D03*
X200660000Y-48260000D03*
X215900000Y-88900000D03*
X200660000Y-45720000D03*
X215900000Y-91440000D03*
D13*
X200660000Y-43180000D03*
G04 #@! TD*
D11*
G04 #@! TO.C,U9*
X121920000Y-43180000D03*
X106680000Y-76200000D03*
X121920000Y-45720000D03*
X106680000Y-73660000D03*
X121920000Y-48260000D03*
X106680000Y-71120000D03*
X121920000Y-50800000D03*
X106680000Y-68580000D03*
X121920000Y-53340000D03*
X106680000Y-66040000D03*
X121920000Y-55880000D03*
X106680000Y-63500000D03*
X121920000Y-58420000D03*
X106680000Y-60960000D03*
X121920000Y-60960000D03*
X106680000Y-58420000D03*
X121920000Y-63500000D03*
X106680000Y-55880000D03*
X121920000Y-66040000D03*
X106680000Y-53340000D03*
X121920000Y-68580000D03*
X106680000Y-50800000D03*
X121920000Y-71120000D03*
X106680000Y-48260000D03*
X121920000Y-73660000D03*
X106680000Y-45720000D03*
X121920000Y-76200000D03*
D13*
X106680000Y-43180000D03*
G04 #@! TD*
D11*
G04 #@! TO.C,U8*
X86360000Y-71120000D03*
X78740000Y-88900000D03*
X86360000Y-73660000D03*
X78740000Y-86360000D03*
X86360000Y-76200000D03*
X78740000Y-83820000D03*
X86360000Y-78740000D03*
X78740000Y-81280000D03*
X86360000Y-81280000D03*
X78740000Y-78740000D03*
X86360000Y-83820000D03*
X78740000Y-76200000D03*
X86360000Y-86360000D03*
X78740000Y-73660000D03*
X86360000Y-88900000D03*
D13*
X78740000Y-71120000D03*
G04 #@! TD*
D11*
G04 #@! TO.C,U7*
X226060000Y-43180000D03*
X218440000Y-60960000D03*
X226060000Y-45720000D03*
X218440000Y-58420000D03*
X226060000Y-48260000D03*
X218440000Y-55880000D03*
X226060000Y-50800000D03*
X218440000Y-53340000D03*
X226060000Y-53340000D03*
X218440000Y-50800000D03*
X226060000Y-55880000D03*
X218440000Y-48260000D03*
X226060000Y-58420000D03*
X218440000Y-45720000D03*
X226060000Y-60960000D03*
D13*
X218440000Y-43180000D03*
G04 #@! TD*
D11*
G04 #@! TO.C,U6*
X167640000Y-96520000D03*
X152400000Y-129540000D03*
X167640000Y-99060000D03*
X152400000Y-127000000D03*
X167640000Y-101600000D03*
X152400000Y-124460000D03*
X167640000Y-104140000D03*
X152400000Y-121920000D03*
X167640000Y-106680000D03*
X152400000Y-119380000D03*
X167640000Y-109220000D03*
X152400000Y-116840000D03*
X167640000Y-111760000D03*
X152400000Y-114300000D03*
X167640000Y-114300000D03*
X152400000Y-111760000D03*
X167640000Y-116840000D03*
X152400000Y-109220000D03*
X167640000Y-119380000D03*
X152400000Y-106680000D03*
X167640000Y-121920000D03*
X152400000Y-104140000D03*
X167640000Y-124460000D03*
X152400000Y-101600000D03*
X167640000Y-127000000D03*
X152400000Y-99060000D03*
X167640000Y-129540000D03*
D13*
X152400000Y-96520000D03*
G04 #@! TD*
D11*
G04 #@! TO.C,U5*
X185420000Y-101600000D03*
X170180000Y-129540000D03*
X185420000Y-104140000D03*
X170180000Y-127000000D03*
X185420000Y-106680000D03*
X170180000Y-124460000D03*
X185420000Y-109220000D03*
X170180000Y-121920000D03*
X185420000Y-111760000D03*
X170180000Y-119380000D03*
X185420000Y-114300000D03*
X170180000Y-116840000D03*
X185420000Y-116840000D03*
X170180000Y-114300000D03*
X185420000Y-119380000D03*
X170180000Y-111760000D03*
X185420000Y-121920000D03*
X170180000Y-109220000D03*
X185420000Y-124460000D03*
X170180000Y-106680000D03*
X185420000Y-127000000D03*
X170180000Y-104140000D03*
X185420000Y-129540000D03*
D13*
X170180000Y-101600000D03*
G04 #@! TD*
D11*
G04 #@! TO.C,U4*
X86360000Y-99060000D03*
X78740000Y-121920000D03*
X86360000Y-101600000D03*
X78740000Y-119380000D03*
X86360000Y-104140000D03*
X78740000Y-116840000D03*
X86360000Y-106680000D03*
X78740000Y-114300000D03*
X86360000Y-109220000D03*
X78740000Y-111760000D03*
X86360000Y-111760000D03*
X78740000Y-109220000D03*
X86360000Y-114300000D03*
X78740000Y-106680000D03*
X86360000Y-116840000D03*
X78740000Y-104140000D03*
X86360000Y-119380000D03*
X78740000Y-101600000D03*
X86360000Y-121920000D03*
D13*
X78740000Y-99060000D03*
G04 #@! TD*
D11*
G04 #@! TO.C,U3*
X96520000Y-68580000D03*
X88900000Y-91440000D03*
X96520000Y-71120000D03*
X88900000Y-88900000D03*
X96520000Y-73660000D03*
X88900000Y-86360000D03*
X96520000Y-76200000D03*
X88900000Y-83820000D03*
X96520000Y-78740000D03*
X88900000Y-81280000D03*
X96520000Y-81280000D03*
X88900000Y-78740000D03*
X96520000Y-83820000D03*
X88900000Y-76200000D03*
X96520000Y-86360000D03*
X88900000Y-73660000D03*
X96520000Y-88900000D03*
X88900000Y-71120000D03*
X96520000Y-91440000D03*
D13*
X88900000Y-68580000D03*
G04 #@! TD*
D11*
G04 #@! TO.C,U2*
X96520000Y-99060000D03*
X88900000Y-121920000D03*
X96520000Y-101600000D03*
X88900000Y-119380000D03*
X96520000Y-104140000D03*
X88900000Y-116840000D03*
X96520000Y-106680000D03*
X88900000Y-114300000D03*
X96520000Y-109220000D03*
X88900000Y-111760000D03*
X96520000Y-111760000D03*
X88900000Y-109220000D03*
X96520000Y-114300000D03*
X88900000Y-106680000D03*
X96520000Y-116840000D03*
X88900000Y-104140000D03*
X96520000Y-119380000D03*
X88900000Y-101600000D03*
X96520000Y-121920000D03*
D13*
X88900000Y-99060000D03*
G04 #@! TD*
D11*
G04 #@! TO.C,U1*
X76200000Y-83820000D03*
X60960000Y-132080000D03*
X76200000Y-86360000D03*
X60960000Y-129540000D03*
X76200000Y-88900000D03*
X60960000Y-127000000D03*
X76200000Y-91440000D03*
X60960000Y-124460000D03*
X76200000Y-93980000D03*
X60960000Y-121920000D03*
X76200000Y-96520000D03*
X60960000Y-119380000D03*
X76200000Y-99060000D03*
X60960000Y-116840000D03*
X76200000Y-101600000D03*
X60960000Y-114300000D03*
X76200000Y-104140000D03*
X60960000Y-111760000D03*
X76200000Y-106680000D03*
X60960000Y-109220000D03*
X76200000Y-109220000D03*
X60960000Y-106680000D03*
X76200000Y-111760000D03*
X60960000Y-104140000D03*
X76200000Y-114300000D03*
X60960000Y-101600000D03*
X76200000Y-116840000D03*
X60960000Y-99060000D03*
X76200000Y-119380000D03*
X60960000Y-96520000D03*
X76200000Y-121920000D03*
X60960000Y-93980000D03*
X76200000Y-124460000D03*
X60960000Y-91440000D03*
X76200000Y-127000000D03*
X60960000Y-88900000D03*
X76200000Y-129540000D03*
X60960000Y-86360000D03*
X76200000Y-132080000D03*
D13*
X60960000Y-83820000D03*
G04 #@! TD*
D19*
G04 #@! TO.C,SW1*
X64952000Y-65786000D03*
X60452000Y-65786000D03*
X64952000Y-59286000D03*
X60452000Y-59286000D03*
G04 #@! TD*
D20*
G04 #@! TO.C,C123*
X61976000Y-53848000D03*
D21*
X60476000Y-53848000D03*
G04 #@! TD*
D22*
G04 #@! TO.C,R*
X230886000Y-76200000D03*
G04 #@! TD*
D23*
G04 #@! TO.C,J2*
X230632000Y-82143600D03*
X230632000Y-95656400D03*
D24*
X231444800Y-88900000D03*
D25*
X225145600Y-92303600D03*
X225145600Y-85496400D03*
X227634800Y-90195400D03*
X227634800Y-87604600D03*
X227634800Y-92303600D03*
X227634800Y-85496400D03*
G04 #@! TD*
D22*
G04 #@! TO.C,R*
X230886000Y-133350000D03*
G04 #@! TD*
M02*
