G04 #@! TF.GenerationSoftware,KiCad,Pcbnew,(5.1.8)-1*
G04 #@! TF.CreationDate,2024-05-27T16:48:39-06:00*
G04 #@! TF.ProjectId,8088 PCB,38303838-2050-4434-922e-6b696361645f,rev?*
G04 #@! TF.SameCoordinates,Original*
G04 #@! TF.FileFunction,Copper,L2,Inr*
G04 #@! TF.FilePolarity,Positive*
%FSLAX46Y46*%
G04 Gerber Fmt 4.6, Leading zero omitted, Abs format (unit mm)*
G04 Created by KiCad (PCBNEW (5.1.8)-1) date 2024-05-27 16:48:39*
%MOMM*%
%LPD*%
G01*
G04 APERTURE LIST*
G04 #@! TA.AperFunction,ComponentPad*
%ADD10R,1.700000X1.700000*%
G04 #@! TD*
G04 #@! TA.AperFunction,ComponentPad*
%ADD11O,1.600000X1.600000*%
G04 #@! TD*
G04 #@! TA.AperFunction,ComponentPad*
%ADD12C,1.600000*%
G04 #@! TD*
G04 #@! TA.AperFunction,ComponentPad*
%ADD13R,1.600000X1.600000*%
G04 #@! TD*
G04 #@! TA.AperFunction,ComponentPad*
%ADD14O,1.700000X1.700000*%
G04 #@! TD*
G04 #@! TA.AperFunction,ComponentPad*
%ADD15C,1.500000*%
G04 #@! TD*
G04 #@! TA.AperFunction,ComponentPad*
%ADD16C,1.422400*%
G04 #@! TD*
G04 #@! TA.AperFunction,ComponentPad*
%ADD17R,1.422400X1.422400*%
G04 #@! TD*
G04 #@! TA.AperFunction,ComponentPad*
%ADD18C,2.000000*%
G04 #@! TD*
G04 #@! TA.AperFunction,ComponentPad*
%ADD19C,1.200000*%
G04 #@! TD*
G04 #@! TA.AperFunction,ComponentPad*
%ADD20R,1.200000X1.200000*%
G04 #@! TD*
G04 #@! TA.AperFunction,ComponentPad*
%ADD21C,3.556000*%
G04 #@! TD*
G04 #@! TA.AperFunction,ComponentPad*
%ADD22C,2.794000*%
G04 #@! TD*
G04 #@! TA.AperFunction,ComponentPad*
%ADD23C,3.302000*%
G04 #@! TD*
G04 #@! TA.AperFunction,ComponentPad*
%ADD24C,1.524000*%
G04 #@! TD*
G04 #@! TA.AperFunction,ViaPad*
%ADD25C,0.800000*%
G04 #@! TD*
G04 #@! TA.AperFunction,Conductor*
%ADD26C,0.250000*%
G04 #@! TD*
G04 #@! TA.AperFunction,Conductor*
%ADD27C,0.330200*%
G04 #@! TD*
G04 APERTURE END LIST*
D10*
G04 #@! TO.N,/IRQ1*
G04 #@! TO.C,J5*
X179324000Y-75438000D03*
G04 #@! TD*
D11*
G04 #@! TO.N,/DEN*
G04 #@! TO.C,R15*
X83820000Y-131064000D03*
D12*
G04 #@! TO.N,/5+*
X93980000Y-131064000D03*
G04 #@! TD*
D11*
G04 #@! TO.N,/AEN*
G04 #@! TO.C,R17*
X195072000Y-78740000D03*
G04 #@! TO.N,/DRQ3*
X195072000Y-81280000D03*
G04 #@! TO.N,/DRQ2*
X195072000Y-83820000D03*
G04 #@! TO.N,/DRQ1*
X195072000Y-86360000D03*
G04 #@! TO.N,/DRQ0_*
X195072000Y-88900000D03*
D13*
G04 #@! TO.N,/GND*
X195072000Y-91440000D03*
G04 #@! TD*
D11*
G04 #@! TO.N,/760_WR*
G04 #@! TO.C,R12*
X170688000Y-64008000D03*
G04 #@! TO.N,/CH_CK_*
X168148000Y-64008000D03*
G04 #@! TO.N,/EOP*
X165608000Y-64008000D03*
G04 #@! TO.N,/CS_61_RD*
X163068000Y-64008000D03*
G04 #@! TO.N,/CS_61_WR*
X160528000Y-64008000D03*
D13*
G04 #@! TO.N,/5+*
X157988000Y-64008000D03*
G04 #@! TD*
D11*
G04 #@! TO.N,/00_CS*
G04 #@! TO.C,R8*
X131826000Y-70358000D03*
G04 #@! TO.N,/20_CS*
X131826000Y-72898000D03*
G04 #@! TO.N,/40_CS*
X131826000Y-75438000D03*
G04 #@! TO.N,/RDY1*
X131826000Y-77978000D03*
D13*
G04 #@! TO.N,/5+*
X131826000Y-80518000D03*
G04 #@! TD*
D11*
G04 #@! TO.N,/E0_CS*
G04 #@! TO.C,R10*
X126746000Y-68580000D03*
G04 #@! TO.N,/80_CS*
X126746000Y-71120000D03*
G04 #@! TO.N,/61_CS*
X126746000Y-73660000D03*
G04 #@! TO.N,/60_CS*
X126746000Y-76200000D03*
D13*
G04 #@! TO.N,/5+*
X126746000Y-78740000D03*
G04 #@! TD*
D14*
G04 #@! TO.N,/GND*
G04 #@! TO.C,J4*
X231140000Y-50800000D03*
G04 #@! TO.N,/D0*
X233680000Y-50800000D03*
G04 #@! TO.N,/GND*
X231140000Y-53340000D03*
G04 #@! TO.N,/D1*
X233680000Y-53340000D03*
G04 #@! TO.N,/5+*
X231140000Y-55880000D03*
G04 #@! TO.N,/D2*
X233680000Y-55880000D03*
G04 #@! TO.N,Net-(J4-Pad10)*
X231140000Y-58420000D03*
G04 #@! TO.N,/D3*
X233680000Y-58420000D03*
G04 #@! TO.N,/A2*
X231140000Y-60960000D03*
G04 #@! TO.N,/D4*
X233680000Y-60960000D03*
G04 #@! TO.N,/E0_CS*
X231140000Y-63500000D03*
G04 #@! TO.N,/D5*
X233680000Y-63500000D03*
G04 #@! TO.N,/IORD*
X231140000Y-66040000D03*
G04 #@! TO.N,/D6*
X233680000Y-66040000D03*
G04 #@! TO.N,/IOWR*
X231140000Y-68580000D03*
D10*
G04 #@! TO.N,/D7*
X233680000Y-68580000D03*
G04 #@! TD*
D11*
G04 #@! TO.N,/DACK1*
G04 #@! TO.C,R16*
X219964000Y-84582000D03*
G04 #@! TO.N,/REFRQ*
X219964000Y-82042000D03*
G04 #@! TO.N,/DACK3*
X219964000Y-79502000D03*
G04 #@! TO.N,/DACK2*
X219964000Y-76962000D03*
D13*
G04 #@! TO.N,/5+*
X219964000Y-74422000D03*
G04 #@! TD*
D11*
G04 #@! TO.N,Net-(R14-Pad4)*
G04 #@! TO.C,R14*
X87376000Y-127000000D03*
G04 #@! TO.N,/NMI*
X84836000Y-127000000D03*
G04 #@! TO.N,/HOLD*
X82296000Y-127000000D03*
D13*
G04 #@! TO.N,/GND*
X79756000Y-127000000D03*
G04 #@! TD*
D11*
G04 #@! TO.N,/IORD*
G04 #@! TO.C,R2*
X68072000Y-70612000D03*
G04 #@! TO.N,/PU1*
X65532000Y-70612000D03*
G04 #@! TO.N,/RESET*
X62992000Y-70612000D03*
D13*
G04 #@! TO.N,/5+*
X60452000Y-70612000D03*
G04 #@! TD*
D11*
G04 #@! TO.N,/IOWR*
G04 #@! TO.C,R1*
X68072000Y-75184000D03*
G04 #@! TO.N,/MRD*
X65532000Y-75184000D03*
G04 #@! TO.N,/MWR*
X62992000Y-75184000D03*
D13*
G04 #@! TO.N,/5+*
X60452000Y-75184000D03*
G04 #@! TD*
D11*
G04 #@! TO.N,/X1*
G04 #@! TO.C,R18*
X93218000Y-52324000D03*
G04 #@! TO.N,/X2*
X93218000Y-54864000D03*
G04 #@! TO.N,/X1A*
X93218000Y-57404000D03*
G04 #@! TO.N,/X2A*
X93218000Y-59944000D03*
D13*
G04 #@! TO.N,/GND*
X93218000Y-62484000D03*
G04 #@! TD*
D11*
G04 #@! TO.N,/SPK_PIN*
G04 #@! TO.C,R13*
X144780000Y-64008000D03*
D12*
G04 #@! TO.N,/SPK_PIN_O*
X154940000Y-64008000D03*
G04 #@! TD*
D11*
G04 #@! TO.N,/CLK88_1*
G04 #@! TO.C,R11*
X141986000Y-66548000D03*
D12*
G04 #@! TO.N,/CLK*
X131826000Y-66548000D03*
G04 #@! TD*
D11*
G04 #@! TO.N,/CLK1*
G04 #@! TO.C,R9*
X82550000Y-135382000D03*
D12*
G04 #@! TO.N,/CLK_88*
X72390000Y-135382000D03*
G04 #@! TD*
D11*
G04 #@! TO.N,/CH_CK*
G04 #@! TO.C,R7*
X218948000Y-126746000D03*
G04 #@! TO.N,/T1*
X221488000Y-126746000D03*
G04 #@! TO.N,/T0*
X224028000Y-126746000D03*
D13*
G04 #@! TO.N,/5+*
X226568000Y-126746000D03*
G04 #@! TD*
D11*
G04 #@! TO.N,/OSC88*
G04 #@! TO.C,R6*
X118110000Y-135382000D03*
D12*
G04 #@! TO.N,/OSC*
X107950000Y-135382000D03*
G04 #@! TD*
D11*
G04 #@! TO.N,/OSC*
G04 #@! TO.C,R5*
X99568000Y-72644000D03*
D12*
G04 #@! TO.N,/OSC88HF*
X99568000Y-62484000D03*
G04 #@! TD*
D11*
G04 #@! TO.N,/PCLK*
G04 #@! TO.C,R4*
X89408000Y-52578000D03*
D12*
G04 #@! TO.N,/PCLK88*
X89408000Y-62738000D03*
G04 #@! TD*
D11*
G04 #@! TO.N,/CLK88*
G04 #@! TO.C,R3*
X130556000Y-135382000D03*
D12*
G04 #@! TO.N,/CLK*
X120396000Y-135382000D03*
G04 #@! TD*
D14*
G04 #@! TO.N,/5+*
G04 #@! TO.C,J3*
X167386000Y-72898000D03*
G04 #@! TO.N,/GND*
X164846000Y-72898000D03*
G04 #@! TO.N,Net-(J3-Pad2)*
X162306000Y-72898000D03*
D10*
G04 #@! TO.N,/SPK_PIN_O*
X159766000Y-72898000D03*
G04 #@! TD*
D12*
G04 #@! TO.N,/GND*
G04 #@! TO.C,C26*
X157560000Y-40132000D03*
G04 #@! TO.N,/5+*
X162560000Y-40132000D03*
G04 #@! TD*
G04 #@! TO.N,/GND*
G04 #@! TO.C,C25*
X147400000Y-40132000D03*
G04 #@! TO.N,/5+*
X152400000Y-40132000D03*
G04 #@! TD*
G04 #@! TO.N,/GND*
G04 #@! TO.C,C24*
X200740000Y-103632000D03*
G04 #@! TO.N,/5+*
X205740000Y-103632000D03*
G04 #@! TD*
G04 #@! TO.N,/GND*
G04 #@! TO.C,C23*
X210900000Y-103632000D03*
G04 #@! TO.N,/5+*
X215900000Y-103632000D03*
G04 #@! TD*
G04 #@! TO.N,/GND*
G04 #@! TO.C,C22*
X71200000Y-40132000D03*
G04 #@! TO.N,/5+*
X76200000Y-40132000D03*
G04 #@! TD*
G04 #@! TO.N,/GND*
G04 #@! TO.C,C21*
X167720000Y-40132000D03*
G04 #@! TO.N,/5+*
X172720000Y-40132000D03*
G04 #@! TD*
G04 #@! TO.N,/GND*
G04 #@! TO.C,C20*
X221060000Y-103632000D03*
G04 #@! TO.N,/5+*
X226060000Y-103632000D03*
G04 #@! TD*
G04 #@! TO.N,/GND*
G04 #@! TO.C,C19*
X184230000Y-40894000D03*
G04 #@! TO.N,/5+*
X189230000Y-40894000D03*
G04 #@! TD*
G04 #@! TO.N,/GND*
G04 #@! TO.C,C18*
X99140000Y-40132000D03*
G04 #@! TO.N,/5+*
X104140000Y-40132000D03*
G04 #@! TD*
G04 #@! TO.N,/GND*
G04 #@! TO.C,C17*
X81360000Y-40132000D03*
G04 #@! TO.N,/5+*
X86360000Y-40132000D03*
G04 #@! TD*
G04 #@! TO.N,/GND*
G04 #@! TO.C,C16*
X137240000Y-40132000D03*
G04 #@! TO.N,/5+*
X142240000Y-40132000D03*
G04 #@! TD*
G04 #@! TO.N,/GND*
G04 #@! TO.C,C15*
X144860000Y-93472000D03*
G04 #@! TO.N,/5+*
X149860000Y-93472000D03*
G04 #@! TD*
G04 #@! TO.N,/GND*
G04 #@! TO.C,C14*
X127080000Y-88392000D03*
G04 #@! TO.N,/5+*
X132080000Y-88392000D03*
G04 #@! TD*
G04 #@! TO.N,/GND*
G04 #@! TO.C,C13*
X109300000Y-88392000D03*
G04 #@! TO.N,/5+*
X114300000Y-88392000D03*
G04 #@! TD*
G04 #@! TO.N,/GND*
G04 #@! TO.C,C12*
X127080000Y-40132000D03*
G04 #@! TO.N,/5+*
X132080000Y-40132000D03*
G04 #@! TD*
G04 #@! TO.N,/GND*
G04 #@! TO.C,C11*
X190580000Y-103632000D03*
G04 #@! TO.N,/5+*
X195580000Y-103632000D03*
G04 #@! TD*
G04 #@! TO.N,/GND*
G04 #@! TO.C,C10*
X218440000Y-71040000D03*
G04 #@! TO.N,/5+*
X218440000Y-66040000D03*
G04 #@! TD*
G04 #@! TO.N,/GND*
G04 #@! TO.C,C9*
X116920000Y-40132000D03*
G04 #@! TO.N,/5+*
X121920000Y-40132000D03*
G04 #@! TD*
G04 #@! TO.N,/GND*
G04 #@! TO.C,C8*
X81360000Y-68072000D03*
G04 #@! TO.N,/5+*
X86360000Y-68072000D03*
G04 #@! TD*
G04 #@! TO.N,/GND*
G04 #@! TO.C,C7*
X221060000Y-40132000D03*
G04 #@! TO.N,/5+*
X226060000Y-40132000D03*
G04 #@! TD*
G04 #@! TO.N,/GND*
G04 #@! TO.C,C6*
X162640000Y-93472000D03*
G04 #@! TO.N,/5+*
X167640000Y-93472000D03*
G04 #@! TD*
G04 #@! TO.N,/GND*
G04 #@! TO.C,C5*
X180420000Y-98552000D03*
G04 #@! TO.N,/5+*
X185420000Y-98552000D03*
G04 #@! TD*
G04 #@! TO.N,/GND*
G04 #@! TO.C,C4*
X81360000Y-96012000D03*
G04 #@! TO.N,/5+*
X86360000Y-96012000D03*
G04 #@! TD*
G04 #@! TO.N,/GND*
G04 #@! TO.C,C3*
X91520000Y-65532000D03*
G04 #@! TO.N,/5+*
X96520000Y-65532000D03*
G04 #@! TD*
G04 #@! TO.N,/GND*
G04 #@! TO.C,C2*
X91520000Y-96012000D03*
G04 #@! TO.N,/5+*
X96520000Y-96012000D03*
G04 #@! TD*
G04 #@! TO.N,/GND*
G04 #@! TO.C,C1*
X71200000Y-80772000D03*
G04 #@! TO.N,/5+*
X76200000Y-80772000D03*
G04 #@! TD*
D15*
G04 #@! TO.N,/X1A*
G04 #@! TO.C,Y2*
X63500000Y-42418000D03*
G04 #@! TO.N,/X2A*
X63500000Y-47318000D03*
G04 #@! TD*
G04 #@! TO.N,/X1*
G04 #@! TO.C,Y1*
X91440000Y-42090000D03*
G04 #@! TO.N,/X2*
X91440000Y-46990000D03*
G04 #@! TD*
D11*
G04 #@! TO.N,/5+*
G04 #@! TO.C,U26*
X162560000Y-43180000D03*
G04 #@! TO.N,/GND*
X154940000Y-58420000D03*
G04 #@! TO.N,N/C*
X162560000Y-45720000D03*
G04 #@! TO.N,/CS_61_RD*
X154940000Y-55880000D03*
G04 #@! TO.N,N/C*
X162560000Y-48260000D03*
G04 #@! TO.N,/IORD*
X154940000Y-53340000D03*
G04 #@! TO.N,N/C*
X162560000Y-50800000D03*
G04 #@! TO.N,/61_CS*
X154940000Y-50800000D03*
G04 #@! TO.N,/80_CS*
X162560000Y-53340000D03*
G04 #@! TO.N,/CS_61_WR*
X154940000Y-48260000D03*
G04 #@! TO.N,/IOWR*
X162560000Y-55880000D03*
X154940000Y-45720000D03*
G04 #@! TO.N,/760_WR*
X162560000Y-58420000D03*
D13*
G04 #@! TO.N,/61_CS*
X154940000Y-43180000D03*
G04 #@! TD*
D11*
G04 #@! TO.N,/5+*
G04 #@! TO.C,U25*
X152400000Y-43180000D03*
G04 #@! TO.N,/GND*
X144780000Y-58420000D03*
G04 #@! TO.N,N/C*
X152400000Y-45720000D03*
G04 #@! TO.N,/SPK_PIN*
X144780000Y-55880000D03*
G04 #@! TO.N,N/C*
X152400000Y-48260000D03*
G04 #@! TO.N,/SPK_OUT*
X144780000Y-53340000D03*
G04 #@! TO.N,N/C*
X152400000Y-50800000D03*
G04 #@! TO.N,/SPK_EN*
X144780000Y-50800000D03*
G04 #@! TO.N,N/C*
X152400000Y-53340000D03*
G04 #@! TO.N,/CH_CK_*
X144780000Y-48260000D03*
G04 #@! TO.N,N/C*
X152400000Y-55880000D03*
G04 #@! TO.N,/CH_CK*
X144780000Y-45720000D03*
G04 #@! TO.N,N/C*
X152400000Y-58420000D03*
D13*
G04 #@! TO.N,/NMI_EN*
X144780000Y-43180000D03*
G04 #@! TD*
D11*
G04 #@! TO.N,/5+*
G04 #@! TO.C,U24*
X205740000Y-106680000D03*
G04 #@! TO.N,/GND*
X198120000Y-129540000D03*
G04 #@! TO.N,/PORT_61_7*
X205740000Y-109220000D03*
G04 #@! TO.N,/D0*
X198120000Y-127000000D03*
G04 #@! TO.N,/PORT_61_6*
X205740000Y-111760000D03*
G04 #@! TO.N,/D1*
X198120000Y-124460000D03*
G04 #@! TO.N,/NMI_EN*
X205740000Y-114300000D03*
G04 #@! TO.N,/D2*
X198120000Y-121920000D03*
G04 #@! TO.N,/PORT_61_4*
X205740000Y-116840000D03*
G04 #@! TO.N,/D3*
X198120000Y-119380000D03*
G04 #@! TO.N,/PORT_61_3*
X205740000Y-119380000D03*
G04 #@! TO.N,/D4*
X198120000Y-116840000D03*
G04 #@! TO.N,/PORT_61_2*
X205740000Y-121920000D03*
G04 #@! TO.N,/D5*
X198120000Y-114300000D03*
G04 #@! TO.N,/SPK_EN*
X205740000Y-124460000D03*
G04 #@! TO.N,/D6*
X198120000Y-111760000D03*
G04 #@! TO.N,/SPK_GO*
X205740000Y-127000000D03*
G04 #@! TO.N,/D7*
X198120000Y-109220000D03*
G04 #@! TO.N,/CS_61_WR_*
X205740000Y-129540000D03*
D13*
G04 #@! TO.N,/GND*
X198120000Y-106680000D03*
G04 #@! TD*
D11*
G04 #@! TO.N,/5+*
G04 #@! TO.C,U23*
X215900000Y-106680000D03*
G04 #@! TO.N,/GND*
X208280000Y-129540000D03*
G04 #@! TO.N,/CS_61_RD*
X215900000Y-109220000D03*
G04 #@! TO.N,/D0*
X208280000Y-127000000D03*
G04 #@! TO.N,/PORT_61_7*
X215900000Y-111760000D03*
G04 #@! TO.N,/D1*
X208280000Y-124460000D03*
G04 #@! TO.N,/PORT_61_6*
X215900000Y-114300000D03*
G04 #@! TO.N,/D2*
X208280000Y-121920000D03*
G04 #@! TO.N,/NMI_EN*
X215900000Y-116840000D03*
G04 #@! TO.N,/D3*
X208280000Y-119380000D03*
G04 #@! TO.N,/PORT_61_4*
X215900000Y-119380000D03*
G04 #@! TO.N,/D4*
X208280000Y-116840000D03*
G04 #@! TO.N,/PORT_61_3*
X215900000Y-121920000D03*
G04 #@! TO.N,/D5*
X208280000Y-114300000D03*
G04 #@! TO.N,/PORT_61_2*
X215900000Y-124460000D03*
G04 #@! TO.N,/D6*
X208280000Y-111760000D03*
G04 #@! TO.N,/SPK_EN*
X215900000Y-127000000D03*
G04 #@! TO.N,/D7*
X208280000Y-109220000D03*
G04 #@! TO.N,/SPK_GO*
X215900000Y-129540000D03*
D13*
G04 #@! TO.N,/GND*
X208280000Y-106680000D03*
G04 #@! TD*
D11*
G04 #@! TO.N,/5+*
G04 #@! TO.C,U22*
X76200000Y-43180000D03*
G04 #@! TO.N,/GND*
X68580000Y-63500000D03*
G04 #@! TO.N,/X1A*
X76200000Y-45720000D03*
G04 #@! TO.N,/CLK1*
X68580000Y-60960000D03*
G04 #@! TO.N,/X2A*
X76200000Y-48260000D03*
G04 #@! TO.N,/5+*
X68580000Y-58420000D03*
G04 #@! TO.N,/GND*
X76200000Y-50800000D03*
X68580000Y-55880000D03*
G04 #@! TO.N,Net-(U22-Pad14)*
X76200000Y-53340000D03*
G04 #@! TO.N,/READY1*
X68580000Y-53340000D03*
G04 #@! TO.N,/GND*
X76200000Y-55880000D03*
G04 #@! TO.N,/RDY1*
X68580000Y-50800000D03*
G04 #@! TO.N,Net-(U22-Pad12)*
X76200000Y-58420000D03*
G04 #@! TO.N,/GND*
X68580000Y-48260000D03*
G04 #@! TO.N,/RESET*
X76200000Y-60960000D03*
G04 #@! TO.N,Net-(U22-Pad2)*
X68580000Y-45720000D03*
G04 #@! TO.N,/RESET1*
X76200000Y-63500000D03*
D13*
G04 #@! TO.N,/GND*
X68580000Y-43180000D03*
G04 #@! TD*
D11*
G04 #@! TO.N,/5+*
G04 #@! TO.C,U21*
X172720000Y-43180000D03*
G04 #@! TO.N,/GND*
X165100000Y-58420000D03*
G04 #@! TO.N,/IOM*
X172720000Y-45720000D03*
G04 #@! TO.N,/TC*
X165100000Y-55880000D03*
G04 #@! TO.N,/IOM_*
X172720000Y-48260000D03*
G04 #@! TO.N,/EOP*
X165100000Y-53340000D03*
G04 #@! TO.N,/CH_CK_*
X172720000Y-50800000D03*
G04 #@! TO.N,/AEN_OE*
X165100000Y-50800000D03*
G04 #@! TO.N,/NMI*
X172720000Y-53340000D03*
G04 #@! TO.N,/AEN*
X165100000Y-48260000D03*
G04 #@! TO.N,/CS_61_WR*
X172720000Y-55880000D03*
G04 #@! TO.N,/KBD_CLK_INVERTED*
X165100000Y-45720000D03*
G04 #@! TO.N,/CS_61_WR_*
X172720000Y-58420000D03*
D13*
G04 #@! TO.N,/KBD_CLK*
X165100000Y-43180000D03*
G04 #@! TD*
D11*
G04 #@! TO.N,/5+*
G04 #@! TO.C,U20*
X226060000Y-106680000D03*
G04 #@! TO.N,/GND*
X218440000Y-121920000D03*
G04 #@! TO.N,N/C*
X226060000Y-109220000D03*
X218440000Y-119380000D03*
X226060000Y-111760000D03*
X218440000Y-116840000D03*
X226060000Y-114300000D03*
G04 #@! TO.N,/T1*
X218440000Y-114300000D03*
G04 #@! TO.N,N/C*
X226060000Y-116840000D03*
G04 #@! TO.N,/KBD_DATA*
X218440000Y-111760000D03*
G04 #@! TO.N,N/C*
X226060000Y-119380000D03*
G04 #@! TO.N,/T0*
X218440000Y-109220000D03*
G04 #@! TO.N,N/C*
X226060000Y-121920000D03*
D13*
G04 #@! TO.N,/KBD_CLK_INVERTED*
X218440000Y-106680000D03*
G04 #@! TD*
D16*
G04 #@! TO.N,/IRQ1*
G04 #@! TO.C,U19*
X195580000Y-48260000D03*
G04 #@! TO.N,Net-(U19-Pad37)*
X195580000Y-50800000D03*
G04 #@! TO.N,Net-(U19-Pad35)*
X195580000Y-53340000D03*
G04 #@! TO.N,Net-(U19-Pad33)*
X195580000Y-55880000D03*
G04 #@! TO.N,Net-(U19-Pad31)*
X195580000Y-58420000D03*
G04 #@! TO.N,Net-(U19-Pad40)*
X193040000Y-45720000D03*
G04 #@! TO.N,/5+*
X193040000Y-50800000D03*
G04 #@! TO.N,Net-(U19-Pad36)*
X193040000Y-53340000D03*
G04 #@! TO.N,Net-(U19-Pad34)*
X193040000Y-55880000D03*
G04 #@! TO.N,Net-(U19-Pad32)*
X193040000Y-58420000D03*
G04 #@! TO.N,Net-(U19-Pad30)*
X193040000Y-60960000D03*
G04 #@! TO.N,Net-(U19-Pad28)*
X193040000Y-63500000D03*
G04 #@! TO.N,Net-(U19-Pad26)*
X190500000Y-63500000D03*
G04 #@! TO.N,Net-(U19-Pad24)*
X187960000Y-63500000D03*
G04 #@! TO.N,/GND*
X185420000Y-63500000D03*
G04 #@! TO.N,/D6*
X182880000Y-63500000D03*
G04 #@! TO.N,/D4*
X180340000Y-63500000D03*
G04 #@! TO.N,Net-(U19-Pad29)*
X195580000Y-60960000D03*
G04 #@! TO.N,Net-(U19-Pad27)*
X190500000Y-60960000D03*
G04 #@! TO.N,Net-(U19-Pad25)*
X187960000Y-60960000D03*
G04 #@! TO.N,Net-(U19-Pad23)*
X185420000Y-60960000D03*
G04 #@! TO.N,/D7*
X182880000Y-60960000D03*
G04 #@! TO.N,/D5*
X180340000Y-60960000D03*
G04 #@! TO.N,/D3*
X177800000Y-60960000D03*
G04 #@! TO.N,/D1*
X177800000Y-58420000D03*
G04 #@! TO.N,Net-(U19-Pad13)*
X177800000Y-55880000D03*
G04 #@! TO.N,/IOWR*
X177800000Y-53340000D03*
G04 #@! TO.N,/IORD*
X177800000Y-50800000D03*
G04 #@! TO.N,/60_CS*
X177800000Y-48260000D03*
G04 #@! TO.N,/D2*
X180340000Y-58420000D03*
G04 #@! TO.N,/D0*
X180340000Y-55880000D03*
G04 #@! TO.N,Net-(U19-Pad12)*
X180340000Y-53340000D03*
G04 #@! TO.N,/A2*
X180340000Y-50800000D03*
G04 #@! TO.N,/GND*
X180340000Y-48260000D03*
G04 #@! TO.N,/KBD_DATA*
X190500000Y-45720000D03*
G04 #@! TO.N,/5+*
X187960000Y-45720000D03*
G04 #@! TO.N,Net-(U19-Pad6)*
X180340000Y-45720000D03*
G04 #@! TO.N,Net-(U19-Pad4)*
X182880000Y-45720000D03*
G04 #@! TO.N,/T0*
X185420000Y-45720000D03*
G04 #@! TO.N,/KBD_CLK*
X193040000Y-48260000D03*
G04 #@! TO.N,/T1*
X190500000Y-48260000D03*
G04 #@! TO.N,/RESET*
X182880000Y-48260000D03*
G04 #@! TO.N,/HF_OSC*
X185420000Y-48260000D03*
D17*
G04 #@! TO.N,Net-(U19-Pad1)*
X187960000Y-48260000D03*
G04 #@! TD*
D11*
G04 #@! TO.N,/5+*
G04 #@! TO.C,U18*
X104140000Y-43180000D03*
G04 #@! TO.N,/GND*
X96520000Y-58420000D03*
G04 #@! TO.N,/5+*
X104140000Y-45720000D03*
G04 #@! TO.N,/FB2*
X96520000Y-55880000D03*
G04 #@! TO.N,/FB1*
X104140000Y-48260000D03*
G04 #@! TO.N,/HF_PCLK*
X96520000Y-53340000D03*
G04 #@! TO.N,/OSC88HF*
X104140000Y-50800000D03*
G04 #@! TO.N,/5+*
X96520000Y-50800000D03*
X104140000Y-53340000D03*
G04 #@! TO.N,/PCLK88*
X96520000Y-48260000D03*
G04 #@! TO.N,/HF_OSC*
X104140000Y-55880000D03*
G04 #@! TO.N,/FB2*
X96520000Y-45720000D03*
G04 #@! TO.N,/FB1*
X104140000Y-58420000D03*
D13*
G04 #@! TO.N,/5+*
X96520000Y-43180000D03*
G04 #@! TD*
D11*
G04 #@! TO.N,/5+*
G04 #@! TO.C,U17*
X86360000Y-43180000D03*
G04 #@! TO.N,/GND*
X78740000Y-63500000D03*
G04 #@! TO.N,/X1*
X86360000Y-45720000D03*
G04 #@! TO.N,/CLK*
X78740000Y-60960000D03*
G04 #@! TO.N,/X2*
X86360000Y-48260000D03*
G04 #@! TO.N,/5+*
X78740000Y-58420000D03*
G04 #@! TO.N,/GND*
X86360000Y-50800000D03*
X78740000Y-55880000D03*
G04 #@! TO.N,Net-(U17-Pad14)*
X86360000Y-53340000D03*
G04 #@! TO.N,/READY*
X78740000Y-53340000D03*
G04 #@! TO.N,/GND*
X86360000Y-55880000D03*
G04 #@! TO.N,/RDY1*
X78740000Y-50800000D03*
G04 #@! TO.N,/OSC*
X86360000Y-58420000D03*
G04 #@! TO.N,/GND*
X78740000Y-48260000D03*
G04 #@! TO.N,/RESET*
X86360000Y-60960000D03*
G04 #@! TO.N,/PCLK*
X78740000Y-45720000D03*
G04 #@! TO.N,/RESOUT*
X86360000Y-63500000D03*
D13*
G04 #@! TO.N,/GND*
X78740000Y-43180000D03*
G04 #@! TD*
D11*
G04 #@! TO.N,/5+*
G04 #@! TO.C,U16*
X142240000Y-43180000D03*
G04 #@! TO.N,/GND*
X134620000Y-60960000D03*
G04 #@! TO.N,Net-(U16-Pad15)*
X142240000Y-45720000D03*
G04 #@! TO.N,/CS_ROM*
X134620000Y-58420000D03*
G04 #@! TO.N,Net-(U16-Pad14)*
X142240000Y-48260000D03*
G04 #@! TO.N,/5+*
X134620000Y-55880000D03*
G04 #@! TO.N,Net-(U16-Pad13)*
X142240000Y-50800000D03*
G04 #@! TO.N,/GND*
X134620000Y-53340000D03*
G04 #@! TO.N,Net-(U16-Pad12)*
X142240000Y-53340000D03*
G04 #@! TO.N,/UPPER_512K*
X134620000Y-50800000D03*
G04 #@! TO.N,Net-(U16-Pad11)*
X142240000Y-55880000D03*
G04 #@! TO.N,/A18*
X134620000Y-48260000D03*
G04 #@! TO.N,Net-(U16-Pad10)*
X142240000Y-58420000D03*
G04 #@! TO.N,/A17*
X134620000Y-45720000D03*
G04 #@! TO.N,Net-(U16-Pad9)*
X142240000Y-60960000D03*
D13*
G04 #@! TO.N,/A16*
X134620000Y-43180000D03*
G04 #@! TD*
D11*
G04 #@! TO.N,/5+*
G04 #@! TO.C,U15*
X149860000Y-96520000D03*
G04 #@! TO.N,/GND*
X134620000Y-129540000D03*
G04 #@! TO.N,/A14*
X149860000Y-99060000D03*
G04 #@! TO.N,/D2*
X134620000Y-127000000D03*
G04 #@! TO.N,/A13*
X149860000Y-101600000D03*
G04 #@! TO.N,/D1*
X134620000Y-124460000D03*
G04 #@! TO.N,/A8*
X149860000Y-104140000D03*
G04 #@! TO.N,/D0*
X134620000Y-121920000D03*
G04 #@! TO.N,/A9*
X149860000Y-106680000D03*
G04 #@! TO.N,/A0*
X134620000Y-119380000D03*
G04 #@! TO.N,/A11*
X149860000Y-109220000D03*
G04 #@! TO.N,/A1*
X134620000Y-116840000D03*
G04 #@! TO.N,/MRD*
X149860000Y-111760000D03*
G04 #@! TO.N,/A2*
X134620000Y-114300000D03*
G04 #@! TO.N,/A10*
X149860000Y-114300000D03*
G04 #@! TO.N,/A3*
X134620000Y-111760000D03*
G04 #@! TO.N,/CS_ROM*
X149860000Y-116840000D03*
G04 #@! TO.N,/A4*
X134620000Y-109220000D03*
G04 #@! TO.N,/D7*
X149860000Y-119380000D03*
G04 #@! TO.N,/A5*
X134620000Y-106680000D03*
G04 #@! TO.N,/D6*
X149860000Y-121920000D03*
G04 #@! TO.N,/A6*
X134620000Y-104140000D03*
G04 #@! TO.N,/D5*
X149860000Y-124460000D03*
G04 #@! TO.N,/A7*
X134620000Y-101600000D03*
G04 #@! TO.N,/D4*
X149860000Y-127000000D03*
G04 #@! TO.N,/A12*
X134620000Y-99060000D03*
G04 #@! TO.N,/D3*
X149860000Y-129540000D03*
D13*
G04 #@! TO.N,/A15*
X134620000Y-96520000D03*
G04 #@! TD*
D11*
G04 #@! TO.N,/5+*
G04 #@! TO.C,U14*
X132080000Y-91440000D03*
G04 #@! TO.N,/GND*
X116840000Y-129540000D03*
G04 #@! TO.N,/A15*
X132080000Y-93980000D03*
G04 #@! TO.N,/D2*
X116840000Y-127000000D03*
G04 #@! TO.N,/5+*
X132080000Y-96520000D03*
G04 #@! TO.N,/D1*
X116840000Y-124460000D03*
G04 #@! TO.N,/MWR*
X132080000Y-99060000D03*
G04 #@! TO.N,/D0*
X116840000Y-121920000D03*
G04 #@! TO.N,/A13*
X132080000Y-101600000D03*
G04 #@! TO.N,/A0*
X116840000Y-119380000D03*
G04 #@! TO.N,/A8*
X132080000Y-104140000D03*
G04 #@! TO.N,/A1*
X116840000Y-116840000D03*
G04 #@! TO.N,/A9*
X132080000Y-106680000D03*
G04 #@! TO.N,/A2*
X116840000Y-114300000D03*
G04 #@! TO.N,/A11*
X132080000Y-109220000D03*
G04 #@! TO.N,/A3*
X116840000Y-111760000D03*
G04 #@! TO.N,/MRD*
X132080000Y-111760000D03*
G04 #@! TO.N,/A4*
X116840000Y-109220000D03*
G04 #@! TO.N,/A10*
X132080000Y-114300000D03*
G04 #@! TO.N,/A5*
X116840000Y-106680000D03*
G04 #@! TO.N,/CS_128K*
X132080000Y-116840000D03*
G04 #@! TO.N,/A6*
X116840000Y-104140000D03*
G04 #@! TO.N,/D7*
X132080000Y-119380000D03*
G04 #@! TO.N,/A7*
X116840000Y-101600000D03*
G04 #@! TO.N,/D6*
X132080000Y-121920000D03*
G04 #@! TO.N,/A12*
X116840000Y-99060000D03*
G04 #@! TO.N,/D5*
X132080000Y-124460000D03*
G04 #@! TO.N,/A14*
X116840000Y-96520000D03*
G04 #@! TO.N,/D4*
X132080000Y-127000000D03*
G04 #@! TO.N,/A16*
X116840000Y-93980000D03*
G04 #@! TO.N,/D3*
X132080000Y-129540000D03*
D13*
G04 #@! TO.N,Net-(U14-Pad1)*
X116840000Y-91440000D03*
G04 #@! TD*
D11*
G04 #@! TO.N,/5+*
G04 #@! TO.C,U13*
X114300000Y-91440000D03*
G04 #@! TO.N,/GND*
X99060000Y-129540000D03*
G04 #@! TO.N,/A15*
X114300000Y-93980000D03*
G04 #@! TO.N,/D2*
X99060000Y-127000000D03*
G04 #@! TO.N,/A17*
X114300000Y-96520000D03*
G04 #@! TO.N,/D1*
X99060000Y-124460000D03*
G04 #@! TO.N,/MWR*
X114300000Y-99060000D03*
G04 #@! TO.N,/D0*
X99060000Y-121920000D03*
G04 #@! TO.N,/A13*
X114300000Y-101600000D03*
G04 #@! TO.N,/A0*
X99060000Y-119380000D03*
G04 #@! TO.N,/A8*
X114300000Y-104140000D03*
G04 #@! TO.N,/A1*
X99060000Y-116840000D03*
G04 #@! TO.N,/A9*
X114300000Y-106680000D03*
G04 #@! TO.N,/A2*
X99060000Y-114300000D03*
G04 #@! TO.N,/A11*
X114300000Y-109220000D03*
G04 #@! TO.N,/A3*
X99060000Y-111760000D03*
G04 #@! TO.N,/MRD*
X114300000Y-111760000D03*
G04 #@! TO.N,/A4*
X99060000Y-109220000D03*
G04 #@! TO.N,/A10*
X114300000Y-114300000D03*
G04 #@! TO.N,/A5*
X99060000Y-106680000D03*
G04 #@! TO.N,/CS_512K*
X114300000Y-116840000D03*
G04 #@! TO.N,/A6*
X99060000Y-104140000D03*
G04 #@! TO.N,/D7*
X114300000Y-119380000D03*
G04 #@! TO.N,/A7*
X99060000Y-101600000D03*
G04 #@! TO.N,/D6*
X114300000Y-121920000D03*
G04 #@! TO.N,/A12*
X99060000Y-99060000D03*
G04 #@! TO.N,/D5*
X114300000Y-124460000D03*
G04 #@! TO.N,/A14*
X99060000Y-96520000D03*
G04 #@! TO.N,/D4*
X114300000Y-127000000D03*
G04 #@! TO.N,/A16*
X99060000Y-93980000D03*
G04 #@! TO.N,/D3*
X114300000Y-129540000D03*
D13*
G04 #@! TO.N,/A18*
X99060000Y-91440000D03*
G04 #@! TD*
D11*
G04 #@! TO.N,/5+*
G04 #@! TO.C,U12*
X132080000Y-43180000D03*
G04 #@! TO.N,/GND*
X124460000Y-60960000D03*
G04 #@! TO.N,/UPPER_512K*
X132080000Y-45720000D03*
G04 #@! TO.N,Net-(U12-Pad7)*
X124460000Y-58420000D03*
G04 #@! TO.N,/A17*
X132080000Y-48260000D03*
G04 #@! TO.N,Net-(U12-Pad6)*
X124460000Y-55880000D03*
G04 #@! TO.N,/A18*
X132080000Y-50800000D03*
G04 #@! TO.N,/UPPER_512K*
X124460000Y-53340000D03*
G04 #@! TO.N,/CS_128K*
X132080000Y-53340000D03*
G04 #@! TO.N,/CS_512K*
X124460000Y-50800000D03*
G04 #@! TO.N,Net-(U12-Pad11)*
X132080000Y-55880000D03*
G04 #@! TO.N,/GND*
X124460000Y-48260000D03*
G04 #@! TO.N,Net-(U12-Pad10)*
X132080000Y-58420000D03*
G04 #@! TO.N,/A19*
X124460000Y-45720000D03*
G04 #@! TO.N,Net-(U12-Pad9)*
X132080000Y-60960000D03*
D13*
G04 #@! TO.N,/GND*
X124460000Y-43180000D03*
G04 #@! TD*
D11*
G04 #@! TO.N,/5+*
G04 #@! TO.C,U11*
X195580000Y-106680000D03*
G04 #@! TO.N,/GND*
X187960000Y-129540000D03*
G04 #@! TO.N,/A15*
X195580000Y-109220000D03*
G04 #@! TO.N,/D0*
X187960000Y-127000000D03*
G04 #@! TO.N,/A14*
X195580000Y-111760000D03*
G04 #@! TO.N,/D1*
X187960000Y-124460000D03*
G04 #@! TO.N,/A13*
X195580000Y-114300000D03*
G04 #@! TO.N,/D2*
X187960000Y-121920000D03*
G04 #@! TO.N,/A12*
X195580000Y-116840000D03*
G04 #@! TO.N,/D3*
X187960000Y-119380000D03*
G04 #@! TO.N,/A11*
X195580000Y-119380000D03*
G04 #@! TO.N,/D4*
X187960000Y-116840000D03*
G04 #@! TO.N,/A10*
X195580000Y-121920000D03*
G04 #@! TO.N,/D5*
X187960000Y-114300000D03*
G04 #@! TO.N,/A9*
X195580000Y-124460000D03*
G04 #@! TO.N,/D6*
X187960000Y-111760000D03*
G04 #@! TO.N,/A8*
X195580000Y-127000000D03*
G04 #@! TO.N,/D7*
X187960000Y-109220000D03*
G04 #@! TO.N,/ADSTB*
X195580000Y-129540000D03*
D13*
G04 #@! TO.N,/AEN_OE*
X187960000Y-106680000D03*
G04 #@! TD*
D11*
G04 #@! TO.N,/A7*
G04 #@! TO.C,U10*
X215900000Y-43180000D03*
G04 #@! TO.N,/GND*
X200660000Y-91440000D03*
G04 #@! TO.N,/A6*
X215900000Y-45720000D03*
G04 #@! TO.N,/DRQ0_*
X200660000Y-88900000D03*
G04 #@! TO.N,/A5*
X215900000Y-48260000D03*
G04 #@! TO.N,/DRQ1*
X200660000Y-86360000D03*
G04 #@! TO.N,/A4*
X215900000Y-50800000D03*
G04 #@! TO.N,/DRQ2*
X200660000Y-83820000D03*
G04 #@! TO.N,/EOP*
X215900000Y-53340000D03*
G04 #@! TO.N,/DRQ3*
X200660000Y-81280000D03*
G04 #@! TO.N,/A3*
X215900000Y-55880000D03*
G04 #@! TO.N,/DACK3*
X200660000Y-78740000D03*
G04 #@! TO.N,/A2*
X215900000Y-58420000D03*
G04 #@! TO.N,/DACK2*
X200660000Y-76200000D03*
G04 #@! TO.N,/A1*
X215900000Y-60960000D03*
G04 #@! TO.N,/RESOUT*
X200660000Y-73660000D03*
G04 #@! TO.N,/A0*
X215900000Y-63500000D03*
G04 #@! TO.N,/CLK88_1*
X200660000Y-71120000D03*
G04 #@! TO.N,/5+*
X215900000Y-66040000D03*
G04 #@! TO.N,/00_CS*
X200660000Y-68580000D03*
G04 #@! TO.N,/D0*
X215900000Y-68580000D03*
G04 #@! TO.N,/HOLD*
X200660000Y-66040000D03*
G04 #@! TO.N,/D1*
X215900000Y-71120000D03*
G04 #@! TO.N,/AEN*
X200660000Y-63500000D03*
G04 #@! TO.N,/D2*
X215900000Y-73660000D03*
G04 #@! TO.N,/ADSTB*
X200660000Y-60960000D03*
G04 #@! TO.N,/D3*
X215900000Y-76200000D03*
G04 #@! TO.N,/HOLDA*
X200660000Y-58420000D03*
G04 #@! TO.N,/D4*
X215900000Y-78740000D03*
G04 #@! TO.N,/READY*
X200660000Y-55880000D03*
G04 #@! TO.N,/REFRQ*
X215900000Y-81280000D03*
G04 #@! TO.N,/5+*
X200660000Y-53340000D03*
G04 #@! TO.N,/DACK1*
X215900000Y-83820000D03*
G04 #@! TO.N,/MWR*
X200660000Y-50800000D03*
G04 #@! TO.N,/D5*
X215900000Y-86360000D03*
G04 #@! TO.N,/MRD*
X200660000Y-48260000D03*
G04 #@! TO.N,/D6*
X215900000Y-88900000D03*
G04 #@! TO.N,/IOWR*
X200660000Y-45720000D03*
G04 #@! TO.N,/D7*
X215900000Y-91440000D03*
D13*
G04 #@! TO.N,/IORD*
X200660000Y-43180000D03*
G04 #@! TD*
D11*
G04 #@! TO.N,/5+*
G04 #@! TO.C,U9*
X121920000Y-43180000D03*
G04 #@! TO.N,/GND*
X106680000Y-76200000D03*
G04 #@! TO.N,/A14*
X121920000Y-45720000D03*
G04 #@! TO.N,/40_CS*
X106680000Y-73660000D03*
G04 #@! TO.N,/A13*
X121920000Y-48260000D03*
G04 #@! TO.N,/20_CS*
X106680000Y-71120000D03*
G04 #@! TO.N,/A8*
X121920000Y-50800000D03*
G04 #@! TO.N,/00_CS*
X106680000Y-68580000D03*
G04 #@! TO.N,/A9*
X121920000Y-53340000D03*
G04 #@! TO.N,/A0*
X106680000Y-66040000D03*
G04 #@! TO.N,/A11*
X121920000Y-55880000D03*
G04 #@! TO.N,/A1*
X106680000Y-63500000D03*
G04 #@! TO.N,/IOM_*
X121920000Y-58420000D03*
G04 #@! TO.N,/A2*
X106680000Y-60960000D03*
G04 #@! TO.N,/A10*
X121920000Y-60960000D03*
G04 #@! TO.N,/A3*
X106680000Y-58420000D03*
G04 #@! TO.N,/HOLDA*
X121920000Y-63500000D03*
G04 #@! TO.N,/A4*
X106680000Y-55880000D03*
G04 #@! TO.N,/E0_CS*
X121920000Y-66040000D03*
G04 #@! TO.N,/A5*
X106680000Y-53340000D03*
G04 #@! TO.N,Net-(U9-Pad18)*
X121920000Y-68580000D03*
G04 #@! TO.N,/A6*
X106680000Y-50800000D03*
G04 #@! TO.N,/80_CS*
X121920000Y-71120000D03*
G04 #@! TO.N,/A7*
X106680000Y-48260000D03*
G04 #@! TO.N,/61_CS*
X121920000Y-73660000D03*
G04 #@! TO.N,/A12*
X106680000Y-45720000D03*
G04 #@! TO.N,/60_CS*
X121920000Y-76200000D03*
D13*
G04 #@! TO.N,/A15*
X106680000Y-43180000D03*
G04 #@! TD*
D11*
G04 #@! TO.N,/5+*
G04 #@! TO.C,U8*
X86360000Y-71120000D03*
G04 #@! TO.N,/GND*
X78740000Y-88900000D03*
G04 #@! TO.N,/HOLDA*
X86360000Y-73660000D03*
G04 #@! TO.N,/IORD*
X78740000Y-86360000D03*
G04 #@! TO.N,/PU1*
X86360000Y-76200000D03*
G04 #@! TO.N,/RD*
X78740000Y-83820000D03*
G04 #@! TO.N,/WR*
X86360000Y-78740000D03*
G04 #@! TO.N,/PU1*
X78740000Y-81280000D03*
G04 #@! TO.N,/IOWR*
X86360000Y-81280000D03*
G04 #@! TO.N,/MRD*
X78740000Y-78740000D03*
G04 #@! TO.N,/WR*
X86360000Y-83820000D03*
G04 #@! TO.N,/PU1*
X78740000Y-76200000D03*
X86360000Y-86360000D03*
G04 #@! TO.N,/RD*
X78740000Y-73660000D03*
G04 #@! TO.N,/MWR*
X86360000Y-88900000D03*
D13*
G04 #@! TO.N,/IOM*
X78740000Y-71120000D03*
G04 #@! TD*
D11*
G04 #@! TO.N,/5+*
G04 #@! TO.C,U7*
X226060000Y-43180000D03*
G04 #@! TO.N,/GND*
X218440000Y-60960000D03*
G04 #@! TO.N,/D0*
X226060000Y-45720000D03*
G04 #@! TO.N,/A18*
X218440000Y-58420000D03*
G04 #@! TO.N,/A0*
X226060000Y-48260000D03*
G04 #@! TO.N,/A19*
X218440000Y-55880000D03*
G04 #@! TO.N,/A1*
X226060000Y-50800000D03*
G04 #@! TO.N,/DACK3*
X218440000Y-53340000D03*
G04 #@! TO.N,/760_WR*
X226060000Y-53340000D03*
G04 #@! TO.N,/DACK2*
X218440000Y-50800000D03*
G04 #@! TO.N,/AEN_OE*
X226060000Y-55880000D03*
G04 #@! TO.N,/D3*
X218440000Y-48260000D03*
G04 #@! TO.N,/A16*
X226060000Y-58420000D03*
G04 #@! TO.N,/D2*
X218440000Y-45720000D03*
G04 #@! TO.N,/A17*
X226060000Y-60960000D03*
D13*
G04 #@! TO.N,/D1*
X218440000Y-43180000D03*
G04 #@! TD*
D11*
G04 #@! TO.N,/5+*
G04 #@! TO.C,U6*
X167640000Y-96520000D03*
G04 #@! TO.N,/GND*
X152400000Y-129540000D03*
G04 #@! TO.N,/A0*
X167640000Y-99060000D03*
G04 #@! TO.N,Net-(U6-Pad13)*
X152400000Y-127000000D03*
G04 #@! TO.N,/INTA*
X167640000Y-101600000D03*
G04 #@! TO.N,Net-(U6-Pad12)*
X152400000Y-124460000D03*
G04 #@! TO.N,/IRQ7*
X167640000Y-104140000D03*
G04 #@! TO.N,/D0*
X152400000Y-121920000D03*
G04 #@! TO.N,/IRQ6*
X167640000Y-106680000D03*
G04 #@! TO.N,/D1*
X152400000Y-119380000D03*
G04 #@! TO.N,/IRQ5*
X167640000Y-109220000D03*
G04 #@! TO.N,/D2*
X152400000Y-116840000D03*
G04 #@! TO.N,/IRQ4*
X167640000Y-111760000D03*
G04 #@! TO.N,/D3*
X152400000Y-114300000D03*
G04 #@! TO.N,/IRQ3*
X167640000Y-114300000D03*
G04 #@! TO.N,/D4*
X152400000Y-111760000D03*
G04 #@! TO.N,/IRQ2*
X167640000Y-116840000D03*
G04 #@! TO.N,/D5*
X152400000Y-109220000D03*
G04 #@! TO.N,/IRQ1*
X167640000Y-119380000D03*
G04 #@! TO.N,/D6*
X152400000Y-106680000D03*
G04 #@! TO.N,/IRQ0*
X167640000Y-121920000D03*
G04 #@! TO.N,/D7*
X152400000Y-104140000D03*
G04 #@! TO.N,/INTR*
X167640000Y-124460000D03*
G04 #@! TO.N,/IORD*
X152400000Y-101600000D03*
G04 #@! TO.N,/5+*
X167640000Y-127000000D03*
G04 #@! TO.N,/IOWR*
X152400000Y-99060000D03*
G04 #@! TO.N,Net-(U6-Pad15)*
X167640000Y-129540000D03*
D13*
G04 #@! TO.N,/20_CS*
X152400000Y-96520000D03*
G04 #@! TD*
D11*
G04 #@! TO.N,/5+*
G04 #@! TO.C,U5*
X185420000Y-101600000D03*
G04 #@! TO.N,/GND*
X170180000Y-129540000D03*
G04 #@! TO.N,/IOWR*
X185420000Y-104140000D03*
G04 #@! TO.N,/5+*
X170180000Y-127000000D03*
G04 #@! TO.N,/IORD*
X185420000Y-106680000D03*
G04 #@! TO.N,/IRQ0*
X170180000Y-124460000D03*
G04 #@! TO.N,/40_CS*
X185420000Y-109220000D03*
G04 #@! TO.N,/HF_PCLK*
X170180000Y-121920000D03*
G04 #@! TO.N,/A1*
X185420000Y-111760000D03*
G04 #@! TO.N,/D0*
X170180000Y-119380000D03*
G04 #@! TO.N,/A0*
X185420000Y-114300000D03*
G04 #@! TO.N,/D1*
X170180000Y-116840000D03*
G04 #@! TO.N,/HF_PCLK*
X185420000Y-116840000D03*
G04 #@! TO.N,/D2*
X170180000Y-114300000D03*
G04 #@! TO.N,/SPK_OUT*
X185420000Y-119380000D03*
G04 #@! TO.N,/D3*
X170180000Y-111760000D03*
G04 #@! TO.N,/SPK_GO*
X185420000Y-121920000D03*
G04 #@! TO.N,/D4*
X170180000Y-109220000D03*
G04 #@! TO.N,/HF_PCLK*
X185420000Y-124460000D03*
G04 #@! TO.N,/D5*
X170180000Y-106680000D03*
G04 #@! TO.N,/5+*
X185420000Y-127000000D03*
G04 #@! TO.N,/D6*
X170180000Y-104140000D03*
G04 #@! TO.N,/DRQ0*
X185420000Y-129540000D03*
D13*
G04 #@! TO.N,/D7*
X170180000Y-101600000D03*
G04 #@! TD*
D11*
G04 #@! TO.N,/5+*
G04 #@! TO.C,U4*
X86360000Y-99060000D03*
G04 #@! TO.N,/GND*
X78740000Y-121920000D03*
G04 #@! TO.N,/DEN*
X86360000Y-101600000D03*
G04 #@! TO.N,/AD0*
X78740000Y-119380000D03*
G04 #@! TO.N,/D7*
X86360000Y-104140000D03*
G04 #@! TO.N,/AD1*
X78740000Y-116840000D03*
G04 #@! TO.N,/D6*
X86360000Y-106680000D03*
G04 #@! TO.N,/AD2*
X78740000Y-114300000D03*
G04 #@! TO.N,/D5*
X86360000Y-109220000D03*
G04 #@! TO.N,/AD3*
X78740000Y-111760000D03*
G04 #@! TO.N,/D4*
X86360000Y-111760000D03*
G04 #@! TO.N,/AD4*
X78740000Y-109220000D03*
G04 #@! TO.N,/D3*
X86360000Y-114300000D03*
G04 #@! TO.N,/AD5*
X78740000Y-106680000D03*
G04 #@! TO.N,/D2*
X86360000Y-116840000D03*
G04 #@! TO.N,/AD6*
X78740000Y-104140000D03*
G04 #@! TO.N,/D1*
X86360000Y-119380000D03*
G04 #@! TO.N,/AD7*
X78740000Y-101600000D03*
G04 #@! TO.N,/D0*
X86360000Y-121920000D03*
D13*
G04 #@! TO.N,/DTR*
X78740000Y-99060000D03*
G04 #@! TD*
D11*
G04 #@! TO.N,/5+*
G04 #@! TO.C,U3*
X96520000Y-68580000D03*
G04 #@! TO.N,/GND*
X88900000Y-91440000D03*
G04 #@! TO.N,Net-(U3-Pad19)*
X96520000Y-71120000D03*
G04 #@! TO.N,/A19_*
X88900000Y-88900000D03*
G04 #@! TO.N,Net-(U3-Pad18)*
X96520000Y-73660000D03*
G04 #@! TO.N,/A18_*
X88900000Y-86360000D03*
G04 #@! TO.N,Net-(U3-Pad17)*
X96520000Y-76200000D03*
G04 #@! TO.N,/A17_*
X88900000Y-83820000D03*
G04 #@! TO.N,Net-(U3-Pad16)*
X96520000Y-78740000D03*
G04 #@! TO.N,/A16_*
X88900000Y-81280000D03*
G04 #@! TO.N,/A16*
X96520000Y-81280000D03*
G04 #@! TO.N,Net-(U3-Pad5)*
X88900000Y-78740000D03*
G04 #@! TO.N,/A17*
X96520000Y-83820000D03*
G04 #@! TO.N,Net-(U3-Pad4)*
X88900000Y-76200000D03*
G04 #@! TO.N,/A18*
X96520000Y-86360000D03*
G04 #@! TO.N,Net-(U3-Pad3)*
X88900000Y-73660000D03*
G04 #@! TO.N,/A19*
X96520000Y-88900000D03*
G04 #@! TO.N,Net-(U3-Pad2)*
X88900000Y-71120000D03*
G04 #@! TO.N,/ALE*
X96520000Y-91440000D03*
D13*
G04 #@! TO.N,/HOLDA*
X88900000Y-68580000D03*
G04 #@! TD*
D11*
G04 #@! TO.N,/5+*
G04 #@! TO.C,U2*
X96520000Y-99060000D03*
G04 #@! TO.N,/GND*
X88900000Y-121920000D03*
G04 #@! TO.N,/A7*
X96520000Y-101600000D03*
G04 #@! TO.N,/AD0*
X88900000Y-119380000D03*
G04 #@! TO.N,/A6*
X96520000Y-104140000D03*
G04 #@! TO.N,/AD1*
X88900000Y-116840000D03*
G04 #@! TO.N,/A5*
X96520000Y-106680000D03*
G04 #@! TO.N,/AD2*
X88900000Y-114300000D03*
G04 #@! TO.N,/A4*
X96520000Y-109220000D03*
G04 #@! TO.N,/AD3*
X88900000Y-111760000D03*
G04 #@! TO.N,/A3*
X96520000Y-111760000D03*
G04 #@! TO.N,/AD4*
X88900000Y-109220000D03*
G04 #@! TO.N,/A2*
X96520000Y-114300000D03*
G04 #@! TO.N,/AD5*
X88900000Y-106680000D03*
G04 #@! TO.N,/A1*
X96520000Y-116840000D03*
G04 #@! TO.N,/AD6*
X88900000Y-104140000D03*
G04 #@! TO.N,/A0*
X96520000Y-119380000D03*
G04 #@! TO.N,/AD7*
X88900000Y-101600000D03*
G04 #@! TO.N,/ALE*
X96520000Y-121920000D03*
D13*
G04 #@! TO.N,/HOLDA*
X88900000Y-99060000D03*
G04 #@! TD*
D11*
G04 #@! TO.N,/5+*
G04 #@! TO.C,U1*
X76200000Y-83820000D03*
G04 #@! TO.N,/GND*
X60960000Y-132080000D03*
G04 #@! TO.N,/A15*
X76200000Y-86360000D03*
G04 #@! TO.N,/CLK_88*
X60960000Y-129540000D03*
G04 #@! TO.N,/A16_*
X76200000Y-88900000D03*
G04 #@! TO.N,/INTR*
X60960000Y-127000000D03*
G04 #@! TO.N,/A17_*
X76200000Y-91440000D03*
G04 #@! TO.N,/NMI*
X60960000Y-124460000D03*
G04 #@! TO.N,/A18_*
X76200000Y-93980000D03*
G04 #@! TO.N,/AD0*
X60960000Y-121920000D03*
G04 #@! TO.N,/A19_*
X76200000Y-96520000D03*
G04 #@! TO.N,/AD1*
X60960000Y-119380000D03*
G04 #@! TO.N,Net-(U1-Pad34)*
X76200000Y-99060000D03*
G04 #@! TO.N,/AD2*
X60960000Y-116840000D03*
G04 #@! TO.N,/5+*
X76200000Y-101600000D03*
G04 #@! TO.N,/AD3*
X60960000Y-114300000D03*
G04 #@! TO.N,/RD*
X76200000Y-104140000D03*
G04 #@! TO.N,/AD4*
X60960000Y-111760000D03*
G04 #@! TO.N,/HOLD*
X76200000Y-106680000D03*
G04 #@! TO.N,/AD5*
X60960000Y-109220000D03*
G04 #@! TO.N,/HOLDA*
X76200000Y-109220000D03*
G04 #@! TO.N,/AD6*
X60960000Y-106680000D03*
G04 #@! TO.N,/WR*
X76200000Y-111760000D03*
G04 #@! TO.N,/AD7*
X60960000Y-104140000D03*
G04 #@! TO.N,/IOM*
X76200000Y-114300000D03*
G04 #@! TO.N,/A8*
X60960000Y-101600000D03*
G04 #@! TO.N,/DTR*
X76200000Y-116840000D03*
G04 #@! TO.N,/A9*
X60960000Y-99060000D03*
G04 #@! TO.N,/DEN*
X76200000Y-119380000D03*
G04 #@! TO.N,/A10*
X60960000Y-96520000D03*
G04 #@! TO.N,/ALE*
X76200000Y-121920000D03*
G04 #@! TO.N,/A11*
X60960000Y-93980000D03*
G04 #@! TO.N,/INTA*
X76200000Y-124460000D03*
G04 #@! TO.N,/A12*
X60960000Y-91440000D03*
G04 #@! TO.N,/GND*
X76200000Y-127000000D03*
G04 #@! TO.N,/A13*
X60960000Y-88900000D03*
G04 #@! TO.N,/READY1*
X76200000Y-129540000D03*
G04 #@! TO.N,/A14*
X60960000Y-86360000D03*
G04 #@! TO.N,/RESET1*
X76200000Y-132080000D03*
D13*
G04 #@! TO.N,/GND*
X60960000Y-83820000D03*
G04 #@! TD*
D18*
G04 #@! TO.N,/GND*
G04 #@! TO.C,SW1*
X64952000Y-65786000D03*
G04 #@! TO.N,/RESET*
X60452000Y-65786000D03*
G04 #@! TO.N,/GND*
X64952000Y-59286000D03*
G04 #@! TO.N,/RESET*
X60452000Y-59286000D03*
G04 #@! TD*
D19*
G04 #@! TO.N,/GND*
G04 #@! TO.C,C123*
X61976000Y-53848000D03*
D20*
G04 #@! TO.N,/RESET*
X60476000Y-53848000D03*
G04 #@! TD*
D21*
G04 #@! TO.N,/GND*
G04 #@! TO.C,R*
X230886000Y-76200000D03*
G04 #@! TD*
D22*
G04 #@! TO.N,/GND*
G04 #@! TO.C,J2*
X230632000Y-82143600D03*
G04 #@! TO.N,*
X230632000Y-95656400D03*
D23*
X231444800Y-88900000D03*
D24*
G04 #@! TO.N,Net-(J2-Pad6)*
X225145600Y-92303600D03*
G04 #@! TO.N,/T0*
X225145600Y-85496400D03*
G04 #@! TO.N,Net-(J2-Pad2)*
X227634800Y-90195400D03*
G04 #@! TO.N,/T1*
X227634800Y-87604600D03*
G04 #@! TO.N,/5+*
X227634800Y-92303600D03*
G04 #@! TO.N,/GND*
X227634800Y-85496400D03*
G04 #@! TD*
D21*
G04 #@! TO.N,/GND*
G04 #@! TO.C,R*
X230886000Y-133350000D03*
G04 #@! TD*
D25*
G04 #@! TO.N,/A15*
X107188000Y-87630000D03*
X107188000Y-93472000D03*
X108204000Y-43688000D03*
X171958000Y-136144000D03*
X172720000Y-108712000D03*
X172720000Y-98552000D03*
G04 #@! TO.N,/CLK88*
X163322000Y-134620000D03*
G04 #@! TO.N,/A16_*
X90678000Y-86868000D03*
X90678000Y-80772000D03*
G04 #@! TO.N,/INTR*
X162306000Y-124968000D03*
X162306000Y-128270000D03*
G04 #@! TO.N,/A17_*
X91440000Y-89408000D03*
X91440000Y-83312000D03*
G04 #@! TO.N,/A18_*
X92202000Y-91694000D03*
X92202000Y-85852000D03*
G04 #@! TO.N,/A19_*
X87376000Y-94488000D03*
G04 #@! TO.N,/RD*
X74422000Y-85090000D03*
X74422000Y-104648000D03*
X80518000Y-84328000D03*
X80518000Y-74168000D03*
G04 #@! TO.N,/HOLD*
X72136000Y-107188000D03*
X125476000Y-65532000D03*
X72136000Y-65532006D03*
X72136000Y-125730000D03*
G04 #@! TO.N,/HOLDA*
X94234000Y-109728000D03*
X94234000Y-69088000D03*
X94234000Y-99568000D03*
X117348000Y-62992000D03*
X94234000Y-74930000D03*
X117348000Y-70612000D03*
X117348000Y-67310000D03*
X187960000Y-67818000D03*
X202438000Y-66548000D03*
X202438000Y-58928000D03*
G04 #@! TO.N,/WR*
X73660000Y-82550000D03*
X73660000Y-112268000D03*
X84582000Y-78232000D03*
X84582000Y-83312000D03*
G04 #@! TO.N,/IOM*
X72898000Y-71628000D03*
X72898000Y-114808000D03*
X112776000Y-73152000D03*
X112776000Y-69850000D03*
X138938000Y-45212000D03*
X138938000Y-69850000D03*
G04 #@! TO.N,/A8*
X154178000Y-136144000D03*
X119634000Y-50292000D03*
X154940000Y-104648000D03*
X120142000Y-103632000D03*
X154940000Y-126746000D03*
G04 #@! TO.N,/DTR*
X80518000Y-115570000D03*
X80518000Y-99314000D03*
G04 #@! TO.N,/A9*
X62992000Y-99568000D03*
X156718000Y-136144000D03*
X62992000Y-104648000D03*
X120396000Y-52832000D03*
X156464000Y-107188000D03*
X120904000Y-106172000D03*
X156718000Y-123952000D03*
G04 #@! TO.N,/DEN*
X84074000Y-118110000D03*
X84074000Y-101092000D03*
G04 #@! TO.N,/A10*
X63754000Y-97028000D03*
X63754000Y-113030000D03*
X159258000Y-136144000D03*
X112014000Y-60452000D03*
X159258000Y-114808000D03*
X159258000Y-120650000D03*
X111760000Y-113792000D03*
G04 #@! TO.N,/ALE*
X94996000Y-123190000D03*
X94996000Y-91948000D03*
X142240000Y-123190000D03*
G04 #@! TO.N,/A11*
X64516000Y-107950000D03*
X64516000Y-94488000D03*
X161798000Y-136144000D03*
X111252000Y-55372000D03*
X111760000Y-108712000D03*
X161798000Y-110236000D03*
X161798000Y-118110000D03*
G04 #@! TO.N,/INTA*
X163068000Y-125730000D03*
X163068000Y-101346000D03*
G04 #@! TO.N,/A12*
X110490000Y-46228000D03*
X110998000Y-99568000D03*
X110998000Y-92710000D03*
X164338000Y-136144000D03*
X164338000Y-99568000D03*
X164338000Y-115570000D03*
G04 #@! TO.N,/A13*
X166878000Y-136144000D03*
X65278000Y-99568000D03*
X65278000Y-89408000D03*
X109728000Y-47752000D03*
X110236000Y-101092000D03*
X165862000Y-102108000D03*
X165862000Y-112268000D03*
G04 #@! TO.N,/A14*
X62992000Y-95250000D03*
X62992000Y-86868000D03*
X108966000Y-45212000D03*
X171958000Y-100330000D03*
X171958000Y-111252000D03*
X169418000Y-136144000D03*
X107442000Y-97028000D03*
G04 #@! TO.N,/RESET*
X175006000Y-62230000D03*
X175006000Y-49530000D03*
X60452000Y-62230000D03*
X62484000Y-62230000D03*
G04 #@! TO.N,/A0*
X135382000Y-136144000D03*
X136144000Y-119888000D03*
X100838000Y-119888000D03*
X100838000Y-66548000D03*
X213614000Y-62992000D03*
X178054000Y-109474000D03*
X178054000Y-99568000D03*
X213614002Y-91948000D03*
X136144000Y-91948000D03*
X178054000Y-91948000D03*
X213614000Y-46990000D03*
G04 #@! TO.N,/A1*
X136398000Y-136144000D03*
X101600000Y-117348000D03*
X136906000Y-117348000D03*
X101600000Y-64008000D03*
X212852002Y-89408000D03*
X212852000Y-60452000D03*
X178816000Y-107696000D03*
X136906000Y-88646000D03*
X178816000Y-88646000D03*
X212852000Y-49530000D03*
G04 #@! TO.N,/A2*
X138938000Y-136144000D03*
X102362000Y-114808000D03*
X138938000Y-114808000D03*
X102362000Y-61468000D03*
X212090002Y-87122000D03*
X212090000Y-58166000D03*
X138938000Y-86868000D03*
X212090000Y-51308000D03*
X227838000Y-57912000D03*
X227838000Y-60452000D03*
G04 #@! TO.N,/A3*
X141478000Y-136144000D03*
X141478000Y-112268000D03*
X103124000Y-59944000D03*
X103124000Y-112268000D03*
X211328002Y-84328000D03*
X211328000Y-55372000D03*
X141478000Y-84328000D03*
G04 #@! TO.N,/A4*
X144018000Y-136144000D03*
X144018000Y-109728000D03*
X103886000Y-109728000D03*
X103886000Y-62992000D03*
X112776000Y-56388000D03*
X112776000Y-62992000D03*
X209804000Y-50292000D03*
X209804000Y-81788000D03*
X144018000Y-81534000D03*
G04 #@! TO.N,/A5*
X146558000Y-136144000D03*
X146558000Y-107188000D03*
X104648000Y-107188000D03*
X104648000Y-65532000D03*
X113538000Y-53848000D03*
X113538000Y-65532000D03*
X209042000Y-47752000D03*
X208534000Y-79248000D03*
X147320000Y-79756000D03*
G04 #@! TO.N,/A6*
X149098000Y-136144000D03*
X148082000Y-104648000D03*
X119380000Y-104648000D03*
X118872006Y-51308000D03*
X208280000Y-45212000D03*
X207772000Y-77470000D03*
X148844000Y-77470000D03*
G04 #@! TO.N,/A7*
X154178000Y-102108000D03*
X118618000Y-102108000D03*
X118109988Y-48768000D03*
X151638000Y-136144000D03*
X207518000Y-42672000D03*
X207010000Y-74930000D03*
X154178000Y-74168000D03*
G04 #@! TO.N,/A16*
X130302000Y-43688000D03*
X130302000Y-94488000D03*
X106426000Y-94488000D03*
X106426000Y-80772000D03*
X174498000Y-136144000D03*
X130302000Y-86614000D03*
X174498000Y-87630000D03*
X174498000Y-96266000D03*
X211328000Y-59944000D03*
X211328000Y-96266000D03*
G04 #@! TO.N,/A17*
X129540000Y-47752000D03*
X105664000Y-96012000D03*
X105664000Y-83312000D03*
X129540000Y-95250000D03*
X177038000Y-136144000D03*
X129540000Y-85090000D03*
X177038000Y-85090000D03*
X177038000Y-95504000D03*
X212344000Y-61722000D03*
X212598000Y-95504000D03*
G04 #@! TO.N,/A18*
X128778000Y-50292000D03*
X128778000Y-92710000D03*
X99568000Y-85852000D03*
X179578000Y-136144000D03*
X179578000Y-91440000D03*
X179578000Y-94742000D03*
X210566000Y-58166000D03*
X210820000Y-94742000D03*
G04 #@! TO.N,/A19*
X125730000Y-89916000D03*
X126238000Y-46228000D03*
X182118000Y-136144000D03*
X181356000Y-91186000D03*
X181610000Y-93980000D03*
X210058000Y-93980000D03*
X210566000Y-56388000D03*
G04 #@! TO.N,/D0*
X189738000Y-136144000D03*
X189738000Y-127508000D03*
X189230000Y-56134000D03*
X224536000Y-45212000D03*
X189230000Y-67818000D03*
X223774000Y-68072000D03*
X224536000Y-52070000D03*
G04 #@! TO.N,/D1*
X192278000Y-136144000D03*
X192278000Y-124968000D03*
X102616000Y-124968000D03*
X102616000Y-118110000D03*
X125222000Y-124968000D03*
X125222000Y-120650000D03*
X192278000Y-70612000D03*
X190500000Y-57150000D03*
X223774000Y-43688000D03*
X223012000Y-69596000D03*
X223774000Y-54610000D03*
G04 #@! TO.N,/D2*
X194818000Y-136144000D03*
X193548000Y-122428000D03*
X103378000Y-127508000D03*
X103378000Y-115570000D03*
X125984000Y-118110000D03*
X125984000Y-127508000D03*
X193548000Y-73152000D03*
X191262000Y-58674000D03*
X223012000Y-46228000D03*
X222758000Y-73151994D03*
X223012000Y-57150000D03*
G04 #@! TO.N,/D3*
X197358000Y-136144000D03*
X199644000Y-119888000D03*
X104140000Y-113030000D03*
X104140000Y-129031994D03*
X126746000Y-115570000D03*
X126746000Y-129032000D03*
X198374000Y-59690000D03*
X222250000Y-48768000D03*
X198120000Y-75692000D03*
X221996000Y-75692000D03*
X221996016Y-59689984D03*
G04 #@! TO.N,/D4*
X199898000Y-136144000D03*
X200406000Y-117348000D03*
X104902000Y-110490000D03*
X104865010Y-126492000D03*
X127508000Y-113030000D03*
X127508000Y-126492000D03*
X198882000Y-68326000D03*
X180340000Y-68326000D03*
X198882000Y-78232000D03*
X198882000Y-70612000D03*
X225044000Y-62738000D03*
X224790000Y-70358000D03*
G04 #@! TO.N,/D5*
X202438000Y-136144000D03*
X202438000Y-114808000D03*
X105664000Y-107950000D03*
X105627010Y-123952000D03*
X128270000Y-110490000D03*
X128270000Y-123952000D03*
X202438000Y-85852000D03*
X181610000Y-85090000D03*
X202438000Y-71628000D03*
X225552000Y-72390000D03*
X225552000Y-64770000D03*
G04 #@! TO.N,/D6*
X204978000Y-136144000D03*
X203708000Y-112268000D03*
X106426000Y-105410000D03*
X106389010Y-121412000D03*
X129032000Y-107950000D03*
X129032000Y-121412000D03*
X203708000Y-88392000D03*
X182880000Y-87630000D03*
X203200000Y-75692000D03*
X226314000Y-67310000D03*
X226314000Y-76454000D03*
G04 #@! TO.N,/D7*
X207518000Y-136144000D03*
X209804000Y-109728000D03*
X107188000Y-118872000D03*
X107188000Y-102870000D03*
X129794000Y-105410000D03*
X129794000Y-118872000D03*
X209804000Y-90932000D03*
X184150000Y-90170000D03*
X205994000Y-90932000D03*
X205994000Y-78232000D03*
X227076000Y-69850000D03*
X227076000Y-78232000D03*
G04 #@! TO.N,/MWR*
X108458000Y-90678000D03*
X183896000Y-97028000D03*
X204470000Y-97028000D03*
X203962000Y-51308000D03*
X84582000Y-88392000D03*
X84582000Y-75692000D03*
X108204000Y-98552000D03*
G04 #@! TO.N,/MRD*
X182372000Y-110490000D03*
X112776000Y-80010000D03*
X112522000Y-111252000D03*
X182372000Y-100330000D03*
X205232000Y-99822000D03*
X204724000Y-48768000D03*
X66040000Y-79248000D03*
G04 #@! TO.N,/IORD*
X178308000Y-136144000D03*
X154940000Y-85852000D03*
X154940000Y-101092000D03*
X155702000Y-105410000D03*
X179578000Y-105918000D03*
X202438000Y-43688000D03*
X202438000Y-52832000D03*
X156972000Y-85852000D03*
X157480000Y-52832000D03*
X80518000Y-85852000D03*
X81280000Y-72390000D03*
X68580000Y-72390000D03*
X202438000Y-50292000D03*
X228600000Y-49530000D03*
X228600000Y-65532000D03*
G04 #@! TO.N,/PU1*
X81280000Y-81788000D03*
X81280000Y-86868000D03*
X81280000Y-76708000D03*
X76962000Y-75692000D03*
X76962000Y-73152000D03*
X66040000Y-73152000D03*
G04 #@! TO.N,/IOWR*
X180340000Y-103632000D03*
X156210000Y-98552000D03*
X156210000Y-102870000D03*
X156718000Y-55372000D03*
X156718000Y-46228000D03*
X156210000Y-82550000D03*
X203200000Y-54610000D03*
X203200000Y-46228000D03*
X68326000Y-78486000D03*
X203200000Y-47752000D03*
X229362000Y-46990000D03*
X229362000Y-68072000D03*
G04 #@! TO.N,/GND*
X208280000Y-104140000D03*
X198120000Y-104140000D03*
X210820000Y-130048000D03*
X70866000Y-132588000D03*
X98552000Y-132588000D03*
X70866000Y-127508000D03*
X109220000Y-130048000D03*
X124460000Y-40640000D03*
X88900000Y-96520000D03*
X127254000Y-61468000D03*
X137160000Y-60452000D03*
X137160000Y-53848000D03*
X127254000Y-48768000D03*
X180340000Y-102616000D03*
X82296000Y-89408000D03*
X70866000Y-97790000D03*
X70866000Y-84328000D03*
X180340000Y-93980000D03*
X145034000Y-89662000D03*
X81534000Y-56388000D03*
X81534000Y-48768000D03*
X81534000Y-51308000D03*
X71374000Y-43688000D03*
X81534000Y-43688000D03*
X70866000Y-123190000D03*
X184150000Y-49530000D03*
X210820000Y-123190000D03*
X81534000Y-64008000D03*
X218186000Y-104140000D03*
X65786000Y-64008000D03*
X62484000Y-58674000D03*
X81534000Y-66294000D03*
X217678000Y-87376000D03*
X230632004Y-41402000D03*
X217932000Y-63500000D03*
X210820000Y-132842000D03*
G04 #@! TO.N,/5+*
X206502000Y-136144000D03*
X203962000Y-103124000D03*
X140462000Y-136144000D03*
X134620000Y-93472000D03*
X140462000Y-93218000D03*
X187198000Y-102108000D03*
X187198000Y-98044000D03*
X83820000Y-99314000D03*
X83820000Y-95504000D03*
X83566000Y-67564000D03*
X83566000Y-80010000D03*
X187198000Y-92964000D03*
X134620000Y-87884000D03*
X96520000Y-39624000D03*
X101600000Y-45212000D03*
X100076000Y-65278000D03*
X101600000Y-39624000D03*
X101600000Y-51308000D03*
X101600000Y-53848000D03*
X87884000Y-64770000D03*
X83566000Y-58928000D03*
X83566000Y-39624000D03*
X114554000Y-39624000D03*
X140462000Y-124714000D03*
X219329000Y-39751000D03*
X219710000Y-93726000D03*
X140462000Y-55372000D03*
X140462000Y-39624000D03*
X219710000Y-102362000D03*
X189230000Y-50546000D03*
X75692000Y-73914000D03*
X60452000Y-73660000D03*
X224536000Y-103124000D03*
X206502000Y-134112000D03*
X226060000Y-134112000D03*
X167894000Y-77470000D03*
X157734000Y-77470000D03*
X232410000Y-39624000D03*
X125730000Y-87122000D03*
X114300000Y-79248000D03*
X198882000Y-40132000D03*
X198882000Y-52832000D03*
X93472000Y-95504000D03*
G04 #@! TO.N,/40_CS*
X176276000Y-109728000D03*
X175260000Y-74930000D03*
G04 #@! TO.N,/20_CS*
X152400000Y-72390000D03*
G04 #@! TO.N,/80_CS*
X160782000Y-52832000D03*
X159258000Y-70104000D03*
G04 #@! TO.N,/61_CS*
X153162000Y-74168000D03*
X150622000Y-52832000D03*
X150622000Y-45212000D03*
G04 #@! TO.N,/60_CS*
X176784000Y-75692000D03*
X176022000Y-48768000D03*
G04 #@! TO.N,/DACK3*
X206756000Y-54610000D03*
X206756000Y-79248000D03*
X175260000Y-77724000D03*
G04 #@! TO.N,/DACK2*
X148082000Y-136144000D03*
X148082000Y-76708000D03*
X205994000Y-52070000D03*
X205486000Y-76708000D03*
G04 #@! TO.N,/AEN*
X184658000Y-136144000D03*
X183134000Y-91186000D03*
X187706000Y-91186000D03*
X186944000Y-64770000D03*
X187706000Y-78232000D03*
X166878000Y-48768000D03*
X167640000Y-61468000D03*
X172974000Y-61468000D03*
X172974000Y-64770000D03*
G04 #@! TO.N,/ADSTB*
X193040000Y-129032000D03*
X192786000Y-66294000D03*
X197104000Y-61214000D03*
X196850010Y-66294000D03*
G04 #@! TO.N,/DACK1*
X170688000Y-136144000D03*
X174244000Y-82550000D03*
G04 #@! TO.N,/CS_128K*
X125984000Y-116332000D03*
X128016000Y-53848000D03*
G04 #@! TO.N,/CS_512K*
X127762000Y-51308000D03*
X124714000Y-115570000D03*
G04 #@! TO.N,/CS_ROM*
X137668000Y-116332000D03*
X138176000Y-58928000D03*
G04 #@! TO.N,/OSC88*
X137922000Y-133858000D03*
G04 #@! TO.N,/IRQ3*
X150622000Y-136144000D03*
X155194000Y-115570000D03*
G04 #@! TO.N,/IRQ4*
X153162000Y-136144000D03*
X156210000Y-112268000D03*
G04 #@! TO.N,/IRQ5*
X155702000Y-109728000D03*
G04 #@! TO.N,/IRQ6*
X157734000Y-107188000D03*
G04 #@! TO.N,/IRQ7*
X160020000Y-104648000D03*
G04 #@! TO.N,/IRQ2*
X177800000Y-116840000D03*
X202692000Y-128270000D03*
X177800000Y-128524000D03*
G04 #@! TO.N,/HF_PCLK*
X176022000Y-122428000D03*
X176022000Y-124968000D03*
X176276000Y-116332000D03*
X158496000Y-123190000D03*
X115570000Y-61468000D03*
X116078000Y-54610000D03*
X158496000Y-89916000D03*
X151638000Y-89916000D03*
X151638000Y-63246000D03*
G04 #@! TO.N,/SPK_OUT*
X176022000Y-118872000D03*
X176022000Y-66294000D03*
X148844000Y-66294000D03*
X148844000Y-53847992D03*
G04 #@! TO.N,/SPK_GO*
X190500000Y-125730000D03*
X190500000Y-123190000D03*
G04 #@! TO.N,/IRQ1*
X173736000Y-118872000D03*
X174498000Y-55372000D03*
X197358000Y-53848000D03*
X197358000Y-48768000D03*
X174498000Y-74168000D03*
G04 #@! TO.N,/RESOUT*
X209042000Y-136144000D03*
X209296000Y-74168000D03*
X84836000Y-64008000D03*
X84582000Y-72644000D03*
X154686000Y-73152000D03*
G04 #@! TO.N,/X1*
X91440000Y-45212000D03*
X93218000Y-45212000D03*
G04 #@! TO.N,/X2*
X91440000Y-54864000D03*
G04 #@! TO.N,/CLK*
X88138000Y-60452000D03*
X90170000Y-67056000D03*
X121666000Y-86614000D03*
X115570000Y-67310000D03*
X115570000Y-86614000D03*
G04 #@! TO.N,/PCLK*
X88900000Y-46990000D03*
G04 #@! TO.N,/PCLK88*
X89916000Y-48768000D03*
G04 #@! TO.N,/OSC*
X101600000Y-134874000D03*
X98044000Y-59690000D03*
G04 #@! TO.N,/OSC88HF*
X99568000Y-50292000D03*
G04 #@! TO.N,/READY*
X203200000Y-56388000D03*
X203200000Y-64770000D03*
X124714000Y-64770000D03*
X115316000Y-55372000D03*
X115319110Y-64008000D03*
G04 #@! TO.N,/RDY1*
X187198000Y-136144000D03*
X116332000Y-52070000D03*
X116332000Y-78994000D03*
X182372000Y-78486000D03*
G04 #@! TO.N,/CH_CK*
X211836000Y-136144000D03*
X212852000Y-98552000D03*
X190754000Y-98552000D03*
X190754000Y-70612000D03*
X212598000Y-125730000D03*
X149098000Y-45212000D03*
X149606000Y-71374000D03*
G04 #@! TO.N,/TC*
X145542000Y-136144000D03*
X146558000Y-57150000D03*
G04 #@! TO.N,/REFRQ*
X165608000Y-136144000D03*
X164084000Y-80010000D03*
G04 #@! TO.N,/DRQ1*
X168148000Y-136144000D03*
X165100000Y-85852000D03*
G04 #@! TO.N,/DRQ3*
X173482000Y-80772000D03*
G04 #@! TO.N,/DRQ2*
X198882000Y-136144000D03*
X198374000Y-83820000D03*
G04 #@! TO.N,/FB2*
X98044000Y-56388000D03*
X98044000Y-46228000D03*
G04 #@! TO.N,/FB1*
X102616000Y-47752000D03*
X102616000Y-57912000D03*
G04 #@! TO.N,/HF_OSC*
X136144000Y-46990000D03*
X100584000Y-46990000D03*
X100584000Y-55372000D03*
G04 #@! TO.N,/KBD_DATA*
X221996000Y-45212000D03*
X221742000Y-111252000D03*
G04 #@! TO.N,/T0*
X223012000Y-44450000D03*
X223012000Y-85852000D03*
X223012000Y-108712000D03*
G04 #@! TO.N,/KBD_CLK*
X194310000Y-43688000D03*
G04 #@! TO.N,/T1*
X221488000Y-87884000D03*
X222250000Y-113792000D03*
X221488000Y-46990000D03*
G04 #@! TO.N,/KBD_CLK_INVERTED*
X217170000Y-99314000D03*
X189992000Y-99314000D03*
X189992000Y-72390000D03*
X170180000Y-72390000D03*
X169164000Y-46228000D03*
G04 #@! TO.N,/CLK_88*
X71882000Y-129032000D03*
G04 #@! TO.N,/READY1*
X69088000Y-130048000D03*
X71120000Y-53848000D03*
G04 #@! TO.N,/RESET1*
X74168000Y-62992000D03*
X73660000Y-131572000D03*
G04 #@! TO.N,/X1A*
X63500000Y-44450000D03*
X74168000Y-57404000D03*
X74168000Y-45212000D03*
G04 #@! TO.N,/X2A*
X73406000Y-58674000D03*
X73406000Y-47752000D03*
G04 #@! TO.N,/NMI_EN*
X211328000Y-116332000D03*
X211328000Y-97790000D03*
X191516000Y-97790000D03*
X191516000Y-69850000D03*
X147574000Y-69850000D03*
X146558000Y-43688000D03*
G04 #@! TO.N,/SPK_EN*
X148082000Y-51308000D03*
X148082000Y-67056000D03*
X197612000Y-67056000D03*
X202692000Y-101600000D03*
X201712999Y-123915001D03*
X197104000Y-101600000D03*
G04 #@! TO.N,/CLK88_1*
X172974000Y-71628000D03*
X172974000Y-68326000D03*
X144018000Y-68326000D03*
G04 #@! TO.N,/AEN_OE*
X188468000Y-89408000D03*
X167691387Y-89371248D03*
X188468000Y-93218000D03*
X220726000Y-92710004D03*
X167640000Y-51308000D03*
X221234000Y-56896000D03*
G04 #@! TO.N,/EOP*
X210566000Y-52832000D03*
X166878000Y-53086000D03*
G04 #@! TO.N,/CS_61_RD*
X170942000Y-56388000D03*
X170942000Y-94996000D03*
X213360000Y-94488000D03*
X213360000Y-108712000D03*
X162814000Y-61214000D03*
X158242000Y-61214000D03*
X158242000Y-56388000D03*
G04 #@! TO.N,/CS_61_WR*
X170942000Y-50292000D03*
X170942000Y-55372000D03*
X160020000Y-48768000D03*
G04 #@! TO.N,/E0_CS*
X196088000Y-63246000D03*
X196088000Y-69850000D03*
X127254000Y-66548000D03*
G04 #@! TO.N,/CS_61_WR_*
X211836000Y-128270000D03*
X172212000Y-95504000D03*
X212344000Y-96774000D03*
G04 #@! TO.N,/NMI*
X69850000Y-123952000D03*
X70358000Y-77470000D03*
X170180000Y-53848000D03*
X169418000Y-78232008D03*
X134366000Y-77470000D03*
X123698008Y-78232008D03*
G04 #@! TO.N,/CH_CK_*
X168402000Y-50292000D03*
G04 #@! TO.N,/SPK_PIN*
X147828000Y-55372000D03*
X148082000Y-63500000D03*
G04 #@! TO.N,/760_WR*
X170180000Y-58166000D03*
G04 #@! TO.N,/SPK_PIN_O*
X155448000Y-72390000D03*
G04 #@! TO.N,/CLK1*
X70358000Y-61468000D03*
X68326000Y-128270000D03*
X82042000Y-129032000D03*
G04 #@! TO.N,/IOM_*
X138176000Y-56388000D03*
X138175990Y-47752000D03*
G04 #@! TD*
D26*
G04 #@! TO.N,/A15*
X195580000Y-109220000D02*
X195072000Y-108712000D01*
X195072000Y-108712000D02*
X190246000Y-108712000D01*
X190246000Y-108712000D02*
X189484000Y-107950000D01*
X189484000Y-107950000D02*
X184150000Y-107950000D01*
X184150000Y-107950000D02*
X183388000Y-108712000D01*
X183388000Y-108712000D02*
X172720000Y-108712000D01*
G04 #@! TO.N,/A16_*
X76200000Y-88900000D02*
X77470000Y-87630000D01*
X77470000Y-87630000D02*
X89916000Y-87630000D01*
X89916000Y-87630000D02*
X90678000Y-86868000D01*
G04 #@! TO.N,/INTR*
X167640000Y-124460000D02*
X167132000Y-124968000D01*
X167132000Y-124968000D02*
X162306000Y-124968000D01*
X70104000Y-128270000D02*
X162306000Y-128270000D01*
X69342000Y-127508000D02*
X70104000Y-128270000D01*
X61468000Y-127508000D02*
X69342000Y-127508000D01*
X60960000Y-127000000D02*
X61468000Y-127508000D01*
G04 #@! TO.N,/A17_*
X90678000Y-90170000D02*
X91440000Y-89408000D01*
X77470000Y-90170000D02*
X90678000Y-90170000D01*
X76200000Y-91440000D02*
X77470000Y-90170000D01*
G04 #@! TO.N,/A18_*
X91186000Y-92710000D02*
X92202000Y-91694000D01*
X77470000Y-92710000D02*
X91186000Y-92710000D01*
X76200000Y-93980000D02*
X77470000Y-92710000D01*
G04 #@! TO.N,/A19_*
X80264000Y-94488000D02*
X87376000Y-94488000D01*
X78740000Y-96012000D02*
X80264000Y-94488000D01*
X76708000Y-96012000D02*
X78740000Y-96012000D01*
X76200000Y-96520000D02*
X76708000Y-96012000D01*
G04 #@! TO.N,/HOLD*
X124206000Y-65532000D02*
X125476000Y-65532000D01*
X123444000Y-64770000D02*
X124206000Y-65532000D01*
X100838000Y-64770000D02*
X123444000Y-64770000D01*
X100330000Y-64262000D02*
X100838000Y-64770000D01*
X89916000Y-64262000D02*
X100330000Y-64262000D01*
X88646000Y-65532000D02*
X89916000Y-64262000D01*
X72136000Y-65532000D02*
X88646000Y-65532000D01*
G04 #@! TO.N,/HOLDA*
X76200000Y-109220000D02*
X77470000Y-110490000D01*
X77470000Y-110490000D02*
X93472000Y-110490000D01*
X93472000Y-110490000D02*
X94234000Y-109728000D01*
X187960000Y-67818000D02*
X188722000Y-68580000D01*
X188722000Y-68580000D02*
X190246000Y-68580000D01*
X190246000Y-68580000D02*
X191008000Y-67818000D01*
X191008000Y-67818000D02*
X198120000Y-67818000D01*
X198120000Y-67818000D02*
X198628000Y-67310000D01*
X198628000Y-67310000D02*
X201676000Y-67310000D01*
X201676000Y-67310000D02*
X202438000Y-66548000D01*
G04 #@! TO.N,/IOM*
X172720000Y-45720000D02*
X171450000Y-44450000D01*
X171450000Y-44450000D02*
X139700000Y-44450000D01*
X139700000Y-44450000D02*
X138938000Y-45212000D01*
X134874000Y-69850000D02*
X138938000Y-69850000D01*
X134112000Y-69088000D02*
X134874000Y-69850000D01*
X130048000Y-69088000D02*
X134112000Y-69088000D01*
X129286000Y-69850000D02*
X130048000Y-69088000D01*
X112776000Y-69850000D02*
X129286000Y-69850000D01*
G04 #@! TO.N,/A8*
X61468000Y-102108000D02*
X60960000Y-101600000D01*
X74168000Y-102108000D02*
X61468000Y-102108000D01*
X100076000Y-102870000D02*
X74930000Y-102870000D01*
X100838000Y-103632000D02*
X100076000Y-102870000D01*
X74930000Y-102870000D02*
X74168000Y-102108000D01*
X113792000Y-103632000D02*
X100838000Y-103632000D01*
X114300000Y-104140000D02*
X113792000Y-103632000D01*
X165354000Y-126746000D02*
X154940000Y-126746000D01*
X166370000Y-125730000D02*
X165354000Y-126746000D01*
X189738000Y-126492000D02*
X188976000Y-125730000D01*
X188976000Y-125730000D02*
X166370000Y-125730000D01*
X195072000Y-126492000D02*
X189738000Y-126492000D01*
X195580000Y-127000000D02*
X195072000Y-126492000D01*
G04 #@! TO.N,/DTR*
X76200000Y-116840000D02*
X77470000Y-115570000D01*
X77470000Y-115570000D02*
X80518000Y-115570000D01*
X78994000Y-99314000D02*
X80518000Y-99314000D01*
X78740000Y-99060000D02*
X78994000Y-99314000D01*
G04 #@! TO.N,/A9*
X72898000Y-104648000D02*
X62992000Y-104648000D01*
X73660000Y-105410000D02*
X72898000Y-104648000D01*
X100076000Y-105410000D02*
X73660000Y-105410000D01*
X100838000Y-106172000D02*
X100076000Y-105410000D01*
X113792000Y-106172000D02*
X100838000Y-106172000D01*
X114300000Y-106680000D02*
X113792000Y-106172000D01*
X165354000Y-123952000D02*
X156718000Y-123952000D01*
X166116000Y-123190000D02*
X165354000Y-123952000D01*
X188976000Y-123190000D02*
X166116000Y-123190000D01*
X189738000Y-123952000D02*
X188976000Y-123190000D01*
X195072000Y-123952000D02*
X189738000Y-123952000D01*
X195580000Y-124460000D02*
X195072000Y-123952000D01*
G04 #@! TO.N,/DEN*
X76200000Y-119380000D02*
X77470000Y-118110000D01*
X77470000Y-118110000D02*
X84074000Y-118110000D01*
X85852000Y-101092000D02*
X86360000Y-101600000D01*
X84074000Y-101092000D02*
X85852000Y-101092000D01*
G04 #@! TO.N,/A10*
X113792000Y-113792000D02*
X111760000Y-113792000D01*
X114300000Y-114300000D02*
X113792000Y-113792000D01*
X100076000Y-113030000D02*
X63754000Y-113030000D01*
X100838000Y-113792000D02*
X100076000Y-113030000D01*
X189484000Y-120650000D02*
X159258000Y-120650000D01*
X190246000Y-121412000D02*
X189484000Y-120650000D01*
X195072000Y-121412000D02*
X190246000Y-121412000D01*
X195580000Y-121920000D02*
X195072000Y-121412000D01*
X111760000Y-113792000D02*
X100838000Y-113792000D01*
G04 #@! TO.N,/ALE*
X76200000Y-121920000D02*
X77470000Y-123190000D01*
X95250000Y-123190000D02*
X96520000Y-121920000D01*
X77470000Y-123190000D02*
X94996000Y-123190000D01*
X94996000Y-123190000D02*
X95250000Y-123190000D01*
X97790000Y-123190000D02*
X142240000Y-123190000D01*
X96520000Y-121920000D02*
X97790000Y-123190000D01*
G04 #@! TO.N,/A11*
X113792000Y-108712000D02*
X100838000Y-108712000D01*
X100076000Y-107950000D02*
X64516000Y-107950000D01*
X100838000Y-108712000D02*
X100076000Y-107950000D01*
X114300000Y-109220000D02*
X113792000Y-108712000D01*
X189484000Y-118110000D02*
X161798000Y-118110000D01*
X190246000Y-118872000D02*
X189484000Y-118110000D01*
X195072000Y-118872000D02*
X190246000Y-118872000D01*
X195580000Y-119380000D02*
X195072000Y-118872000D01*
G04 #@! TO.N,/INTA*
X76200000Y-124460000D02*
X76708000Y-124968000D01*
X76708000Y-124968000D02*
X96266000Y-124968000D01*
X96266000Y-124968000D02*
X97028000Y-125730000D01*
X97028000Y-125730000D02*
X163068000Y-125730000D01*
G04 #@! TO.N,/A12*
X60960000Y-91440000D02*
X61468000Y-91948000D01*
X189484000Y-115570000D02*
X164338000Y-115570000D01*
X190246000Y-116332000D02*
X189484000Y-115570000D01*
X195072000Y-116332000D02*
X190246000Y-116332000D01*
X195580000Y-116840000D02*
X195072000Y-116332000D01*
G04 #@! TO.N,/A13*
X74168000Y-99568000D02*
X65278000Y-99568000D01*
X74930000Y-100330000D02*
X74168000Y-99568000D01*
X100076000Y-100330000D02*
X74930000Y-100330000D01*
X100838000Y-101092000D02*
X100076000Y-100330000D01*
X113792000Y-101092000D02*
X100838000Y-101092000D01*
X114300000Y-101600000D02*
X113792000Y-101092000D01*
X166624000Y-113030000D02*
X165862000Y-112268000D01*
X190246000Y-113792000D02*
X189484000Y-113030000D01*
X195072000Y-113792000D02*
X190246000Y-113792000D01*
X189484000Y-113030000D02*
X166624000Y-113030000D01*
X195580000Y-114300000D02*
X195072000Y-113792000D01*
G04 #@! TO.N,/A14*
X149860000Y-99060000D02*
X151130000Y-100330000D01*
X151130000Y-100330000D02*
X171958000Y-100330000D01*
X183388000Y-111252000D02*
X171958000Y-111252000D01*
X184150000Y-110490000D02*
X183388000Y-111252000D01*
X189484000Y-110490000D02*
X184150000Y-110490000D01*
X190246000Y-111252000D02*
X189484000Y-110490000D01*
X195072000Y-111252000D02*
X190246000Y-111252000D01*
X195580000Y-111760000D02*
X195072000Y-111252000D01*
G04 #@! TO.N,/RESET*
X101600000Y-62230000D02*
X175006000Y-62230000D01*
X100584000Y-61214000D02*
X101600000Y-62230000D01*
X86614000Y-61214000D02*
X100584000Y-61214000D01*
X86360000Y-60960000D02*
X86614000Y-61214000D01*
G04 #@! TO.N,/A0*
X202946000Y-91948000D02*
X213614002Y-91948000D01*
X202184000Y-92710000D02*
X202946000Y-91948000D01*
X193294000Y-92710000D02*
X202184000Y-92710000D01*
X192532000Y-91948000D02*
X193294000Y-92710000D01*
X181102000Y-91948000D02*
X192532000Y-91948000D01*
X180848000Y-92202000D02*
X181102000Y-91948000D01*
X178816000Y-92202000D02*
X180848000Y-92202000D01*
X178562000Y-91948000D02*
X178816000Y-92202000D01*
X136144000Y-91948000D02*
X178562000Y-91948000D01*
G04 #@! TO.N,/A1*
X189484000Y-88646000D02*
X136906000Y-88646000D01*
X190246000Y-89408000D02*
X189484000Y-88646000D01*
X193294000Y-89408000D02*
X190246000Y-89408000D01*
X194056000Y-90170000D02*
X193294000Y-89408000D01*
X202946000Y-89408000D02*
X202184000Y-90170000D01*
X202184000Y-90170000D02*
X194056000Y-90170000D01*
X212852002Y-89408000D02*
X202946000Y-89408000D01*
G04 #@! TO.N,/A2*
X193294000Y-86868000D02*
X138938000Y-86868000D01*
X202184000Y-87630000D02*
X194056000Y-87630000D01*
X194056000Y-87630000D02*
X193294000Y-86868000D01*
X202692000Y-87122000D02*
X202184000Y-87630000D01*
X212090002Y-87122000D02*
X202692000Y-87122000D01*
X230632000Y-60452000D02*
X231140000Y-60960000D01*
X227838000Y-60452000D02*
X230632000Y-60452000D01*
G04 #@! TO.N,/A3*
X192786000Y-84328000D02*
X141478000Y-84328000D01*
X193548000Y-85090000D02*
X192786000Y-84328000D01*
X202692000Y-84328000D02*
X201930000Y-85090000D01*
X201930000Y-85090000D02*
X193548000Y-85090000D01*
X211328002Y-84328000D02*
X202692000Y-84328000D01*
G04 #@! TO.N,/A4*
X192278000Y-81534000D02*
X144018000Y-81534000D01*
X193294000Y-82550000D02*
X192278000Y-81534000D01*
X202184000Y-82550000D02*
X193294000Y-82550000D01*
X202946000Y-81788000D02*
X202184000Y-82550000D01*
X209804000Y-81788000D02*
X202946000Y-81788000D01*
G04 #@! TO.N,/A5*
X147828000Y-79248000D02*
X147320000Y-79756000D01*
X174498000Y-80010000D02*
X173736000Y-79248000D01*
X176022000Y-80010000D02*
X174498000Y-80010000D01*
X176784000Y-79248000D02*
X176022000Y-80010000D01*
X192278000Y-79248000D02*
X176784000Y-79248000D01*
X173736000Y-79248000D02*
X147828000Y-79248000D01*
X193040000Y-80010000D02*
X192278000Y-79248000D01*
X207772000Y-80010000D02*
X193040000Y-80010000D01*
X208534000Y-79248000D02*
X207772000Y-80010000D01*
G04 #@! TO.N,/A6*
X207772000Y-77470000D02*
X199644000Y-77470000D01*
X199644000Y-77470000D02*
X198882000Y-76708000D01*
X198882000Y-76708000D02*
X149606000Y-76708000D01*
X149606000Y-76708000D02*
X148844000Y-77470000D01*
G04 #@! TO.N,/A7*
X148082000Y-102108000D02*
X135128000Y-102108000D01*
X148844000Y-102870000D02*
X148082000Y-102108000D01*
X153416000Y-102870000D02*
X148844000Y-102870000D01*
X135128000Y-102108000D02*
X134620000Y-101600000D01*
X154178000Y-102108000D02*
X153416000Y-102870000D01*
X199644000Y-74930000D02*
X207010000Y-74930000D01*
X198882000Y-74168000D02*
X199644000Y-74930000D01*
X182626000Y-74168000D02*
X198882000Y-74168000D01*
X181864000Y-73406000D02*
X182626000Y-74168000D01*
X173736000Y-73406000D02*
X181864000Y-73406000D01*
X172974000Y-74168000D02*
X173736000Y-73406000D01*
X154178000Y-74168000D02*
X172974000Y-74168000D01*
G04 #@! TO.N,/A16*
X137668000Y-87630000D02*
X174498000Y-87630000D01*
X136652000Y-86614000D02*
X137668000Y-87630000D01*
X130302000Y-86614000D02*
X136652000Y-86614000D01*
G04 #@! TO.N,/A17*
X129540000Y-85090000D02*
X177038000Y-85090000D01*
G04 #@! TO.N,/A18*
X99060000Y-91440000D02*
X99314000Y-91440000D01*
X99314000Y-91440000D02*
X99822000Y-91948000D01*
X99822000Y-91948000D02*
X112014000Y-91948000D01*
X112014000Y-91948000D02*
X112776000Y-92710000D01*
X112776000Y-92710000D02*
X128778000Y-92710000D01*
X134874000Y-91186000D02*
X179324000Y-91186000D01*
X133350000Y-92710000D02*
X134874000Y-91186000D01*
X179324000Y-91186000D02*
X179578000Y-91440000D01*
X128778000Y-92710000D02*
X133350000Y-92710000D01*
X211328000Y-58928000D02*
X210566000Y-58166000D01*
X212344000Y-58928000D02*
X211328000Y-58928000D01*
X213106000Y-59690000D02*
X212344000Y-58928000D01*
X217170000Y-59690000D02*
X213106000Y-59690000D01*
X218440000Y-58420000D02*
X217170000Y-59690000D01*
G04 #@! TO.N,/A19*
X96520000Y-88900000D02*
X97028000Y-89408000D01*
X97028000Y-89408000D02*
X107696000Y-89408000D01*
X107696000Y-89408000D02*
X108204000Y-89916000D01*
X108204000Y-89916000D02*
X125730000Y-89916000D01*
X180848000Y-90678000D02*
X181356000Y-91186000D01*
X134112000Y-90678000D02*
X180848000Y-90678000D01*
X133350000Y-89916000D02*
X134112000Y-90678000D01*
X125730000Y-89916000D02*
X133350000Y-89916000D01*
G04 #@! TO.N,/D0*
X233680000Y-50800000D02*
X232410000Y-52070000D01*
X232410000Y-52070000D02*
X224536000Y-52070000D01*
G04 #@! TO.N,/D1*
X151130000Y-120650000D02*
X125222000Y-120650000D01*
X152400000Y-119380000D02*
X151130000Y-120650000D01*
X232410000Y-54610000D02*
X223774000Y-54610000D01*
X233680000Y-53340000D02*
X232410000Y-54610000D01*
G04 #@! TO.N,/D2*
X134620000Y-127000000D02*
X135128000Y-127508000D01*
X152400000Y-116840000D02*
X151130000Y-118110000D01*
X151130000Y-118110000D02*
X125984000Y-118110000D01*
X233680000Y-55880000D02*
X232410000Y-57150000D01*
X232410000Y-57150000D02*
X223012000Y-57150000D01*
G04 #@! TO.N,/D3*
X151130000Y-115570000D02*
X126746000Y-115570000D01*
X152400000Y-114300000D02*
X151130000Y-115570000D01*
X233680000Y-58420000D02*
X232410000Y-59690000D01*
X232410000Y-59690000D02*
X221996000Y-59690000D01*
G04 #@! TO.N,/D4*
X152400000Y-111760000D02*
X151130000Y-113030000D01*
X151130000Y-113030000D02*
X127508000Y-113030000D01*
X233680000Y-60960000D02*
X232410000Y-62230000D01*
X232410000Y-62230000D02*
X225552000Y-62230000D01*
X225552000Y-62230000D02*
X225044000Y-62738000D01*
X221234000Y-70358000D02*
X224790000Y-70358000D01*
X220472000Y-69596000D02*
X221234000Y-70358000D01*
X217424000Y-69596000D02*
X220472000Y-69596000D01*
X217170000Y-69850000D02*
X217424000Y-69596000D01*
X199644000Y-69850000D02*
X217170000Y-69850000D01*
X198882000Y-70612000D02*
X199644000Y-69850000D01*
G04 #@! TO.N,/D5*
X150622000Y-110490000D02*
X128270000Y-110490000D01*
X151892000Y-109220000D02*
X150622000Y-110490000D01*
X152400000Y-109220000D02*
X151892000Y-109220000D01*
X214630000Y-72390000D02*
X225552000Y-72390000D01*
X213868000Y-71628000D02*
X214630000Y-72390000D01*
X202438000Y-71628000D02*
X213868000Y-71628000D01*
X233680000Y-63500000D02*
X232410000Y-64770000D01*
X232410000Y-64770000D02*
X225552000Y-64770000D01*
G04 #@! TO.N,/D6*
X151130000Y-107950000D02*
X129032000Y-107950000D01*
X152400000Y-106680000D02*
X151130000Y-107950000D01*
X233680000Y-66040000D02*
X232410000Y-67310000D01*
X232410000Y-67310000D02*
X226314000Y-67310000D01*
X213360000Y-75692000D02*
X203200000Y-75692000D01*
X214122000Y-74930000D02*
X213360000Y-75692000D01*
X218440000Y-75692000D02*
X217678000Y-74930000D01*
X220726000Y-75692000D02*
X218440000Y-75692000D01*
X217678000Y-74930000D02*
X214122000Y-74930000D01*
X221488000Y-76454000D02*
X220726000Y-75692000D01*
X226314000Y-76454000D02*
X221488000Y-76454000D01*
G04 #@! TO.N,/D7*
X151130000Y-105410000D02*
X129794000Y-105410000D01*
X152400000Y-104140000D02*
X151130000Y-105410000D01*
X232410000Y-69850000D02*
X227076000Y-69850000D01*
X233680000Y-68580000D02*
X232410000Y-69850000D01*
X218440000Y-78232000D02*
X227076000Y-78232000D01*
X217678000Y-77470000D02*
X218440000Y-78232000D01*
X209804000Y-77470000D02*
X217678000Y-77470000D01*
X209042000Y-78232000D02*
X209804000Y-77470000D01*
X205994000Y-78232000D02*
X209042000Y-78232000D01*
G04 #@! TO.N,/MWR*
X132080000Y-99060000D02*
X133350000Y-97790000D01*
X133350000Y-97790000D02*
X171958000Y-97790000D01*
X171958000Y-97790000D02*
X172720000Y-97028000D01*
X172720000Y-97028000D02*
X183896000Y-97028000D01*
X64262000Y-73914000D02*
X62992000Y-75184000D01*
X71120000Y-74930000D02*
X70104000Y-73914000D01*
X79756000Y-74930000D02*
X71120000Y-74930000D01*
X70104000Y-73914000D02*
X64262000Y-73914000D01*
X80518000Y-75692000D02*
X79756000Y-74930000D01*
X84582000Y-75692000D02*
X80518000Y-75692000D01*
G04 #@! TO.N,/MRD*
X180086000Y-110490000D02*
X182372000Y-110490000D01*
X173482000Y-110744000D02*
X179832000Y-110744000D01*
X163830000Y-110490000D02*
X173228000Y-110490000D01*
X163322000Y-110998000D02*
X163830000Y-110490000D01*
X173228000Y-110490000D02*
X173482000Y-110744000D01*
X160528000Y-110998000D02*
X163322000Y-110998000D01*
X160020000Y-110490000D02*
X160528000Y-110998000D01*
X151638000Y-110490000D02*
X160020000Y-110490000D01*
X150368000Y-111760000D02*
X151638000Y-110490000D01*
X179832000Y-110744000D02*
X180086000Y-110490000D01*
X149860000Y-111760000D02*
X150368000Y-111760000D01*
G04 #@! TO.N,/IORD*
X180340000Y-105918000D02*
X180594000Y-106172000D01*
X184912000Y-106172000D02*
X185420000Y-106680000D01*
X180594000Y-106172000D02*
X184912000Y-106172000D01*
X178816000Y-105918000D02*
X179578000Y-105918000D01*
X178562000Y-106172000D02*
X178816000Y-105918000D01*
X172466000Y-106172000D02*
X178562000Y-106172000D01*
X171704000Y-105410000D02*
X172466000Y-106172000D01*
X155702000Y-105410000D02*
X171704000Y-105410000D01*
X179578000Y-105918000D02*
X180340000Y-105918000D01*
X223012000Y-49530000D02*
X228600000Y-49530000D01*
X220472000Y-52070000D02*
X223012000Y-49530000D01*
X209296000Y-52070000D02*
X220472000Y-52070000D01*
X207518000Y-50292000D02*
X209296000Y-52070000D01*
X202438000Y-50292000D02*
X207518000Y-50292000D01*
X230632000Y-65532000D02*
X231140000Y-66040000D01*
X228600000Y-65532000D02*
X230632000Y-65532000D01*
G04 #@! TO.N,/IOWR*
X184912000Y-103632000D02*
X185420000Y-104140000D01*
X180340000Y-103632000D02*
X184912000Y-103632000D01*
X180340000Y-103632000D02*
X172466000Y-103632000D01*
X172466000Y-103632000D02*
X171704000Y-102870000D01*
X171704000Y-102870000D02*
X156210000Y-102870000D01*
X69088000Y-79248000D02*
X68326000Y-78486000D01*
X76962000Y-79248000D02*
X69088000Y-79248000D01*
X77579001Y-79865001D02*
X76962000Y-79248000D01*
X79248000Y-80010000D02*
X79103001Y-79865001D01*
X81280000Y-80010000D02*
X79248000Y-80010000D01*
X82042000Y-80772000D02*
X81280000Y-80010000D01*
X85852000Y-80772000D02*
X82042000Y-80772000D01*
X79103001Y-79865001D02*
X77579001Y-79865001D01*
X86360000Y-81280000D02*
X85852000Y-80772000D01*
X203200000Y-47752000D02*
X206248000Y-47752000D01*
X206248000Y-47752000D02*
X207010000Y-48514000D01*
X207010000Y-48514000D02*
X213614000Y-48514000D01*
X213614000Y-48514000D02*
X214630000Y-49530000D01*
X220021002Y-49530000D02*
X221799002Y-47752000D01*
X214630000Y-49530000D02*
X220021002Y-49530000D01*
X221799002Y-47752000D02*
X223774000Y-47752000D01*
X223774000Y-47752000D02*
X224536000Y-46990000D01*
X224536000Y-46990000D02*
X229362000Y-46990000D01*
X230632000Y-68072000D02*
X231140000Y-68580000D01*
X229362000Y-68072000D02*
X230632000Y-68072000D01*
D27*
G04 #@! TO.N,/GND*
X180340000Y-48260000D02*
X181610000Y-49530000D01*
X181610000Y-49530000D02*
X184150000Y-49530000D01*
G04 #@! TO.N,/5+*
X193040000Y-50800000D02*
X189484000Y-50800000D01*
X189484000Y-50800000D02*
X189230000Y-50546000D01*
X87027249Y-80006899D02*
X110493101Y-80006899D01*
X87024148Y-80010000D02*
X87027249Y-80006899D01*
X83566000Y-80010000D02*
X87024148Y-80010000D01*
X110493101Y-80006899D02*
X111506000Y-78994000D01*
X111506000Y-78994000D02*
X114046000Y-78994000D01*
X114046000Y-78994000D02*
X114300000Y-79248000D01*
X130810000Y-79502000D02*
X131826000Y-80518000D01*
X127508000Y-79502000D02*
X130810000Y-79502000D01*
X126746000Y-78740000D02*
X127508000Y-79502000D01*
D26*
G04 #@! TO.N,/40_CS*
X176784000Y-110236000D02*
X176276000Y-109728000D01*
X179578000Y-110236000D02*
X176784000Y-110236000D01*
X180086000Y-109728000D02*
X179578000Y-110236000D01*
X184912000Y-109728000D02*
X180086000Y-109728000D01*
X185420000Y-109220000D02*
X184912000Y-109728000D01*
G04 #@! TO.N,/IRQ3*
X167640000Y-114300000D02*
X167132000Y-113792000D01*
X167132000Y-113792000D02*
X156972000Y-113792000D01*
X156972000Y-113792000D02*
X155194000Y-115570000D01*
G04 #@! TO.N,/IRQ4*
X163830000Y-112268000D02*
X156210000Y-112268000D01*
X164846000Y-111252000D02*
X163830000Y-112268000D01*
X167132000Y-111252000D02*
X164846000Y-111252000D01*
X167640000Y-111760000D02*
X167132000Y-111252000D01*
G04 #@! TO.N,/IRQ2*
X202692000Y-128270000D02*
X178054000Y-128270000D01*
X178054000Y-128270000D02*
X177800000Y-128524000D01*
G04 #@! TO.N,/HF_PCLK*
X184912000Y-124968000D02*
X185420000Y-124460000D01*
X176022000Y-124968000D02*
X184912000Y-124968000D01*
X184912000Y-116332000D02*
X185420000Y-116840000D01*
X178504010Y-116020010D02*
X178816000Y-116332000D01*
X176587990Y-116020010D02*
X178504010Y-116020010D01*
X178816000Y-116332000D02*
X184912000Y-116332000D01*
X176276000Y-116332000D02*
X176587990Y-116020010D01*
G04 #@! TO.N,/SPK_OUT*
X185420000Y-119380000D02*
X184912000Y-118872000D01*
X184912000Y-118872000D02*
X176022000Y-118872000D01*
G04 #@! TO.N,/SPK_GO*
X209296000Y-128270000D02*
X210058000Y-129032000D01*
X205740000Y-127000000D02*
X207010000Y-128270000D01*
X215392000Y-129032000D02*
X215900000Y-129540000D01*
X210058000Y-129032000D02*
X215392000Y-129032000D01*
X207010000Y-128270000D02*
X209296000Y-128270000D01*
X205740000Y-127000000D02*
X205232000Y-126492000D01*
X205232000Y-126492000D02*
X201168000Y-126492000D01*
X201168000Y-126492000D02*
X200406000Y-125730000D01*
X200406000Y-125730000D02*
X190500000Y-125730000D01*
G04 #@! TO.N,/IRQ1*
X174498000Y-55372000D02*
X175768000Y-55372000D01*
X175768000Y-55372000D02*
X176530000Y-54610000D01*
X176530000Y-54610000D02*
X196342000Y-54610000D01*
X196342000Y-54610000D02*
X197104000Y-53848000D01*
X197104000Y-53848000D02*
X197358000Y-53848000D01*
G04 #@! TO.N,/RESOUT*
X150368000Y-73152000D02*
X154686000Y-73152000D01*
X149606000Y-72390000D02*
X150368000Y-73152000D01*
X134366000Y-72390000D02*
X149606000Y-72390000D01*
X133604000Y-71628000D02*
X134366000Y-72390000D01*
X129286000Y-72390000D02*
X130048000Y-71628000D01*
X130048000Y-71628000D02*
X133604000Y-71628000D01*
X101600000Y-72390000D02*
X129286000Y-72390000D01*
X99060000Y-71120000D02*
X100330000Y-71120000D01*
X97790000Y-72390000D02*
X99060000Y-71120000D01*
X84836000Y-72390000D02*
X97790000Y-72390000D01*
X100330000Y-71120000D02*
X101600000Y-72390000D01*
X84582000Y-72644000D02*
X84836000Y-72390000D01*
G04 #@! TO.N,/CLK*
X97790000Y-67056000D02*
X90170000Y-67056000D01*
X98044000Y-67310000D02*
X97790000Y-67056000D01*
X115570000Y-67310000D02*
X98044000Y-67310000D01*
X116332000Y-66548000D02*
X115570000Y-67310000D01*
X119380000Y-67310000D02*
X118618000Y-66548000D01*
X131064000Y-67310000D02*
X119380000Y-67310000D01*
X118618000Y-66548000D02*
X116332000Y-66548000D01*
X131826000Y-66548000D02*
X131064000Y-67310000D01*
G04 #@! TO.N,/READY*
X199644000Y-64770000D02*
X203200000Y-64770000D01*
X173736000Y-65532000D02*
X198882000Y-65532000D01*
X173228000Y-66040000D02*
X173736000Y-65532000D01*
X166370000Y-66040000D02*
X173228000Y-66040000D01*
X165862000Y-65532000D02*
X166370000Y-66040000D01*
X198882000Y-65532000D02*
X199644000Y-64770000D01*
X143510000Y-65532000D02*
X165862000Y-65532000D01*
X142748000Y-64770000D02*
X143510000Y-65532000D01*
X124714000Y-64770000D02*
X142748000Y-64770000D01*
X113919000Y-55372000D02*
X115316000Y-55372000D01*
X94361000Y-53594000D02*
X95377000Y-54610000D01*
X90106500Y-54610000D02*
X91122500Y-53594000D01*
X113157000Y-54610000D02*
X113919000Y-55372000D01*
X84074000Y-54610000D02*
X90106500Y-54610000D01*
X83312000Y-53848000D02*
X84074000Y-54610000D01*
X95377000Y-54610000D02*
X113157000Y-54610000D01*
X91122500Y-53594000D02*
X94361000Y-53594000D01*
X79248000Y-53848000D02*
X83312000Y-53848000D01*
X78740000Y-53340000D02*
X79248000Y-53848000D01*
G04 #@! TO.N,/CH_CK*
X212852000Y-98552000D02*
X190754000Y-98552000D01*
G04 #@! TO.N,/HF_OSC*
X136144000Y-46990000D02*
X100584000Y-46990000D01*
G04 #@! TO.N,/T0*
X186690000Y-44450000D02*
X223012000Y-44450000D01*
X185420000Y-45720000D02*
X186690000Y-44450000D01*
G04 #@! TO.N,/T1*
X190500000Y-48260000D02*
X191770000Y-46990000D01*
X191770000Y-46990000D02*
X211582000Y-46990000D01*
X211582000Y-46990000D02*
X212344000Y-46228000D01*
X212344000Y-46228000D02*
X214122000Y-46228000D01*
X214122000Y-46228000D02*
X214884000Y-46990000D01*
X214884000Y-46990000D02*
X221488000Y-46990000D01*
G04 #@! TO.N,/KBD_CLK_INVERTED*
X217170000Y-99314000D02*
X207772000Y-99314000D01*
X207772000Y-99314000D02*
X207518000Y-99060000D01*
X207518000Y-99060000D02*
X204470000Y-99060000D01*
X204470000Y-99060000D02*
X204216000Y-99314000D01*
X204216000Y-99314000D02*
X189992000Y-99314000D01*
G04 #@! TO.N,/X1A*
X92710000Y-57150000D02*
X74422000Y-57150000D01*
X74422000Y-57150000D02*
X74168000Y-57404000D01*
X93218000Y-57658000D02*
X92710000Y-57150000D01*
G04 #@! TO.N,/X2A*
X74422000Y-59690000D02*
X73406000Y-58674000D01*
X92964000Y-59690000D02*
X74422000Y-59690000D01*
X93218000Y-59944000D02*
X92964000Y-59690000D01*
G04 #@! TO.N,/PORT_61_7*
X205740000Y-109220000D02*
X207010000Y-110490000D01*
X207010000Y-110490000D02*
X209296000Y-110490000D01*
X210058000Y-111252000D02*
X215392000Y-111252000D01*
X209296000Y-110490000D02*
X210058000Y-111252000D01*
X215392000Y-111252000D02*
X215900000Y-111760000D01*
G04 #@! TO.N,/PORT_61_6*
X205740000Y-111760000D02*
X207010000Y-113030000D01*
X207010000Y-113030000D02*
X209296000Y-113030000D01*
X209296000Y-113030000D02*
X210058000Y-113792000D01*
X215392000Y-113792000D02*
X215900000Y-114300000D01*
X210058000Y-113792000D02*
X215392000Y-113792000D01*
G04 #@! TO.N,/NMI_EN*
X210058000Y-116332000D02*
X211328000Y-116332000D01*
X207010000Y-115570000D02*
X209296000Y-115570000D01*
X205740000Y-114300000D02*
X207010000Y-115570000D01*
X209296000Y-115570000D02*
X210058000Y-116332000D01*
X215392000Y-116332000D02*
X215900000Y-116840000D01*
X211328000Y-116332000D02*
X215392000Y-116332000D01*
X211328000Y-97790000D02*
X191516000Y-97790000D01*
X144780000Y-43180000D02*
X145288000Y-43688000D01*
X145288000Y-43688000D02*
X146558000Y-43688000D01*
G04 #@! TO.N,/PORT_61_4*
X205740000Y-116840000D02*
X207010000Y-118110000D01*
X207010000Y-118110000D02*
X209296000Y-118110000D01*
X210058000Y-118872000D02*
X215392000Y-118872000D01*
X209296000Y-118110000D02*
X210058000Y-118872000D01*
X215392000Y-118872000D02*
X215900000Y-119380000D01*
G04 #@! TO.N,/PORT_61_3*
X207010000Y-120650000D02*
X209296000Y-120650000D01*
X210058000Y-121412000D02*
X215392000Y-121412000D01*
X205740000Y-119380000D02*
X207010000Y-120650000D01*
X209296000Y-120650000D02*
X210058000Y-121412000D01*
X215392000Y-121412000D02*
X215900000Y-121920000D01*
G04 #@! TO.N,/PORT_61_2*
X205740000Y-121920000D02*
X207010000Y-123190000D01*
X215392000Y-123952000D02*
X215900000Y-124460000D01*
X207010000Y-123190000D02*
X209296000Y-123190000D01*
X210058000Y-123952000D02*
X215392000Y-123952000D01*
X209296000Y-123190000D02*
X210058000Y-123952000D01*
G04 #@! TO.N,/SPK_EN*
X207010000Y-125730000D02*
X209296000Y-125730000D01*
X205740000Y-124460000D02*
X207010000Y-125730000D01*
X210058000Y-126492000D02*
X215392000Y-126492000D01*
X209296000Y-125730000D02*
X210058000Y-126492000D01*
X215392000Y-126492000D02*
X215900000Y-127000000D01*
G04 #@! TO.N,/AEN_OE*
X188468000Y-93218000D02*
X217424000Y-93218000D01*
X217424000Y-93218000D02*
X217931996Y-92710004D01*
X217931996Y-92710004D02*
X220726000Y-92710004D01*
G04 #@! TO.N,/EOP*
X204724000Y-52832000D02*
X210566000Y-52832000D01*
X203962000Y-52070000D02*
X204724000Y-52832000D01*
X170434000Y-53086000D02*
X171450000Y-52070000D01*
X165354000Y-53086000D02*
X170434000Y-53086000D01*
X171450000Y-52070000D02*
X203962000Y-52070000D01*
X165100000Y-53340000D02*
X165354000Y-53086000D01*
G04 #@! TO.N,/CS_61_RD*
X154940000Y-55880000D02*
X155448000Y-56388000D01*
X155448000Y-56388000D02*
X158242000Y-56388000D01*
X159004000Y-56388000D02*
X160782000Y-54610000D01*
X160782000Y-54610000D02*
X168656000Y-54610000D01*
X168656000Y-54610000D02*
X170434000Y-56388000D01*
X170434000Y-56388000D02*
X170942000Y-56388000D01*
X212315499Y-94488000D02*
X213360000Y-94488000D01*
X211299499Y-95504000D02*
X212315499Y-94488000D01*
X179070000Y-95504000D02*
X211299499Y-95504000D01*
X178308000Y-94742000D02*
X179070000Y-95504000D01*
X171196000Y-94742000D02*
X178308000Y-94742000D01*
X170942000Y-94996000D02*
X171196000Y-94742000D01*
X162814000Y-61214000D02*
X158242000Y-61214000D01*
X158242000Y-56388000D02*
X159004000Y-56388000D01*
G04 #@! TO.N,/E0_CS*
X197104000Y-62230000D02*
X196088000Y-63246000D01*
X210058000Y-64008000D02*
X208280000Y-62230000D01*
X208280000Y-62230000D02*
X197104000Y-62230000D01*
X213614000Y-64008000D02*
X210058000Y-64008000D01*
X214376000Y-64770000D02*
X213614000Y-64008000D01*
X217678000Y-64516000D02*
X217424000Y-64770000D01*
X218440000Y-64516000D02*
X217678000Y-64516000D01*
X218948000Y-64008000D02*
X218440000Y-64516000D01*
X230632000Y-64008000D02*
X218948000Y-64008000D01*
X217424000Y-64770000D02*
X214376000Y-64770000D01*
X231140000Y-63500000D02*
X230632000Y-64008000D01*
X122428000Y-66548000D02*
X121920000Y-66040000D01*
X137668000Y-68580000D02*
X126746000Y-68580000D01*
X127254000Y-66548000D02*
X122428000Y-66548000D01*
X138176000Y-69088000D02*
X137668000Y-68580000D01*
X192532000Y-69088000D02*
X138176000Y-69088000D01*
X193294000Y-69850000D02*
X192532000Y-69088000D01*
X196088000Y-69850000D02*
X193294000Y-69850000D01*
G04 #@! TO.N,/CS_61_WR_*
X205486000Y-96266000D02*
X206248000Y-97028000D01*
X176276000Y-96266000D02*
X205486000Y-96266000D01*
X206248000Y-97028000D02*
X212090000Y-97028000D01*
X175514000Y-95504000D02*
X176276000Y-96266000D01*
X212090000Y-97028000D02*
X212344000Y-96774000D01*
X172212000Y-95504000D02*
X175514000Y-95504000D01*
G04 #@! TO.N,/NMI*
X134366000Y-77470000D02*
X133604000Y-76708000D01*
X133604000Y-76708000D02*
X129794000Y-76708000D01*
X129794000Y-76708000D02*
X129032000Y-77470000D01*
X124460016Y-77470000D02*
X123698008Y-78232008D01*
X129032000Y-77470000D02*
X124460016Y-77470000D01*
X83566000Y-125730000D02*
X84836000Y-127000000D01*
X74422000Y-125730000D02*
X83566000Y-125730000D01*
X72644000Y-123952000D02*
X74422000Y-125730000D01*
X69850000Y-123952000D02*
X72644000Y-123952000D01*
G04 #@! TO.N,/CH_CK_*
X145288000Y-48768000D02*
X144780000Y-48260000D01*
X150876000Y-49530000D02*
X150114000Y-48768000D01*
X166370000Y-49530000D02*
X150876000Y-49530000D01*
X167132000Y-50292000D02*
X166370000Y-49530000D01*
X169164000Y-50292000D02*
X167132000Y-50292000D01*
X170180000Y-51308000D02*
X169164000Y-50292000D01*
X172212000Y-51308000D02*
X170180000Y-51308000D01*
X150114000Y-48768000D02*
X145288000Y-48768000D01*
X172720000Y-50800000D02*
X172212000Y-51308000D01*
G04 #@! TO.N,/760_WR*
X163830000Y-57150000D02*
X162560000Y-58420000D01*
X168656000Y-57150000D02*
X163830000Y-57150000D01*
X169672000Y-58166000D02*
X168656000Y-57150000D01*
X170688000Y-58166000D02*
X170180000Y-58166000D01*
X226060000Y-53340000D02*
X225552000Y-53848000D01*
X208788000Y-55372000D02*
X207010000Y-55372000D01*
X225552000Y-53848000D02*
X220472000Y-53848000D01*
X207010000Y-55372000D02*
X205232000Y-57150000D01*
X220472000Y-53848000D02*
X219710000Y-54610000D01*
X219710000Y-54610000D02*
X209550000Y-54610000D01*
X209550000Y-54610000D02*
X208788000Y-55372000D01*
X205232000Y-57150000D02*
X192024000Y-57150000D01*
X189230000Y-57912000D02*
X188468000Y-57150000D01*
X192024000Y-57150000D02*
X191262000Y-57912000D01*
X191262000Y-57912000D02*
X189230000Y-57912000D01*
X188468000Y-57150000D02*
X171704000Y-57150000D01*
X171704000Y-57150000D02*
X170688000Y-58166000D01*
X170180000Y-58166000D02*
X169672000Y-58166000D01*
G04 #@! TO.N,/IOM_*
X139954000Y-47752000D02*
X138175990Y-47752000D01*
X140716000Y-46990000D02*
X139954000Y-47752000D01*
X171450000Y-46990000D02*
X140716000Y-46990000D01*
X172720000Y-48260000D02*
X171450000Y-46990000D01*
G04 #@! TD*
M02*
