G04 #@! TF.GenerationSoftware,KiCad,Pcbnew,(5.1.8)-1*
G04 #@! TF.CreationDate,2024-05-23T13:17:17-06:00*
G04 #@! TF.ProjectId,Breadboard Adapter,42726561-6462-46f6-9172-642041646170,rev?*
G04 #@! TF.SameCoordinates,Original*
G04 #@! TF.FileFunction,Copper,L1,Top*
G04 #@! TF.FilePolarity,Positive*
%FSLAX46Y46*%
G04 Gerber Fmt 4.6, Leading zero omitted, Abs format (unit mm)*
G04 Created by KiCad (PCBNEW (5.1.8)-1) date 2024-05-23 13:17:17*
%MOMM*%
%LPD*%
G01*
G04 APERTURE LIST*
G04 #@! TA.AperFunction,ComponentPad*
%ADD10O,1.700000X1.700000*%
G04 #@! TD*
G04 #@! TA.AperFunction,ComponentPad*
%ADD11R,1.700000X1.700000*%
G04 #@! TD*
G04 #@! TA.AperFunction,ComponentPad*
%ADD12C,1.524000*%
G04 #@! TD*
G04 #@! TA.AperFunction,ComponentPad*
%ADD13R,1.524000X1.524000*%
G04 #@! TD*
G04 #@! TA.AperFunction,ComponentPad*
%ADD14O,1.700000X0.900000*%
G04 #@! TD*
G04 #@! TA.AperFunction,ComponentPad*
%ADD15O,2.400000X0.900000*%
G04 #@! TD*
G04 #@! TA.AperFunction,ComponentPad*
%ADD16C,0.700000*%
G04 #@! TD*
G04 #@! TA.AperFunction,ViaPad*
%ADD17C,0.800000*%
G04 #@! TD*
G04 #@! TA.AperFunction,Conductor*
%ADD18C,0.330200*%
G04 #@! TD*
G04 #@! TA.AperFunction,Conductor*
%ADD19C,0.250000*%
G04 #@! TD*
G04 APERTURE END LIST*
D10*
G04 #@! TO.P,J4,31*
G04 #@! TO.N,/A0*
X106680000Y-114300000D03*
G04 #@! TO.P,J4,30*
G04 #@! TO.N,/A1*
X106680000Y-111760000D03*
G04 #@! TO.P,J4,29*
G04 #@! TO.N,/A2*
X106680000Y-109220000D03*
G04 #@! TO.P,J4,28*
G04 #@! TO.N,/A3*
X106680000Y-106680000D03*
G04 #@! TO.P,J4,27*
G04 #@! TO.N,/A4*
X106680000Y-104140000D03*
G04 #@! TO.P,J4,26*
G04 #@! TO.N,/A5*
X106680000Y-101600000D03*
G04 #@! TO.P,J4,25*
G04 #@! TO.N,/A6*
X106680000Y-99060000D03*
G04 #@! TO.P,J4,24*
G04 #@! TO.N,/A7*
X106680000Y-96520000D03*
G04 #@! TO.P,J4,23*
G04 #@! TO.N,/A8*
X106680000Y-93980000D03*
G04 #@! TO.P,J4,22*
G04 #@! TO.N,/A9*
X106680000Y-91440000D03*
G04 #@! TO.P,J4,21*
G04 #@! TO.N,/A10*
X106680000Y-88900000D03*
G04 #@! TO.P,J4,20*
G04 #@! TO.N,/A11*
X106680000Y-86360000D03*
G04 #@! TO.P,J4,19*
G04 #@! TO.N,/A12*
X106680000Y-83820000D03*
G04 #@! TO.P,J4,18*
G04 #@! TO.N,/A13*
X106680000Y-81280000D03*
G04 #@! TO.P,J4,17*
G04 #@! TO.N,/A14*
X106680000Y-78740000D03*
G04 #@! TO.P,J4,16*
G04 #@! TO.N,/A15*
X106680000Y-76200000D03*
G04 #@! TO.P,J4,15*
G04 #@! TO.N,/A16*
X106680000Y-73660000D03*
G04 #@! TO.P,J4,14*
G04 #@! TO.N,/A17*
X106680000Y-71120000D03*
G04 #@! TO.P,J4,13*
G04 #@! TO.N,/A18*
X106680000Y-68580000D03*
G04 #@! TO.P,J4,12*
G04 #@! TO.N,/A19*
X106680000Y-66040000D03*
G04 #@! TO.P,J4,11*
G04 #@! TO.N,/AEN*
X106680000Y-63500000D03*
G04 #@! TO.P,J4,10*
G04 #@! TO.N,/RDY1*
X106680000Y-60960000D03*
G04 #@! TO.P,J4,9*
G04 #@! TO.N,/D0*
X106680000Y-58420000D03*
G04 #@! TO.P,J4,8*
G04 #@! TO.N,/D1*
X106680000Y-55880000D03*
G04 #@! TO.P,J4,7*
G04 #@! TO.N,/D2*
X106680000Y-53340000D03*
G04 #@! TO.P,J4,6*
G04 #@! TO.N,/D3*
X106680000Y-50800000D03*
G04 #@! TO.P,J4,5*
G04 #@! TO.N,/D4*
X106680000Y-48260000D03*
G04 #@! TO.P,J4,4*
G04 #@! TO.N,/D5*
X106680000Y-45720000D03*
G04 #@! TO.P,J4,3*
G04 #@! TO.N,/D6*
X106680000Y-43180000D03*
G04 #@! TO.P,J4,2*
G04 #@! TO.N,/D7*
X106680000Y-40640000D03*
D11*
G04 #@! TO.P,J4,1*
G04 #@! TO.N,/CH_CK*
X106680000Y-38100000D03*
G04 #@! TD*
D10*
G04 #@! TO.P,J3,31*
G04 #@! TO.N,/GND*
X99060000Y-114300000D03*
G04 #@! TO.P,J3,30*
G04 #@! TO.N,/OSC88*
X99060000Y-111760000D03*
G04 #@! TO.P,J3,29*
G04 #@! TO.N,/5+*
X99060000Y-109220000D03*
G04 #@! TO.P,J3,28*
G04 #@! TO.N,/ALE*
X99060000Y-106680000D03*
G04 #@! TO.P,J3,27*
G04 #@! TO.N,/TC*
X99060000Y-104140000D03*
G04 #@! TO.P,J3,26*
G04 #@! TO.N,/DACK2*
X99060000Y-101600000D03*
G04 #@! TO.P,J3,25*
G04 #@! TO.N,/IRQ3*
X99060000Y-99060000D03*
G04 #@! TO.P,J3,24*
G04 #@! TO.N,/IRQ4*
X99060000Y-96520000D03*
G04 #@! TO.P,J3,23*
G04 #@! TO.N,/IRQ5*
X99060000Y-93980000D03*
G04 #@! TO.P,J3,22*
G04 #@! TO.N,/IRQ6*
X99060000Y-91440000D03*
G04 #@! TO.P,J3,21*
G04 #@! TO.N,/IRQ7*
X99060000Y-88900000D03*
G04 #@! TO.P,J3,20*
G04 #@! TO.N,/CLK88*
X99060000Y-86360000D03*
G04 #@! TO.P,J3,19*
G04 #@! TO.N,/REFRQ*
X99060000Y-83820000D03*
G04 #@! TO.P,J3,18*
G04 #@! TO.N,/DRQ1*
X99060000Y-81280000D03*
G04 #@! TO.P,J3,17*
G04 #@! TO.N,/DACK1*
X99060000Y-78740000D03*
G04 #@! TO.P,J3,16*
G04 #@! TO.N,/DRQ3*
X99060000Y-76200000D03*
G04 #@! TO.P,J3,15*
G04 #@! TO.N,/DACK3*
X99060000Y-73660000D03*
G04 #@! TO.P,J3,14*
G04 #@! TO.N,/IORD*
X99060000Y-71120000D03*
G04 #@! TO.P,J3,13*
G04 #@! TO.N,/IOWR*
X99060000Y-68580000D03*
G04 #@! TO.P,J3,12*
G04 #@! TO.N,/MRD*
X99060000Y-66040000D03*
G04 #@! TO.P,J3,11*
G04 #@! TO.N,/MWR*
X99060000Y-63500000D03*
G04 #@! TO.P,J3,10*
G04 #@! TO.N,/GND*
X99060000Y-60960000D03*
G04 #@! TO.P,J3,9*
G04 #@! TO.N,/12+*
X99060000Y-58420000D03*
G04 #@! TO.P,J3,8*
G04 #@! TO.N,/NC*
X99060000Y-55880000D03*
G04 #@! TO.P,J3,7*
G04 #@! TO.N,/12-*
X99060000Y-53340000D03*
G04 #@! TO.P,J3,6*
G04 #@! TO.N,/DRQ2*
X99060000Y-50800000D03*
G04 #@! TO.P,J3,5*
G04 #@! TO.N,/5-*
X99060000Y-48260000D03*
G04 #@! TO.P,J3,4*
G04 #@! TO.N,/IRQ2*
X99060000Y-45720000D03*
G04 #@! TO.P,J3,3*
G04 #@! TO.N,/5+*
X99060000Y-43180000D03*
G04 #@! TO.P,J3,2*
G04 #@! TO.N,/RESOUT*
X99060000Y-40640000D03*
D11*
G04 #@! TO.P,J3,1*
G04 #@! TO.N,/GND*
X99060000Y-38100000D03*
G04 #@! TD*
D12*
G04 #@! TO.P,J9,62*
G04 #@! TO.N,/A0*
X96520000Y-114300000D03*
G04 #@! TO.P,J9,61*
G04 #@! TO.N,/A1*
X96520000Y-111760000D03*
G04 #@! TO.P,J9,60*
G04 #@! TO.N,/A2*
X96520000Y-109220000D03*
G04 #@! TO.P,J9,59*
G04 #@! TO.N,/A3*
X96520000Y-106680000D03*
G04 #@! TO.P,J9,58*
G04 #@! TO.N,/A4*
X96520000Y-104140000D03*
G04 #@! TO.P,J9,57*
G04 #@! TO.N,/A5*
X96520000Y-101600000D03*
G04 #@! TO.P,J9,56*
G04 #@! TO.N,/A6*
X96520000Y-99060000D03*
G04 #@! TO.P,J9,55*
G04 #@! TO.N,/A7*
X96520000Y-96520000D03*
G04 #@! TO.P,J9,54*
G04 #@! TO.N,/A8*
X96520000Y-93980000D03*
G04 #@! TO.P,J9,53*
G04 #@! TO.N,/A9*
X96520000Y-91440000D03*
G04 #@! TO.P,J9,52*
G04 #@! TO.N,/A10*
X96520000Y-88900000D03*
G04 #@! TO.P,J9,51*
G04 #@! TO.N,/A11*
X96520000Y-86360000D03*
G04 #@! TO.P,J9,50*
G04 #@! TO.N,/A12*
X96520000Y-83820000D03*
G04 #@! TO.P,J9,49*
G04 #@! TO.N,/A13*
X96520000Y-81280000D03*
G04 #@! TO.P,J9,48*
G04 #@! TO.N,/A14*
X96520000Y-78740000D03*
G04 #@! TO.P,J9,47*
G04 #@! TO.N,/A15*
X96520000Y-76200000D03*
G04 #@! TO.P,J9,46*
G04 #@! TO.N,/A16*
X96520000Y-73660000D03*
G04 #@! TO.P,J9,45*
G04 #@! TO.N,/A17*
X96520000Y-71120000D03*
G04 #@! TO.P,J9,44*
G04 #@! TO.N,/A18*
X96520000Y-68580000D03*
G04 #@! TO.P,J9,43*
G04 #@! TO.N,/A19*
X96520000Y-66040000D03*
G04 #@! TO.P,J9,42*
G04 #@! TO.N,/AEN*
X96520000Y-63500000D03*
G04 #@! TO.P,J9,41*
G04 #@! TO.N,/RDY1*
X96520000Y-60960000D03*
G04 #@! TO.P,J9,40*
G04 #@! TO.N,/D0*
X96520000Y-58420000D03*
G04 #@! TO.P,J9,39*
G04 #@! TO.N,/D1*
X96520000Y-55880000D03*
G04 #@! TO.P,J9,38*
G04 #@! TO.N,/D2*
X96520000Y-53340000D03*
G04 #@! TO.P,J9,37*
G04 #@! TO.N,/D3*
X96520000Y-50800000D03*
G04 #@! TO.P,J9,36*
G04 #@! TO.N,/D4*
X96520000Y-48260000D03*
G04 #@! TO.P,J9,35*
G04 #@! TO.N,/D5*
X96520000Y-45720000D03*
G04 #@! TO.P,J9,34*
G04 #@! TO.N,/D6*
X96520000Y-43180000D03*
G04 #@! TO.P,J9,33*
G04 #@! TO.N,/D7*
X96520000Y-40640000D03*
G04 #@! TO.P,J9,32*
G04 #@! TO.N,/CH_CK*
X96520000Y-38100000D03*
G04 #@! TO.P,J9,31*
G04 #@! TO.N,/GND*
X91440000Y-114300000D03*
G04 #@! TO.P,J9,30*
G04 #@! TO.N,/OSC88*
X91440000Y-111760000D03*
G04 #@! TO.P,J9,29*
G04 #@! TO.N,/5+*
X91440000Y-109220000D03*
G04 #@! TO.P,J9,28*
G04 #@! TO.N,/ALE*
X91440000Y-106680000D03*
G04 #@! TO.P,J9,27*
G04 #@! TO.N,/TC*
X91440000Y-104140000D03*
G04 #@! TO.P,J9,26*
G04 #@! TO.N,/DACK2*
X91440000Y-101600000D03*
G04 #@! TO.P,J9,25*
G04 #@! TO.N,/IRQ3*
X91440000Y-99060000D03*
G04 #@! TO.P,J9,24*
G04 #@! TO.N,/IRQ4*
X91440000Y-96520000D03*
G04 #@! TO.P,J9,23*
G04 #@! TO.N,/IRQ5*
X91440000Y-93980000D03*
G04 #@! TO.P,J9,22*
G04 #@! TO.N,/IRQ6*
X91440000Y-91440000D03*
G04 #@! TO.P,J9,21*
G04 #@! TO.N,/IRQ7*
X91440000Y-88900000D03*
G04 #@! TO.P,J9,20*
G04 #@! TO.N,/CLK88*
X91440000Y-86360000D03*
G04 #@! TO.P,J9,19*
G04 #@! TO.N,/REFRQ*
X91440000Y-83820000D03*
G04 #@! TO.P,J9,18*
G04 #@! TO.N,/DRQ1*
X91440000Y-81280000D03*
G04 #@! TO.P,J9,17*
G04 #@! TO.N,/DACK1*
X91440000Y-78740000D03*
G04 #@! TO.P,J9,16*
G04 #@! TO.N,/DRQ3*
X91440000Y-76200000D03*
G04 #@! TO.P,J9,15*
G04 #@! TO.N,/DACK3*
X91440000Y-73660000D03*
G04 #@! TO.P,J9,14*
G04 #@! TO.N,/IORD*
X91440000Y-71120000D03*
G04 #@! TO.P,J9,13*
G04 #@! TO.N,/IOWR*
X91440000Y-68580000D03*
G04 #@! TO.P,J9,12*
G04 #@! TO.N,/MRD*
X91440000Y-66040000D03*
G04 #@! TO.P,J9,11*
G04 #@! TO.N,/MWR*
X91440000Y-63500000D03*
G04 #@! TO.P,J9,10*
G04 #@! TO.N,/GND*
X91440000Y-60960000D03*
G04 #@! TO.P,J9,9*
G04 #@! TO.N,/12+*
X91440000Y-58420000D03*
G04 #@! TO.P,J9,8*
G04 #@! TO.N,/NC*
X91440000Y-55880000D03*
G04 #@! TO.P,J9,7*
G04 #@! TO.N,/12-*
X91440000Y-53340000D03*
G04 #@! TO.P,J9,6*
G04 #@! TO.N,/DRQ2*
X91440000Y-50800000D03*
G04 #@! TO.P,J9,5*
G04 #@! TO.N,/5-*
X91440000Y-48260000D03*
G04 #@! TO.P,J9,4*
G04 #@! TO.N,/IRQ2*
X91440000Y-45720000D03*
G04 #@! TO.P,J9,3*
G04 #@! TO.N,/5+*
X91440000Y-43180000D03*
G04 #@! TO.P,J9,2*
G04 #@! TO.N,/RESOUT*
X91440000Y-40640000D03*
D13*
G04 #@! TO.P,J9,1*
G04 #@! TO.N,/GND*
X91440000Y-38100000D03*
G04 #@! TD*
D12*
G04 #@! TO.P,J1,62*
G04 #@! TO.N,/A0*
X114300000Y-114300000D03*
G04 #@! TO.P,J1,61*
G04 #@! TO.N,/A1*
X114300000Y-111760000D03*
G04 #@! TO.P,J1,60*
G04 #@! TO.N,/A2*
X114300000Y-109220000D03*
G04 #@! TO.P,J1,59*
G04 #@! TO.N,/A3*
X114300000Y-106680000D03*
G04 #@! TO.P,J1,58*
G04 #@! TO.N,/A4*
X114300000Y-104140000D03*
G04 #@! TO.P,J1,57*
G04 #@! TO.N,/A5*
X114300000Y-101600000D03*
G04 #@! TO.P,J1,56*
G04 #@! TO.N,/A6*
X114300000Y-99060000D03*
G04 #@! TO.P,J1,55*
G04 #@! TO.N,/A7*
X114300000Y-96520000D03*
G04 #@! TO.P,J1,54*
G04 #@! TO.N,/A8*
X114300000Y-93980000D03*
G04 #@! TO.P,J1,53*
G04 #@! TO.N,/A9*
X114300000Y-91440000D03*
G04 #@! TO.P,J1,52*
G04 #@! TO.N,/A10*
X114300000Y-88900000D03*
G04 #@! TO.P,J1,51*
G04 #@! TO.N,/A11*
X114300000Y-86360000D03*
G04 #@! TO.P,J1,50*
G04 #@! TO.N,/A12*
X114300000Y-83820000D03*
G04 #@! TO.P,J1,49*
G04 #@! TO.N,/A13*
X114300000Y-81280000D03*
G04 #@! TO.P,J1,48*
G04 #@! TO.N,/A14*
X114300000Y-78740000D03*
G04 #@! TO.P,J1,47*
G04 #@! TO.N,/A15*
X114300000Y-76200000D03*
G04 #@! TO.P,J1,46*
G04 #@! TO.N,/A16*
X114300000Y-73660000D03*
G04 #@! TO.P,J1,45*
G04 #@! TO.N,/A17*
X114300000Y-71120000D03*
G04 #@! TO.P,J1,44*
G04 #@! TO.N,/A18*
X114300000Y-68580000D03*
G04 #@! TO.P,J1,43*
G04 #@! TO.N,/A19*
X114300000Y-66040000D03*
G04 #@! TO.P,J1,42*
G04 #@! TO.N,/AEN*
X114300000Y-63500000D03*
G04 #@! TO.P,J1,41*
G04 #@! TO.N,/RDY1*
X114300000Y-60960000D03*
G04 #@! TO.P,J1,40*
G04 #@! TO.N,/D0*
X114300000Y-58420000D03*
G04 #@! TO.P,J1,39*
G04 #@! TO.N,/D1*
X114300000Y-55880000D03*
G04 #@! TO.P,J1,38*
G04 #@! TO.N,/D2*
X114300000Y-53340000D03*
G04 #@! TO.P,J1,37*
G04 #@! TO.N,/D3*
X114300000Y-50800000D03*
G04 #@! TO.P,J1,36*
G04 #@! TO.N,/D4*
X114300000Y-48260000D03*
G04 #@! TO.P,J1,35*
G04 #@! TO.N,/D5*
X114300000Y-45720000D03*
G04 #@! TO.P,J1,34*
G04 #@! TO.N,/D6*
X114300000Y-43180000D03*
G04 #@! TO.P,J1,33*
G04 #@! TO.N,/D7*
X114300000Y-40640000D03*
G04 #@! TO.P,J1,32*
G04 #@! TO.N,/CH_CK*
X114300000Y-38100000D03*
G04 #@! TO.P,J1,31*
G04 #@! TO.N,/GND*
X109220000Y-114300000D03*
G04 #@! TO.P,J1,30*
G04 #@! TO.N,/OSC88*
X109220000Y-111760000D03*
G04 #@! TO.P,J1,29*
G04 #@! TO.N,/5+*
X109220000Y-109220000D03*
G04 #@! TO.P,J1,28*
G04 #@! TO.N,/ALE*
X109220000Y-106680000D03*
G04 #@! TO.P,J1,27*
G04 #@! TO.N,/TC*
X109220000Y-104140000D03*
G04 #@! TO.P,J1,26*
G04 #@! TO.N,/DACK2*
X109220000Y-101600000D03*
G04 #@! TO.P,J1,25*
G04 #@! TO.N,/IRQ3*
X109220000Y-99060000D03*
G04 #@! TO.P,J1,24*
G04 #@! TO.N,/IRQ4*
X109220000Y-96520000D03*
G04 #@! TO.P,J1,23*
G04 #@! TO.N,/IRQ5*
X109220000Y-93980000D03*
G04 #@! TO.P,J1,22*
G04 #@! TO.N,/IRQ6*
X109220000Y-91440000D03*
G04 #@! TO.P,J1,21*
G04 #@! TO.N,/IRQ7*
X109220000Y-88900000D03*
G04 #@! TO.P,J1,20*
G04 #@! TO.N,/CLK88*
X109220000Y-86360000D03*
G04 #@! TO.P,J1,19*
G04 #@! TO.N,/REFRQ*
X109220000Y-83820000D03*
G04 #@! TO.P,J1,18*
G04 #@! TO.N,/DRQ1*
X109220000Y-81280000D03*
G04 #@! TO.P,J1,17*
G04 #@! TO.N,/DACK1*
X109220000Y-78740000D03*
G04 #@! TO.P,J1,16*
G04 #@! TO.N,/DRQ3*
X109220000Y-76200000D03*
G04 #@! TO.P,J1,15*
G04 #@! TO.N,/DACK3*
X109220000Y-73660000D03*
G04 #@! TO.P,J1,14*
G04 #@! TO.N,/IORD*
X109220000Y-71120000D03*
G04 #@! TO.P,J1,13*
G04 #@! TO.N,/IOWR*
X109220000Y-68580000D03*
G04 #@! TO.P,J1,12*
G04 #@! TO.N,/MRD*
X109220000Y-66040000D03*
G04 #@! TO.P,J1,11*
G04 #@! TO.N,/MWR*
X109220000Y-63500000D03*
G04 #@! TO.P,J1,10*
G04 #@! TO.N,/GND*
X109220000Y-60960000D03*
G04 #@! TO.P,J1,9*
G04 #@! TO.N,/12+*
X109220000Y-58420000D03*
G04 #@! TO.P,J1,8*
G04 #@! TO.N,/NC*
X109220000Y-55880000D03*
G04 #@! TO.P,J1,7*
G04 #@! TO.N,/12-*
X109220000Y-53340000D03*
G04 #@! TO.P,J1,6*
G04 #@! TO.N,/DRQ2*
X109220000Y-50800000D03*
G04 #@! TO.P,J1,5*
G04 #@! TO.N,/5-*
X109220000Y-48260000D03*
G04 #@! TO.P,J1,4*
G04 #@! TO.N,/IRQ2*
X109220000Y-45720000D03*
G04 #@! TO.P,J1,3*
G04 #@! TO.N,/5+*
X109220000Y-43180000D03*
G04 #@! TO.P,J1,2*
G04 #@! TO.N,/RESOUT*
X109220000Y-40640000D03*
D13*
G04 #@! TO.P,J1,1*
G04 #@! TO.N,/GND*
X109220000Y-38100000D03*
G04 #@! TD*
D12*
G04 #@! TO.P,SW1,6*
G04 #@! TO.N,Net-(SW1-Pad6)*
X91536000Y-30908000D03*
G04 #@! TO.P,SW1,5*
G04 #@! TO.N,Net-(SW1-Pad5)*
X91536000Y-28408000D03*
G04 #@! TO.P,SW1,4*
G04 #@! TO.N,Net-(SW1-Pad4)*
X91536000Y-25908000D03*
G04 #@! TO.P,SW1,3*
G04 #@! TO.N,/POWER_SUPPLY*
X97536000Y-25908000D03*
G04 #@! TO.P,SW1,2*
G04 #@! TO.N,/5+*
X97536000Y-28408000D03*
G04 #@! TO.P,SW1,1*
G04 #@! TO.N,Net-(SW1-Pad1)*
X97536000Y-30908000D03*
G04 #@! TD*
D14*
G04 #@! TO.P,J2,S1*
G04 #@! TO.N,Net-(J2-PadS1)*
X94446000Y-22540000D03*
X94446000Y-13890000D03*
D15*
X97826000Y-22540000D03*
X97826000Y-13890000D03*
D16*
G04 #@! TO.P,J2,B6*
G04 #@! TO.N,Net-(J2-PadB6)*
X97456000Y-18640000D03*
G04 #@! TO.P,J2,B1*
G04 #@! TO.N,/GND*
X97456000Y-21190000D03*
G04 #@! TO.P,J2,B4*
G04 #@! TO.N,/POWER_SUPPLY*
X97456000Y-20340000D03*
G04 #@! TO.P,J2,B5*
G04 #@! TO.N,Net-(J2-PadB5)*
X97456000Y-19490000D03*
G04 #@! TO.P,J2,B12*
G04 #@! TO.N,/GND*
X97456000Y-15240000D03*
G04 #@! TO.P,J2,B8*
G04 #@! TO.N,Net-(J2-PadB8)*
X97456000Y-16940000D03*
G04 #@! TO.P,J2,B7*
G04 #@! TO.N,Net-(J2-PadB7)*
X97456000Y-17790000D03*
G04 #@! TO.P,J2,B9*
G04 #@! TO.N,/POWER_SUPPLY*
X97456000Y-16090000D03*
G04 #@! TO.P,J2,A12*
G04 #@! TO.N,/GND*
X98806000Y-21190000D03*
G04 #@! TO.P,J2,A9*
G04 #@! TO.N,/POWER_SUPPLY*
X98806000Y-20340000D03*
G04 #@! TO.P,J2,A8*
G04 #@! TO.N,Net-(J2-PadA8)*
X98806000Y-19490000D03*
G04 #@! TO.P,J2,A7*
G04 #@! TO.N,Net-(J2-PadA7)*
X98806000Y-18640000D03*
G04 #@! TO.P,J2,A6*
G04 #@! TO.N,Net-(J2-PadA6)*
X98806000Y-17790000D03*
G04 #@! TO.P,J2,A5*
G04 #@! TO.N,Net-(J2-PadA5)*
X98806000Y-16940000D03*
G04 #@! TO.P,J2,A4*
G04 #@! TO.N,/POWER_SUPPLY*
X98806000Y-16090000D03*
G04 #@! TO.P,J2,A1*
G04 #@! TO.N,/GND*
X98806000Y-15240000D03*
G04 #@! TD*
D17*
G04 #@! TO.N,/GND*
X100076000Y-15240000D03*
X100076000Y-21336000D03*
X104140000Y-38608000D03*
X104140000Y-114808000D03*
X104140000Y-61468000D03*
G04 #@! TO.N,/POWER_SUPPLY*
X96012000Y-20320000D03*
X96012000Y-16002000D03*
X96012000Y-25908000D03*
G04 #@! TO.N,/5+*
X101600000Y-43688000D03*
X101600000Y-109728000D03*
X94742000Y-43688000D03*
X94742000Y-28448000D03*
G04 #@! TD*
D18*
G04 #@! TO.N,/GND*
X100076000Y-15240000D02*
X98806000Y-15240000D01*
X98806000Y-15240000D02*
X97456000Y-15240000D01*
X98952000Y-21336000D02*
X98806000Y-21190000D01*
X100076000Y-21336000D02*
X98952000Y-21336000D01*
X98806000Y-21190000D02*
X97456000Y-21190000D01*
X97456000Y-21190000D02*
X97428000Y-21190000D01*
X108966000Y-38100000D02*
X109220000Y-38100000D01*
X107696000Y-39370000D02*
X108966000Y-38100000D01*
X104902000Y-39370000D02*
X107696000Y-39370000D01*
X104140000Y-38608000D02*
X104140000Y-38608000D01*
X99568000Y-38608000D02*
X104140000Y-38608000D01*
X99060000Y-38100000D02*
X99568000Y-38608000D01*
X98552000Y-38100000D02*
X99060000Y-38100000D01*
X97282000Y-39370000D02*
X98552000Y-38100000D01*
X94742000Y-38608000D02*
X95504000Y-39370000D01*
X91948000Y-38608000D02*
X94742000Y-38608000D01*
X95504000Y-39370000D02*
X97282000Y-39370000D01*
X91440000Y-38100000D02*
X91948000Y-38608000D01*
X91440000Y-60960000D02*
X91948000Y-61468000D01*
X94742000Y-61468000D02*
X95504000Y-62230000D01*
X104140000Y-61468000D02*
X104902000Y-62230000D01*
X95504000Y-62230000D02*
X97282000Y-62230000D01*
X104902000Y-62230000D02*
X107696000Y-62230000D01*
X99060000Y-60960000D02*
X99568000Y-61468000D01*
X108966000Y-60960000D02*
X109220000Y-60960000D01*
X97282000Y-62230000D02*
X98552000Y-60960000D01*
X98552000Y-60960000D02*
X99060000Y-60960000D01*
X91948000Y-61468000D02*
X94742000Y-61468000D01*
X107696000Y-62230000D02*
X108966000Y-60960000D01*
X99568000Y-61468000D02*
X104140000Y-61468000D01*
X99568000Y-114808000D02*
X104140000Y-114808000D01*
X108966000Y-114300000D02*
X109220000Y-114300000D01*
X104902000Y-115570000D02*
X107696000Y-115570000D01*
X99060000Y-114300000D02*
X99568000Y-114808000D01*
X107696000Y-115570000D02*
X108966000Y-114300000D01*
X104140000Y-114808000D02*
X104902000Y-115570000D01*
X95504000Y-115570000D02*
X97282000Y-115570000D01*
X98552000Y-114300000D02*
X99060000Y-114300000D01*
X97282000Y-115570000D02*
X98552000Y-114300000D01*
X94742000Y-114808000D02*
X95504000Y-115570000D01*
X91440000Y-114300000D02*
X91948000Y-114808000D01*
X91948000Y-114808000D02*
X94742000Y-114808000D01*
X104140000Y-38608000D02*
X104902000Y-39370000D01*
D19*
G04 #@! TO.N,Net-(J2-PadS1)*
X97826000Y-22540000D02*
X94446000Y-22540000D01*
X94446000Y-13890000D02*
X97826000Y-13890000D01*
D18*
G04 #@! TO.N,/POWER_SUPPLY*
X97456000Y-20340000D02*
X98806000Y-20340000D01*
X97456000Y-16090000D02*
X98806000Y-16090000D01*
X97456000Y-20340000D02*
X96032000Y-20340000D01*
X97368000Y-16002000D02*
X96012000Y-16002000D01*
X97456000Y-16090000D02*
X97368000Y-16002000D01*
X96012000Y-25908000D02*
X97456000Y-25908000D01*
D19*
G04 #@! TO.N,/A0*
X110998000Y-113792000D02*
X110236000Y-113030000D01*
X96774000Y-114300000D02*
X96520000Y-114300000D01*
X98044000Y-113030000D02*
X96774000Y-114300000D01*
X100838000Y-113030000D02*
X98044000Y-113030000D01*
X101600000Y-113792000D02*
X100838000Y-113030000D01*
X113792000Y-113792000D02*
X110998000Y-113792000D01*
X108458000Y-113030000D02*
X107188000Y-114300000D01*
X114300000Y-114300000D02*
X113792000Y-113792000D01*
X106172000Y-113792000D02*
X101600000Y-113792000D01*
X107188000Y-114300000D02*
X106680000Y-114300000D01*
X106680000Y-114300000D02*
X106172000Y-113792000D01*
X110236000Y-113030000D02*
X108458000Y-113030000D01*
G04 #@! TO.N,/A1*
X110998000Y-111252000D02*
X110236000Y-110490000D01*
X96774000Y-111760000D02*
X96520000Y-111760000D01*
X106680000Y-111760000D02*
X106172000Y-111252000D01*
X113792000Y-111252000D02*
X110998000Y-111252000D01*
X98044000Y-110490000D02*
X96774000Y-111760000D01*
X100838000Y-110490000D02*
X98044000Y-110490000D01*
X107188000Y-111760000D02*
X106680000Y-111760000D01*
X106172000Y-111252000D02*
X101600000Y-111252000D01*
X101600000Y-111252000D02*
X100838000Y-110490000D01*
X110236000Y-110490000D02*
X108458000Y-110490000D01*
X114300000Y-111760000D02*
X113792000Y-111252000D01*
X108458000Y-110490000D02*
X107188000Y-111760000D01*
G04 #@! TO.N,/A2*
X110236000Y-107950000D02*
X108458000Y-107950000D01*
X110998000Y-108712000D02*
X110236000Y-107950000D01*
X106680000Y-109220000D02*
X106172000Y-108712000D01*
X113792000Y-108712000D02*
X110998000Y-108712000D01*
X107188000Y-109220000D02*
X106680000Y-109220000D01*
X96774000Y-109220000D02*
X96520000Y-109220000D01*
X114300000Y-109220000D02*
X113792000Y-108712000D01*
X100838000Y-107950000D02*
X98044000Y-107950000D01*
X108458000Y-107950000D02*
X107188000Y-109220000D01*
X98044000Y-107950000D02*
X96774000Y-109220000D01*
X101600000Y-108712000D02*
X100838000Y-107950000D01*
X106172000Y-108712000D02*
X101600000Y-108712000D01*
G04 #@! TO.N,/A3*
X98044000Y-105410000D02*
X96774000Y-106680000D01*
X106680000Y-106680000D02*
X106172000Y-106172000D01*
X100838000Y-105410000D02*
X98044000Y-105410000D01*
X110998000Y-106172000D02*
X110236000Y-105410000D01*
X96774000Y-106680000D02*
X96520000Y-106680000D01*
X113792000Y-106172000D02*
X110998000Y-106172000D01*
X108458000Y-105410000D02*
X107188000Y-106680000D01*
X106172000Y-106172000D02*
X101600000Y-106172000D01*
X101600000Y-106172000D02*
X100838000Y-105410000D01*
X110236000Y-105410000D02*
X108458000Y-105410000D01*
X114300000Y-106680000D02*
X113792000Y-106172000D01*
X107188000Y-106680000D02*
X106680000Y-106680000D01*
G04 #@! TO.N,/A4*
X106680000Y-104140000D02*
X106172000Y-103632000D01*
X113792000Y-103632000D02*
X110998000Y-103632000D01*
X110998000Y-103632000D02*
X110236000Y-102870000D01*
X98044000Y-102870000D02*
X96774000Y-104140000D01*
X101600000Y-103632000D02*
X100838000Y-102870000D01*
X107188000Y-104140000D02*
X106680000Y-104140000D01*
X106172000Y-103632000D02*
X101600000Y-103632000D01*
X96774000Y-104140000D02*
X96520000Y-104140000D01*
X114300000Y-104140000D02*
X113792000Y-103632000D01*
X100838000Y-102870000D02*
X98044000Y-102870000D01*
X108458000Y-102870000D02*
X107188000Y-104140000D01*
X110236000Y-102870000D02*
X108458000Y-102870000D01*
G04 #@! TO.N,/A5*
X107188000Y-101600000D02*
X106680000Y-101600000D01*
X114300000Y-101600000D02*
X113792000Y-101092000D01*
X110236000Y-100330000D02*
X108458000Y-100330000D01*
X98044000Y-100330000D02*
X96774000Y-101600000D01*
X106680000Y-101600000D02*
X106172000Y-101092000D01*
X113792000Y-101092000D02*
X110998000Y-101092000D01*
X110998000Y-101092000D02*
X110236000Y-100330000D01*
X108458000Y-100330000D02*
X107188000Y-101600000D01*
X96774000Y-101600000D02*
X96520000Y-101600000D01*
X106172000Y-101092000D02*
X101600000Y-101092000D01*
X100838000Y-100330000D02*
X98044000Y-100330000D01*
X101600000Y-101092000D02*
X100838000Y-100330000D01*
G04 #@! TO.N,/A6*
X114300000Y-99060000D02*
X113792000Y-98552000D01*
X100838000Y-97790000D02*
X98044000Y-97790000D01*
X108458000Y-97790000D02*
X107188000Y-99060000D01*
X106172000Y-98552000D02*
X101600000Y-98552000D01*
X96774000Y-99060000D02*
X96520000Y-99060000D01*
X110236000Y-97790000D02*
X108458000Y-97790000D01*
X106680000Y-99060000D02*
X106172000Y-98552000D01*
X113792000Y-98552000D02*
X110998000Y-98552000D01*
X107188000Y-99060000D02*
X106680000Y-99060000D01*
X110998000Y-98552000D02*
X110236000Y-97790000D01*
X98044000Y-97790000D02*
X96774000Y-99060000D01*
X101600000Y-98552000D02*
X100838000Y-97790000D01*
G04 #@! TO.N,/A7*
X96774000Y-96520000D02*
X96520000Y-96520000D01*
X106172000Y-96012000D02*
X101600000Y-96012000D01*
X100838000Y-95250000D02*
X98044000Y-95250000D01*
X101600000Y-96012000D02*
X100838000Y-95250000D01*
X98044000Y-95250000D02*
X96774000Y-96520000D01*
X106680000Y-96520000D02*
X106172000Y-96012000D01*
X114300000Y-96520000D02*
X113792000Y-96012000D01*
X110236000Y-95250000D02*
X108458000Y-95250000D01*
X107188000Y-96520000D02*
X106680000Y-96520000D01*
X113792000Y-96012000D02*
X110998000Y-96012000D01*
X110998000Y-96012000D02*
X110236000Y-95250000D01*
X108458000Y-95250000D02*
X107188000Y-96520000D01*
G04 #@! TO.N,/A8*
X98044000Y-92710000D02*
X96774000Y-93980000D01*
X110998000Y-93472000D02*
X110236000Y-92710000D01*
X101600000Y-93472000D02*
X100838000Y-92710000D01*
X110236000Y-92710000D02*
X108458000Y-92710000D01*
X106680000Y-93980000D02*
X106172000Y-93472000D01*
X96774000Y-93980000D02*
X96520000Y-93980000D01*
X108458000Y-92710000D02*
X107188000Y-93980000D01*
X100838000Y-92710000D02*
X98044000Y-92710000D01*
X106172000Y-93472000D02*
X101600000Y-93472000D01*
X114300000Y-93980000D02*
X113792000Y-93472000D01*
X113792000Y-93472000D02*
X110998000Y-93472000D01*
X107188000Y-93980000D02*
X106680000Y-93980000D01*
G04 #@! TO.N,/A9*
X110236000Y-90170000D02*
X108458000Y-90170000D01*
X113792000Y-90932000D02*
X110998000Y-90932000D01*
X110998000Y-90932000D02*
X110236000Y-90170000D01*
X108458000Y-90170000D02*
X107188000Y-91440000D01*
X107188000Y-91440000D02*
X106680000Y-91440000D01*
X114300000Y-91440000D02*
X113792000Y-90932000D01*
X101600000Y-90932000D02*
X100838000Y-90170000D01*
X106680000Y-91440000D02*
X106172000Y-90932000D01*
X98044000Y-90170000D02*
X96774000Y-91440000D01*
X106172000Y-90932000D02*
X101600000Y-90932000D01*
X100838000Y-90170000D02*
X98044000Y-90170000D01*
X96774000Y-91440000D02*
X96520000Y-91440000D01*
G04 #@! TO.N,/A10*
X100838000Y-87630000D02*
X98044000Y-87630000D01*
X114300000Y-88900000D02*
X113792000Y-88392000D01*
X108458000Y-87630000D02*
X107188000Y-88900000D01*
X106172000Y-88392000D02*
X101600000Y-88392000D01*
X106680000Y-88900000D02*
X106172000Y-88392000D01*
X113792000Y-88392000D02*
X110998000Y-88392000D01*
X96774000Y-88900000D02*
X96520000Y-88900000D01*
X107188000Y-88900000D02*
X106680000Y-88900000D01*
X110236000Y-87630000D02*
X108458000Y-87630000D01*
X110998000Y-88392000D02*
X110236000Y-87630000D01*
X98044000Y-87630000D02*
X96774000Y-88900000D01*
X101600000Y-88392000D02*
X100838000Y-87630000D01*
G04 #@! TO.N,/A11*
X106172000Y-85852000D02*
X101600000Y-85852000D01*
X101600000Y-85852000D02*
X100838000Y-85090000D01*
X100838000Y-85090000D02*
X98044000Y-85090000D01*
X98044000Y-85090000D02*
X96774000Y-86360000D01*
X96774000Y-86360000D02*
X96520000Y-86360000D01*
X106680000Y-86360000D02*
X106172000Y-85852000D01*
X107188000Y-86360000D02*
X106680000Y-86360000D01*
X114300000Y-86360000D02*
X113792000Y-85852000D01*
X110236000Y-85090000D02*
X108458000Y-85090000D01*
X108458000Y-85090000D02*
X107188000Y-86360000D01*
X113792000Y-85852000D02*
X110998000Y-85852000D01*
X110998000Y-85852000D02*
X110236000Y-85090000D01*
G04 #@! TO.N,/A12*
X98044000Y-82550000D02*
X96774000Y-83820000D01*
X101600000Y-83312000D02*
X100838000Y-82550000D01*
X110998000Y-83312000D02*
X110236000Y-82550000D01*
X107188000Y-83820000D02*
X106680000Y-83820000D01*
X106680000Y-83820000D02*
X106172000Y-83312000D01*
X96774000Y-83820000D02*
X96520000Y-83820000D01*
X106172000Y-83312000D02*
X101600000Y-83312000D01*
X113792000Y-83312000D02*
X110998000Y-83312000D01*
X110236000Y-82550000D02*
X108458000Y-82550000D01*
X100838000Y-82550000D02*
X98044000Y-82550000D01*
X114300000Y-83820000D02*
X113792000Y-83312000D01*
X108458000Y-82550000D02*
X107188000Y-83820000D01*
G04 #@! TO.N,/A13*
X113792000Y-80772000D02*
X110998000Y-80772000D01*
X106680000Y-81280000D02*
X106172000Y-80772000D01*
X108458000Y-80010000D02*
X107188000Y-81280000D01*
X106172000Y-80772000D02*
X101600000Y-80772000D01*
X110236000Y-80010000D02*
X108458000Y-80010000D01*
X101600000Y-80772000D02*
X100838000Y-80010000D01*
X98044000Y-80010000D02*
X96774000Y-81280000D01*
X100838000Y-80010000D02*
X98044000Y-80010000D01*
X96774000Y-81280000D02*
X96520000Y-81280000D01*
X114300000Y-81280000D02*
X113792000Y-80772000D01*
X110998000Y-80772000D02*
X110236000Y-80010000D01*
X107188000Y-81280000D02*
X106680000Y-81280000D01*
G04 #@! TO.N,/A14*
X98044000Y-77470000D02*
X96774000Y-78740000D01*
X106680000Y-78740000D02*
X106172000Y-78232000D01*
X110998000Y-78232000D02*
X110236000Y-77470000D01*
X101600000Y-78232000D02*
X100838000Y-77470000D01*
X96774000Y-78740000D02*
X96520000Y-78740000D01*
X100838000Y-77470000D02*
X98044000Y-77470000D01*
X110236000Y-77470000D02*
X108458000Y-77470000D01*
X114300000Y-78740000D02*
X113792000Y-78232000D01*
X107188000Y-78740000D02*
X106680000Y-78740000D01*
X106172000Y-78232000D02*
X101600000Y-78232000D01*
X108458000Y-77470000D02*
X107188000Y-78740000D01*
X113792000Y-78232000D02*
X110998000Y-78232000D01*
G04 #@! TO.N,/A15*
X106680000Y-76200000D02*
X106172000Y-75692000D01*
X110236000Y-74930000D02*
X108458000Y-74930000D01*
X108458000Y-74930000D02*
X107188000Y-76200000D01*
X106172000Y-75692000D02*
X101600000Y-75692000D01*
X113792000Y-75692000D02*
X110998000Y-75692000D01*
X110998000Y-75692000D02*
X110236000Y-74930000D01*
X107188000Y-76200000D02*
X106680000Y-76200000D01*
X96774000Y-76200000D02*
X96520000Y-76200000D01*
X101600000Y-75692000D02*
X100838000Y-74930000D01*
X114300000Y-76200000D02*
X113792000Y-75692000D01*
X98044000Y-74930000D02*
X96774000Y-76200000D01*
X100838000Y-74930000D02*
X98044000Y-74930000D01*
G04 #@! TO.N,/A16*
X100838000Y-72390000D02*
X98044000Y-72390000D01*
X106680000Y-73660000D02*
X106172000Y-73152000D01*
X96774000Y-73660000D02*
X96520000Y-73660000D01*
X98044000Y-72390000D02*
X96774000Y-73660000D01*
X101600000Y-73152000D02*
X100838000Y-72390000D01*
X110236000Y-72390000D02*
X108458000Y-72390000D01*
X110998000Y-73152000D02*
X110236000Y-72390000D01*
X114300000Y-73660000D02*
X113792000Y-73152000D01*
X108458000Y-72390000D02*
X107188000Y-73660000D01*
X113792000Y-73152000D02*
X110998000Y-73152000D01*
X107188000Y-73660000D02*
X106680000Y-73660000D01*
X106172000Y-73152000D02*
X101600000Y-73152000D01*
G04 #@! TO.N,/A17*
X106172000Y-70612000D02*
X101600000Y-70612000D01*
X113792000Y-70612000D02*
X110998000Y-70612000D01*
X101600000Y-70612000D02*
X100838000Y-69850000D01*
X96774000Y-71120000D02*
X96520000Y-71120000D01*
X110998000Y-70612000D02*
X110236000Y-69850000D01*
X98044000Y-69850000D02*
X96774000Y-71120000D01*
X107188000Y-71120000D02*
X106680000Y-71120000D01*
X114300000Y-71120000D02*
X113792000Y-70612000D01*
X100838000Y-69850000D02*
X98044000Y-69850000D01*
X106680000Y-71120000D02*
X106172000Y-70612000D01*
X110236000Y-69850000D02*
X108458000Y-69850000D01*
X108458000Y-69850000D02*
X107188000Y-71120000D01*
G04 #@! TO.N,/A18*
X106680000Y-68580000D02*
X106172000Y-68072000D01*
X96774000Y-68580000D02*
X96520000Y-68580000D01*
X98044000Y-67310000D02*
X96774000Y-68580000D01*
X110998000Y-68072000D02*
X110236000Y-67310000D01*
X101600000Y-68072000D02*
X100838000Y-67310000D01*
X110236000Y-67310000D02*
X108458000Y-67310000D01*
X113792000Y-68072000D02*
X110998000Y-68072000D01*
X114300000Y-68580000D02*
X113792000Y-68072000D01*
X106172000Y-68072000D02*
X101600000Y-68072000D01*
X108458000Y-67310000D02*
X107188000Y-68580000D01*
X107188000Y-68580000D02*
X106680000Y-68580000D01*
X100838000Y-67310000D02*
X98044000Y-67310000D01*
G04 #@! TO.N,/A19*
X107188000Y-66040000D02*
X106680000Y-66040000D01*
X110236000Y-64770000D02*
X108458000Y-64770000D01*
X114300000Y-66040000D02*
X113792000Y-65532000D01*
X106680000Y-66040000D02*
X106172000Y-65532000D01*
X108458000Y-64770000D02*
X107188000Y-66040000D01*
X100838000Y-64770000D02*
X98044000Y-64770000D01*
X98044000Y-64770000D02*
X96774000Y-66040000D01*
X101600000Y-65532000D02*
X100838000Y-64770000D01*
X106172000Y-65532000D02*
X101600000Y-65532000D01*
X113792000Y-65532000D02*
X110998000Y-65532000D01*
X96774000Y-66040000D02*
X96520000Y-66040000D01*
X110998000Y-65532000D02*
X110236000Y-64770000D01*
G04 #@! TO.N,/AEN*
X96774000Y-63500000D02*
X96520000Y-63500000D01*
X98044000Y-62230000D02*
X96774000Y-63500000D01*
X106680000Y-63500000D02*
X106172000Y-62992000D01*
X110998000Y-62992000D02*
X110236000Y-62230000D01*
X100838000Y-62230000D02*
X98044000Y-62230000D01*
X114300000Y-63500000D02*
X113792000Y-62992000D01*
X107188000Y-63500000D02*
X106680000Y-63500000D01*
X113792000Y-62992000D02*
X110998000Y-62992000D01*
X106172000Y-62992000D02*
X101600000Y-62992000D01*
X108458000Y-62230000D02*
X107188000Y-63500000D01*
X110236000Y-62230000D02*
X108458000Y-62230000D01*
X101600000Y-62992000D02*
X100838000Y-62230000D01*
G04 #@! TO.N,/RDY1*
X107188000Y-60960000D02*
X106680000Y-60960000D01*
X110236000Y-59690000D02*
X108458000Y-59690000D01*
X106680000Y-60960000D02*
X106172000Y-60452000D01*
X108458000Y-59690000D02*
X107188000Y-60960000D01*
X100838000Y-59690000D02*
X98044000Y-59690000D01*
X114300000Y-60960000D02*
X113792000Y-60452000D01*
X98044000Y-59690000D02*
X96774000Y-60960000D01*
X101600000Y-60452000D02*
X100838000Y-59690000D01*
X106172000Y-60452000D02*
X101600000Y-60452000D01*
X110998000Y-60452000D02*
X110236000Y-59690000D01*
X96774000Y-60960000D02*
X96520000Y-60960000D01*
X113792000Y-60452000D02*
X110998000Y-60452000D01*
G04 #@! TO.N,/D0*
X110998000Y-57912000D02*
X110236000Y-57150000D01*
X98044000Y-57150000D02*
X96774000Y-58420000D01*
X100838000Y-57150000D02*
X98044000Y-57150000D01*
X96774000Y-58420000D02*
X96520000Y-58420000D01*
X106680000Y-58420000D02*
X106172000Y-57912000D01*
X114300000Y-58420000D02*
X113792000Y-57912000D01*
X107188000Y-58420000D02*
X106680000Y-58420000D01*
X113792000Y-57912000D02*
X110998000Y-57912000D01*
X108458000Y-57150000D02*
X107188000Y-58420000D01*
X106172000Y-57912000D02*
X101600000Y-57912000D01*
X101600000Y-57912000D02*
X100838000Y-57150000D01*
X110236000Y-57150000D02*
X108458000Y-57150000D01*
G04 #@! TO.N,/D1*
X107188000Y-55880000D02*
X106680000Y-55880000D01*
X110236000Y-54610000D02*
X108458000Y-54610000D01*
X108458000Y-54610000D02*
X107188000Y-55880000D01*
X100838000Y-54610000D02*
X98044000Y-54610000D01*
X101600000Y-55372000D02*
X100838000Y-54610000D01*
X106680000Y-55880000D02*
X106172000Y-55372000D01*
X114300000Y-55880000D02*
X113792000Y-55372000D01*
X98044000Y-54610000D02*
X96774000Y-55880000D01*
X96774000Y-55880000D02*
X96520000Y-55880000D01*
X110998000Y-55372000D02*
X110236000Y-54610000D01*
X113792000Y-55372000D02*
X110998000Y-55372000D01*
X106172000Y-55372000D02*
X101600000Y-55372000D01*
G04 #@! TO.N,/D2*
X98044000Y-52070000D02*
X96774000Y-53340000D01*
X100838000Y-52070000D02*
X98044000Y-52070000D01*
X106680000Y-53340000D02*
X106172000Y-52832000D01*
X96774000Y-53340000D02*
X96520000Y-53340000D01*
X110998000Y-52832000D02*
X110236000Y-52070000D01*
X108458000Y-52070000D02*
X107188000Y-53340000D01*
X107188000Y-53340000D02*
X106680000Y-53340000D01*
X106172000Y-52832000D02*
X101600000Y-52832000D01*
X113792000Y-52832000D02*
X110998000Y-52832000D01*
X110236000Y-52070000D02*
X108458000Y-52070000D01*
X101600000Y-52832000D02*
X100838000Y-52070000D01*
X114300000Y-53340000D02*
X113792000Y-52832000D01*
G04 #@! TO.N,/D3*
X106680000Y-50800000D02*
X106172000Y-50292000D01*
X110998000Y-50292000D02*
X110236000Y-49530000D01*
X114300000Y-50800000D02*
X113792000Y-50292000D01*
X108458000Y-49530000D02*
X107188000Y-50800000D01*
X101600000Y-50292000D02*
X100838000Y-49530000D01*
X96774000Y-50800000D02*
X96520000Y-50800000D01*
X100838000Y-49530000D02*
X98044000Y-49530000D01*
X98044000Y-49530000D02*
X96774000Y-50800000D01*
X106172000Y-50292000D02*
X101600000Y-50292000D01*
X113792000Y-50292000D02*
X110998000Y-50292000D01*
X107188000Y-50800000D02*
X106680000Y-50800000D01*
X110236000Y-49530000D02*
X108458000Y-49530000D01*
G04 #@! TO.N,/D4*
X110236000Y-46990000D02*
X108458000Y-46990000D01*
X98044000Y-46990000D02*
X96774000Y-48260000D01*
X100838000Y-46990000D02*
X98044000Y-46990000D01*
X96774000Y-48260000D02*
X96520000Y-48260000D01*
X101600000Y-47752000D02*
X100838000Y-46990000D01*
X106680000Y-48260000D02*
X106172000Y-47752000D01*
X114300000Y-48260000D02*
X113792000Y-47752000D01*
X106172000Y-47752000D02*
X101600000Y-47752000D01*
X113792000Y-47752000D02*
X110998000Y-47752000D01*
X110998000Y-47752000D02*
X110236000Y-46990000D01*
X107188000Y-48260000D02*
X106680000Y-48260000D01*
X108458000Y-46990000D02*
X107188000Y-48260000D01*
G04 #@! TO.N,/D5*
X98044000Y-44450000D02*
X96774000Y-45720000D01*
X110998000Y-45212000D02*
X110236000Y-44450000D01*
X107188000Y-45720000D02*
X106680000Y-45720000D01*
X96774000Y-45720000D02*
X96520000Y-45720000D01*
X113792000Y-45212000D02*
X110998000Y-45212000D01*
X101600000Y-45212000D02*
X100838000Y-44450000D01*
X106680000Y-45720000D02*
X106172000Y-45212000D01*
X106172000Y-45212000D02*
X101600000Y-45212000D01*
X100838000Y-44450000D02*
X98044000Y-44450000D01*
X114300000Y-45720000D02*
X113792000Y-45212000D01*
X110236000Y-44450000D02*
X108458000Y-44450000D01*
X108458000Y-44450000D02*
X107188000Y-45720000D01*
G04 #@! TO.N,/D6*
X100838000Y-41910000D02*
X98044000Y-41910000D01*
X106172000Y-42672000D02*
X101600000Y-42672000D01*
X114300000Y-43180000D02*
X113792000Y-42672000D01*
X110236000Y-41910000D02*
X108458000Y-41910000D01*
X108458000Y-41910000D02*
X107188000Y-43180000D01*
X98044000Y-41910000D02*
X96774000Y-43180000D01*
X113792000Y-42672000D02*
X110998000Y-42672000D01*
X96774000Y-43180000D02*
X96520000Y-43180000D01*
X101600000Y-42672000D02*
X100838000Y-41910000D01*
X106680000Y-43180000D02*
X106172000Y-42672000D01*
X110998000Y-42672000D02*
X110236000Y-41910000D01*
X107188000Y-43180000D02*
X106680000Y-43180000D01*
G04 #@! TO.N,/D7*
X100838000Y-39370000D02*
X98044000Y-39370000D01*
X106172000Y-40132000D02*
X101600000Y-40132000D01*
X114300000Y-40640000D02*
X113792000Y-40132000D01*
X110236000Y-39370000D02*
X108458000Y-39370000D01*
X108458000Y-39370000D02*
X107188000Y-40640000D01*
X98044000Y-39370000D02*
X96774000Y-40640000D01*
X113792000Y-40132000D02*
X110998000Y-40132000D01*
X96774000Y-40640000D02*
X96520000Y-40640000D01*
X101600000Y-40132000D02*
X100838000Y-39370000D01*
X106680000Y-40640000D02*
X106172000Y-40132000D01*
X110998000Y-40132000D02*
X110236000Y-39370000D01*
X107188000Y-40640000D02*
X106680000Y-40640000D01*
G04 #@! TO.N,/CH_CK*
X100838000Y-36830000D02*
X98044000Y-36830000D01*
X96774000Y-38100000D02*
X96520000Y-38100000D01*
X98044000Y-36830000D02*
X96774000Y-38100000D01*
X101600000Y-37592000D02*
X100838000Y-36830000D01*
X106680000Y-38100000D02*
X106172000Y-37592000D01*
X106172000Y-37592000D02*
X101600000Y-37592000D01*
X108458000Y-36830000D02*
X107188000Y-38100000D01*
X110236000Y-36830000D02*
X108458000Y-36830000D01*
X114300000Y-38100000D02*
X113792000Y-37592000D01*
X113792000Y-37592000D02*
X110998000Y-37592000D01*
X110998000Y-37592000D02*
X110236000Y-36830000D01*
X107188000Y-38100000D02*
X106680000Y-38100000D01*
G04 #@! TO.N,/OSC88*
X107696000Y-113030000D02*
X108966000Y-111760000D01*
X104902000Y-113030000D02*
X107696000Y-113030000D01*
X91948000Y-112268000D02*
X94742000Y-112268000D01*
X99568000Y-112268000D02*
X104140000Y-112268000D01*
X104140000Y-112268000D02*
X104902000Y-113030000D01*
X98552000Y-111760000D02*
X99060000Y-111760000D01*
X95504000Y-113030000D02*
X97282000Y-113030000D01*
X108966000Y-111760000D02*
X109220000Y-111760000D01*
X91440000Y-111760000D02*
X91948000Y-112268000D01*
X99060000Y-111760000D02*
X99568000Y-112268000D01*
X94742000Y-112268000D02*
X95504000Y-113030000D01*
X97282000Y-113030000D02*
X98552000Y-111760000D01*
D18*
G04 #@! TO.N,/5+*
X104902000Y-44450000D02*
X107696000Y-44450000D01*
X108966000Y-43180000D02*
X109220000Y-43180000D01*
X107696000Y-44450000D02*
X108966000Y-43180000D01*
X104140000Y-43688000D02*
X104902000Y-44450000D01*
X99060000Y-43180000D02*
X99568000Y-43688000D01*
X99568000Y-43688000D02*
X101600000Y-43688000D01*
X97282000Y-44450000D02*
X98552000Y-43180000D01*
X95504000Y-44450000D02*
X97282000Y-44450000D01*
X91440000Y-43180000D02*
X91948000Y-43688000D01*
X91948000Y-43688000D02*
X94742000Y-43688000D01*
X94742000Y-43688000D02*
X95504000Y-44450000D01*
X98552000Y-43180000D02*
X99060000Y-43180000D01*
X97282000Y-110490000D02*
X98552000Y-109220000D01*
X94742000Y-109728000D02*
X95504000Y-110490000D01*
X91948000Y-109728000D02*
X94742000Y-109728000D01*
X91440000Y-109220000D02*
X91948000Y-109728000D01*
X108966000Y-109220000D02*
X109220000Y-109220000D01*
X95504000Y-110490000D02*
X97282000Y-110490000D01*
X104140000Y-109728000D02*
X104902000Y-110490000D01*
X99060000Y-109220000D02*
X99568000Y-109728000D01*
X104902000Y-110490000D02*
X107696000Y-110490000D01*
X107696000Y-110490000D02*
X108966000Y-109220000D01*
X98552000Y-109220000D02*
X99060000Y-109220000D01*
X99568000Y-109728000D02*
X104140000Y-109728000D01*
X101600000Y-43688000D02*
X104140000Y-43688000D01*
X97536000Y-28408000D02*
X94782000Y-28408000D01*
X94782000Y-28408000D02*
X94742000Y-28448000D01*
D19*
G04 #@! TO.N,/ALE*
X104140000Y-107188000D02*
X104902000Y-107950000D01*
X107696000Y-107950000D02*
X108966000Y-106680000D01*
X104902000Y-107950000D02*
X107696000Y-107950000D01*
X91948000Y-107188000D02*
X94742000Y-107188000D01*
X99568000Y-107188000D02*
X104140000Y-107188000D01*
X91440000Y-106680000D02*
X91948000Y-107188000D01*
X97282000Y-107950000D02*
X98552000Y-106680000D01*
X99060000Y-106680000D02*
X99568000Y-107188000D01*
X94742000Y-107188000D02*
X95504000Y-107950000D01*
X98552000Y-106680000D02*
X99060000Y-106680000D01*
X95504000Y-107950000D02*
X97282000Y-107950000D01*
X108966000Y-106680000D02*
X109220000Y-106680000D01*
G04 #@! TO.N,/TC*
X94742000Y-104648000D02*
X95504000Y-105410000D01*
X91948000Y-104648000D02*
X94742000Y-104648000D01*
X91440000Y-104140000D02*
X91948000Y-104648000D01*
X95504000Y-105410000D02*
X97282000Y-105410000D01*
X108966000Y-104140000D02*
X109220000Y-104140000D01*
X104140000Y-104648000D02*
X104902000Y-105410000D01*
X99060000Y-104140000D02*
X99568000Y-104648000D01*
X104902000Y-105410000D02*
X107696000Y-105410000D01*
X99568000Y-104648000D02*
X104140000Y-104648000D01*
X98552000Y-104140000D02*
X99060000Y-104140000D01*
X107696000Y-105410000D02*
X108966000Y-104140000D01*
X97282000Y-105410000D02*
X98552000Y-104140000D01*
G04 #@! TO.N,/DACK2*
X108966000Y-101600000D02*
X109220000Y-101600000D01*
X98552000Y-101600000D02*
X99060000Y-101600000D01*
X95504000Y-102870000D02*
X97282000Y-102870000D01*
X99060000Y-101600000D02*
X99568000Y-102108000D01*
X94742000Y-102108000D02*
X95504000Y-102870000D01*
X91440000Y-101600000D02*
X91948000Y-102108000D01*
X99568000Y-102108000D02*
X104140000Y-102108000D01*
X104140000Y-102108000D02*
X104902000Y-102870000D01*
X97282000Y-102870000D02*
X98552000Y-101600000D01*
X107696000Y-102870000D02*
X108966000Y-101600000D01*
X104902000Y-102870000D02*
X107696000Y-102870000D01*
X91948000Y-102108000D02*
X94742000Y-102108000D01*
G04 #@! TO.N,/IRQ3*
X99060000Y-99060000D02*
X99568000Y-99568000D01*
X107696000Y-100330000D02*
X108966000Y-99060000D01*
X104902000Y-100330000D02*
X107696000Y-100330000D01*
X97282000Y-100330000D02*
X98552000Y-99060000D01*
X99568000Y-99568000D02*
X104140000Y-99568000D01*
X98552000Y-99060000D02*
X99060000Y-99060000D01*
X108966000Y-99060000D02*
X109220000Y-99060000D01*
X91948000Y-99568000D02*
X94742000Y-99568000D01*
X94742000Y-99568000D02*
X95504000Y-100330000D01*
X104140000Y-99568000D02*
X104902000Y-100330000D01*
X91440000Y-99060000D02*
X91948000Y-99568000D01*
X95504000Y-100330000D02*
X97282000Y-100330000D01*
G04 #@! TO.N,/IRQ4*
X107696000Y-97790000D02*
X108966000Y-96520000D01*
X104902000Y-97790000D02*
X107696000Y-97790000D01*
X97282000Y-97790000D02*
X98552000Y-96520000D01*
X91948000Y-97028000D02*
X94742000Y-97028000D01*
X94742000Y-97028000D02*
X95504000Y-97790000D01*
X99568000Y-97028000D02*
X104140000Y-97028000D01*
X98552000Y-96520000D02*
X99060000Y-96520000D01*
X108966000Y-96520000D02*
X109220000Y-96520000D01*
X91440000Y-96520000D02*
X91948000Y-97028000D01*
X99060000Y-96520000D02*
X99568000Y-97028000D01*
X95504000Y-97790000D02*
X97282000Y-97790000D01*
X104140000Y-97028000D02*
X104902000Y-97790000D01*
G04 #@! TO.N,/IRQ5*
X91440000Y-93980000D02*
X91948000Y-94488000D01*
X95504000Y-95250000D02*
X97282000Y-95250000D01*
X97282000Y-95250000D02*
X98552000Y-93980000D01*
X99060000Y-93980000D02*
X99568000Y-94488000D01*
X104902000Y-95250000D02*
X107696000Y-95250000D01*
X108966000Y-93980000D02*
X109220000Y-93980000D01*
X99568000Y-94488000D02*
X104140000Y-94488000D01*
X107696000Y-95250000D02*
X108966000Y-93980000D01*
X98552000Y-93980000D02*
X99060000Y-93980000D01*
X104140000Y-94488000D02*
X104902000Y-95250000D01*
X91948000Y-94488000D02*
X94742000Y-94488000D01*
X94742000Y-94488000D02*
X95504000Y-95250000D01*
G04 #@! TO.N,/IRQ6*
X98552000Y-91440000D02*
X99060000Y-91440000D01*
X99060000Y-91440000D02*
X99568000Y-91948000D01*
X104140000Y-91948000D02*
X104902000Y-92710000D01*
X108966000Y-91440000D02*
X109220000Y-91440000D01*
X95504000Y-92710000D02*
X97282000Y-92710000D01*
X99568000Y-91948000D02*
X104140000Y-91948000D01*
X91440000Y-91440000D02*
X91948000Y-91948000D01*
X97282000Y-92710000D02*
X98552000Y-91440000D01*
X91948000Y-91948000D02*
X94742000Y-91948000D01*
X107696000Y-92710000D02*
X108966000Y-91440000D01*
X94742000Y-91948000D02*
X95504000Y-92710000D01*
X104902000Y-92710000D02*
X107696000Y-92710000D01*
G04 #@! TO.N,/IRQ7*
X91948000Y-89408000D02*
X94742000Y-89408000D01*
X104140000Y-89408000D02*
X104902000Y-90170000D01*
X98552000Y-88900000D02*
X99060000Y-88900000D01*
X94742000Y-89408000D02*
X95504000Y-90170000D01*
X107696000Y-90170000D02*
X108966000Y-88900000D01*
X99568000Y-89408000D02*
X104140000Y-89408000D01*
X95504000Y-90170000D02*
X97282000Y-90170000D01*
X104902000Y-90170000D02*
X107696000Y-90170000D01*
X97282000Y-90170000D02*
X98552000Y-88900000D01*
X91440000Y-88900000D02*
X91948000Y-89408000D01*
X108966000Y-88900000D02*
X109220000Y-88900000D01*
X99060000Y-88900000D02*
X99568000Y-89408000D01*
G04 #@! TO.N,/CLK88*
X91948000Y-86868000D02*
X94742000Y-86868000D01*
X107696000Y-87630000D02*
X108966000Y-86360000D01*
X94742000Y-86868000D02*
X95504000Y-87630000D01*
X104902000Y-87630000D02*
X107696000Y-87630000D01*
X97282000Y-87630000D02*
X98552000Y-86360000D01*
X108966000Y-86360000D02*
X109220000Y-86360000D01*
X99568000Y-86868000D02*
X104140000Y-86868000D01*
X91440000Y-86360000D02*
X91948000Y-86868000D01*
X104140000Y-86868000D02*
X104902000Y-87630000D01*
X95504000Y-87630000D02*
X97282000Y-87630000D01*
X98552000Y-86360000D02*
X99060000Y-86360000D01*
X99060000Y-86360000D02*
X99568000Y-86868000D01*
G04 #@! TO.N,/REFRQ*
X108966000Y-83820000D02*
X109220000Y-83820000D01*
X104902000Y-85090000D02*
X107696000Y-85090000D01*
X97282000Y-85090000D02*
X98552000Y-83820000D01*
X91440000Y-83820000D02*
X91948000Y-84328000D01*
X99060000Y-83820000D02*
X99568000Y-84328000D01*
X99568000Y-84328000D02*
X104140000Y-84328000D01*
X95504000Y-85090000D02*
X97282000Y-85090000D01*
X94742000Y-84328000D02*
X95504000Y-85090000D01*
X104140000Y-84328000D02*
X104902000Y-85090000D01*
X107696000Y-85090000D02*
X108966000Y-83820000D01*
X98552000Y-83820000D02*
X99060000Y-83820000D01*
X91948000Y-84328000D02*
X94742000Y-84328000D01*
G04 #@! TO.N,/DRQ1*
X107696000Y-82550000D02*
X108966000Y-81280000D01*
X94742000Y-81788000D02*
X95504000Y-82550000D01*
X108966000Y-81280000D02*
X109220000Y-81280000D01*
X97282000Y-82550000D02*
X98552000Y-81280000D01*
X91440000Y-81280000D02*
X91948000Y-81788000D01*
X95504000Y-82550000D02*
X97282000Y-82550000D01*
X99060000Y-81280000D02*
X99568000Y-81788000D01*
X104140000Y-81788000D02*
X104902000Y-82550000D01*
X91948000Y-81788000D02*
X94742000Y-81788000D01*
X99568000Y-81788000D02*
X104140000Y-81788000D01*
X104902000Y-82550000D02*
X107696000Y-82550000D01*
X98552000Y-81280000D02*
X99060000Y-81280000D01*
G04 #@! TO.N,/DACK1*
X107696000Y-80010000D02*
X108966000Y-78740000D01*
X94742000Y-79248000D02*
X95504000Y-80010000D01*
X97282000Y-80010000D02*
X98552000Y-78740000D01*
X99060000Y-78740000D02*
X99568000Y-79248000D01*
X99568000Y-79248000D02*
X104140000Y-79248000D01*
X91948000Y-79248000D02*
X94742000Y-79248000D01*
X95504000Y-80010000D02*
X97282000Y-80010000D01*
X104140000Y-79248000D02*
X104902000Y-80010000D01*
X98552000Y-78740000D02*
X99060000Y-78740000D01*
X91440000Y-78740000D02*
X91948000Y-79248000D01*
X108966000Y-78740000D02*
X109220000Y-78740000D01*
X104902000Y-80010000D02*
X107696000Y-80010000D01*
G04 #@! TO.N,/DRQ3*
X108966000Y-76200000D02*
X109220000Y-76200000D01*
X107696000Y-77470000D02*
X108966000Y-76200000D01*
X94742000Y-76708000D02*
X95504000Y-77470000D01*
X99568000Y-76708000D02*
X104140000Y-76708000D01*
X98552000Y-76200000D02*
X99060000Y-76200000D01*
X104902000Y-77470000D02*
X107696000Y-77470000D01*
X104140000Y-76708000D02*
X104902000Y-77470000D01*
X91948000Y-76708000D02*
X94742000Y-76708000D01*
X97282000Y-77470000D02*
X98552000Y-76200000D01*
X95504000Y-77470000D02*
X97282000Y-77470000D01*
X99060000Y-76200000D02*
X99568000Y-76708000D01*
X91440000Y-76200000D02*
X91948000Y-76708000D01*
G04 #@! TO.N,/DACK3*
X91948000Y-74168000D02*
X94742000Y-74168000D01*
X107696000Y-74930000D02*
X108966000Y-73660000D01*
X99060000Y-73660000D02*
X99568000Y-74168000D01*
X94742000Y-74168000D02*
X95504000Y-74930000D01*
X97282000Y-74930000D02*
X98552000Y-73660000D01*
X99568000Y-74168000D02*
X104140000Y-74168000D01*
X104902000Y-74930000D02*
X107696000Y-74930000D01*
X98552000Y-73660000D02*
X99060000Y-73660000D01*
X91440000Y-73660000D02*
X91948000Y-74168000D01*
X95504000Y-74930000D02*
X97282000Y-74930000D01*
X104140000Y-74168000D02*
X104902000Y-74930000D01*
X108966000Y-73660000D02*
X109220000Y-73660000D01*
G04 #@! TO.N,/IORD*
X94742000Y-71628000D02*
X95504000Y-72390000D01*
X107696000Y-72390000D02*
X108966000Y-71120000D01*
X98552000Y-71120000D02*
X99060000Y-71120000D01*
X99568000Y-71628000D02*
X104140000Y-71628000D01*
X91948000Y-71628000D02*
X94742000Y-71628000D01*
X91440000Y-71120000D02*
X91948000Y-71628000D01*
X97282000Y-72390000D02*
X98552000Y-71120000D01*
X95504000Y-72390000D02*
X97282000Y-72390000D01*
X104140000Y-71628000D02*
X104902000Y-72390000D01*
X99060000Y-71120000D02*
X99568000Y-71628000D01*
X104902000Y-72390000D02*
X107696000Y-72390000D01*
X108966000Y-71120000D02*
X109220000Y-71120000D01*
G04 #@! TO.N,/IOWR*
X107696000Y-69850000D02*
X108966000Y-68580000D01*
X97282000Y-69850000D02*
X98552000Y-68580000D01*
X99060000Y-68580000D02*
X99568000Y-69088000D01*
X94742000Y-69088000D02*
X95504000Y-69850000D01*
X99568000Y-69088000D02*
X104140000Y-69088000D01*
X98552000Y-68580000D02*
X99060000Y-68580000D01*
X108966000Y-68580000D02*
X109220000Y-68580000D01*
X95504000Y-69850000D02*
X97282000Y-69850000D01*
X104902000Y-69850000D02*
X107696000Y-69850000D01*
X91440000Y-68580000D02*
X91948000Y-69088000D01*
X104140000Y-69088000D02*
X104902000Y-69850000D01*
X91948000Y-69088000D02*
X94742000Y-69088000D01*
G04 #@! TO.N,/MRD*
X94742000Y-66548000D02*
X95504000Y-67310000D01*
X104140000Y-66548000D02*
X104902000Y-67310000D01*
X95504000Y-67310000D02*
X97282000Y-67310000D01*
X91440000Y-66040000D02*
X91948000Y-66548000D01*
X99060000Y-66040000D02*
X99568000Y-66548000D01*
X108966000Y-66040000D02*
X109220000Y-66040000D01*
X104902000Y-67310000D02*
X107696000Y-67310000D01*
X97282000Y-67310000D02*
X98552000Y-66040000D01*
X98552000Y-66040000D02*
X99060000Y-66040000D01*
X107696000Y-67310000D02*
X108966000Y-66040000D01*
X99568000Y-66548000D02*
X104140000Y-66548000D01*
X91948000Y-66548000D02*
X94742000Y-66548000D01*
G04 #@! TO.N,/MWR*
X107696000Y-64770000D02*
X108966000Y-63500000D01*
X97282000Y-64770000D02*
X98552000Y-63500000D01*
X99060000Y-63500000D02*
X99568000Y-64008000D01*
X94742000Y-64008000D02*
X95504000Y-64770000D01*
X108966000Y-63500000D02*
X109220000Y-63500000D01*
X104140000Y-64008000D02*
X104902000Y-64770000D01*
X98552000Y-63500000D02*
X99060000Y-63500000D01*
X95504000Y-64770000D02*
X97282000Y-64770000D01*
X104902000Y-64770000D02*
X107696000Y-64770000D01*
X91948000Y-64008000D02*
X94742000Y-64008000D01*
X91440000Y-63500000D02*
X91948000Y-64008000D01*
X99568000Y-64008000D02*
X104140000Y-64008000D01*
G04 #@! TO.N,/12+*
X107696000Y-59690000D02*
X108966000Y-58420000D01*
X97282000Y-59690000D02*
X98552000Y-58420000D01*
X99060000Y-58420000D02*
X99568000Y-58928000D01*
X94742000Y-58928000D02*
X95504000Y-59690000D01*
X104140000Y-58928000D02*
X104902000Y-59690000D01*
X98552000Y-58420000D02*
X99060000Y-58420000D01*
X95504000Y-59690000D02*
X97282000Y-59690000D01*
X104902000Y-59690000D02*
X107696000Y-59690000D01*
X108966000Y-58420000D02*
X109220000Y-58420000D01*
X99568000Y-58928000D02*
X104140000Y-58928000D01*
X91440000Y-58420000D02*
X91948000Y-58928000D01*
X91948000Y-58928000D02*
X94742000Y-58928000D01*
G04 #@! TO.N,/NC*
X104140000Y-56388000D02*
X104902000Y-57150000D01*
X94742000Y-56388000D02*
X95504000Y-57150000D01*
X91440000Y-55880000D02*
X91948000Y-56388000D01*
X99060000Y-55880000D02*
X99568000Y-56388000D01*
X108966000Y-55880000D02*
X109220000Y-55880000D01*
X97282000Y-57150000D02*
X98552000Y-55880000D01*
X104902000Y-57150000D02*
X107696000Y-57150000D01*
X98552000Y-55880000D02*
X99060000Y-55880000D01*
X95504000Y-57150000D02*
X97282000Y-57150000D01*
X99568000Y-56388000D02*
X104140000Y-56388000D01*
X91948000Y-56388000D02*
X94742000Y-56388000D01*
X107696000Y-57150000D02*
X108966000Y-55880000D01*
G04 #@! TO.N,/12-*
X94742000Y-53848000D02*
X95504000Y-54610000D01*
X97282000Y-54610000D02*
X98552000Y-53340000D01*
X99060000Y-53340000D02*
X99568000Y-53848000D01*
X107696000Y-54610000D02*
X108966000Y-53340000D01*
X108966000Y-53340000D02*
X109220000Y-53340000D01*
X104902000Y-54610000D02*
X107696000Y-54610000D01*
X104140000Y-53848000D02*
X104902000Y-54610000D01*
X91948000Y-53848000D02*
X94742000Y-53848000D01*
X99568000Y-53848000D02*
X104140000Y-53848000D01*
X95504000Y-54610000D02*
X97282000Y-54610000D01*
X98552000Y-53340000D02*
X99060000Y-53340000D01*
X91440000Y-53340000D02*
X91948000Y-53848000D01*
G04 #@! TO.N,/DRQ2*
X91440000Y-50800000D02*
X91948000Y-51308000D01*
X104140000Y-51308000D02*
X104902000Y-52070000D01*
X95504000Y-52070000D02*
X97282000Y-52070000D01*
X99568000Y-51308000D02*
X104140000Y-51308000D01*
X107696000Y-52070000D02*
X108966000Y-50800000D01*
X99060000Y-50800000D02*
X99568000Y-51308000D01*
X108966000Y-50800000D02*
X109220000Y-50800000D01*
X104902000Y-52070000D02*
X107696000Y-52070000D01*
X97282000Y-52070000D02*
X98552000Y-50800000D01*
X91948000Y-51308000D02*
X94742000Y-51308000D01*
X98552000Y-50800000D02*
X99060000Y-50800000D01*
X94742000Y-51308000D02*
X95504000Y-52070000D01*
G04 #@! TO.N,/5-*
X94742000Y-48768000D02*
X95504000Y-49530000D01*
X97282000Y-49530000D02*
X98552000Y-48260000D01*
X99568000Y-48768000D02*
X104140000Y-48768000D01*
X98552000Y-48260000D02*
X99060000Y-48260000D01*
X95504000Y-49530000D02*
X97282000Y-49530000D01*
X99060000Y-48260000D02*
X99568000Y-48768000D01*
X91440000Y-48260000D02*
X91948000Y-48768000D01*
X107696000Y-49530000D02*
X108966000Y-48260000D01*
X108966000Y-48260000D02*
X109220000Y-48260000D01*
X104902000Y-49530000D02*
X107696000Y-49530000D01*
X104140000Y-48768000D02*
X104902000Y-49530000D01*
X91948000Y-48768000D02*
X94742000Y-48768000D01*
G04 #@! TO.N,/IRQ2*
X98552000Y-45720000D02*
X99060000Y-45720000D01*
X94742000Y-46228000D02*
X95504000Y-46990000D01*
X91440000Y-45720000D02*
X91948000Y-46228000D01*
X91948000Y-46228000D02*
X94742000Y-46228000D01*
X107696000Y-46990000D02*
X108966000Y-45720000D01*
X108966000Y-45720000D02*
X109220000Y-45720000D01*
X104902000Y-46990000D02*
X107696000Y-46990000D01*
X97282000Y-46990000D02*
X98552000Y-45720000D01*
X99060000Y-45720000D02*
X99568000Y-46228000D01*
X104140000Y-46228000D02*
X104902000Y-46990000D01*
X95504000Y-46990000D02*
X97282000Y-46990000D01*
X99568000Y-46228000D02*
X104140000Y-46228000D01*
G04 #@! TO.N,/RESOUT*
X104902000Y-41910000D02*
X107696000Y-41910000D01*
X108966000Y-40640000D02*
X109220000Y-40640000D01*
X107696000Y-41910000D02*
X108966000Y-40640000D01*
X104140000Y-41148000D02*
X104902000Y-41910000D01*
X99060000Y-40640000D02*
X99568000Y-41148000D01*
X99568000Y-41148000D02*
X104140000Y-41148000D01*
X97282000Y-41910000D02*
X98552000Y-40640000D01*
X95504000Y-41910000D02*
X97282000Y-41910000D01*
X91440000Y-40640000D02*
X91948000Y-41148000D01*
X91948000Y-41148000D02*
X94742000Y-41148000D01*
X94742000Y-41148000D02*
X95504000Y-41910000D01*
X98552000Y-40640000D02*
X99060000Y-40640000D01*
G04 #@! TD*
M02*
