G04 #@! TF.GenerationSoftware,KiCad,Pcbnew,(5.1.8)-1*
G04 #@! TF.CreationDate,2025-01-31T06:48:15-07:00*
G04 #@! TF.ProjectId,Breadboard Adapter,42726561-6462-46f6-9172-642041646170,rev?*
G04 #@! TF.SameCoordinates,Original*
G04 #@! TF.FileFunction,Legend,Top*
G04 #@! TF.FilePolarity,Positive*
%FSLAX46Y46*%
G04 Gerber Fmt 4.6, Leading zero omitted, Abs format (unit mm)*
G04 Created by KiCad (PCBNEW (5.1.8)-1) date 2025-01-31 06:48:15*
%MOMM*%
%LPD*%
G01*
G04 APERTURE LIST*
%ADD10C,0.114300*%
%ADD11C,0.150000*%
%ADD12C,0.101600*%
%ADD13C,0.076200*%
%ADD14C,0.120000*%
G04 APERTURE END LIST*
D10*
X156901152Y-24844828D02*
X156901152Y-24387628D01*
X157075323Y-24387628D01*
X157118866Y-24409400D01*
X157140637Y-24431171D01*
X157162409Y-24474714D01*
X157162409Y-24540028D01*
X157140637Y-24583571D01*
X157118866Y-24605342D01*
X157075323Y-24627114D01*
X156901152Y-24627114D01*
X157445437Y-24387628D02*
X157532523Y-24387628D01*
X157576066Y-24409400D01*
X157619609Y-24452942D01*
X157641380Y-24540028D01*
X157641380Y-24692428D01*
X157619609Y-24779514D01*
X157576066Y-24823057D01*
X157532523Y-24844828D01*
X157445437Y-24844828D01*
X157401895Y-24823057D01*
X157358352Y-24779514D01*
X157336580Y-24692428D01*
X157336580Y-24540028D01*
X157358352Y-24452942D01*
X157401895Y-24409400D01*
X157445437Y-24387628D01*
X157793780Y-24387628D02*
X157902637Y-24844828D01*
X157989723Y-24518257D01*
X158076809Y-24844828D01*
X158185666Y-24387628D01*
X158359837Y-24605342D02*
X158512237Y-24605342D01*
X158577552Y-24844828D02*
X158359837Y-24844828D01*
X158359837Y-24387628D01*
X158577552Y-24387628D01*
X159034752Y-24844828D02*
X158882352Y-24627114D01*
X158773495Y-24844828D02*
X158773495Y-24387628D01*
X158947666Y-24387628D01*
X158991209Y-24409400D01*
X159012980Y-24431171D01*
X159034752Y-24474714D01*
X159034752Y-24540028D01*
X159012980Y-24583571D01*
X158991209Y-24605342D01*
X158947666Y-24627114D01*
X158773495Y-24627114D01*
X159579037Y-24844828D02*
X159579037Y-24387628D01*
X159796752Y-24844828D02*
X159796752Y-24387628D01*
X160058009Y-24844828D01*
X160058009Y-24387628D01*
X160275723Y-24844828D02*
X160275723Y-24387628D01*
X160449895Y-24387628D01*
X160493437Y-24409400D01*
X160515209Y-24431171D01*
X160536980Y-24474714D01*
X160536980Y-24540028D01*
X160515209Y-24583571D01*
X160493437Y-24605342D01*
X160449895Y-24627114D01*
X160275723Y-24627114D01*
X160732923Y-24387628D02*
X160732923Y-24757742D01*
X160754695Y-24801285D01*
X160776466Y-24823057D01*
X160820009Y-24844828D01*
X160907095Y-24844828D01*
X160950637Y-24823057D01*
X160972409Y-24801285D01*
X160994180Y-24757742D01*
X160994180Y-24387628D01*
X161146580Y-24387628D02*
X161407837Y-24387628D01*
X161277209Y-24844828D02*
X161277209Y-24387628D01*
X161995666Y-24387628D02*
X162082752Y-24387628D01*
X162126295Y-24409400D01*
X162169837Y-24452942D01*
X162191609Y-24540028D01*
X162191609Y-24692428D01*
X162169837Y-24779514D01*
X162126295Y-24823057D01*
X162082752Y-24844828D01*
X161995666Y-24844828D01*
X161952123Y-24823057D01*
X161908580Y-24779514D01*
X161886809Y-24692428D01*
X161886809Y-24540028D01*
X161908580Y-24452942D01*
X161952123Y-24409400D01*
X161995666Y-24387628D01*
X162387552Y-24844828D02*
X162387552Y-24387628D01*
X162648809Y-24844828D01*
X162648809Y-24387628D01*
X163084237Y-24844828D02*
X162866523Y-24844828D01*
X162866523Y-24387628D01*
X163323723Y-24627114D02*
X163323723Y-24844828D01*
X163171323Y-24387628D02*
X163323723Y-24627114D01*
X163476123Y-24387628D01*
D11*
X89489595Y-13963571D02*
X89822928Y-13963571D01*
X89965785Y-14487380D02*
X89489595Y-14487380D01*
X89489595Y-13487380D01*
X89965785Y-13487380D01*
X90394357Y-14487380D02*
X90394357Y-13487380D01*
X90727690Y-14201666D01*
X91061023Y-13487380D01*
X91061023Y-14487380D01*
X91537214Y-14487380D02*
X91537214Y-13487380D01*
X91870547Y-14201666D01*
X92203880Y-13487380D01*
X92203880Y-14487380D01*
X94013404Y-14392142D02*
X93965785Y-14439761D01*
X93822928Y-14487380D01*
X93727690Y-14487380D01*
X93584833Y-14439761D01*
X93489595Y-14344523D01*
X93441976Y-14249285D01*
X93394357Y-14058809D01*
X93394357Y-13915952D01*
X93441976Y-13725476D01*
X93489595Y-13630238D01*
X93584833Y-13535000D01*
X93727690Y-13487380D01*
X93822928Y-13487380D01*
X93965785Y-13535000D01*
X94013404Y-13582619D01*
X94632452Y-13487380D02*
X94822928Y-13487380D01*
X94918166Y-13535000D01*
X95013404Y-13630238D01*
X95061023Y-13820714D01*
X95061023Y-14154047D01*
X95013404Y-14344523D01*
X94918166Y-14439761D01*
X94822928Y-14487380D01*
X94632452Y-14487380D01*
X94537214Y-14439761D01*
X94441976Y-14344523D01*
X94394357Y-14154047D01*
X94394357Y-13820714D01*
X94441976Y-13630238D01*
X94537214Y-13535000D01*
X94632452Y-13487380D01*
X95489595Y-14487380D02*
X95489595Y-13487380D01*
X95822928Y-14201666D01*
X96156261Y-13487380D01*
X96156261Y-14487380D01*
X96632452Y-14487380D02*
X96632452Y-13487380D01*
X97013404Y-13487380D01*
X97108642Y-13535000D01*
X97156261Y-13582619D01*
X97203880Y-13677857D01*
X97203880Y-13820714D01*
X97156261Y-13915952D01*
X97108642Y-13963571D01*
X97013404Y-14011190D01*
X96632452Y-14011190D01*
X97632452Y-13487380D02*
X97632452Y-14296904D01*
X97680071Y-14392142D01*
X97727690Y-14439761D01*
X97822928Y-14487380D01*
X98013404Y-14487380D01*
X98108642Y-14439761D01*
X98156261Y-14392142D01*
X98203880Y-14296904D01*
X98203880Y-13487380D01*
X98537214Y-13487380D02*
X99108642Y-13487380D01*
X98822928Y-14487380D02*
X98822928Y-13487380D01*
X99441976Y-13963571D02*
X99775309Y-13963571D01*
X99918166Y-14487380D02*
X99441976Y-14487380D01*
X99441976Y-13487380D01*
X99918166Y-13487380D01*
X100918166Y-14487380D02*
X100584833Y-14011190D01*
X100346738Y-14487380D02*
X100346738Y-13487380D01*
X100727690Y-13487380D01*
X100822928Y-13535000D01*
X100870547Y-13582619D01*
X100918166Y-13677857D01*
X100918166Y-13820714D01*
X100870547Y-13915952D01*
X100822928Y-13963571D01*
X100727690Y-14011190D01*
X100346738Y-14011190D01*
X101299119Y-14439761D02*
X101441976Y-14487380D01*
X101680071Y-14487380D01*
X101775309Y-14439761D01*
X101822928Y-14392142D01*
X101870547Y-14296904D01*
X101870547Y-14201666D01*
X101822928Y-14106428D01*
X101775309Y-14058809D01*
X101680071Y-14011190D01*
X101489595Y-13963571D01*
X101394357Y-13915952D01*
X101346738Y-13868333D01*
X101299119Y-13773095D01*
X101299119Y-13677857D01*
X101346738Y-13582619D01*
X101394357Y-13535000D01*
X101489595Y-13487380D01*
X101727690Y-13487380D01*
X101870547Y-13535000D01*
X89822928Y-15613571D02*
X89965785Y-15661190D01*
X90013404Y-15708809D01*
X90061023Y-15804047D01*
X90061023Y-15946904D01*
X90013404Y-16042142D01*
X89965785Y-16089761D01*
X89870547Y-16137380D01*
X89489595Y-16137380D01*
X89489595Y-15137380D01*
X89822928Y-15137380D01*
X89918166Y-15185000D01*
X89965785Y-15232619D01*
X90013404Y-15327857D01*
X90013404Y-15423095D01*
X89965785Y-15518333D01*
X89918166Y-15565952D01*
X89822928Y-15613571D01*
X89489595Y-15613571D01*
X91061023Y-16137380D02*
X90727690Y-15661190D01*
X90489595Y-16137380D02*
X90489595Y-15137380D01*
X90870547Y-15137380D01*
X90965785Y-15185000D01*
X91013404Y-15232619D01*
X91061023Y-15327857D01*
X91061023Y-15470714D01*
X91013404Y-15565952D01*
X90965785Y-15613571D01*
X90870547Y-15661190D01*
X90489595Y-15661190D01*
X91489595Y-15613571D02*
X91822928Y-15613571D01*
X91965785Y-16137380D02*
X91489595Y-16137380D01*
X91489595Y-15137380D01*
X91965785Y-15137380D01*
X92346738Y-15851666D02*
X92822928Y-15851666D01*
X92251500Y-16137380D02*
X92584833Y-15137380D01*
X92918166Y-16137380D01*
X93251500Y-16137380D02*
X93251500Y-15137380D01*
X93489595Y-15137380D01*
X93632452Y-15185000D01*
X93727690Y-15280238D01*
X93775309Y-15375476D01*
X93822928Y-15565952D01*
X93822928Y-15708809D01*
X93775309Y-15899285D01*
X93727690Y-15994523D01*
X93632452Y-16089761D01*
X93489595Y-16137380D01*
X93251500Y-16137380D01*
X94584833Y-15613571D02*
X94727690Y-15661190D01*
X94775309Y-15708809D01*
X94822928Y-15804047D01*
X94822928Y-15946904D01*
X94775309Y-16042142D01*
X94727690Y-16089761D01*
X94632452Y-16137380D01*
X94251500Y-16137380D01*
X94251500Y-15137380D01*
X94584833Y-15137380D01*
X94680071Y-15185000D01*
X94727690Y-15232619D01*
X94775309Y-15327857D01*
X94775309Y-15423095D01*
X94727690Y-15518333D01*
X94680071Y-15565952D01*
X94584833Y-15613571D01*
X94251500Y-15613571D01*
X95441976Y-15137380D02*
X95632452Y-15137380D01*
X95727690Y-15185000D01*
X95822928Y-15280238D01*
X95870547Y-15470714D01*
X95870547Y-15804047D01*
X95822928Y-15994523D01*
X95727690Y-16089761D01*
X95632452Y-16137380D01*
X95441976Y-16137380D01*
X95346738Y-16089761D01*
X95251500Y-15994523D01*
X95203880Y-15804047D01*
X95203880Y-15470714D01*
X95251500Y-15280238D01*
X95346738Y-15185000D01*
X95441976Y-15137380D01*
X96251500Y-15851666D02*
X96727690Y-15851666D01*
X96156261Y-16137380D02*
X96489595Y-15137380D01*
X96822928Y-16137380D01*
X97727690Y-16137380D02*
X97394357Y-15661190D01*
X97156261Y-16137380D02*
X97156261Y-15137380D01*
X97537214Y-15137380D01*
X97632452Y-15185000D01*
X97680071Y-15232619D01*
X97727690Y-15327857D01*
X97727690Y-15470714D01*
X97680071Y-15565952D01*
X97632452Y-15613571D01*
X97537214Y-15661190D01*
X97156261Y-15661190D01*
X98156261Y-16137380D02*
X98156261Y-15137380D01*
X98394357Y-15137380D01*
X98537214Y-15185000D01*
X98632452Y-15280238D01*
X98680071Y-15375476D01*
X98727690Y-15565952D01*
X98727690Y-15708809D01*
X98680071Y-15899285D01*
X98632452Y-15994523D01*
X98537214Y-16089761D01*
X98394357Y-16137380D01*
X98156261Y-16137380D01*
X99870547Y-15851666D02*
X100346738Y-15851666D01*
X99775309Y-16137380D02*
X100108642Y-15137380D01*
X100441976Y-16137380D01*
X100775309Y-16137380D02*
X100775309Y-15137380D01*
X101013404Y-15137380D01*
X101156261Y-15185000D01*
X101251500Y-15280238D01*
X101299119Y-15375476D01*
X101346738Y-15565952D01*
X101346738Y-15708809D01*
X101299119Y-15899285D01*
X101251500Y-15994523D01*
X101156261Y-16089761D01*
X101013404Y-16137380D01*
X100775309Y-16137380D01*
X101727690Y-15851666D02*
X102203880Y-15851666D01*
X101632452Y-16137380D02*
X101965785Y-15137380D01*
X102299119Y-16137380D01*
X102632452Y-16137380D02*
X102632452Y-15137380D01*
X103013404Y-15137380D01*
X103108642Y-15185000D01*
X103156261Y-15232619D01*
X103203880Y-15327857D01*
X103203880Y-15470714D01*
X103156261Y-15565952D01*
X103108642Y-15613571D01*
X103013404Y-15661190D01*
X102632452Y-15661190D01*
X103489595Y-15137380D02*
X104061023Y-15137380D01*
X103775309Y-16137380D02*
X103775309Y-15137380D01*
X104394357Y-15613571D02*
X104727690Y-15613571D01*
X104870547Y-16137380D02*
X104394357Y-16137380D01*
X104394357Y-15137380D01*
X104870547Y-15137380D01*
X105870547Y-16137380D02*
X105537214Y-15661190D01*
X105299119Y-16137380D02*
X105299119Y-15137380D01*
X105680071Y-15137380D01*
X105775309Y-15185000D01*
X105822928Y-15232619D01*
X105870547Y-15327857D01*
X105870547Y-15470714D01*
X105822928Y-15565952D01*
X105775309Y-15613571D01*
X105680071Y-15661190D01*
X105299119Y-15661190D01*
X107775309Y-15089761D02*
X106918166Y-16375476D01*
X108822928Y-15851666D02*
X109299119Y-15851666D01*
X108727690Y-16137380D02*
X109061023Y-15137380D01*
X109394357Y-16137380D01*
X109584833Y-15137380D02*
X110156261Y-15137380D01*
X109870547Y-16137380D02*
X109870547Y-15137380D01*
X110394357Y-15137380D02*
X111061023Y-16137380D01*
X111061023Y-15137380D02*
X110394357Y-16137380D01*
X112775309Y-16042142D02*
X112727690Y-16089761D01*
X112584833Y-16137380D01*
X112489595Y-16137380D01*
X112346738Y-16089761D01*
X112251500Y-15994523D01*
X112203880Y-15899285D01*
X112156261Y-15708809D01*
X112156261Y-15565952D01*
X112203880Y-15375476D01*
X112251500Y-15280238D01*
X112346738Y-15185000D01*
X112489595Y-15137380D01*
X112584833Y-15137380D01*
X112727690Y-15185000D01*
X112775309Y-15232619D01*
X113156261Y-15851666D02*
X113632452Y-15851666D01*
X113061023Y-16137380D02*
X113394357Y-15137380D01*
X113727690Y-16137380D01*
X114013404Y-16089761D02*
X114156261Y-16137380D01*
X114394357Y-16137380D01*
X114489595Y-16089761D01*
X114537214Y-16042142D01*
X114584833Y-15946904D01*
X114584833Y-15851666D01*
X114537214Y-15756428D01*
X114489595Y-15708809D01*
X114394357Y-15661190D01*
X114203880Y-15613571D01*
X114108642Y-15565952D01*
X114061023Y-15518333D01*
X114013404Y-15423095D01*
X114013404Y-15327857D01*
X114061023Y-15232619D01*
X114108642Y-15185000D01*
X114203880Y-15137380D01*
X114441976Y-15137380D01*
X114584833Y-15185000D01*
X115013404Y-15613571D02*
X115346738Y-15613571D01*
X115489595Y-16137380D02*
X115013404Y-16137380D01*
X115013404Y-15137380D01*
X115489595Y-15137380D01*
X90061023Y-17692142D02*
X90013404Y-17739761D01*
X89870547Y-17787380D01*
X89775309Y-17787380D01*
X89632452Y-17739761D01*
X89537214Y-17644523D01*
X89489595Y-17549285D01*
X89441976Y-17358809D01*
X89441976Y-17215952D01*
X89489595Y-17025476D01*
X89537214Y-16930238D01*
X89632452Y-16835000D01*
X89775309Y-16787380D01*
X89870547Y-16787380D01*
X90013404Y-16835000D01*
X90061023Y-16882619D01*
X90632452Y-17787380D02*
X90537214Y-17739761D01*
X90489595Y-17692142D01*
X90441976Y-17596904D01*
X90441976Y-17311190D01*
X90489595Y-17215952D01*
X90537214Y-17168333D01*
X90632452Y-17120714D01*
X90775309Y-17120714D01*
X90870547Y-17168333D01*
X90918166Y-17215952D01*
X90965785Y-17311190D01*
X90965785Y-17596904D01*
X90918166Y-17692142D01*
X90870547Y-17739761D01*
X90775309Y-17787380D01*
X90632452Y-17787380D01*
X91394357Y-17120714D02*
X91394357Y-18120714D01*
X91394357Y-17168333D02*
X91489595Y-17120714D01*
X91680071Y-17120714D01*
X91775309Y-17168333D01*
X91822928Y-17215952D01*
X91870547Y-17311190D01*
X91870547Y-17596904D01*
X91822928Y-17692142D01*
X91775309Y-17739761D01*
X91680071Y-17787380D01*
X91489595Y-17787380D01*
X91394357Y-17739761D01*
X92203880Y-17120714D02*
X92441976Y-17787380D01*
X92680071Y-17120714D02*
X92441976Y-17787380D01*
X92346738Y-18025476D01*
X92299119Y-18073095D01*
X92203880Y-18120714D01*
X93061023Y-17787380D02*
X93061023Y-17120714D01*
X93061023Y-17311190D02*
X93108642Y-17215952D01*
X93156261Y-17168333D01*
X93251500Y-17120714D01*
X93346738Y-17120714D01*
X93680071Y-17787380D02*
X93680071Y-17120714D01*
X93680071Y-16787380D02*
X93632452Y-16835000D01*
X93680071Y-16882619D01*
X93727690Y-16835000D01*
X93680071Y-16787380D01*
X93680071Y-16882619D01*
X94584833Y-17120714D02*
X94584833Y-17930238D01*
X94537214Y-18025476D01*
X94489595Y-18073095D01*
X94394357Y-18120714D01*
X94251500Y-18120714D01*
X94156261Y-18073095D01*
X94584833Y-17739761D02*
X94489595Y-17787380D01*
X94299119Y-17787380D01*
X94203880Y-17739761D01*
X94156261Y-17692142D01*
X94108642Y-17596904D01*
X94108642Y-17311190D01*
X94156261Y-17215952D01*
X94203880Y-17168333D01*
X94299119Y-17120714D01*
X94489595Y-17120714D01*
X94584833Y-17168333D01*
X95061023Y-17787380D02*
X95061023Y-16787380D01*
X95489595Y-17787380D02*
X95489595Y-17263571D01*
X95441976Y-17168333D01*
X95346738Y-17120714D01*
X95203880Y-17120714D01*
X95108642Y-17168333D01*
X95061023Y-17215952D01*
X95822928Y-17120714D02*
X96203880Y-17120714D01*
X95965785Y-16787380D02*
X95965785Y-17644523D01*
X96013404Y-17739761D01*
X96108642Y-17787380D01*
X96203880Y-17787380D01*
X97584833Y-18168333D02*
X97537214Y-18120714D01*
X97441976Y-17977857D01*
X97394357Y-17882619D01*
X97346738Y-17739761D01*
X97299119Y-17501666D01*
X97299119Y-17311190D01*
X97346738Y-17073095D01*
X97394357Y-16930238D01*
X97441976Y-16835000D01*
X97537214Y-16692142D01*
X97584833Y-16644523D01*
X98537214Y-17692142D02*
X98489595Y-17739761D01*
X98346738Y-17787380D01*
X98251500Y-17787380D01*
X98108642Y-17739761D01*
X98013404Y-17644523D01*
X97965785Y-17549285D01*
X97918166Y-17358809D01*
X97918166Y-17215952D01*
X97965785Y-17025476D01*
X98013404Y-16930238D01*
X98108642Y-16835000D01*
X98251500Y-16787380D01*
X98346738Y-16787380D01*
X98489595Y-16835000D01*
X98537214Y-16882619D01*
X98870547Y-18168333D02*
X98918166Y-18120714D01*
X99013404Y-17977857D01*
X99061023Y-17882619D01*
X99108642Y-17739761D01*
X99156261Y-17501666D01*
X99156261Y-17311190D01*
X99108642Y-17073095D01*
X99061023Y-16930238D01*
X99013404Y-16835000D01*
X98918166Y-16692142D01*
X98870547Y-16644523D01*
X100346738Y-16882619D02*
X100394357Y-16835000D01*
X100489595Y-16787380D01*
X100727690Y-16787380D01*
X100822928Y-16835000D01*
X100870547Y-16882619D01*
X100918166Y-16977857D01*
X100918166Y-17073095D01*
X100870547Y-17215952D01*
X100299119Y-17787380D01*
X100918166Y-17787380D01*
X101537214Y-16787380D02*
X101632452Y-16787380D01*
X101727690Y-16835000D01*
X101775309Y-16882619D01*
X101822928Y-16977857D01*
X101870547Y-17168333D01*
X101870547Y-17406428D01*
X101822928Y-17596904D01*
X101775309Y-17692142D01*
X101727690Y-17739761D01*
X101632452Y-17787380D01*
X101537214Y-17787380D01*
X101441976Y-17739761D01*
X101394357Y-17692142D01*
X101346738Y-17596904D01*
X101299119Y-17406428D01*
X101299119Y-17168333D01*
X101346738Y-16977857D01*
X101394357Y-16882619D01*
X101441976Y-16835000D01*
X101537214Y-16787380D01*
X102251500Y-16882619D02*
X102299119Y-16835000D01*
X102394357Y-16787380D01*
X102632452Y-16787380D01*
X102727690Y-16835000D01*
X102775309Y-16882619D01*
X102822928Y-16977857D01*
X102822928Y-17073095D01*
X102775309Y-17215952D01*
X102203880Y-17787380D01*
X102822928Y-17787380D01*
X103727690Y-16787380D02*
X103251500Y-16787380D01*
X103203880Y-17263571D01*
X103251500Y-17215952D01*
X103346738Y-17168333D01*
X103584833Y-17168333D01*
X103680071Y-17215952D01*
X103727690Y-17263571D01*
X103775309Y-17358809D01*
X103775309Y-17596904D01*
X103727690Y-17692142D01*
X103680071Y-17739761D01*
X103584833Y-17787380D01*
X103346738Y-17787380D01*
X103251500Y-17739761D01*
X103203880Y-17692142D01*
X104965785Y-17263571D02*
X105299119Y-17263571D01*
X105441976Y-17787380D02*
X104965785Y-17787380D01*
X104965785Y-16787380D01*
X105441976Y-16787380D01*
X105870547Y-17787380D02*
X105870547Y-16787380D01*
X106203880Y-17501666D01*
X106537214Y-16787380D01*
X106537214Y-17787380D01*
X107013404Y-17787380D02*
X107013404Y-16787380D01*
X107346738Y-17501666D01*
X107680071Y-16787380D01*
X107680071Y-17787380D01*
X89394357Y-18770714D02*
X89584833Y-19437380D01*
X89775309Y-18961190D01*
X89965785Y-19437380D01*
X90156261Y-18770714D01*
X90441976Y-18770714D02*
X90632452Y-19437380D01*
X90822928Y-18961190D01*
X91013404Y-19437380D01*
X91203880Y-18770714D01*
X91489595Y-18770714D02*
X91680071Y-19437380D01*
X91870547Y-18961190D01*
X92061023Y-19437380D01*
X92251500Y-18770714D01*
X92632452Y-19342142D02*
X92680071Y-19389761D01*
X92632452Y-19437380D01*
X92584833Y-19389761D01*
X92632452Y-19342142D01*
X92632452Y-19437380D01*
X93108642Y-19437380D02*
X93108642Y-18437380D01*
X93537214Y-19437380D02*
X93537214Y-18913571D01*
X93489595Y-18818333D01*
X93394357Y-18770714D01*
X93251500Y-18770714D01*
X93156261Y-18818333D01*
X93108642Y-18865952D01*
X94156261Y-19437380D02*
X94061023Y-19389761D01*
X94013404Y-19342142D01*
X93965785Y-19246904D01*
X93965785Y-18961190D01*
X94013404Y-18865952D01*
X94061023Y-18818333D01*
X94156261Y-18770714D01*
X94299119Y-18770714D01*
X94394357Y-18818333D01*
X94441976Y-18865952D01*
X94489595Y-18961190D01*
X94489595Y-19246904D01*
X94441976Y-19342142D01*
X94394357Y-19389761D01*
X94299119Y-19437380D01*
X94156261Y-19437380D01*
X94918166Y-19437380D02*
X94918166Y-18770714D01*
X94918166Y-18865952D02*
X94965785Y-18818333D01*
X95061023Y-18770714D01*
X95203880Y-18770714D01*
X95299119Y-18818333D01*
X95346738Y-18913571D01*
X95346738Y-19437380D01*
X95346738Y-18913571D02*
X95394357Y-18818333D01*
X95489595Y-18770714D01*
X95632452Y-18770714D01*
X95727690Y-18818333D01*
X95775309Y-18913571D01*
X95775309Y-19437380D01*
X96632452Y-19389761D02*
X96537214Y-19437380D01*
X96346738Y-19437380D01*
X96251500Y-19389761D01*
X96203880Y-19294523D01*
X96203880Y-18913571D01*
X96251500Y-18818333D01*
X96346738Y-18770714D01*
X96537214Y-18770714D01*
X96632452Y-18818333D01*
X96680071Y-18913571D01*
X96680071Y-19008809D01*
X96203880Y-19104047D01*
X97108642Y-19437380D02*
X97108642Y-18437380D01*
X97108642Y-18818333D02*
X97203880Y-18770714D01*
X97394357Y-18770714D01*
X97489595Y-18818333D01*
X97537214Y-18865952D01*
X97584833Y-18961190D01*
X97584833Y-19246904D01*
X97537214Y-19342142D01*
X97489595Y-19389761D01*
X97394357Y-19437380D01*
X97203880Y-19437380D01*
X97108642Y-19389761D01*
X98013404Y-19437380D02*
X98013404Y-18770714D01*
X98013404Y-18961190D02*
X98061023Y-18865952D01*
X98108642Y-18818333D01*
X98203880Y-18770714D01*
X98299119Y-18770714D01*
X99013404Y-19389761D02*
X98918166Y-19437380D01*
X98727690Y-19437380D01*
X98632452Y-19389761D01*
X98584833Y-19294523D01*
X98584833Y-18913571D01*
X98632452Y-18818333D01*
X98727690Y-18770714D01*
X98918166Y-18770714D01*
X99013404Y-18818333D01*
X99061023Y-18913571D01*
X99061023Y-19008809D01*
X98584833Y-19104047D01*
X99394357Y-18770714D02*
X99584833Y-19437380D01*
X99775309Y-18961190D01*
X99965785Y-19437380D01*
X100156261Y-18770714D01*
X100680071Y-18865952D02*
X100584833Y-18818333D01*
X100537214Y-18770714D01*
X100489595Y-18675476D01*
X100489595Y-18627857D01*
X100537214Y-18532619D01*
X100584833Y-18485000D01*
X100680071Y-18437380D01*
X100870547Y-18437380D01*
X100965785Y-18485000D01*
X101013404Y-18532619D01*
X101061023Y-18627857D01*
X101061023Y-18675476D01*
X101013404Y-18770714D01*
X100965785Y-18818333D01*
X100870547Y-18865952D01*
X100680071Y-18865952D01*
X100584833Y-18913571D01*
X100537214Y-18961190D01*
X100489595Y-19056428D01*
X100489595Y-19246904D01*
X100537214Y-19342142D01*
X100584833Y-19389761D01*
X100680071Y-19437380D01*
X100870547Y-19437380D01*
X100965785Y-19389761D01*
X101013404Y-19342142D01*
X101061023Y-19246904D01*
X101061023Y-19056428D01*
X101013404Y-18961190D01*
X100965785Y-18913571D01*
X100870547Y-18865952D01*
X101680071Y-18437380D02*
X101775309Y-18437380D01*
X101870547Y-18485000D01*
X101918166Y-18532619D01*
X101965785Y-18627857D01*
X102013404Y-18818333D01*
X102013404Y-19056428D01*
X101965785Y-19246904D01*
X101918166Y-19342142D01*
X101870547Y-19389761D01*
X101775309Y-19437380D01*
X101680071Y-19437380D01*
X101584833Y-19389761D01*
X101537214Y-19342142D01*
X101489595Y-19246904D01*
X101441976Y-19056428D01*
X101441976Y-18818333D01*
X101489595Y-18627857D01*
X101537214Y-18532619D01*
X101584833Y-18485000D01*
X101680071Y-18437380D01*
X102584833Y-18865952D02*
X102489595Y-18818333D01*
X102441976Y-18770714D01*
X102394357Y-18675476D01*
X102394357Y-18627857D01*
X102441976Y-18532619D01*
X102489595Y-18485000D01*
X102584833Y-18437380D01*
X102775309Y-18437380D01*
X102870547Y-18485000D01*
X102918166Y-18532619D01*
X102965785Y-18627857D01*
X102965785Y-18675476D01*
X102918166Y-18770714D01*
X102870547Y-18818333D01*
X102775309Y-18865952D01*
X102584833Y-18865952D01*
X102489595Y-18913571D01*
X102441976Y-18961190D01*
X102394357Y-19056428D01*
X102394357Y-19246904D01*
X102441976Y-19342142D01*
X102489595Y-19389761D01*
X102584833Y-19437380D01*
X102775309Y-19437380D01*
X102870547Y-19389761D01*
X102918166Y-19342142D01*
X102965785Y-19246904D01*
X102965785Y-19056428D01*
X102918166Y-18961190D01*
X102870547Y-18913571D01*
X102775309Y-18865952D01*
X103537214Y-18865952D02*
X103441976Y-18818333D01*
X103394357Y-18770714D01*
X103346738Y-18675476D01*
X103346738Y-18627857D01*
X103394357Y-18532619D01*
X103441976Y-18485000D01*
X103537214Y-18437380D01*
X103727690Y-18437380D01*
X103822928Y-18485000D01*
X103870547Y-18532619D01*
X103918166Y-18627857D01*
X103918166Y-18675476D01*
X103870547Y-18770714D01*
X103822928Y-18818333D01*
X103727690Y-18865952D01*
X103537214Y-18865952D01*
X103441976Y-18913571D01*
X103394357Y-18961190D01*
X103346738Y-19056428D01*
X103346738Y-19246904D01*
X103394357Y-19342142D01*
X103441976Y-19389761D01*
X103537214Y-19437380D01*
X103727690Y-19437380D01*
X103822928Y-19389761D01*
X103870547Y-19342142D01*
X103918166Y-19246904D01*
X103918166Y-19056428D01*
X103870547Y-18961190D01*
X103822928Y-18913571D01*
X103727690Y-18865952D01*
X104346738Y-19342142D02*
X104394357Y-19389761D01*
X104346738Y-19437380D01*
X104299119Y-19389761D01*
X104346738Y-19342142D01*
X104346738Y-19437380D01*
X105251500Y-19389761D02*
X105156261Y-19437380D01*
X104965785Y-19437380D01*
X104870547Y-19389761D01*
X104822928Y-19342142D01*
X104775309Y-19246904D01*
X104775309Y-18961190D01*
X104822928Y-18865952D01*
X104870547Y-18818333D01*
X104965785Y-18770714D01*
X105156261Y-18770714D01*
X105251500Y-18818333D01*
X105822928Y-19437380D02*
X105727690Y-19389761D01*
X105680071Y-19342142D01*
X105632452Y-19246904D01*
X105632452Y-18961190D01*
X105680071Y-18865952D01*
X105727690Y-18818333D01*
X105822928Y-18770714D01*
X105965785Y-18770714D01*
X106061023Y-18818333D01*
X106108642Y-18865952D01*
X106156261Y-18961190D01*
X106156261Y-19246904D01*
X106108642Y-19342142D01*
X106061023Y-19389761D01*
X105965785Y-19437380D01*
X105822928Y-19437380D01*
X106584833Y-19437380D02*
X106584833Y-18770714D01*
X106584833Y-18865952D02*
X106632452Y-18818333D01*
X106727690Y-18770714D01*
X106870547Y-18770714D01*
X106965785Y-18818333D01*
X107013404Y-18913571D01*
X107013404Y-19437380D01*
X107013404Y-18913571D02*
X107061023Y-18818333D01*
X107156261Y-18770714D01*
X107299119Y-18770714D01*
X107394357Y-18818333D01*
X107441976Y-18913571D01*
X107441976Y-19437380D01*
D12*
X93127285Y-56351714D02*
X93127285Y-55589714D01*
X93562714Y-56351714D01*
X93562714Y-55589714D01*
X94361000Y-56279142D02*
X94324714Y-56315428D01*
X94215857Y-56351714D01*
X94143285Y-56351714D01*
X94034428Y-56315428D01*
X93961857Y-56242857D01*
X93925571Y-56170285D01*
X93889285Y-56025142D01*
X93889285Y-55916285D01*
X93925571Y-55771142D01*
X93961857Y-55698571D01*
X94034428Y-55626000D01*
X94143285Y-55589714D01*
X94215857Y-55589714D01*
X94324714Y-55626000D01*
X94361000Y-55662285D01*
X93236142Y-53811714D02*
X92800714Y-53811714D01*
X93018428Y-53811714D02*
X93018428Y-53049714D01*
X92945857Y-53158571D01*
X92873285Y-53231142D01*
X92800714Y-53267428D01*
X93526428Y-53122285D02*
X93562714Y-53086000D01*
X93635285Y-53049714D01*
X93816714Y-53049714D01*
X93889285Y-53086000D01*
X93925571Y-53122285D01*
X93961857Y-53194857D01*
X93961857Y-53267428D01*
X93925571Y-53376285D01*
X93490142Y-53811714D01*
X93961857Y-53811714D01*
X94288428Y-53521428D02*
X94869000Y-53521428D01*
X92728142Y-51271714D02*
X92728142Y-50509714D01*
X92909571Y-50509714D01*
X93018428Y-50546000D01*
X93091000Y-50618571D01*
X93127285Y-50691142D01*
X93163571Y-50836285D01*
X93163571Y-50945142D01*
X93127285Y-51090285D01*
X93091000Y-51162857D01*
X93018428Y-51235428D01*
X92909571Y-51271714D01*
X92728142Y-51271714D01*
X93490142Y-51271714D02*
X93490142Y-50509714D01*
X93744142Y-51054000D01*
X93998142Y-50509714D01*
X93998142Y-51271714D01*
X94324714Y-50582285D02*
X94361000Y-50546000D01*
X94433571Y-50509714D01*
X94615000Y-50509714D01*
X94687571Y-50546000D01*
X94723857Y-50582285D01*
X94760142Y-50654857D01*
X94760142Y-50727428D01*
X94723857Y-50836285D01*
X94288428Y-51271714D01*
X94760142Y-51271714D01*
X93435714Y-47969714D02*
X93072857Y-47969714D01*
X93036571Y-48332571D01*
X93072857Y-48296285D01*
X93145428Y-48260000D01*
X93326857Y-48260000D01*
X93399428Y-48296285D01*
X93435714Y-48332571D01*
X93472000Y-48405142D01*
X93472000Y-48586571D01*
X93435714Y-48659142D01*
X93399428Y-48695428D01*
X93326857Y-48731714D01*
X93145428Y-48731714D01*
X93072857Y-48695428D01*
X93036571Y-48659142D01*
X93798571Y-48441428D02*
X94379142Y-48441428D01*
X92982142Y-46191714D02*
X92982142Y-45429714D01*
X93780428Y-46191714D02*
X93526428Y-45828857D01*
X93345000Y-46191714D02*
X93345000Y-45429714D01*
X93635285Y-45429714D01*
X93707857Y-45466000D01*
X93744142Y-45502285D01*
X93780428Y-45574857D01*
X93780428Y-45683714D01*
X93744142Y-45756285D01*
X93707857Y-45792571D01*
X93635285Y-45828857D01*
X93345000Y-45828857D01*
X94070714Y-45502285D02*
X94107000Y-45466000D01*
X94179571Y-45429714D01*
X94361000Y-45429714D01*
X94433571Y-45466000D01*
X94469857Y-45502285D01*
X94506142Y-45574857D01*
X94506142Y-45647428D01*
X94469857Y-45756285D01*
X94034428Y-46191714D01*
X94506142Y-46191714D01*
X93435714Y-42889714D02*
X93072857Y-42889714D01*
X93036571Y-43252571D01*
X93072857Y-43216285D01*
X93145428Y-43180000D01*
X93326857Y-43180000D01*
X93399428Y-43216285D01*
X93435714Y-43252571D01*
X93472000Y-43325142D01*
X93472000Y-43506571D01*
X93435714Y-43579142D01*
X93399428Y-43615428D01*
X93326857Y-43651714D01*
X93145428Y-43651714D01*
X93072857Y-43615428D01*
X93036571Y-43579142D01*
X93798571Y-43361428D02*
X94379142Y-43361428D01*
X94088857Y-43651714D02*
X94088857Y-43071142D01*
X93308714Y-41111714D02*
X93054714Y-40748857D01*
X92873285Y-41111714D02*
X92873285Y-40349714D01*
X93163571Y-40349714D01*
X93236142Y-40386000D01*
X93272428Y-40422285D01*
X93308714Y-40494857D01*
X93308714Y-40603714D01*
X93272428Y-40676285D01*
X93236142Y-40712571D01*
X93163571Y-40748857D01*
X92873285Y-40748857D01*
X93599000Y-41075428D02*
X93707857Y-41111714D01*
X93889285Y-41111714D01*
X93961857Y-41075428D01*
X93998142Y-41039142D01*
X94034428Y-40966571D01*
X94034428Y-40894000D01*
X93998142Y-40821428D01*
X93961857Y-40785142D01*
X93889285Y-40748857D01*
X93744142Y-40712571D01*
X93671571Y-40676285D01*
X93635285Y-40640000D01*
X93599000Y-40567428D01*
X93599000Y-40494857D01*
X93635285Y-40422285D01*
X93671571Y-40386000D01*
X93744142Y-40349714D01*
X93925571Y-40349714D01*
X94034428Y-40386000D01*
X94252142Y-40349714D02*
X94687571Y-40349714D01*
X94469857Y-41111714D02*
X94469857Y-40349714D01*
X93145428Y-37846000D02*
X93072857Y-37809714D01*
X92964000Y-37809714D01*
X92855142Y-37846000D01*
X92782571Y-37918571D01*
X92746285Y-37991142D01*
X92710000Y-38136285D01*
X92710000Y-38245142D01*
X92746285Y-38390285D01*
X92782571Y-38462857D01*
X92855142Y-38535428D01*
X92964000Y-38571714D01*
X93036571Y-38571714D01*
X93145428Y-38535428D01*
X93181714Y-38499142D01*
X93181714Y-38245142D01*
X93036571Y-38245142D01*
X93508285Y-38571714D02*
X93508285Y-37809714D01*
X93943714Y-38571714D01*
X93943714Y-37809714D01*
X94306571Y-38571714D02*
X94306571Y-37809714D01*
X94488000Y-37809714D01*
X94596857Y-37846000D01*
X94669428Y-37918571D01*
X94705714Y-37991142D01*
X94742000Y-38136285D01*
X94742000Y-38245142D01*
X94705714Y-38390285D01*
X94669428Y-38462857D01*
X94596857Y-38535428D01*
X94488000Y-38571714D01*
X94306571Y-38571714D01*
X93145428Y-60706000D02*
X93072857Y-60669714D01*
X92964000Y-60669714D01*
X92855142Y-60706000D01*
X92782571Y-60778571D01*
X92746285Y-60851142D01*
X92710000Y-60996285D01*
X92710000Y-61105142D01*
X92746285Y-61250285D01*
X92782571Y-61322857D01*
X92855142Y-61395428D01*
X92964000Y-61431714D01*
X93036571Y-61431714D01*
X93145428Y-61395428D01*
X93181714Y-61359142D01*
X93181714Y-61105142D01*
X93036571Y-61105142D01*
X93508285Y-61431714D02*
X93508285Y-60669714D01*
X93943714Y-61431714D01*
X93943714Y-60669714D01*
X94306571Y-61431714D02*
X94306571Y-60669714D01*
X94488000Y-60669714D01*
X94596857Y-60706000D01*
X94669428Y-60778571D01*
X94705714Y-60851142D01*
X94742000Y-60996285D01*
X94742000Y-61105142D01*
X94705714Y-61250285D01*
X94669428Y-61322857D01*
X94596857Y-61395428D01*
X94488000Y-61431714D01*
X94306571Y-61431714D01*
D13*
X143969619Y-38408428D02*
X143945428Y-38432619D01*
X143872857Y-38456809D01*
X143824476Y-38456809D01*
X143751904Y-38432619D01*
X143703523Y-38384238D01*
X143679333Y-38335857D01*
X143655142Y-38239095D01*
X143655142Y-38166523D01*
X143679333Y-38069761D01*
X143703523Y-38021380D01*
X143751904Y-37973000D01*
X143824476Y-37948809D01*
X143872857Y-37948809D01*
X143945428Y-37973000D01*
X143969619Y-37997190D01*
X144187333Y-38456809D02*
X144187333Y-37948809D01*
X144187333Y-38190714D02*
X144477619Y-38190714D01*
X144477619Y-38456809D02*
X144477619Y-37948809D01*
X145396857Y-38408428D02*
X145372666Y-38432619D01*
X145300095Y-38456809D01*
X145251714Y-38456809D01*
X145179142Y-38432619D01*
X145130761Y-38384238D01*
X145106571Y-38335857D01*
X145082380Y-38239095D01*
X145082380Y-38166523D01*
X145106571Y-38069761D01*
X145130761Y-38021380D01*
X145179142Y-37973000D01*
X145251714Y-37948809D01*
X145300095Y-37948809D01*
X145372666Y-37973000D01*
X145396857Y-37997190D01*
X145614571Y-38456809D02*
X145614571Y-37948809D01*
X145904857Y-38456809D02*
X145687142Y-38166523D01*
X145904857Y-37948809D02*
X145614571Y-38239095D01*
D12*
X93236142Y-58891714D02*
X92800714Y-58891714D01*
X93018428Y-58891714D02*
X93018428Y-58129714D01*
X92945857Y-58238571D01*
X92873285Y-58311142D01*
X92800714Y-58347428D01*
X93526428Y-58202285D02*
X93562714Y-58166000D01*
X93635285Y-58129714D01*
X93816714Y-58129714D01*
X93889285Y-58166000D01*
X93925571Y-58202285D01*
X93961857Y-58274857D01*
X93961857Y-58347428D01*
X93925571Y-58456285D01*
X93490142Y-58891714D01*
X93961857Y-58891714D01*
X94288428Y-58601428D02*
X94869000Y-58601428D01*
X94578714Y-58891714D02*
X94578714Y-58311142D01*
X143981714Y-109474000D02*
X144344571Y-109474000D01*
X143909142Y-109691714D02*
X144163142Y-108929714D01*
X144417142Y-109691714D01*
X144634857Y-109002285D02*
X144671142Y-108966000D01*
X144743714Y-108929714D01*
X144925142Y-108929714D01*
X144997714Y-108966000D01*
X145034000Y-109002285D01*
X145070285Y-109074857D01*
X145070285Y-109147428D01*
X145034000Y-109256285D01*
X144598571Y-109691714D01*
X145070285Y-109691714D01*
X92982142Y-89371714D02*
X92982142Y-88609714D01*
X93780428Y-89371714D02*
X93526428Y-89008857D01*
X93345000Y-89371714D02*
X93345000Y-88609714D01*
X93635285Y-88609714D01*
X93707857Y-88646000D01*
X93744142Y-88682285D01*
X93780428Y-88754857D01*
X93780428Y-88863714D01*
X93744142Y-88936285D01*
X93707857Y-88972571D01*
X93635285Y-89008857D01*
X93345000Y-89008857D01*
X94034428Y-88609714D02*
X94542428Y-88609714D01*
X94215857Y-89371714D01*
X92909571Y-111469714D02*
X93054714Y-111469714D01*
X93127285Y-111506000D01*
X93199857Y-111578571D01*
X93236142Y-111723714D01*
X93236142Y-111977714D01*
X93199857Y-112122857D01*
X93127285Y-112195428D01*
X93054714Y-112231714D01*
X92909571Y-112231714D01*
X92837000Y-112195428D01*
X92764428Y-112122857D01*
X92728142Y-111977714D01*
X92728142Y-111723714D01*
X92764428Y-111578571D01*
X92837000Y-111506000D01*
X92909571Y-111469714D01*
X93526428Y-112195428D02*
X93635285Y-112231714D01*
X93816714Y-112231714D01*
X93889285Y-112195428D01*
X93925571Y-112159142D01*
X93961857Y-112086571D01*
X93961857Y-112014000D01*
X93925571Y-111941428D01*
X93889285Y-111905142D01*
X93816714Y-111868857D01*
X93671571Y-111832571D01*
X93599000Y-111796285D01*
X93562714Y-111760000D01*
X93526428Y-111687428D01*
X93526428Y-111614857D01*
X93562714Y-111542285D01*
X93599000Y-111506000D01*
X93671571Y-111469714D01*
X93853000Y-111469714D01*
X93961857Y-111506000D01*
X94723857Y-112159142D02*
X94687571Y-112195428D01*
X94578714Y-112231714D01*
X94506142Y-112231714D01*
X94397285Y-112195428D01*
X94324714Y-112122857D01*
X94288428Y-112050285D01*
X94252142Y-111905142D01*
X94252142Y-111796285D01*
X94288428Y-111651142D01*
X94324714Y-111578571D01*
X94397285Y-111506000D01*
X94506142Y-111469714D01*
X94578714Y-111469714D01*
X94687571Y-111506000D01*
X94723857Y-111542285D01*
X92982142Y-94451714D02*
X92982142Y-93689714D01*
X93780428Y-94451714D02*
X93526428Y-94088857D01*
X93345000Y-94451714D02*
X93345000Y-93689714D01*
X93635285Y-93689714D01*
X93707857Y-93726000D01*
X93744142Y-93762285D01*
X93780428Y-93834857D01*
X93780428Y-93943714D01*
X93744142Y-94016285D01*
X93707857Y-94052571D01*
X93635285Y-94088857D01*
X93345000Y-94088857D01*
X94469857Y-93689714D02*
X94107000Y-93689714D01*
X94070714Y-94052571D01*
X94107000Y-94016285D01*
X94179571Y-93980000D01*
X94361000Y-93980000D01*
X94433571Y-94016285D01*
X94469857Y-94052571D01*
X94506142Y-94125142D01*
X94506142Y-94306571D01*
X94469857Y-94379142D01*
X94433571Y-94415428D01*
X94361000Y-94451714D01*
X94179571Y-94451714D01*
X94107000Y-94415428D01*
X94070714Y-94379142D01*
X143981714Y-91694000D02*
X144344571Y-91694000D01*
X143909142Y-91911714D02*
X144163142Y-91149714D01*
X144417142Y-91911714D01*
X144707428Y-91911714D02*
X144852571Y-91911714D01*
X144925142Y-91875428D01*
X144961428Y-91839142D01*
X145034000Y-91730285D01*
X145070285Y-91585142D01*
X145070285Y-91294857D01*
X145034000Y-91222285D01*
X144997714Y-91186000D01*
X144925142Y-91149714D01*
X144780000Y-91149714D01*
X144707428Y-91186000D01*
X144671142Y-91222285D01*
X144634857Y-91294857D01*
X144634857Y-91476285D01*
X144671142Y-91548857D01*
X144707428Y-91585142D01*
X144780000Y-91621428D01*
X144925142Y-91621428D01*
X144997714Y-91585142D01*
X145034000Y-91548857D01*
X145070285Y-91476285D01*
X143872857Y-73914000D02*
X144235714Y-73914000D01*
X143800285Y-74131714D02*
X144054285Y-73369714D01*
X144308285Y-74131714D01*
X144961428Y-74131714D02*
X144526000Y-74131714D01*
X144743714Y-74131714D02*
X144743714Y-73369714D01*
X144671142Y-73478571D01*
X144598571Y-73551142D01*
X144526000Y-73587428D01*
X145614571Y-73369714D02*
X145469428Y-73369714D01*
X145396857Y-73406000D01*
X145360571Y-73442285D01*
X145288000Y-73551142D01*
X145251714Y-73696285D01*
X145251714Y-73986571D01*
X145288000Y-74059142D01*
X145324285Y-74095428D01*
X145396857Y-74131714D01*
X145542000Y-74131714D01*
X145614571Y-74095428D01*
X145650857Y-74059142D01*
X145687142Y-73986571D01*
X145687142Y-73805142D01*
X145650857Y-73732571D01*
X145614571Y-73696285D01*
X145542000Y-73660000D01*
X145396857Y-73660000D01*
X145324285Y-73696285D01*
X145288000Y-73732571D01*
X145251714Y-73805142D01*
X143872857Y-78994000D02*
X144235714Y-78994000D01*
X143800285Y-79211714D02*
X144054285Y-78449714D01*
X144308285Y-79211714D01*
X144961428Y-79211714D02*
X144526000Y-79211714D01*
X144743714Y-79211714D02*
X144743714Y-78449714D01*
X144671142Y-78558571D01*
X144598571Y-78631142D01*
X144526000Y-78667428D01*
X145614571Y-78703714D02*
X145614571Y-79211714D01*
X145433142Y-78413428D02*
X145251714Y-78957714D01*
X145723428Y-78957714D01*
X143981714Y-94234000D02*
X144344571Y-94234000D01*
X143909142Y-94451714D02*
X144163142Y-93689714D01*
X144417142Y-94451714D01*
X144780000Y-94016285D02*
X144707428Y-93980000D01*
X144671142Y-93943714D01*
X144634857Y-93871142D01*
X144634857Y-93834857D01*
X144671142Y-93762285D01*
X144707428Y-93726000D01*
X144780000Y-93689714D01*
X144925142Y-93689714D01*
X144997714Y-93726000D01*
X145034000Y-93762285D01*
X145070285Y-93834857D01*
X145070285Y-93871142D01*
X145034000Y-93943714D01*
X144997714Y-93980000D01*
X144925142Y-94016285D01*
X144780000Y-94016285D01*
X144707428Y-94052571D01*
X144671142Y-94088857D01*
X144634857Y-94161428D01*
X144634857Y-94306571D01*
X144671142Y-94379142D01*
X144707428Y-94415428D01*
X144780000Y-94451714D01*
X144925142Y-94451714D01*
X144997714Y-94415428D01*
X145034000Y-94379142D01*
X145070285Y-94306571D01*
X145070285Y-94161428D01*
X145034000Y-94088857D01*
X144997714Y-94052571D01*
X144925142Y-94016285D01*
X92891428Y-106934000D02*
X93254285Y-106934000D01*
X92818857Y-107151714D02*
X93072857Y-106389714D01*
X93326857Y-107151714D01*
X93943714Y-107151714D02*
X93580857Y-107151714D01*
X93580857Y-106389714D01*
X94197714Y-106752571D02*
X94451714Y-106752571D01*
X94560571Y-107151714D02*
X94197714Y-107151714D01*
X94197714Y-106389714D01*
X94560571Y-106389714D01*
X143872857Y-66294000D02*
X144235714Y-66294000D01*
X143800285Y-66511714D02*
X144054285Y-65749714D01*
X144308285Y-66511714D01*
X144961428Y-66511714D02*
X144526000Y-66511714D01*
X144743714Y-66511714D02*
X144743714Y-65749714D01*
X144671142Y-65858571D01*
X144598571Y-65931142D01*
X144526000Y-65967428D01*
X145324285Y-66511714D02*
X145469428Y-66511714D01*
X145542000Y-66475428D01*
X145578285Y-66439142D01*
X145650857Y-66330285D01*
X145687142Y-66185142D01*
X145687142Y-65894857D01*
X145650857Y-65822285D01*
X145614571Y-65786000D01*
X145542000Y-65749714D01*
X145396857Y-65749714D01*
X145324285Y-65786000D01*
X145288000Y-65822285D01*
X145251714Y-65894857D01*
X145251714Y-66076285D01*
X145288000Y-66148857D01*
X145324285Y-66185142D01*
X145396857Y-66221428D01*
X145542000Y-66221428D01*
X145614571Y-66185142D01*
X145650857Y-66148857D01*
X145687142Y-66076285D01*
X143872857Y-81534000D02*
X144235714Y-81534000D01*
X143800285Y-81751714D02*
X144054285Y-80989714D01*
X144308285Y-81751714D01*
X144961428Y-81751714D02*
X144526000Y-81751714D01*
X144743714Y-81751714D02*
X144743714Y-80989714D01*
X144671142Y-81098571D01*
X144598571Y-81171142D01*
X144526000Y-81207428D01*
X145215428Y-80989714D02*
X145687142Y-80989714D01*
X145433142Y-81280000D01*
X145542000Y-81280000D01*
X145614571Y-81316285D01*
X145650857Y-81352571D01*
X145687142Y-81425142D01*
X145687142Y-81606571D01*
X145650857Y-81679142D01*
X145614571Y-81715428D01*
X145542000Y-81751714D01*
X145324285Y-81751714D01*
X145251714Y-81715428D01*
X145215428Y-81679142D01*
X92982142Y-96991714D02*
X92982142Y-96229714D01*
X93780428Y-96991714D02*
X93526428Y-96628857D01*
X93345000Y-96991714D02*
X93345000Y-96229714D01*
X93635285Y-96229714D01*
X93707857Y-96266000D01*
X93744142Y-96302285D01*
X93780428Y-96374857D01*
X93780428Y-96483714D01*
X93744142Y-96556285D01*
X93707857Y-96592571D01*
X93635285Y-96628857D01*
X93345000Y-96628857D01*
X94433571Y-96483714D02*
X94433571Y-96991714D01*
X94252142Y-96193428D02*
X94070714Y-96737714D01*
X94542428Y-96737714D01*
X92710000Y-66511714D02*
X92710000Y-65749714D01*
X92964000Y-66294000D01*
X93218000Y-65749714D01*
X93218000Y-66511714D01*
X94016285Y-66511714D02*
X93762285Y-66148857D01*
X93580857Y-66511714D02*
X93580857Y-65749714D01*
X93871142Y-65749714D01*
X93943714Y-65786000D01*
X93980000Y-65822285D01*
X94016285Y-65894857D01*
X94016285Y-66003714D01*
X93980000Y-66076285D01*
X93943714Y-66112571D01*
X93871142Y-66148857D01*
X93580857Y-66148857D01*
X94342857Y-66511714D02*
X94342857Y-65749714D01*
X94524285Y-65749714D01*
X94633142Y-65786000D01*
X94705714Y-65858571D01*
X94742000Y-65931142D01*
X94778285Y-66076285D01*
X94778285Y-66185142D01*
X94742000Y-66330285D01*
X94705714Y-66402857D01*
X94633142Y-66475428D01*
X94524285Y-66511714D01*
X94342857Y-66511714D01*
X92728142Y-81751714D02*
X92728142Y-80989714D01*
X92909571Y-80989714D01*
X93018428Y-81026000D01*
X93091000Y-81098571D01*
X93127285Y-81171142D01*
X93163571Y-81316285D01*
X93163571Y-81425142D01*
X93127285Y-81570285D01*
X93091000Y-81642857D01*
X93018428Y-81715428D01*
X92909571Y-81751714D01*
X92728142Y-81751714D01*
X93490142Y-81751714D02*
X93490142Y-80989714D01*
X93744142Y-81534000D01*
X93998142Y-80989714D01*
X93998142Y-81751714D01*
X94760142Y-81751714D02*
X94324714Y-81751714D01*
X94542428Y-81751714D02*
X94542428Y-80989714D01*
X94469857Y-81098571D01*
X94397285Y-81171142D01*
X94324714Y-81207428D01*
X143981714Y-114554000D02*
X144344571Y-114554000D01*
X143909142Y-114771714D02*
X144163142Y-114009714D01*
X144417142Y-114771714D01*
X144816285Y-114009714D02*
X144888857Y-114009714D01*
X144961428Y-114046000D01*
X144997714Y-114082285D01*
X145034000Y-114154857D01*
X145070285Y-114300000D01*
X145070285Y-114481428D01*
X145034000Y-114626571D01*
X144997714Y-114699142D01*
X144961428Y-114735428D01*
X144888857Y-114771714D01*
X144816285Y-114771714D01*
X144743714Y-114735428D01*
X144707428Y-114699142D01*
X144671142Y-114626571D01*
X144634857Y-114481428D01*
X144634857Y-114300000D01*
X144671142Y-114154857D01*
X144707428Y-114082285D01*
X144743714Y-114046000D01*
X144816285Y-114009714D01*
X143963571Y-56351714D02*
X143963571Y-55589714D01*
X144145000Y-55589714D01*
X144253857Y-55626000D01*
X144326428Y-55698571D01*
X144362714Y-55771142D01*
X144399000Y-55916285D01*
X144399000Y-56025142D01*
X144362714Y-56170285D01*
X144326428Y-56242857D01*
X144253857Y-56315428D01*
X144145000Y-56351714D01*
X143963571Y-56351714D01*
X145124714Y-56351714D02*
X144689285Y-56351714D01*
X144907000Y-56351714D02*
X144907000Y-55589714D01*
X144834428Y-55698571D01*
X144761857Y-55771142D01*
X144689285Y-55807428D01*
X143981714Y-112014000D02*
X144344571Y-112014000D01*
X143909142Y-112231714D02*
X144163142Y-111469714D01*
X144417142Y-112231714D01*
X145070285Y-112231714D02*
X144634857Y-112231714D01*
X144852571Y-112231714D02*
X144852571Y-111469714D01*
X144780000Y-111578571D01*
X144707428Y-111651142D01*
X144634857Y-111687428D01*
X93127285Y-103849714D02*
X93562714Y-103849714D01*
X93345000Y-104611714D02*
X93345000Y-103849714D01*
X94252142Y-104539142D02*
X94215857Y-104575428D01*
X94107000Y-104611714D01*
X94034428Y-104611714D01*
X93925571Y-104575428D01*
X93853000Y-104502857D01*
X93816714Y-104430285D01*
X93780428Y-104285142D01*
X93780428Y-104176285D01*
X93816714Y-104031142D01*
X93853000Y-103958571D01*
X93925571Y-103886000D01*
X94034428Y-103849714D01*
X94107000Y-103849714D01*
X94215857Y-103886000D01*
X94252142Y-103922285D01*
X143963571Y-41111714D02*
X143963571Y-40349714D01*
X144145000Y-40349714D01*
X144253857Y-40386000D01*
X144326428Y-40458571D01*
X144362714Y-40531142D01*
X144399000Y-40676285D01*
X144399000Y-40785142D01*
X144362714Y-40930285D01*
X144326428Y-41002857D01*
X144253857Y-41075428D01*
X144145000Y-41111714D01*
X143963571Y-41111714D01*
X144653000Y-40349714D02*
X145161000Y-40349714D01*
X144834428Y-41111714D01*
X143981714Y-99314000D02*
X144344571Y-99314000D01*
X143909142Y-99531714D02*
X144163142Y-98769714D01*
X144417142Y-99531714D01*
X144997714Y-98769714D02*
X144852571Y-98769714D01*
X144780000Y-98806000D01*
X144743714Y-98842285D01*
X144671142Y-98951142D01*
X144634857Y-99096285D01*
X144634857Y-99386571D01*
X144671142Y-99459142D01*
X144707428Y-99495428D01*
X144780000Y-99531714D01*
X144925142Y-99531714D01*
X144997714Y-99495428D01*
X145034000Y-99459142D01*
X145070285Y-99386571D01*
X145070285Y-99205142D01*
X145034000Y-99132571D01*
X144997714Y-99096285D01*
X144925142Y-99060000D01*
X144780000Y-99060000D01*
X144707428Y-99096285D01*
X144671142Y-99132571D01*
X144634857Y-99205142D01*
X92945857Y-71591714D02*
X92945857Y-70829714D01*
X93453857Y-70829714D02*
X93599000Y-70829714D01*
X93671571Y-70866000D01*
X93744142Y-70938571D01*
X93780428Y-71083714D01*
X93780428Y-71337714D01*
X93744142Y-71482857D01*
X93671571Y-71555428D01*
X93599000Y-71591714D01*
X93453857Y-71591714D01*
X93381285Y-71555428D01*
X93308714Y-71482857D01*
X93272428Y-71337714D01*
X93272428Y-71083714D01*
X93308714Y-70938571D01*
X93381285Y-70866000D01*
X93453857Y-70829714D01*
X94542428Y-71591714D02*
X94288428Y-71228857D01*
X94107000Y-71591714D02*
X94107000Y-70829714D01*
X94397285Y-70829714D01*
X94469857Y-70866000D01*
X94506142Y-70902285D01*
X94542428Y-70974857D01*
X94542428Y-71083714D01*
X94506142Y-71156285D01*
X94469857Y-71192571D01*
X94397285Y-71228857D01*
X94107000Y-71228857D01*
X92782571Y-102071714D02*
X92782571Y-101309714D01*
X92964000Y-101309714D01*
X93072857Y-101346000D01*
X93145428Y-101418571D01*
X93181714Y-101491142D01*
X93218000Y-101636285D01*
X93218000Y-101745142D01*
X93181714Y-101890285D01*
X93145428Y-101962857D01*
X93072857Y-102035428D01*
X92964000Y-102071714D01*
X92782571Y-102071714D01*
X93544571Y-102071714D02*
X93544571Y-101309714D01*
X93980000Y-102071714D02*
X93653428Y-101636285D01*
X93980000Y-101309714D02*
X93544571Y-101745142D01*
X94270285Y-101382285D02*
X94306571Y-101346000D01*
X94379142Y-101309714D01*
X94560571Y-101309714D01*
X94633142Y-101346000D01*
X94669428Y-101382285D01*
X94705714Y-101454857D01*
X94705714Y-101527428D01*
X94669428Y-101636285D01*
X94234000Y-102071714D01*
X94705714Y-102071714D01*
X143981714Y-104394000D02*
X144344571Y-104394000D01*
X143909142Y-104611714D02*
X144163142Y-103849714D01*
X144417142Y-104611714D01*
X144997714Y-104103714D02*
X144997714Y-104611714D01*
X144816285Y-103813428D02*
X144634857Y-104357714D01*
X145106571Y-104357714D01*
X143963571Y-43651714D02*
X143963571Y-42889714D01*
X144145000Y-42889714D01*
X144253857Y-42926000D01*
X144326428Y-42998571D01*
X144362714Y-43071142D01*
X144399000Y-43216285D01*
X144399000Y-43325142D01*
X144362714Y-43470285D01*
X144326428Y-43542857D01*
X144253857Y-43615428D01*
X144145000Y-43651714D01*
X143963571Y-43651714D01*
X145052142Y-42889714D02*
X144907000Y-42889714D01*
X144834428Y-42926000D01*
X144798142Y-42962285D01*
X144725571Y-43071142D01*
X144689285Y-43216285D01*
X144689285Y-43506571D01*
X144725571Y-43579142D01*
X144761857Y-43615428D01*
X144834428Y-43651714D01*
X144979571Y-43651714D01*
X145052142Y-43615428D01*
X145088428Y-43579142D01*
X145124714Y-43506571D01*
X145124714Y-43325142D01*
X145088428Y-43252571D01*
X145052142Y-43216285D01*
X144979571Y-43180000D01*
X144834428Y-43180000D01*
X144761857Y-43216285D01*
X144725571Y-43252571D01*
X144689285Y-43325142D01*
X143963571Y-46191714D02*
X143963571Y-45429714D01*
X144145000Y-45429714D01*
X144253857Y-45466000D01*
X144326428Y-45538571D01*
X144362714Y-45611142D01*
X144399000Y-45756285D01*
X144399000Y-45865142D01*
X144362714Y-46010285D01*
X144326428Y-46082857D01*
X144253857Y-46155428D01*
X144145000Y-46191714D01*
X143963571Y-46191714D01*
X145088428Y-45429714D02*
X144725571Y-45429714D01*
X144689285Y-45792571D01*
X144725571Y-45756285D01*
X144798142Y-45720000D01*
X144979571Y-45720000D01*
X145052142Y-45756285D01*
X145088428Y-45792571D01*
X145124714Y-45865142D01*
X145124714Y-46046571D01*
X145088428Y-46119142D01*
X145052142Y-46155428D01*
X144979571Y-46191714D01*
X144798142Y-46191714D01*
X144725571Y-46155428D01*
X144689285Y-46119142D01*
X143872857Y-71374000D02*
X144235714Y-71374000D01*
X143800285Y-71591714D02*
X144054285Y-70829714D01*
X144308285Y-71591714D01*
X144961428Y-71591714D02*
X144526000Y-71591714D01*
X144743714Y-71591714D02*
X144743714Y-70829714D01*
X144671142Y-70938571D01*
X144598571Y-71011142D01*
X144526000Y-71047428D01*
X145215428Y-70829714D02*
X145723428Y-70829714D01*
X145396857Y-71591714D01*
X143963571Y-53811714D02*
X143963571Y-53049714D01*
X144145000Y-53049714D01*
X144253857Y-53086000D01*
X144326428Y-53158571D01*
X144362714Y-53231142D01*
X144399000Y-53376285D01*
X144399000Y-53485142D01*
X144362714Y-53630285D01*
X144326428Y-53702857D01*
X144253857Y-53775428D01*
X144145000Y-53811714D01*
X143963571Y-53811714D01*
X144689285Y-53122285D02*
X144725571Y-53086000D01*
X144798142Y-53049714D01*
X144979571Y-53049714D01*
X145052142Y-53086000D01*
X145088428Y-53122285D01*
X145124714Y-53194857D01*
X145124714Y-53267428D01*
X145088428Y-53376285D01*
X144653000Y-53811714D01*
X145124714Y-53811714D01*
X92782571Y-74131714D02*
X92782571Y-73369714D01*
X92964000Y-73369714D01*
X93072857Y-73406000D01*
X93145428Y-73478571D01*
X93181714Y-73551142D01*
X93218000Y-73696285D01*
X93218000Y-73805142D01*
X93181714Y-73950285D01*
X93145428Y-74022857D01*
X93072857Y-74095428D01*
X92964000Y-74131714D01*
X92782571Y-74131714D01*
X93544571Y-74131714D02*
X93544571Y-73369714D01*
X93980000Y-74131714D02*
X93653428Y-73696285D01*
X93980000Y-73369714D02*
X93544571Y-73805142D01*
X94234000Y-73369714D02*
X94705714Y-73369714D01*
X94451714Y-73660000D01*
X94560571Y-73660000D01*
X94633142Y-73696285D01*
X94669428Y-73732571D01*
X94705714Y-73805142D01*
X94705714Y-73986571D01*
X94669428Y-74059142D01*
X94633142Y-74095428D01*
X94560571Y-74131714D01*
X94342857Y-74131714D01*
X94270285Y-74095428D01*
X94234000Y-74059142D01*
X92982142Y-99531714D02*
X92982142Y-98769714D01*
X93780428Y-99531714D02*
X93526428Y-99168857D01*
X93345000Y-99531714D02*
X93345000Y-98769714D01*
X93635285Y-98769714D01*
X93707857Y-98806000D01*
X93744142Y-98842285D01*
X93780428Y-98914857D01*
X93780428Y-99023714D01*
X93744142Y-99096285D01*
X93707857Y-99132571D01*
X93635285Y-99168857D01*
X93345000Y-99168857D01*
X94034428Y-98769714D02*
X94506142Y-98769714D01*
X94252142Y-99060000D01*
X94361000Y-99060000D01*
X94433571Y-99096285D01*
X94469857Y-99132571D01*
X94506142Y-99205142D01*
X94506142Y-99386571D01*
X94469857Y-99459142D01*
X94433571Y-99495428D01*
X94361000Y-99531714D01*
X94143285Y-99531714D01*
X94070714Y-99495428D01*
X94034428Y-99459142D01*
X143981714Y-101854000D02*
X144344571Y-101854000D01*
X143909142Y-102071714D02*
X144163142Y-101309714D01*
X144417142Y-102071714D01*
X145034000Y-101309714D02*
X144671142Y-101309714D01*
X144634857Y-101672571D01*
X144671142Y-101636285D01*
X144743714Y-101600000D01*
X144925142Y-101600000D01*
X144997714Y-101636285D01*
X145034000Y-101672571D01*
X145070285Y-101745142D01*
X145070285Y-101926571D01*
X145034000Y-101999142D01*
X144997714Y-102035428D01*
X144925142Y-102071714D01*
X144743714Y-102071714D01*
X144671142Y-102035428D01*
X144634857Y-101999142D01*
X92982142Y-91911714D02*
X92982142Y-91149714D01*
X93780428Y-91911714D02*
X93526428Y-91548857D01*
X93345000Y-91911714D02*
X93345000Y-91149714D01*
X93635285Y-91149714D01*
X93707857Y-91186000D01*
X93744142Y-91222285D01*
X93780428Y-91294857D01*
X93780428Y-91403714D01*
X93744142Y-91476285D01*
X93707857Y-91512571D01*
X93635285Y-91548857D01*
X93345000Y-91548857D01*
X94433571Y-91149714D02*
X94288428Y-91149714D01*
X94215857Y-91186000D01*
X94179571Y-91222285D01*
X94107000Y-91331142D01*
X94070714Y-91476285D01*
X94070714Y-91766571D01*
X94107000Y-91839142D01*
X94143285Y-91875428D01*
X94215857Y-91911714D01*
X94361000Y-91911714D01*
X94433571Y-91875428D01*
X94469857Y-91839142D01*
X94506142Y-91766571D01*
X94506142Y-91585142D01*
X94469857Y-91512571D01*
X94433571Y-91476285D01*
X94361000Y-91440000D01*
X94215857Y-91440000D01*
X94143285Y-91476285D01*
X94107000Y-91512571D01*
X94070714Y-91585142D01*
X92891428Y-69051714D02*
X92891428Y-68289714D01*
X93399428Y-68289714D02*
X93544571Y-68289714D01*
X93617142Y-68326000D01*
X93689714Y-68398571D01*
X93726000Y-68543714D01*
X93726000Y-68797714D01*
X93689714Y-68942857D01*
X93617142Y-69015428D01*
X93544571Y-69051714D01*
X93399428Y-69051714D01*
X93326857Y-69015428D01*
X93254285Y-68942857D01*
X93218000Y-68797714D01*
X93218000Y-68543714D01*
X93254285Y-68398571D01*
X93326857Y-68326000D01*
X93399428Y-68289714D01*
X93980000Y-68289714D02*
X94161428Y-69051714D01*
X94306571Y-68507428D01*
X94451714Y-69051714D01*
X94633142Y-68289714D01*
D13*
X93097047Y-83757709D02*
X93097047Y-83249709D01*
X93218000Y-83249709D01*
X93290571Y-83273900D01*
X93338952Y-83322280D01*
X93363142Y-83370661D01*
X93387333Y-83467423D01*
X93387333Y-83539995D01*
X93363142Y-83636757D01*
X93338952Y-83685138D01*
X93290571Y-83733519D01*
X93218000Y-83757709D01*
X93097047Y-83757709D01*
X93605047Y-83757709D02*
X93605047Y-83249709D01*
X93895333Y-83757709D02*
X93677619Y-83467423D01*
X93895333Y-83249709D02*
X93605047Y-83539995D01*
X94209809Y-83249709D02*
X94258190Y-83249709D01*
X94306571Y-83273900D01*
X94330761Y-83298090D01*
X94354952Y-83346471D01*
X94379142Y-83443233D01*
X94379142Y-83564185D01*
X94354952Y-83660947D01*
X94330761Y-83709328D01*
X94306571Y-83733519D01*
X94258190Y-83757709D01*
X94209809Y-83757709D01*
X94161428Y-83733519D01*
X94137238Y-83709328D01*
X94113047Y-83660947D01*
X94088857Y-83564185D01*
X94088857Y-83443233D01*
X94113047Y-83346471D01*
X94137238Y-83298090D01*
X94161428Y-83273900D01*
X94209809Y-83249709D01*
X93399428Y-84595909D02*
X93230095Y-84354004D01*
X93109142Y-84595909D02*
X93109142Y-84087909D01*
X93302666Y-84087909D01*
X93351047Y-84112100D01*
X93375238Y-84136290D01*
X93399428Y-84184671D01*
X93399428Y-84257242D01*
X93375238Y-84305623D01*
X93351047Y-84329814D01*
X93302666Y-84354004D01*
X93109142Y-84354004D01*
X93786476Y-84329814D02*
X93617142Y-84329814D01*
X93617142Y-84595909D02*
X93617142Y-84087909D01*
X93859047Y-84087909D01*
X94052571Y-84595909D02*
X94052571Y-84087909D01*
X94052571Y-84329814D02*
X94342857Y-84329814D01*
X94342857Y-84595909D02*
X94342857Y-84087909D01*
D12*
X143872857Y-84074000D02*
X144235714Y-84074000D01*
X143800285Y-84291714D02*
X144054285Y-83529714D01*
X144308285Y-84291714D01*
X144961428Y-84291714D02*
X144526000Y-84291714D01*
X144743714Y-84291714D02*
X144743714Y-83529714D01*
X144671142Y-83638571D01*
X144598571Y-83711142D01*
X144526000Y-83747428D01*
X145251714Y-83602285D02*
X145288000Y-83566000D01*
X145360571Y-83529714D01*
X145542000Y-83529714D01*
X145614571Y-83566000D01*
X145650857Y-83602285D01*
X145687142Y-83674857D01*
X145687142Y-83747428D01*
X145650857Y-83856285D01*
X145215428Y-84291714D01*
X145687142Y-84291714D01*
X93272428Y-86759142D02*
X93236142Y-86795428D01*
X93127285Y-86831714D01*
X93054714Y-86831714D01*
X92945857Y-86795428D01*
X92873285Y-86722857D01*
X92837000Y-86650285D01*
X92800714Y-86505142D01*
X92800714Y-86396285D01*
X92837000Y-86251142D01*
X92873285Y-86178571D01*
X92945857Y-86106000D01*
X93054714Y-86069714D01*
X93127285Y-86069714D01*
X93236142Y-86106000D01*
X93272428Y-86142285D01*
X93961857Y-86831714D02*
X93599000Y-86831714D01*
X93599000Y-86069714D01*
X94215857Y-86831714D02*
X94215857Y-86069714D01*
X94651285Y-86831714D02*
X94324714Y-86396285D01*
X94651285Y-86069714D02*
X94215857Y-86505142D01*
X143854714Y-63754000D02*
X144217571Y-63754000D01*
X143782142Y-63971714D02*
X144036142Y-63209714D01*
X144290142Y-63971714D01*
X144544142Y-63572571D02*
X144798142Y-63572571D01*
X144907000Y-63971714D02*
X144544142Y-63971714D01*
X144544142Y-63209714D01*
X144907000Y-63209714D01*
X145233571Y-63971714D02*
X145233571Y-63209714D01*
X145669000Y-63971714D01*
X145669000Y-63209714D01*
X92728142Y-76671714D02*
X92728142Y-75909714D01*
X92909571Y-75909714D01*
X93018428Y-75946000D01*
X93091000Y-76018571D01*
X93127285Y-76091142D01*
X93163571Y-76236285D01*
X93163571Y-76345142D01*
X93127285Y-76490285D01*
X93091000Y-76562857D01*
X93018428Y-76635428D01*
X92909571Y-76671714D01*
X92728142Y-76671714D01*
X93490142Y-76671714D02*
X93490142Y-75909714D01*
X93744142Y-76454000D01*
X93998142Y-75909714D01*
X93998142Y-76671714D01*
X94288428Y-75909714D02*
X94760142Y-75909714D01*
X94506142Y-76200000D01*
X94615000Y-76200000D01*
X94687571Y-76236285D01*
X94723857Y-76272571D01*
X94760142Y-76345142D01*
X94760142Y-76526571D01*
X94723857Y-76599142D01*
X94687571Y-76635428D01*
X94615000Y-76671714D01*
X94397285Y-76671714D01*
X94324714Y-76635428D01*
X94288428Y-76599142D01*
X93145428Y-114046000D02*
X93072857Y-114009714D01*
X92964000Y-114009714D01*
X92855142Y-114046000D01*
X92782571Y-114118571D01*
X92746285Y-114191142D01*
X92710000Y-114336285D01*
X92710000Y-114445142D01*
X92746285Y-114590285D01*
X92782571Y-114662857D01*
X92855142Y-114735428D01*
X92964000Y-114771714D01*
X93036571Y-114771714D01*
X93145428Y-114735428D01*
X93181714Y-114699142D01*
X93181714Y-114445142D01*
X93036571Y-114445142D01*
X93508285Y-114771714D02*
X93508285Y-114009714D01*
X93943714Y-114771714D01*
X93943714Y-114009714D01*
X94306571Y-114771714D02*
X94306571Y-114009714D01*
X94488000Y-114009714D01*
X94596857Y-114046000D01*
X94669428Y-114118571D01*
X94705714Y-114191142D01*
X94742000Y-114336285D01*
X94742000Y-114445142D01*
X94705714Y-114590285D01*
X94669428Y-114662857D01*
X94596857Y-114735428D01*
X94488000Y-114771714D01*
X94306571Y-114771714D01*
X143872857Y-86614000D02*
X144235714Y-86614000D01*
X143800285Y-86831714D02*
X144054285Y-86069714D01*
X144308285Y-86831714D01*
X144961428Y-86831714D02*
X144526000Y-86831714D01*
X144743714Y-86831714D02*
X144743714Y-86069714D01*
X144671142Y-86178571D01*
X144598571Y-86251142D01*
X144526000Y-86287428D01*
X145687142Y-86831714D02*
X145251714Y-86831714D01*
X145469428Y-86831714D02*
X145469428Y-86069714D01*
X145396857Y-86178571D01*
X145324285Y-86251142D01*
X145251714Y-86287428D01*
X143963571Y-48731714D02*
X143963571Y-47969714D01*
X144145000Y-47969714D01*
X144253857Y-48006000D01*
X144326428Y-48078571D01*
X144362714Y-48151142D01*
X144399000Y-48296285D01*
X144399000Y-48405142D01*
X144362714Y-48550285D01*
X144326428Y-48622857D01*
X144253857Y-48695428D01*
X144145000Y-48731714D01*
X143963571Y-48731714D01*
X145052142Y-48223714D02*
X145052142Y-48731714D01*
X144870714Y-47933428D02*
X144689285Y-48477714D01*
X145161000Y-48477714D01*
X143963571Y-51271714D02*
X143963571Y-50509714D01*
X144145000Y-50509714D01*
X144253857Y-50546000D01*
X144326428Y-50618571D01*
X144362714Y-50691142D01*
X144399000Y-50836285D01*
X144399000Y-50945142D01*
X144362714Y-51090285D01*
X144326428Y-51162857D01*
X144253857Y-51235428D01*
X144145000Y-51271714D01*
X143963571Y-51271714D01*
X144653000Y-50509714D02*
X145124714Y-50509714D01*
X144870714Y-50800000D01*
X144979571Y-50800000D01*
X145052142Y-50836285D01*
X145088428Y-50872571D01*
X145124714Y-50945142D01*
X145124714Y-51126571D01*
X145088428Y-51199142D01*
X145052142Y-51235428D01*
X144979571Y-51271714D01*
X144761857Y-51271714D01*
X144689285Y-51235428D01*
X144653000Y-51199142D01*
X143963571Y-58891714D02*
X143963571Y-58129714D01*
X144145000Y-58129714D01*
X144253857Y-58166000D01*
X144326428Y-58238571D01*
X144362714Y-58311142D01*
X144399000Y-58456285D01*
X144399000Y-58565142D01*
X144362714Y-58710285D01*
X144326428Y-58782857D01*
X144253857Y-58855428D01*
X144145000Y-58891714D01*
X143963571Y-58891714D01*
X144870714Y-58129714D02*
X144943285Y-58129714D01*
X145015857Y-58166000D01*
X145052142Y-58202285D01*
X145088428Y-58274857D01*
X145124714Y-58420000D01*
X145124714Y-58601428D01*
X145088428Y-58746571D01*
X145052142Y-58819142D01*
X145015857Y-58855428D01*
X144943285Y-58891714D01*
X144870714Y-58891714D01*
X144798142Y-58855428D01*
X144761857Y-58819142D01*
X144725571Y-58746571D01*
X144689285Y-58601428D01*
X144689285Y-58420000D01*
X144725571Y-58274857D01*
X144761857Y-58202285D01*
X144798142Y-58166000D01*
X144870714Y-58129714D01*
X144308285Y-61304714D02*
X144054285Y-60941857D01*
X143872857Y-61304714D02*
X143872857Y-60542714D01*
X144163142Y-60542714D01*
X144235714Y-60579000D01*
X144272000Y-60615285D01*
X144308285Y-60687857D01*
X144308285Y-60796714D01*
X144272000Y-60869285D01*
X144235714Y-60905571D01*
X144163142Y-60941857D01*
X143872857Y-60941857D01*
X144634857Y-61304714D02*
X144634857Y-60542714D01*
X144816285Y-60542714D01*
X144925142Y-60579000D01*
X144997714Y-60651571D01*
X145034000Y-60724142D01*
X145070285Y-60869285D01*
X145070285Y-60978142D01*
X145034000Y-61123285D01*
X144997714Y-61195857D01*
X144925142Y-61268428D01*
X144816285Y-61304714D01*
X144634857Y-61304714D01*
X145542000Y-60941857D02*
X145542000Y-61304714D01*
X145288000Y-60542714D02*
X145542000Y-60941857D01*
X145796000Y-60542714D01*
X143872857Y-68834000D02*
X144235714Y-68834000D01*
X143800285Y-69051714D02*
X144054285Y-68289714D01*
X144308285Y-69051714D01*
X144961428Y-69051714D02*
X144526000Y-69051714D01*
X144743714Y-69051714D02*
X144743714Y-68289714D01*
X144671142Y-68398571D01*
X144598571Y-68471142D01*
X144526000Y-68507428D01*
X145396857Y-68616285D02*
X145324285Y-68580000D01*
X145288000Y-68543714D01*
X145251714Y-68471142D01*
X145251714Y-68434857D01*
X145288000Y-68362285D01*
X145324285Y-68326000D01*
X145396857Y-68289714D01*
X145542000Y-68289714D01*
X145614571Y-68326000D01*
X145650857Y-68362285D01*
X145687142Y-68434857D01*
X145687142Y-68471142D01*
X145650857Y-68543714D01*
X145614571Y-68580000D01*
X145542000Y-68616285D01*
X145396857Y-68616285D01*
X145324285Y-68652571D01*
X145288000Y-68688857D01*
X145251714Y-68761428D01*
X145251714Y-68906571D01*
X145288000Y-68979142D01*
X145324285Y-69015428D01*
X145396857Y-69051714D01*
X145542000Y-69051714D01*
X145614571Y-69015428D01*
X145650857Y-68979142D01*
X145687142Y-68906571D01*
X145687142Y-68761428D01*
X145650857Y-68688857D01*
X145614571Y-68652571D01*
X145542000Y-68616285D01*
X143872857Y-76454000D02*
X144235714Y-76454000D01*
X143800285Y-76671714D02*
X144054285Y-75909714D01*
X144308285Y-76671714D01*
X144961428Y-76671714D02*
X144526000Y-76671714D01*
X144743714Y-76671714D02*
X144743714Y-75909714D01*
X144671142Y-76018571D01*
X144598571Y-76091142D01*
X144526000Y-76127428D01*
X145650857Y-75909714D02*
X145288000Y-75909714D01*
X145251714Y-76272571D01*
X145288000Y-76236285D01*
X145360571Y-76200000D01*
X145542000Y-76200000D01*
X145614571Y-76236285D01*
X145650857Y-76272571D01*
X145687142Y-76345142D01*
X145687142Y-76526571D01*
X145650857Y-76599142D01*
X145614571Y-76635428D01*
X145542000Y-76671714D01*
X145360571Y-76671714D01*
X145288000Y-76635428D01*
X145251714Y-76599142D01*
X143981714Y-96774000D02*
X144344571Y-96774000D01*
X143909142Y-96991714D02*
X144163142Y-96229714D01*
X144417142Y-96991714D01*
X144598571Y-96229714D02*
X145106571Y-96229714D01*
X144780000Y-96991714D01*
X93435714Y-108929714D02*
X93072857Y-108929714D01*
X93036571Y-109292571D01*
X93072857Y-109256285D01*
X93145428Y-109220000D01*
X93326857Y-109220000D01*
X93399428Y-109256285D01*
X93435714Y-109292571D01*
X93472000Y-109365142D01*
X93472000Y-109546571D01*
X93435714Y-109619142D01*
X93399428Y-109655428D01*
X93326857Y-109691714D01*
X93145428Y-109691714D01*
X93072857Y-109655428D01*
X93036571Y-109619142D01*
X93798571Y-109401428D02*
X94379142Y-109401428D01*
X94088857Y-109691714D02*
X94088857Y-109111142D01*
X92655571Y-63971714D02*
X92655571Y-63209714D01*
X92909571Y-63754000D01*
X93163571Y-63209714D01*
X93163571Y-63971714D01*
X93453857Y-63209714D02*
X93635285Y-63971714D01*
X93780428Y-63427428D01*
X93925571Y-63971714D01*
X94107000Y-63209714D01*
X94832714Y-63971714D02*
X94578714Y-63608857D01*
X94397285Y-63971714D02*
X94397285Y-63209714D01*
X94687571Y-63209714D01*
X94760142Y-63246000D01*
X94796428Y-63282285D01*
X94832714Y-63354857D01*
X94832714Y-63463714D01*
X94796428Y-63536285D01*
X94760142Y-63572571D01*
X94687571Y-63608857D01*
X94397285Y-63608857D01*
X143872857Y-89154000D02*
X144235714Y-89154000D01*
X143800285Y-89371714D02*
X144054285Y-88609714D01*
X144308285Y-89371714D01*
X144961428Y-89371714D02*
X144526000Y-89371714D01*
X144743714Y-89371714D02*
X144743714Y-88609714D01*
X144671142Y-88718571D01*
X144598571Y-88791142D01*
X144526000Y-88827428D01*
X145433142Y-88609714D02*
X145505714Y-88609714D01*
X145578285Y-88646000D01*
X145614571Y-88682285D01*
X145650857Y-88754857D01*
X145687142Y-88900000D01*
X145687142Y-89081428D01*
X145650857Y-89226571D01*
X145614571Y-89299142D01*
X145578285Y-89335428D01*
X145505714Y-89371714D01*
X145433142Y-89371714D01*
X145360571Y-89335428D01*
X145324285Y-89299142D01*
X145288000Y-89226571D01*
X145251714Y-89081428D01*
X145251714Y-88900000D01*
X145288000Y-88754857D01*
X145324285Y-88682285D01*
X145360571Y-88646000D01*
X145433142Y-88609714D01*
X92782571Y-79211714D02*
X92782571Y-78449714D01*
X92964000Y-78449714D01*
X93072857Y-78486000D01*
X93145428Y-78558571D01*
X93181714Y-78631142D01*
X93218000Y-78776285D01*
X93218000Y-78885142D01*
X93181714Y-79030285D01*
X93145428Y-79102857D01*
X93072857Y-79175428D01*
X92964000Y-79211714D01*
X92782571Y-79211714D01*
X93544571Y-79211714D02*
X93544571Y-78449714D01*
X93980000Y-79211714D02*
X93653428Y-78776285D01*
X93980000Y-78449714D02*
X93544571Y-78885142D01*
X94705714Y-79211714D02*
X94270285Y-79211714D01*
X94488000Y-79211714D02*
X94488000Y-78449714D01*
X94415428Y-78558571D01*
X94342857Y-78631142D01*
X94270285Y-78667428D01*
X143981714Y-106934000D02*
X144344571Y-106934000D01*
X143909142Y-107151714D02*
X144163142Y-106389714D01*
X144417142Y-107151714D01*
X144598571Y-106389714D02*
X145070285Y-106389714D01*
X144816285Y-106680000D01*
X144925142Y-106680000D01*
X144997714Y-106716285D01*
X145034000Y-106752571D01*
X145070285Y-106825142D01*
X145070285Y-107006571D01*
X145034000Y-107079142D01*
X144997714Y-107115428D01*
X144925142Y-107151714D01*
X144707428Y-107151714D01*
X144634857Y-107115428D01*
X144598571Y-107079142D01*
D14*
G04 #@! TO.C,C6*
X133296000Y-114752000D02*
X133296000Y-110212000D01*
X135436000Y-114752000D02*
X135436000Y-110212000D01*
X133296000Y-114752000D02*
X133311000Y-114752000D01*
X135421000Y-114752000D02*
X135436000Y-114752000D01*
X133296000Y-110212000D02*
X133311000Y-110212000D01*
X135421000Y-110212000D02*
X135436000Y-110212000D01*
G04 #@! TO.C,C5*
X135436000Y-39172000D02*
X135436000Y-43712000D01*
X133296000Y-39172000D02*
X133296000Y-43712000D01*
X135436000Y-39172000D02*
X135421000Y-39172000D01*
X133311000Y-39172000D02*
X133296000Y-39172000D01*
X135436000Y-43712000D02*
X135421000Y-43712000D01*
X133311000Y-43712000D02*
X133296000Y-43712000D01*
G04 #@! TO.C,C4*
X112976000Y-114832000D02*
X112976000Y-110292000D01*
X115116000Y-114832000D02*
X115116000Y-110292000D01*
X112976000Y-114832000D02*
X112991000Y-114832000D01*
X115101000Y-114832000D02*
X115116000Y-114832000D01*
X112976000Y-110292000D02*
X112991000Y-110292000D01*
X115101000Y-110292000D02*
X115116000Y-110292000D01*
G04 #@! TO.C,C3*
X115116000Y-39092000D02*
X115116000Y-43632000D01*
X112976000Y-39092000D02*
X112976000Y-43632000D01*
X115116000Y-39092000D02*
X115101000Y-39092000D01*
X112991000Y-39092000D02*
X112976000Y-39092000D01*
X115116000Y-43632000D02*
X115101000Y-43632000D01*
X112991000Y-43632000D02*
X112976000Y-43632000D01*
G04 #@! TO.C,C2*
X103324000Y-114752000D02*
X103324000Y-110212000D01*
X105464000Y-114752000D02*
X105464000Y-110212000D01*
X103324000Y-114752000D02*
X103339000Y-114752000D01*
X105449000Y-114752000D02*
X105464000Y-114752000D01*
X103324000Y-110212000D02*
X103339000Y-110212000D01*
X105449000Y-110212000D02*
X105464000Y-110212000D01*
G04 #@! TO.C,C1*
X105464000Y-39092000D02*
X105464000Y-43632000D01*
X103324000Y-39092000D02*
X103324000Y-43632000D01*
X105464000Y-39092000D02*
X105449000Y-39092000D01*
X103339000Y-39092000D02*
X103324000Y-39092000D01*
X105464000Y-43632000D02*
X105449000Y-43632000D01*
X103339000Y-43632000D02*
X103324000Y-43632000D01*
G04 #@! TO.C,J9*
X135890000Y-36830000D02*
X135890000Y-115570000D01*
X143510000Y-36830000D02*
X135890000Y-36830000D01*
X143510000Y-115570000D02*
X143510000Y-36830000D01*
X135890000Y-115570000D02*
X143510000Y-115570000D01*
G04 #@! TO.C,R2*
X132842000Y-23646000D02*
X132842000Y-24416000D01*
X132842000Y-31726000D02*
X132842000Y-30956000D01*
X131472000Y-24416000D02*
X131472000Y-30956000D01*
X134212000Y-24416000D02*
X131472000Y-24416000D01*
X134212000Y-30956000D02*
X134212000Y-24416000D01*
X131472000Y-30956000D02*
X134212000Y-30956000D01*
G04 #@! TO.C,R1*
X129540000Y-23646000D02*
X129540000Y-24416000D01*
X129540000Y-31726000D02*
X129540000Y-30956000D01*
X128170000Y-24416000D02*
X128170000Y-30956000D01*
X130910000Y-24416000D02*
X128170000Y-24416000D01*
X130910000Y-30956000D02*
X130910000Y-24416000D01*
X128170000Y-30956000D02*
X130910000Y-30956000D01*
G04 #@! TO.C,J2*
X166337000Y-23337000D02*
X166337000Y-14147000D01*
X156927000Y-23217000D02*
X156927000Y-14267000D01*
X163607000Y-14147000D02*
X166337000Y-14147000D01*
X163607000Y-23337000D02*
X166337000Y-23337000D01*
X160007000Y-14147000D02*
X160907000Y-14147000D01*
X160007000Y-23337000D02*
X160907000Y-23337000D01*
G04 #@! TO.C,SW1*
X154940000Y-26670000D02*
X163576000Y-26670000D01*
X163576000Y-35306000D02*
X154940000Y-35306000D01*
X154940000Y-35306000D02*
X154940000Y-26670000D01*
X163576000Y-35306000D02*
X163576000Y-26670000D01*
G04 #@! TO.C,J5*
X115570000Y-36830000D02*
X115570000Y-115570000D01*
X123190000Y-36830000D02*
X115570000Y-36830000D01*
X123190000Y-115570000D02*
X123190000Y-36830000D01*
X115570000Y-115570000D02*
X123190000Y-115570000D01*
G04 #@! TO.C,J4*
X147260000Y-115630000D02*
X149920000Y-115630000D01*
X147260000Y-39370000D02*
X147260000Y-115630000D01*
X149920000Y-39370000D02*
X149920000Y-115630000D01*
X147260000Y-39370000D02*
X149920000Y-39370000D01*
X147260000Y-38100000D02*
X147260000Y-36770000D01*
X147260000Y-36770000D02*
X148590000Y-36770000D01*
G04 #@! TO.C,J3*
X88840000Y-115630000D02*
X91500000Y-115630000D01*
X88840000Y-39370000D02*
X88840000Y-115630000D01*
X91500000Y-39370000D02*
X91500000Y-115630000D01*
X88840000Y-39370000D02*
X91500000Y-39370000D01*
X88840000Y-38100000D02*
X88840000Y-36770000D01*
X88840000Y-36770000D02*
X90170000Y-36770000D01*
G04 #@! TO.C,J1*
X95250000Y-36830000D02*
X95250000Y-115570000D01*
X102870000Y-36830000D02*
X95250000Y-36830000D01*
X102870000Y-115570000D02*
X102870000Y-36830000D01*
X95250000Y-115570000D02*
X102870000Y-115570000D01*
G04 #@! TO.C,C6*
D11*
X133818380Y-114164857D02*
X133818380Y-114069619D01*
X133866000Y-113974380D01*
X133913619Y-113926761D01*
X134008857Y-113879142D01*
X134199333Y-113831523D01*
X134437428Y-113831523D01*
X134627904Y-113879142D01*
X134723142Y-113926761D01*
X134770761Y-113974380D01*
X134818380Y-114069619D01*
X134818380Y-114164857D01*
X134770761Y-114260095D01*
X134723142Y-114307714D01*
X134627904Y-114355333D01*
X134437428Y-114402952D01*
X134199333Y-114402952D01*
X134008857Y-114355333D01*
X133913619Y-114307714D01*
X133866000Y-114260095D01*
X133818380Y-114164857D01*
X134723142Y-113402952D02*
X134770761Y-113355333D01*
X134818380Y-113402952D01*
X134770761Y-113450571D01*
X134723142Y-113402952D01*
X134818380Y-113402952D01*
X134818380Y-112402952D02*
X134818380Y-112974380D01*
X134818380Y-112688666D02*
X133818380Y-112688666D01*
X133961238Y-112783904D01*
X134056476Y-112879142D01*
X134104095Y-112974380D01*
X134151714Y-111545809D02*
X134818380Y-111545809D01*
X134151714Y-111974380D02*
X134675523Y-111974380D01*
X134770761Y-111926761D01*
X134818380Y-111831523D01*
X134818380Y-111688666D01*
X134770761Y-111593428D01*
X134723142Y-111545809D01*
X134294571Y-110736285D02*
X134294571Y-111069619D01*
X134818380Y-111069619D02*
X133818380Y-111069619D01*
X133818380Y-110593428D01*
G04 #@! TO.C,C5*
X133818380Y-43084857D02*
X133818380Y-42989619D01*
X133866000Y-42894380D01*
X133913619Y-42846761D01*
X134008857Y-42799142D01*
X134199333Y-42751523D01*
X134437428Y-42751523D01*
X134627904Y-42799142D01*
X134723142Y-42846761D01*
X134770761Y-42894380D01*
X134818380Y-42989619D01*
X134818380Y-43084857D01*
X134770761Y-43180095D01*
X134723142Y-43227714D01*
X134627904Y-43275333D01*
X134437428Y-43322952D01*
X134199333Y-43322952D01*
X134008857Y-43275333D01*
X133913619Y-43227714D01*
X133866000Y-43180095D01*
X133818380Y-43084857D01*
X134723142Y-42322952D02*
X134770761Y-42275333D01*
X134818380Y-42322952D01*
X134770761Y-42370571D01*
X134723142Y-42322952D01*
X134818380Y-42322952D01*
X134818380Y-41322952D02*
X134818380Y-41894380D01*
X134818380Y-41608666D02*
X133818380Y-41608666D01*
X133961238Y-41703904D01*
X134056476Y-41799142D01*
X134104095Y-41894380D01*
X134151714Y-40465809D02*
X134818380Y-40465809D01*
X134151714Y-40894380D02*
X134675523Y-40894380D01*
X134770761Y-40846761D01*
X134818380Y-40751523D01*
X134818380Y-40608666D01*
X134770761Y-40513428D01*
X134723142Y-40465809D01*
X134294571Y-39656285D02*
X134294571Y-39989619D01*
X134818380Y-39989619D02*
X133818380Y-39989619D01*
X133818380Y-39513428D01*
G04 #@! TO.C,C4*
X113498380Y-114164857D02*
X113498380Y-114069619D01*
X113546000Y-113974380D01*
X113593619Y-113926761D01*
X113688857Y-113879142D01*
X113879333Y-113831523D01*
X114117428Y-113831523D01*
X114307904Y-113879142D01*
X114403142Y-113926761D01*
X114450761Y-113974380D01*
X114498380Y-114069619D01*
X114498380Y-114164857D01*
X114450761Y-114260095D01*
X114403142Y-114307714D01*
X114307904Y-114355333D01*
X114117428Y-114402952D01*
X113879333Y-114402952D01*
X113688857Y-114355333D01*
X113593619Y-114307714D01*
X113546000Y-114260095D01*
X113498380Y-114164857D01*
X114403142Y-113402952D02*
X114450761Y-113355333D01*
X114498380Y-113402952D01*
X114450761Y-113450571D01*
X114403142Y-113402952D01*
X114498380Y-113402952D01*
X114498380Y-112402952D02*
X114498380Y-112974380D01*
X114498380Y-112688666D02*
X113498380Y-112688666D01*
X113641238Y-112783904D01*
X113736476Y-112879142D01*
X113784095Y-112974380D01*
X113831714Y-111545809D02*
X114498380Y-111545809D01*
X113831714Y-111974380D02*
X114355523Y-111974380D01*
X114450761Y-111926761D01*
X114498380Y-111831523D01*
X114498380Y-111688666D01*
X114450761Y-111593428D01*
X114403142Y-111545809D01*
X113974571Y-110736285D02*
X113974571Y-111069619D01*
X114498380Y-111069619D02*
X113498380Y-111069619D01*
X113498380Y-110593428D01*
G04 #@! TO.C,C3*
X113498380Y-43004857D02*
X113498380Y-42909619D01*
X113546000Y-42814380D01*
X113593619Y-42766761D01*
X113688857Y-42719142D01*
X113879333Y-42671523D01*
X114117428Y-42671523D01*
X114307904Y-42719142D01*
X114403142Y-42766761D01*
X114450761Y-42814380D01*
X114498380Y-42909619D01*
X114498380Y-43004857D01*
X114450761Y-43100095D01*
X114403142Y-43147714D01*
X114307904Y-43195333D01*
X114117428Y-43242952D01*
X113879333Y-43242952D01*
X113688857Y-43195333D01*
X113593619Y-43147714D01*
X113546000Y-43100095D01*
X113498380Y-43004857D01*
X114403142Y-42242952D02*
X114450761Y-42195333D01*
X114498380Y-42242952D01*
X114450761Y-42290571D01*
X114403142Y-42242952D01*
X114498380Y-42242952D01*
X114498380Y-41242952D02*
X114498380Y-41814380D01*
X114498380Y-41528666D02*
X113498380Y-41528666D01*
X113641238Y-41623904D01*
X113736476Y-41719142D01*
X113784095Y-41814380D01*
X113831714Y-40385809D02*
X114498380Y-40385809D01*
X113831714Y-40814380D02*
X114355523Y-40814380D01*
X114450761Y-40766761D01*
X114498380Y-40671523D01*
X114498380Y-40528666D01*
X114450761Y-40433428D01*
X114403142Y-40385809D01*
X113974571Y-39576285D02*
X113974571Y-39909619D01*
X114498380Y-39909619D02*
X113498380Y-39909619D01*
X113498380Y-39433428D01*
G04 #@! TO.C,C2*
X103846380Y-114164857D02*
X103846380Y-114069619D01*
X103894000Y-113974380D01*
X103941619Y-113926761D01*
X104036857Y-113879142D01*
X104227333Y-113831523D01*
X104465428Y-113831523D01*
X104655904Y-113879142D01*
X104751142Y-113926761D01*
X104798761Y-113974380D01*
X104846380Y-114069619D01*
X104846380Y-114164857D01*
X104798761Y-114260095D01*
X104751142Y-114307714D01*
X104655904Y-114355333D01*
X104465428Y-114402952D01*
X104227333Y-114402952D01*
X104036857Y-114355333D01*
X103941619Y-114307714D01*
X103894000Y-114260095D01*
X103846380Y-114164857D01*
X104751142Y-113402952D02*
X104798761Y-113355333D01*
X104846380Y-113402952D01*
X104798761Y-113450571D01*
X104751142Y-113402952D01*
X104846380Y-113402952D01*
X104846380Y-112402952D02*
X104846380Y-112974380D01*
X104846380Y-112688666D02*
X103846380Y-112688666D01*
X103989238Y-112783904D01*
X104084476Y-112879142D01*
X104132095Y-112974380D01*
X104179714Y-111545809D02*
X104846380Y-111545809D01*
X104179714Y-111974380D02*
X104703523Y-111974380D01*
X104798761Y-111926761D01*
X104846380Y-111831523D01*
X104846380Y-111688666D01*
X104798761Y-111593428D01*
X104751142Y-111545809D01*
X104322571Y-110736285D02*
X104322571Y-111069619D01*
X104846380Y-111069619D02*
X103846380Y-111069619D01*
X103846380Y-110593428D01*
G04 #@! TO.C,C1*
X103846380Y-43004857D02*
X103846380Y-42909619D01*
X103894000Y-42814380D01*
X103941619Y-42766761D01*
X104036857Y-42719142D01*
X104227333Y-42671523D01*
X104465428Y-42671523D01*
X104655904Y-42719142D01*
X104751142Y-42766761D01*
X104798761Y-42814380D01*
X104846380Y-42909619D01*
X104846380Y-43004857D01*
X104798761Y-43100095D01*
X104751142Y-43147714D01*
X104655904Y-43195333D01*
X104465428Y-43242952D01*
X104227333Y-43242952D01*
X104036857Y-43195333D01*
X103941619Y-43147714D01*
X103894000Y-43100095D01*
X103846380Y-43004857D01*
X104751142Y-42242952D02*
X104798761Y-42195333D01*
X104846380Y-42242952D01*
X104798761Y-42290571D01*
X104751142Y-42242952D01*
X104846380Y-42242952D01*
X104846380Y-41242952D02*
X104846380Y-41814380D01*
X104846380Y-41528666D02*
X103846380Y-41528666D01*
X103989238Y-41623904D01*
X104084476Y-41719142D01*
X104132095Y-41814380D01*
X104179714Y-40385809D02*
X104846380Y-40385809D01*
X104179714Y-40814380D02*
X104703523Y-40814380D01*
X104798761Y-40766761D01*
X104846380Y-40671523D01*
X104846380Y-40528666D01*
X104798761Y-40433428D01*
X104751142Y-40385809D01*
X104322571Y-39576285D02*
X104322571Y-39909619D01*
X104846380Y-39909619D02*
X103846380Y-39909619D01*
X103846380Y-39433428D01*
G04 #@! TO.C,R2*
X133326142Y-28352666D02*
X133373761Y-28400285D01*
X133421380Y-28543142D01*
X133421380Y-28638380D01*
X133373761Y-28781238D01*
X133278523Y-28876476D01*
X133183285Y-28924095D01*
X132992809Y-28971714D01*
X132849952Y-28971714D01*
X132659476Y-28924095D01*
X132564238Y-28876476D01*
X132469000Y-28781238D01*
X132421380Y-28638380D01*
X132421380Y-28543142D01*
X132469000Y-28400285D01*
X132516619Y-28352666D01*
X133326142Y-27352666D02*
X133373761Y-27400285D01*
X133421380Y-27543142D01*
X133421380Y-27638380D01*
X133373761Y-27781238D01*
X133278523Y-27876476D01*
X133183285Y-27924095D01*
X132992809Y-27971714D01*
X132849952Y-27971714D01*
X132659476Y-27924095D01*
X132564238Y-27876476D01*
X132469000Y-27781238D01*
X132421380Y-27638380D01*
X132421380Y-27543142D01*
X132469000Y-27400285D01*
X132516619Y-27352666D01*
X132516619Y-26971714D02*
X132469000Y-26924095D01*
X132421380Y-26828857D01*
X132421380Y-26590761D01*
X132469000Y-26495523D01*
X132516619Y-26447904D01*
X132611857Y-26400285D01*
X132707095Y-26400285D01*
X132849952Y-26447904D01*
X133421380Y-27019333D01*
X133421380Y-26400285D01*
G04 #@! TO.C,R1*
X129897142Y-28479666D02*
X129944761Y-28527285D01*
X129992380Y-28670142D01*
X129992380Y-28765380D01*
X129944761Y-28908238D01*
X129849523Y-29003476D01*
X129754285Y-29051095D01*
X129563809Y-29098714D01*
X129420952Y-29098714D01*
X129230476Y-29051095D01*
X129135238Y-29003476D01*
X129040000Y-28908238D01*
X128992380Y-28765380D01*
X128992380Y-28670142D01*
X129040000Y-28527285D01*
X129087619Y-28479666D01*
X129897142Y-27479666D02*
X129944761Y-27527285D01*
X129992380Y-27670142D01*
X129992380Y-27765380D01*
X129944761Y-27908238D01*
X129849523Y-28003476D01*
X129754285Y-28051095D01*
X129563809Y-28098714D01*
X129420952Y-28098714D01*
X129230476Y-28051095D01*
X129135238Y-28003476D01*
X129040000Y-27908238D01*
X128992380Y-27765380D01*
X128992380Y-27670142D01*
X129040000Y-27527285D01*
X129087619Y-27479666D01*
X129992380Y-26527285D02*
X129992380Y-27098714D01*
X129992380Y-26813000D02*
X128992380Y-26813000D01*
X129135238Y-26908238D01*
X129230476Y-27003476D01*
X129278095Y-27098714D01*
G04 #@! TO.C,SW1*
X158458000Y-31230857D02*
X158543714Y-31259428D01*
X158686571Y-31259428D01*
X158743714Y-31230857D01*
X158772285Y-31202285D01*
X158800857Y-31145142D01*
X158800857Y-31088000D01*
X158772285Y-31030857D01*
X158743714Y-31002285D01*
X158686571Y-30973714D01*
X158572285Y-30945142D01*
X158515142Y-30916571D01*
X158486571Y-30888000D01*
X158458000Y-30830857D01*
X158458000Y-30773714D01*
X158486571Y-30716571D01*
X158515142Y-30688000D01*
X158572285Y-30659428D01*
X158715142Y-30659428D01*
X158800857Y-30688000D01*
X159000857Y-30659428D02*
X159143714Y-31259428D01*
X159258000Y-30830857D01*
X159372285Y-31259428D01*
X159515142Y-30659428D01*
X160058000Y-31259428D02*
X159715142Y-31259428D01*
X159886571Y-31259428D02*
X159886571Y-30659428D01*
X159829428Y-30745142D01*
X159772285Y-30802285D01*
X159715142Y-30830857D01*
G04 #@! TD*
M02*
