G04 #@! TF.GenerationSoftware,KiCad,Pcbnew,(5.1.8)-1*
G04 #@! TF.CreationDate,2024-05-23T13:17:17-06:00*
G04 #@! TF.ProjectId,Breadboard Adapter,42726561-6462-46f6-9172-642041646170,rev?*
G04 #@! TF.SameCoordinates,Original*
G04 #@! TF.FileFunction,Soldermask,Top*
G04 #@! TF.FilePolarity,Negative*
%FSLAX46Y46*%
G04 Gerber Fmt 4.6, Leading zero omitted, Abs format (unit mm)*
G04 Created by KiCad (PCBNEW (5.1.8)-1) date 2024-05-23 13:17:17*
%MOMM*%
%LPD*%
G01*
G04 APERTURE LIST*
%ADD10O,1.700000X1.700000*%
%ADD11R,1.700000X1.700000*%
%ADD12C,1.524000*%
%ADD13R,1.524000X1.524000*%
%ADD14O,1.700000X0.900000*%
%ADD15O,2.400000X0.900000*%
%ADD16C,0.700000*%
G04 APERTURE END LIST*
D10*
G04 #@! TO.C,J4*
X106680000Y-114300000D03*
X106680000Y-111760000D03*
X106680000Y-109220000D03*
X106680000Y-106680000D03*
X106680000Y-104140000D03*
X106680000Y-101600000D03*
X106680000Y-99060000D03*
X106680000Y-96520000D03*
X106680000Y-93980000D03*
X106680000Y-91440000D03*
X106680000Y-88900000D03*
X106680000Y-86360000D03*
X106680000Y-83820000D03*
X106680000Y-81280000D03*
X106680000Y-78740000D03*
X106680000Y-76200000D03*
X106680000Y-73660000D03*
X106680000Y-71120000D03*
X106680000Y-68580000D03*
X106680000Y-66040000D03*
X106680000Y-63500000D03*
X106680000Y-60960000D03*
X106680000Y-58420000D03*
X106680000Y-55880000D03*
X106680000Y-53340000D03*
X106680000Y-50800000D03*
X106680000Y-48260000D03*
X106680000Y-45720000D03*
X106680000Y-43180000D03*
X106680000Y-40640000D03*
D11*
X106680000Y-38100000D03*
G04 #@! TD*
D10*
G04 #@! TO.C,J3*
X99060000Y-114300000D03*
X99060000Y-111760000D03*
X99060000Y-109220000D03*
X99060000Y-106680000D03*
X99060000Y-104140000D03*
X99060000Y-101600000D03*
X99060000Y-99060000D03*
X99060000Y-96520000D03*
X99060000Y-93980000D03*
X99060000Y-91440000D03*
X99060000Y-88900000D03*
X99060000Y-86360000D03*
X99060000Y-83820000D03*
X99060000Y-81280000D03*
X99060000Y-78740000D03*
X99060000Y-76200000D03*
X99060000Y-73660000D03*
X99060000Y-71120000D03*
X99060000Y-68580000D03*
X99060000Y-66040000D03*
X99060000Y-63500000D03*
X99060000Y-60960000D03*
X99060000Y-58420000D03*
X99060000Y-55880000D03*
X99060000Y-53340000D03*
X99060000Y-50800000D03*
X99060000Y-48260000D03*
X99060000Y-45720000D03*
X99060000Y-43180000D03*
X99060000Y-40640000D03*
D11*
X99060000Y-38100000D03*
G04 #@! TD*
D12*
G04 #@! TO.C,J9*
X96520000Y-114300000D03*
X96520000Y-111760000D03*
X96520000Y-109220000D03*
X96520000Y-106680000D03*
X96520000Y-104140000D03*
X96520000Y-101600000D03*
X96520000Y-99060000D03*
X96520000Y-96520000D03*
X96520000Y-93980000D03*
X96520000Y-91440000D03*
X96520000Y-88900000D03*
X96520000Y-86360000D03*
X96520000Y-83820000D03*
X96520000Y-81280000D03*
X96520000Y-78740000D03*
X96520000Y-76200000D03*
X96520000Y-73660000D03*
X96520000Y-71120000D03*
X96520000Y-68580000D03*
X96520000Y-66040000D03*
X96520000Y-63500000D03*
X96520000Y-60960000D03*
X96520000Y-58420000D03*
X96520000Y-55880000D03*
X96520000Y-53340000D03*
X96520000Y-50800000D03*
X96520000Y-48260000D03*
X96520000Y-45720000D03*
X96520000Y-43180000D03*
X96520000Y-40640000D03*
X96520000Y-38100000D03*
X91440000Y-114300000D03*
X91440000Y-111760000D03*
X91440000Y-109220000D03*
X91440000Y-106680000D03*
X91440000Y-104140000D03*
X91440000Y-101600000D03*
X91440000Y-99060000D03*
X91440000Y-96520000D03*
X91440000Y-93980000D03*
X91440000Y-91440000D03*
X91440000Y-88900000D03*
X91440000Y-86360000D03*
X91440000Y-83820000D03*
X91440000Y-81280000D03*
X91440000Y-78740000D03*
X91440000Y-76200000D03*
X91440000Y-73660000D03*
X91440000Y-71120000D03*
X91440000Y-68580000D03*
X91440000Y-66040000D03*
X91440000Y-63500000D03*
X91440000Y-60960000D03*
X91440000Y-58420000D03*
X91440000Y-55880000D03*
X91440000Y-53340000D03*
X91440000Y-50800000D03*
X91440000Y-48260000D03*
X91440000Y-45720000D03*
X91440000Y-43180000D03*
X91440000Y-40640000D03*
D13*
X91440000Y-38100000D03*
G04 #@! TD*
D12*
G04 #@! TO.C,J1*
X114300000Y-114300000D03*
X114300000Y-111760000D03*
X114300000Y-109220000D03*
X114300000Y-106680000D03*
X114300000Y-104140000D03*
X114300000Y-101600000D03*
X114300000Y-99060000D03*
X114300000Y-96520000D03*
X114300000Y-93980000D03*
X114300000Y-91440000D03*
X114300000Y-88900000D03*
X114300000Y-86360000D03*
X114300000Y-83820000D03*
X114300000Y-81280000D03*
X114300000Y-78740000D03*
X114300000Y-76200000D03*
X114300000Y-73660000D03*
X114300000Y-71120000D03*
X114300000Y-68580000D03*
X114300000Y-66040000D03*
X114300000Y-63500000D03*
X114300000Y-60960000D03*
X114300000Y-58420000D03*
X114300000Y-55880000D03*
X114300000Y-53340000D03*
X114300000Y-50800000D03*
X114300000Y-48260000D03*
X114300000Y-45720000D03*
X114300000Y-43180000D03*
X114300000Y-40640000D03*
X114300000Y-38100000D03*
X109220000Y-114300000D03*
X109220000Y-111760000D03*
X109220000Y-109220000D03*
X109220000Y-106680000D03*
X109220000Y-104140000D03*
X109220000Y-101600000D03*
X109220000Y-99060000D03*
X109220000Y-96520000D03*
X109220000Y-93980000D03*
X109220000Y-91440000D03*
X109220000Y-88900000D03*
X109220000Y-86360000D03*
X109220000Y-83820000D03*
X109220000Y-81280000D03*
X109220000Y-78740000D03*
X109220000Y-76200000D03*
X109220000Y-73660000D03*
X109220000Y-71120000D03*
X109220000Y-68580000D03*
X109220000Y-66040000D03*
X109220000Y-63500000D03*
X109220000Y-60960000D03*
X109220000Y-58420000D03*
X109220000Y-55880000D03*
X109220000Y-53340000D03*
X109220000Y-50800000D03*
X109220000Y-48260000D03*
X109220000Y-45720000D03*
X109220000Y-43180000D03*
X109220000Y-40640000D03*
D13*
X109220000Y-38100000D03*
G04 #@! TD*
D12*
G04 #@! TO.C,SW1*
X91536000Y-30908000D03*
X91536000Y-28408000D03*
X91536000Y-25908000D03*
X97536000Y-25908000D03*
X97536000Y-28408000D03*
X97536000Y-30908000D03*
G04 #@! TD*
D14*
G04 #@! TO.C,J2*
X94446000Y-22540000D03*
X94446000Y-13890000D03*
D15*
X97826000Y-22540000D03*
X97826000Y-13890000D03*
D16*
X97456000Y-18640000D03*
X97456000Y-21190000D03*
X97456000Y-20340000D03*
X97456000Y-19490000D03*
X97456000Y-15240000D03*
X97456000Y-16940000D03*
X97456000Y-17790000D03*
X97456000Y-16090000D03*
X98806000Y-21190000D03*
X98806000Y-20340000D03*
X98806000Y-19490000D03*
X98806000Y-18640000D03*
X98806000Y-17790000D03*
X98806000Y-16940000D03*
X98806000Y-16090000D03*
X98806000Y-15240000D03*
G04 #@! TD*
M02*
