G04 #@! TF.GenerationSoftware,KiCad,Pcbnew,(5.1.8)-1*
G04 #@! TF.CreationDate,2024-05-28T10:15:14-06:00*
G04 #@! TF.ProjectId,Breadboard Adapter,42726561-6462-46f6-9172-642041646170,rev?*
G04 #@! TF.SameCoordinates,Original*
G04 #@! TF.FileFunction,Soldermask,Bot*
G04 #@! TF.FilePolarity,Negative*
%FSLAX46Y46*%
G04 Gerber Fmt 4.6, Leading zero omitted, Abs format (unit mm)*
G04 Created by KiCad (PCBNEW (5.1.8)-1) date 2024-05-28 10:15:14*
%MOMM*%
%LPD*%
G01*
G04 APERTURE LIST*
%ADD10O,1.700000X0.900000*%
%ADD11O,2.400000X0.900000*%
%ADD12C,0.700000*%
%ADD13C,1.524000*%
%ADD14R,1.524000X1.524000*%
%ADD15O,1.700000X1.700000*%
%ADD16R,1.700000X1.700000*%
G04 APERTURE END LIST*
D10*
G04 #@! TO.C,J2*
X93176000Y-23810000D03*
X93176000Y-15160000D03*
D11*
X96556000Y-23810000D03*
X96556000Y-15160000D03*
D12*
X96186000Y-19910000D03*
X96186000Y-22460000D03*
X96186000Y-21610000D03*
X96186000Y-20760000D03*
X96186000Y-16510000D03*
X96186000Y-18210000D03*
X96186000Y-19060000D03*
X96186000Y-17360000D03*
X97536000Y-22460000D03*
X97536000Y-21610000D03*
X97536000Y-20760000D03*
X97536000Y-19910000D03*
X97536000Y-19060000D03*
X97536000Y-18210000D03*
X97536000Y-17360000D03*
X97536000Y-16510000D03*
G04 #@! TD*
D13*
G04 #@! TO.C,SW1*
X90266000Y-32178000D03*
X90266000Y-29678000D03*
X90266000Y-27178000D03*
X96266000Y-27178000D03*
X96266000Y-29678000D03*
X96266000Y-32178000D03*
G04 #@! TD*
G04 #@! TO.C,J9*
X142240000Y-114300000D03*
X142240000Y-111760000D03*
X142240000Y-109220000D03*
X142240000Y-106680000D03*
X142240000Y-104140000D03*
X142240000Y-101600000D03*
X142240000Y-99060000D03*
X142240000Y-96520000D03*
X142240000Y-93980000D03*
X142240000Y-91440000D03*
X142240000Y-88900000D03*
X142240000Y-86360000D03*
X142240000Y-83820000D03*
X142240000Y-81280000D03*
X142240000Y-78740000D03*
X142240000Y-76200000D03*
X142240000Y-73660000D03*
X142240000Y-71120000D03*
X142240000Y-68580000D03*
X142240000Y-66040000D03*
X142240000Y-63500000D03*
X142240000Y-60960000D03*
X142240000Y-58420000D03*
X142240000Y-55880000D03*
X142240000Y-53340000D03*
X142240000Y-50800000D03*
X142240000Y-48260000D03*
X142240000Y-45720000D03*
X142240000Y-43180000D03*
X142240000Y-40640000D03*
X142240000Y-38100000D03*
X137160000Y-114300000D03*
X137160000Y-111760000D03*
X137160000Y-109220000D03*
X137160000Y-106680000D03*
X137160000Y-104140000D03*
X137160000Y-101600000D03*
X137160000Y-99060000D03*
X137160000Y-96520000D03*
X137160000Y-93980000D03*
X137160000Y-91440000D03*
X137160000Y-88900000D03*
X137160000Y-86360000D03*
X137160000Y-83820000D03*
X137160000Y-81280000D03*
X137160000Y-78740000D03*
X137160000Y-76200000D03*
X137160000Y-73660000D03*
X137160000Y-71120000D03*
X137160000Y-68580000D03*
X137160000Y-66040000D03*
X137160000Y-63500000D03*
X137160000Y-60960000D03*
X137160000Y-58420000D03*
X137160000Y-55880000D03*
X137160000Y-53340000D03*
X137160000Y-50800000D03*
X137160000Y-48260000D03*
X137160000Y-45720000D03*
X137160000Y-43180000D03*
X137160000Y-40640000D03*
D14*
X137160000Y-38100000D03*
G04 #@! TD*
D13*
G04 #@! TO.C,J5*
X121920000Y-114300000D03*
X121920000Y-111760000D03*
X121920000Y-109220000D03*
X121920000Y-106680000D03*
X121920000Y-104140000D03*
X121920000Y-101600000D03*
X121920000Y-99060000D03*
X121920000Y-96520000D03*
X121920000Y-93980000D03*
X121920000Y-91440000D03*
X121920000Y-88900000D03*
X121920000Y-86360000D03*
X121920000Y-83820000D03*
X121920000Y-81280000D03*
X121920000Y-78740000D03*
X121920000Y-76200000D03*
X121920000Y-73660000D03*
X121920000Y-71120000D03*
X121920000Y-68580000D03*
X121920000Y-66040000D03*
X121920000Y-63500000D03*
X121920000Y-60960000D03*
X121920000Y-58420000D03*
X121920000Y-55880000D03*
X121920000Y-53340000D03*
X121920000Y-50800000D03*
X121920000Y-48260000D03*
X121920000Y-45720000D03*
X121920000Y-43180000D03*
X121920000Y-40640000D03*
X121920000Y-38100000D03*
X116840000Y-114300000D03*
X116840000Y-111760000D03*
X116840000Y-109220000D03*
X116840000Y-106680000D03*
X116840000Y-104140000D03*
X116840000Y-101600000D03*
X116840000Y-99060000D03*
X116840000Y-96520000D03*
X116840000Y-93980000D03*
X116840000Y-91440000D03*
X116840000Y-88900000D03*
X116840000Y-86360000D03*
X116840000Y-83820000D03*
X116840000Y-81280000D03*
X116840000Y-78740000D03*
X116840000Y-76200000D03*
X116840000Y-73660000D03*
X116840000Y-71120000D03*
X116840000Y-68580000D03*
X116840000Y-66040000D03*
X116840000Y-63500000D03*
X116840000Y-60960000D03*
X116840000Y-58420000D03*
X116840000Y-55880000D03*
X116840000Y-53340000D03*
X116840000Y-50800000D03*
X116840000Y-48260000D03*
X116840000Y-45720000D03*
X116840000Y-43180000D03*
X116840000Y-40640000D03*
D14*
X116840000Y-38100000D03*
G04 #@! TD*
D15*
G04 #@! TO.C,J4*
X148590000Y-114300000D03*
X148590000Y-111760000D03*
X148590000Y-109220000D03*
X148590000Y-106680000D03*
X148590000Y-104140000D03*
X148590000Y-101600000D03*
X148590000Y-99060000D03*
X148590000Y-96520000D03*
X148590000Y-93980000D03*
X148590000Y-91440000D03*
X148590000Y-88900000D03*
X148590000Y-86360000D03*
X148590000Y-83820000D03*
X148590000Y-81280000D03*
X148590000Y-78740000D03*
X148590000Y-76200000D03*
X148590000Y-73660000D03*
X148590000Y-71120000D03*
X148590000Y-68580000D03*
X148590000Y-66040000D03*
X148590000Y-63500000D03*
X148590000Y-60960000D03*
X148590000Y-58420000D03*
X148590000Y-55880000D03*
X148590000Y-53340000D03*
X148590000Y-50800000D03*
X148590000Y-48260000D03*
X148590000Y-45720000D03*
X148590000Y-43180000D03*
X148590000Y-40640000D03*
D16*
X148590000Y-38100000D03*
G04 #@! TD*
D15*
G04 #@! TO.C,J3*
X90170000Y-114300000D03*
X90170000Y-111760000D03*
X90170000Y-109220000D03*
X90170000Y-106680000D03*
X90170000Y-104140000D03*
X90170000Y-101600000D03*
X90170000Y-99060000D03*
X90170000Y-96520000D03*
X90170000Y-93980000D03*
X90170000Y-91440000D03*
X90170000Y-88900000D03*
X90170000Y-86360000D03*
X90170000Y-83820000D03*
X90170000Y-81280000D03*
X90170000Y-78740000D03*
X90170000Y-76200000D03*
X90170000Y-73660000D03*
X90170000Y-71120000D03*
X90170000Y-68580000D03*
X90170000Y-66040000D03*
X90170000Y-63500000D03*
X90170000Y-60960000D03*
X90170000Y-58420000D03*
X90170000Y-55880000D03*
X90170000Y-53340000D03*
X90170000Y-50800000D03*
X90170000Y-48260000D03*
X90170000Y-45720000D03*
X90170000Y-43180000D03*
X90170000Y-40640000D03*
D16*
X90170000Y-38100000D03*
G04 #@! TD*
D13*
G04 #@! TO.C,J1*
X101600000Y-114300000D03*
X101600000Y-111760000D03*
X101600000Y-109220000D03*
X101600000Y-106680000D03*
X101600000Y-104140000D03*
X101600000Y-101600000D03*
X101600000Y-99060000D03*
X101600000Y-96520000D03*
X101600000Y-93980000D03*
X101600000Y-91440000D03*
X101600000Y-88900000D03*
X101600000Y-86360000D03*
X101600000Y-83820000D03*
X101600000Y-81280000D03*
X101600000Y-78740000D03*
X101600000Y-76200000D03*
X101600000Y-73660000D03*
X101600000Y-71120000D03*
X101600000Y-68580000D03*
X101600000Y-66040000D03*
X101600000Y-63500000D03*
X101600000Y-60960000D03*
X101600000Y-58420000D03*
X101600000Y-55880000D03*
X101600000Y-53340000D03*
X101600000Y-50800000D03*
X101600000Y-48260000D03*
X101600000Y-45720000D03*
X101600000Y-43180000D03*
X101600000Y-40640000D03*
X101600000Y-38100000D03*
X96520000Y-114300000D03*
X96520000Y-111760000D03*
X96520000Y-109220000D03*
X96520000Y-106680000D03*
X96520000Y-104140000D03*
X96520000Y-101600000D03*
X96520000Y-99060000D03*
X96520000Y-96520000D03*
X96520000Y-93980000D03*
X96520000Y-91440000D03*
X96520000Y-88900000D03*
X96520000Y-86360000D03*
X96520000Y-83820000D03*
X96520000Y-81280000D03*
X96520000Y-78740000D03*
X96520000Y-76200000D03*
X96520000Y-73660000D03*
X96520000Y-71120000D03*
X96520000Y-68580000D03*
X96520000Y-66040000D03*
X96520000Y-63500000D03*
X96520000Y-60960000D03*
X96520000Y-58420000D03*
X96520000Y-55880000D03*
X96520000Y-53340000D03*
X96520000Y-50800000D03*
X96520000Y-48260000D03*
X96520000Y-45720000D03*
X96520000Y-43180000D03*
X96520000Y-40640000D03*
D14*
X96520000Y-38100000D03*
G04 #@! TD*
M02*
