M48
; DRILL file {KiCad (5.1.8)-1} date 05/28/24 10:21:19
; FORMAT={-:-/ absolute / inch / decimal}
; #@! TF.CreationDate,2024-05-28T10:21:19-06:00
; #@! TF.GenerationSoftware,Kicad,Pcbnew,(5.1.8)-1
; #@! TF.FileFunction,Plated,1,2,PTH
FMAT,2
INCH
T1C0.0157
T2C0.0236
T3C0.0300
T4C0.0394
%
G90
G05
T1
X3.68Y-1.17
X3.68Y-1.7
X3.68Y-4.3
X3.73Y-0.68
X3.73Y-0.85
X3.73Y-1.07
X3.89Y-0.65
X3.89Y-0.89
X3.89Y-1.52
X3.89Y-2.42
X3.89Y-4.52
X3.7869Y-0.65
X3.7869Y-0.6835
X3.7869Y-0.7169
X3.7869Y-0.7504
X3.7869Y-0.7839
X3.7869Y-0.8173
X3.7869Y-0.8508
X3.7869Y-0.8843
X3.84Y-0.65
X3.84Y-0.6835
X3.84Y-0.7169
X3.84Y-0.7504
X3.84Y-0.7839
X3.84Y-0.8173
X3.84Y-0.8508
X3.84Y-0.8843
T3
X3.5538Y-1.07
X3.5538Y-1.1684
X3.5538Y-1.2669
X3.79Y-1.07
X3.79Y-1.1684
X3.79Y-1.2669
X4.6Y-1.5
X4.6Y-1.6
X4.6Y-1.7
X4.6Y-1.8
X4.6Y-1.9
X4.6Y-2.0
X4.6Y-2.1
X4.6Y-2.2
X4.6Y-2.3
X4.6Y-2.4
X4.6Y-2.5
X4.6Y-2.6
X4.6Y-2.7
X4.6Y-2.8
X4.6Y-2.9
X4.6Y-3.0
X4.6Y-3.1
X4.6Y-3.2
X4.6Y-3.3
X4.6Y-3.4
X4.6Y-3.5
X4.6Y-3.6
X4.6Y-3.7
X4.6Y-3.8
X4.6Y-3.9
X4.6Y-4.0
X4.6Y-4.1
X4.6Y-4.2
X4.6Y-4.3
X4.6Y-4.4
X4.6Y-4.5
X4.8Y-1.5
X4.8Y-1.6
X4.8Y-1.7
X4.8Y-1.8
X4.8Y-1.9
X4.8Y-2.0
X4.8Y-2.1
X4.8Y-2.2
X4.8Y-2.3
X4.8Y-2.4
X4.8Y-2.5
X4.8Y-2.6
X4.8Y-2.7
X4.8Y-2.8
X4.8Y-2.9
X4.8Y-3.0
X4.8Y-3.1
X4.8Y-3.2
X4.8Y-3.3
X4.8Y-3.4
X4.8Y-3.5
X4.8Y-3.6
X4.8Y-3.7
X4.8Y-3.8
X4.8Y-3.9
X4.8Y-4.0
X4.8Y-4.1
X4.8Y-4.2
X4.8Y-4.3
X4.8Y-4.4
X4.8Y-4.5
X5.4Y-1.5
X5.4Y-1.6
X5.4Y-1.7
X5.4Y-1.8
X5.4Y-1.9
X5.4Y-2.0
X5.4Y-2.1
X5.4Y-2.2
X5.4Y-2.3
X5.4Y-2.4
X5.4Y-2.5
X5.4Y-2.6
X5.4Y-2.7
X5.4Y-2.8
X5.4Y-2.9
X5.4Y-3.0
X5.4Y-3.1
X5.4Y-3.2
X5.4Y-3.3
X5.4Y-3.4
X5.4Y-3.5
X5.4Y-3.6
X5.4Y-3.7
X5.4Y-3.8
X5.4Y-3.9
X5.4Y-4.0
X5.4Y-4.1
X5.4Y-4.2
X5.4Y-4.3
X5.4Y-4.4
X5.4Y-4.5
X5.6Y-1.5
X5.6Y-1.6
X5.6Y-1.7
X5.6Y-1.8
X5.6Y-1.9
X5.6Y-2.0
X5.6Y-2.1
X5.6Y-2.2
X5.6Y-2.3
X5.6Y-2.4
X5.6Y-2.5
X5.6Y-2.6
X5.6Y-2.7
X5.6Y-2.8
X5.6Y-2.9
X5.6Y-3.0
X5.6Y-3.1
X5.6Y-3.2
X5.6Y-3.3
X5.6Y-3.4
X5.6Y-3.5
X5.6Y-3.6
X5.6Y-3.7
X5.6Y-3.8
X5.6Y-3.9
X5.6Y-4.0
X5.6Y-4.1
X5.6Y-4.2
X5.6Y-4.3
X5.6Y-4.4
X5.6Y-4.5
X3.8Y-1.5
X3.8Y-1.6
X3.8Y-1.7
X3.8Y-1.8
X3.8Y-1.9
X3.8Y-2.0
X3.8Y-2.1
X3.8Y-2.2
X3.8Y-2.3
X3.8Y-2.4
X3.8Y-2.5
X3.8Y-2.6
X3.8Y-2.7
X3.8Y-2.8
X3.8Y-2.9
X3.8Y-3.0
X3.8Y-3.1
X3.8Y-3.2
X3.8Y-3.3
X3.8Y-3.4
X3.8Y-3.5
X3.8Y-3.6
X3.8Y-3.7
X3.8Y-3.8
X3.8Y-3.9
X3.8Y-4.0
X3.8Y-4.1
X3.8Y-4.2
X3.8Y-4.3
X3.8Y-4.4
X3.8Y-4.5
X4.0Y-1.5
X4.0Y-1.6
X4.0Y-1.7
X4.0Y-1.8
X4.0Y-1.9
X4.0Y-2.0
X4.0Y-2.1
X4.0Y-2.2
X4.0Y-2.3
X4.0Y-2.4
X4.0Y-2.5
X4.0Y-2.6
X4.0Y-2.7
X4.0Y-2.8
X4.0Y-2.9
X4.0Y-3.0
X4.0Y-3.1
X4.0Y-3.2
X4.0Y-3.3
X4.0Y-3.4
X4.0Y-3.5
X4.0Y-3.6
X4.0Y-3.7
X4.0Y-3.8
X4.0Y-3.9
X4.0Y-4.0
X4.0Y-4.1
X4.0Y-4.2
X4.0Y-4.3
X4.0Y-4.4
X4.0Y-4.5
T4
X5.85Y-1.5
X5.85Y-1.6
X5.85Y-1.7
X5.85Y-1.8
X5.85Y-1.9
X5.85Y-2.0
X5.85Y-2.1
X5.85Y-2.2
X5.85Y-2.3
X5.85Y-2.4
X5.85Y-2.5
X5.85Y-2.6
X5.85Y-2.7
X5.85Y-2.8
X5.85Y-2.9
X5.85Y-3.0
X5.85Y-3.1
X5.85Y-3.2
X5.85Y-3.3
X5.85Y-3.4
X5.85Y-3.5
X5.85Y-3.6
X5.85Y-3.7
X5.85Y-3.8
X5.85Y-3.9
X5.85Y-4.0
X5.85Y-4.1
X5.85Y-4.2
X5.85Y-4.3
X5.85Y-4.4
X5.85Y-4.5
X3.55Y-1.5
X3.55Y-1.6
X3.55Y-1.7
X3.55Y-1.8
X3.55Y-1.9
X3.55Y-2.0
X3.55Y-2.1
X3.55Y-2.2
X3.55Y-2.3
X3.55Y-2.4
X3.55Y-2.5
X3.55Y-2.6
X3.55Y-2.7
X3.55Y-2.8
X3.55Y-2.9
X3.55Y-3.0
X3.55Y-3.1
X3.55Y-3.2
X3.55Y-3.3
X3.55Y-3.4
X3.55Y-3.5
X3.55Y-3.6
X3.55Y-3.7
X3.55Y-3.8
X3.55Y-3.9
X3.55Y-4.0
X3.55Y-4.1
X3.55Y-4.2
X3.55Y-4.3
X3.55Y-4.4
X3.55Y-4.5
T2
G00X3.6841Y-0.5969
M15
G01X3.6526Y-0.5969
M16
G05
G00X3.6841Y-0.9374
M15
G01X3.6526Y-0.9374
M16
G05
G00X3.8309Y-0.5969
M15
G01X3.7719Y-0.5969
M16
G05
G00X3.8309Y-0.9374
M15
G01X3.7719Y-0.9374
M16
G05
T0
M30
