G04 #@! TF.GenerationSoftware,KiCad,Pcbnew,(5.1.8)-1*
G04 #@! TF.CreationDate,2025-01-31T06:48:15-07:00*
G04 #@! TF.ProjectId,Breadboard Adapter,42726561-6462-46f6-9172-642041646170,rev?*
G04 #@! TF.SameCoordinates,Original*
G04 #@! TF.FileFunction,Copper,L2,Bot*
G04 #@! TF.FilePolarity,Positive*
%FSLAX46Y46*%
G04 Gerber Fmt 4.6, Leading zero omitted, Abs format (unit mm)*
G04 Created by KiCad (PCBNEW (5.1.8)-1) date 2025-01-31 06:48:15*
%MOMM*%
%LPD*%
G01*
G04 APERTURE LIST*
G04 #@! TA.AperFunction,ComponentPad*
%ADD10C,1.600000*%
G04 #@! TD*
G04 #@! TA.AperFunction,ComponentPad*
%ADD11C,1.524000*%
G04 #@! TD*
G04 #@! TA.AperFunction,ComponentPad*
%ADD12R,1.524000X1.524000*%
G04 #@! TD*
G04 #@! TA.AperFunction,ComponentPad*
%ADD13C,4.826000*%
G04 #@! TD*
G04 #@! TA.AperFunction,ComponentPad*
%ADD14O,1.600000X1.600000*%
G04 #@! TD*
G04 #@! TA.AperFunction,ComponentPad*
%ADD15O,1.700000X0.900000*%
G04 #@! TD*
G04 #@! TA.AperFunction,ComponentPad*
%ADD16O,2.400000X0.900000*%
G04 #@! TD*
G04 #@! TA.AperFunction,ComponentPad*
%ADD17C,0.700000*%
G04 #@! TD*
G04 #@! TA.AperFunction,ComponentPad*
%ADD18O,1.700000X1.700000*%
G04 #@! TD*
G04 #@! TA.AperFunction,ComponentPad*
%ADD19R,1.700000X1.700000*%
G04 #@! TD*
G04 #@! TA.AperFunction,ViaPad*
%ADD20C,0.800000*%
G04 #@! TD*
G04 #@! TA.AperFunction,Conductor*
%ADD21C,0.330200*%
G04 #@! TD*
G04 #@! TA.AperFunction,Conductor*
%ADD22C,0.250000*%
G04 #@! TD*
G04 APERTURE END LIST*
D10*
G04 #@! TO.P,C6,2*
G04 #@! TO.N,/5+*
X134366000Y-109982000D03*
G04 #@! TO.P,C6,1*
G04 #@! TO.N,/GND*
X134366000Y-114982000D03*
G04 #@! TD*
G04 #@! TO.P,C5,2*
G04 #@! TO.N,/5+*
X134366000Y-43942000D03*
G04 #@! TO.P,C5,1*
G04 #@! TO.N,/GND*
X134366000Y-38942000D03*
G04 #@! TD*
G04 #@! TO.P,C4,2*
G04 #@! TO.N,/5+*
X114046000Y-110062000D03*
G04 #@! TO.P,C4,1*
G04 #@! TO.N,/GND*
X114046000Y-115062000D03*
G04 #@! TD*
G04 #@! TO.P,C3,2*
G04 #@! TO.N,/5+*
X114046000Y-43862000D03*
G04 #@! TO.P,C3,1*
G04 #@! TO.N,/GND*
X114046000Y-38862000D03*
G04 #@! TD*
G04 #@! TO.P,C2,2*
G04 #@! TO.N,/5+*
X104394000Y-109982000D03*
G04 #@! TO.P,C2,1*
G04 #@! TO.N,/GND*
X104394000Y-114982000D03*
G04 #@! TD*
G04 #@! TO.P,C1,2*
G04 #@! TO.N,/5+*
X104394000Y-43862000D03*
G04 #@! TO.P,C1,1*
G04 #@! TO.N,/GND*
X104394000Y-38862000D03*
G04 #@! TD*
D11*
G04 #@! TO.P,J9,62*
G04 #@! TO.N,/A0*
X142240000Y-114300000D03*
G04 #@! TO.P,J9,61*
G04 #@! TO.N,/A1*
X142240000Y-111760000D03*
G04 #@! TO.P,J9,60*
G04 #@! TO.N,/A2*
X142240000Y-109220000D03*
G04 #@! TO.P,J9,59*
G04 #@! TO.N,/A3*
X142240000Y-106680000D03*
G04 #@! TO.P,J9,58*
G04 #@! TO.N,/A4*
X142240000Y-104140000D03*
G04 #@! TO.P,J9,57*
G04 #@! TO.N,/A5*
X142240000Y-101600000D03*
G04 #@! TO.P,J9,56*
G04 #@! TO.N,/A6*
X142240000Y-99060000D03*
G04 #@! TO.P,J9,55*
G04 #@! TO.N,/A7*
X142240000Y-96520000D03*
G04 #@! TO.P,J9,54*
G04 #@! TO.N,/A8*
X142240000Y-93980000D03*
G04 #@! TO.P,J9,53*
G04 #@! TO.N,/A9*
X142240000Y-91440000D03*
G04 #@! TO.P,J9,52*
G04 #@! TO.N,/A10*
X142240000Y-88900000D03*
G04 #@! TO.P,J9,51*
G04 #@! TO.N,/A11*
X142240000Y-86360000D03*
G04 #@! TO.P,J9,50*
G04 #@! TO.N,/A12*
X142240000Y-83820000D03*
G04 #@! TO.P,J9,49*
G04 #@! TO.N,/A13*
X142240000Y-81280000D03*
G04 #@! TO.P,J9,48*
G04 #@! TO.N,/A14*
X142240000Y-78740000D03*
G04 #@! TO.P,J9,47*
G04 #@! TO.N,/A15*
X142240000Y-76200000D03*
G04 #@! TO.P,J9,46*
G04 #@! TO.N,/A16*
X142240000Y-73660000D03*
G04 #@! TO.P,J9,45*
G04 #@! TO.N,/A17*
X142240000Y-71120000D03*
G04 #@! TO.P,J9,44*
G04 #@! TO.N,/A18*
X142240000Y-68580000D03*
G04 #@! TO.P,J9,43*
G04 #@! TO.N,/A19*
X142240000Y-66040000D03*
G04 #@! TO.P,J9,42*
G04 #@! TO.N,/AEN*
X142240000Y-63500000D03*
G04 #@! TO.P,J9,41*
G04 #@! TO.N,/RDY1*
X142240000Y-60960000D03*
G04 #@! TO.P,J9,40*
G04 #@! TO.N,/D0*
X142240000Y-58420000D03*
G04 #@! TO.P,J9,39*
G04 #@! TO.N,/D1*
X142240000Y-55880000D03*
G04 #@! TO.P,J9,38*
G04 #@! TO.N,/D2*
X142240000Y-53340000D03*
G04 #@! TO.P,J9,37*
G04 #@! TO.N,/D3*
X142240000Y-50800000D03*
G04 #@! TO.P,J9,36*
G04 #@! TO.N,/D4*
X142240000Y-48260000D03*
G04 #@! TO.P,J9,35*
G04 #@! TO.N,/D5*
X142240000Y-45720000D03*
G04 #@! TO.P,J9,34*
G04 #@! TO.N,/D6*
X142240000Y-43180000D03*
G04 #@! TO.P,J9,33*
G04 #@! TO.N,/D7*
X142240000Y-40640000D03*
G04 #@! TO.P,J9,32*
G04 #@! TO.N,/CH_CK*
X142240000Y-38100000D03*
G04 #@! TO.P,J9,31*
G04 #@! TO.N,/GND*
X137160000Y-114300000D03*
G04 #@! TO.P,J9,30*
G04 #@! TO.N,/OSC88*
X137160000Y-111760000D03*
G04 #@! TO.P,J9,29*
G04 #@! TO.N,/5+*
X137160000Y-109220000D03*
G04 #@! TO.P,J9,28*
G04 #@! TO.N,/ALE*
X137160000Y-106680000D03*
G04 #@! TO.P,J9,27*
G04 #@! TO.N,/TC*
X137160000Y-104140000D03*
G04 #@! TO.P,J9,26*
G04 #@! TO.N,/DACK2*
X137160000Y-101600000D03*
G04 #@! TO.P,J9,25*
G04 #@! TO.N,/IRQ3*
X137160000Y-99060000D03*
G04 #@! TO.P,J9,24*
G04 #@! TO.N,/IRQ4*
X137160000Y-96520000D03*
G04 #@! TO.P,J9,23*
G04 #@! TO.N,/IRQ5*
X137160000Y-93980000D03*
G04 #@! TO.P,J9,22*
G04 #@! TO.N,/IRQ6*
X137160000Y-91440000D03*
G04 #@! TO.P,J9,21*
G04 #@! TO.N,/IRQ7*
X137160000Y-88900000D03*
G04 #@! TO.P,J9,20*
G04 #@! TO.N,/CLK88*
X137160000Y-86360000D03*
G04 #@! TO.P,J9,19*
G04 #@! TO.N,/REFRQ*
X137160000Y-83820000D03*
G04 #@! TO.P,J9,18*
G04 #@! TO.N,/DRQ1*
X137160000Y-81280000D03*
G04 #@! TO.P,J9,17*
G04 #@! TO.N,/DACK1*
X137160000Y-78740000D03*
G04 #@! TO.P,J9,16*
G04 #@! TO.N,/DRQ3*
X137160000Y-76200000D03*
G04 #@! TO.P,J9,15*
G04 #@! TO.N,/DACK3*
X137160000Y-73660000D03*
G04 #@! TO.P,J9,14*
G04 #@! TO.N,/IORD*
X137160000Y-71120000D03*
G04 #@! TO.P,J9,13*
G04 #@! TO.N,/IOWR*
X137160000Y-68580000D03*
G04 #@! TO.P,J9,12*
G04 #@! TO.N,/MRD*
X137160000Y-66040000D03*
G04 #@! TO.P,J9,11*
G04 #@! TO.N,/MWR*
X137160000Y-63500000D03*
G04 #@! TO.P,J9,10*
G04 #@! TO.N,/GND*
X137160000Y-60960000D03*
G04 #@! TO.P,J9,9*
G04 #@! TO.N,/12+*
X137160000Y-58420000D03*
G04 #@! TO.P,J9,8*
G04 #@! TO.N,/NC*
X137160000Y-55880000D03*
G04 #@! TO.P,J9,7*
G04 #@! TO.N,/12-*
X137160000Y-53340000D03*
G04 #@! TO.P,J9,6*
G04 #@! TO.N,/DRQ2*
X137160000Y-50800000D03*
G04 #@! TO.P,J9,5*
G04 #@! TO.N,/5-*
X137160000Y-48260000D03*
G04 #@! TO.P,J9,4*
G04 #@! TO.N,/IRQ2*
X137160000Y-45720000D03*
G04 #@! TO.P,J9,3*
G04 #@! TO.N,/5+*
X137160000Y-43180000D03*
G04 #@! TO.P,J9,2*
G04 #@! TO.N,/RESOUT*
X137160000Y-40640000D03*
D12*
G04 #@! TO.P,J9,1*
G04 #@! TO.N,/GND*
X137160000Y-38100000D03*
G04 #@! TD*
D13*
G04 #@! TO.P,REF\u002A\u002A,*
G04 #@! TO.N,/GND*
X152400000Y-22860000D03*
G04 #@! TD*
D14*
G04 #@! TO.P,R2,2*
G04 #@! TO.N,/R2*
X132842000Y-22606000D03*
D10*
G04 #@! TO.P,R2,1*
G04 #@! TO.N,/GND*
X132842000Y-32766000D03*
G04 #@! TD*
D14*
G04 #@! TO.P,R1,2*
G04 #@! TO.N,/R1*
X129540000Y-22606000D03*
D10*
G04 #@! TO.P,R1,1*
G04 #@! TO.N,/GND*
X129540000Y-32766000D03*
G04 #@! TD*
D15*
G04 #@! TO.P,J2,S1*
G04 #@! TO.N,Net-(J2-PadS1)*
X161967000Y-14417000D03*
X161967000Y-23067000D03*
D16*
X158587000Y-14417000D03*
X158587000Y-23067000D03*
D17*
G04 #@! TO.P,J2,B6*
G04 #@! TO.N,Net-(J2-PadB6)*
X158957000Y-18317000D03*
G04 #@! TO.P,J2,B1*
G04 #@! TO.N,/GND*
X158957000Y-15767000D03*
G04 #@! TO.P,J2,B4*
G04 #@! TO.N,/POWER_SUPPLY*
X158957000Y-16617000D03*
G04 #@! TO.P,J2,B5*
G04 #@! TO.N,/R2*
X158957000Y-17467000D03*
G04 #@! TO.P,J2,B12*
G04 #@! TO.N,/GND*
X158957000Y-21717000D03*
G04 #@! TO.P,J2,B8*
G04 #@! TO.N,Net-(J2-PadB8)*
X158957000Y-20017000D03*
G04 #@! TO.P,J2,B7*
G04 #@! TO.N,Net-(J2-PadB7)*
X158957000Y-19167000D03*
G04 #@! TO.P,J2,B9*
G04 #@! TO.N,/POWER_SUPPLY*
X158957000Y-20867000D03*
G04 #@! TO.P,J2,A12*
G04 #@! TO.N,/GND*
X157607000Y-15767000D03*
G04 #@! TO.P,J2,A9*
G04 #@! TO.N,/POWER_SUPPLY*
X157607000Y-16617000D03*
G04 #@! TO.P,J2,A8*
G04 #@! TO.N,Net-(J2-PadA8)*
X157607000Y-17467000D03*
G04 #@! TO.P,J2,A7*
G04 #@! TO.N,Net-(J2-PadA7)*
X157607000Y-18317000D03*
G04 #@! TO.P,J2,A6*
G04 #@! TO.N,Net-(J2-PadA6)*
X157607000Y-19167000D03*
G04 #@! TO.P,J2,A5*
G04 #@! TO.N,/R1*
X157607000Y-20017000D03*
G04 #@! TO.P,J2,A4*
G04 #@! TO.N,/POWER_SUPPLY*
X157607000Y-20867000D03*
G04 #@! TO.P,J2,A1*
G04 #@! TO.N,/GND*
X157607000Y-21717000D03*
G04 #@! TD*
D11*
G04 #@! TO.P,SW1,6*
G04 #@! TO.N,Net-(SW1-Pad6)*
X156306000Y-33528000D03*
G04 #@! TO.P,SW1,5*
G04 #@! TO.N,Net-(SW1-Pad5)*
X156306000Y-31028000D03*
G04 #@! TO.P,SW1,4*
G04 #@! TO.N,Net-(SW1-Pad4)*
X156306000Y-28528000D03*
G04 #@! TO.P,SW1,3*
G04 #@! TO.N,/POWER_SUPPLY*
X162306000Y-28528000D03*
G04 #@! TO.P,SW1,2*
G04 #@! TO.N,/5+*
X162306000Y-31028000D03*
G04 #@! TO.P,SW1,1*
G04 #@! TO.N,Net-(SW1-Pad1)*
X162306000Y-33528000D03*
G04 #@! TD*
G04 #@! TO.P,J5,62*
G04 #@! TO.N,/A0*
X121920000Y-114300000D03*
G04 #@! TO.P,J5,61*
G04 #@! TO.N,/A1*
X121920000Y-111760000D03*
G04 #@! TO.P,J5,60*
G04 #@! TO.N,/A2*
X121920000Y-109220000D03*
G04 #@! TO.P,J5,59*
G04 #@! TO.N,/A3*
X121920000Y-106680000D03*
G04 #@! TO.P,J5,58*
G04 #@! TO.N,/A4*
X121920000Y-104140000D03*
G04 #@! TO.P,J5,57*
G04 #@! TO.N,/A5*
X121920000Y-101600000D03*
G04 #@! TO.P,J5,56*
G04 #@! TO.N,/A6*
X121920000Y-99060000D03*
G04 #@! TO.P,J5,55*
G04 #@! TO.N,/A7*
X121920000Y-96520000D03*
G04 #@! TO.P,J5,54*
G04 #@! TO.N,/A8*
X121920000Y-93980000D03*
G04 #@! TO.P,J5,53*
G04 #@! TO.N,/A9*
X121920000Y-91440000D03*
G04 #@! TO.P,J5,52*
G04 #@! TO.N,/A10*
X121920000Y-88900000D03*
G04 #@! TO.P,J5,51*
G04 #@! TO.N,/A11*
X121920000Y-86360000D03*
G04 #@! TO.P,J5,50*
G04 #@! TO.N,/A12*
X121920000Y-83820000D03*
G04 #@! TO.P,J5,49*
G04 #@! TO.N,/A13*
X121920000Y-81280000D03*
G04 #@! TO.P,J5,48*
G04 #@! TO.N,/A14*
X121920000Y-78740000D03*
G04 #@! TO.P,J5,47*
G04 #@! TO.N,/A15*
X121920000Y-76200000D03*
G04 #@! TO.P,J5,46*
G04 #@! TO.N,/A16*
X121920000Y-73660000D03*
G04 #@! TO.P,J5,45*
G04 #@! TO.N,/A17*
X121920000Y-71120000D03*
G04 #@! TO.P,J5,44*
G04 #@! TO.N,/A18*
X121920000Y-68580000D03*
G04 #@! TO.P,J5,43*
G04 #@! TO.N,/A19*
X121920000Y-66040000D03*
G04 #@! TO.P,J5,42*
G04 #@! TO.N,/AEN*
X121920000Y-63500000D03*
G04 #@! TO.P,J5,41*
G04 #@! TO.N,/RDY1*
X121920000Y-60960000D03*
G04 #@! TO.P,J5,40*
G04 #@! TO.N,/D0*
X121920000Y-58420000D03*
G04 #@! TO.P,J5,39*
G04 #@! TO.N,/D1*
X121920000Y-55880000D03*
G04 #@! TO.P,J5,38*
G04 #@! TO.N,/D2*
X121920000Y-53340000D03*
G04 #@! TO.P,J5,37*
G04 #@! TO.N,/D3*
X121920000Y-50800000D03*
G04 #@! TO.P,J5,36*
G04 #@! TO.N,/D4*
X121920000Y-48260000D03*
G04 #@! TO.P,J5,35*
G04 #@! TO.N,/D5*
X121920000Y-45720000D03*
G04 #@! TO.P,J5,34*
G04 #@! TO.N,/D6*
X121920000Y-43180000D03*
G04 #@! TO.P,J5,33*
G04 #@! TO.N,/D7*
X121920000Y-40640000D03*
G04 #@! TO.P,J5,32*
G04 #@! TO.N,/CH_CK*
X121920000Y-38100000D03*
G04 #@! TO.P,J5,31*
G04 #@! TO.N,/GND*
X116840000Y-114300000D03*
G04 #@! TO.P,J5,30*
G04 #@! TO.N,/OSC88*
X116840000Y-111760000D03*
G04 #@! TO.P,J5,29*
G04 #@! TO.N,/5+*
X116840000Y-109220000D03*
G04 #@! TO.P,J5,28*
G04 #@! TO.N,/ALE*
X116840000Y-106680000D03*
G04 #@! TO.P,J5,27*
G04 #@! TO.N,/TC*
X116840000Y-104140000D03*
G04 #@! TO.P,J5,26*
G04 #@! TO.N,/DACK2*
X116840000Y-101600000D03*
G04 #@! TO.P,J5,25*
G04 #@! TO.N,/IRQ3*
X116840000Y-99060000D03*
G04 #@! TO.P,J5,24*
G04 #@! TO.N,/IRQ4*
X116840000Y-96520000D03*
G04 #@! TO.P,J5,23*
G04 #@! TO.N,/IRQ5*
X116840000Y-93980000D03*
G04 #@! TO.P,J5,22*
G04 #@! TO.N,/IRQ6*
X116840000Y-91440000D03*
G04 #@! TO.P,J5,21*
G04 #@! TO.N,/IRQ7*
X116840000Y-88900000D03*
G04 #@! TO.P,J5,20*
G04 #@! TO.N,/CLK88*
X116840000Y-86360000D03*
G04 #@! TO.P,J5,19*
G04 #@! TO.N,/REFRQ*
X116840000Y-83820000D03*
G04 #@! TO.P,J5,18*
G04 #@! TO.N,/DRQ1*
X116840000Y-81280000D03*
G04 #@! TO.P,J5,17*
G04 #@! TO.N,/DACK1*
X116840000Y-78740000D03*
G04 #@! TO.P,J5,16*
G04 #@! TO.N,/DRQ3*
X116840000Y-76200000D03*
G04 #@! TO.P,J5,15*
G04 #@! TO.N,/DACK3*
X116840000Y-73660000D03*
G04 #@! TO.P,J5,14*
G04 #@! TO.N,/IORD*
X116840000Y-71120000D03*
G04 #@! TO.P,J5,13*
G04 #@! TO.N,/IOWR*
X116840000Y-68580000D03*
G04 #@! TO.P,J5,12*
G04 #@! TO.N,/MRD*
X116840000Y-66040000D03*
G04 #@! TO.P,J5,11*
G04 #@! TO.N,/MWR*
X116840000Y-63500000D03*
G04 #@! TO.P,J5,10*
G04 #@! TO.N,/GND*
X116840000Y-60960000D03*
G04 #@! TO.P,J5,9*
G04 #@! TO.N,/12+*
X116840000Y-58420000D03*
G04 #@! TO.P,J5,8*
G04 #@! TO.N,/NC*
X116840000Y-55880000D03*
G04 #@! TO.P,J5,7*
G04 #@! TO.N,/12-*
X116840000Y-53340000D03*
G04 #@! TO.P,J5,6*
G04 #@! TO.N,/DRQ2*
X116840000Y-50800000D03*
G04 #@! TO.P,J5,5*
G04 #@! TO.N,/5-*
X116840000Y-48260000D03*
G04 #@! TO.P,J5,4*
G04 #@! TO.N,/IRQ2*
X116840000Y-45720000D03*
G04 #@! TO.P,J5,3*
G04 #@! TO.N,/5+*
X116840000Y-43180000D03*
G04 #@! TO.P,J5,2*
G04 #@! TO.N,/RESOUT*
X116840000Y-40640000D03*
D12*
G04 #@! TO.P,J5,1*
G04 #@! TO.N,/GND*
X116840000Y-38100000D03*
G04 #@! TD*
D18*
G04 #@! TO.P,J4,31*
G04 #@! TO.N,/A0*
X148590000Y-114300000D03*
G04 #@! TO.P,J4,30*
G04 #@! TO.N,/A1*
X148590000Y-111760000D03*
G04 #@! TO.P,J4,29*
G04 #@! TO.N,/A2*
X148590000Y-109220000D03*
G04 #@! TO.P,J4,28*
G04 #@! TO.N,/A3*
X148590000Y-106680000D03*
G04 #@! TO.P,J4,27*
G04 #@! TO.N,/A4*
X148590000Y-104140000D03*
G04 #@! TO.P,J4,26*
G04 #@! TO.N,/A5*
X148590000Y-101600000D03*
G04 #@! TO.P,J4,25*
G04 #@! TO.N,/A6*
X148590000Y-99060000D03*
G04 #@! TO.P,J4,24*
G04 #@! TO.N,/A7*
X148590000Y-96520000D03*
G04 #@! TO.P,J4,23*
G04 #@! TO.N,/A8*
X148590000Y-93980000D03*
G04 #@! TO.P,J4,22*
G04 #@! TO.N,/A9*
X148590000Y-91440000D03*
G04 #@! TO.P,J4,21*
G04 #@! TO.N,/A10*
X148590000Y-88900000D03*
G04 #@! TO.P,J4,20*
G04 #@! TO.N,/A11*
X148590000Y-86360000D03*
G04 #@! TO.P,J4,19*
G04 #@! TO.N,/A12*
X148590000Y-83820000D03*
G04 #@! TO.P,J4,18*
G04 #@! TO.N,/A13*
X148590000Y-81280000D03*
G04 #@! TO.P,J4,17*
G04 #@! TO.N,/A14*
X148590000Y-78740000D03*
G04 #@! TO.P,J4,16*
G04 #@! TO.N,/A15*
X148590000Y-76200000D03*
G04 #@! TO.P,J4,15*
G04 #@! TO.N,/A16*
X148590000Y-73660000D03*
G04 #@! TO.P,J4,14*
G04 #@! TO.N,/A17*
X148590000Y-71120000D03*
G04 #@! TO.P,J4,13*
G04 #@! TO.N,/A18*
X148590000Y-68580000D03*
G04 #@! TO.P,J4,12*
G04 #@! TO.N,/A19*
X148590000Y-66040000D03*
G04 #@! TO.P,J4,11*
G04 #@! TO.N,/AEN*
X148590000Y-63500000D03*
G04 #@! TO.P,J4,10*
G04 #@! TO.N,/RDY1*
X148590000Y-60960000D03*
G04 #@! TO.P,J4,9*
G04 #@! TO.N,/D0*
X148590000Y-58420000D03*
G04 #@! TO.P,J4,8*
G04 #@! TO.N,/D1*
X148590000Y-55880000D03*
G04 #@! TO.P,J4,7*
G04 #@! TO.N,/D2*
X148590000Y-53340000D03*
G04 #@! TO.P,J4,6*
G04 #@! TO.N,/D3*
X148590000Y-50800000D03*
G04 #@! TO.P,J4,5*
G04 #@! TO.N,/D4*
X148590000Y-48260000D03*
G04 #@! TO.P,J4,4*
G04 #@! TO.N,/D5*
X148590000Y-45720000D03*
G04 #@! TO.P,J4,3*
G04 #@! TO.N,/D6*
X148590000Y-43180000D03*
G04 #@! TO.P,J4,2*
G04 #@! TO.N,/D7*
X148590000Y-40640000D03*
D19*
G04 #@! TO.P,J4,1*
G04 #@! TO.N,/CH_CK*
X148590000Y-38100000D03*
G04 #@! TD*
D18*
G04 #@! TO.P,J3,31*
G04 #@! TO.N,/GND*
X90170000Y-114300000D03*
G04 #@! TO.P,J3,30*
G04 #@! TO.N,/OSC88*
X90170000Y-111760000D03*
G04 #@! TO.P,J3,29*
G04 #@! TO.N,/5+*
X90170000Y-109220000D03*
G04 #@! TO.P,J3,28*
G04 #@! TO.N,/ALE*
X90170000Y-106680000D03*
G04 #@! TO.P,J3,27*
G04 #@! TO.N,/TC*
X90170000Y-104140000D03*
G04 #@! TO.P,J3,26*
G04 #@! TO.N,/DACK2*
X90170000Y-101600000D03*
G04 #@! TO.P,J3,25*
G04 #@! TO.N,/IRQ3*
X90170000Y-99060000D03*
G04 #@! TO.P,J3,24*
G04 #@! TO.N,/IRQ4*
X90170000Y-96520000D03*
G04 #@! TO.P,J3,23*
G04 #@! TO.N,/IRQ5*
X90170000Y-93980000D03*
G04 #@! TO.P,J3,22*
G04 #@! TO.N,/IRQ6*
X90170000Y-91440000D03*
G04 #@! TO.P,J3,21*
G04 #@! TO.N,/IRQ7*
X90170000Y-88900000D03*
G04 #@! TO.P,J3,20*
G04 #@! TO.N,/CLK88*
X90170000Y-86360000D03*
G04 #@! TO.P,J3,19*
G04 #@! TO.N,/REFRQ*
X90170000Y-83820000D03*
G04 #@! TO.P,J3,18*
G04 #@! TO.N,/DRQ1*
X90170000Y-81280000D03*
G04 #@! TO.P,J3,17*
G04 #@! TO.N,/DACK1*
X90170000Y-78740000D03*
G04 #@! TO.P,J3,16*
G04 #@! TO.N,/DRQ3*
X90170000Y-76200000D03*
G04 #@! TO.P,J3,15*
G04 #@! TO.N,/DACK3*
X90170000Y-73660000D03*
G04 #@! TO.P,J3,14*
G04 #@! TO.N,/IORD*
X90170000Y-71120000D03*
G04 #@! TO.P,J3,13*
G04 #@! TO.N,/IOWR*
X90170000Y-68580000D03*
G04 #@! TO.P,J3,12*
G04 #@! TO.N,/MRD*
X90170000Y-66040000D03*
G04 #@! TO.P,J3,11*
G04 #@! TO.N,/MWR*
X90170000Y-63500000D03*
G04 #@! TO.P,J3,10*
G04 #@! TO.N,/GND*
X90170000Y-60960000D03*
G04 #@! TO.P,J3,9*
G04 #@! TO.N,/12+*
X90170000Y-58420000D03*
G04 #@! TO.P,J3,8*
G04 #@! TO.N,/NC*
X90170000Y-55880000D03*
G04 #@! TO.P,J3,7*
G04 #@! TO.N,/12-*
X90170000Y-53340000D03*
G04 #@! TO.P,J3,6*
G04 #@! TO.N,/DRQ2*
X90170000Y-50800000D03*
G04 #@! TO.P,J3,5*
G04 #@! TO.N,/5-*
X90170000Y-48260000D03*
G04 #@! TO.P,J3,4*
G04 #@! TO.N,/IRQ2*
X90170000Y-45720000D03*
G04 #@! TO.P,J3,3*
G04 #@! TO.N,/5+*
X90170000Y-43180000D03*
G04 #@! TO.P,J3,2*
G04 #@! TO.N,/RESOUT*
X90170000Y-40640000D03*
D19*
G04 #@! TO.P,J3,1*
G04 #@! TO.N,/GND*
X90170000Y-38100000D03*
G04 #@! TD*
D11*
G04 #@! TO.P,J1,62*
G04 #@! TO.N,/A0*
X101600000Y-114300000D03*
G04 #@! TO.P,J1,61*
G04 #@! TO.N,/A1*
X101600000Y-111760000D03*
G04 #@! TO.P,J1,60*
G04 #@! TO.N,/A2*
X101600000Y-109220000D03*
G04 #@! TO.P,J1,59*
G04 #@! TO.N,/A3*
X101600000Y-106680000D03*
G04 #@! TO.P,J1,58*
G04 #@! TO.N,/A4*
X101600000Y-104140000D03*
G04 #@! TO.P,J1,57*
G04 #@! TO.N,/A5*
X101600000Y-101600000D03*
G04 #@! TO.P,J1,56*
G04 #@! TO.N,/A6*
X101600000Y-99060000D03*
G04 #@! TO.P,J1,55*
G04 #@! TO.N,/A7*
X101600000Y-96520000D03*
G04 #@! TO.P,J1,54*
G04 #@! TO.N,/A8*
X101600000Y-93980000D03*
G04 #@! TO.P,J1,53*
G04 #@! TO.N,/A9*
X101600000Y-91440000D03*
G04 #@! TO.P,J1,52*
G04 #@! TO.N,/A10*
X101600000Y-88900000D03*
G04 #@! TO.P,J1,51*
G04 #@! TO.N,/A11*
X101600000Y-86360000D03*
G04 #@! TO.P,J1,50*
G04 #@! TO.N,/A12*
X101600000Y-83820000D03*
G04 #@! TO.P,J1,49*
G04 #@! TO.N,/A13*
X101600000Y-81280000D03*
G04 #@! TO.P,J1,48*
G04 #@! TO.N,/A14*
X101600000Y-78740000D03*
G04 #@! TO.P,J1,47*
G04 #@! TO.N,/A15*
X101600000Y-76200000D03*
G04 #@! TO.P,J1,46*
G04 #@! TO.N,/A16*
X101600000Y-73660000D03*
G04 #@! TO.P,J1,45*
G04 #@! TO.N,/A17*
X101600000Y-71120000D03*
G04 #@! TO.P,J1,44*
G04 #@! TO.N,/A18*
X101600000Y-68580000D03*
G04 #@! TO.P,J1,43*
G04 #@! TO.N,/A19*
X101600000Y-66040000D03*
G04 #@! TO.P,J1,42*
G04 #@! TO.N,/AEN*
X101600000Y-63500000D03*
G04 #@! TO.P,J1,41*
G04 #@! TO.N,/RDY1*
X101600000Y-60960000D03*
G04 #@! TO.P,J1,40*
G04 #@! TO.N,/D0*
X101600000Y-58420000D03*
G04 #@! TO.P,J1,39*
G04 #@! TO.N,/D1*
X101600000Y-55880000D03*
G04 #@! TO.P,J1,38*
G04 #@! TO.N,/D2*
X101600000Y-53340000D03*
G04 #@! TO.P,J1,37*
G04 #@! TO.N,/D3*
X101600000Y-50800000D03*
G04 #@! TO.P,J1,36*
G04 #@! TO.N,/D4*
X101600000Y-48260000D03*
G04 #@! TO.P,J1,35*
G04 #@! TO.N,/D5*
X101600000Y-45720000D03*
G04 #@! TO.P,J1,34*
G04 #@! TO.N,/D6*
X101600000Y-43180000D03*
G04 #@! TO.P,J1,33*
G04 #@! TO.N,/D7*
X101600000Y-40640000D03*
G04 #@! TO.P,J1,32*
G04 #@! TO.N,/CH_CK*
X101600000Y-38100000D03*
G04 #@! TO.P,J1,31*
G04 #@! TO.N,/GND*
X96520000Y-114300000D03*
G04 #@! TO.P,J1,30*
G04 #@! TO.N,/OSC88*
X96520000Y-111760000D03*
G04 #@! TO.P,J1,29*
G04 #@! TO.N,/5+*
X96520000Y-109220000D03*
G04 #@! TO.P,J1,28*
G04 #@! TO.N,/ALE*
X96520000Y-106680000D03*
G04 #@! TO.P,J1,27*
G04 #@! TO.N,/TC*
X96520000Y-104140000D03*
G04 #@! TO.P,J1,26*
G04 #@! TO.N,/DACK2*
X96520000Y-101600000D03*
G04 #@! TO.P,J1,25*
G04 #@! TO.N,/IRQ3*
X96520000Y-99060000D03*
G04 #@! TO.P,J1,24*
G04 #@! TO.N,/IRQ4*
X96520000Y-96520000D03*
G04 #@! TO.P,J1,23*
G04 #@! TO.N,/IRQ5*
X96520000Y-93980000D03*
G04 #@! TO.P,J1,22*
G04 #@! TO.N,/IRQ6*
X96520000Y-91440000D03*
G04 #@! TO.P,J1,21*
G04 #@! TO.N,/IRQ7*
X96520000Y-88900000D03*
G04 #@! TO.P,J1,20*
G04 #@! TO.N,/CLK88*
X96520000Y-86360000D03*
G04 #@! TO.P,J1,19*
G04 #@! TO.N,/REFRQ*
X96520000Y-83820000D03*
G04 #@! TO.P,J1,18*
G04 #@! TO.N,/DRQ1*
X96520000Y-81280000D03*
G04 #@! TO.P,J1,17*
G04 #@! TO.N,/DACK1*
X96520000Y-78740000D03*
G04 #@! TO.P,J1,16*
G04 #@! TO.N,/DRQ3*
X96520000Y-76200000D03*
G04 #@! TO.P,J1,15*
G04 #@! TO.N,/DACK3*
X96520000Y-73660000D03*
G04 #@! TO.P,J1,14*
G04 #@! TO.N,/IORD*
X96520000Y-71120000D03*
G04 #@! TO.P,J1,13*
G04 #@! TO.N,/IOWR*
X96520000Y-68580000D03*
G04 #@! TO.P,J1,12*
G04 #@! TO.N,/MRD*
X96520000Y-66040000D03*
G04 #@! TO.P,J1,11*
G04 #@! TO.N,/MWR*
X96520000Y-63500000D03*
G04 #@! TO.P,J1,10*
G04 #@! TO.N,/GND*
X96520000Y-60960000D03*
G04 #@! TO.P,J1,9*
G04 #@! TO.N,/12+*
X96520000Y-58420000D03*
G04 #@! TO.P,J1,8*
G04 #@! TO.N,/NC*
X96520000Y-55880000D03*
G04 #@! TO.P,J1,7*
G04 #@! TO.N,/12-*
X96520000Y-53340000D03*
G04 #@! TO.P,J1,6*
G04 #@! TO.N,/DRQ2*
X96520000Y-50800000D03*
G04 #@! TO.P,J1,5*
G04 #@! TO.N,/5-*
X96520000Y-48260000D03*
G04 #@! TO.P,J1,4*
G04 #@! TO.N,/IRQ2*
X96520000Y-45720000D03*
G04 #@! TO.P,J1,3*
G04 #@! TO.N,/5+*
X96520000Y-43180000D03*
G04 #@! TO.P,J1,2*
G04 #@! TO.N,/RESOUT*
X96520000Y-40640000D03*
D12*
G04 #@! TO.P,J1,1*
G04 #@! TO.N,/GND*
X96520000Y-38100000D03*
G04 #@! TD*
D20*
G04 #@! TO.N,/GND*
X98806000Y-114808000D03*
X98806000Y-61468000D03*
X98806000Y-38608000D03*
X132842000Y-38608000D03*
X137160000Y-24130000D03*
X139192000Y-114808000D03*
X139192000Y-38608000D03*
X139192000Y-61468000D03*
X156083000Y-21717000D03*
X156083000Y-15875000D03*
G04 #@! TO.N,/POWER_SUPPLY*
X160401000Y-16637000D03*
X160401000Y-20955000D03*
X160528000Y-28194000D03*
G04 #@! TO.N,/5+*
X93472000Y-109220000D03*
X93472000Y-43180000D03*
X140208000Y-43688000D03*
X140208000Y-32258000D03*
X140208000Y-109728000D03*
G04 #@! TO.N,/R2*
X161290000Y-17526000D03*
X160528000Y-13462000D03*
X155194000Y-13462000D03*
X133350000Y-19558000D03*
X155194000Y-18034000D03*
G04 #@! TO.N,/R1*
X130048000Y-20320000D03*
G04 #@! TD*
D21*
G04 #@! TO.N,/GND*
X98806000Y-38608000D02*
X98806000Y-61468000D01*
X98806000Y-114808000D02*
X98806000Y-61468000D01*
X132842000Y-32766000D02*
X132842000Y-38608000D01*
X137160000Y-38100000D02*
X137160000Y-24130000D01*
X139192000Y-114808000D02*
X139192000Y-38608000D01*
X156083000Y-21717000D02*
X156083000Y-15875000D01*
D22*
G04 #@! TO.N,Net-(J2-PadS1)*
X161967000Y-14417000D02*
X161967000Y-14901000D01*
X161967000Y-14901000D02*
X162560000Y-15494000D01*
X162560000Y-22474000D02*
X161967000Y-23067000D01*
X162560000Y-15494000D02*
X162560000Y-22474000D01*
D21*
G04 #@! TO.N,/POWER_SUPPLY*
X160401000Y-16637000D02*
X160401000Y-20955000D01*
X160401000Y-20955000D02*
X160401000Y-28067000D01*
X160401000Y-28067000D02*
X160528000Y-28194000D01*
G04 #@! TO.N,/5+*
X93472000Y-43180000D02*
X93472000Y-109220000D01*
X140208000Y-43688000D02*
X140208000Y-32258000D01*
X140208000Y-43688000D02*
X140208000Y-109728000D01*
D22*
G04 #@! TO.N,/R2*
X161290000Y-17526000D02*
X161290000Y-16002000D01*
X161290000Y-16002000D02*
X160528000Y-15240000D01*
X160528000Y-15240000D02*
X160528000Y-13462000D01*
X133350000Y-22098000D02*
X132842000Y-22606000D01*
X133350000Y-19558000D02*
X133350000Y-22098000D01*
X155194000Y-13462000D02*
X155194000Y-18034000D01*
G04 #@! TO.N,/R1*
X130048000Y-22098000D02*
X129540000Y-22606000D01*
X130048000Y-20320000D02*
X130048000Y-22098000D01*
G04 #@! TD*
M02*
