G04 #@! TF.GenerationSoftware,KiCad,Pcbnew,(5.1.8)-1*
G04 #@! TF.CreationDate,2024-04-24T09:04:01-06:00*
G04 #@! TF.ProjectId,8088 PCB,38303838-2050-4434-922e-6b696361645f,rev?*
G04 #@! TF.SameCoordinates,Original*
G04 #@! TF.FileFunction,Legend,Top*
G04 #@! TF.FilePolarity,Positive*
%FSLAX46Y46*%
G04 Gerber Fmt 4.6, Leading zero omitted, Abs format (unit mm)*
G04 Created by KiCad (PCBNEW (5.1.8)-1) date 2024-04-24 09:04:01*
%MOMM*%
%LPD*%
G01*
G04 APERTURE LIST*
%ADD10C,0.120000*%
%ADD11C,0.150000*%
G04 APERTURE END LIST*
D10*
G04 #@! TO.C,R17*
X231270000Y-44450000D02*
X228470000Y-44450000D01*
X231270000Y-64940000D02*
X231270000Y-41740000D01*
X228470000Y-64940000D02*
X231270000Y-64940000D01*
X228470000Y-41740000D02*
X228470000Y-64940000D01*
X231270000Y-41740000D02*
X228470000Y-41740000D01*
G04 #@! TO.C,R16*
X235080000Y-44450000D02*
X232280000Y-44450000D01*
X235080000Y-64940000D02*
X235080000Y-41740000D01*
X232280000Y-64940000D02*
X235080000Y-64940000D01*
X232280000Y-41740000D02*
X232280000Y-64940000D01*
X235080000Y-41740000D02*
X232280000Y-41740000D01*
G04 #@! TO.C,R13*
X179300000Y-93472000D02*
X178530000Y-93472000D01*
X171220000Y-93472000D02*
X171990000Y-93472000D01*
X178530000Y-92102000D02*
X171990000Y-92102000D01*
X178530000Y-94842000D02*
X178530000Y-92102000D01*
X171990000Y-94842000D02*
X178530000Y-94842000D01*
X171990000Y-92102000D02*
X171990000Y-94842000D01*
G04 #@! TO.C,J3*
X254956000Y-73854000D02*
X256286000Y-73854000D01*
X254956000Y-75184000D02*
X254956000Y-73854000D01*
X254956000Y-76454000D02*
X257616000Y-76454000D01*
X257616000Y-76454000D02*
X257616000Y-84134000D01*
X254956000Y-76454000D02*
X254956000Y-84134000D01*
X254956000Y-84134000D02*
X257616000Y-84134000D01*
G04 #@! TO.C,R7*
X240668000Y-67140000D02*
X237868000Y-67140000D01*
X237868000Y-67140000D02*
X237868000Y-77640000D01*
X237868000Y-77640000D02*
X240668000Y-77640000D01*
X240668000Y-77640000D02*
X240668000Y-67140000D01*
X240668000Y-69850000D02*
X237868000Y-69850000D01*
G04 #@! TO.C,R2*
X94588000Y-54642000D02*
X91848000Y-54642000D01*
X91848000Y-54642000D02*
X91848000Y-61182000D01*
X91848000Y-61182000D02*
X94588000Y-61182000D01*
X94588000Y-61182000D02*
X94588000Y-54642000D01*
X93218000Y-53872000D02*
X93218000Y-54642000D01*
X93218000Y-61952000D02*
X93218000Y-61182000D01*
G04 #@! TO.C,R1*
X91286000Y-54642000D02*
X88546000Y-54642000D01*
X88546000Y-54642000D02*
X88546000Y-61182000D01*
X88546000Y-61182000D02*
X91286000Y-61182000D01*
X91286000Y-61182000D02*
X91286000Y-54642000D01*
X89916000Y-53872000D02*
X89916000Y-54642000D01*
X89916000Y-61952000D02*
X89916000Y-61182000D01*
G04 #@! TO.C,C26*
X162330000Y-41202000D02*
X157790000Y-41202000D01*
X162330000Y-39062000D02*
X157790000Y-39062000D01*
X162330000Y-41202000D02*
X162330000Y-41187000D01*
X162330000Y-39077000D02*
X162330000Y-39062000D01*
X157790000Y-41202000D02*
X157790000Y-41187000D01*
X157790000Y-39077000D02*
X157790000Y-39062000D01*
G04 #@! TO.C,C25*
X152170000Y-41202000D02*
X147630000Y-41202000D01*
X152170000Y-39062000D02*
X147630000Y-39062000D01*
X152170000Y-41202000D02*
X152170000Y-41187000D01*
X152170000Y-39077000D02*
X152170000Y-39062000D01*
X147630000Y-41202000D02*
X147630000Y-41187000D01*
X147630000Y-39077000D02*
X147630000Y-39062000D01*
G04 #@! TO.C,C24*
X205510000Y-104702000D02*
X200970000Y-104702000D01*
X205510000Y-102562000D02*
X200970000Y-102562000D01*
X205510000Y-104702000D02*
X205510000Y-104687000D01*
X205510000Y-102577000D02*
X205510000Y-102562000D01*
X200970000Y-104702000D02*
X200970000Y-104687000D01*
X200970000Y-102577000D02*
X200970000Y-102562000D01*
G04 #@! TO.C,C23*
X215670000Y-104702000D02*
X211130000Y-104702000D01*
X215670000Y-102562000D02*
X211130000Y-102562000D01*
X215670000Y-104702000D02*
X215670000Y-104687000D01*
X215670000Y-102577000D02*
X215670000Y-102562000D01*
X211130000Y-104702000D02*
X211130000Y-104687000D01*
X211130000Y-102577000D02*
X211130000Y-102562000D01*
G04 #@! TO.C,C22*
X86130000Y-41202000D02*
X81590000Y-41202000D01*
X86130000Y-39062000D02*
X81590000Y-39062000D01*
X86130000Y-41202000D02*
X86130000Y-41187000D01*
X86130000Y-39077000D02*
X86130000Y-39062000D01*
X81590000Y-41202000D02*
X81590000Y-41187000D01*
X81590000Y-39077000D02*
X81590000Y-39062000D01*
G04 #@! TO.C,C21*
X172490000Y-41202000D02*
X167950000Y-41202000D01*
X172490000Y-39062000D02*
X167950000Y-39062000D01*
X172490000Y-41202000D02*
X172490000Y-41187000D01*
X172490000Y-39077000D02*
X172490000Y-39062000D01*
X167950000Y-41202000D02*
X167950000Y-41187000D01*
X167950000Y-39077000D02*
X167950000Y-39062000D01*
G04 #@! TO.C,C20*
X230910000Y-104702000D02*
X226370000Y-104702000D01*
X230910000Y-102562000D02*
X226370000Y-102562000D01*
X230910000Y-104702000D02*
X230910000Y-104687000D01*
X230910000Y-102577000D02*
X230910000Y-102562000D01*
X226370000Y-104702000D02*
X226370000Y-104687000D01*
X226370000Y-102577000D02*
X226370000Y-102562000D01*
G04 #@! TO.C,C19*
X189000000Y-41964000D02*
X184460000Y-41964000D01*
X189000000Y-39824000D02*
X184460000Y-39824000D01*
X189000000Y-41964000D02*
X189000000Y-41949000D01*
X189000000Y-39839000D02*
X189000000Y-39824000D01*
X184460000Y-41964000D02*
X184460000Y-41949000D01*
X184460000Y-39839000D02*
X184460000Y-39824000D01*
G04 #@! TO.C,C18*
X103910000Y-41202000D02*
X99370000Y-41202000D01*
X103910000Y-39062000D02*
X99370000Y-39062000D01*
X103910000Y-41202000D02*
X103910000Y-41187000D01*
X103910000Y-39077000D02*
X103910000Y-39062000D01*
X99370000Y-41202000D02*
X99370000Y-41187000D01*
X99370000Y-39077000D02*
X99370000Y-39062000D01*
G04 #@! TO.C,C17*
X75970000Y-41202000D02*
X71430000Y-41202000D01*
X75970000Y-39062000D02*
X71430000Y-39062000D01*
X75970000Y-41202000D02*
X75970000Y-41187000D01*
X75970000Y-39077000D02*
X75970000Y-39062000D01*
X71430000Y-41202000D02*
X71430000Y-41187000D01*
X71430000Y-39077000D02*
X71430000Y-39062000D01*
G04 #@! TO.C,C16*
X142010000Y-41202000D02*
X137470000Y-41202000D01*
X142010000Y-39062000D02*
X137470000Y-39062000D01*
X142010000Y-41202000D02*
X142010000Y-41187000D01*
X142010000Y-39077000D02*
X142010000Y-39062000D01*
X137470000Y-41202000D02*
X137470000Y-41187000D01*
X137470000Y-39077000D02*
X137470000Y-39062000D01*
G04 #@! TO.C,C15*
X149630000Y-94542000D02*
X145090000Y-94542000D01*
X149630000Y-92402000D02*
X145090000Y-92402000D01*
X149630000Y-94542000D02*
X149630000Y-94527000D01*
X149630000Y-92417000D02*
X149630000Y-92402000D01*
X145090000Y-94542000D02*
X145090000Y-94527000D01*
X145090000Y-92417000D02*
X145090000Y-92402000D01*
G04 #@! TO.C,C14*
X131850000Y-89462000D02*
X127310000Y-89462000D01*
X131850000Y-87322000D02*
X127310000Y-87322000D01*
X131850000Y-89462000D02*
X131850000Y-89447000D01*
X131850000Y-87337000D02*
X131850000Y-87322000D01*
X127310000Y-89462000D02*
X127310000Y-89447000D01*
X127310000Y-87337000D02*
X127310000Y-87322000D01*
G04 #@! TO.C,C13*
X114070000Y-89462000D02*
X109530000Y-89462000D01*
X114070000Y-87322000D02*
X109530000Y-87322000D01*
X114070000Y-89462000D02*
X114070000Y-89447000D01*
X114070000Y-87337000D02*
X114070000Y-87322000D01*
X109530000Y-89462000D02*
X109530000Y-89447000D01*
X109530000Y-87337000D02*
X109530000Y-87322000D01*
G04 #@! TO.C,C12*
X131850000Y-41202000D02*
X127310000Y-41202000D01*
X131850000Y-39062000D02*
X127310000Y-39062000D01*
X131850000Y-41202000D02*
X131850000Y-41187000D01*
X131850000Y-39077000D02*
X131850000Y-39062000D01*
X127310000Y-41202000D02*
X127310000Y-41187000D01*
X127310000Y-39077000D02*
X127310000Y-39062000D01*
G04 #@! TO.C,C11*
X195350000Y-104702000D02*
X190810000Y-104702000D01*
X195350000Y-102562000D02*
X190810000Y-102562000D01*
X195350000Y-104702000D02*
X195350000Y-104687000D01*
X195350000Y-102577000D02*
X195350000Y-102562000D01*
X190810000Y-104702000D02*
X190810000Y-104687000D01*
X190810000Y-102577000D02*
X190810000Y-102562000D01*
G04 #@! TO.C,C10*
X219510000Y-66270000D02*
X219510000Y-70810000D01*
X217370000Y-66270000D02*
X217370000Y-70810000D01*
X219510000Y-66270000D02*
X219495000Y-66270000D01*
X217385000Y-66270000D02*
X217370000Y-66270000D01*
X219510000Y-70810000D02*
X219495000Y-70810000D01*
X217385000Y-70810000D02*
X217370000Y-70810000D01*
G04 #@! TO.C,C9*
X121690000Y-41202000D02*
X117150000Y-41202000D01*
X121690000Y-39062000D02*
X117150000Y-39062000D01*
X121690000Y-41202000D02*
X121690000Y-41187000D01*
X121690000Y-39077000D02*
X121690000Y-39062000D01*
X117150000Y-41202000D02*
X117150000Y-41187000D01*
X117150000Y-39077000D02*
X117150000Y-39062000D01*
G04 #@! TO.C,C8*
X86130000Y-69142000D02*
X81590000Y-69142000D01*
X86130000Y-67002000D02*
X81590000Y-67002000D01*
X86130000Y-69142000D02*
X86130000Y-69127000D01*
X86130000Y-67017000D02*
X86130000Y-67002000D01*
X81590000Y-69142000D02*
X81590000Y-69127000D01*
X81590000Y-67017000D02*
X81590000Y-67002000D01*
G04 #@! TO.C,C7*
X225830000Y-41202000D02*
X221290000Y-41202000D01*
X225830000Y-39062000D02*
X221290000Y-39062000D01*
X225830000Y-41202000D02*
X225830000Y-41187000D01*
X225830000Y-39077000D02*
X225830000Y-39062000D01*
X221290000Y-41202000D02*
X221290000Y-41187000D01*
X221290000Y-39077000D02*
X221290000Y-39062000D01*
G04 #@! TO.C,C6*
X167410000Y-94542000D02*
X162870000Y-94542000D01*
X167410000Y-92402000D02*
X162870000Y-92402000D01*
X167410000Y-94542000D02*
X167410000Y-94527000D01*
X167410000Y-92417000D02*
X167410000Y-92402000D01*
X162870000Y-94542000D02*
X162870000Y-94527000D01*
X162870000Y-92417000D02*
X162870000Y-92402000D01*
G04 #@! TO.C,C5*
X185190000Y-99622000D02*
X180650000Y-99622000D01*
X185190000Y-97482000D02*
X180650000Y-97482000D01*
X185190000Y-99622000D02*
X185190000Y-99607000D01*
X185190000Y-97497000D02*
X185190000Y-97482000D01*
X180650000Y-99622000D02*
X180650000Y-99607000D01*
X180650000Y-97497000D02*
X180650000Y-97482000D01*
G04 #@! TO.C,C4*
X86130000Y-97082000D02*
X81590000Y-97082000D01*
X86130000Y-94942000D02*
X81590000Y-94942000D01*
X86130000Y-97082000D02*
X86130000Y-97067000D01*
X86130000Y-94957000D02*
X86130000Y-94942000D01*
X81590000Y-97082000D02*
X81590000Y-97067000D01*
X81590000Y-94957000D02*
X81590000Y-94942000D01*
G04 #@! TO.C,C3*
X96290000Y-66602000D02*
X91750000Y-66602000D01*
X96290000Y-64462000D02*
X91750000Y-64462000D01*
X96290000Y-66602000D02*
X96290000Y-66587000D01*
X96290000Y-64477000D02*
X96290000Y-64462000D01*
X91750000Y-66602000D02*
X91750000Y-66587000D01*
X91750000Y-64477000D02*
X91750000Y-64462000D01*
G04 #@! TO.C,C2*
X96290000Y-97082000D02*
X91750000Y-97082000D01*
X96290000Y-94942000D02*
X91750000Y-94942000D01*
X96290000Y-97082000D02*
X96290000Y-97067000D01*
X96290000Y-94957000D02*
X96290000Y-94942000D01*
X91750000Y-97082000D02*
X91750000Y-97067000D01*
X91750000Y-94957000D02*
X91750000Y-94942000D01*
G04 #@! TO.C,C1*
X75970000Y-81842000D02*
X71430000Y-81842000D01*
X75970000Y-79702000D02*
X71430000Y-79702000D01*
X75970000Y-81842000D02*
X75970000Y-81827000D01*
X75970000Y-79717000D02*
X75970000Y-79702000D01*
X71430000Y-81842000D02*
X71430000Y-81827000D01*
X71430000Y-79717000D02*
X71430000Y-79702000D01*
G04 #@! TO.C,Y2*
X60975000Y-48755000D02*
X60975000Y-42505000D01*
X66025000Y-48755000D02*
X66025000Y-42505000D01*
X66025000Y-42505000D02*
G75*
G03*
X60975000Y-42505000I-2525000J0D01*
G01*
X66025000Y-48755000D02*
G75*
G02*
X60975000Y-48755000I-2525000J0D01*
G01*
G04 #@! TO.C,Y1*
X88915000Y-48755000D02*
X88915000Y-42505000D01*
X93965000Y-48755000D02*
X93965000Y-42505000D01*
X93965000Y-42505000D02*
G75*
G03*
X88915000Y-42505000I-2525000J0D01*
G01*
X93965000Y-48755000D02*
G75*
G02*
X88915000Y-48755000I-2525000J0D01*
G01*
G04 #@! TO.C,U26*
X157750000Y-41850000D02*
X156100000Y-41850000D01*
X156100000Y-41850000D02*
X156100000Y-59750000D01*
X156100000Y-59750000D02*
X161400000Y-59750000D01*
X161400000Y-59750000D02*
X161400000Y-41850000D01*
X161400000Y-41850000D02*
X159750000Y-41850000D01*
X159750000Y-41850000D02*
G75*
G02*
X157750000Y-41850000I-1000000J0D01*
G01*
G04 #@! TO.C,U25*
X147590000Y-41850000D02*
X145940000Y-41850000D01*
X145940000Y-41850000D02*
X145940000Y-59750000D01*
X145940000Y-59750000D02*
X151240000Y-59750000D01*
X151240000Y-59750000D02*
X151240000Y-41850000D01*
X151240000Y-41850000D02*
X149590000Y-41850000D01*
X149590000Y-41850000D02*
G75*
G02*
X147590000Y-41850000I-1000000J0D01*
G01*
G04 #@! TO.C,U24*
X200930000Y-105350000D02*
X199280000Y-105350000D01*
X199280000Y-105350000D02*
X199280000Y-130870000D01*
X199280000Y-130870000D02*
X204580000Y-130870000D01*
X204580000Y-130870000D02*
X204580000Y-105350000D01*
X204580000Y-105350000D02*
X202930000Y-105350000D01*
X202930000Y-105350000D02*
G75*
G02*
X200930000Y-105350000I-1000000J0D01*
G01*
G04 #@! TO.C,U23*
X211090000Y-105350000D02*
X209440000Y-105350000D01*
X209440000Y-105350000D02*
X209440000Y-130870000D01*
X209440000Y-130870000D02*
X214740000Y-130870000D01*
X214740000Y-130870000D02*
X214740000Y-105350000D01*
X214740000Y-105350000D02*
X213090000Y-105350000D01*
X213090000Y-105350000D02*
G75*
G02*
X211090000Y-105350000I-1000000J0D01*
G01*
G04 #@! TO.C,U22*
X81550000Y-41850000D02*
X79900000Y-41850000D01*
X79900000Y-41850000D02*
X79900000Y-64830000D01*
X79900000Y-64830000D02*
X85200000Y-64830000D01*
X85200000Y-64830000D02*
X85200000Y-41850000D01*
X85200000Y-41850000D02*
X83550000Y-41850000D01*
X83550000Y-41850000D02*
G75*
G02*
X81550000Y-41850000I-1000000J0D01*
G01*
G04 #@! TO.C,U21*
X167910000Y-41850000D02*
X166260000Y-41850000D01*
X166260000Y-41850000D02*
X166260000Y-59750000D01*
X166260000Y-59750000D02*
X171560000Y-59750000D01*
X171560000Y-59750000D02*
X171560000Y-41850000D01*
X171560000Y-41850000D02*
X169910000Y-41850000D01*
X169910000Y-41850000D02*
G75*
G02*
X167910000Y-41850000I-1000000J0D01*
G01*
G04 #@! TO.C,U20*
X226330000Y-105350000D02*
X224680000Y-105350000D01*
X224680000Y-105350000D02*
X224680000Y-123250000D01*
X224680000Y-123250000D02*
X229980000Y-123250000D01*
X229980000Y-123250000D02*
X229980000Y-105350000D01*
X229980000Y-105350000D02*
X228330000Y-105350000D01*
X228330000Y-105350000D02*
G75*
G02*
X226330000Y-105350000I-1000000J0D01*
G01*
G04 #@! TO.C,U19*
X185690000Y-42760000D02*
X175840000Y-42760000D01*
X175840000Y-42760000D02*
X174840000Y-43760000D01*
X174840000Y-43760000D02*
X174840000Y-66460000D01*
X174840000Y-66460000D02*
X198540000Y-66460000D01*
X198540000Y-66460000D02*
X198540000Y-42760000D01*
X198540000Y-42760000D02*
X187690000Y-42760000D01*
G04 #@! TO.C,U18*
X99330000Y-41850000D02*
X97680000Y-41850000D01*
X97680000Y-41850000D02*
X97680000Y-59750000D01*
X97680000Y-59750000D02*
X102980000Y-59750000D01*
X102980000Y-59750000D02*
X102980000Y-41850000D01*
X102980000Y-41850000D02*
X101330000Y-41850000D01*
X101330000Y-41850000D02*
G75*
G02*
X99330000Y-41850000I-1000000J0D01*
G01*
G04 #@! TO.C,U17*
X71390000Y-41850000D02*
X69740000Y-41850000D01*
X69740000Y-41850000D02*
X69740000Y-64830000D01*
X69740000Y-64830000D02*
X75040000Y-64830000D01*
X75040000Y-64830000D02*
X75040000Y-41850000D01*
X75040000Y-41850000D02*
X73390000Y-41850000D01*
X73390000Y-41850000D02*
G75*
G02*
X71390000Y-41850000I-1000000J0D01*
G01*
G04 #@! TO.C,U16*
X137430000Y-41850000D02*
X135780000Y-41850000D01*
X135780000Y-41850000D02*
X135780000Y-62290000D01*
X135780000Y-62290000D02*
X141080000Y-62290000D01*
X141080000Y-62290000D02*
X141080000Y-41850000D01*
X141080000Y-41850000D02*
X139430000Y-41850000D01*
X139430000Y-41850000D02*
G75*
G02*
X137430000Y-41850000I-1000000J0D01*
G01*
G04 #@! TO.C,U15*
X141240000Y-95190000D02*
X135780000Y-95190000D01*
X135780000Y-95190000D02*
X135780000Y-130870000D01*
X135780000Y-130870000D02*
X148700000Y-130870000D01*
X148700000Y-130870000D02*
X148700000Y-95190000D01*
X148700000Y-95190000D02*
X143240000Y-95190000D01*
X143240000Y-95190000D02*
G75*
G02*
X141240000Y-95190000I-1000000J0D01*
G01*
G04 #@! TO.C,U14*
X123460000Y-90110000D02*
X118000000Y-90110000D01*
X118000000Y-90110000D02*
X118000000Y-130870000D01*
X118000000Y-130870000D02*
X130920000Y-130870000D01*
X130920000Y-130870000D02*
X130920000Y-90110000D01*
X130920000Y-90110000D02*
X125460000Y-90110000D01*
X125460000Y-90110000D02*
G75*
G02*
X123460000Y-90110000I-1000000J0D01*
G01*
G04 #@! TO.C,U13*
X105680000Y-90110000D02*
X100220000Y-90110000D01*
X100220000Y-90110000D02*
X100220000Y-130870000D01*
X100220000Y-130870000D02*
X113140000Y-130870000D01*
X113140000Y-130870000D02*
X113140000Y-90110000D01*
X113140000Y-90110000D02*
X107680000Y-90110000D01*
X107680000Y-90110000D02*
G75*
G02*
X105680000Y-90110000I-1000000J0D01*
G01*
G04 #@! TO.C,U12*
X127270000Y-41850000D02*
X125620000Y-41850000D01*
X125620000Y-41850000D02*
X125620000Y-62290000D01*
X125620000Y-62290000D02*
X130920000Y-62290000D01*
X130920000Y-62290000D02*
X130920000Y-41850000D01*
X130920000Y-41850000D02*
X129270000Y-41850000D01*
X129270000Y-41850000D02*
G75*
G02*
X127270000Y-41850000I-1000000J0D01*
G01*
G04 #@! TO.C,U11*
X190770000Y-105350000D02*
X189120000Y-105350000D01*
X189120000Y-105350000D02*
X189120000Y-130870000D01*
X189120000Y-130870000D02*
X194420000Y-130870000D01*
X194420000Y-130870000D02*
X194420000Y-105350000D01*
X194420000Y-105350000D02*
X192770000Y-105350000D01*
X192770000Y-105350000D02*
G75*
G02*
X190770000Y-105350000I-1000000J0D01*
G01*
G04 #@! TO.C,U10*
X207280000Y-41850000D02*
X201820000Y-41850000D01*
X201820000Y-41850000D02*
X201820000Y-92770000D01*
X201820000Y-92770000D02*
X214740000Y-92770000D01*
X214740000Y-92770000D02*
X214740000Y-41850000D01*
X214740000Y-41850000D02*
X209280000Y-41850000D01*
X209280000Y-41850000D02*
G75*
G02*
X207280000Y-41850000I-1000000J0D01*
G01*
G04 #@! TO.C,U9*
X113300000Y-41850000D02*
X107840000Y-41850000D01*
X107840000Y-41850000D02*
X107840000Y-77530000D01*
X107840000Y-77530000D02*
X120760000Y-77530000D01*
X120760000Y-77530000D02*
X120760000Y-41850000D01*
X120760000Y-41850000D02*
X115300000Y-41850000D01*
X115300000Y-41850000D02*
G75*
G02*
X113300000Y-41850000I-1000000J0D01*
G01*
G04 #@! TO.C,U8*
X81550000Y-69790000D02*
X79900000Y-69790000D01*
X79900000Y-69790000D02*
X79900000Y-90230000D01*
X79900000Y-90230000D02*
X85200000Y-90230000D01*
X85200000Y-90230000D02*
X85200000Y-69790000D01*
X85200000Y-69790000D02*
X83550000Y-69790000D01*
X83550000Y-69790000D02*
G75*
G02*
X81550000Y-69790000I-1000000J0D01*
G01*
G04 #@! TO.C,U7*
X221250000Y-41850000D02*
X219600000Y-41850000D01*
X219600000Y-41850000D02*
X219600000Y-62290000D01*
X219600000Y-62290000D02*
X224900000Y-62290000D01*
X224900000Y-62290000D02*
X224900000Y-41850000D01*
X224900000Y-41850000D02*
X223250000Y-41850000D01*
X223250000Y-41850000D02*
G75*
G02*
X221250000Y-41850000I-1000000J0D01*
G01*
G04 #@! TO.C,U6*
X159020000Y-95190000D02*
X153560000Y-95190000D01*
X153560000Y-95190000D02*
X153560000Y-130870000D01*
X153560000Y-130870000D02*
X166480000Y-130870000D01*
X166480000Y-130870000D02*
X166480000Y-95190000D01*
X166480000Y-95190000D02*
X161020000Y-95190000D01*
X161020000Y-95190000D02*
G75*
G02*
X159020000Y-95190000I-1000000J0D01*
G01*
G04 #@! TO.C,U5*
X176800000Y-100270000D02*
X171340000Y-100270000D01*
X171340000Y-100270000D02*
X171340000Y-130870000D01*
X171340000Y-130870000D02*
X184260000Y-130870000D01*
X184260000Y-130870000D02*
X184260000Y-100270000D01*
X184260000Y-100270000D02*
X178800000Y-100270000D01*
X178800000Y-100270000D02*
G75*
G02*
X176800000Y-100270000I-1000000J0D01*
G01*
G04 #@! TO.C,U4*
X81550000Y-97730000D02*
X79900000Y-97730000D01*
X79900000Y-97730000D02*
X79900000Y-123250000D01*
X79900000Y-123250000D02*
X85200000Y-123250000D01*
X85200000Y-123250000D02*
X85200000Y-97730000D01*
X85200000Y-97730000D02*
X83550000Y-97730000D01*
X83550000Y-97730000D02*
G75*
G02*
X81550000Y-97730000I-1000000J0D01*
G01*
G04 #@! TO.C,U3*
X91710000Y-67250000D02*
X90060000Y-67250000D01*
X90060000Y-67250000D02*
X90060000Y-92770000D01*
X90060000Y-92770000D02*
X95360000Y-92770000D01*
X95360000Y-92770000D02*
X95360000Y-67250000D01*
X95360000Y-67250000D02*
X93710000Y-67250000D01*
X93710000Y-67250000D02*
G75*
G02*
X91710000Y-67250000I-1000000J0D01*
G01*
G04 #@! TO.C,U2*
X91710000Y-97730000D02*
X90060000Y-97730000D01*
X90060000Y-97730000D02*
X90060000Y-123250000D01*
X90060000Y-123250000D02*
X95360000Y-123250000D01*
X95360000Y-123250000D02*
X95360000Y-97730000D01*
X95360000Y-97730000D02*
X93710000Y-97730000D01*
X93710000Y-97730000D02*
G75*
G02*
X91710000Y-97730000I-1000000J0D01*
G01*
G04 #@! TO.C,U1*
X67580000Y-82490000D02*
X62120000Y-82490000D01*
X62120000Y-82490000D02*
X62120000Y-133410000D01*
X62120000Y-133410000D02*
X75040000Y-133410000D01*
X75040000Y-133410000D02*
X75040000Y-82490000D01*
X75040000Y-82490000D02*
X69580000Y-82490000D01*
X69580000Y-82490000D02*
G75*
G02*
X67580000Y-82490000I-1000000J0D01*
G01*
G04 #@! TO.C,SW1*
X61960000Y-74080000D02*
X66460000Y-74080000D01*
X60710000Y-70080000D02*
X60710000Y-71580000D01*
X66460000Y-67580000D02*
X61960000Y-67580000D01*
X67710000Y-71580000D02*
X67710000Y-70080000D01*
G04 #@! TO.C,C123*
X64870000Y-58420000D02*
G75*
G03*
X64870000Y-58420000I-2120000J0D01*
G01*
X62750000Y-59260000D02*
X62750000Y-60500000D01*
X62750000Y-56340000D02*
X62750000Y-57580000D01*
X62790000Y-59260000D02*
X62790000Y-60500000D01*
X62790000Y-56340000D02*
X62790000Y-57580000D01*
X62830000Y-59260000D02*
X62830000Y-60499000D01*
X62830000Y-56341000D02*
X62830000Y-57580000D01*
X62870000Y-56343000D02*
X62870000Y-57580000D01*
X62870000Y-59260000D02*
X62870000Y-60497000D01*
X62910000Y-56346000D02*
X62910000Y-57580000D01*
X62910000Y-59260000D02*
X62910000Y-60494000D01*
X62950000Y-56349000D02*
X62950000Y-57580000D01*
X62950000Y-59260000D02*
X62950000Y-60491000D01*
X62990000Y-56353000D02*
X62990000Y-57580000D01*
X62990000Y-59260000D02*
X62990000Y-60487000D01*
X63030000Y-56358000D02*
X63030000Y-57580000D01*
X63030000Y-59260000D02*
X63030000Y-60482000D01*
X63070000Y-56364000D02*
X63070000Y-57580000D01*
X63070000Y-59260000D02*
X63070000Y-60476000D01*
X63110000Y-56370000D02*
X63110000Y-57580000D01*
X63110000Y-59260000D02*
X63110000Y-60470000D01*
X63150000Y-56378000D02*
X63150000Y-57580000D01*
X63150000Y-59260000D02*
X63150000Y-60462000D01*
X63190000Y-56386000D02*
X63190000Y-57580000D01*
X63190000Y-59260000D02*
X63190000Y-60454000D01*
X63230000Y-56395000D02*
X63230000Y-57580000D01*
X63230000Y-59260000D02*
X63230000Y-60445000D01*
X63270000Y-56404000D02*
X63270000Y-57580000D01*
X63270000Y-59260000D02*
X63270000Y-60436000D01*
X63310000Y-56415000D02*
X63310000Y-57580000D01*
X63310000Y-59260000D02*
X63310000Y-60425000D01*
X63350000Y-56426000D02*
X63350000Y-57580000D01*
X63350000Y-59260000D02*
X63350000Y-60414000D01*
X63390000Y-56438000D02*
X63390000Y-57580000D01*
X63390000Y-59260000D02*
X63390000Y-60402000D01*
X63430000Y-56452000D02*
X63430000Y-57580000D01*
X63430000Y-59260000D02*
X63430000Y-60388000D01*
X63471000Y-56466000D02*
X63471000Y-57580000D01*
X63471000Y-59260000D02*
X63471000Y-60374000D01*
X63511000Y-56480000D02*
X63511000Y-57580000D01*
X63511000Y-59260000D02*
X63511000Y-60360000D01*
X63551000Y-56496000D02*
X63551000Y-57580000D01*
X63551000Y-59260000D02*
X63551000Y-60344000D01*
X63591000Y-56513000D02*
X63591000Y-57580000D01*
X63591000Y-59260000D02*
X63591000Y-60327000D01*
X63631000Y-56531000D02*
X63631000Y-57580000D01*
X63631000Y-59260000D02*
X63631000Y-60309000D01*
X63671000Y-56550000D02*
X63671000Y-57580000D01*
X63671000Y-59260000D02*
X63671000Y-60290000D01*
X63711000Y-56569000D02*
X63711000Y-57580000D01*
X63711000Y-59260000D02*
X63711000Y-60271000D01*
X63751000Y-56590000D02*
X63751000Y-57580000D01*
X63751000Y-59260000D02*
X63751000Y-60250000D01*
X63791000Y-56612000D02*
X63791000Y-57580000D01*
X63791000Y-59260000D02*
X63791000Y-60228000D01*
X63831000Y-56635000D02*
X63831000Y-57580000D01*
X63831000Y-59260000D02*
X63831000Y-60205000D01*
X63871000Y-56660000D02*
X63871000Y-57580000D01*
X63871000Y-59260000D02*
X63871000Y-60180000D01*
X63911000Y-56685000D02*
X63911000Y-57580000D01*
X63911000Y-59260000D02*
X63911000Y-60155000D01*
X63951000Y-56712000D02*
X63951000Y-57580000D01*
X63951000Y-59260000D02*
X63951000Y-60128000D01*
X63991000Y-56740000D02*
X63991000Y-57580000D01*
X63991000Y-59260000D02*
X63991000Y-60100000D01*
X64031000Y-56770000D02*
X64031000Y-57580000D01*
X64031000Y-59260000D02*
X64031000Y-60070000D01*
X64071000Y-56801000D02*
X64071000Y-57580000D01*
X64071000Y-59260000D02*
X64071000Y-60039000D01*
X64111000Y-56833000D02*
X64111000Y-57580000D01*
X64111000Y-59260000D02*
X64111000Y-60007000D01*
X64151000Y-56868000D02*
X64151000Y-57580000D01*
X64151000Y-59260000D02*
X64151000Y-59972000D01*
X64191000Y-56904000D02*
X64191000Y-57580000D01*
X64191000Y-59260000D02*
X64191000Y-59936000D01*
X64231000Y-56942000D02*
X64231000Y-57580000D01*
X64231000Y-59260000D02*
X64231000Y-59898000D01*
X64271000Y-56982000D02*
X64271000Y-57580000D01*
X64271000Y-59260000D02*
X64271000Y-59858000D01*
X64311000Y-57024000D02*
X64311000Y-57580000D01*
X64311000Y-59260000D02*
X64311000Y-59816000D01*
X64351000Y-57069000D02*
X64351000Y-59771000D01*
X64391000Y-57116000D02*
X64391000Y-59724000D01*
X64431000Y-57166000D02*
X64431000Y-59674000D01*
X64471000Y-57220000D02*
X64471000Y-59620000D01*
X64511000Y-57278000D02*
X64511000Y-59562000D01*
X64551000Y-57340000D02*
X64551000Y-59500000D01*
X64591000Y-57407000D02*
X64591000Y-59433000D01*
X64631000Y-57480000D02*
X64631000Y-59360000D01*
X64671000Y-57561000D02*
X64671000Y-59279000D01*
X64711000Y-57652000D02*
X64711000Y-59188000D01*
X64751000Y-57756000D02*
X64751000Y-59084000D01*
X64791000Y-57883000D02*
X64791000Y-58957000D01*
X64831000Y-58050000D02*
X64831000Y-58790000D01*
X60480199Y-57225000D02*
X60880199Y-57225000D01*
X60680199Y-57025000D02*
X60680199Y-57425000D01*
G04 #@! TO.C,J2*
X223342200Y-82753200D02*
X223342200Y-96266000D01*
X236143800Y-96266000D02*
X223342200Y-96266000D01*
X236143800Y-82753200D02*
X223342200Y-82753200D01*
X236143800Y-89509600D02*
X236143800Y-96266000D01*
X236143800Y-82753200D02*
X236143800Y-89509600D01*
G04 #@! TO.C,R17*
D11*
X229052380Y-57300476D02*
X229052380Y-57871904D01*
X229052380Y-57586190D02*
X228052380Y-57586190D01*
X228195238Y-57681428D01*
X228290476Y-57776666D01*
X228338095Y-57871904D01*
X228052380Y-56681428D02*
X228052380Y-56586190D01*
X228100000Y-56490952D01*
X228147619Y-56443333D01*
X228242857Y-56395714D01*
X228433333Y-56348095D01*
X228671428Y-56348095D01*
X228861904Y-56395714D01*
X228957142Y-56443333D01*
X229004761Y-56490952D01*
X229052380Y-56586190D01*
X229052380Y-56681428D01*
X229004761Y-56776666D01*
X228957142Y-56824285D01*
X228861904Y-56871904D01*
X228671428Y-56919523D01*
X228433333Y-56919523D01*
X228242857Y-56871904D01*
X228147619Y-56824285D01*
X228100000Y-56776666D01*
X228052380Y-56681428D01*
X229052380Y-55919523D02*
X228052380Y-55919523D01*
X229052380Y-55348095D02*
X228480952Y-55776666D01*
X228052380Y-55348095D02*
X228623809Y-55919523D01*
X228052380Y-53967142D02*
X228052380Y-53776666D01*
X228100000Y-53681428D01*
X228195238Y-53586190D01*
X228385714Y-53538571D01*
X228719047Y-53538571D01*
X228909523Y-53586190D01*
X229004761Y-53681428D01*
X229052380Y-53776666D01*
X229052380Y-53967142D01*
X229004761Y-54062380D01*
X228909523Y-54157619D01*
X228719047Y-54205238D01*
X228385714Y-54205238D01*
X228195238Y-54157619D01*
X228100000Y-54062380D01*
X228052380Y-53967142D01*
X229052380Y-53110000D02*
X228052380Y-53110000D01*
X228528571Y-53110000D02*
X228528571Y-52538571D01*
X229052380Y-52538571D02*
X228052380Y-52538571D01*
X229052380Y-52062380D02*
X228052380Y-52062380D01*
X228766666Y-51729047D01*
X228052380Y-51395714D01*
X229052380Y-51395714D01*
G04 #@! TO.C,R16*
X232862380Y-57300476D02*
X232862380Y-57871904D01*
X232862380Y-57586190D02*
X231862380Y-57586190D01*
X232005238Y-57681428D01*
X232100476Y-57776666D01*
X232148095Y-57871904D01*
X231862380Y-56681428D02*
X231862380Y-56586190D01*
X231910000Y-56490952D01*
X231957619Y-56443333D01*
X232052857Y-56395714D01*
X232243333Y-56348095D01*
X232481428Y-56348095D01*
X232671904Y-56395714D01*
X232767142Y-56443333D01*
X232814761Y-56490952D01*
X232862380Y-56586190D01*
X232862380Y-56681428D01*
X232814761Y-56776666D01*
X232767142Y-56824285D01*
X232671904Y-56871904D01*
X232481428Y-56919523D01*
X232243333Y-56919523D01*
X232052857Y-56871904D01*
X231957619Y-56824285D01*
X231910000Y-56776666D01*
X231862380Y-56681428D01*
X232862380Y-55919523D02*
X231862380Y-55919523D01*
X232862380Y-55348095D02*
X232290952Y-55776666D01*
X231862380Y-55348095D02*
X232433809Y-55919523D01*
X231862380Y-53967142D02*
X231862380Y-53776666D01*
X231910000Y-53681428D01*
X232005238Y-53586190D01*
X232195714Y-53538571D01*
X232529047Y-53538571D01*
X232719523Y-53586190D01*
X232814761Y-53681428D01*
X232862380Y-53776666D01*
X232862380Y-53967142D01*
X232814761Y-54062380D01*
X232719523Y-54157619D01*
X232529047Y-54205238D01*
X232195714Y-54205238D01*
X232005238Y-54157619D01*
X231910000Y-54062380D01*
X231862380Y-53967142D01*
X232862380Y-53110000D02*
X231862380Y-53110000D01*
X232338571Y-53110000D02*
X232338571Y-52538571D01*
X232862380Y-52538571D02*
X231862380Y-52538571D01*
X232862380Y-52062380D02*
X231862380Y-52062380D01*
X232576666Y-51729047D01*
X231862380Y-51395714D01*
X232862380Y-51395714D01*
G04 #@! TO.C,R13*
X172450476Y-92924380D02*
X173069523Y-92924380D01*
X172736190Y-93305333D01*
X172879047Y-93305333D01*
X172974285Y-93352952D01*
X173021904Y-93400571D01*
X173069523Y-93495809D01*
X173069523Y-93733904D01*
X173021904Y-93829142D01*
X172974285Y-93876761D01*
X172879047Y-93924380D01*
X172593333Y-93924380D01*
X172498095Y-93876761D01*
X172450476Y-93829142D01*
X173402857Y-92924380D02*
X174021904Y-92924380D01*
X173688571Y-93305333D01*
X173831428Y-93305333D01*
X173926666Y-93352952D01*
X173974285Y-93400571D01*
X174021904Y-93495809D01*
X174021904Y-93733904D01*
X173974285Y-93829142D01*
X173926666Y-93876761D01*
X173831428Y-93924380D01*
X173545714Y-93924380D01*
X173450476Y-93876761D01*
X173402857Y-93829142D01*
X175402857Y-92924380D02*
X175593333Y-92924380D01*
X175688571Y-92972000D01*
X175783809Y-93067238D01*
X175831428Y-93257714D01*
X175831428Y-93591047D01*
X175783809Y-93781523D01*
X175688571Y-93876761D01*
X175593333Y-93924380D01*
X175402857Y-93924380D01*
X175307619Y-93876761D01*
X175212380Y-93781523D01*
X175164761Y-93591047D01*
X175164761Y-93257714D01*
X175212380Y-93067238D01*
X175307619Y-92972000D01*
X175402857Y-92924380D01*
X176260000Y-93924380D02*
X176260000Y-92924380D01*
X176260000Y-93400571D02*
X176831428Y-93400571D01*
X176831428Y-93924380D02*
X176831428Y-92924380D01*
X177307619Y-93924380D02*
X177307619Y-92924380D01*
X177640952Y-93638666D01*
X177974285Y-92924380D01*
X177974285Y-93924380D01*
G04 #@! TO.C,J3*
X255952666Y-72306380D02*
X255952666Y-73020666D01*
X255905047Y-73163523D01*
X255809809Y-73258761D01*
X255666952Y-73306380D01*
X255571714Y-73306380D01*
X256333619Y-72306380D02*
X256952666Y-72306380D01*
X256619333Y-72687333D01*
X256762190Y-72687333D01*
X256857428Y-72734952D01*
X256905047Y-72782571D01*
X256952666Y-72877809D01*
X256952666Y-73115904D01*
X256905047Y-73211142D01*
X256857428Y-73258761D01*
X256762190Y-73306380D01*
X256476476Y-73306380D01*
X256381238Y-73258761D01*
X256333619Y-73211142D01*
G04 #@! TO.C,R7*
X237320380Y-75080476D02*
X237320380Y-75651904D01*
X237320380Y-75366190D02*
X236320380Y-75366190D01*
X236463238Y-75461428D01*
X236558476Y-75556666D01*
X236606095Y-75651904D01*
X236320380Y-74461428D02*
X236320380Y-74366190D01*
X236368000Y-74270952D01*
X236415619Y-74223333D01*
X236510857Y-74175714D01*
X236701333Y-74128095D01*
X236939428Y-74128095D01*
X237129904Y-74175714D01*
X237225142Y-74223333D01*
X237272761Y-74270952D01*
X237320380Y-74366190D01*
X237320380Y-74461428D01*
X237272761Y-74556666D01*
X237225142Y-74604285D01*
X237129904Y-74651904D01*
X236939428Y-74699523D01*
X236701333Y-74699523D01*
X236510857Y-74651904D01*
X236415619Y-74604285D01*
X236368000Y-74556666D01*
X236320380Y-74461428D01*
X237320380Y-73699523D02*
X236320380Y-73699523D01*
X237320380Y-73128095D02*
X236748952Y-73556666D01*
X236320380Y-73128095D02*
X236891809Y-73699523D01*
X236320380Y-71747142D02*
X236320380Y-71556666D01*
X236368000Y-71461428D01*
X236463238Y-71366190D01*
X236653714Y-71318571D01*
X236987047Y-71318571D01*
X237177523Y-71366190D01*
X237272761Y-71461428D01*
X237320380Y-71556666D01*
X237320380Y-71747142D01*
X237272761Y-71842380D01*
X237177523Y-71937619D01*
X236987047Y-71985238D01*
X236653714Y-71985238D01*
X236463238Y-71937619D01*
X236368000Y-71842380D01*
X236320380Y-71747142D01*
X237320380Y-70890000D02*
X236320380Y-70890000D01*
X236796571Y-70890000D02*
X236796571Y-70318571D01*
X237320380Y-70318571D02*
X236320380Y-70318571D01*
X237320380Y-69842380D02*
X236320380Y-69842380D01*
X237034666Y-69509047D01*
X236320380Y-69175714D01*
X237320380Y-69175714D01*
G04 #@! TO.C,R2*
X92670380Y-60626285D02*
X92670380Y-61102476D01*
X93146571Y-61150095D01*
X93098952Y-61102476D01*
X93051333Y-61007238D01*
X93051333Y-60769142D01*
X93098952Y-60673904D01*
X93146571Y-60626285D01*
X93241809Y-60578666D01*
X93479904Y-60578666D01*
X93575142Y-60626285D01*
X93622761Y-60673904D01*
X93670380Y-60769142D01*
X93670380Y-61007238D01*
X93622761Y-61102476D01*
X93575142Y-61150095D01*
X93670380Y-59626285D02*
X93670380Y-60197714D01*
X93670380Y-59912000D02*
X92670380Y-59912000D01*
X92813238Y-60007238D01*
X92908476Y-60102476D01*
X92956095Y-60197714D01*
X92670380Y-59007238D02*
X92670380Y-58912000D01*
X92718000Y-58816761D01*
X92765619Y-58769142D01*
X92860857Y-58721523D01*
X93051333Y-58673904D01*
X93289428Y-58673904D01*
X93479904Y-58721523D01*
X93575142Y-58769142D01*
X93622761Y-58816761D01*
X93670380Y-58912000D01*
X93670380Y-59007238D01*
X93622761Y-59102476D01*
X93575142Y-59150095D01*
X93479904Y-59197714D01*
X93289428Y-59245333D01*
X93051333Y-59245333D01*
X92860857Y-59197714D01*
X92765619Y-59150095D01*
X92718000Y-59102476D01*
X92670380Y-59007238D01*
X92670380Y-57292952D02*
X92670380Y-57102476D01*
X92718000Y-57007238D01*
X92813238Y-56912000D01*
X93003714Y-56864380D01*
X93337047Y-56864380D01*
X93527523Y-56912000D01*
X93622761Y-57007238D01*
X93670380Y-57102476D01*
X93670380Y-57292952D01*
X93622761Y-57388190D01*
X93527523Y-57483428D01*
X93337047Y-57531047D01*
X93003714Y-57531047D01*
X92813238Y-57483428D01*
X92718000Y-57388190D01*
X92670380Y-57292952D01*
X93670380Y-56435809D02*
X92670380Y-56435809D01*
X93146571Y-56435809D02*
X93146571Y-55864380D01*
X93670380Y-55864380D02*
X92670380Y-55864380D01*
X93670380Y-55388190D02*
X92670380Y-55388190D01*
X93384666Y-55054857D01*
X92670380Y-54721523D01*
X93670380Y-54721523D01*
G04 #@! TO.C,R1*
X89368380Y-60626285D02*
X89368380Y-61102476D01*
X89844571Y-61150095D01*
X89796952Y-61102476D01*
X89749333Y-61007238D01*
X89749333Y-60769142D01*
X89796952Y-60673904D01*
X89844571Y-60626285D01*
X89939809Y-60578666D01*
X90177904Y-60578666D01*
X90273142Y-60626285D01*
X90320761Y-60673904D01*
X90368380Y-60769142D01*
X90368380Y-61007238D01*
X90320761Y-61102476D01*
X90273142Y-61150095D01*
X90368380Y-59626285D02*
X90368380Y-60197714D01*
X90368380Y-59912000D02*
X89368380Y-59912000D01*
X89511238Y-60007238D01*
X89606476Y-60102476D01*
X89654095Y-60197714D01*
X89368380Y-59007238D02*
X89368380Y-58912000D01*
X89416000Y-58816761D01*
X89463619Y-58769142D01*
X89558857Y-58721523D01*
X89749333Y-58673904D01*
X89987428Y-58673904D01*
X90177904Y-58721523D01*
X90273142Y-58769142D01*
X90320761Y-58816761D01*
X90368380Y-58912000D01*
X90368380Y-59007238D01*
X90320761Y-59102476D01*
X90273142Y-59150095D01*
X90177904Y-59197714D01*
X89987428Y-59245333D01*
X89749333Y-59245333D01*
X89558857Y-59197714D01*
X89463619Y-59150095D01*
X89416000Y-59102476D01*
X89368380Y-59007238D01*
X89368380Y-57292952D02*
X89368380Y-57102476D01*
X89416000Y-57007238D01*
X89511238Y-56912000D01*
X89701714Y-56864380D01*
X90035047Y-56864380D01*
X90225523Y-56912000D01*
X90320761Y-57007238D01*
X90368380Y-57102476D01*
X90368380Y-57292952D01*
X90320761Y-57388190D01*
X90225523Y-57483428D01*
X90035047Y-57531047D01*
X89701714Y-57531047D01*
X89511238Y-57483428D01*
X89416000Y-57388190D01*
X89368380Y-57292952D01*
X90368380Y-56435809D02*
X89368380Y-56435809D01*
X89844571Y-56435809D02*
X89844571Y-55864380D01*
X90368380Y-55864380D02*
X89368380Y-55864380D01*
X90368380Y-55388190D02*
X89368380Y-55388190D01*
X90082666Y-55054857D01*
X89368380Y-54721523D01*
X90368380Y-54721523D01*
G04 #@! TO.C,C26*
X158377142Y-39584380D02*
X158472380Y-39584380D01*
X158567619Y-39632000D01*
X158615238Y-39679619D01*
X158662857Y-39774857D01*
X158710476Y-39965333D01*
X158710476Y-40203428D01*
X158662857Y-40393904D01*
X158615238Y-40489142D01*
X158567619Y-40536761D01*
X158472380Y-40584380D01*
X158377142Y-40584380D01*
X158281904Y-40536761D01*
X158234285Y-40489142D01*
X158186666Y-40393904D01*
X158139047Y-40203428D01*
X158139047Y-39965333D01*
X158186666Y-39774857D01*
X158234285Y-39679619D01*
X158281904Y-39632000D01*
X158377142Y-39584380D01*
X159139047Y-40489142D02*
X159186666Y-40536761D01*
X159139047Y-40584380D01*
X159091428Y-40536761D01*
X159139047Y-40489142D01*
X159139047Y-40584380D01*
X160139047Y-40584380D02*
X159567619Y-40584380D01*
X159853333Y-40584380D02*
X159853333Y-39584380D01*
X159758095Y-39727238D01*
X159662857Y-39822476D01*
X159567619Y-39870095D01*
X160996190Y-39917714D02*
X160996190Y-40584380D01*
X160567619Y-39917714D02*
X160567619Y-40441523D01*
X160615238Y-40536761D01*
X160710476Y-40584380D01*
X160853333Y-40584380D01*
X160948571Y-40536761D01*
X160996190Y-40489142D01*
X161805714Y-40060571D02*
X161472380Y-40060571D01*
X161472380Y-40584380D02*
X161472380Y-39584380D01*
X161948571Y-39584380D01*
G04 #@! TO.C,C25*
X148257142Y-39584380D02*
X148352380Y-39584380D01*
X148447619Y-39632000D01*
X148495238Y-39679619D01*
X148542857Y-39774857D01*
X148590476Y-39965333D01*
X148590476Y-40203428D01*
X148542857Y-40393904D01*
X148495238Y-40489142D01*
X148447619Y-40536761D01*
X148352380Y-40584380D01*
X148257142Y-40584380D01*
X148161904Y-40536761D01*
X148114285Y-40489142D01*
X148066666Y-40393904D01*
X148019047Y-40203428D01*
X148019047Y-39965333D01*
X148066666Y-39774857D01*
X148114285Y-39679619D01*
X148161904Y-39632000D01*
X148257142Y-39584380D01*
X149019047Y-40489142D02*
X149066666Y-40536761D01*
X149019047Y-40584380D01*
X148971428Y-40536761D01*
X149019047Y-40489142D01*
X149019047Y-40584380D01*
X150019047Y-40584380D02*
X149447619Y-40584380D01*
X149733333Y-40584380D02*
X149733333Y-39584380D01*
X149638095Y-39727238D01*
X149542857Y-39822476D01*
X149447619Y-39870095D01*
X150876190Y-39917714D02*
X150876190Y-40584380D01*
X150447619Y-39917714D02*
X150447619Y-40441523D01*
X150495238Y-40536761D01*
X150590476Y-40584380D01*
X150733333Y-40584380D01*
X150828571Y-40536761D01*
X150876190Y-40489142D01*
X151685714Y-40060571D02*
X151352380Y-40060571D01*
X151352380Y-40584380D02*
X151352380Y-39584380D01*
X151828571Y-39584380D01*
G04 #@! TO.C,C24*
X201597142Y-101052380D02*
X201692380Y-101052380D01*
X201787619Y-101100000D01*
X201835238Y-101147619D01*
X201882857Y-101242857D01*
X201930476Y-101433333D01*
X201930476Y-101671428D01*
X201882857Y-101861904D01*
X201835238Y-101957142D01*
X201787619Y-102004761D01*
X201692380Y-102052380D01*
X201597142Y-102052380D01*
X201501904Y-102004761D01*
X201454285Y-101957142D01*
X201406666Y-101861904D01*
X201359047Y-101671428D01*
X201359047Y-101433333D01*
X201406666Y-101242857D01*
X201454285Y-101147619D01*
X201501904Y-101100000D01*
X201597142Y-101052380D01*
X202359047Y-101957142D02*
X202406666Y-102004761D01*
X202359047Y-102052380D01*
X202311428Y-102004761D01*
X202359047Y-101957142D01*
X202359047Y-102052380D01*
X203359047Y-102052380D02*
X202787619Y-102052380D01*
X203073333Y-102052380D02*
X203073333Y-101052380D01*
X202978095Y-101195238D01*
X202882857Y-101290476D01*
X202787619Y-101338095D01*
X204216190Y-101385714D02*
X204216190Y-102052380D01*
X203787619Y-101385714D02*
X203787619Y-101909523D01*
X203835238Y-102004761D01*
X203930476Y-102052380D01*
X204073333Y-102052380D01*
X204168571Y-102004761D01*
X204216190Y-101957142D01*
X205025714Y-101528571D02*
X204692380Y-101528571D01*
X204692380Y-102052380D02*
X204692380Y-101052380D01*
X205168571Y-101052380D01*
G04 #@! TO.C,C23*
X211757142Y-101052380D02*
X211852380Y-101052380D01*
X211947619Y-101100000D01*
X211995238Y-101147619D01*
X212042857Y-101242857D01*
X212090476Y-101433333D01*
X212090476Y-101671428D01*
X212042857Y-101861904D01*
X211995238Y-101957142D01*
X211947619Y-102004761D01*
X211852380Y-102052380D01*
X211757142Y-102052380D01*
X211661904Y-102004761D01*
X211614285Y-101957142D01*
X211566666Y-101861904D01*
X211519047Y-101671428D01*
X211519047Y-101433333D01*
X211566666Y-101242857D01*
X211614285Y-101147619D01*
X211661904Y-101100000D01*
X211757142Y-101052380D01*
X212519047Y-101957142D02*
X212566666Y-102004761D01*
X212519047Y-102052380D01*
X212471428Y-102004761D01*
X212519047Y-101957142D01*
X212519047Y-102052380D01*
X213519047Y-102052380D02*
X212947619Y-102052380D01*
X213233333Y-102052380D02*
X213233333Y-101052380D01*
X213138095Y-101195238D01*
X213042857Y-101290476D01*
X212947619Y-101338095D01*
X214376190Y-101385714D02*
X214376190Y-102052380D01*
X213947619Y-101385714D02*
X213947619Y-101909523D01*
X213995238Y-102004761D01*
X214090476Y-102052380D01*
X214233333Y-102052380D01*
X214328571Y-102004761D01*
X214376190Y-101957142D01*
X215185714Y-101528571D02*
X214852380Y-101528571D01*
X214852380Y-102052380D02*
X214852380Y-101052380D01*
X215328571Y-101052380D01*
G04 #@! TO.C,C22*
X82217142Y-39584380D02*
X82312380Y-39584380D01*
X82407619Y-39632000D01*
X82455238Y-39679619D01*
X82502857Y-39774857D01*
X82550476Y-39965333D01*
X82550476Y-40203428D01*
X82502857Y-40393904D01*
X82455238Y-40489142D01*
X82407619Y-40536761D01*
X82312380Y-40584380D01*
X82217142Y-40584380D01*
X82121904Y-40536761D01*
X82074285Y-40489142D01*
X82026666Y-40393904D01*
X81979047Y-40203428D01*
X81979047Y-39965333D01*
X82026666Y-39774857D01*
X82074285Y-39679619D01*
X82121904Y-39632000D01*
X82217142Y-39584380D01*
X82979047Y-40489142D02*
X83026666Y-40536761D01*
X82979047Y-40584380D01*
X82931428Y-40536761D01*
X82979047Y-40489142D01*
X82979047Y-40584380D01*
X83979047Y-40584380D02*
X83407619Y-40584380D01*
X83693333Y-40584380D02*
X83693333Y-39584380D01*
X83598095Y-39727238D01*
X83502857Y-39822476D01*
X83407619Y-39870095D01*
X84836190Y-39917714D02*
X84836190Y-40584380D01*
X84407619Y-39917714D02*
X84407619Y-40441523D01*
X84455238Y-40536761D01*
X84550476Y-40584380D01*
X84693333Y-40584380D01*
X84788571Y-40536761D01*
X84836190Y-40489142D01*
X85645714Y-40060571D02*
X85312380Y-40060571D01*
X85312380Y-40584380D02*
X85312380Y-39584380D01*
X85788571Y-39584380D01*
G04 #@! TO.C,C21*
X168537142Y-39584380D02*
X168632380Y-39584380D01*
X168727619Y-39632000D01*
X168775238Y-39679619D01*
X168822857Y-39774857D01*
X168870476Y-39965333D01*
X168870476Y-40203428D01*
X168822857Y-40393904D01*
X168775238Y-40489142D01*
X168727619Y-40536761D01*
X168632380Y-40584380D01*
X168537142Y-40584380D01*
X168441904Y-40536761D01*
X168394285Y-40489142D01*
X168346666Y-40393904D01*
X168299047Y-40203428D01*
X168299047Y-39965333D01*
X168346666Y-39774857D01*
X168394285Y-39679619D01*
X168441904Y-39632000D01*
X168537142Y-39584380D01*
X169299047Y-40489142D02*
X169346666Y-40536761D01*
X169299047Y-40584380D01*
X169251428Y-40536761D01*
X169299047Y-40489142D01*
X169299047Y-40584380D01*
X170299047Y-40584380D02*
X169727619Y-40584380D01*
X170013333Y-40584380D02*
X170013333Y-39584380D01*
X169918095Y-39727238D01*
X169822857Y-39822476D01*
X169727619Y-39870095D01*
X171156190Y-39917714D02*
X171156190Y-40584380D01*
X170727619Y-39917714D02*
X170727619Y-40441523D01*
X170775238Y-40536761D01*
X170870476Y-40584380D01*
X171013333Y-40584380D01*
X171108571Y-40536761D01*
X171156190Y-40489142D01*
X171965714Y-40060571D02*
X171632380Y-40060571D01*
X171632380Y-40584380D02*
X171632380Y-39584380D01*
X172108571Y-39584380D01*
G04 #@! TO.C,C20*
X226997142Y-101052380D02*
X227092380Y-101052380D01*
X227187619Y-101100000D01*
X227235238Y-101147619D01*
X227282857Y-101242857D01*
X227330476Y-101433333D01*
X227330476Y-101671428D01*
X227282857Y-101861904D01*
X227235238Y-101957142D01*
X227187619Y-102004761D01*
X227092380Y-102052380D01*
X226997142Y-102052380D01*
X226901904Y-102004761D01*
X226854285Y-101957142D01*
X226806666Y-101861904D01*
X226759047Y-101671428D01*
X226759047Y-101433333D01*
X226806666Y-101242857D01*
X226854285Y-101147619D01*
X226901904Y-101100000D01*
X226997142Y-101052380D01*
X227759047Y-101957142D02*
X227806666Y-102004761D01*
X227759047Y-102052380D01*
X227711428Y-102004761D01*
X227759047Y-101957142D01*
X227759047Y-102052380D01*
X228759047Y-102052380D02*
X228187619Y-102052380D01*
X228473333Y-102052380D02*
X228473333Y-101052380D01*
X228378095Y-101195238D01*
X228282857Y-101290476D01*
X228187619Y-101338095D01*
X229616190Y-101385714D02*
X229616190Y-102052380D01*
X229187619Y-101385714D02*
X229187619Y-101909523D01*
X229235238Y-102004761D01*
X229330476Y-102052380D01*
X229473333Y-102052380D01*
X229568571Y-102004761D01*
X229616190Y-101957142D01*
X230425714Y-101528571D02*
X230092380Y-101528571D01*
X230092380Y-102052380D02*
X230092380Y-101052380D01*
X230568571Y-101052380D01*
G04 #@! TO.C,C19*
X185087142Y-40346380D02*
X185182380Y-40346380D01*
X185277619Y-40394000D01*
X185325238Y-40441619D01*
X185372857Y-40536857D01*
X185420476Y-40727333D01*
X185420476Y-40965428D01*
X185372857Y-41155904D01*
X185325238Y-41251142D01*
X185277619Y-41298761D01*
X185182380Y-41346380D01*
X185087142Y-41346380D01*
X184991904Y-41298761D01*
X184944285Y-41251142D01*
X184896666Y-41155904D01*
X184849047Y-40965428D01*
X184849047Y-40727333D01*
X184896666Y-40536857D01*
X184944285Y-40441619D01*
X184991904Y-40394000D01*
X185087142Y-40346380D01*
X185849047Y-41251142D02*
X185896666Y-41298761D01*
X185849047Y-41346380D01*
X185801428Y-41298761D01*
X185849047Y-41251142D01*
X185849047Y-41346380D01*
X186849047Y-41346380D02*
X186277619Y-41346380D01*
X186563333Y-41346380D02*
X186563333Y-40346380D01*
X186468095Y-40489238D01*
X186372857Y-40584476D01*
X186277619Y-40632095D01*
X187706190Y-40679714D02*
X187706190Y-41346380D01*
X187277619Y-40679714D02*
X187277619Y-41203523D01*
X187325238Y-41298761D01*
X187420476Y-41346380D01*
X187563333Y-41346380D01*
X187658571Y-41298761D01*
X187706190Y-41251142D01*
X188515714Y-40822571D02*
X188182380Y-40822571D01*
X188182380Y-41346380D02*
X188182380Y-40346380D01*
X188658571Y-40346380D01*
G04 #@! TO.C,C18*
X99957142Y-39584380D02*
X100052380Y-39584380D01*
X100147619Y-39632000D01*
X100195238Y-39679619D01*
X100242857Y-39774857D01*
X100290476Y-39965333D01*
X100290476Y-40203428D01*
X100242857Y-40393904D01*
X100195238Y-40489142D01*
X100147619Y-40536761D01*
X100052380Y-40584380D01*
X99957142Y-40584380D01*
X99861904Y-40536761D01*
X99814285Y-40489142D01*
X99766666Y-40393904D01*
X99719047Y-40203428D01*
X99719047Y-39965333D01*
X99766666Y-39774857D01*
X99814285Y-39679619D01*
X99861904Y-39632000D01*
X99957142Y-39584380D01*
X100719047Y-40489142D02*
X100766666Y-40536761D01*
X100719047Y-40584380D01*
X100671428Y-40536761D01*
X100719047Y-40489142D01*
X100719047Y-40584380D01*
X101719047Y-40584380D02*
X101147619Y-40584380D01*
X101433333Y-40584380D02*
X101433333Y-39584380D01*
X101338095Y-39727238D01*
X101242857Y-39822476D01*
X101147619Y-39870095D01*
X102576190Y-39917714D02*
X102576190Y-40584380D01*
X102147619Y-39917714D02*
X102147619Y-40441523D01*
X102195238Y-40536761D01*
X102290476Y-40584380D01*
X102433333Y-40584380D01*
X102528571Y-40536761D01*
X102576190Y-40489142D01*
X103385714Y-40060571D02*
X103052380Y-40060571D01*
X103052380Y-40584380D02*
X103052380Y-39584380D01*
X103528571Y-39584380D01*
G04 #@! TO.C,C17*
X72017142Y-39584380D02*
X72112380Y-39584380D01*
X72207619Y-39632000D01*
X72255238Y-39679619D01*
X72302857Y-39774857D01*
X72350476Y-39965333D01*
X72350476Y-40203428D01*
X72302857Y-40393904D01*
X72255238Y-40489142D01*
X72207619Y-40536761D01*
X72112380Y-40584380D01*
X72017142Y-40584380D01*
X71921904Y-40536761D01*
X71874285Y-40489142D01*
X71826666Y-40393904D01*
X71779047Y-40203428D01*
X71779047Y-39965333D01*
X71826666Y-39774857D01*
X71874285Y-39679619D01*
X71921904Y-39632000D01*
X72017142Y-39584380D01*
X72779047Y-40489142D02*
X72826666Y-40536761D01*
X72779047Y-40584380D01*
X72731428Y-40536761D01*
X72779047Y-40489142D01*
X72779047Y-40584380D01*
X73779047Y-40584380D02*
X73207619Y-40584380D01*
X73493333Y-40584380D02*
X73493333Y-39584380D01*
X73398095Y-39727238D01*
X73302857Y-39822476D01*
X73207619Y-39870095D01*
X74636190Y-39917714D02*
X74636190Y-40584380D01*
X74207619Y-39917714D02*
X74207619Y-40441523D01*
X74255238Y-40536761D01*
X74350476Y-40584380D01*
X74493333Y-40584380D01*
X74588571Y-40536761D01*
X74636190Y-40489142D01*
X75445714Y-40060571D02*
X75112380Y-40060571D01*
X75112380Y-40584380D02*
X75112380Y-39584380D01*
X75588571Y-39584380D01*
G04 #@! TO.C,C16*
X138057142Y-39584380D02*
X138152380Y-39584380D01*
X138247619Y-39632000D01*
X138295238Y-39679619D01*
X138342857Y-39774857D01*
X138390476Y-39965333D01*
X138390476Y-40203428D01*
X138342857Y-40393904D01*
X138295238Y-40489142D01*
X138247619Y-40536761D01*
X138152380Y-40584380D01*
X138057142Y-40584380D01*
X137961904Y-40536761D01*
X137914285Y-40489142D01*
X137866666Y-40393904D01*
X137819047Y-40203428D01*
X137819047Y-39965333D01*
X137866666Y-39774857D01*
X137914285Y-39679619D01*
X137961904Y-39632000D01*
X138057142Y-39584380D01*
X138819047Y-40489142D02*
X138866666Y-40536761D01*
X138819047Y-40584380D01*
X138771428Y-40536761D01*
X138819047Y-40489142D01*
X138819047Y-40584380D01*
X139819047Y-40584380D02*
X139247619Y-40584380D01*
X139533333Y-40584380D02*
X139533333Y-39584380D01*
X139438095Y-39727238D01*
X139342857Y-39822476D01*
X139247619Y-39870095D01*
X140676190Y-39917714D02*
X140676190Y-40584380D01*
X140247619Y-39917714D02*
X140247619Y-40441523D01*
X140295238Y-40536761D01*
X140390476Y-40584380D01*
X140533333Y-40584380D01*
X140628571Y-40536761D01*
X140676190Y-40489142D01*
X141485714Y-40060571D02*
X141152380Y-40060571D01*
X141152380Y-40584380D02*
X141152380Y-39584380D01*
X141628571Y-39584380D01*
G04 #@! TO.C,C15*
X145717142Y-90892380D02*
X145812380Y-90892380D01*
X145907619Y-90940000D01*
X145955238Y-90987619D01*
X146002857Y-91082857D01*
X146050476Y-91273333D01*
X146050476Y-91511428D01*
X146002857Y-91701904D01*
X145955238Y-91797142D01*
X145907619Y-91844761D01*
X145812380Y-91892380D01*
X145717142Y-91892380D01*
X145621904Y-91844761D01*
X145574285Y-91797142D01*
X145526666Y-91701904D01*
X145479047Y-91511428D01*
X145479047Y-91273333D01*
X145526666Y-91082857D01*
X145574285Y-90987619D01*
X145621904Y-90940000D01*
X145717142Y-90892380D01*
X146479047Y-91797142D02*
X146526666Y-91844761D01*
X146479047Y-91892380D01*
X146431428Y-91844761D01*
X146479047Y-91797142D01*
X146479047Y-91892380D01*
X147479047Y-91892380D02*
X146907619Y-91892380D01*
X147193333Y-91892380D02*
X147193333Y-90892380D01*
X147098095Y-91035238D01*
X147002857Y-91130476D01*
X146907619Y-91178095D01*
X148336190Y-91225714D02*
X148336190Y-91892380D01*
X147907619Y-91225714D02*
X147907619Y-91749523D01*
X147955238Y-91844761D01*
X148050476Y-91892380D01*
X148193333Y-91892380D01*
X148288571Y-91844761D01*
X148336190Y-91797142D01*
X149145714Y-91368571D02*
X148812380Y-91368571D01*
X148812380Y-91892380D02*
X148812380Y-90892380D01*
X149288571Y-90892380D01*
G04 #@! TO.C,C14*
X127937142Y-85812380D02*
X128032380Y-85812380D01*
X128127619Y-85860000D01*
X128175238Y-85907619D01*
X128222857Y-86002857D01*
X128270476Y-86193333D01*
X128270476Y-86431428D01*
X128222857Y-86621904D01*
X128175238Y-86717142D01*
X128127619Y-86764761D01*
X128032380Y-86812380D01*
X127937142Y-86812380D01*
X127841904Y-86764761D01*
X127794285Y-86717142D01*
X127746666Y-86621904D01*
X127699047Y-86431428D01*
X127699047Y-86193333D01*
X127746666Y-86002857D01*
X127794285Y-85907619D01*
X127841904Y-85860000D01*
X127937142Y-85812380D01*
X128699047Y-86717142D02*
X128746666Y-86764761D01*
X128699047Y-86812380D01*
X128651428Y-86764761D01*
X128699047Y-86717142D01*
X128699047Y-86812380D01*
X129699047Y-86812380D02*
X129127619Y-86812380D01*
X129413333Y-86812380D02*
X129413333Y-85812380D01*
X129318095Y-85955238D01*
X129222857Y-86050476D01*
X129127619Y-86098095D01*
X130556190Y-86145714D02*
X130556190Y-86812380D01*
X130127619Y-86145714D02*
X130127619Y-86669523D01*
X130175238Y-86764761D01*
X130270476Y-86812380D01*
X130413333Y-86812380D01*
X130508571Y-86764761D01*
X130556190Y-86717142D01*
X131365714Y-86288571D02*
X131032380Y-86288571D01*
X131032380Y-86812380D02*
X131032380Y-85812380D01*
X131508571Y-85812380D01*
G04 #@! TO.C,C13*
X110117142Y-85812380D02*
X110212380Y-85812380D01*
X110307619Y-85860000D01*
X110355238Y-85907619D01*
X110402857Y-86002857D01*
X110450476Y-86193333D01*
X110450476Y-86431428D01*
X110402857Y-86621904D01*
X110355238Y-86717142D01*
X110307619Y-86764761D01*
X110212380Y-86812380D01*
X110117142Y-86812380D01*
X110021904Y-86764761D01*
X109974285Y-86717142D01*
X109926666Y-86621904D01*
X109879047Y-86431428D01*
X109879047Y-86193333D01*
X109926666Y-86002857D01*
X109974285Y-85907619D01*
X110021904Y-85860000D01*
X110117142Y-85812380D01*
X110879047Y-86717142D02*
X110926666Y-86764761D01*
X110879047Y-86812380D01*
X110831428Y-86764761D01*
X110879047Y-86717142D01*
X110879047Y-86812380D01*
X111879047Y-86812380D02*
X111307619Y-86812380D01*
X111593333Y-86812380D02*
X111593333Y-85812380D01*
X111498095Y-85955238D01*
X111402857Y-86050476D01*
X111307619Y-86098095D01*
X112736190Y-86145714D02*
X112736190Y-86812380D01*
X112307619Y-86145714D02*
X112307619Y-86669523D01*
X112355238Y-86764761D01*
X112450476Y-86812380D01*
X112593333Y-86812380D01*
X112688571Y-86764761D01*
X112736190Y-86717142D01*
X113545714Y-86288571D02*
X113212380Y-86288571D01*
X113212380Y-86812380D02*
X113212380Y-85812380D01*
X113688571Y-85812380D01*
G04 #@! TO.C,C12*
X127897142Y-39584380D02*
X127992380Y-39584380D01*
X128087619Y-39632000D01*
X128135238Y-39679619D01*
X128182857Y-39774857D01*
X128230476Y-39965333D01*
X128230476Y-40203428D01*
X128182857Y-40393904D01*
X128135238Y-40489142D01*
X128087619Y-40536761D01*
X127992380Y-40584380D01*
X127897142Y-40584380D01*
X127801904Y-40536761D01*
X127754285Y-40489142D01*
X127706666Y-40393904D01*
X127659047Y-40203428D01*
X127659047Y-39965333D01*
X127706666Y-39774857D01*
X127754285Y-39679619D01*
X127801904Y-39632000D01*
X127897142Y-39584380D01*
X128659047Y-40489142D02*
X128706666Y-40536761D01*
X128659047Y-40584380D01*
X128611428Y-40536761D01*
X128659047Y-40489142D01*
X128659047Y-40584380D01*
X129659047Y-40584380D02*
X129087619Y-40584380D01*
X129373333Y-40584380D02*
X129373333Y-39584380D01*
X129278095Y-39727238D01*
X129182857Y-39822476D01*
X129087619Y-39870095D01*
X130516190Y-39917714D02*
X130516190Y-40584380D01*
X130087619Y-39917714D02*
X130087619Y-40441523D01*
X130135238Y-40536761D01*
X130230476Y-40584380D01*
X130373333Y-40584380D01*
X130468571Y-40536761D01*
X130516190Y-40489142D01*
X131325714Y-40060571D02*
X130992380Y-40060571D01*
X130992380Y-40584380D02*
X130992380Y-39584380D01*
X131468571Y-39584380D01*
G04 #@! TO.C,C11*
X191397142Y-101052380D02*
X191492380Y-101052380D01*
X191587619Y-101100000D01*
X191635238Y-101147619D01*
X191682857Y-101242857D01*
X191730476Y-101433333D01*
X191730476Y-101671428D01*
X191682857Y-101861904D01*
X191635238Y-101957142D01*
X191587619Y-102004761D01*
X191492380Y-102052380D01*
X191397142Y-102052380D01*
X191301904Y-102004761D01*
X191254285Y-101957142D01*
X191206666Y-101861904D01*
X191159047Y-101671428D01*
X191159047Y-101433333D01*
X191206666Y-101242857D01*
X191254285Y-101147619D01*
X191301904Y-101100000D01*
X191397142Y-101052380D01*
X192159047Y-101957142D02*
X192206666Y-102004761D01*
X192159047Y-102052380D01*
X192111428Y-102004761D01*
X192159047Y-101957142D01*
X192159047Y-102052380D01*
X193159047Y-102052380D02*
X192587619Y-102052380D01*
X192873333Y-102052380D02*
X192873333Y-101052380D01*
X192778095Y-101195238D01*
X192682857Y-101290476D01*
X192587619Y-101338095D01*
X194016190Y-101385714D02*
X194016190Y-102052380D01*
X193587619Y-101385714D02*
X193587619Y-101909523D01*
X193635238Y-102004761D01*
X193730476Y-102052380D01*
X193873333Y-102052380D01*
X193968571Y-102004761D01*
X194016190Y-101957142D01*
X194825714Y-101528571D02*
X194492380Y-101528571D01*
X194492380Y-102052380D02*
X194492380Y-101052380D01*
X194968571Y-101052380D01*
G04 #@! TO.C,C10*
X219924380Y-70222857D02*
X219924380Y-70127619D01*
X219972000Y-70032380D01*
X220019619Y-69984761D01*
X220114857Y-69937142D01*
X220305333Y-69889523D01*
X220543428Y-69889523D01*
X220733904Y-69937142D01*
X220829142Y-69984761D01*
X220876761Y-70032380D01*
X220924380Y-70127619D01*
X220924380Y-70222857D01*
X220876761Y-70318095D01*
X220829142Y-70365714D01*
X220733904Y-70413333D01*
X220543428Y-70460952D01*
X220305333Y-70460952D01*
X220114857Y-70413333D01*
X220019619Y-70365714D01*
X219972000Y-70318095D01*
X219924380Y-70222857D01*
X220829142Y-69460952D02*
X220876761Y-69413333D01*
X220924380Y-69460952D01*
X220876761Y-69508571D01*
X220829142Y-69460952D01*
X220924380Y-69460952D01*
X220924380Y-68460952D02*
X220924380Y-69032380D01*
X220924380Y-68746666D02*
X219924380Y-68746666D01*
X220067238Y-68841904D01*
X220162476Y-68937142D01*
X220210095Y-69032380D01*
X220257714Y-67603809D02*
X220924380Y-67603809D01*
X220257714Y-68032380D02*
X220781523Y-68032380D01*
X220876761Y-67984761D01*
X220924380Y-67889523D01*
X220924380Y-67746666D01*
X220876761Y-67651428D01*
X220829142Y-67603809D01*
X220400571Y-66794285D02*
X220400571Y-67127619D01*
X220924380Y-67127619D02*
X219924380Y-67127619D01*
X219924380Y-66651428D01*
G04 #@! TO.C,C9*
X117737142Y-39584380D02*
X117832380Y-39584380D01*
X117927619Y-39632000D01*
X117975238Y-39679619D01*
X118022857Y-39774857D01*
X118070476Y-39965333D01*
X118070476Y-40203428D01*
X118022857Y-40393904D01*
X117975238Y-40489142D01*
X117927619Y-40536761D01*
X117832380Y-40584380D01*
X117737142Y-40584380D01*
X117641904Y-40536761D01*
X117594285Y-40489142D01*
X117546666Y-40393904D01*
X117499047Y-40203428D01*
X117499047Y-39965333D01*
X117546666Y-39774857D01*
X117594285Y-39679619D01*
X117641904Y-39632000D01*
X117737142Y-39584380D01*
X118499047Y-40489142D02*
X118546666Y-40536761D01*
X118499047Y-40584380D01*
X118451428Y-40536761D01*
X118499047Y-40489142D01*
X118499047Y-40584380D01*
X119499047Y-40584380D02*
X118927619Y-40584380D01*
X119213333Y-40584380D02*
X119213333Y-39584380D01*
X119118095Y-39727238D01*
X119022857Y-39822476D01*
X118927619Y-39870095D01*
X120356190Y-39917714D02*
X120356190Y-40584380D01*
X119927619Y-39917714D02*
X119927619Y-40441523D01*
X119975238Y-40536761D01*
X120070476Y-40584380D01*
X120213333Y-40584380D01*
X120308571Y-40536761D01*
X120356190Y-40489142D01*
X121165714Y-40060571D02*
X120832380Y-40060571D01*
X120832380Y-40584380D02*
X120832380Y-39584380D01*
X121308571Y-39584380D01*
G04 #@! TO.C,C8*
X82217142Y-67524380D02*
X82312380Y-67524380D01*
X82407619Y-67572000D01*
X82455238Y-67619619D01*
X82502857Y-67714857D01*
X82550476Y-67905333D01*
X82550476Y-68143428D01*
X82502857Y-68333904D01*
X82455238Y-68429142D01*
X82407619Y-68476761D01*
X82312380Y-68524380D01*
X82217142Y-68524380D01*
X82121904Y-68476761D01*
X82074285Y-68429142D01*
X82026666Y-68333904D01*
X81979047Y-68143428D01*
X81979047Y-67905333D01*
X82026666Y-67714857D01*
X82074285Y-67619619D01*
X82121904Y-67572000D01*
X82217142Y-67524380D01*
X82979047Y-68429142D02*
X83026666Y-68476761D01*
X82979047Y-68524380D01*
X82931428Y-68476761D01*
X82979047Y-68429142D01*
X82979047Y-68524380D01*
X83979047Y-68524380D02*
X83407619Y-68524380D01*
X83693333Y-68524380D02*
X83693333Y-67524380D01*
X83598095Y-67667238D01*
X83502857Y-67762476D01*
X83407619Y-67810095D01*
X84836190Y-67857714D02*
X84836190Y-68524380D01*
X84407619Y-67857714D02*
X84407619Y-68381523D01*
X84455238Y-68476761D01*
X84550476Y-68524380D01*
X84693333Y-68524380D01*
X84788571Y-68476761D01*
X84836190Y-68429142D01*
X85645714Y-68000571D02*
X85312380Y-68000571D01*
X85312380Y-68524380D02*
X85312380Y-67524380D01*
X85788571Y-67524380D01*
G04 #@! TO.C,C7*
X221877142Y-39584380D02*
X221972380Y-39584380D01*
X222067619Y-39632000D01*
X222115238Y-39679619D01*
X222162857Y-39774857D01*
X222210476Y-39965333D01*
X222210476Y-40203428D01*
X222162857Y-40393904D01*
X222115238Y-40489142D01*
X222067619Y-40536761D01*
X221972380Y-40584380D01*
X221877142Y-40584380D01*
X221781904Y-40536761D01*
X221734285Y-40489142D01*
X221686666Y-40393904D01*
X221639047Y-40203428D01*
X221639047Y-39965333D01*
X221686666Y-39774857D01*
X221734285Y-39679619D01*
X221781904Y-39632000D01*
X221877142Y-39584380D01*
X222639047Y-40489142D02*
X222686666Y-40536761D01*
X222639047Y-40584380D01*
X222591428Y-40536761D01*
X222639047Y-40489142D01*
X222639047Y-40584380D01*
X223639047Y-40584380D02*
X223067619Y-40584380D01*
X223353333Y-40584380D02*
X223353333Y-39584380D01*
X223258095Y-39727238D01*
X223162857Y-39822476D01*
X223067619Y-39870095D01*
X224496190Y-39917714D02*
X224496190Y-40584380D01*
X224067619Y-39917714D02*
X224067619Y-40441523D01*
X224115238Y-40536761D01*
X224210476Y-40584380D01*
X224353333Y-40584380D01*
X224448571Y-40536761D01*
X224496190Y-40489142D01*
X225305714Y-40060571D02*
X224972380Y-40060571D01*
X224972380Y-40584380D02*
X224972380Y-39584380D01*
X225448571Y-39584380D01*
G04 #@! TO.C,C6*
X163497142Y-90892380D02*
X163592380Y-90892380D01*
X163687619Y-90940000D01*
X163735238Y-90987619D01*
X163782857Y-91082857D01*
X163830476Y-91273333D01*
X163830476Y-91511428D01*
X163782857Y-91701904D01*
X163735238Y-91797142D01*
X163687619Y-91844761D01*
X163592380Y-91892380D01*
X163497142Y-91892380D01*
X163401904Y-91844761D01*
X163354285Y-91797142D01*
X163306666Y-91701904D01*
X163259047Y-91511428D01*
X163259047Y-91273333D01*
X163306666Y-91082857D01*
X163354285Y-90987619D01*
X163401904Y-90940000D01*
X163497142Y-90892380D01*
X164259047Y-91797142D02*
X164306666Y-91844761D01*
X164259047Y-91892380D01*
X164211428Y-91844761D01*
X164259047Y-91797142D01*
X164259047Y-91892380D01*
X165259047Y-91892380D02*
X164687619Y-91892380D01*
X164973333Y-91892380D02*
X164973333Y-90892380D01*
X164878095Y-91035238D01*
X164782857Y-91130476D01*
X164687619Y-91178095D01*
X166116190Y-91225714D02*
X166116190Y-91892380D01*
X165687619Y-91225714D02*
X165687619Y-91749523D01*
X165735238Y-91844761D01*
X165830476Y-91892380D01*
X165973333Y-91892380D01*
X166068571Y-91844761D01*
X166116190Y-91797142D01*
X166925714Y-91368571D02*
X166592380Y-91368571D01*
X166592380Y-91892380D02*
X166592380Y-90892380D01*
X167068571Y-90892380D01*
G04 #@! TO.C,C5*
X181277142Y-95972380D02*
X181372380Y-95972380D01*
X181467619Y-96020000D01*
X181515238Y-96067619D01*
X181562857Y-96162857D01*
X181610476Y-96353333D01*
X181610476Y-96591428D01*
X181562857Y-96781904D01*
X181515238Y-96877142D01*
X181467619Y-96924761D01*
X181372380Y-96972380D01*
X181277142Y-96972380D01*
X181181904Y-96924761D01*
X181134285Y-96877142D01*
X181086666Y-96781904D01*
X181039047Y-96591428D01*
X181039047Y-96353333D01*
X181086666Y-96162857D01*
X181134285Y-96067619D01*
X181181904Y-96020000D01*
X181277142Y-95972380D01*
X182039047Y-96877142D02*
X182086666Y-96924761D01*
X182039047Y-96972380D01*
X181991428Y-96924761D01*
X182039047Y-96877142D01*
X182039047Y-96972380D01*
X183039047Y-96972380D02*
X182467619Y-96972380D01*
X182753333Y-96972380D02*
X182753333Y-95972380D01*
X182658095Y-96115238D01*
X182562857Y-96210476D01*
X182467619Y-96258095D01*
X183896190Y-96305714D02*
X183896190Y-96972380D01*
X183467619Y-96305714D02*
X183467619Y-96829523D01*
X183515238Y-96924761D01*
X183610476Y-96972380D01*
X183753333Y-96972380D01*
X183848571Y-96924761D01*
X183896190Y-96877142D01*
X184705714Y-96448571D02*
X184372380Y-96448571D01*
X184372380Y-96972380D02*
X184372380Y-95972380D01*
X184848571Y-95972380D01*
G04 #@! TO.C,C4*
X82217142Y-93432380D02*
X82312380Y-93432380D01*
X82407619Y-93480000D01*
X82455238Y-93527619D01*
X82502857Y-93622857D01*
X82550476Y-93813333D01*
X82550476Y-94051428D01*
X82502857Y-94241904D01*
X82455238Y-94337142D01*
X82407619Y-94384761D01*
X82312380Y-94432380D01*
X82217142Y-94432380D01*
X82121904Y-94384761D01*
X82074285Y-94337142D01*
X82026666Y-94241904D01*
X81979047Y-94051428D01*
X81979047Y-93813333D01*
X82026666Y-93622857D01*
X82074285Y-93527619D01*
X82121904Y-93480000D01*
X82217142Y-93432380D01*
X82979047Y-94337142D02*
X83026666Y-94384761D01*
X82979047Y-94432380D01*
X82931428Y-94384761D01*
X82979047Y-94337142D01*
X82979047Y-94432380D01*
X83979047Y-94432380D02*
X83407619Y-94432380D01*
X83693333Y-94432380D02*
X83693333Y-93432380D01*
X83598095Y-93575238D01*
X83502857Y-93670476D01*
X83407619Y-93718095D01*
X84836190Y-93765714D02*
X84836190Y-94432380D01*
X84407619Y-93765714D02*
X84407619Y-94289523D01*
X84455238Y-94384761D01*
X84550476Y-94432380D01*
X84693333Y-94432380D01*
X84788571Y-94384761D01*
X84836190Y-94337142D01*
X85645714Y-93908571D02*
X85312380Y-93908571D01*
X85312380Y-94432380D02*
X85312380Y-93432380D01*
X85788571Y-93432380D01*
G04 #@! TO.C,C3*
X92377142Y-64984380D02*
X92472380Y-64984380D01*
X92567619Y-65032000D01*
X92615238Y-65079619D01*
X92662857Y-65174857D01*
X92710476Y-65365333D01*
X92710476Y-65603428D01*
X92662857Y-65793904D01*
X92615238Y-65889142D01*
X92567619Y-65936761D01*
X92472380Y-65984380D01*
X92377142Y-65984380D01*
X92281904Y-65936761D01*
X92234285Y-65889142D01*
X92186666Y-65793904D01*
X92139047Y-65603428D01*
X92139047Y-65365333D01*
X92186666Y-65174857D01*
X92234285Y-65079619D01*
X92281904Y-65032000D01*
X92377142Y-64984380D01*
X93139047Y-65889142D02*
X93186666Y-65936761D01*
X93139047Y-65984380D01*
X93091428Y-65936761D01*
X93139047Y-65889142D01*
X93139047Y-65984380D01*
X94139047Y-65984380D02*
X93567619Y-65984380D01*
X93853333Y-65984380D02*
X93853333Y-64984380D01*
X93758095Y-65127238D01*
X93662857Y-65222476D01*
X93567619Y-65270095D01*
X94996190Y-65317714D02*
X94996190Y-65984380D01*
X94567619Y-65317714D02*
X94567619Y-65841523D01*
X94615238Y-65936761D01*
X94710476Y-65984380D01*
X94853333Y-65984380D01*
X94948571Y-65936761D01*
X94996190Y-65889142D01*
X95805714Y-65460571D02*
X95472380Y-65460571D01*
X95472380Y-65984380D02*
X95472380Y-64984380D01*
X95948571Y-64984380D01*
G04 #@! TO.C,C2*
X92337142Y-95464380D02*
X92432380Y-95464380D01*
X92527619Y-95512000D01*
X92575238Y-95559619D01*
X92622857Y-95654857D01*
X92670476Y-95845333D01*
X92670476Y-96083428D01*
X92622857Y-96273904D01*
X92575238Y-96369142D01*
X92527619Y-96416761D01*
X92432380Y-96464380D01*
X92337142Y-96464380D01*
X92241904Y-96416761D01*
X92194285Y-96369142D01*
X92146666Y-96273904D01*
X92099047Y-96083428D01*
X92099047Y-95845333D01*
X92146666Y-95654857D01*
X92194285Y-95559619D01*
X92241904Y-95512000D01*
X92337142Y-95464380D01*
X93099047Y-96369142D02*
X93146666Y-96416761D01*
X93099047Y-96464380D01*
X93051428Y-96416761D01*
X93099047Y-96369142D01*
X93099047Y-96464380D01*
X94099047Y-96464380D02*
X93527619Y-96464380D01*
X93813333Y-96464380D02*
X93813333Y-95464380D01*
X93718095Y-95607238D01*
X93622857Y-95702476D01*
X93527619Y-95750095D01*
X94956190Y-95797714D02*
X94956190Y-96464380D01*
X94527619Y-95797714D02*
X94527619Y-96321523D01*
X94575238Y-96416761D01*
X94670476Y-96464380D01*
X94813333Y-96464380D01*
X94908571Y-96416761D01*
X94956190Y-96369142D01*
X95765714Y-95940571D02*
X95432380Y-95940571D01*
X95432380Y-96464380D02*
X95432380Y-95464380D01*
X95908571Y-95464380D01*
G04 #@! TO.C,C1*
X72057142Y-78192380D02*
X72152380Y-78192380D01*
X72247619Y-78240000D01*
X72295238Y-78287619D01*
X72342857Y-78382857D01*
X72390476Y-78573333D01*
X72390476Y-78811428D01*
X72342857Y-79001904D01*
X72295238Y-79097142D01*
X72247619Y-79144761D01*
X72152380Y-79192380D01*
X72057142Y-79192380D01*
X71961904Y-79144761D01*
X71914285Y-79097142D01*
X71866666Y-79001904D01*
X71819047Y-78811428D01*
X71819047Y-78573333D01*
X71866666Y-78382857D01*
X71914285Y-78287619D01*
X71961904Y-78240000D01*
X72057142Y-78192380D01*
X72819047Y-79097142D02*
X72866666Y-79144761D01*
X72819047Y-79192380D01*
X72771428Y-79144761D01*
X72819047Y-79097142D01*
X72819047Y-79192380D01*
X73819047Y-79192380D02*
X73247619Y-79192380D01*
X73533333Y-79192380D02*
X73533333Y-78192380D01*
X73438095Y-78335238D01*
X73342857Y-78430476D01*
X73247619Y-78478095D01*
X74676190Y-78525714D02*
X74676190Y-79192380D01*
X74247619Y-78525714D02*
X74247619Y-79049523D01*
X74295238Y-79144761D01*
X74390476Y-79192380D01*
X74533333Y-79192380D01*
X74628571Y-79144761D01*
X74676190Y-79097142D01*
X75485714Y-78668571D02*
X75152380Y-78668571D01*
X75152380Y-79192380D02*
X75152380Y-78192380D01*
X75628571Y-78192380D01*
G04 #@! TO.C,Y2*
X67159142Y-48283523D02*
X67206761Y-48331142D01*
X67254380Y-48474000D01*
X67254380Y-48569238D01*
X67206761Y-48712095D01*
X67111523Y-48807333D01*
X67016285Y-48854952D01*
X66825809Y-48902571D01*
X66682952Y-48902571D01*
X66492476Y-48854952D01*
X66397238Y-48807333D01*
X66302000Y-48712095D01*
X66254380Y-48569238D01*
X66254380Y-48474000D01*
X66302000Y-48331142D01*
X66349619Y-48283523D01*
X67254380Y-47283523D02*
X66778190Y-47616857D01*
X67254380Y-47854952D02*
X66254380Y-47854952D01*
X66254380Y-47474000D01*
X66302000Y-47378761D01*
X66349619Y-47331142D01*
X66444857Y-47283523D01*
X66587714Y-47283523D01*
X66682952Y-47331142D01*
X66730571Y-47378761D01*
X66778190Y-47474000D01*
X66778190Y-47854952D01*
X66778190Y-46664476D02*
X67254380Y-46664476D01*
X66254380Y-46997809D02*
X66778190Y-46664476D01*
X66254380Y-46331142D01*
X67206761Y-46045428D02*
X67254380Y-45902571D01*
X67254380Y-45664476D01*
X67206761Y-45569238D01*
X67159142Y-45521619D01*
X67063904Y-45474000D01*
X66968666Y-45474000D01*
X66873428Y-45521619D01*
X66825809Y-45569238D01*
X66778190Y-45664476D01*
X66730571Y-45854952D01*
X66682952Y-45950190D01*
X66635333Y-45997809D01*
X66540095Y-46045428D01*
X66444857Y-46045428D01*
X66349619Y-45997809D01*
X66302000Y-45950190D01*
X66254380Y-45854952D01*
X66254380Y-45616857D01*
X66302000Y-45474000D01*
X66254380Y-45188285D02*
X66254380Y-44616857D01*
X67254380Y-44902571D02*
X66254380Y-44902571D01*
X66968666Y-44331142D02*
X66968666Y-43854952D01*
X67254380Y-44426380D02*
X66254380Y-44093047D01*
X67254380Y-43759714D01*
X67254380Y-42950190D02*
X67254380Y-43426380D01*
X66254380Y-43426380D01*
G04 #@! TO.C,Y1*
X95417380Y-48439523D02*
X95417380Y-49010952D01*
X95417380Y-48725238D02*
X94417380Y-48725238D01*
X94560238Y-48820476D01*
X94655476Y-48915714D01*
X94703095Y-49010952D01*
X94750714Y-47582380D02*
X95417380Y-47582380D01*
X94369761Y-47820476D02*
X95084047Y-48058571D01*
X95084047Y-47439523D01*
X95322142Y-47058571D02*
X95369761Y-47010952D01*
X95417380Y-47058571D01*
X95369761Y-47106190D01*
X95322142Y-47058571D01*
X95417380Y-47058571D01*
X94417380Y-46677619D02*
X94417380Y-46058571D01*
X94798333Y-46391904D01*
X94798333Y-46249047D01*
X94845952Y-46153809D01*
X94893571Y-46106190D01*
X94988809Y-46058571D01*
X95226904Y-46058571D01*
X95322142Y-46106190D01*
X95369761Y-46153809D01*
X95417380Y-46249047D01*
X95417380Y-46534761D01*
X95369761Y-46630000D01*
X95322142Y-46677619D01*
X95417380Y-45106190D02*
X95417380Y-45677619D01*
X95417380Y-45391904D02*
X94417380Y-45391904D01*
X94560238Y-45487142D01*
X94655476Y-45582380D01*
X94703095Y-45677619D01*
X94845952Y-44534761D02*
X94798333Y-44630000D01*
X94750714Y-44677619D01*
X94655476Y-44725238D01*
X94607857Y-44725238D01*
X94512619Y-44677619D01*
X94465000Y-44630000D01*
X94417380Y-44534761D01*
X94417380Y-44344285D01*
X94465000Y-44249047D01*
X94512619Y-44201428D01*
X94607857Y-44153809D01*
X94655476Y-44153809D01*
X94750714Y-44201428D01*
X94798333Y-44249047D01*
X94845952Y-44344285D01*
X94845952Y-44534761D01*
X94893571Y-44630000D01*
X94941190Y-44677619D01*
X95036428Y-44725238D01*
X95226904Y-44725238D01*
X95322142Y-44677619D01*
X95369761Y-44630000D01*
X95417380Y-44534761D01*
X95417380Y-44344285D01*
X95369761Y-44249047D01*
X95322142Y-44201428D01*
X95226904Y-44153809D01*
X95036428Y-44153809D01*
X94941190Y-44201428D01*
X94893571Y-44249047D01*
X94845952Y-44344285D01*
X95417380Y-43201428D02*
X95417380Y-43772857D01*
X95417380Y-43487142D02*
X94417380Y-43487142D01*
X94560238Y-43582380D01*
X94655476Y-43677619D01*
X94703095Y-43772857D01*
X94845952Y-42630000D02*
X94798333Y-42725238D01*
X94750714Y-42772857D01*
X94655476Y-42820476D01*
X94607857Y-42820476D01*
X94512619Y-42772857D01*
X94465000Y-42725238D01*
X94417380Y-42630000D01*
X94417380Y-42439523D01*
X94465000Y-42344285D01*
X94512619Y-42296666D01*
X94607857Y-42249047D01*
X94655476Y-42249047D01*
X94750714Y-42296666D01*
X94798333Y-42344285D01*
X94845952Y-42439523D01*
X94845952Y-42630000D01*
X94893571Y-42725238D01*
X94941190Y-42772857D01*
X95036428Y-42820476D01*
X95226904Y-42820476D01*
X95322142Y-42772857D01*
X95369761Y-42725238D01*
X95417380Y-42630000D01*
X95417380Y-42439523D01*
X95369761Y-42344285D01*
X95322142Y-42296666D01*
X95226904Y-42249047D01*
X95036428Y-42249047D01*
X94941190Y-42296666D01*
X94893571Y-42344285D01*
X94845952Y-42439523D01*
G04 #@! TO.C,U26*
X155630952Y-60202380D02*
X156297619Y-60202380D01*
X155869047Y-61202380D01*
X157107142Y-60535714D02*
X157107142Y-61202380D01*
X156869047Y-60154761D02*
X156630952Y-60869047D01*
X157250000Y-60869047D01*
X158107142Y-61202380D02*
X157630952Y-61202380D01*
X157630952Y-60202380D01*
X158392857Y-61154761D02*
X158535714Y-61202380D01*
X158773809Y-61202380D01*
X158869047Y-61154761D01*
X158916666Y-61107142D01*
X158964285Y-61011904D01*
X158964285Y-60916666D01*
X158916666Y-60821428D01*
X158869047Y-60773809D01*
X158773809Y-60726190D01*
X158583333Y-60678571D01*
X158488095Y-60630952D01*
X158440476Y-60583333D01*
X158392857Y-60488095D01*
X158392857Y-60392857D01*
X158440476Y-60297619D01*
X158488095Y-60250000D01*
X158583333Y-60202380D01*
X158821428Y-60202380D01*
X158964285Y-60250000D01*
X159916666Y-61202380D02*
X159345238Y-61202380D01*
X159630952Y-61202380D02*
X159630952Y-60202380D01*
X159535714Y-60345238D01*
X159440476Y-60440476D01*
X159345238Y-60488095D01*
X160297619Y-60297619D02*
X160345238Y-60250000D01*
X160440476Y-60202380D01*
X160678571Y-60202380D01*
X160773809Y-60250000D01*
X160821428Y-60297619D01*
X160869047Y-60392857D01*
X160869047Y-60488095D01*
X160821428Y-60630952D01*
X160250000Y-61202380D01*
X160869047Y-61202380D01*
X161773809Y-60202380D02*
X161297619Y-60202380D01*
X161250000Y-60678571D01*
X161297619Y-60630952D01*
X161392857Y-60583333D01*
X161630952Y-60583333D01*
X161726190Y-60630952D01*
X161773809Y-60678571D01*
X161821428Y-60773809D01*
X161821428Y-61011904D01*
X161773809Y-61107142D01*
X161726190Y-61154761D01*
X161630952Y-61202380D01*
X161392857Y-61202380D01*
X161297619Y-61154761D01*
X161250000Y-61107142D01*
G04 #@! TO.C,U25*
X145470952Y-60202380D02*
X146137619Y-60202380D01*
X145709047Y-61202380D01*
X146947142Y-60535714D02*
X146947142Y-61202380D01*
X146709047Y-60154761D02*
X146470952Y-60869047D01*
X147090000Y-60869047D01*
X147947142Y-61202380D02*
X147470952Y-61202380D01*
X147470952Y-60202380D01*
X148232857Y-61154761D02*
X148375714Y-61202380D01*
X148613809Y-61202380D01*
X148709047Y-61154761D01*
X148756666Y-61107142D01*
X148804285Y-61011904D01*
X148804285Y-60916666D01*
X148756666Y-60821428D01*
X148709047Y-60773809D01*
X148613809Y-60726190D01*
X148423333Y-60678571D01*
X148328095Y-60630952D01*
X148280476Y-60583333D01*
X148232857Y-60488095D01*
X148232857Y-60392857D01*
X148280476Y-60297619D01*
X148328095Y-60250000D01*
X148423333Y-60202380D01*
X148661428Y-60202380D01*
X148804285Y-60250000D01*
X149756666Y-61202380D02*
X149185238Y-61202380D01*
X149470952Y-61202380D02*
X149470952Y-60202380D01*
X149375714Y-60345238D01*
X149280476Y-60440476D01*
X149185238Y-60488095D01*
X150137619Y-60297619D02*
X150185238Y-60250000D01*
X150280476Y-60202380D01*
X150518571Y-60202380D01*
X150613809Y-60250000D01*
X150661428Y-60297619D01*
X150709047Y-60392857D01*
X150709047Y-60488095D01*
X150661428Y-60630952D01*
X150090000Y-61202380D01*
X150709047Y-61202380D01*
X151566190Y-60202380D02*
X151375714Y-60202380D01*
X151280476Y-60250000D01*
X151232857Y-60297619D01*
X151137619Y-60440476D01*
X151090000Y-60630952D01*
X151090000Y-61011904D01*
X151137619Y-61107142D01*
X151185238Y-61154761D01*
X151280476Y-61202380D01*
X151470952Y-61202380D01*
X151566190Y-61154761D01*
X151613809Y-61107142D01*
X151661428Y-61011904D01*
X151661428Y-60773809D01*
X151613809Y-60678571D01*
X151566190Y-60630952D01*
X151470952Y-60583333D01*
X151280476Y-60583333D01*
X151185238Y-60630952D01*
X151137619Y-60678571D01*
X151090000Y-60773809D01*
G04 #@! TO.C,U24*
X198810952Y-131322380D02*
X199477619Y-131322380D01*
X199049047Y-132322380D01*
X200287142Y-131655714D02*
X200287142Y-132322380D01*
X200049047Y-131274761D02*
X199810952Y-131989047D01*
X200430000Y-131989047D01*
X201287142Y-132322380D02*
X200810952Y-132322380D01*
X200810952Y-131322380D01*
X201572857Y-132274761D02*
X201715714Y-132322380D01*
X201953809Y-132322380D01*
X202049047Y-132274761D01*
X202096666Y-132227142D01*
X202144285Y-132131904D01*
X202144285Y-132036666D01*
X202096666Y-131941428D01*
X202049047Y-131893809D01*
X201953809Y-131846190D01*
X201763333Y-131798571D01*
X201668095Y-131750952D01*
X201620476Y-131703333D01*
X201572857Y-131608095D01*
X201572857Y-131512857D01*
X201620476Y-131417619D01*
X201668095Y-131370000D01*
X201763333Y-131322380D01*
X202001428Y-131322380D01*
X202144285Y-131370000D01*
X203049047Y-131322380D02*
X202572857Y-131322380D01*
X202525238Y-131798571D01*
X202572857Y-131750952D01*
X202668095Y-131703333D01*
X202906190Y-131703333D01*
X203001428Y-131750952D01*
X203049047Y-131798571D01*
X203096666Y-131893809D01*
X203096666Y-132131904D01*
X203049047Y-132227142D01*
X203001428Y-132274761D01*
X202906190Y-132322380D01*
X202668095Y-132322380D01*
X202572857Y-132274761D01*
X202525238Y-132227142D01*
X203430000Y-131322380D02*
X204096666Y-131322380D01*
X203668095Y-132322380D01*
X204382380Y-131322380D02*
X205001428Y-131322380D01*
X204668095Y-131703333D01*
X204810952Y-131703333D01*
X204906190Y-131750952D01*
X204953809Y-131798571D01*
X205001428Y-131893809D01*
X205001428Y-132131904D01*
X204953809Y-132227142D01*
X204906190Y-132274761D01*
X204810952Y-132322380D01*
X204525238Y-132322380D01*
X204430000Y-132274761D01*
X204382380Y-132227142D01*
G04 #@! TO.C,U23*
X208970952Y-131322380D02*
X209637619Y-131322380D01*
X209209047Y-132322380D01*
X210447142Y-131655714D02*
X210447142Y-132322380D01*
X210209047Y-131274761D02*
X209970952Y-131989047D01*
X210590000Y-131989047D01*
X211447142Y-132322380D02*
X210970952Y-132322380D01*
X210970952Y-131322380D01*
X211732857Y-132274761D02*
X211875714Y-132322380D01*
X212113809Y-132322380D01*
X212209047Y-132274761D01*
X212256666Y-132227142D01*
X212304285Y-132131904D01*
X212304285Y-132036666D01*
X212256666Y-131941428D01*
X212209047Y-131893809D01*
X212113809Y-131846190D01*
X211923333Y-131798571D01*
X211828095Y-131750952D01*
X211780476Y-131703333D01*
X211732857Y-131608095D01*
X211732857Y-131512857D01*
X211780476Y-131417619D01*
X211828095Y-131370000D01*
X211923333Y-131322380D01*
X212161428Y-131322380D01*
X212304285Y-131370000D01*
X212685238Y-131417619D02*
X212732857Y-131370000D01*
X212828095Y-131322380D01*
X213066190Y-131322380D01*
X213161428Y-131370000D01*
X213209047Y-131417619D01*
X213256666Y-131512857D01*
X213256666Y-131608095D01*
X213209047Y-131750952D01*
X212637619Y-132322380D01*
X213256666Y-132322380D01*
X214113809Y-131655714D02*
X214113809Y-132322380D01*
X213875714Y-131274761D02*
X213637619Y-131989047D01*
X214256666Y-131989047D01*
X215113809Y-131322380D02*
X214637619Y-131322380D01*
X214590000Y-131798571D01*
X214637619Y-131750952D01*
X214732857Y-131703333D01*
X214970952Y-131703333D01*
X215066190Y-131750952D01*
X215113809Y-131798571D01*
X215161428Y-131893809D01*
X215161428Y-132131904D01*
X215113809Y-132227142D01*
X215066190Y-132274761D01*
X214970952Y-132322380D01*
X214732857Y-132322380D01*
X214637619Y-132274761D01*
X214590000Y-132227142D01*
G04 #@! TO.C,U22*
X81026190Y-65710952D02*
X80930952Y-65663333D01*
X80883333Y-65615714D01*
X80835714Y-65520476D01*
X80835714Y-65472857D01*
X80883333Y-65377619D01*
X80930952Y-65330000D01*
X81026190Y-65282380D01*
X81216666Y-65282380D01*
X81311904Y-65330000D01*
X81359523Y-65377619D01*
X81407142Y-65472857D01*
X81407142Y-65520476D01*
X81359523Y-65615714D01*
X81311904Y-65663333D01*
X81216666Y-65710952D01*
X81026190Y-65710952D01*
X80930952Y-65758571D01*
X80883333Y-65806190D01*
X80835714Y-65901428D01*
X80835714Y-66091904D01*
X80883333Y-66187142D01*
X80930952Y-66234761D01*
X81026190Y-66282380D01*
X81216666Y-66282380D01*
X81311904Y-66234761D01*
X81359523Y-66187142D01*
X81407142Y-66091904D01*
X81407142Y-65901428D01*
X81359523Y-65806190D01*
X81311904Y-65758571D01*
X81216666Y-65710952D01*
X81788095Y-65377619D02*
X81835714Y-65330000D01*
X81930952Y-65282380D01*
X82169047Y-65282380D01*
X82264285Y-65330000D01*
X82311904Y-65377619D01*
X82359523Y-65472857D01*
X82359523Y-65568095D01*
X82311904Y-65710952D01*
X81740476Y-66282380D01*
X82359523Y-66282380D01*
X82930952Y-65710952D02*
X82835714Y-65663333D01*
X82788095Y-65615714D01*
X82740476Y-65520476D01*
X82740476Y-65472857D01*
X82788095Y-65377619D01*
X82835714Y-65330000D01*
X82930952Y-65282380D01*
X83121428Y-65282380D01*
X83216666Y-65330000D01*
X83264285Y-65377619D01*
X83311904Y-65472857D01*
X83311904Y-65520476D01*
X83264285Y-65615714D01*
X83216666Y-65663333D01*
X83121428Y-65710952D01*
X82930952Y-65710952D01*
X82835714Y-65758571D01*
X82788095Y-65806190D01*
X82740476Y-65901428D01*
X82740476Y-66091904D01*
X82788095Y-66187142D01*
X82835714Y-66234761D01*
X82930952Y-66282380D01*
X83121428Y-66282380D01*
X83216666Y-66234761D01*
X83264285Y-66187142D01*
X83311904Y-66091904D01*
X83311904Y-65901428D01*
X83264285Y-65806190D01*
X83216666Y-65758571D01*
X83121428Y-65710952D01*
X84169047Y-65615714D02*
X84169047Y-66282380D01*
X83930952Y-65234761D02*
X83692857Y-65949047D01*
X84311904Y-65949047D01*
G04 #@! TO.C,U21*
X166267142Y-60202380D02*
X166933809Y-60202380D01*
X166505238Y-61202380D01*
X167743333Y-60535714D02*
X167743333Y-61202380D01*
X167505238Y-60154761D02*
X167267142Y-60869047D01*
X167886190Y-60869047D01*
X168743333Y-61202380D02*
X168267142Y-61202380D01*
X168267142Y-60202380D01*
X169029047Y-61154761D02*
X169171904Y-61202380D01*
X169410000Y-61202380D01*
X169505238Y-61154761D01*
X169552857Y-61107142D01*
X169600476Y-61011904D01*
X169600476Y-60916666D01*
X169552857Y-60821428D01*
X169505238Y-60773809D01*
X169410000Y-60726190D01*
X169219523Y-60678571D01*
X169124285Y-60630952D01*
X169076666Y-60583333D01*
X169029047Y-60488095D01*
X169029047Y-60392857D01*
X169076666Y-60297619D01*
X169124285Y-60250000D01*
X169219523Y-60202380D01*
X169457619Y-60202380D01*
X169600476Y-60250000D01*
X170219523Y-60202380D02*
X170314761Y-60202380D01*
X170410000Y-60250000D01*
X170457619Y-60297619D01*
X170505238Y-60392857D01*
X170552857Y-60583333D01*
X170552857Y-60821428D01*
X170505238Y-61011904D01*
X170457619Y-61107142D01*
X170410000Y-61154761D01*
X170314761Y-61202380D01*
X170219523Y-61202380D01*
X170124285Y-61154761D01*
X170076666Y-61107142D01*
X170029047Y-61011904D01*
X169981428Y-60821428D01*
X169981428Y-60583333D01*
X170029047Y-60392857D01*
X170076666Y-60297619D01*
X170124285Y-60250000D01*
X170219523Y-60202380D01*
X171410000Y-60535714D02*
X171410000Y-61202380D01*
X171171904Y-60154761D02*
X170933809Y-60869047D01*
X171552857Y-60869047D01*
G04 #@! TO.C,U20*
X224687142Y-123702380D02*
X225353809Y-123702380D01*
X224925238Y-124702380D01*
X226163333Y-124035714D02*
X226163333Y-124702380D01*
X225925238Y-123654761D02*
X225687142Y-124369047D01*
X226306190Y-124369047D01*
X227163333Y-124702380D02*
X226687142Y-124702380D01*
X226687142Y-123702380D01*
X227449047Y-124654761D02*
X227591904Y-124702380D01*
X227830000Y-124702380D01*
X227925238Y-124654761D01*
X227972857Y-124607142D01*
X228020476Y-124511904D01*
X228020476Y-124416666D01*
X227972857Y-124321428D01*
X227925238Y-124273809D01*
X227830000Y-124226190D01*
X227639523Y-124178571D01*
X227544285Y-124130952D01*
X227496666Y-124083333D01*
X227449047Y-123988095D01*
X227449047Y-123892857D01*
X227496666Y-123797619D01*
X227544285Y-123750000D01*
X227639523Y-123702380D01*
X227877619Y-123702380D01*
X228020476Y-123750000D01*
X228639523Y-123702380D02*
X228734761Y-123702380D01*
X228830000Y-123750000D01*
X228877619Y-123797619D01*
X228925238Y-123892857D01*
X228972857Y-124083333D01*
X228972857Y-124321428D01*
X228925238Y-124511904D01*
X228877619Y-124607142D01*
X228830000Y-124654761D01*
X228734761Y-124702380D01*
X228639523Y-124702380D01*
X228544285Y-124654761D01*
X228496666Y-124607142D01*
X228449047Y-124511904D01*
X228401428Y-124321428D01*
X228401428Y-124083333D01*
X228449047Y-123892857D01*
X228496666Y-123797619D01*
X228544285Y-123750000D01*
X228639523Y-123702380D01*
X229306190Y-123702380D02*
X229972857Y-123702380D01*
X229544285Y-124702380D01*
G04 #@! TO.C,U19*
X183356666Y-66812380D02*
X183594761Y-67812380D01*
X183785238Y-67098095D01*
X183975714Y-67812380D01*
X184213809Y-66812380D01*
X184737619Y-67240952D02*
X184642380Y-67193333D01*
X184594761Y-67145714D01*
X184547142Y-67050476D01*
X184547142Y-67002857D01*
X184594761Y-66907619D01*
X184642380Y-66860000D01*
X184737619Y-66812380D01*
X184928095Y-66812380D01*
X185023333Y-66860000D01*
X185070952Y-66907619D01*
X185118571Y-67002857D01*
X185118571Y-67050476D01*
X185070952Y-67145714D01*
X185023333Y-67193333D01*
X184928095Y-67240952D01*
X184737619Y-67240952D01*
X184642380Y-67288571D01*
X184594761Y-67336190D01*
X184547142Y-67431428D01*
X184547142Y-67621904D01*
X184594761Y-67717142D01*
X184642380Y-67764761D01*
X184737619Y-67812380D01*
X184928095Y-67812380D01*
X185023333Y-67764761D01*
X185070952Y-67717142D01*
X185118571Y-67621904D01*
X185118571Y-67431428D01*
X185070952Y-67336190D01*
X185023333Y-67288571D01*
X184928095Y-67240952D01*
X185451904Y-66812380D02*
X186070952Y-66812380D01*
X185737619Y-67193333D01*
X185880476Y-67193333D01*
X185975714Y-67240952D01*
X186023333Y-67288571D01*
X186070952Y-67383809D01*
X186070952Y-67621904D01*
X186023333Y-67717142D01*
X185975714Y-67764761D01*
X185880476Y-67812380D01*
X185594761Y-67812380D01*
X185499523Y-67764761D01*
X185451904Y-67717142D01*
X187070952Y-67717142D02*
X187023333Y-67764761D01*
X186880476Y-67812380D01*
X186785238Y-67812380D01*
X186642380Y-67764761D01*
X186547142Y-67669523D01*
X186499523Y-67574285D01*
X186451904Y-67383809D01*
X186451904Y-67240952D01*
X186499523Y-67050476D01*
X186547142Y-66955238D01*
X186642380Y-66860000D01*
X186785238Y-66812380D01*
X186880476Y-66812380D01*
X187023333Y-66860000D01*
X187070952Y-66907619D01*
X187928095Y-67145714D02*
X187928095Y-67812380D01*
X187690000Y-66764761D02*
X187451904Y-67479047D01*
X188070952Y-67479047D01*
X188404285Y-66907619D02*
X188451904Y-66860000D01*
X188547142Y-66812380D01*
X188785238Y-66812380D01*
X188880476Y-66860000D01*
X188928095Y-66907619D01*
X188975714Y-67002857D01*
X188975714Y-67098095D01*
X188928095Y-67240952D01*
X188356666Y-67812380D01*
X188975714Y-67812380D01*
X189404285Y-67812380D02*
X189404285Y-66812380D01*
X189785238Y-66812380D01*
X189880476Y-66860000D01*
X189928095Y-66907619D01*
X189975714Y-67002857D01*
X189975714Y-67145714D01*
X189928095Y-67240952D01*
X189880476Y-67288571D01*
X189785238Y-67336190D01*
X189404285Y-67336190D01*
G04 #@! TO.C,U18*
X97687142Y-60202380D02*
X98353809Y-60202380D01*
X97925238Y-61202380D01*
X99163333Y-60535714D02*
X99163333Y-61202380D01*
X98925238Y-60154761D02*
X98687142Y-60869047D01*
X99306190Y-60869047D01*
X100163333Y-61202380D02*
X99687142Y-61202380D01*
X99687142Y-60202380D01*
X100449047Y-61154761D02*
X100591904Y-61202380D01*
X100830000Y-61202380D01*
X100925238Y-61154761D01*
X100972857Y-61107142D01*
X101020476Y-61011904D01*
X101020476Y-60916666D01*
X100972857Y-60821428D01*
X100925238Y-60773809D01*
X100830000Y-60726190D01*
X100639523Y-60678571D01*
X100544285Y-60630952D01*
X100496666Y-60583333D01*
X100449047Y-60488095D01*
X100449047Y-60392857D01*
X100496666Y-60297619D01*
X100544285Y-60250000D01*
X100639523Y-60202380D01*
X100877619Y-60202380D01*
X101020476Y-60250000D01*
X101353809Y-60202380D02*
X102020476Y-60202380D01*
X101591904Y-61202380D01*
X102830000Y-60535714D02*
X102830000Y-61202380D01*
X102591904Y-60154761D02*
X102353809Y-60869047D01*
X102972857Y-60869047D01*
G04 #@! TO.C,U17*
X70866190Y-65710952D02*
X70770952Y-65663333D01*
X70723333Y-65615714D01*
X70675714Y-65520476D01*
X70675714Y-65472857D01*
X70723333Y-65377619D01*
X70770952Y-65330000D01*
X70866190Y-65282380D01*
X71056666Y-65282380D01*
X71151904Y-65330000D01*
X71199523Y-65377619D01*
X71247142Y-65472857D01*
X71247142Y-65520476D01*
X71199523Y-65615714D01*
X71151904Y-65663333D01*
X71056666Y-65710952D01*
X70866190Y-65710952D01*
X70770952Y-65758571D01*
X70723333Y-65806190D01*
X70675714Y-65901428D01*
X70675714Y-66091904D01*
X70723333Y-66187142D01*
X70770952Y-66234761D01*
X70866190Y-66282380D01*
X71056666Y-66282380D01*
X71151904Y-66234761D01*
X71199523Y-66187142D01*
X71247142Y-66091904D01*
X71247142Y-65901428D01*
X71199523Y-65806190D01*
X71151904Y-65758571D01*
X71056666Y-65710952D01*
X71628095Y-65377619D02*
X71675714Y-65330000D01*
X71770952Y-65282380D01*
X72009047Y-65282380D01*
X72104285Y-65330000D01*
X72151904Y-65377619D01*
X72199523Y-65472857D01*
X72199523Y-65568095D01*
X72151904Y-65710952D01*
X71580476Y-66282380D01*
X72199523Y-66282380D01*
X72770952Y-65710952D02*
X72675714Y-65663333D01*
X72628095Y-65615714D01*
X72580476Y-65520476D01*
X72580476Y-65472857D01*
X72628095Y-65377619D01*
X72675714Y-65330000D01*
X72770952Y-65282380D01*
X72961428Y-65282380D01*
X73056666Y-65330000D01*
X73104285Y-65377619D01*
X73151904Y-65472857D01*
X73151904Y-65520476D01*
X73104285Y-65615714D01*
X73056666Y-65663333D01*
X72961428Y-65710952D01*
X72770952Y-65710952D01*
X72675714Y-65758571D01*
X72628095Y-65806190D01*
X72580476Y-65901428D01*
X72580476Y-66091904D01*
X72628095Y-66187142D01*
X72675714Y-66234761D01*
X72770952Y-66282380D01*
X72961428Y-66282380D01*
X73056666Y-66234761D01*
X73104285Y-66187142D01*
X73151904Y-66091904D01*
X73151904Y-65901428D01*
X73104285Y-65806190D01*
X73056666Y-65758571D01*
X72961428Y-65710952D01*
X74009047Y-65615714D02*
X74009047Y-66282380D01*
X73770952Y-65234761D02*
X73532857Y-65949047D01*
X74151904Y-65949047D01*
G04 #@! TO.C,U16*
X135310952Y-62742380D02*
X135977619Y-62742380D01*
X135549047Y-63742380D01*
X136787142Y-63075714D02*
X136787142Y-63742380D01*
X136549047Y-62694761D02*
X136310952Y-63409047D01*
X136930000Y-63409047D01*
X137787142Y-63742380D02*
X137310952Y-63742380D01*
X137310952Y-62742380D01*
X138072857Y-63694761D02*
X138215714Y-63742380D01*
X138453809Y-63742380D01*
X138549047Y-63694761D01*
X138596666Y-63647142D01*
X138644285Y-63551904D01*
X138644285Y-63456666D01*
X138596666Y-63361428D01*
X138549047Y-63313809D01*
X138453809Y-63266190D01*
X138263333Y-63218571D01*
X138168095Y-63170952D01*
X138120476Y-63123333D01*
X138072857Y-63028095D01*
X138072857Y-62932857D01*
X138120476Y-62837619D01*
X138168095Y-62790000D01*
X138263333Y-62742380D01*
X138501428Y-62742380D01*
X138644285Y-62790000D01*
X139596666Y-63742380D02*
X139025238Y-63742380D01*
X139310952Y-63742380D02*
X139310952Y-62742380D01*
X139215714Y-62885238D01*
X139120476Y-62980476D01*
X139025238Y-63028095D01*
X139930000Y-62742380D02*
X140549047Y-62742380D01*
X140215714Y-63123333D01*
X140358571Y-63123333D01*
X140453809Y-63170952D01*
X140501428Y-63218571D01*
X140549047Y-63313809D01*
X140549047Y-63551904D01*
X140501428Y-63647142D01*
X140453809Y-63694761D01*
X140358571Y-63742380D01*
X140072857Y-63742380D01*
X139977619Y-63694761D01*
X139930000Y-63647142D01*
X141120476Y-63170952D02*
X141025238Y-63123333D01*
X140977619Y-63075714D01*
X140930000Y-62980476D01*
X140930000Y-62932857D01*
X140977619Y-62837619D01*
X141025238Y-62790000D01*
X141120476Y-62742380D01*
X141310952Y-62742380D01*
X141406190Y-62790000D01*
X141453809Y-62837619D01*
X141501428Y-62932857D01*
X141501428Y-62980476D01*
X141453809Y-63075714D01*
X141406190Y-63123333D01*
X141310952Y-63170952D01*
X141120476Y-63170952D01*
X141025238Y-63218571D01*
X140977619Y-63266190D01*
X140930000Y-63361428D01*
X140930000Y-63551904D01*
X140977619Y-63647142D01*
X141025238Y-63694761D01*
X141120476Y-63742380D01*
X141310952Y-63742380D01*
X141406190Y-63694761D01*
X141453809Y-63647142D01*
X141501428Y-63551904D01*
X141501428Y-63361428D01*
X141453809Y-63266190D01*
X141406190Y-63218571D01*
X141310952Y-63170952D01*
G04 #@! TO.C,U15*
X139549523Y-131417619D02*
X139597142Y-131370000D01*
X139692380Y-131322380D01*
X139930476Y-131322380D01*
X140025714Y-131370000D01*
X140073333Y-131417619D01*
X140120952Y-131512857D01*
X140120952Y-131608095D01*
X140073333Y-131750952D01*
X139501904Y-132322380D01*
X140120952Y-132322380D01*
X140454285Y-131322380D02*
X141120952Y-131322380D01*
X140692380Y-132322380D01*
X142073333Y-132227142D02*
X142025714Y-132274761D01*
X141882857Y-132322380D01*
X141787619Y-132322380D01*
X141644761Y-132274761D01*
X141549523Y-132179523D01*
X141501904Y-132084285D01*
X141454285Y-131893809D01*
X141454285Y-131750952D01*
X141501904Y-131560476D01*
X141549523Y-131465238D01*
X141644761Y-131370000D01*
X141787619Y-131322380D01*
X141882857Y-131322380D01*
X142025714Y-131370000D01*
X142073333Y-131417619D01*
X142978095Y-131322380D02*
X142501904Y-131322380D01*
X142454285Y-131798571D01*
X142501904Y-131750952D01*
X142597142Y-131703333D01*
X142835238Y-131703333D01*
X142930476Y-131750952D01*
X142978095Y-131798571D01*
X143025714Y-131893809D01*
X143025714Y-132131904D01*
X142978095Y-132227142D01*
X142930476Y-132274761D01*
X142835238Y-132322380D01*
X142597142Y-132322380D01*
X142501904Y-132274761D01*
X142454285Y-132227142D01*
X143978095Y-132322380D02*
X143406666Y-132322380D01*
X143692380Y-132322380D02*
X143692380Y-131322380D01*
X143597142Y-131465238D01*
X143501904Y-131560476D01*
X143406666Y-131608095D01*
X144359047Y-131417619D02*
X144406666Y-131370000D01*
X144501904Y-131322380D01*
X144740000Y-131322380D01*
X144835238Y-131370000D01*
X144882857Y-131417619D01*
X144930476Y-131512857D01*
X144930476Y-131608095D01*
X144882857Y-131750952D01*
X144311428Y-132322380D01*
X144930476Y-132322380D01*
G04 #@! TO.C,U14*
X120864761Y-132036666D02*
X121340952Y-132036666D01*
X120769523Y-132322380D02*
X121102857Y-131322380D01*
X121436190Y-132322380D01*
X121721904Y-132274761D02*
X121864761Y-132322380D01*
X122102857Y-132322380D01*
X122198095Y-132274761D01*
X122245714Y-132227142D01*
X122293333Y-132131904D01*
X122293333Y-132036666D01*
X122245714Y-131941428D01*
X122198095Y-131893809D01*
X122102857Y-131846190D01*
X121912380Y-131798571D01*
X121817142Y-131750952D01*
X121769523Y-131703333D01*
X121721904Y-131608095D01*
X121721904Y-131512857D01*
X121769523Y-131417619D01*
X121817142Y-131370000D01*
X121912380Y-131322380D01*
X122150476Y-131322380D01*
X122293333Y-131370000D01*
X123150476Y-131322380D02*
X122960000Y-131322380D01*
X122864761Y-131370000D01*
X122817142Y-131417619D01*
X122721904Y-131560476D01*
X122674285Y-131750952D01*
X122674285Y-132131904D01*
X122721904Y-132227142D01*
X122769523Y-132274761D01*
X122864761Y-132322380D01*
X123055238Y-132322380D01*
X123150476Y-132274761D01*
X123198095Y-132227142D01*
X123245714Y-132131904D01*
X123245714Y-131893809D01*
X123198095Y-131798571D01*
X123150476Y-131750952D01*
X123055238Y-131703333D01*
X122864761Y-131703333D01*
X122769523Y-131750952D01*
X122721904Y-131798571D01*
X122674285Y-131893809D01*
X124245714Y-132227142D02*
X124198095Y-132274761D01*
X124055238Y-132322380D01*
X123960000Y-132322380D01*
X123817142Y-132274761D01*
X123721904Y-132179523D01*
X123674285Y-132084285D01*
X123626666Y-131893809D01*
X123626666Y-131750952D01*
X123674285Y-131560476D01*
X123721904Y-131465238D01*
X123817142Y-131370000D01*
X123960000Y-131322380D01*
X124055238Y-131322380D01*
X124198095Y-131370000D01*
X124245714Y-131417619D01*
X125198095Y-132322380D02*
X124626666Y-132322380D01*
X124912380Y-132322380D02*
X124912380Y-131322380D01*
X124817142Y-131465238D01*
X124721904Y-131560476D01*
X124626666Y-131608095D01*
X125817142Y-131322380D02*
X125912380Y-131322380D01*
X126007619Y-131370000D01*
X126055238Y-131417619D01*
X126102857Y-131512857D01*
X126150476Y-131703333D01*
X126150476Y-131941428D01*
X126102857Y-132131904D01*
X126055238Y-132227142D01*
X126007619Y-132274761D01*
X125912380Y-132322380D01*
X125817142Y-132322380D01*
X125721904Y-132274761D01*
X125674285Y-132227142D01*
X125626666Y-132131904D01*
X125579047Y-131941428D01*
X125579047Y-131703333D01*
X125626666Y-131512857D01*
X125674285Y-131417619D01*
X125721904Y-131370000D01*
X125817142Y-131322380D01*
X126769523Y-131322380D02*
X126864761Y-131322380D01*
X126960000Y-131370000D01*
X127007619Y-131417619D01*
X127055238Y-131512857D01*
X127102857Y-131703333D01*
X127102857Y-131941428D01*
X127055238Y-132131904D01*
X127007619Y-132227142D01*
X126960000Y-132274761D01*
X126864761Y-132322380D01*
X126769523Y-132322380D01*
X126674285Y-132274761D01*
X126626666Y-132227142D01*
X126579047Y-132131904D01*
X126531428Y-131941428D01*
X126531428Y-131703333D01*
X126579047Y-131512857D01*
X126626666Y-131417619D01*
X126674285Y-131370000D01*
X126769523Y-131322380D01*
X127674285Y-131750952D02*
X127579047Y-131703333D01*
X127531428Y-131655714D01*
X127483809Y-131560476D01*
X127483809Y-131512857D01*
X127531428Y-131417619D01*
X127579047Y-131370000D01*
X127674285Y-131322380D01*
X127864761Y-131322380D01*
X127960000Y-131370000D01*
X128007619Y-131417619D01*
X128055238Y-131512857D01*
X128055238Y-131560476D01*
X128007619Y-131655714D01*
X127960000Y-131703333D01*
X127864761Y-131750952D01*
X127674285Y-131750952D01*
X127579047Y-131798571D01*
X127531428Y-131846190D01*
X127483809Y-131941428D01*
X127483809Y-132131904D01*
X127531428Y-132227142D01*
X127579047Y-132274761D01*
X127674285Y-132322380D01*
X127864761Y-132322380D01*
X127960000Y-132274761D01*
X128007619Y-132227142D01*
X128055238Y-132131904D01*
X128055238Y-131941428D01*
X128007619Y-131846190D01*
X127960000Y-131798571D01*
X127864761Y-131750952D01*
G04 #@! TO.C,U13*
X103084761Y-132036666D02*
X103560952Y-132036666D01*
X102989523Y-132322380D02*
X103322857Y-131322380D01*
X103656190Y-132322380D01*
X103941904Y-132274761D02*
X104084761Y-132322380D01*
X104322857Y-132322380D01*
X104418095Y-132274761D01*
X104465714Y-132227142D01*
X104513333Y-132131904D01*
X104513333Y-132036666D01*
X104465714Y-131941428D01*
X104418095Y-131893809D01*
X104322857Y-131846190D01*
X104132380Y-131798571D01*
X104037142Y-131750952D01*
X103989523Y-131703333D01*
X103941904Y-131608095D01*
X103941904Y-131512857D01*
X103989523Y-131417619D01*
X104037142Y-131370000D01*
X104132380Y-131322380D01*
X104370476Y-131322380D01*
X104513333Y-131370000D01*
X105370476Y-131322380D02*
X105180000Y-131322380D01*
X105084761Y-131370000D01*
X105037142Y-131417619D01*
X104941904Y-131560476D01*
X104894285Y-131750952D01*
X104894285Y-132131904D01*
X104941904Y-132227142D01*
X104989523Y-132274761D01*
X105084761Y-132322380D01*
X105275238Y-132322380D01*
X105370476Y-132274761D01*
X105418095Y-132227142D01*
X105465714Y-132131904D01*
X105465714Y-131893809D01*
X105418095Y-131798571D01*
X105370476Y-131750952D01*
X105275238Y-131703333D01*
X105084761Y-131703333D01*
X104989523Y-131750952D01*
X104941904Y-131798571D01*
X104894285Y-131893809D01*
X106465714Y-132227142D02*
X106418095Y-132274761D01*
X106275238Y-132322380D01*
X106180000Y-132322380D01*
X106037142Y-132274761D01*
X105941904Y-132179523D01*
X105894285Y-132084285D01*
X105846666Y-131893809D01*
X105846666Y-131750952D01*
X105894285Y-131560476D01*
X105941904Y-131465238D01*
X106037142Y-131370000D01*
X106180000Y-131322380D01*
X106275238Y-131322380D01*
X106418095Y-131370000D01*
X106465714Y-131417619D01*
X107322857Y-131655714D02*
X107322857Y-132322380D01*
X107084761Y-131274761D02*
X106846666Y-131989047D01*
X107465714Y-131989047D01*
X108037142Y-131322380D02*
X108132380Y-131322380D01*
X108227619Y-131370000D01*
X108275238Y-131417619D01*
X108322857Y-131512857D01*
X108370476Y-131703333D01*
X108370476Y-131941428D01*
X108322857Y-132131904D01*
X108275238Y-132227142D01*
X108227619Y-132274761D01*
X108132380Y-132322380D01*
X108037142Y-132322380D01*
X107941904Y-132274761D01*
X107894285Y-132227142D01*
X107846666Y-132131904D01*
X107799047Y-131941428D01*
X107799047Y-131703333D01*
X107846666Y-131512857D01*
X107894285Y-131417619D01*
X107941904Y-131370000D01*
X108037142Y-131322380D01*
X108989523Y-131322380D02*
X109084761Y-131322380D01*
X109180000Y-131370000D01*
X109227619Y-131417619D01*
X109275238Y-131512857D01*
X109322857Y-131703333D01*
X109322857Y-131941428D01*
X109275238Y-132131904D01*
X109227619Y-132227142D01*
X109180000Y-132274761D01*
X109084761Y-132322380D01*
X108989523Y-132322380D01*
X108894285Y-132274761D01*
X108846666Y-132227142D01*
X108799047Y-132131904D01*
X108751428Y-131941428D01*
X108751428Y-131703333D01*
X108799047Y-131512857D01*
X108846666Y-131417619D01*
X108894285Y-131370000D01*
X108989523Y-131322380D01*
X109894285Y-131750952D02*
X109799047Y-131703333D01*
X109751428Y-131655714D01*
X109703809Y-131560476D01*
X109703809Y-131512857D01*
X109751428Y-131417619D01*
X109799047Y-131370000D01*
X109894285Y-131322380D01*
X110084761Y-131322380D01*
X110180000Y-131370000D01*
X110227619Y-131417619D01*
X110275238Y-131512857D01*
X110275238Y-131560476D01*
X110227619Y-131655714D01*
X110180000Y-131703333D01*
X110084761Y-131750952D01*
X109894285Y-131750952D01*
X109799047Y-131798571D01*
X109751428Y-131846190D01*
X109703809Y-131941428D01*
X109703809Y-132131904D01*
X109751428Y-132227142D01*
X109799047Y-132274761D01*
X109894285Y-132322380D01*
X110084761Y-132322380D01*
X110180000Y-132274761D01*
X110227619Y-132227142D01*
X110275238Y-132131904D01*
X110275238Y-131941428D01*
X110227619Y-131846190D01*
X110180000Y-131798571D01*
X110084761Y-131750952D01*
G04 #@! TO.C,U12*
X125150952Y-62742380D02*
X125817619Y-62742380D01*
X125389047Y-63742380D01*
X126627142Y-63075714D02*
X126627142Y-63742380D01*
X126389047Y-62694761D02*
X126150952Y-63409047D01*
X126770000Y-63409047D01*
X127627142Y-63742380D02*
X127150952Y-63742380D01*
X127150952Y-62742380D01*
X127912857Y-63694761D02*
X128055714Y-63742380D01*
X128293809Y-63742380D01*
X128389047Y-63694761D01*
X128436666Y-63647142D01*
X128484285Y-63551904D01*
X128484285Y-63456666D01*
X128436666Y-63361428D01*
X128389047Y-63313809D01*
X128293809Y-63266190D01*
X128103333Y-63218571D01*
X128008095Y-63170952D01*
X127960476Y-63123333D01*
X127912857Y-63028095D01*
X127912857Y-62932857D01*
X127960476Y-62837619D01*
X128008095Y-62790000D01*
X128103333Y-62742380D01*
X128341428Y-62742380D01*
X128484285Y-62790000D01*
X129436666Y-63742380D02*
X128865238Y-63742380D01*
X129150952Y-63742380D02*
X129150952Y-62742380D01*
X129055714Y-62885238D01*
X128960476Y-62980476D01*
X128865238Y-63028095D01*
X129770000Y-62742380D02*
X130389047Y-62742380D01*
X130055714Y-63123333D01*
X130198571Y-63123333D01*
X130293809Y-63170952D01*
X130341428Y-63218571D01*
X130389047Y-63313809D01*
X130389047Y-63551904D01*
X130341428Y-63647142D01*
X130293809Y-63694761D01*
X130198571Y-63742380D01*
X129912857Y-63742380D01*
X129817619Y-63694761D01*
X129770000Y-63647142D01*
X130865238Y-63742380D02*
X131055714Y-63742380D01*
X131150952Y-63694761D01*
X131198571Y-63647142D01*
X131293809Y-63504285D01*
X131341428Y-63313809D01*
X131341428Y-62932857D01*
X131293809Y-62837619D01*
X131246190Y-62790000D01*
X131150952Y-62742380D01*
X130960476Y-62742380D01*
X130865238Y-62790000D01*
X130817619Y-62837619D01*
X130770000Y-62932857D01*
X130770000Y-63170952D01*
X130817619Y-63266190D01*
X130865238Y-63313809D01*
X130960476Y-63361428D01*
X131150952Y-63361428D01*
X131246190Y-63313809D01*
X131293809Y-63266190D01*
X131341428Y-63170952D01*
G04 #@! TO.C,U11*
X188650952Y-131322380D02*
X189317619Y-131322380D01*
X188889047Y-132322380D01*
X190127142Y-131655714D02*
X190127142Y-132322380D01*
X189889047Y-131274761D02*
X189650952Y-131989047D01*
X190270000Y-131989047D01*
X191127142Y-132322380D02*
X190650952Y-132322380D01*
X190650952Y-131322380D01*
X191412857Y-132274761D02*
X191555714Y-132322380D01*
X191793809Y-132322380D01*
X191889047Y-132274761D01*
X191936666Y-132227142D01*
X191984285Y-132131904D01*
X191984285Y-132036666D01*
X191936666Y-131941428D01*
X191889047Y-131893809D01*
X191793809Y-131846190D01*
X191603333Y-131798571D01*
X191508095Y-131750952D01*
X191460476Y-131703333D01*
X191412857Y-131608095D01*
X191412857Y-131512857D01*
X191460476Y-131417619D01*
X191508095Y-131370000D01*
X191603333Y-131322380D01*
X191841428Y-131322380D01*
X191984285Y-131370000D01*
X192889047Y-131322380D02*
X192412857Y-131322380D01*
X192365238Y-131798571D01*
X192412857Y-131750952D01*
X192508095Y-131703333D01*
X192746190Y-131703333D01*
X192841428Y-131750952D01*
X192889047Y-131798571D01*
X192936666Y-131893809D01*
X192936666Y-132131904D01*
X192889047Y-132227142D01*
X192841428Y-132274761D01*
X192746190Y-132322380D01*
X192508095Y-132322380D01*
X192412857Y-132274761D01*
X192365238Y-132227142D01*
X193270000Y-131322380D02*
X193936666Y-131322380D01*
X193508095Y-132322380D01*
X194222380Y-131322380D02*
X194841428Y-131322380D01*
X194508095Y-131703333D01*
X194650952Y-131703333D01*
X194746190Y-131750952D01*
X194793809Y-131798571D01*
X194841428Y-131893809D01*
X194841428Y-132131904D01*
X194793809Y-132227142D01*
X194746190Y-132274761D01*
X194650952Y-132322380D01*
X194365238Y-132322380D01*
X194270000Y-132274761D01*
X194222380Y-132227142D01*
G04 #@! TO.C,U10*
X206756190Y-93650952D02*
X206660952Y-93603333D01*
X206613333Y-93555714D01*
X206565714Y-93460476D01*
X206565714Y-93412857D01*
X206613333Y-93317619D01*
X206660952Y-93270000D01*
X206756190Y-93222380D01*
X206946666Y-93222380D01*
X207041904Y-93270000D01*
X207089523Y-93317619D01*
X207137142Y-93412857D01*
X207137142Y-93460476D01*
X207089523Y-93555714D01*
X207041904Y-93603333D01*
X206946666Y-93650952D01*
X206756190Y-93650952D01*
X206660952Y-93698571D01*
X206613333Y-93746190D01*
X206565714Y-93841428D01*
X206565714Y-94031904D01*
X206613333Y-94127142D01*
X206660952Y-94174761D01*
X206756190Y-94222380D01*
X206946666Y-94222380D01*
X207041904Y-94174761D01*
X207089523Y-94127142D01*
X207137142Y-94031904D01*
X207137142Y-93841428D01*
X207089523Y-93746190D01*
X207041904Y-93698571D01*
X206946666Y-93650952D01*
X207518095Y-93317619D02*
X207565714Y-93270000D01*
X207660952Y-93222380D01*
X207899047Y-93222380D01*
X207994285Y-93270000D01*
X208041904Y-93317619D01*
X208089523Y-93412857D01*
X208089523Y-93508095D01*
X208041904Y-93650952D01*
X207470476Y-94222380D01*
X208089523Y-94222380D01*
X208422857Y-93222380D02*
X209041904Y-93222380D01*
X208708571Y-93603333D01*
X208851428Y-93603333D01*
X208946666Y-93650952D01*
X208994285Y-93698571D01*
X209041904Y-93793809D01*
X209041904Y-94031904D01*
X208994285Y-94127142D01*
X208946666Y-94174761D01*
X208851428Y-94222380D01*
X208565714Y-94222380D01*
X208470476Y-94174761D01*
X208422857Y-94127142D01*
X209375238Y-93222380D02*
X210041904Y-93222380D01*
X209613333Y-94222380D01*
G04 #@! TO.C,U9*
X111609523Y-78077619D02*
X111657142Y-78030000D01*
X111752380Y-77982380D01*
X111990476Y-77982380D01*
X112085714Y-78030000D01*
X112133333Y-78077619D01*
X112180952Y-78172857D01*
X112180952Y-78268095D01*
X112133333Y-78410952D01*
X111561904Y-78982380D01*
X112180952Y-78982380D01*
X112514285Y-77982380D02*
X113180952Y-77982380D01*
X112752380Y-78982380D01*
X114133333Y-78887142D02*
X114085714Y-78934761D01*
X113942857Y-78982380D01*
X113847619Y-78982380D01*
X113704761Y-78934761D01*
X113609523Y-78839523D01*
X113561904Y-78744285D01*
X113514285Y-78553809D01*
X113514285Y-78410952D01*
X113561904Y-78220476D01*
X113609523Y-78125238D01*
X113704761Y-78030000D01*
X113847619Y-77982380D01*
X113942857Y-77982380D01*
X114085714Y-78030000D01*
X114133333Y-78077619D01*
X115038095Y-77982380D02*
X114561904Y-77982380D01*
X114514285Y-78458571D01*
X114561904Y-78410952D01*
X114657142Y-78363333D01*
X114895238Y-78363333D01*
X114990476Y-78410952D01*
X115038095Y-78458571D01*
X115085714Y-78553809D01*
X115085714Y-78791904D01*
X115038095Y-78887142D01*
X114990476Y-78934761D01*
X114895238Y-78982380D01*
X114657142Y-78982380D01*
X114561904Y-78934761D01*
X114514285Y-78887142D01*
X116038095Y-78982380D02*
X115466666Y-78982380D01*
X115752380Y-78982380D02*
X115752380Y-77982380D01*
X115657142Y-78125238D01*
X115561904Y-78220476D01*
X115466666Y-78268095D01*
X116419047Y-78077619D02*
X116466666Y-78030000D01*
X116561904Y-77982380D01*
X116800000Y-77982380D01*
X116895238Y-78030000D01*
X116942857Y-78077619D01*
X116990476Y-78172857D01*
X116990476Y-78268095D01*
X116942857Y-78410952D01*
X116371428Y-78982380D01*
X116990476Y-78982380D01*
G04 #@! TO.C,U8*
X79430952Y-90682380D02*
X80097619Y-90682380D01*
X79669047Y-91682380D01*
X80907142Y-91015714D02*
X80907142Y-91682380D01*
X80669047Y-90634761D02*
X80430952Y-91349047D01*
X81050000Y-91349047D01*
X81907142Y-91682380D02*
X81430952Y-91682380D01*
X81430952Y-90682380D01*
X82192857Y-91634761D02*
X82335714Y-91682380D01*
X82573809Y-91682380D01*
X82669047Y-91634761D01*
X82716666Y-91587142D01*
X82764285Y-91491904D01*
X82764285Y-91396666D01*
X82716666Y-91301428D01*
X82669047Y-91253809D01*
X82573809Y-91206190D01*
X82383333Y-91158571D01*
X82288095Y-91110952D01*
X82240476Y-91063333D01*
X82192857Y-90968095D01*
X82192857Y-90872857D01*
X82240476Y-90777619D01*
X82288095Y-90730000D01*
X82383333Y-90682380D01*
X82621428Y-90682380D01*
X82764285Y-90730000D01*
X83145238Y-90777619D02*
X83192857Y-90730000D01*
X83288095Y-90682380D01*
X83526190Y-90682380D01*
X83621428Y-90730000D01*
X83669047Y-90777619D01*
X83716666Y-90872857D01*
X83716666Y-90968095D01*
X83669047Y-91110952D01*
X83097619Y-91682380D01*
X83716666Y-91682380D01*
X84621428Y-90682380D02*
X84145238Y-90682380D01*
X84097619Y-91158571D01*
X84145238Y-91110952D01*
X84240476Y-91063333D01*
X84478571Y-91063333D01*
X84573809Y-91110952D01*
X84621428Y-91158571D01*
X84669047Y-91253809D01*
X84669047Y-91491904D01*
X84621428Y-91587142D01*
X84573809Y-91634761D01*
X84478571Y-91682380D01*
X84240476Y-91682380D01*
X84145238Y-91634761D01*
X84097619Y-91587142D01*
X85002380Y-90682380D02*
X85669047Y-90682380D01*
X85240476Y-91682380D01*
G04 #@! TO.C,U7*
X219130952Y-62742380D02*
X219797619Y-62742380D01*
X219369047Y-63742380D01*
X220607142Y-63075714D02*
X220607142Y-63742380D01*
X220369047Y-62694761D02*
X220130952Y-63409047D01*
X220750000Y-63409047D01*
X221607142Y-63742380D02*
X221130952Y-63742380D01*
X221130952Y-62742380D01*
X221892857Y-63694761D02*
X222035714Y-63742380D01*
X222273809Y-63742380D01*
X222369047Y-63694761D01*
X222416666Y-63647142D01*
X222464285Y-63551904D01*
X222464285Y-63456666D01*
X222416666Y-63361428D01*
X222369047Y-63313809D01*
X222273809Y-63266190D01*
X222083333Y-63218571D01*
X221988095Y-63170952D01*
X221940476Y-63123333D01*
X221892857Y-63028095D01*
X221892857Y-62932857D01*
X221940476Y-62837619D01*
X221988095Y-62790000D01*
X222083333Y-62742380D01*
X222321428Y-62742380D01*
X222464285Y-62790000D01*
X223321428Y-62742380D02*
X223130952Y-62742380D01*
X223035714Y-62790000D01*
X222988095Y-62837619D01*
X222892857Y-62980476D01*
X222845238Y-63170952D01*
X222845238Y-63551904D01*
X222892857Y-63647142D01*
X222940476Y-63694761D01*
X223035714Y-63742380D01*
X223226190Y-63742380D01*
X223321428Y-63694761D01*
X223369047Y-63647142D01*
X223416666Y-63551904D01*
X223416666Y-63313809D01*
X223369047Y-63218571D01*
X223321428Y-63170952D01*
X223226190Y-63123333D01*
X223035714Y-63123333D01*
X222940476Y-63170952D01*
X222892857Y-63218571D01*
X222845238Y-63313809D01*
X223750000Y-62742380D02*
X224416666Y-62742380D01*
X223988095Y-63742380D01*
X224988095Y-62742380D02*
X225083333Y-62742380D01*
X225178571Y-62790000D01*
X225226190Y-62837619D01*
X225273809Y-62932857D01*
X225321428Y-63123333D01*
X225321428Y-63361428D01*
X225273809Y-63551904D01*
X225226190Y-63647142D01*
X225178571Y-63694761D01*
X225083333Y-63742380D01*
X224988095Y-63742380D01*
X224892857Y-63694761D01*
X224845238Y-63647142D01*
X224797619Y-63551904D01*
X224750000Y-63361428D01*
X224750000Y-63123333D01*
X224797619Y-62932857D01*
X224845238Y-62837619D01*
X224892857Y-62790000D01*
X224988095Y-62742380D01*
G04 #@! TO.C,U6*
X158496190Y-131750952D02*
X158400952Y-131703333D01*
X158353333Y-131655714D01*
X158305714Y-131560476D01*
X158305714Y-131512857D01*
X158353333Y-131417619D01*
X158400952Y-131370000D01*
X158496190Y-131322380D01*
X158686666Y-131322380D01*
X158781904Y-131370000D01*
X158829523Y-131417619D01*
X158877142Y-131512857D01*
X158877142Y-131560476D01*
X158829523Y-131655714D01*
X158781904Y-131703333D01*
X158686666Y-131750952D01*
X158496190Y-131750952D01*
X158400952Y-131798571D01*
X158353333Y-131846190D01*
X158305714Y-131941428D01*
X158305714Y-132131904D01*
X158353333Y-132227142D01*
X158400952Y-132274761D01*
X158496190Y-132322380D01*
X158686666Y-132322380D01*
X158781904Y-132274761D01*
X158829523Y-132227142D01*
X158877142Y-132131904D01*
X158877142Y-131941428D01*
X158829523Y-131846190D01*
X158781904Y-131798571D01*
X158686666Y-131750952D01*
X159258095Y-131417619D02*
X159305714Y-131370000D01*
X159400952Y-131322380D01*
X159639047Y-131322380D01*
X159734285Y-131370000D01*
X159781904Y-131417619D01*
X159829523Y-131512857D01*
X159829523Y-131608095D01*
X159781904Y-131750952D01*
X159210476Y-132322380D01*
X159829523Y-132322380D01*
X160734285Y-131322380D02*
X160258095Y-131322380D01*
X160210476Y-131798571D01*
X160258095Y-131750952D01*
X160353333Y-131703333D01*
X160591428Y-131703333D01*
X160686666Y-131750952D01*
X160734285Y-131798571D01*
X160781904Y-131893809D01*
X160781904Y-132131904D01*
X160734285Y-132227142D01*
X160686666Y-132274761D01*
X160591428Y-132322380D01*
X160353333Y-132322380D01*
X160258095Y-132274761D01*
X160210476Y-132227142D01*
X161258095Y-132322380D02*
X161448571Y-132322380D01*
X161543809Y-132274761D01*
X161591428Y-132227142D01*
X161686666Y-132084285D01*
X161734285Y-131893809D01*
X161734285Y-131512857D01*
X161686666Y-131417619D01*
X161639047Y-131370000D01*
X161543809Y-131322380D01*
X161353333Y-131322380D01*
X161258095Y-131370000D01*
X161210476Y-131417619D01*
X161162857Y-131512857D01*
X161162857Y-131750952D01*
X161210476Y-131846190D01*
X161258095Y-131893809D01*
X161353333Y-131941428D01*
X161543809Y-131941428D01*
X161639047Y-131893809D01*
X161686666Y-131846190D01*
X161734285Y-131750952D01*
G04 #@! TO.C,U5*
X176276190Y-131750952D02*
X176180952Y-131703333D01*
X176133333Y-131655714D01*
X176085714Y-131560476D01*
X176085714Y-131512857D01*
X176133333Y-131417619D01*
X176180952Y-131370000D01*
X176276190Y-131322380D01*
X176466666Y-131322380D01*
X176561904Y-131370000D01*
X176609523Y-131417619D01*
X176657142Y-131512857D01*
X176657142Y-131560476D01*
X176609523Y-131655714D01*
X176561904Y-131703333D01*
X176466666Y-131750952D01*
X176276190Y-131750952D01*
X176180952Y-131798571D01*
X176133333Y-131846190D01*
X176085714Y-131941428D01*
X176085714Y-132131904D01*
X176133333Y-132227142D01*
X176180952Y-132274761D01*
X176276190Y-132322380D01*
X176466666Y-132322380D01*
X176561904Y-132274761D01*
X176609523Y-132227142D01*
X176657142Y-132131904D01*
X176657142Y-131941428D01*
X176609523Y-131846190D01*
X176561904Y-131798571D01*
X176466666Y-131750952D01*
X177038095Y-131417619D02*
X177085714Y-131370000D01*
X177180952Y-131322380D01*
X177419047Y-131322380D01*
X177514285Y-131370000D01*
X177561904Y-131417619D01*
X177609523Y-131512857D01*
X177609523Y-131608095D01*
X177561904Y-131750952D01*
X176990476Y-132322380D01*
X177609523Y-132322380D01*
X178514285Y-131322380D02*
X178038095Y-131322380D01*
X177990476Y-131798571D01*
X178038095Y-131750952D01*
X178133333Y-131703333D01*
X178371428Y-131703333D01*
X178466666Y-131750952D01*
X178514285Y-131798571D01*
X178561904Y-131893809D01*
X178561904Y-132131904D01*
X178514285Y-132227142D01*
X178466666Y-132274761D01*
X178371428Y-132322380D01*
X178133333Y-132322380D01*
X178038095Y-132274761D01*
X177990476Y-132227142D01*
X179419047Y-131655714D02*
X179419047Y-132322380D01*
X179180952Y-131274761D02*
X178942857Y-131989047D01*
X179561904Y-131989047D01*
G04 #@! TO.C,U4*
X79430952Y-123702380D02*
X80097619Y-123702380D01*
X79669047Y-124702380D01*
X80907142Y-124035714D02*
X80907142Y-124702380D01*
X80669047Y-123654761D02*
X80430952Y-124369047D01*
X81050000Y-124369047D01*
X81907142Y-124702380D02*
X81430952Y-124702380D01*
X81430952Y-123702380D01*
X82192857Y-124654761D02*
X82335714Y-124702380D01*
X82573809Y-124702380D01*
X82669047Y-124654761D01*
X82716666Y-124607142D01*
X82764285Y-124511904D01*
X82764285Y-124416666D01*
X82716666Y-124321428D01*
X82669047Y-124273809D01*
X82573809Y-124226190D01*
X82383333Y-124178571D01*
X82288095Y-124130952D01*
X82240476Y-124083333D01*
X82192857Y-123988095D01*
X82192857Y-123892857D01*
X82240476Y-123797619D01*
X82288095Y-123750000D01*
X82383333Y-123702380D01*
X82621428Y-123702380D01*
X82764285Y-123750000D01*
X83145238Y-123797619D02*
X83192857Y-123750000D01*
X83288095Y-123702380D01*
X83526190Y-123702380D01*
X83621428Y-123750000D01*
X83669047Y-123797619D01*
X83716666Y-123892857D01*
X83716666Y-123988095D01*
X83669047Y-124130952D01*
X83097619Y-124702380D01*
X83716666Y-124702380D01*
X84573809Y-124035714D02*
X84573809Y-124702380D01*
X84335714Y-123654761D02*
X84097619Y-124369047D01*
X84716666Y-124369047D01*
X85573809Y-123702380D02*
X85097619Y-123702380D01*
X85050000Y-124178571D01*
X85097619Y-124130952D01*
X85192857Y-124083333D01*
X85430952Y-124083333D01*
X85526190Y-124130952D01*
X85573809Y-124178571D01*
X85621428Y-124273809D01*
X85621428Y-124511904D01*
X85573809Y-124607142D01*
X85526190Y-124654761D01*
X85430952Y-124702380D01*
X85192857Y-124702380D01*
X85097619Y-124654761D01*
X85050000Y-124607142D01*
G04 #@! TO.C,U3*
X89590952Y-93222380D02*
X90257619Y-93222380D01*
X89829047Y-94222380D01*
X91067142Y-93555714D02*
X91067142Y-94222380D01*
X90829047Y-93174761D02*
X90590952Y-93889047D01*
X91210000Y-93889047D01*
X92067142Y-94222380D02*
X91590952Y-94222380D01*
X91590952Y-93222380D01*
X92352857Y-94174761D02*
X92495714Y-94222380D01*
X92733809Y-94222380D01*
X92829047Y-94174761D01*
X92876666Y-94127142D01*
X92924285Y-94031904D01*
X92924285Y-93936666D01*
X92876666Y-93841428D01*
X92829047Y-93793809D01*
X92733809Y-93746190D01*
X92543333Y-93698571D01*
X92448095Y-93650952D01*
X92400476Y-93603333D01*
X92352857Y-93508095D01*
X92352857Y-93412857D01*
X92400476Y-93317619D01*
X92448095Y-93270000D01*
X92543333Y-93222380D01*
X92781428Y-93222380D01*
X92924285Y-93270000D01*
X93829047Y-93222380D02*
X93352857Y-93222380D01*
X93305238Y-93698571D01*
X93352857Y-93650952D01*
X93448095Y-93603333D01*
X93686190Y-93603333D01*
X93781428Y-93650952D01*
X93829047Y-93698571D01*
X93876666Y-93793809D01*
X93876666Y-94031904D01*
X93829047Y-94127142D01*
X93781428Y-94174761D01*
X93686190Y-94222380D01*
X93448095Y-94222380D01*
X93352857Y-94174761D01*
X93305238Y-94127142D01*
X94210000Y-93222380D02*
X94876666Y-93222380D01*
X94448095Y-94222380D01*
X95162380Y-93222380D02*
X95781428Y-93222380D01*
X95448095Y-93603333D01*
X95590952Y-93603333D01*
X95686190Y-93650952D01*
X95733809Y-93698571D01*
X95781428Y-93793809D01*
X95781428Y-94031904D01*
X95733809Y-94127142D01*
X95686190Y-94174761D01*
X95590952Y-94222380D01*
X95305238Y-94222380D01*
X95210000Y-94174761D01*
X95162380Y-94127142D01*
G04 #@! TO.C,U2*
X89590952Y-123702380D02*
X90257619Y-123702380D01*
X89829047Y-124702380D01*
X91067142Y-124035714D02*
X91067142Y-124702380D01*
X90829047Y-123654761D02*
X90590952Y-124369047D01*
X91210000Y-124369047D01*
X92067142Y-124702380D02*
X91590952Y-124702380D01*
X91590952Y-123702380D01*
X92352857Y-124654761D02*
X92495714Y-124702380D01*
X92733809Y-124702380D01*
X92829047Y-124654761D01*
X92876666Y-124607142D01*
X92924285Y-124511904D01*
X92924285Y-124416666D01*
X92876666Y-124321428D01*
X92829047Y-124273809D01*
X92733809Y-124226190D01*
X92543333Y-124178571D01*
X92448095Y-124130952D01*
X92400476Y-124083333D01*
X92352857Y-123988095D01*
X92352857Y-123892857D01*
X92400476Y-123797619D01*
X92448095Y-123750000D01*
X92543333Y-123702380D01*
X92781428Y-123702380D01*
X92924285Y-123750000D01*
X93829047Y-123702380D02*
X93352857Y-123702380D01*
X93305238Y-124178571D01*
X93352857Y-124130952D01*
X93448095Y-124083333D01*
X93686190Y-124083333D01*
X93781428Y-124130952D01*
X93829047Y-124178571D01*
X93876666Y-124273809D01*
X93876666Y-124511904D01*
X93829047Y-124607142D01*
X93781428Y-124654761D01*
X93686190Y-124702380D01*
X93448095Y-124702380D01*
X93352857Y-124654761D01*
X93305238Y-124607142D01*
X94210000Y-123702380D02*
X94876666Y-123702380D01*
X94448095Y-124702380D01*
X95162380Y-123702380D02*
X95781428Y-123702380D01*
X95448095Y-124083333D01*
X95590952Y-124083333D01*
X95686190Y-124130952D01*
X95733809Y-124178571D01*
X95781428Y-124273809D01*
X95781428Y-124511904D01*
X95733809Y-124607142D01*
X95686190Y-124654761D01*
X95590952Y-124702380D01*
X95305238Y-124702380D01*
X95210000Y-124654761D01*
X95162380Y-124607142D01*
G04 #@! TO.C,U1*
X67056190Y-134290952D02*
X66960952Y-134243333D01*
X66913333Y-134195714D01*
X66865714Y-134100476D01*
X66865714Y-134052857D01*
X66913333Y-133957619D01*
X66960952Y-133910000D01*
X67056190Y-133862380D01*
X67246666Y-133862380D01*
X67341904Y-133910000D01*
X67389523Y-133957619D01*
X67437142Y-134052857D01*
X67437142Y-134100476D01*
X67389523Y-134195714D01*
X67341904Y-134243333D01*
X67246666Y-134290952D01*
X67056190Y-134290952D01*
X66960952Y-134338571D01*
X66913333Y-134386190D01*
X66865714Y-134481428D01*
X66865714Y-134671904D01*
X66913333Y-134767142D01*
X66960952Y-134814761D01*
X67056190Y-134862380D01*
X67246666Y-134862380D01*
X67341904Y-134814761D01*
X67389523Y-134767142D01*
X67437142Y-134671904D01*
X67437142Y-134481428D01*
X67389523Y-134386190D01*
X67341904Y-134338571D01*
X67246666Y-134290952D01*
X68056190Y-133862380D02*
X68151428Y-133862380D01*
X68246666Y-133910000D01*
X68294285Y-133957619D01*
X68341904Y-134052857D01*
X68389523Y-134243333D01*
X68389523Y-134481428D01*
X68341904Y-134671904D01*
X68294285Y-134767142D01*
X68246666Y-134814761D01*
X68151428Y-134862380D01*
X68056190Y-134862380D01*
X67960952Y-134814761D01*
X67913333Y-134767142D01*
X67865714Y-134671904D01*
X67818095Y-134481428D01*
X67818095Y-134243333D01*
X67865714Y-134052857D01*
X67913333Y-133957619D01*
X67960952Y-133910000D01*
X68056190Y-133862380D01*
X68960952Y-134290952D02*
X68865714Y-134243333D01*
X68818095Y-134195714D01*
X68770476Y-134100476D01*
X68770476Y-134052857D01*
X68818095Y-133957619D01*
X68865714Y-133910000D01*
X68960952Y-133862380D01*
X69151428Y-133862380D01*
X69246666Y-133910000D01*
X69294285Y-133957619D01*
X69341904Y-134052857D01*
X69341904Y-134100476D01*
X69294285Y-134195714D01*
X69246666Y-134243333D01*
X69151428Y-134290952D01*
X68960952Y-134290952D01*
X68865714Y-134338571D01*
X68818095Y-134386190D01*
X68770476Y-134481428D01*
X68770476Y-134671904D01*
X68818095Y-134767142D01*
X68865714Y-134814761D01*
X68960952Y-134862380D01*
X69151428Y-134862380D01*
X69246666Y-134814761D01*
X69294285Y-134767142D01*
X69341904Y-134671904D01*
X69341904Y-134481428D01*
X69294285Y-134386190D01*
X69246666Y-134338571D01*
X69151428Y-134290952D01*
X69913333Y-134290952D02*
X69818095Y-134243333D01*
X69770476Y-134195714D01*
X69722857Y-134100476D01*
X69722857Y-134052857D01*
X69770476Y-133957619D01*
X69818095Y-133910000D01*
X69913333Y-133862380D01*
X70103809Y-133862380D01*
X70199047Y-133910000D01*
X70246666Y-133957619D01*
X70294285Y-134052857D01*
X70294285Y-134100476D01*
X70246666Y-134195714D01*
X70199047Y-134243333D01*
X70103809Y-134290952D01*
X69913333Y-134290952D01*
X69818095Y-134338571D01*
X69770476Y-134386190D01*
X69722857Y-134481428D01*
X69722857Y-134671904D01*
X69770476Y-134767142D01*
X69818095Y-134814761D01*
X69913333Y-134862380D01*
X70103809Y-134862380D01*
X70199047Y-134814761D01*
X70246666Y-134767142D01*
X70294285Y-134671904D01*
X70294285Y-134481428D01*
X70246666Y-134386190D01*
X70199047Y-134338571D01*
X70103809Y-134290952D01*
G04 #@! TO.C,SW1*
X62876666Y-66984761D02*
X63019523Y-67032380D01*
X63257619Y-67032380D01*
X63352857Y-66984761D01*
X63400476Y-66937142D01*
X63448095Y-66841904D01*
X63448095Y-66746666D01*
X63400476Y-66651428D01*
X63352857Y-66603809D01*
X63257619Y-66556190D01*
X63067142Y-66508571D01*
X62971904Y-66460952D01*
X62924285Y-66413333D01*
X62876666Y-66318095D01*
X62876666Y-66222857D01*
X62924285Y-66127619D01*
X62971904Y-66080000D01*
X63067142Y-66032380D01*
X63305238Y-66032380D01*
X63448095Y-66080000D01*
X63781428Y-66032380D02*
X64019523Y-67032380D01*
X64210000Y-66318095D01*
X64400476Y-67032380D01*
X64638571Y-66032380D01*
X65543333Y-67032380D02*
X64971904Y-67032380D01*
X65257619Y-67032380D02*
X65257619Y-66032380D01*
X65162380Y-66175238D01*
X65067142Y-66270476D01*
X64971904Y-66318095D01*
G04 #@! TO.C,C123*
X61345238Y-61455714D02*
X61345238Y-62122380D01*
X61107142Y-61074761D02*
X60869047Y-61789047D01*
X61488095Y-61789047D01*
X61869047Y-62027142D02*
X61916666Y-62074761D01*
X61869047Y-62122380D01*
X61821428Y-62074761D01*
X61869047Y-62027142D01*
X61869047Y-62122380D01*
X62250000Y-61122380D02*
X62916666Y-61122380D01*
X62488095Y-62122380D01*
X63726190Y-61455714D02*
X63726190Y-62122380D01*
X63297619Y-61455714D02*
X63297619Y-61979523D01*
X63345238Y-62074761D01*
X63440476Y-62122380D01*
X63583333Y-62122380D01*
X63678571Y-62074761D01*
X63726190Y-62027142D01*
X64535714Y-61598571D02*
X64202380Y-61598571D01*
X64202380Y-62122380D02*
X64202380Y-61122380D01*
X64678571Y-61122380D01*
G04 #@! TD*
M02*
