M48
; DRILL file {KiCad (5.1.8)-1} date 04/24/24 09:04:03
; FORMAT={-:-/ absolute / inch / decimal}
; #@! TF.CreationDate,2024-04-24T09:04:03-06:00
; #@! TF.GenerationSoftware,Kicad,Pcbnew,(5.1.8)-1
; #@! TF.FileFunction,Plated,1,6,PTH
FMAT,2
INCH
T1C0.0157
T2C0.0236
T3C0.0300
T4C0.0315
T5C0.0394
T6C0.0433
T7C0.0800
T8C0.1000
T9C0.1200
%
G90
G05
T1
X2.48Y-3.42
X2.48Y-3.75
X2.48Y-3.92
X2.48Y-4.12
X2.51Y-3.82
X2.51Y-4.45
X2.54Y-3.72
X2.54Y-4.25
X2.57Y-3.52
X2.57Y-3.92
X2.79Y-5.02
X2.79Y-5.22
X2.84Y-2.58
X2.84Y-4.22
X2.87Y-2.82
X2.87Y-4.52
X2.9Y-3.25
X2.9Y-4.42
X2.93Y-3.35
X2.93Y-4.12
X3.17Y-2.92
X3.17Y-3.32
X3.17Y-3.92
X3.17Y-4.55
X3.31Y-3.98
X3.31Y-4.65
X3.33Y-3.08
X3.33Y-3.28
X3.44Y-3.72
X3.5Y-3.8
X3.57Y-3.18
X3.57Y-3.42
X3.6Y-3.28
X3.6Y-3.52
X3.63Y-3.38
X3.63Y-3.61
X3.71Y-2.72
X3.71Y-2.95
X3.71Y-3.92
X3.71Y-4.32
X3.74Y-3.62
X3.74Y-4.85
X3.86Y-1.82
X3.86Y-2.22
X3.88Y-5.22
X3.92Y-3.38
X3.97Y-2.62
X3.97Y-4.72
X4.0Y-2.52
X4.0Y-4.62
X4.0Y-4.62
X4.03Y-2.42
X4.03Y-4.52
X4.03Y-4.52
X4.04Y-1.88
X4.04Y-2.28
X4.04Y-4.65
X4.04Y-4.92
X4.06Y-2.36
X4.06Y-4.42
X4.07Y-4.55
X4.07Y-5.02
X4.09Y-2.48
X4.09Y-4.32
X4.1Y-4.45
X4.1Y-5.08
X4.12Y-2.58
X4.12Y-4.22
X4.1285Y-4.98
X4.13Y-4.35
X4.1585Y-4.88
X4.16Y-3.28
X4.16Y-3.78
X4.16Y-4.25
X4.1885Y-4.78
X4.19Y-3.18
X4.19Y-3.72
X4.19Y-4.15
X4.22Y-3.45
X4.22Y-3.68
X4.22Y-4.05
X4.22Y-4.68
X4.25Y-3.82
X4.26Y-1.72
X4.29Y-1.78
X4.3Y-5.12
X4.32Y-1.88
X4.34Y-3.98
X4.35Y-1.82
X4.37Y-3.65
X4.37Y-3.92
X4.38Y-2.18
X4.4Y-4.28
X4.41Y-2.38
X4.43Y-4.48
X4.44Y-2.22
X4.44Y-2.48
X4.47Y-2.12
X4.47Y-2.58
X4.62Y-2.28
X4.62Y-2.48
X4.62Y-2.78
X4.65Y-1.92
X4.67Y-4.02
X4.68Y-2.02
X4.7Y-4.12
X4.71Y-1.98
X4.73Y-4.08
X4.74Y-2.08
X4.76Y-4.18
X4.9Y-1.6
X4.93Y-4.75
X4.93Y-4.92
X4.94Y-2.58
X4.95Y-3.54
X4.96Y-4.65
X4.96Y-5.02
X4.97Y-1.82
X4.99Y-4.55
X4.99Y-5.08
X5.01Y-1.92
X5.01Y-2.42
X5.02Y-4.45
X5.02Y-4.98
X5.05Y-4.35
X5.05Y-4.88
X5.07Y-1.98
X5.07Y-3.65
X5.08Y-4.25
X5.08Y-4.78
X5.1Y-1.88
X5.1Y-3.75
X5.11Y-4.15
X5.11Y-4.68
X5.13Y-1.72
X5.13Y-3.72
X5.3Y-3.68
X5.33Y-5.36
X5.36Y-3.62
X5.36Y-4.72
X5.37Y-5.36
X5.39Y-3.49
X5.39Y-4.62
X5.4Y-2.12
X5.4Y-2.38
X5.43Y-5.36
X5.47Y-3.42
X5.47Y-4.52
X5.47Y-5.36
X5.53Y-3.67
X5.53Y-5.36
X5.57Y-3.32
X5.57Y-4.42
X5.57Y-5.36
X5.6Y-4.85
X5.67Y-3.21
X5.67Y-4.32
X5.67Y-5.36
X5.73Y-5.36
X5.77Y-4.22
X5.77Y-5.36
X5.8Y-3.12
X5.83Y-3.02
X5.83Y-4.12
X5.83Y-5.36
X5.86Y-3.05
X5.87Y-5.36
X5.93Y-5.36
X5.97Y-5.36
X6.03Y-5.36
X6.07Y-2.92
X6.07Y-4.02
X6.07Y-5.36
X6.1Y-4.12
X6.1Y-4.99
X6.11Y-4.55
X6.13Y-4.32
X6.15Y-3.88
X6.15Y-4.05
X6.15Y-4.42
X6.16Y-4.22
X6.17Y-1.82
X6.17Y-2.18
X6.17Y-4.88
X6.17Y-5.36
X6.21Y-4.22
X6.27Y-4.52
X6.27Y-4.75
X6.27Y-5.36
X6.3Y-4.12
X6.33Y-2.08
X6.33Y-2.78
X6.37Y-4.34
X6.37Y-4.65
X6.37Y-5.36
X6.43Y-5.36
X6.47Y-3.92
X6.47Y-4.55
X6.47Y-5.36
X6.5Y-3.38
X6.52Y-5.36
X6.53Y-4.02
X6.53Y-4.42
X6.57Y-1.92
X6.57Y-2.55
X6.57Y-3.55
X6.57Y-5.36
X6.6Y-2.02
X6.6Y-3.52
X6.62Y-5.36
X6.67Y-5.36
X6.72Y-5.36
X6.77Y-3.95
X6.77Y-4.38
X6.77Y-5.36
X6.8Y-3.88
X6.8Y-4.28
X6.83Y-3.18
X6.87Y-5.36
X6.9Y-3.12
X6.97Y-5.36
X7.01Y-3.62
X7.01Y-3.92
X7.01Y-4.31
X7.02Y-5.36
X7.04Y-3.49
X7.04Y-4.24
X7.07Y-5.36
X7.1Y-3.08
X7.1Y-4.08
X7.15Y-3.35
X7.17Y-5.36
X7.2Y-3.45
X7.2Y-3.55
X7.25Y-3.55
X7.27Y-5.36
X7.37Y-5.36
X7.42Y-3.52
X7.45Y-2.21
X7.45Y-2.68
X7.47Y-5.02
X7.47Y-5.36
X7.5Y-2.25
X7.53Y-2.31
X7.57Y-2.78
X7.57Y-4.92
X7.57Y-5.36
X7.62Y-2.88
X7.62Y-4.82
X7.67Y-5.36
X7.77Y-5.36
X7.8Y-4.1
X7.81Y-2.35
X7.81Y-2.98
X7.83Y-3.32
X7.83Y-5.36
X7.84Y-3.08
X7.86Y-4.72
X7.87Y-5.36
X7.89Y-4.62
X7.97Y-3.38
X7.97Y-4.52
X7.97Y-5.36
X8.02Y-3.48
X8.02Y-4.42
X8.03Y-4.06
X8.07Y-5.36
X8.13Y-5.36
X8.15Y-2.95
X8.17Y-1.68
X8.17Y-5.36
X8.18Y-3.05
X8.2Y-1.78
X8.2Y-4.1
X8.21Y-3.12
X8.23Y-1.88
X8.23Y-5.36
X8.24Y-2.92
X8.26Y-1.98
X8.26Y-3.22
X8.26Y-3.58
X8.26Y-4.32
X8.27Y-5.36
X8.29Y-2.08
X8.3Y-5.12
X8.32Y-2.18
X8.32Y-3.32
X8.35Y-2.29
X8.35Y-3.43
X8.38Y-1.95
X8.38Y-2.38
X8.38Y-3.52
X8.41Y-1.85
X8.41Y-2.48
X8.41Y-3.62
X8.64Y-5.57
X8.75Y-1.92
X8.75Y-2.98
X8.78Y-1.82
X8.78Y-2.88
X8.81Y-1.72
X8.81Y-2.74
X8.84Y-1.78
X8.84Y-2.68
T2
X2.4409Y-2.3
X2.5Y-2.3
T3
X8.864Y-3.39
X8.864Y-3.658
X8.962Y-3.39
X8.962Y-3.473
X8.962Y-3.575
X8.962Y-3.658
T4
X5.3Y-1.7
X5.3Y-1.8
X5.3Y-1.9
X5.3Y-2.0
X5.3Y-2.1
X5.3Y-2.2
X5.3Y-2.3
X5.3Y-2.4
X5.6Y-1.7
X5.6Y-1.8
X5.6Y-1.9
X5.6Y-2.0
X5.6Y-2.1
X5.6Y-2.2
X5.6Y-2.3
X5.6Y-2.4
X5.7Y-1.7
X5.7Y-1.8
X5.7Y-1.9
X5.7Y-2.0
X5.7Y-2.1
X5.7Y-2.2
X5.7Y-2.3
X6.0Y-1.7
X6.0Y-1.8
X6.0Y-1.9
X6.0Y-2.0
X6.0Y-2.1
X6.0Y-2.2
X6.0Y-2.3
X7.2531Y-1.61
X7.45Y-1.61
X8.6Y-1.7
X8.6Y-1.8
X8.6Y-1.9
X8.6Y-2.0
X8.6Y-2.1
X8.6Y-2.2
X8.6Y-2.3
X8.6Y-2.4
X8.9Y-1.7
X8.9Y-1.8
X8.9Y-1.9
X8.9Y-2.0
X8.9Y-2.1
X8.9Y-2.2
X8.9Y-2.3
X8.9Y-2.4
X4.6031Y-1.58
X4.8Y-1.58
X8.3031Y-4.08
X8.5Y-4.08
X2.8031Y-3.18
X3.0Y-3.18
X3.8Y-1.7
X3.8Y-1.8
X3.8Y-1.9
X3.8Y-2.0
X3.8Y-2.1
X3.8Y-2.2
X3.8Y-2.3
X4.1Y-1.7
X4.1Y-1.8
X4.1Y-1.9
X4.1Y-2.0
X4.1Y-2.1
X4.1Y-2.2
X4.1Y-2.3
X2.5Y-1.7
X2.5Y-1.8929
X7.9Y-1.7
X7.9Y-1.8
X7.9Y-1.9
X7.9Y-2.0
X7.9Y-2.1
X7.9Y-2.2
X7.9Y-2.3
X7.9Y-2.4
X7.9Y-2.5
X7.9Y-2.6
X7.9Y-2.7
X7.9Y-2.8
X7.9Y-2.9
X7.9Y-3.0
X7.9Y-3.1
X7.9Y-3.2
X7.9Y-3.3
X7.9Y-3.4
X7.9Y-3.5
X7.9Y-3.6
X8.5Y-1.7
X8.5Y-1.8
X8.5Y-1.9
X8.5Y-2.0
X8.5Y-2.1
X8.5Y-2.2
X8.5Y-2.3
X8.5Y-2.4
X8.5Y-2.5
X8.5Y-2.6
X8.5Y-2.7
X8.5Y-2.8
X8.5Y-2.9
X8.5Y-3.0
X8.5Y-3.1
X8.5Y-3.2
X8.5Y-3.3
X8.5Y-3.4
X8.5Y-3.5
X8.5Y-3.6
X4.3031Y-3.48
X4.5Y-3.48
X6.7Y-4.0
X6.7Y-4.1
X6.7Y-4.2
X6.7Y-4.3
X6.7Y-4.4
X6.7Y-4.5
X6.7Y-4.6
X6.7Y-4.7
X6.7Y-4.8
X6.7Y-4.9
X6.7Y-5.0
X6.7Y-5.1
X7.3Y-4.0
X7.3Y-4.1
X7.3Y-4.2
X7.3Y-4.3
X7.3Y-4.4
X7.3Y-4.5
X7.3Y-4.6
X7.3Y-4.7
X7.3Y-4.8
X7.3Y-4.9
X7.3Y-5.0
X7.3Y-5.1
X3.6031Y-2.58
X3.8Y-2.58
X9.05Y-1.7
X9.05Y-1.8
X9.05Y-1.9
X9.05Y-2.0
X9.05Y-2.1
X9.05Y-2.2
X9.05Y-2.3
X9.05Y-2.4
X9.05Y-2.5
X3.67Y-2.08
X3.67Y-2.48
X4.6Y-3.6
X4.6Y-3.7
X4.6Y-3.8
X4.6Y-3.9
X4.6Y-4.0
X4.6Y-4.1
X4.6Y-4.2
X4.6Y-4.3
X4.6Y-4.4
X4.6Y-4.5
X4.6Y-4.6
X4.6Y-4.7
X4.6Y-4.8
X4.6Y-4.9
X4.6Y-5.0
X4.6Y-5.1
X5.2Y-3.6
X5.2Y-3.7
X5.2Y-3.8
X5.2Y-3.9
X5.2Y-4.0
X5.2Y-4.1
X5.2Y-4.2
X5.2Y-4.3
X5.2Y-4.4
X5.2Y-4.5
X5.2Y-4.6
X5.2Y-4.7
X5.2Y-4.8
X5.2Y-4.9
X5.2Y-5.0
X5.2Y-5.1
X2.7Y-1.7
X2.7Y-1.8
X2.7Y-1.9
X2.7Y-2.0
X2.7Y-2.1
X2.7Y-2.2
X2.7Y-2.3
X2.7Y-2.4
X2.7Y-2.5
X3.0Y-1.7
X3.0Y-1.8
X3.0Y-1.9
X3.0Y-2.0
X3.0Y-2.1
X3.0Y-2.2
X3.0Y-2.3
X3.0Y-2.4
X3.0Y-2.5
X3.6Y-1.7
X3.6Y-1.8929
X5.7031Y-3.68
X5.9Y-3.68
X7.4Y-4.2
X7.4Y-4.3
X7.4Y-4.4
X7.4Y-4.5
X7.4Y-4.6
X7.4Y-4.7
X7.4Y-4.8
X7.4Y-4.9
X7.4Y-5.0
X7.4Y-5.1
X7.7Y-4.2
X7.7Y-4.3
X7.7Y-4.4
X7.7Y-4.5
X7.7Y-4.6
X7.7Y-4.7
X7.7Y-4.8
X7.7Y-4.9
X7.7Y-5.0
X7.7Y-5.1
X3.9031Y-1.58
X4.1Y-1.58
X4.9Y-1.7
X4.9Y-1.8
X4.9Y-1.9
X4.9Y-2.0
X4.9Y-2.1
X4.9Y-2.2
X4.9Y-2.3
X4.9Y-2.4
X5.2Y-1.7
X5.2Y-1.8
X5.2Y-1.9
X5.2Y-2.0
X5.2Y-2.1
X5.2Y-2.2
X5.2Y-2.3
X5.2Y-2.4
X3.2031Y-3.78
X3.4Y-3.78
X5.8031Y-1.58
X6.0Y-1.58
X9.2Y-1.7
X9.2Y-1.8
X9.2Y-1.9
X9.2Y-2.0
X9.2Y-2.1
X9.2Y-2.2
X9.2Y-2.3
X9.2Y-2.4
X9.2Y-2.5
X7.0Y-1.9
X7.0Y-2.0
X7.0Y-2.1
X7.0Y-2.2
X7.0Y-2.3
X7.0Y-2.4
X7.1Y-1.8
X7.1Y-1.9
X7.1Y-2.0
X7.1Y-2.1
X7.1Y-2.2
X7.1Y-2.3
X7.1Y-2.4
X7.1Y-2.5
X7.2Y-1.8
X7.2Y-1.9
X7.2Y-2.4
X7.2Y-2.5
X7.3Y-1.8
X7.3Y-1.9
X7.3Y-2.4
X7.3Y-2.5
X7.4Y-1.8
X7.4Y-1.9
X7.4Y-2.4
X7.4Y-2.5
X7.5Y-1.8
X7.5Y-1.9
X7.5Y-2.4
X7.5Y-2.5
X7.6Y-1.8
X7.6Y-1.9
X7.6Y-2.0
X7.6Y-2.1
X7.6Y-2.2
X7.6Y-2.3
X7.6Y-2.4
X7.6Y-2.5
X7.7Y-1.9
X7.7Y-2.0
X7.7Y-2.1
X7.7Y-2.2
X7.7Y-2.3
X7.7Y-2.4
X8.8Y-4.2
X8.8Y-4.3
X8.8Y-4.4
X8.8Y-4.5
X8.8Y-4.6
X8.8Y-4.7
X8.8Y-4.8
X9.1Y-4.2
X9.1Y-4.3
X9.1Y-4.4
X9.1Y-4.5
X9.1Y-4.6
X9.1Y-4.7
X9.1Y-4.8
X7.8Y-4.2
X7.8Y-4.3
X7.8Y-4.4
X7.8Y-4.5
X7.8Y-4.6
X7.8Y-4.7
X7.8Y-4.8
X7.8Y-4.9
X7.8Y-5.0
X7.8Y-5.1
X8.1Y-4.2
X8.1Y-4.3
X8.1Y-4.4
X8.1Y-4.5
X8.1Y-4.6
X8.1Y-4.7
X8.1Y-4.8
X8.1Y-4.9
X8.1Y-5.0
X8.1Y-5.1
X3.5Y-3.9
X3.5Y-4.0
X3.5Y-4.1
X3.5Y-4.2
X3.5Y-4.3
X3.5Y-4.4
X3.5Y-4.5
X3.5Y-4.6
X3.5Y-4.7
X3.5Y-4.8
X3.8Y-3.9
X3.8Y-4.0
X3.8Y-4.1
X3.8Y-4.2
X3.8Y-4.3
X3.8Y-4.4
X3.8Y-4.5
X3.8Y-4.6
X3.8Y-4.7
X3.8Y-4.8
X6.4031Y-3.68
X6.6Y-3.68
X8.9031Y-4.08
X9.1Y-4.08
X3.1Y-2.8
X3.1Y-2.9
X3.1Y-3.0
X3.1Y-3.1
X3.1Y-3.2
X3.1Y-3.3
X3.1Y-3.4
X3.1Y-3.5
X3.4Y-2.8
X3.4Y-2.9
X3.4Y-3.0
X3.4Y-3.1
X3.4Y-3.2
X3.4Y-3.3
X3.4Y-3.4
X3.4Y-3.5
X7.1031Y-3.88
X7.3Y-3.88
X7.9031Y-4.08
X8.1Y-4.08
X6.7Y-3.68
X7.1Y-3.68
X3.6031Y-3.78
X3.8Y-3.78
X6.1Y-1.7
X6.1Y-1.8
X6.1Y-1.9
X6.1Y-2.0
X6.1Y-2.1
X6.1Y-2.2
X6.1Y-2.3
X6.4Y-1.7
X6.4Y-1.8
X6.4Y-1.9
X6.4Y-2.0
X6.4Y-2.1
X6.4Y-2.2
X6.4Y-2.3
X4.2Y-1.7
X4.2Y-1.8
X4.2Y-1.9
X4.2Y-2.0
X4.2Y-2.1
X4.2Y-2.2
X4.2Y-2.3
X4.2Y-2.4
X4.2Y-2.5
X4.2Y-2.6
X4.2Y-2.7
X4.2Y-2.8
X4.2Y-2.9
X4.2Y-3.0
X4.8Y-1.7
X4.8Y-1.8
X4.8Y-1.9
X4.8Y-2.0
X4.8Y-2.1
X4.8Y-2.2
X4.8Y-2.3
X4.8Y-2.4
X4.8Y-2.5
X4.8Y-2.6
X4.8Y-2.7
X4.8Y-2.8
X4.8Y-2.9
X4.8Y-3.0
X8.7031Y-1.58
X8.9Y-1.58
X3.5Y-2.7
X3.5Y-2.8
X3.5Y-2.9
X3.5Y-3.0
X3.5Y-3.1
X3.5Y-3.2
X3.5Y-3.3
X3.5Y-3.4
X3.5Y-3.5
X3.5Y-3.6
X3.8Y-2.7
X3.8Y-2.8
X3.8Y-2.9
X3.8Y-3.0
X3.8Y-3.1
X3.8Y-3.2
X3.8Y-3.3
X3.8Y-3.4
X3.8Y-3.5
X3.8Y-3.6
X2.8031Y-1.58
X3.0Y-1.58
X8.6Y-2.6
X8.6Y-2.7969
X6.2031Y-1.58
X6.4Y-1.58
X8.2Y-4.2
X8.2Y-4.3
X8.2Y-4.4
X8.2Y-4.5
X8.2Y-4.6
X8.2Y-4.7
X8.2Y-4.8
X8.2Y-4.9
X8.2Y-5.0
X8.2Y-5.1
X8.5Y-4.2
X8.5Y-4.3
X8.5Y-4.4
X8.5Y-4.5
X8.5Y-4.6
X8.5Y-4.7
X8.5Y-4.8
X8.5Y-4.9
X8.5Y-5.0
X8.5Y-5.1
X6.5Y-1.7
X6.5Y-1.8
X6.5Y-1.9
X6.5Y-2.0
X6.5Y-2.1
X6.5Y-2.2
X6.5Y-2.3
X6.8Y-1.7
X6.8Y-1.8
X6.8Y-1.9
X6.8Y-2.0
X6.8Y-2.1
X6.8Y-2.2
X6.8Y-2.3
X3.1Y-3.9
X3.1Y-4.0
X3.1Y-4.1
X3.1Y-4.2
X3.1Y-4.3
X3.1Y-4.4
X3.1Y-4.5
X3.1Y-4.6
X3.1Y-4.7
X3.1Y-4.8
X3.4Y-3.9
X3.4Y-4.0
X3.4Y-4.1
X3.4Y-4.2
X3.4Y-4.3
X3.4Y-4.4
X3.4Y-4.5
X3.4Y-4.6
X3.4Y-4.7
X3.4Y-4.8
X5.0031Y-3.48
X5.2Y-3.48
X3.9Y-3.6
X3.9Y-3.7
X3.9Y-3.8
X3.9Y-3.9
X3.9Y-4.0
X3.9Y-4.1
X3.9Y-4.2
X3.9Y-4.3
X3.9Y-4.4
X3.9Y-4.5
X3.9Y-4.6
X3.9Y-4.7
X3.9Y-4.8
X3.9Y-4.9
X3.9Y-5.0
X3.9Y-5.1
X4.5Y-3.6
X4.5Y-3.7
X4.5Y-3.8
X4.5Y-3.9
X4.5Y-4.0
X4.5Y-4.1
X4.5Y-4.2
X4.5Y-4.3
X4.5Y-4.4
X4.5Y-4.5
X4.5Y-4.6
X4.5Y-4.7
X4.5Y-4.8
X4.5Y-4.9
X4.5Y-5.0
X4.5Y-5.1
X5.0031Y-1.58
X5.2Y-1.58
X5.4031Y-1.58
X5.6Y-1.58
X9.42Y-2.7
X9.42Y-2.8
X9.42Y-2.9
X9.42Y-3.0
X6.6031Y-1.58
X6.8Y-1.58
X5.3Y-3.8
X5.3Y-3.9
X5.3Y-4.0
X5.3Y-4.1
X5.3Y-4.2
X5.3Y-4.3
X5.3Y-4.4
X5.3Y-4.5
X5.3Y-4.6
X5.3Y-4.7
X5.3Y-4.8
X5.3Y-4.9
X5.3Y-5.0
X5.3Y-5.1
X5.9Y-3.8
X5.9Y-3.9
X5.9Y-4.0
X5.9Y-4.1
X5.9Y-4.2
X5.9Y-4.3
X5.9Y-4.4
X5.9Y-4.5
X5.9Y-4.6
X5.9Y-4.7
X5.9Y-4.8
X5.9Y-4.9
X5.9Y-5.0
X5.9Y-5.1
X3.1Y-1.7
X3.1Y-1.8
X3.1Y-1.9
X3.1Y-2.0
X3.1Y-2.1
X3.1Y-2.2
X3.1Y-2.3
X3.1Y-2.4
X3.1Y-2.5
X3.4Y-1.7
X3.4Y-1.8
X3.4Y-1.9
X3.4Y-2.0
X3.4Y-2.1
X3.4Y-2.2
X3.4Y-2.3
X3.4Y-2.4
X3.4Y-2.5
X7.5031Y-4.08
X7.7Y-4.08
X6.0Y-3.8
X6.0Y-3.9
X6.0Y-4.0
X6.0Y-4.1
X6.0Y-4.2
X6.0Y-4.3
X6.0Y-4.4
X6.0Y-4.5
X6.0Y-4.6
X6.0Y-4.7
X6.0Y-4.8
X6.0Y-4.9
X6.0Y-5.0
X6.0Y-5.1
X6.6Y-3.8
X6.6Y-3.9
X6.6Y-4.0
X6.6Y-4.1
X6.6Y-4.2
X6.6Y-4.3
X6.6Y-4.4
X6.6Y-4.5
X6.6Y-4.6
X6.6Y-4.7
X6.6Y-4.8
X6.6Y-4.9
X6.6Y-5.0
X6.6Y-5.1
X3.2031Y-2.68
X3.4Y-2.68
X2.4Y-3.3
X2.4Y-3.4
X2.4Y-3.5
X2.4Y-3.6
X2.4Y-3.7
X2.4Y-3.8
X2.4Y-3.9
X2.4Y-4.0
X2.4Y-4.1
X2.4Y-4.2
X2.4Y-4.3
X2.4Y-4.4
X2.4Y-4.5
X2.4Y-4.6
X2.4Y-4.7
X2.4Y-4.8
X2.4Y-4.9
X2.4Y-5.0
X2.4Y-5.1
X2.4Y-5.2
X3.0Y-3.3
X3.0Y-3.4
X3.0Y-3.5
X3.0Y-3.6
X3.0Y-3.7
X3.0Y-3.8
X3.0Y-3.9
X3.0Y-4.0
X3.0Y-4.1
X3.0Y-4.2
X3.0Y-4.3
X3.0Y-4.4
X3.0Y-4.5
X3.0Y-4.6
X3.0Y-4.7
X3.0Y-4.8
X3.0Y-4.9
X3.0Y-5.0
X3.0Y-5.1
X3.0Y-5.2
X3.54Y-2.08
X3.54Y-2.48
X3.2031Y-1.58
X3.4Y-1.58
T5
X10.09Y-2.96
X10.09Y-3.06
X10.09Y-3.16
X10.09Y-3.26
T6
X2.4Y-2.7
X2.4Y-2.8772
X2.6559Y-2.7
X2.6559Y-2.8772
T7
X9.08Y-3.258
X9.08Y-3.79
T8
X9.112Y-3.524
T9
X9.09Y-5.25
X9.09Y-3.0
T0
M30
